<?xml version="1.0" encoding="UTF-8" standalone="no"?>
<svg
   xmlns:dc="http://purl.org/dc/elements/1.1/"
   xmlns:cc="http://creativecommons.org/ns#"
   xmlns:rdf="http://www.w3.org/1999/02/22-rdf-syntax-ns#"
   xmlns:svg="http://www.w3.org/2000/svg"
   xmlns="http://www.w3.org/2000/svg"
   xmlns:sodipodi="http://sodipodi.sourceforge.net/DTD/sodipodi-0.dtd"
   xmlns:inkscape="http://www.inkscape.org/namespaces/inkscape"
   sodipodi:docname="Clip.svg"
   inkscape:version="1.0.2 (e86c870879, 2021-01-15)"
   id="svg8"
   version="1.1"
   viewBox="0 0 10.16 128.5"
   height="128.5mm"
   width="10.16mm">
  <defs
     id="defs2" />
  <sodipodi:namedview
     inkscape:snap-global="true"
     inkscape:snap-bbox-midpoints="true"
     inkscape:snap-bbox="true"
     inkscape:document-rotation="0"
     inkscape:window-maximized="0"
     inkscape:window-y="23"
     inkscape:window-x="26"
     inkscape:window-height="1150"
     inkscape:window-width="1785"
     inkscape:lockguides="false"
     inkscape:guide-bbox="true"
     showguides="true"
     units="mm"
     showgrid="false"
     inkscape:current-layer="layer1"
     inkscape:document-units="mm"
     inkscape:cy="110.26851"
     inkscape:cx="7.9106746"
     inkscape:zoom="16"
     inkscape:pageshadow="2"
     inkscape:pageopacity="0.0"
     borderopacity="1.0"
     bordercolor="#666666"
     pagecolor="#ffffff"
     id="base"
     inkscape:bbox-nodes="false"
     inkscape:bbox-paths="false"
     inkscape:snap-grids="false"
     inkscape:snap-others="false"
     inkscape:object-nodes="false"
     inkscape:snap-nodes="false"
     inkscape:snap-bbox-edge-midpoints="false">
    <sodipodi:guide
       inkscape:color="rgb(0,0,255)"
       inkscape:locked="false"
       inkscape:label=""
       id="guide875"
       orientation="0,1"
       position="5.0800002,54.000002" />
    <sodipodi:guide
       position="5.0800001,63.500003"
       orientation="0,1"
       id="guide893"
       inkscape:label=""
       inkscape:locked="false"
       inkscape:color="rgb(0,0,255)" />
    <sodipodi:guide
       position="6.7800005,75.450038"
       orientation="0,1"
       id="guide901"
       inkscape:label=""
       inkscape:locked="false"
       inkscape:color="rgb(0,0,255)" />
    <sodipodi:guide
       position="5.0800001,32.750001"
       orientation="0,1"
       id="guide3392"
       inkscape:label=""
       inkscape:locked="false"
       inkscape:color="rgb(0,0,255)" />
    <sodipodi:guide
       inkscape:color="rgb(0,0,255)"
       inkscape:locked="false"
       inkscape:label=""
       id="guide907"
       orientation="0,1"
       position="5.0800001,12.750001" />
    <sodipodi:guide
       inkscape:color="rgb(0,0,255)"
       inkscape:locked="false"
       inkscape:label=""
       id="guide944"
       orientation="-1,0"
       position="5.0800002,74.250002" />
    <sodipodi:guide
       position="3.4000001,113.96726"
       orientation="-1,0"
       id="guide914"
       inkscape:label=""
       inkscape:locked="false"
       inkscape:color="rgb(0,0,255)" />
    <sodipodi:guide
       position="6.6800003,113.32986"
       orientation="-1,0"
       id="guide916"
       inkscape:label=""
       inkscape:locked="false"
       inkscape:color="rgb(0,0,255)" />
    <sodipodi:guide
       position="-1.4022818,115.3"
       orientation="0,1"
       id="guide918"
       inkscape:label=""
       inkscape:locked="false"
       inkscape:color="rgb(0,0,255)" />
    <sodipodi:guide
       position="1.1130001,77.000003"
       orientation="1,0"
       id="guide968" />
    <sodipodi:guide
       position="9.0530004,101"
       orientation="1,0"
       id="guide972" />
    <sodipodi:guide
       position="-2.5256972,103.28"
       orientation="0,1"
       id="guide974"
       inkscape:label=""
       inkscape:locked="false"
       inkscape:color="rgb(0,0,255)" />
    <sodipodi:guide
       position="-13.692188,93.600004"
       orientation="0,1"
       id="guide976"
       inkscape:label=""
       inkscape:locked="false"
       inkscape:color="rgb(0,0,255)" />
    <sodipodi:guide
       position="-0.79512689,83.920003"
       orientation="0,1"
       id="guide984"
       inkscape:label=""
       inkscape:locked="false"
       inkscape:color="rgb(0,0,255)" />
    <sodipodi:guide
       position="3.0000002,111.75"
       orientation="0,1"
       id="guide990"
       inkscape:label=""
       inkscape:locked="false"
       inkscape:color="rgb(0,0,255)" />
    <sodipodi:guide
       position="5.0800001,42.250002"
       orientation="0,-1"
       id="guide926" />
    <sodipodi:guide
       position="5.0800001,21.000001"
       orientation="0,1"
       id="guide910"
       inkscape:label=""
       inkscape:locked="false"
       inkscape:color="rgb(0,0,255)" />
    <sodipodi:guide
       position="12.303126,109.33"
       orientation="0,1"
       id="guide909"
       inkscape:label=""
       inkscape:locked="false"
       inkscape:color="rgb(0,0,255)" />
  </sodipodi:namedview>
  <metadata
     id="metadata5">
    <rdf:RDF>
      <cc:Work
         rdf:about="">
        <dc:format>image/svg+xml</dc:format>
        <dc:type
           rdf:resource="http://purl.org/dc/dcmitype/StillImage" />
        <dc:title />
      </cc:Work>
    </rdf:RDF>
  </metadata>
  <g
     transform="translate(0,-168.5)"
     id="layer1"
     inkscape:groupmode="layer"
     inkscape:label="Layer 1"
     style="display:inline">
    <rect
       style="display:inline;opacity:1;fill:#bbbbb0;fill-opacity:1;stroke:none;stroke-width:1.131;stroke-miterlimit:4;stroke-dasharray:none"
       id="rect838"
       width="10.16"
       height="128.5"
       x="-5.5511151e-17"
       y="168.5" />
    <text
       xml:space="preserve"
       style="font-weight:bold;font-stretch:condensed;font-size:2.82223px;line-height:1.25;font-family:'PT Sans Narrow';-inkscape-font-specification:'PT Sans Narrow, Bold Condensed';opacity:1;stroke-width:0.264583"
       x="2.0529213"
       y="233.73691"
       id="text64"><tspan
         sodipodi:role="line"
         id="tspan62"
         x="2.0529213"
         y="233.73691"
         style="stroke-width:0.264583" /></text>
    <g
       aria-label="GRANDE"
       id="text2569"
       style="font-size:1.76389px;line-height:1.25;font-family:'Source Sans Pro';-inkscape-font-specification:'Source Sans Pro, Normal';text-align:center;letter-spacing:0.370417px;text-anchor:middle;opacity:1;stroke-width:0.264583"
       transform="translate(0,-0.83024)">
      <path
         d="m 1.6963961,292.52968 c 0.1552223,0 0.2822224,-0.0564 0.3580696,-0.13405 v -0.48684 H 1.6734655 v 0.12171 h 0.2451807 v 0.30163 c -0.045861,0.0423 -0.1252362,0.067 -0.208139,0.067 -0.2469446,0 -0.3827641,-0.18168 -0.3827641,-0.47272 0,-0.28751 0.1481667,-0.46567 0.3810002,-0.46567 0.1164167,0 0.1905001,0.0441 0.2487085,0.10407 l 0.081139,-0.0917 c -0.067028,-0.0723 -0.1728612,-0.14287 -0.3333752,-0.14287 -0.3069168,0 -0.5309309,0.22754 -0.5309309,0.59972 0,0.37747 0.2169585,0.59972 0.5221114,0.59972 z"
         style="stroke-width:0.264583"
         id="path2571" />
      <path
         d="m 2.7000468,292.50851 h 0.1481668 v -0.48859 h 0.208139 l 0.2786946,0.48859 h 0.1675696 l -0.2945696,-0.50447 c 0.1569862,-0.0406 0.2592918,-0.1464 0.2592918,-0.32632 0,-0.24165 -0.1693334,-0.32632 -0.4056947,-0.32632 H 2.7000468 Z m 0.1481668,-0.60854 v -0.42862 h 0.192264 c 0.1799168,0 0.2786946,0.0547 0.2786946,0.20637 0,0.14817 -0.098778,0.22225 -0.2786946,0.22225 z"
         style="stroke-width:0.264583"
         id="path2573" />
      <path
         d="m 4.2699053,291.86293 c 0.04057,-0.12876 0.077611,-0.25576 0.112889,-0.38982 h 0.00706 c 0.037042,0.13406 0.074083,0.26106 0.1164168,0.38982 l 0.054681,0.17463 H 4.2152247 Z m -0.3545419,0.64558 h 0.1499307 l 0.111125,-0.35101 H 4.5979889 L 4.70735,292.50851 H 4.8643363 L 4.4745166,291.3514 H 4.3051831 Z"
         style="stroke-width:0.264583"
         id="path2575" />
      <path
         d="M 5.3987927,292.50851 H 5.53814 v -0.60854 c 0,-0.11994 -0.010583,-0.24518 -0.019403,-0.3616 h 0.00706 c 0.038806,0.0847 0.081139,0.1711 0.1252362,0.24871 l 0.4127502,0.72143 H 6.2225293 V 291.3514 H 6.083182 v 0.60325 c 0,0.11995 0.010583,0.24695 0.019403,0.36689 h -0.00706 c -0.040569,-0.0847 -0.081139,-0.1711 -0.1252361,-0.24871 L 5.5575428,291.3514 H 5.3987927 Z"
         style="stroke-width:0.264583"
         id="path2577" />
      <path
         d="m 6.9086818,292.50851 h 0.2963335 c 0.3492503,0 0.5397504,-0.21519 0.5397504,-0.58384 0,-0.36689 -0.1905001,-0.57327 -0.5468059,-0.57327 h -0.289278 z m 0.1481668,-0.1217 v -0.9137 h 0.1305278 c 0.2698752,0 0.4039309,0.16051 0.4039309,0.45156 0,0.2928 -0.1340557,0.46214 -0.4039309,0.46214 z"
         style="stroke-width:0.264583"
         id="path2579" />
      <path
         d="m 8.3656535,292.50851 h 0.6843893 v -0.12523 H 8.5138202 v -0.41981 h 0.4374447 v -0.12523 H 8.5138202 v -0.3616 H 9.0324039 V 291.3514 H 8.3656535 Z"
         style="stroke-width:0.264583"
         id="path2581" />
    </g>
    <text
       xml:space="preserve"
       style="font-weight:bold;font-stretch:condensed;font-size:2.82223px;line-height:1.25;font-family:'PT Sans Narrow';-inkscape-font-specification:'PT Sans Narrow, Bold Condensed';text-align:center;text-anchor:middle;opacity:1;stroke-width:0.264583"
       x="7.705914"
       y="247.28606"
       id="text925"><tspan
         sodipodi:role="line"
         id="tspan923"
         x="7.705914"
         y="247.28606"
         style="stroke-width:0.264583" /></text>
    <rect
       style="fill:#555d50;fill-opacity:1;stroke:none;stroke-width:0.264997"
       id="rect914"
       width="9"
       height="0.99029124"
       x="0.57999998"
       y="238.25" />
    <rect
       style="fill:#000000;fill-opacity:1;stroke:#fffff0;stroke-width:0.5;stroke-miterlimit:4;stroke-dasharray:none;stroke-opacity:1"
       id="rect892"
       width="8.3000002"
       height="43.799999"
       x="0.93000001"
       y="179.84999"
       rx="0.69999999"
       ry="0.69999999" />
    <rect
       style="fill:none;stroke:#555d50;stroke-width:0.265"
       id="rect896"
       width="8.7350006"
       height="62.235001"
       x="0.71249968"
       y="226.13251"
       rx="1"
       ry="1" />
    <rect
       style="display:inline;fill:#555d50;fill-opacity:1;stroke:none;stroke-width:0.829452;stroke-opacity:0.25"
       id="rect905"
       width="9"
       height="9.5"
       x="0.57999998"
       y="238.25"
       ry="0.80000001"
       rx="0.80000001" />
    <rect
       style="display:inline;fill:#555d50;fill-opacity:1;stroke:none;stroke-width:0.829452;stroke-opacity:0.25"
       id="rect907"
       width="9"
       height="9.5"
       x="0.57999998"
       y="259.5"
       ry="0.80000001"
       rx="0.80000001" />
    <g
       aria-label="Clip"
       id="text905"
       style="font-size:4.9389px;line-height:1.25;font-family:'PTQ Sans Narrow';-inkscape-font-specification:'PTQ Sans Narrow, Normal';stroke-width:0.264592"
       transform="matrix(0.9999313,0,0,1,12.91149,-0.31005)">
      <path
         d="m -9.6892678,177.33266 c -0.1333503,0 -0.246945,-0.0296 -0.3407842,-0.0889 -0.306212,-0.19262 -0.40499,-0.62724 -0.40499,-1.13595 0,-0.41981 0.05927,-0.73096 0.18274,-0.92851 0.118533,-0.19756 0.2963336,-0.29634 0.523523,-0.29634 0.2123727,0 0.3802953,0.0346 0.5185845,0.10372 l 0.1234725,-0.54822 c -0.1827393,-0.079 -0.4346232,-0.12841 -0.7161405,-0.12841 -0.3901735,0 -0.6815685,0.14323 -0.8840635,0.37536 -0.276578,0.31115 -0.40005,0.79022 -0.40005,1.41746 0,0.33585 0.02963,0.6223 0.09878,0.84949 0.158044,0.5581 0.488951,0.95321 1.1705188,0.95321 0.2913951,0 0.6074847,-0.0691 0.7704684,-0.20743 l -0.1234725,-0.52353 c -0.1382892,0.0889 -0.2913951,0.15805 -0.5185845,0.15805 z"
         style="stroke-width:0.264592"
         id="path907" />
      <path
         d="m -8.2569926,177.89569 c 0.1629837,0 0.4000509,-0.0445 0.49389,-0.10865 l -0.054328,-0.47414 c -0.069145,0.0296 -0.1234725,0.0444 -0.197556,0.0444 -0.1382892,0 -0.148167,-0.14816 -0.148167,-0.32103 v -2.65712 h -0.5877291 v 2.97321 c 0,0.37536 0.1382892,0.54328 0.49389,0.54328 z"
         style="stroke-width:0.264592"
         id="path909" />
      <path
         d="m -7.5112281,175.36698 v 2.46945 h 0.5877291 v -2.46945 z m 0.2913951,-0.36548 c 0.2173116,0 0.3802953,-0.1136 0.3802953,-0.33091 0,-0.21237 -0.1629837,-0.34078 -0.3802953,-0.34078 -0.2173116,0 -0.3605397,0.13335 -0.3605397,0.34078 0,0.21237 0.1432281,0.33091 0.3605397,0.33091 z"
         style="stroke-width:0.264592"
         id="path911" />
      <path
         d="m -5.5011031,177.90557 c 0.6865071,0 0.9235743,-0.61242 0.9235743,-1.36807 0,-0.43957 -0.064206,-0.75566 -0.1926171,-0.94333 -0.1284114,-0.18768 -0.3160896,-0.28646 -0.5630346,-0.28646 -0.3160896,0 -0.4691955,0.13335 -0.6025458,0.34078 h -0.014817 l -0.059267,-0.28151 h -0.4395621 v 3.45723 h 0.5877291 v -1.0026 c 0.098778,0.0642 0.197556,0.084 0.3605397,0.084 z m 0.3160896,-1.38289 c 0,0.31609 -0.034572,0.53834 -0.1037169,0.66675 -0.069145,0.12841 -0.1728615,0.19262 -0.3012729,0.19262 -0.1333503,0 -0.2074338,-0.0296 -0.2716395,-0.0988 v -1.16064 c 0.059267,-0.19262 0.1679226,-0.2914 0.3358452,-0.2914 0.296334,0 0.3407841,0.33585 0.3407841,0.69145 z"
         style="stroke-width:0.264592"
         id="path913" />
    </g>
    <g
       aria-label="InA"
       id="text939"
       style="font-size:2.82223px;line-height:1.25;font-family:'PTQ Sans Narrow';-inkscape-font-specification:'PTQ Sans Narrow, Normal';stroke-width:0.264583"
       transform="translate(10.238796,-22.46257)">
      <path
         d="m -6.7589983,249.47668 v 1.97556 h 0.355601 v -1.97556 z"
         style="stroke-width:0.264583"
         id="path945" />
      <path
         d="m -5.4410198,250.00726 c -0.1862672,0 -0.2991564,0.0875 -0.3668899,0.19755 h -0.00847 l -0.039511,-0.16369 h -0.2681119 v 1.41112 h 0.3358454 v -0.97931 c 0.0254,-0.079 0.095956,-0.15805 0.2032006,-0.15805 0.1411115,0 0.1608671,0.11289 0.1608671,0.2794 v 0.85796 h 0.3358454 v -0.9398 c 0,-0.29351 -0.067734,-0.50518 -0.3527788,-0.50518 z"
         style="stroke-width:0.264583"
         id="path947" />
      <path
         d="m -4.0524843,251.00633 0.1213559,0.44591 h 0.3725344 l -0.575735,-1.98967 h -0.2794007 l -0.5729127,1.98967 h 0.3527787 l 0.1157114,-0.44591 z m -0.3894677,-0.29351 0.1100669,-0.45721 0.047978,-0.31326 h 0.011289 l 0.045156,0.31044 0.1128893,0.46003 z"
         style="stroke-width:0.264583"
         id="path949" />
    </g>
    <g
       aria-label="InB"
       id="text943"
       style="font-size:2.82223px;line-height:1.25;font-family:'PTQ Sans Narrow';-inkscape-font-specification:'PTQ Sans Narrow, Normal';stroke-width:0.264583"
       transform="translate(10.415169,-15.90695)">
      <path
         d="m -6.8775152,264.18521 v 1.97556 h 0.3556009 v -1.97556 z"
         style="stroke-width:0.264583"
         id="path952" />
      <path
         d="m -5.5595367,264.71578 c -0.1862672,0 -0.2991564,0.0875 -0.3668899,0.19756 h -0.00847 l -0.039511,-0.16369 h -0.2681119 v 1.41112 h 0.3358454 v -0.97932 c 0.0254,-0.079 0.095956,-0.15804 0.2032006,-0.15804 0.1411115,0 0.1608671,0.11289 0.1608671,0.2794 v 0.85796 h 0.3358454 v -0.93981 c 0,-0.29351 -0.067734,-0.50518 -0.3527788,-0.50518 z"
         style="stroke-width:0.264583"
         id="path954" />
      <path
         d="m -4.4673354,264.15698 c -0.1636893,0 -0.3725343,0.0198 -0.5023569,0.0423 v 1.94734 c 0.1185336,0.0339 0.2765785,0.0423 0.4233345,0.0423 h 0.1016003 c 0.3866455,0 0.6519351,-0.19191 0.6519351,-0.5842 0,-0.26811 -0.1213559,-0.42616 -0.3330231,-0.47978 v -0.0169 c 0.1806227,-0.0593 0.2850452,-0.22577 0.2850452,-0.46566 0,-0.37254 -0.2568229,-0.48543 -0.6265351,-0.48543 z m -0.1467559,1.70745 v -0.56162 h 0.1439337 c 0.2032006,0 0.3048009,0.0734 0.3048009,0.2794 0,0.18062 -0.1016003,0.29916 -0.2709341,0.29916 -0.0508,0 -0.146756,-0.003 -0.1778005,-0.0169 z m 0.41769,-1.14018 c 0,0.1524 -0.090311,0.24554 -0.1975561,0.28505 -0.033867,0.008 -0.1016003,0.0141 -0.1382893,0.0141 h -0.081845 v -0.54751 c 0.031045,-0.006 0.084667,-0.0113 0.1636893,-0.0113 0.1693338,0 0.2540007,0.0875 0.2540007,0.25964 z"
         style="stroke-width:0.264583"
         id="path956" />
    </g>
    <path
       id="path986"
       d="m 1.78,213.08002 -1,0.99998 v -2"
       style="display:inline;fill:#fffff0;fill-opacity:1;stroke:none;stroke-width:0.264999;stroke-linecap:butt;stroke-linejoin:miter;stroke-miterlimit:4;stroke-dasharray:none;stroke-opacity:1"
       sodipodi:nodetypes="ccc" />
    <path
       id="path908"
       d="m 1.78,203.4 -1,1 v -2"
       style="display:inline;fill:#fffff0;fill-opacity:1;stroke:none;stroke-width:0.264999;stroke-linecap:butt;stroke-linejoin:miter;stroke-miterlimit:4;stroke-dasharray:none;stroke-opacity:1"
       sodipodi:nodetypes="ccc" />
    <path
       id="path910"
       d="m 1.78,193.72 -1,1 v -2"
       style="display:inline;fill:#fffff0;fill-opacity:1;stroke:none;stroke-width:0.265;stroke-linecap:butt;stroke-linejoin:miter;stroke-miterlimit:4;stroke-dasharray:none;stroke-opacity:1"
       sodipodi:nodetypes="ccc" />
    <path
       id="path912"
       d="m 8.38,193.72 1,1 v -2"
       style="display:inline;fill:#fffff0;fill-opacity:1;stroke:none;stroke-width:0.265;stroke-linecap:butt;stroke-linejoin:miter;stroke-miterlimit:4;stroke-dasharray:none;stroke-opacity:1"
       sodipodi:nodetypes="ccc" />
    <path
       id="path914"
       d="m 8.38,203.4 1,1 v -2"
       style="display:inline;fill:#fffff0;fill-opacity:1;stroke:none;stroke-width:0.265;stroke-linecap:butt;stroke-linejoin:miter;stroke-miterlimit:4;stroke-dasharray:none;stroke-opacity:1"
       sodipodi:nodetypes="ccc" />
    <path
       id="path916"
       d="m 8.38,213.08002 1,0.99998 v -2"
       style="display:inline;fill:#fffff0;fill-opacity:1;stroke:none;stroke-width:0.265;stroke-linecap:butt;stroke-linejoin:miter;stroke-miterlimit:4;stroke-dasharray:none;stroke-opacity:1"
       sodipodi:nodetypes="ccc" />
    <g
       aria-label="Vclip"
       id="text910"
       style="font-size:2.46944px;line-height:1.25;font-family:'PTQ Sans Narrow';-inkscape-font-specification:'PTQ Sans Narrow, Normal';stroke-width:0.264583"
       transform="translate(-10.040349,34.60593)">
      <path
         d="m 13.65845,236.1837 -0.256822,-1.01494 h -0.367946 l 0.52846,1.74096 h 0.237066 l 0.523522,-1.74096 h -0.328436 l -0.251883,1.01247 -0.03951,0.2988 h -0.0099 z"
         style="stroke-width:0.264583"
         id="path915" />
      <path
         d="m 14.732648,236.6603 c -0.17533,0 -0.222249,-0.19014 -0.222249,-0.38029 0,-0.13335 0.01729,-0.22966 0.05186,-0.28893 0.03457,-0.0593 0.08643,-0.0914 0.155575,-0.0914 0.08149,0 0.123472,0.0173 0.182738,0.0445 l 0.06915,-0.24448 c -0.08396,-0.0445 -0.170392,-0.0691 -0.306211,-0.0691 -0.343252,0 -0.456846,0.27657 -0.456846,0.64946 0,0.36301 0.09384,0.64946 0.451907,0.64946 0.125942,0 0.246944,-0.0395 0.321027,-0.0988 l -0.06174,-0.22718 c -0.05186,0.0346 -0.103716,0.0568 -0.185208,0.0568 z"
         style="stroke-width:0.264583"
         id="path917" />
      <path
         d="m 15.367291,236.927 c 0.08149,0 0.200024,-0.0222 0.246944,-0.0543 l -0.02716,-0.23706 c -0.03457,0.0148 -0.06174,0.0222 -0.09878,0.0222 -0.06914,0 -0.07408,-0.0741 -0.07408,-0.16051 v -1.32856 h -0.293863 v 1.4866 c 0,0.18768 0.06914,0.27164 0.246944,0.27164 z"
         style="stroke-width:0.264583"
         id="path919" />
      <path
         d="m 15.740172,235.66265 v 1.23472 h 0.293863 v -1.23472 z m 0.145697,-0.18274 c 0.108655,0 0.190146,-0.0568 0.190146,-0.16545 0,-0.10619 -0.08149,-0.17039 -0.190146,-0.17039 -0.108656,0 -0.18027,0.0667 -0.18027,0.17039 0,0.10618 0.07161,0.16545 0.18027,0.16545 z"
         style="stroke-width:0.264583"
         id="path921" />
      <path
         d="m 16.74523,236.93194 c 0.343252,0 0.461785,-0.30621 0.461785,-0.68403 0,-0.21978 -0.0321,-0.37783 -0.09631,-0.47167 -0.06421,-0.0938 -0.158044,-0.14322 -0.281516,-0.14322 -0.158044,0 -0.234597,0.0667 -0.301272,0.17039 h -0.0074 l -0.02963,-0.14076 h -0.219781 v 1.72861 h 0.293864 v -0.5013 c 0.04939,0.0321 0.09878,0.042 0.180269,0.042 z m 0.158044,-0.69144 c 0,0.15804 -0.01729,0.26917 -0.05186,0.33337 -0.03457,0.0642 -0.08643,0.0963 -0.150636,0.0963 -0.06668,0 -0.103716,-0.0148 -0.135819,-0.0494 v -0.58032 c 0.02963,-0.0963 0.08396,-0.14569 0.167922,-0.14569 0.148166,0 0.170391,0.16792 0.170391,0.34572 z"
         style="stroke-width:0.264583"
         id="path923" />
    </g>
    <rect
       style="fill:#555d50;fill-opacity:1;stroke:none;stroke-width:0.264997"
       id="rect928"
       width="9"
       height="0.99029124"
       x="0.57999998"
       y="246.75" />
    <rect
       style="fill:#555d50;fill-opacity:1;stroke:none;stroke-width:0.264997"
       id="rect916"
       width="9"
       height="0.99029124"
       x="0.57999998"
       y="259.5" />
    <rect
       style="fill:#555d50;fill-opacity:1;stroke:none;stroke-width:0.264997"
       id="rect906"
       width="9"
       height="0.99029124"
       x="0.57999998"
       y="268" />
    <g
       aria-label="A"
       id="text894"
       style="font-size:2.82223px;line-height:1.25;font-family:'PTQ Sans Narrow';-inkscape-font-specification:'PTQ Sans Narrow, Normal';display:inline;fill:#fffff0;fill-opacity:1;stroke-width:0.264583"
       transform="translate(5.1363775,-0.09427034)">
      <path
         d="m -1.5162436,182.3432 0.1213559,0.44591 h 0.3725344 l -0.575735,-1.98967 H -1.877489 l -0.5729128,1.98967 h 0.3527788 l 0.1157114,-0.44591 z m -0.3894677,-0.29352 0.1100669,-0.4572 0.047978,-0.31326 h 0.011289 l 0.045156,0.31044 0.1128892,0.46002 z"
         style="fill:#fffff0;fill-opacity:1;stroke-width:0.264583"
         id="path900" />
    </g>
    <g
       aria-label="B"
       id="text898"
       style="font-size:2.82223px;line-height:1.25;font-family:'PTQ Sans Narrow';-inkscape-font-specification:'PTQ Sans Narrow, Normal';display:inline;fill:#fffff0;fill-opacity:1;stroke-width:0.264583"
       transform="translate(8.5713788,-3.3514903)">
      <path
         d="m -1.9774568,184.03554 c -0.1636894,0 -0.3725344,0.0198 -0.502357,0.0423 v 1.94734 c 0.1185337,0.0339 0.2765786,0.0423 0.4233345,0.0423 h 0.1016003 c 0.3866455,0 0.6519352,-0.19191 0.6519352,-0.5842 0,-0.26811 -0.1213559,-0.42615 -0.3330232,-0.47978 v -0.0169 c 0.1806227,-0.0593 0.2850452,-0.22578 0.2850452,-0.46567 0,-0.37253 -0.2568229,-0.48542 -0.626535,-0.48542 z m -0.146756,1.70745 v -0.56163 h 0.1439337 c 0.2032006,0 0.3048009,0.0734 0.3048009,0.2794 0,0.18063 -0.1016003,0.29916 -0.2709341,0.29916 -0.0508,0 -0.146756,-0.003 -0.1778005,-0.0169 z m 0.4176901,-1.14018 c 0,0.1524 -0.090311,0.24553 -0.1975562,0.28504 -0.033867,0.008 -0.1016002,0.0141 -0.1382892,0.0141 h -0.081845 v -0.54751 c 0.031045,-0.006 0.084667,-0.0113 0.1636893,-0.0113 0.1693339,0 0.2540008,0.0875 0.2540008,0.25965 z"
         style="fill:#fffff0;fill-opacity:1;stroke-width:0.264583"
         id="path903" />
    </g>
    <rect
       style="display:inline;opacity:0.995;fill:#fffff0;fill-opacity:1;stroke:none;stroke-width:0.264999;stroke-opacity:1"
       id="rect919"
       width="8.1999998"
       height="0.30000001"
       x="0.98000002"
       y="183.3" />
    <rect
       style="fill:none;fill-opacity:1;stroke:#000000;stroke-width:0.1;stroke-miterlimit:4;stroke-dasharray:none;stroke-opacity:1"
       id="rect890"
       width="8.9000025"
       height="44.400002"
       x="0.6299988"
       y="179.55"
       rx="0.99999988"
       ry="1" />
  </g>
  <g
     style="display:none"
     inkscape:label="components"
     id="layer2"
     inkscape:groupmode="layer">
    <circle
       inkscape:label="CV_Out"
       cy="95.75"
       cx="5.0799999"
       id="circle921"
       style="fill:#0000ff;fill-rule:evenodd;stroke-width:0.264582"
       r="4" />
    <circle
       r="4"
       style="fill:#0000ff;fill-rule:evenodd;stroke-width:0.264582"
       id="circle912"
       cx="5.0799999"
       cy="74.5"
       inkscape:label="CV_Out" />
    <circle
       r="4"
       style="fill:#00ff00;fill-rule:evenodd;stroke-width:0.264582"
       id="circle916"
       cx="5.0799999"
       cy="86.25"
       inkscape:label="CV_Out" />
    <circle
       inkscape:label="CV_Out"
       cy="65"
       cx="5.0799999"
       id="circle900"
       style="fill:#00ff00;fill-rule:evenodd;stroke-width:0.264582"
       r="4" />
    <ellipse
       style="display:inline;fill:#0000ff;fill-opacity:1;stroke:none;stroke-width:0.25"
       id="circle907"
       cx="3.3999999"
       cy="16.750004"
       rx="0.81599998"
       ry="0.85396403" />
    <ellipse
       style="display:inline;fill:#0000ff;fill-opacity:1;stroke:none;stroke-width:0.25"
       id="ellipse935"
       cx="6.6799998"
       cy="16.750004"
       rx="0.81599998"
       ry="0.85396403" />
    <ellipse
       style="display:inline;fill:#0000ff;fill-opacity:1;stroke:none;stroke-width:0.25"
       id="ellipse992"
       cx="3.3999999"
       cy="53.049965"
       rx="0.81599998"
       ry="0.85396403" />
    <ellipse
       style="display:inline;fill:#0000ff;fill-opacity:1;stroke:none;stroke-width:0.25"
       id="ellipse994"
       cx="6.7800002"
       cy="53.049965"
       rx="0.81599998"
       ry="0.85396403" />
    <circle
       inkscape:label="CV_Out"
       cy="107.5"
       cx="5.0799999"
       id="circle906"
       style="fill:#00ff00;fill-rule:evenodd;stroke-width:0.264582"
       r="4" />
    <circle
       style="fill:#000000;fill-opacity:1;fill-rule:evenodd;stroke-width:0.264582"
       id="circle908"
       cx="5.0799999"
       cy="115.75"
       inkscape:label="CV_Out"
       r="3" />
    <ellipse
       style="display:inline;fill:#0000ff;fill-opacity:1;stroke:none;stroke-width:0.25"
       id="ellipse911"
       cx="3.3999999"
       cy="19.170004"
       rx="0.81599998"
       ry="0.85396403" />
    <ellipse
       style="display:inline;fill:#0000ff;fill-opacity:1;stroke:none;stroke-width:0.25"
       id="ellipse913"
       cx="6.6799998"
       cy="19.170004"
       rx="0.81599998"
       ry="0.85396403" />
  </g>
</svg>
