<?xml version="1.0" encoding="UTF-8"?>
<svg id="svg8" width="10.16mm" height="128.5mm" version="1.1" viewBox="0 0 10.16 128.5" xmlns="http://www.w3.org/2000/svg" xmlns:cc="http://creativecommons.org/ns#" xmlns:dc="http://purl.org/dc/elements/1.1/" xmlns:rdf="http://www.w3.org/1999/02/22-rdf-syntax-ns#">
 <metadata id="metadata5">
  <rdf:RDF>
   <cc:Work rdf:about="">
    <dc:format>image/svg+xml</dc:format>
    <dc:type rdf:resource="http://purl.org/dc/dcmitype/StillImage"/>
    <dc:title/>
   </cc:Work>
  </rdf:RDF>
 </metadata>
 <g id="layer1" transform="translate(0,-168.5)">
  <rect id="rect838" x="-5.5511e-17" y="168.5" width="10.16" height="128.5" fill="#242422"/>
  <text id="text64" x="2.0529213" y="233.73691" font-family="'PT Sans Narrow'" font-size="2.8222px" font-stretch="condensed" font-weight="bold" stroke-width=".26458" style="line-height:1.25" xml:space="preserve"><tspan id="tspan62" x="2.0529213" y="233.73691" stroke-width=".26458"/></text>
  <g id="text2569" transform="translate(0 -.83024)" fill="#fffff0" stroke-width=".26458" aria-label="GRANDE">
   <path id="path2571" d="m1.6964 292.53c0.15522 0 0.28222-0.0564 0.35807-0.13405v-0.48684h-0.381v0.12171h0.24518v0.30163c-0.045861 0.0423-0.12524 0.067-0.20814 0.067-0.24694 0-0.38276-0.18168-0.38276-0.47272 0-0.28751 0.14817-0.46567 0.381-0.46567 0.11642 0 0.1905 0.0441 0.24871 0.10407l0.081139-0.0917c-0.067028-0.0723-0.17286-0.14287-0.33338-0.14287-0.30692 0-0.53093 0.22754-0.53093 0.59972 0 0.37747 0.21696 0.59972 0.52211 0.59972z"/>
   <path id="path2573" d="m2.7 292.51h0.14817v-0.48859h0.20814l0.27869 0.48859h0.16757l-0.29457-0.50447c0.15699-0.0406 0.25929-0.1464 0.25929-0.32632 0-0.24165-0.16933-0.32632-0.40569-0.32632h-0.3616zm0.14817-0.60854v-0.42862h0.19226c0.17992 0 0.27869 0.0547 0.27869 0.20637 0 0.14817-0.098778 0.22225-0.27869 0.22225z"/>
   <path id="path2575" d="m4.2699 291.86c0.04057-0.12876 0.077611-0.25576 0.11289-0.38982h0.00706c0.037042 0.13406 0.074083 0.26106 0.11642 0.38982l0.054681 0.17463h-0.34573zm-0.35454 0.64558h0.14993l0.11112-0.35101h0.42157l0.10936 0.35101h0.15699l-0.38982-1.1571h-0.16933z"/>
   <path id="path2577" d="m5.3988 292.51h0.13935v-0.60854c0-0.11994-0.010583-0.24518-0.019403-0.3616h0.00706c0.038806 0.0847 0.081139 0.1711 0.12524 0.24871l0.41275 0.72143h0.15875v-1.1571h-0.13935v0.60325c0 0.11995 0.010583 0.24695 0.019403 0.36689h-0.00706c-0.040569-0.0847-0.081139-0.1711-0.12524-0.24871l-0.41275-0.72143h-0.15875z"/>
   <path id="path2579" d="m6.9087 292.51h0.29633c0.34925 0 0.53975-0.21519 0.53975-0.58384 0-0.36689-0.1905-0.57327-0.54681-0.57327h-0.28928zm0.14817-0.1217v-0.9137h0.13053c0.26988 0 0.40393 0.16051 0.40393 0.45156 0 0.2928-0.13406 0.46214-0.40393 0.46214z"/>
   <path id="path2581" d="m8.3657 292.51h0.68439v-0.12523h-0.53622v-0.41981h0.43744v-0.12523h-0.43744v-0.3616h0.51858v-0.12524h-0.66675z"/>
  </g>
  <text id="text925" x="7.705914" y="247.28606" font-family="'PT Sans Narrow'" font-size="2.8222px" font-stretch="condensed" font-weight="bold" stroke-width=".26458" text-align="center" text-anchor="middle" style="line-height:1.25" xml:space="preserve"><tspan id="tspan923" x="7.705914" y="247.28606" stroke-width=".26458"/></text>
  <rect id="rect892" x=".93" y="179.85" width="8.3" height="43.8" rx=".7" ry=".7" stroke="#fffff0" stroke-width=".5"/>
  <rect id="rect905" x=".58" y="238.25" width="9" height="9.5" rx="1" ry="1" fill="#555d50"/>
  <rect id="rect907" x=".58" y="259.5" width="9" height="9.5" rx="1" ry="1" fill="#555d50"/>
  <g id="text905" transform="matrix(.99993 0 0 1 12.911 -.31005)" fill="#fffff0" stroke-width=".26459" aria-label="Clip">
   <path id="path907" d="m-9.6893 177.33c-0.13335 0-0.24694-0.0296-0.34078-0.0889-0.30621-0.19262-0.40499-0.62724-0.40499-1.136 0-0.41981 0.05927-0.73096 0.18274-0.92851 0.11853-0.19756 0.29633-0.29634 0.52352-0.29634 0.21237 0 0.3803 0.0346 0.51858 0.10372l0.12347-0.54822c-0.18274-0.079-0.43462-0.12841-0.71614-0.12841-0.39017 0-0.68157 0.14323-0.88406 0.37536-0.27658 0.31115-0.40005 0.79022-0.40005 1.4175 0 0.33585 0.02963 0.6223 0.09878 0.84949 0.15804 0.5581 0.48895 0.95321 1.1705 0.95321 0.2914 0 0.60748-0.0691 0.77047-0.20743l-0.12347-0.52353c-0.13829 0.0889-0.2914 0.15805-0.51858 0.15805z"/>
   <path id="path909" d="m-8.257 177.9c0.16298 0 0.40005-0.0445 0.49389-0.10865l-0.054328-0.47414c-0.069145 0.0296-0.12347 0.0444-0.19756 0.0444-0.13829 0-0.14817-0.14816-0.14817-0.32103v-2.6571h-0.58773v2.9732c0 0.37536 0.13829 0.54328 0.49389 0.54328z"/>
   <path id="path911" d="m-7.5112 175.37v2.4694h0.58773v-2.4694zm0.2914-0.36548c0.21731 0 0.3803-0.1136 0.3803-0.33091 0-0.21237-0.16298-0.34078-0.3803-0.34078s-0.36054 0.13335-0.36054 0.34078c0 0.21237 0.14323 0.33091 0.36054 0.33091z"/>
   <path id="path913" d="m-5.5011 177.91c0.68651 0 0.92357-0.61242 0.92357-1.3681 0-0.43957-0.064206-0.75566-0.19262-0.94333-0.12841-0.18768-0.31609-0.28646-0.56303-0.28646-0.31609 0-0.4692 0.13335-0.60255 0.34078h-0.014817l-0.059267-0.28151h-0.43956v3.4572h0.58773v-1.0026c0.098778 0.0642 0.19756 0.084 0.36054 0.084zm0.31609-1.3829c0 0.31609-0.034572 0.53834-0.10372 0.66675-0.069145 0.12841-0.17286 0.19262-0.30127 0.19262-0.13335 0-0.20743-0.0296-0.27164-0.0988v-1.1606c0.059267-0.19262 0.16792-0.2914 0.33585-0.2914 0.29633 0 0.34078 0.33585 0.34078 0.69145z"/>
  </g>
  <g id="text939" transform="translate(10.239 -22.463)" fill="#fffff0" stroke-width=".26458" aria-label="InA">
   <path id="path945" d="m-6.759 249.48v1.9756h0.3556v-1.9756z"/>
   <path id="path947" d="m-5.441 250.01c-0.18627 0-0.29916 0.0875-0.36689 0.19755h-0.00847l-0.039511-0.16369h-0.26811v1.4111h0.33585v-0.97931c0.0254-0.079 0.095956-0.15805 0.2032-0.15805 0.14111 0 0.16087 0.11289 0.16087 0.2794v0.85796h0.33585v-0.9398c0-0.29351-0.067734-0.50518-0.35278-0.50518z"/>
   <path id="path949" d="m-4.0525 251.01 0.12136 0.44591h0.37253l-0.57574-1.9897h-0.2794l-0.57291 1.9897h0.35278l0.11571-0.44591zm-0.38947-0.29351 0.11007-0.45721 0.047978-0.31326h0.011289l0.045156 0.31044 0.11289 0.46003z"/>
  </g>
  <g id="text943" transform="translate(10.415 -15.907)" fill="#fffff0" stroke-width=".26458" aria-label="InB">
   <path id="path952" d="m-6.8775 264.19v1.9756h0.3556v-1.9756z"/>
   <path id="path954" d="m-5.5595 264.72c-0.18627 0-0.29916 0.0875-0.36689 0.19756h-0.00847l-0.039511-0.16369h-0.26811v1.4111h0.33585v-0.97932c0.0254-0.079 0.095956-0.15804 0.2032-0.15804 0.14111 0 0.16087 0.11289 0.16087 0.2794v0.85796h0.33585v-0.93981c0-0.29351-0.067734-0.50518-0.35278-0.50518z"/>
   <path id="path956" d="m-4.4673 264.16c-0.16369 0-0.37253 0.0198-0.50236 0.0423v1.9473c0.11853 0.0339 0.27658 0.0423 0.42333 0.0423h0.1016c0.38665 0 0.65194-0.19191 0.65194-0.5842 0-0.26811-0.12136-0.42616-0.33302-0.47978v-0.0169c0.18062-0.0593 0.28505-0.22577 0.28505-0.46566 0-0.37254-0.25682-0.48543-0.62654-0.48543zm-0.14676 1.7074v-0.56162h0.14393c0.2032 0 0.3048 0.0734 0.3048 0.2794 0 0.18062-0.1016 0.29916-0.27093 0.29916-0.0508 0-0.14676-3e-3 -0.1778-0.0169zm0.41769-1.1402c0 0.1524-0.090311 0.24554-0.19756 0.28505-0.033867 8e-3 -0.1016 0.0141-0.13829 0.0141h-0.081845v-0.54751c0.031045-6e-3 0.084667-0.0113 0.16369-0.0113 0.16933 0 0.254 0.0875 0.254 0.25964z"/>
  </g>
  <path id="path986" d="m1.78 213.08-1 0.99998v-2" fill="#fffff0"/>
  <path id="path908" d="m1.78 203.4-1 1v-2" fill="#fffff0"/>
  <path id="path910" d="m1.78 193.72-1 1v-2" fill="#fffff0"/>
  <path id="path912" d="m8.38 193.72 1 1v-2" fill="#fffff0"/>
  <path id="path914" d="m8.38 203.4 1 1v-2" fill="#fffff0"/>
  <path id="path916" d="m8.38 213.08 1 0.99998v-2" fill="#fffff0"/>
  <g id="text910" transform="translate(-10.04 34.606)" fill="#fffff0" stroke-width=".26458" aria-label="Vclip">
   <path id="path915" d="m13.658 236.18-0.25682-1.0149h-0.36795l0.52846 1.741h0.23707l0.52352-1.741h-0.32844l-0.25188 1.0125-0.03951 0.2988h-0.0099z"/>
   <path id="path917" d="m14.733 236.66c-0.17533 0-0.22225-0.19014-0.22225-0.38029 0-0.13335 0.01729-0.22966 0.05186-0.28893 0.03457-0.0593 0.08643-0.0914 0.15558-0.0914 0.08149 0 0.12347 0.0173 0.18274 0.0445l0.06915-0.24448c-0.08396-0.0445-0.17039-0.0691-0.30621-0.0691-0.34325 0-0.45685 0.27657-0.45685 0.64946 0 0.36301 0.09384 0.64946 0.45191 0.64946 0.12594 0 0.24694-0.0395 0.32103-0.0988l-0.06174-0.22718c-0.05186 0.0346-0.10372 0.0568-0.18521 0.0568z"/>
   <path id="path919" d="m15.367 236.93c0.08149 0 0.20002-0.0222 0.24694-0.0543l-0.02716-0.23706c-0.03457 0.0148-0.06174 0.0222-0.09878 0.0222-0.06914 0-0.07408-0.0741-0.07408-0.16051v-1.3286h-0.29386v1.4866c0 0.18768 0.06914 0.27164 0.24694 0.27164z"/>
   <path id="path921" d="m15.74 235.66v1.2347h0.29386v-1.2347zm0.1457-0.18274c0.10866 0 0.19015-0.0568 0.19015-0.16545 0-0.10619-0.08149-0.17039-0.19015-0.17039s-0.18027 0.0667-0.18027 0.17039c0 0.10618 0.07161 0.16545 0.18027 0.16545z"/>
   <path id="path923" d="m16.745 236.93c0.34325 0 0.46178-0.30621 0.46178-0.68403 0-0.21978-0.0321-0.37783-0.09631-0.47167-0.06421-0.0938-0.15804-0.14322-0.28152-0.14322-0.15804 0-0.2346 0.0667-0.30127 0.17039h-0.0074l-0.02963-0.14076h-0.21978v1.7286h0.29386v-0.5013c0.04939 0.0321 0.09878 0.042 0.18027 0.042zm0.15804-0.69144c0 0.15804-0.01729 0.26917-0.05186 0.33337s-0.08643 0.0963-0.15064 0.0963c-0.06668 0-0.10372-0.0148-0.13582-0.0494v-0.58032c0.02963-0.0963 0.08396-0.14569 0.16792-0.14569 0.14817 0 0.17039 0.16792 0.17039 0.34572z"/>
  </g>
  <g id="text894" transform="translate(5.1364 -.09427)" fill="#fffff0" stroke-width=".26458" aria-label="A">
   <path id="path900" d="m-1.5162 182.34 0.12136 0.44591h0.37253l-0.57574-1.9897h-0.2794l-0.57291 1.9897h0.35278l0.11571-0.44591zm-0.38947-0.29352 0.11007-0.4572 0.047978-0.31326h0.011289l0.045156 0.31044 0.11289 0.46002z" fill="#fffff0" stroke-width=".26458"/>
  </g>
  <g id="text898" transform="translate(8.5714 -3.3515)" fill="#fffff0" stroke-width=".26458" aria-label="B">
   <path id="path903" d="m-1.9775 184.04c-0.16369 0-0.37253 0.0198-0.50236 0.0423v1.9473c0.11853 0.0339 0.27658 0.0423 0.42333 0.0423h0.1016c0.38665 0 0.65194-0.19191 0.65194-0.5842 0-0.26811-0.12136-0.42615-0.33302-0.47978v-0.0169c0.18062-0.0593 0.28505-0.22578 0.28505-0.46567 0-0.37253-0.25682-0.48542-0.62654-0.48542zm-0.14676 1.7074v-0.56163h0.14393c0.2032 0 0.3048 0.0734 0.3048 0.2794 0 0.18063-0.1016 0.29916-0.27093 0.29916-0.0508 0-0.14676-3e-3 -0.1778-0.0169zm0.41769-1.1402c0 0.1524-0.090311 0.24553-0.19756 0.28504-0.033867 8e-3 -0.1016 0.0141-0.13829 0.0141h-0.081845v-0.54751c0.031045-6e-3 0.084667-0.0113 0.16369-0.0113 0.16933 0 0.254 0.0875 0.254 0.25965z" fill="#fffff0" stroke-width=".26458"/>
  </g>
  <rect id="rect919" x=".98" y="183.3" width="8.2" height=".3" fill="#fffff0" opacity=".995"/>
  <rect id="rect890" x=".63" y="179.55" width="8.9" height="44.4" rx="1" ry="1" fill="none" stroke="#000" stroke-width=".1"/>
 </g>
 <g id="layer2" display="none">
  <circle id="circle921" cx="5.08" cy="95.75" r="4" fill="#00f" fill-rule="evenodd" stroke-width=".26458"/>
  <circle id="circle912" cx="5.08" cy="74.5" r="4" fill="#00f" fill-rule="evenodd" stroke-width=".26458"/>
  <circle id="circle916" cx="5.08" cy="86.25" r="4" fill="#0f0" fill-rule="evenodd" stroke-width=".26458"/>
  <circle id="circle900" cx="5.08" cy="65" r="4" fill="#0f0" fill-rule="evenodd" stroke-width=".26458"/>
  <ellipse id="circle907" cx="3.4" cy="16.75" rx=".816" ry=".85396" display="inline" fill="#00f"/>
  <ellipse id="ellipse935" cx="6.68" cy="16.75" rx=".816" ry=".85396" display="inline" fill="#00f"/>
  <ellipse id="ellipse992" cx="3.4" cy="53.05" rx=".816" ry=".85396" display="inline" fill="#00f"/>
  <ellipse id="ellipse994" cx="6.78" cy="53.05" rx=".816" ry=".85396" display="inline" fill="#00f"/>
  <circle id="circle906" cx="5.08" cy="107.5" r="4" fill="#0f0" fill-rule="evenodd" stroke-width=".26458"/>
  <circle id="circle908" cx="5.08" cy="115.75" r="3" fill-rule="evenodd" stroke-width=".26458"/>
  <ellipse id="ellipse911" cx="3.4" cy="19.17" rx=".816" ry=".85396" display="inline" fill="#00f"/>
  <ellipse id="ellipse913" cx="6.68" cy="19.17" rx=".816" ry=".85396" display="inline" fill="#00f"/>
 </g>
</svg>
