<?xml version="1.0" encoding="UTF-8"?>
<svg id="svg8" width="10.16mm" height="128.5mm" version="1.1" viewBox="0 0 10.16 128.5" xmlns="http://www.w3.org/2000/svg" xmlns:cc="http://creativecommons.org/ns#" xmlns:dc="http://purl.org/dc/elements/1.1/" xmlns:rdf="http://www.w3.org/1999/02/22-rdf-syntax-ns#">
 <metadata id="metadata5">
  <rdf:RDF>
   <cc:Work rdf:about="">
    <dc:format>image/svg+xml</dc:format>
    <dc:type rdf:resource="http://purl.org/dc/dcmitype/StillImage"/>
   </cc:Work>
  </rdf:RDF>
 </metadata>
 <g id="layer1" transform="translate(0,-168.5)">
  <rect id="rect838" x="-5.5511e-17" y="168.5" width="10.16" height="128.5" fill="#bbbbb0"/>
  <text id="text64" x="2.0529213" y="233.73691" font-family="'PT Sans Narrow'" font-size="2.8222px" font-stretch="condensed" font-weight="bold" stroke-width=".26458" style="line-height:1.25" xml:space="preserve"><tspan id="tspan62" x="2.0529213" y="233.73691" stroke-width=".26458"/></text>
  <g id="text2569" transform="translate(0 -.83024)" stroke-width=".26458" aria-label="GRANDE">
   <path id="path2571" d="m1.6964 292.53c0.15522 0 0.28222-0.0564 0.35807-0.13405v-0.48684h-0.381v0.12171h0.24518v0.30163c-0.045861 0.0423-0.12524 0.067-0.20814 0.067-0.24694 0-0.38276-0.18168-0.38276-0.47272 0-0.28751 0.14817-0.46567 0.381-0.46567 0.11642 0 0.1905 0.0441 0.24871 0.10407l0.081139-0.0917c-0.067028-0.0723-0.17286-0.14287-0.33338-0.14287-0.30692 0-0.53093 0.22754-0.53093 0.59972 0 0.37747 0.21696 0.59972 0.52211 0.59972z"/>
   <path id="path2573" d="m2.7 292.51h0.14817v-0.48859h0.20814l0.27869 0.48859h0.16757l-0.29457-0.50447c0.15699-0.0406 0.25929-0.1464 0.25929-0.32632 0-0.24165-0.16933-0.32632-0.40569-0.32632h-0.3616zm0.14817-0.60854v-0.42862h0.19226c0.17992 0 0.27869 0.0547 0.27869 0.20637 0 0.14817-0.098778 0.22225-0.27869 0.22225z"/>
   <path id="path2575" d="m4.2699 291.86c0.04057-0.12876 0.077611-0.25576 0.11289-0.38982h0.00706c0.037042 0.13406 0.074083 0.26106 0.11642 0.38982l0.054681 0.17463h-0.34573zm-0.35454 0.64558h0.14993l0.11112-0.35101h0.42157l0.10936 0.35101h0.15699l-0.38982-1.1571h-0.16933z"/>
   <path id="path2577" d="m5.3988 292.51h0.13935v-0.60854c0-0.11994-0.010583-0.24518-0.019403-0.3616h0.00706c0.038806 0.0847 0.081139 0.1711 0.12524 0.24871l0.41275 0.72143h0.15875v-1.1571h-0.13935v0.60325c0 0.11995 0.010583 0.24695 0.019403 0.36689h-0.00706c-0.040569-0.0847-0.081139-0.1711-0.12524-0.24871l-0.41275-0.72143h-0.15875z"/>
   <path id="path2579" d="m6.9087 292.51h0.29633c0.34925 0 0.53975-0.21519 0.53975-0.58384 0-0.36689-0.1905-0.57327-0.54681-0.57327h-0.28928zm0.14817-0.1217v-0.9137h0.13053c0.26988 0 0.40393 0.16051 0.40393 0.45156 0 0.2928-0.13406 0.46214-0.40393 0.46214z"/>
   <path id="path2581" d="m8.3657 292.51h0.68439v-0.12523h-0.53622v-0.41981h0.43744v-0.12523h-0.43744v-0.3616h0.51858v-0.12524h-0.66675z"/>
  </g>
  <text id="text925" x="7.705914" y="247.28606" font-family="'PT Sans Narrow'" font-size="2.8222px" font-stretch="condensed" font-weight="bold" stroke-width=".26458" text-align="center" text-anchor="middle" style="line-height:1.25" xml:space="preserve"><tspan id="tspan923" x="7.705914" y="247.28606" stroke-width=".26458"/></text>
  <rect id="rect902" x=".7125" y="179.63" width="8.735" height="12.735" rx="1" ry="1" fill="none" stroke="#555d50" stroke-width=".265"/>
  <rect id="rect908" transform="scale(-1,1)" x="-9.48" y="213" width="8.8" height="11.4" rx="1" ry="1" fill="#555d50"/>
  <rect id="rect1174" transform="scale(-1,1)" x="-9.48" y="213" width="8.8" height="1" fill="#555d50"/>
  <rect id="rect1049" transform="scale(-1,1)" x="-9.4475" y="194.63" width="8.735" height="29.735" rx="1" ry="1" fill="none" stroke="#555d50" stroke-width=".265"/>
  <rect id="rect978" transform="scale(-1,1)" x="-2.58" y="194.5" width="2" height="22" rx=".8" ry=".8" fill="#555d50"/>
  <rect id="rect1147" transform="scale(-1,1)" x="-2.58" y="194.6" width="1" height="1" fill="#555d50"/>
  <path id="path1044" d="m2.455 205.5h-1.75" fill="#fffff0" stroke="#fffff0" stroke-width=".265"/>
  <path id="path1197" d="m2.455 200.5h-1.75" fill="#fffff0" stroke="#bbbbb0" stroke-width=".265"/>
  <path id="path1199" d="m2.455 210.5h-1.75" fill="#fffff0" stroke="#bbbbb0" stroke-width=".265"/>
  <g id="g6903" transform="translate(-12.88 1.4417)" stroke-width=".26458">
   <path id="path6868" d="m14.695 175.58c-0.13335 0-0.24694-0.0296-0.34078-0.0889-0.30621-0.19261-0.40499-0.62724-0.40499-1.1359 0-0.41981 0.05927-0.73096 0.18274-0.92852 0.11853-0.19755 0.29633-0.29633 0.52352-0.29633 0.21237 0 0.3803 0.0346 0.51858 0.10372l0.12347-0.54822c-0.18274-0.079-0.43462-0.12841-0.71614-0.12841-0.39017 0-0.68157 0.14323-0.88406 0.37535-0.27658 0.31115-0.40005 0.79023-0.40005 1.4175 0 0.33584 0.02963 0.6223 0.09878 0.84949 0.15804 0.55809 0.48895 0.95321 1.1705 0.95321 0.2914 0 0.60748-0.0691 0.77047-0.20744l-0.12347-0.52352c-0.13829 0.0889-0.2914 0.15804-0.51858 0.15804z" style="font-variant-ligatures:none"/>
   <path id="path6870" d="m17.623 174.09c0.09878 0 0.16792 0.0395 0.19756 0.11854 0.02963 0.079 0.04445 0.20249 0.04445 0.37042v1.5014h0.58773v-1.6002c0-0.18274-0.01482-0.33585-0.03457-0.45438-0.06421-0.31609-0.20743-0.47414-0.57291-0.47414-0.30621 0-0.49883 0.17287-0.60748 0.3803-0.08396-0.24694-0.20743-0.3803-0.50377-0.3803-0.32103 0-0.48895 0.15805-0.60748 0.35561h-0.01482l-0.07408-0.29634h-0.45438v2.4694h0.58773v-1.7286c0.04445-0.12841 0.13829-0.26177 0.31115-0.26177 0.09384 0 0.15804 0.0445 0.19262 0.12348 0.02963 0.079 0.04939 0.22225 0.04939 0.42968v1.4372h0.58773v-1.7237c0.03951-0.14323 0.12841-0.26671 0.31115-0.26671z" style="font-variant-ligatures:none"/>
   <path id="path6872" d="m19.806 176.15c0.68651 0 0.92357-0.61243 0.92357-1.3681 0-0.43956-0.0642-0.75565-0.19262-0.94333-0.12841-0.18768-0.31609-0.28646-0.56303-0.28646-0.31609 0-0.4692 0.13336-0.60255 0.34079h-0.01482l-0.05927-0.28152h-0.43956v3.4572h0.58773v-1.0026c0.09878 0.0642 0.19756 0.084 0.36054 0.084zm0.31609-1.3829c0 0.31609-0.03457 0.53834-0.10372 0.66676-0.06914 0.12841-0.17286 0.19261-0.30127 0.19261-0.13335 0-0.20743-0.0296-0.27164-0.0988v-1.1606c0.05927-0.19261 0.16792-0.29139 0.33585-0.29139 0.29633 0 0.34078 0.33584 0.34078 0.69144z" style="font-variant-ligatures:none"/>
   <path id="path6874" d="m21.032 175.51-0.15804 0.49389c0.14817 0.0938 0.45932 0.15311 0.70626 0.15311 0.14323 0 0.27658-0.0198 0.40499-0.0691 0.40005-0.14323 0.63712-0.51858 0.63712-1.0717 0-0.15804-0.01975-0.30127-0.05927-0.41981-0.09384-0.29139-0.29633-0.52352-0.64206-0.55315l-0.18274 0.0296v-0.0247l0.18274-0.13335 0.57291-0.93346v-0.35066h-1.5804v0.52352h0.67663l0.32597-0.0444-0.23707 0.22226-0.48895 0.82973v0.33585h0.2914c0.36548 0 0.55316 0.18767 0.55316 0.55809 0 0.33091-0.16792 0.57785-0.49389 0.57785-0.21237 0-0.37042-0.0494-0.50871-0.12347z" style="font-variant-ligatures:none"/>
  </g>
  <g id="text9055" transform="translate(-10.641 .49205)" stroke-width=".26458" style="font-variant-ligatures:none" aria-label="Input">
   <path id="path9353" d="m13.169 179.81v1.9756h0.3556v-1.9756z"/>
   <path id="path9355" d="m14.487 180.34c-0.18627 0-0.29916 0.0875-0.36689 0.19755h-0.0085l-0.03951-0.16369h-0.26811v1.4111h0.33584v-0.97932c0.0254-0.079 0.09596-0.15804 0.2032-0.15804 0.14111 0 0.16087 0.11289 0.16087 0.2794v0.85796h0.33584v-0.9398c0-0.29352-0.06773-0.50518-0.35278-0.50518z"/>
   <path id="path9357" d="m15.613 181.82c0.39229 0 0.52776-0.34996 0.52776-0.78176 0-0.25118-0.03669-0.4318-0.11007-0.53904-0.07338-0.10725-0.18062-0.16369-0.32173-0.16369-0.18062 0-0.26811 0.0762-0.34431 0.19473h-0.0085l-0.03387-0.16087h-0.25118v1.9756h0.33584v-0.57291c0.05645 0.0367 0.11289 0.048 0.20602 0.048zm0.18062-0.79022c0 0.18062-0.01975 0.30762-0.05927 0.381-0.03951 0.0734-0.09878 0.11006-0.17216 0.11006-0.0762 0-0.11853-0.0169-0.15522-0.0564v-0.66323c0.03387-0.11006 0.09596-0.16651 0.19191-0.16651 0.16933 0 0.19473 0.19191 0.19473 0.39512z"/>
   <path id="path9359" d="m16.691 181.82c0.18627 0 0.3048-0.1016 0.37253-0.2286h0.0085l0.05927 0.19191h0.254c-0.03104-0.11854-0.03951-0.27658-0.03951-0.42898v-0.98214h-0.33584v0.94263c-0.02822 0.0959-0.09596 0.19755-0.20884 0.19755-0.13829 0-0.14393-0.127-0.14393-0.29633v-0.84385h-0.33588v0.91723c0 0.31327 0.06491 0.53058 0.36971 0.53058z"/>
   <path id="path9361" d="m17.958 181.82c0.11853 0 0.23424-0.0311 0.31609-0.0734l-0.04233-0.26811c-0.0508 0.0226-0.08749 0.0339-0.14958 0.0339-0.10442 0-0.11007-0.0959-0.11007-0.22295v-0.61525h0.27376v-0.29916h-0.27376v-0.36971l-0.33584 0.10442v0.26529h-0.15522v0.29916h0.15522v0.73942c0 0.26247 0.07902 0.40641 0.32173 0.40641z"/>
  </g>
  <g id="text13742" transform="translate(-10.69 -.02194)" stroke-width=".26458" style="font-variant-ligatures:none" aria-label="Upper">
   <path id="path17736" d="m14.328 196.8c-0.2286 0-0.26811-0.15522-0.26811-0.41487v-1.2672h-0.3556v1.3293c0 0.45156 0.18344 0.68016 0.62654 0.68016 0.18344 0 0.32738-0.0564 0.4318-0.17216 0.10442-0.11288 0.15804-0.29915 0.15804-0.55597v-1.2813h-0.33585v1.2672c0 0.24554-0.04233 0.41487-0.25682 0.41487z"/>
   <path id="path17738" d="m15.702 197.14c0.39229 0 0.52776-0.34995 0.52776-0.78175 0-0.25118-0.03669-0.4318-0.11007-0.53905-0.07338-0.10724-0.18062-0.16369-0.32173-0.16369-0.18062 0-0.26811 0.0762-0.34431 0.19474h-0.0085l-0.03387-0.16087h-0.25118v1.9756h0.33584v-0.57291c0.05644 0.0367 0.11289 0.048 0.20602 0.048zm0.18062-0.79022c0 0.18062-0.01975 0.30762-0.05927 0.381-0.03951 0.0734-0.09878 0.11007-0.17216 0.11007-0.0762 0-0.11853-0.0169-0.15522-0.0565v-0.66322c0.03387-0.11007 0.09596-0.16651 0.19191-0.16651 0.16933 0 0.19473 0.19191 0.19473 0.39511z"/>
   <path id="path17740" d="m16.964 197.14c0.39229 0 0.52776-0.34995 0.52776-0.78175 0-0.25118-0.03669-0.4318-0.11007-0.53905-0.07338-0.10724-0.18062-0.16369-0.32173-0.16369-0.18062 0-0.26811 0.0762-0.34431 0.19474h-0.0085l-0.03387-0.16087h-0.25118v1.9756h0.33584v-0.57291c0.05645 0.0367 0.11289 0.048 0.20602 0.048zm0.18062-0.79022c0 0.18062-0.01976 0.30762-0.05927 0.381-0.03951 0.0734-0.09878 0.11007-0.17216 0.11007-0.0762 0-0.11853-0.0169-0.15522-0.0565v-0.66322c0.03387-0.11007 0.09596-0.16651 0.19191-0.16651 0.16933 0 0.19473 0.19191 0.19473 0.39511z"/>
   <path id="path17742" d="m18.253 196.85c-0.21449 0-0.28505-0.14394-0.29069-0.36125h0.6858c0.01411-0.0931 0.02822-0.18345 0.02822-0.28505 0-0.33584-0.14958-0.55315-0.47414-0.55315-0.18062 0-0.31891 0.0621-0.42051 0.18344-0.1016 0.12136-0.14958 0.30763-0.14958 0.56163 0 0.42615 0.13547 0.74224 0.5588 0.74224 0.17216 0 0.35278-0.0593 0.44591-0.14111l-0.10442-0.23424c-0.05927 0.048-0.17216 0.0875-0.2794 0.0875zm0.11007-0.58421h-0.38947c0.0085-0.17215 0.05644-0.32738 0.22296-0.32738 0.14393 0 0.17498 0.15805 0.16651 0.32738z"/>
   <path id="path17744" d="m19.199 195.86h-0.01129l-0.03951-0.16933h-0.25682v1.4111h0.33584v-0.94262c0.02258-0.0903 0.09313-0.16087 0.20602-0.16087 0.03669 0 0.07902 8e-3 0.12418 0.0254l0.03951-0.33302c-0.04516-0.0169-0.08749-0.0282-0.13264-0.0282-0.13829 0-0.22578 0.0931-0.26529 0.19755z"/>
  </g>
  <g id="text14978" transform="translate(-10.64 3.9366)" stroke-width=".26458" style="font-variant-ligatures:none" aria-label="Lower">
   <path id="path17747" d="m14.685 202.04v-0.32738h-0.69427v-1.6482h-0.3556v1.9756z"/>
   <path id="path17749" d="m15.817 201.33c0-0.44027-0.14393-0.74225-0.5588-0.74225-0.40076 0-0.55598 0.30762-0.55598 0.74225 0 0.49671 0.18344 0.74224 0.55598 0.74224 0.40358 0 0.5588-0.30197 0.5588-0.74224zm-0.76765 0c0-0.16087 0.01693-0.27376 0.05362-0.34149 0.03669-0.0677 0.08749-0.1016 0.15522-0.1016 0.0762 0 0.12982 0.0395 0.16369 0.11289 0.03105 0.0762 0.04798 0.18626 0.04798 0.3302 0 0.16369-0.01976 0.27658-0.05362 0.34431-0.03387 0.0677-0.08749 0.0988-0.15804 0.0988-0.18344 0-0.20884-0.22578-0.20884-0.44309z"/>
   <path id="path17751" d="m16.861 200.63h-0.25118l-0.17216 0.70556-0.03669 0.254h-0.01129l-0.0254-0.25118-0.1524-0.70838h-0.36407l0.36124 1.4252h0.27376l0.2032-0.78176 0.01976-0.18627h0.01693l0.02258 0.18062 0.21167 0.78741h0.26529l0.34713-1.4252h-0.3048l-0.13264 0.71967-0.02822 0.23707h-0.01129l-0.03387-0.23425z"/>
   <path id="path17753" d="m18.222 201.79c-0.21449 0-0.28504-0.14394-0.29069-0.36125h0.6858c0.01411-0.0931 0.02822-0.18344 0.02822-0.28504 0-0.33585-0.14958-0.55316-0.47414-0.55316-0.18062 0-0.31891 0.0621-0.42051 0.18344-0.1016 0.12136-0.14958 0.30763-0.14958 0.56163 0 0.42615 0.13547 0.74224 0.5588 0.74224 0.17216 0 0.35278-0.0593 0.44591-0.14111l-0.10442-0.23424c-0.05927 0.048-0.17216 0.0875-0.2794 0.0875zm0.11007-0.5842h-0.38947c0.0085-0.17216 0.05645-0.32738 0.22296-0.32738 0.14393 0 0.17498 0.15804 0.16651 0.32738z"/>
   <path id="path17755" d="m19.167 200.8h-0.01129l-0.03951-0.16933h-0.25682v1.4111h0.33585v-0.94263c0.02258-0.0903 0.09313-0.16087 0.20602-0.16087 0.03669 0 0.07902 8e-3 0.12418 0.0254l0.03951-0.33302c-0.04516-0.0169-0.08749-0.0282-0.13264-0.0282-0.13829 0-0.22578 0.0931-0.26529 0.19755z"/>
  </g>
  <g id="text17292" transform="translate(-10.608 8.1934)" fill="#fffff0" stroke-width=".26458" style="font-variant-ligatures:none" aria-label="A Out">
   <path id="path17758" d="m14.759 206.88 0.12136 0.44592h0.37254l-0.57574-1.9897h-0.2794l-0.57291 1.9897h0.35278l0.11571-0.44592zm-0.38947-0.29351 0.11007-0.4572 0.04798-0.31327h0.01129l0.04515 0.31045 0.11289 0.46002z"/>
   <path id="path17760" d="m17.166 206.33c0-0.55034-0.15522-1.0273-0.69991-1.0273-0.5334 0-0.69709 0.44874-0.69709 1.0273 0 0.55598 0.14676 1.0273 0.69709 1.0273 0.52776 0 0.69991-0.44874 0.69991-1.0273zm-1.0245 0c0-0.46567 0.10724-0.69992 0.32456-0.69992 0.06209 0 0.11289 0.0198 0.15522 0.0565 0.13547 0.12135 0.17216 0.381 0.17216 0.64347 0 0.24553-0.02822 0.42333-0.08184 0.5334-0.05645 0.11289-0.13829 0.16651-0.24553 0.16651-0.06209 0-0.11289-0.0169-0.1524-0.0536-0.14111-0.12136-0.17216-0.37536-0.17216-0.64629z"/>
   <path id="path17762" d="m17.728 207.36c0.18627 0 0.3048-0.1016 0.37254-0.22861h0.0085l0.05927 0.19192h0.254c-0.03104-0.11854-0.03951-0.27658-0.03951-0.42898v-0.98214h-0.33585v0.94263c-0.02822 0.096-0.09596 0.19755-0.20884 0.19755-0.13829 0-0.14393-0.127-0.14393-0.29633v-0.84385h-0.33584v0.91723c0 0.31326 0.06491 0.53058 0.36971 0.53058z"/>
   <path id="path17764" d="m18.995 207.36c0.11853 0 0.23424-0.031 0.31609-0.0734l-0.04233-0.26812c-0.0508 0.0226-0.08749 0.0339-0.14958 0.0339-0.10442 0-0.11007-0.096-0.11007-0.22296v-0.61524h0.27376v-0.29916h-0.27376v-0.36971l-0.33584 0.10442v0.26529h-0.15522v0.29916h0.15522v0.73942c0 0.26247 0.07902 0.4064 0.32173 0.4064z"/>
  </g>
  <path id="path979" d="m2.455 195.5h-1.75" fill="#fffff0" stroke="#bbbbb0" stroke-width=".265"/>
  <path id="path981" d="m2.455 215.5h-1.75" fill="#fffff0" stroke="#bbbbb0" stroke-width=".265"/>
  <rect id="rect563" transform="scale(-1,1)" x="-9.48" y="245" width="8.8" height="11.4" rx="1" ry="1" fill="#555d50"/>
  <rect id="rect565" transform="scale(-1,1)" x="-9.48" y="245" width="8.8" height="1" fill="#555d50"/>
  <rect id="rect567" transform="scale(-1,1)" x="-9.4475" y="226.63" width="8.735" height="29.735" rx="1" ry="1" fill="none" stroke="#555d50" stroke-width=".265"/>
  <rect id="rect569" transform="scale(-1,1)" x="-2.58" y="226.5" width="2" height="22" rx=".8" ry=".8" fill="#555d50"/>
  <rect id="rect571" transform="scale(-1,1)" x="-2.58" y="226.6" width="1" height="1" fill="#555d50"/>
  <path id="path573" d="m2.455 237.5h-1.75" fill="#fffff0" stroke="#fffff0" stroke-width=".265"/>
  <path id="path575" d="m2.455 232.5h-1.75" fill="#fffff0" stroke="#bbbbb0" stroke-width=".265"/>
  <path id="path577" d="m2.455 242.5h-1.75" fill="#fffff0" stroke="#bbbbb0" stroke-width=".265"/>
  <g id="g589" transform="translate(-10.69 31.978)" stroke-width=".26458" style="font-variant-ligatures:none" aria-label="Upper">
   <path id="path579" d="m14.328 196.8c-0.2286 0-0.26811-0.15522-0.26811-0.41487v-1.2672h-0.3556v1.3293c0 0.45156 0.18344 0.68016 0.62654 0.68016 0.18344 0 0.32738-0.0564 0.4318-0.17216 0.10442-0.11288 0.15804-0.29915 0.15804-0.55597v-1.2813h-0.33585v1.2672c0 0.24554-0.04233 0.41487-0.25682 0.41487z"/>
   <path id="path581" d="m15.702 197.14c0.39229 0 0.52776-0.34995 0.52776-0.78175 0-0.25118-0.03669-0.4318-0.11007-0.53905-0.07338-0.10724-0.18062-0.16369-0.32173-0.16369-0.18062 0-0.26811 0.0762-0.34431 0.19474h-0.0085l-0.03387-0.16087h-0.25118v1.9756h0.33584v-0.57291c0.05644 0.0367 0.11289 0.048 0.20602 0.048zm0.18062-0.79022c0 0.18062-0.01975 0.30762-0.05927 0.381-0.03951 0.0734-0.09878 0.11007-0.17216 0.11007-0.0762 0-0.11853-0.0169-0.15522-0.0565v-0.66322c0.03387-0.11007 0.09596-0.16651 0.19191-0.16651 0.16933 0 0.19473 0.19191 0.19473 0.39511z"/>
   <path id="path583" d="m16.964 197.14c0.39229 0 0.52776-0.34995 0.52776-0.78175 0-0.25118-0.03669-0.4318-0.11007-0.53905-0.07338-0.10724-0.18062-0.16369-0.32173-0.16369-0.18062 0-0.26811 0.0762-0.34431 0.19474h-0.0085l-0.03387-0.16087h-0.25118v1.9756h0.33584v-0.57291c0.05645 0.0367 0.11289 0.048 0.20602 0.048zm0.18062-0.79022c0 0.18062-0.01976 0.30762-0.05927 0.381-0.03951 0.0734-0.09878 0.11007-0.17216 0.11007-0.0762 0-0.11853-0.0169-0.15522-0.0565v-0.66322c0.03387-0.11007 0.09596-0.16651 0.19191-0.16651 0.16933 0 0.19473 0.19191 0.19473 0.39511z"/>
   <path id="path585" d="m18.253 196.85c-0.21449 0-0.28505-0.14394-0.29069-0.36125h0.6858c0.01411-0.0931 0.02822-0.18345 0.02822-0.28505 0-0.33584-0.14958-0.55315-0.47414-0.55315-0.18062 0-0.31891 0.0621-0.42051 0.18344-0.1016 0.12136-0.14958 0.30763-0.14958 0.56163 0 0.42615 0.13547 0.74224 0.5588 0.74224 0.17216 0 0.35278-0.0593 0.44591-0.14111l-0.10442-0.23424c-0.05927 0.048-0.17216 0.0875-0.2794 0.0875zm0.11007-0.58421h-0.38947c0.0085-0.17215 0.05644-0.32738 0.22296-0.32738 0.14393 0 0.17498 0.15805 0.16651 0.32738z"/>
   <path id="path587" d="m19.199 195.86h-0.01129l-0.03951-0.16933h-0.25682v1.4111h0.33584v-0.94262c0.02258-0.0903 0.09313-0.16087 0.20602-0.16087 0.03669 0 0.07902 8e-3 0.12418 0.0254l0.03951-0.33302c-0.04516-0.0169-0.08749-0.0282-0.13264-0.0282-0.13829 0-0.22578 0.0931-0.26529 0.19755z"/>
  </g>
  <g id="g601" transform="translate(-10.64 35.937)" stroke-width=".26458" style="font-variant-ligatures:none" aria-label="Lower">
   <path id="path591" d="m14.685 202.04v-0.32738h-0.69427v-1.6482h-0.3556v1.9756z"/>
   <path id="path593" d="m15.817 201.33c0-0.44027-0.14393-0.74225-0.5588-0.74225-0.40076 0-0.55598 0.30762-0.55598 0.74225 0 0.49671 0.18344 0.74224 0.55598 0.74224 0.40358 0 0.5588-0.30197 0.5588-0.74224zm-0.76765 0c0-0.16087 0.01693-0.27376 0.05362-0.34149 0.03669-0.0677 0.08749-0.1016 0.15522-0.1016 0.0762 0 0.12982 0.0395 0.16369 0.11289 0.03105 0.0762 0.04798 0.18626 0.04798 0.3302 0 0.16369-0.01976 0.27658-0.05362 0.34431-0.03387 0.0677-0.08749 0.0988-0.15804 0.0988-0.18344 0-0.20884-0.22578-0.20884-0.44309z"/>
   <path id="path595" d="m16.861 200.63h-0.25118l-0.17216 0.70556-0.03669 0.254h-0.01129l-0.0254-0.25118-0.1524-0.70838h-0.36407l0.36124 1.4252h0.27376l0.2032-0.78176 0.01976-0.18627h0.01693l0.02258 0.18062 0.21167 0.78741h0.26529l0.34713-1.4252h-0.3048l-0.13264 0.71967-0.02822 0.23707h-0.01129l-0.03387-0.23425z"/>
   <path id="path597" d="m18.222 201.79c-0.21449 0-0.28504-0.14394-0.29069-0.36125h0.6858c0.01411-0.0931 0.02822-0.18344 0.02822-0.28504 0-0.33585-0.14958-0.55316-0.47414-0.55316-0.18062 0-0.31891 0.0621-0.42051 0.18344-0.1016 0.12136-0.14958 0.30763-0.14958 0.56163 0 0.42615 0.13547 0.74224 0.5588 0.74224 0.17216 0 0.35278-0.0593 0.44591-0.14111l-0.10442-0.23424c-0.05927 0.048-0.17216 0.0875-0.2794 0.0875zm0.11007-0.5842h-0.38947c0.0085-0.17216 0.05645-0.32738 0.22296-0.32738 0.14393 0 0.17498 0.15804 0.16651 0.32738z"/>
   <path id="path599" d="m19.167 200.8h-0.01129l-0.03951-0.16933h-0.25682v1.4111h0.33585v-0.94263c0.02258-0.0903 0.09313-0.16087 0.20602-0.16087 0.03669 0 0.07902 8e-3 0.12418 0.0254l0.03951-0.33302c-0.04516-0.0169-0.08749-0.0282-0.13264-0.0282-0.13829 0-0.22578 0.0931-0.26529 0.19755z"/>
  </g>
  <path id="path613" d="m2.455 227.5h-1.75" fill="#fffff0" stroke="#bbbbb0" stroke-width=".265"/>
  <path id="path615" d="m2.455 247.5h-1.75" fill="#fffff0" stroke="#bbbbb0" stroke-width=".265"/>
  <rect id="rect671" transform="scale(-1,1)" x="-9.48" y="277" width="8.8" height="11.4" rx="1" ry="1" fill="#555d50"/>
  <rect id="rect673" transform="scale(-1,1)" x="-9.48" y="277" width="8.8" height="1" fill="#555d50"/>
  <rect id="rect675" transform="scale(-1,1)" x="-9.4475" y="258.63" width="8.735" height="29.735" rx="1" ry="1" fill="none" stroke="#555d50" stroke-width=".265"/>
  <rect id="rect677" transform="scale(-1,1)" x="-2.58" y="258.5" width="2" height="22" rx=".8" ry=".8" fill="#555d50"/>
  <rect id="rect679" transform="scale(-1,1)" x="-2.58" y="258.6" width="1" height="1" fill="#555d50"/>
  <path id="path681" d="m2.455 269.5h-1.75" fill="#fffff0" stroke="#fffff0" stroke-width=".265"/>
  <path id="path683" d="m2.455 264.5h-1.75" fill="#fffff0" stroke="#bbbbb0" stroke-width=".265"/>
  <path id="path685" d="m2.455 274.5h-1.75" fill="#fffff0" stroke="#bbbbb0" stroke-width=".265"/>
  <g id="g697" transform="translate(-10.69 63.978)" stroke-width=".26458" style="font-variant-ligatures:none" aria-label="Upper">
   <path id="path687" d="m14.328 196.8c-0.2286 0-0.26811-0.15522-0.26811-0.41487v-1.2672h-0.3556v1.3293c0 0.45156 0.18344 0.68016 0.62654 0.68016 0.18344 0 0.32738-0.0564 0.4318-0.17216 0.10442-0.11288 0.15804-0.29915 0.15804-0.55597v-1.2813h-0.33585v1.2672c0 0.24554-0.04233 0.41487-0.25682 0.41487z"/>
   <path id="path689" d="m15.702 197.14c0.39229 0 0.52776-0.34995 0.52776-0.78175 0-0.25118-0.03669-0.4318-0.11007-0.53905-0.07338-0.10724-0.18062-0.16369-0.32173-0.16369-0.18062 0-0.26811 0.0762-0.34431 0.19474h-0.0085l-0.03387-0.16087h-0.25118v1.9756h0.33584v-0.57291c0.05644 0.0367 0.11289 0.048 0.20602 0.048zm0.18062-0.79022c0 0.18062-0.01975 0.30762-0.05927 0.381-0.03951 0.0734-0.09878 0.11007-0.17216 0.11007-0.0762 0-0.11853-0.0169-0.15522-0.0565v-0.66322c0.03387-0.11007 0.09596-0.16651 0.19191-0.16651 0.16933 0 0.19473 0.19191 0.19473 0.39511z"/>
   <path id="path691" d="m16.964 197.14c0.39229 0 0.52776-0.34995 0.52776-0.78175 0-0.25118-0.03669-0.4318-0.11007-0.53905-0.07338-0.10724-0.18062-0.16369-0.32173-0.16369-0.18062 0-0.26811 0.0762-0.34431 0.19474h-0.0085l-0.03387-0.16087h-0.25118v1.9756h0.33584v-0.57291c0.05645 0.0367 0.11289 0.048 0.20602 0.048zm0.18062-0.79022c0 0.18062-0.01976 0.30762-0.05927 0.381-0.03951 0.0734-0.09878 0.11007-0.17216 0.11007-0.0762 0-0.11853-0.0169-0.15522-0.0565v-0.66322c0.03387-0.11007 0.09596-0.16651 0.19191-0.16651 0.16933 0 0.19473 0.19191 0.19473 0.39511z"/>
   <path id="path693" d="m18.253 196.85c-0.21449 0-0.28505-0.14394-0.29069-0.36125h0.6858c0.01411-0.0931 0.02822-0.18345 0.02822-0.28505 0-0.33584-0.14958-0.55315-0.47414-0.55315-0.18062 0-0.31891 0.0621-0.42051 0.18344-0.1016 0.12136-0.14958 0.30763-0.14958 0.56163 0 0.42615 0.13547 0.74224 0.5588 0.74224 0.17216 0 0.35278-0.0593 0.44591-0.14111l-0.10442-0.23424c-0.05927 0.048-0.17216 0.0875-0.2794 0.0875zm0.11007-0.58421h-0.38947c0.0085-0.17215 0.05644-0.32738 0.22296-0.32738 0.14393 0 0.17498 0.15805 0.16651 0.32738z"/>
   <path id="path695" d="m19.199 195.86h-0.01129l-0.03951-0.16933h-0.25682v1.4111h0.33584v-0.94262c0.02258-0.0903 0.09313-0.16087 0.20602-0.16087 0.03669 0 0.07902 8e-3 0.12418 0.0254l0.03951-0.33302c-0.04516-0.0169-0.08749-0.0282-0.13264-0.0282-0.13829 0-0.22578 0.0931-0.26529 0.19755z"/>
  </g>
  <g id="g709" transform="translate(-10.64 67.937)" stroke-width=".26458" style="font-variant-ligatures:none" aria-label="Lower">
   <path id="path699" d="m14.685 202.04v-0.32738h-0.69427v-1.6482h-0.3556v1.9756z"/>
   <path id="path701" d="m15.817 201.33c0-0.44027-0.14393-0.74225-0.5588-0.74225-0.40076 0-0.55598 0.30762-0.55598 0.74225 0 0.49671 0.18344 0.74224 0.55598 0.74224 0.40358 0 0.5588-0.30197 0.5588-0.74224zm-0.76765 0c0-0.16087 0.01693-0.27376 0.05362-0.34149 0.03669-0.0677 0.08749-0.1016 0.15522-0.1016 0.0762 0 0.12982 0.0395 0.16369 0.11289 0.03105 0.0762 0.04798 0.18626 0.04798 0.3302 0 0.16369-0.01976 0.27658-0.05362 0.34431-0.03387 0.0677-0.08749 0.0988-0.15804 0.0988-0.18344 0-0.20884-0.22578-0.20884-0.44309z"/>
   <path id="path703" d="m16.861 200.63h-0.25118l-0.17216 0.70556-0.03669 0.254h-0.01129l-0.0254-0.25118-0.1524-0.70838h-0.36407l0.36124 1.4252h0.27376l0.2032-0.78176 0.01976-0.18627h0.01693l0.02258 0.18062 0.21167 0.78741h0.26529l0.34713-1.4252h-0.3048l-0.13264 0.71967-0.02822 0.23707h-0.01129l-0.03387-0.23425z"/>
   <path id="path705" d="m18.222 201.79c-0.21449 0-0.28504-0.14394-0.29069-0.36125h0.6858c0.01411-0.0931 0.02822-0.18344 0.02822-0.28504 0-0.33585-0.14958-0.55316-0.47414-0.55316-0.18062 0-0.31891 0.0621-0.42051 0.18344-0.1016 0.12136-0.14958 0.30763-0.14958 0.56163 0 0.42615 0.13547 0.74224 0.5588 0.74224 0.17216 0 0.35278-0.0593 0.44591-0.14111l-0.10442-0.23424c-0.05927 0.048-0.17216 0.0875-0.2794 0.0875zm0.11007-0.5842h-0.38947c0.0085-0.17216 0.05645-0.32738 0.22296-0.32738 0.14393 0 0.17498 0.15804 0.16651 0.32738z"/>
   <path id="path707" d="m19.167 200.8h-0.01129l-0.03951-0.16933h-0.25682v1.4111h0.33585v-0.94263c0.02258-0.0903 0.09313-0.16087 0.20602-0.16087 0.03669 0 0.07902 8e-3 0.12418 0.0254l0.03951-0.33302c-0.04516-0.0169-0.08749-0.0282-0.13264-0.0282-0.13829 0-0.22578 0.0931-0.26529 0.19755z"/>
  </g>
  <path id="path721" d="m2.455 259.5h-1.75" fill="#fffff0" stroke="#bbbbb0" stroke-width=".265"/>
  <path id="path723" d="m2.455 279.5h-1.75" fill="#fffff0" stroke="#bbbbb0" stroke-width=".265"/>
  <g id="text479" transform="translate(-11.946 .49699)" fill="#fffff0" stroke-width=".26458" style="font-variant-ligatures:none" aria-label="B Out">
   <path id="path537" d="m15.696 245.01c-0.16369 0-0.37253 0.0198-0.50236 0.0423v1.9473c0.11853 0.0339 0.27658 0.0423 0.42334 0.0423h0.1016c0.38665 0 0.65194-0.19191 0.65194-0.5842 0-0.26811-0.12136-0.42615-0.33302-0.47978v-0.0169c0.18062-0.0593 0.28504-0.22578 0.28504-0.46567 0-0.37253-0.25682-0.48542-0.62654-0.48542zm-0.14676 1.7074v-0.56163h0.14393c0.2032 0 0.3048 0.0734 0.3048 0.2794 0 0.18063-0.1016 0.29916-0.27093 0.29916-0.0508 0-0.14676-3e-3 -0.1778-0.0169zm0.41769-1.1402c0 0.1524-0.09031 0.24553-0.19756 0.28504-0.03387 8e-3 -0.1016 0.0141-0.13829 0.0141h-0.08185v-0.54751c0.03105-6e-3 0.08467-0.0113 0.16369-0.0113 0.16933 0 0.254 0.0875 0.254 0.25965z"/>
   <path id="path539" d="m18.473 246.03c0-0.55033-0.15522-1.0273-0.69991-1.0273-0.5334 0-0.69709 0.44873-0.69709 1.0273 0 0.55598 0.14676 1.0273 0.69709 1.0273 0.52776 0 0.69991-0.44873 0.69991-1.0273zm-1.0245 0c0-0.46567 0.10724-0.69991 0.32456-0.69991 0.06209 0 0.11289 0.0198 0.15522 0.0564 0.13547 0.12136 0.17216 0.381 0.17216 0.64347 0 0.24554-0.02822 0.42334-0.08184 0.5334-0.05644 0.11289-0.13829 0.16651-0.24553 0.16651-0.06209 0-0.11289-0.0169-0.1524-0.0536-0.14111-0.12135-0.17216-0.37535-0.17216-0.64629z"/>
   <path id="path541" d="m19.035 247.05c0.18627 0 0.3048-0.1016 0.37253-0.2286h0.0085l0.05927 0.19191h0.254c-0.03104-0.11853-0.03951-0.27658-0.03951-0.42898v-0.98213h-0.33584v0.94262c-0.02822 0.096-0.09596 0.19756-0.20884 0.19756-0.13829 0-0.14393-0.127-0.14393-0.29634v-0.84384h-0.33584v0.91722c0 0.31327 0.06491 0.53058 0.36971 0.53058z"/>
   <path id="path543" d="m20.302 247.05c0.11853 0 0.23424-0.031 0.31609-0.0734l-0.04233-0.26811c-0.0508 0.0226-0.08749 0.0339-0.14958 0.0339-0.10442 0-0.11007-0.096-0.11007-0.22296v-0.61525h0.27376v-0.29915h-0.27376v-0.36972l-0.33585 0.10443v0.26529h-0.15522v0.29915h0.15522v0.73943c0 0.26246 0.07902 0.4064 0.32174 0.4064z"/>
  </g>
  <g id="text483" transform="translate(-11.393 .45419)" fill="#fffff0" stroke-width=".26458" style="font-variant-ligatures:none" aria-label="C Out ">
   <path id="path546" d="m15.51 278.77c-0.0762 0-0.14111-0.0169-0.19473-0.0508-0.17498-0.11006-0.23142-0.35842-0.23142-0.64911 0-0.23989 0.03387-0.41769 0.10442-0.53058 0.06773-0.11289 0.16933-0.16933 0.29916-0.16933 0.12136 0 0.21731 0.0197 0.29633 0.0593l0.07056-0.31327c-0.10442-0.0452-0.24836-0.0734-0.40922-0.0734-0.22296 0-0.38947 0.0818-0.50518 0.21449-0.15804 0.1778-0.2286 0.45156-0.2286 0.80998 0 0.19191 0.01693 0.3556 0.05645 0.48542 0.09031 0.31892 0.2794 0.54469 0.66887 0.54469 0.16651 0 0.34713-0.0395 0.44027-0.11853l-0.07056-0.29916c-0.07902 0.0508-0.16651 0.0903-0.29634 0.0903z"/>
   <path id="path548" d="m17.849 278.07c0-0.55033-0.15522-1.0273-0.69991-1.0273-0.5334 0-0.69709 0.44873-0.69709 1.0273 0 0.55598 0.14676 1.0273 0.69709 1.0273 0.52776 0 0.69991-0.44873 0.69991-1.0273zm-1.0245 0c0-0.46567 0.10724-0.69991 0.32456-0.69991 0.06209 0 0.11289 0.0197 0.15522 0.0564 0.13547 0.12136 0.17216 0.381 0.17216 0.64347 0 0.24554-0.02822 0.42334-0.08185 0.5334-0.05645 0.11289-0.13829 0.16652-0.24553 0.16652-0.06209 0-0.11289-0.0169-0.1524-0.0536-0.14111-0.12135-0.17216-0.37535-0.17216-0.64629z"/>
   <path id="path550" d="m18.411 279.1c0.18627 0 0.3048-0.1016 0.37254-0.2286h0.0085l0.05927 0.19191h0.254c-0.03105-0.11853-0.03951-0.27658-0.03951-0.42898v-0.98213h-0.33585v0.94262c-0.02822 0.096-0.09596 0.19756-0.20884 0.19756-0.13829 0-0.14393-0.127-0.14393-0.29634v-0.84384h-0.33585v0.91722c0 0.31327 0.06491 0.53058 0.36971 0.53058z"/>
   <path id="path552" d="m19.678 279.09c0.11853 0 0.23424-0.031 0.31609-0.0734l-0.04233-0.26811c-0.0508 0.0226-0.08749 0.0339-0.14958 0.0339-0.10442 0-0.11007-0.096-0.11007-0.22296v-0.61525h0.27376v-0.29915h-0.27376v-0.36971l-0.33584 0.10442v0.26529h-0.15522v0.29915h0.15522v0.73943c0 0.26247 0.07902 0.4064 0.32173 0.4064z"/>
  </g>
 </g>
 <g id="layer2" display="none">
  <circle id="circle922" cx="5.08" cy="18.25" r="4" fill="#0f0" fill-rule="evenodd" stroke-width=".26458"/>
  <circle id="circle9581" transform="scale(-1,1)" cx="-5.96" cy="32" r="3" fill-rule="evenodd" stroke-width=".26458"/>
  <circle id="circle1002" transform="scale(-1,1)" cx="-5.08" cy="51.25" r="4" fill="#00f" fill-rule="evenodd" stroke-width=".26458"/>
  <circle id="circle1371" transform="scale(-1,1)" cx="-5.96" cy="40.8" r="3" fill-rule="evenodd" stroke-width=".26458"/>
  <g id="g1727" transform="matrix(-1 0 0 1 13.624 0)" stroke="#000">
   <rect id="rect1193" x="11.569" y="26.525" width=".95" height=".95" fill="#f00" stroke-width=".05"/>
   <rect id="rect1497" x="11.569" y="46.525" width=".95" height=".95" fill="#f00" stroke-width=".05"/>
   <rect id="rect1499" x="11.569" y="27.525" width=".95" height=".95" fill="#f00" stroke-width=".05"/>
   <rect id="rect1501" x="11.569" y="28.525" width=".95" height=".95" fill="#f00" stroke-width=".05"/>
   <rect id="rect1503" x="11.569" y="29.525" width=".95" height=".95" fill="#f00" stroke-width=".05"/>
   <rect id="rect1505" x="11.569" y="30.525" width=".95" height=".95" fill="#f00" stroke-width=".05"/>
   <rect id="rect1507" x="11.569" y="31.525" width=".95" height=".95" fill="#f00" stroke-width=".05"/>
   <rect id="rect1509" x="11.569" y="32.525" width=".95" height=".95" fill="#f00" stroke-width=".05"/>
   <rect id="rect1511" x="11.569" y="33.525" width=".95" height=".95" fill="#f00" stroke-width=".05"/>
   <rect id="rect1513" x="11.569" y="34.525" width=".95" height=".95" fill="#f00" stroke-width=".05"/>
   <rect id="rect1515" x="11.569" y="35.525" width=".95" height=".95" fill="#f00" stroke-width=".05"/>
   <rect id="rect1517" x="11.569" y="36.525" width=".95" height=".95" fill="#f00" stroke-width=".05"/>
   <rect id="rect1519" x="11.569" y="37.525" width=".95" height=".95" fill="#f00" stroke-width=".05"/>
   <rect id="rect1521" x="11.569" y="38.525" width=".95" height=".95" fill="#f00" stroke-width=".05"/>
   <rect id="rect1523" x="11.569" y="39.525" width=".95" height=".95" fill="#f00" stroke-width=".05"/>
   <rect id="rect1525" x="11.569" y="40.525" width=".95" height=".95" fill="#f00" stroke-width=".05"/>
   <rect id="rect1527" x="11.569" y="41.525" width=".95" height=".95" fill="#f00" stroke-width=".05"/>
   <rect id="rect1529" x="11.569" y="42.525" width=".95" height=".95" fill="#f00" stroke-width=".05"/>
   <rect id="rect1531" x="11.569" y="43.525" width=".95" height=".95" fill="#f00" stroke-width=".05"/>
   <rect id="rect1533" x="11.569" y="44.525" width=".95" height=".95" fill="#f00" stroke-width=".05"/>
   <rect id="rect1535" x="11.569" y="45.525" width=".95" height=".95" fill="#f00" stroke-width=".05"/>
   <rect id="rect1559" x="11.544" y="26.5" width="1" height="21" fill="none" stroke-width=".1"/>
  </g>
  <circle id="path840" transform="scale(-1,1)" cx="-1.78" cy="54.8" r=".975" display="inline" fill="#00b8ff" opacity=".994" stop-color="#000000" stroke="#454545" stroke-dashoffset="9.4488" stroke-width=".15"/>
  <circle id="circle617" transform="scale(-1,1)" cx="-5.96" cy="64" r="3" fill-rule="evenodd" stroke-width=".26458"/>
  <circle id="circle619" transform="scale(-1,1)" cx="-5.08" cy="83.25" r="4" fill="#00f" fill-rule="evenodd" stroke-width=".26458"/>
  <circle id="circle621" transform="scale(-1,1)" cx="-5.96" cy="72.8" r="3" fill-rule="evenodd" stroke-width=".26458"/>
  <g id="g667" transform="matrix(-1 0 0 1 13.624 32)" stroke="#000">
   <rect id="rect623" x="11.569" y="26.525" width=".95" height=".95" fill="#f00" stroke-width=".05"/>
   <rect id="rect625" x="11.569" y="46.525" width=".95" height=".95" fill="#f00" stroke-width=".05"/>
   <rect id="rect627" x="11.569" y="27.525" width=".95" height=".95" fill="#f00" stroke-width=".05"/>
   <rect id="rect629" x="11.569" y="28.525" width=".95" height=".95" fill="#f00" stroke-width=".05"/>
   <rect id="rect631" x="11.569" y="29.525" width=".95" height=".95" fill="#f00" stroke-width=".05"/>
   <rect id="rect633" x="11.569" y="30.525" width=".95" height=".95" fill="#f00" stroke-width=".05"/>
   <rect id="rect635" x="11.569" y="31.525" width=".95" height=".95" fill="#f00" stroke-width=".05"/>
   <rect id="rect637" x="11.569" y="32.525" width=".95" height=".95" fill="#f00" stroke-width=".05"/>
   <rect id="rect639" x="11.569" y="33.525" width=".95" height=".95" fill="#f00" stroke-width=".05"/>
   <rect id="rect641" x="11.569" y="34.525" width=".95" height=".95" fill="#f00" stroke-width=".05"/>
   <rect id="rect643" x="11.569" y="35.525" width=".95" height=".95" fill="#f00" stroke-width=".05"/>
   <rect id="rect645" x="11.569" y="36.525" width=".95" height=".95" fill="#f00" stroke-width=".05"/>
   <rect id="rect647" x="11.569" y="37.525" width=".95" height=".95" fill="#f00" stroke-width=".05"/>
   <rect id="rect649" x="11.569" y="38.525" width=".95" height=".95" fill="#f00" stroke-width=".05"/>
   <rect id="rect651" x="11.569" y="39.525" width=".95" height=".95" fill="#f00" stroke-width=".05"/>
   <rect id="rect653" x="11.569" y="40.525" width=".95" height=".95" fill="#f00" stroke-width=".05"/>
   <rect id="rect655" x="11.569" y="41.525" width=".95" height=".95" fill="#f00" stroke-width=".05"/>
   <rect id="rect657" x="11.569" y="42.525" width=".95" height=".95" fill="#f00" stroke-width=".05"/>
   <rect id="rect659" x="11.569" y="43.525" width=".95" height=".95" fill="#f00" stroke-width=".05"/>
   <rect id="rect661" x="11.569" y="44.525" width=".95" height=".95" fill="#f00" stroke-width=".05"/>
   <rect id="rect663" x="11.569" y="45.525" width=".95" height=".95" fill="#f00" stroke-width=".05"/>
   <rect id="rect665" x="11.544" y="26.5" width="1" height="21" fill="none" stroke-width=".1"/>
  </g>
  <circle id="circle669" transform="scale(-1,1)" cx="-1.78" cy="86.8" r=".975" display="inline" fill="#00b8ff" opacity=".994" stop-color="#000000" stroke="#454545" stroke-dashoffset="9.4488" stroke-width=".15"/>
  <circle id="circle725" transform="scale(-1,1)" cx="-5.96" cy="96" r="3" fill-rule="evenodd" stroke-width=".26458"/>
  <circle id="circle727" transform="scale(-1,1)" cx="-5.08" cy="115.25" r="4" fill="#00f" fill-rule="evenodd" stroke-width=".26458"/>
  <circle id="circle729" transform="scale(-1,1)" cx="-5.96" cy="104.8" r="3" fill-rule="evenodd" stroke-width=".26458"/>
  <g id="g775" transform="matrix(-1 0 0 1 13.624 64)" stroke="#000">
   <rect id="rect731" x="11.569" y="26.525" width=".95" height=".95" fill="#f00" stroke-width=".05"/>
   <rect id="rect733" x="11.569" y="46.525" width=".95" height=".95" fill="#f00" stroke-width=".05"/>
   <rect id="rect735" x="11.569" y="27.525" width=".95" height=".95" fill="#f00" stroke-width=".05"/>
   <rect id="rect737" x="11.569" y="28.525" width=".95" height=".95" fill="#f00" stroke-width=".05"/>
   <rect id="rect739" x="11.569" y="29.525" width=".95" height=".95" fill="#f00" stroke-width=".05"/>
   <rect id="rect741" x="11.569" y="30.525" width=".95" height=".95" fill="#f00" stroke-width=".05"/>
   <rect id="rect743" x="11.569" y="31.525" width=".95" height=".95" fill="#f00" stroke-width=".05"/>
   <rect id="rect745" x="11.569" y="32.525" width=".95" height=".95" fill="#f00" stroke-width=".05"/>
   <rect id="rect747" x="11.569" y="33.525" width=".95" height=".95" fill="#f00" stroke-width=".05"/>
   <rect id="rect749" x="11.569" y="34.525" width=".95" height=".95" fill="#f00" stroke-width=".05"/>
   <rect id="rect751" x="11.569" y="35.525" width=".95" height=".95" fill="#f00" stroke-width=".05"/>
   <rect id="rect753" x="11.569" y="36.525" width=".95" height=".95" fill="#f00" stroke-width=".05"/>
   <rect id="rect755" x="11.569" y="37.525" width=".95" height=".95" fill="#f00" stroke-width=".05"/>
   <rect id="rect757" x="11.569" y="38.525" width=".95" height=".95" fill="#f00" stroke-width=".05"/>
   <rect id="rect759" x="11.569" y="39.525" width=".95" height=".95" fill="#f00" stroke-width=".05"/>
   <rect id="rect761" x="11.569" y="40.525" width=".95" height=".95" fill="#f00" stroke-width=".05"/>
   <rect id="rect763" x="11.569" y="41.525" width=".95" height=".95" fill="#f00" stroke-width=".05"/>
   <rect id="rect765" x="11.569" y="42.525" width=".95" height=".95" fill="#f00" stroke-width=".05"/>
   <rect id="rect767" x="11.569" y="43.525" width=".95" height=".95" fill="#f00" stroke-width=".05"/>
   <rect id="rect769" x="11.569" y="44.525" width=".95" height=".95" fill="#f00" stroke-width=".05"/>
   <rect id="rect771" x="11.569" y="45.525" width=".95" height=".95" fill="#f00" stroke-width=".05"/>
   <rect id="rect773" x="11.544" y="26.5" width="1" height="21" fill="none" stroke-width=".1"/>
  </g>
  <circle id="circle777" transform="scale(-1,1)" cx="-1.78" cy="118.8" r=".975" display="inline" fill="#00b8ff" opacity=".994" stop-color="#000000" stroke="#454545" stroke-dashoffset="9.4488" stroke-width=".15"/>
 </g>
</svg>
