<?xml version="1.0" encoding="UTF-8"?>
<svg id="svg8" width="10.16mm" height="128.5mm" version="1.1" viewBox="0 0 10.16 128.5" xmlns="http://www.w3.org/2000/svg" xmlns:cc="http://creativecommons.org/ns#" xmlns:dc="http://purl.org/dc/elements/1.1/" xmlns:rdf="http://www.w3.org/1999/02/22-rdf-syntax-ns#">
 <metadata id="metadata5">
  <rdf:RDF>
   <cc:Work rdf:about="">
    <dc:format>image/svg+xml</dc:format>
    <dc:type rdf:resource="http://purl.org/dc/dcmitype/StillImage"/>
    <dc:title/>
   </cc:Work>
  </rdf:RDF>
 </metadata>
 <g id="layer1" transform="translate(0,-168.5)">
  <rect id="rect838" x="-5.5511e-17" y="168.5" width="10.16" height="128.5" fill="#242422"/>
  <text id="text64" x="2.0529213" y="233.73691" font-family="'PT Sans Narrow'" font-size="2.8222px" font-stretch="condensed" font-weight="bold" stroke-width=".26458" style="line-height:1.25" xml:space="preserve"><tspan id="tspan62" x="2.0529213" y="233.73691" stroke-width=".26458"/></text>
  <g id="text2569" transform="translate(0 -.83024)" fill="#fffff0" stroke-width=".26458" aria-label="GRANDE">
   <path id="path2571" d="m1.6964 292.53c0.15522 0 0.28222-0.0564 0.35807-0.13405v-0.48684h-0.381v0.12171h0.24518v0.30163c-0.045861 0.0423-0.12524 0.067-0.20814 0.067-0.24694 0-0.38276-0.18168-0.38276-0.47272 0-0.28751 0.14817-0.46567 0.381-0.46567 0.11642 0 0.1905 0.0441 0.24871 0.10407l0.081139-0.0917c-0.067028-0.0723-0.17286-0.14287-0.33338-0.14287-0.30692 0-0.53093 0.22754-0.53093 0.59972 0 0.37747 0.21696 0.59972 0.52211 0.59972z"/>
   <path id="path2573" d="m2.7 292.51h0.14817v-0.48859h0.20814l0.27869 0.48859h0.16757l-0.29457-0.50447c0.15699-0.0406 0.25929-0.1464 0.25929-0.32632 0-0.24165-0.16933-0.32632-0.40569-0.32632h-0.3616zm0.14817-0.60854v-0.42862h0.19226c0.17992 0 0.27869 0.0547 0.27869 0.20637 0 0.14817-0.098778 0.22225-0.27869 0.22225z"/>
   <path id="path2575" d="m4.2699 291.86c0.04057-0.12876 0.077611-0.25576 0.11289-0.38982h0.00706c0.037042 0.13406 0.074083 0.26106 0.11642 0.38982l0.054681 0.17463h-0.34573zm-0.35454 0.64558h0.14993l0.11112-0.35101h0.42157l0.10936 0.35101h0.15699l-0.38982-1.1571h-0.16933z"/>
   <path id="path2577" d="m5.3988 292.51h0.13935v-0.60854c0-0.11994-0.010583-0.24518-0.019403-0.3616h0.00706c0.038806 0.0847 0.081139 0.1711 0.12524 0.24871l0.41275 0.72143h0.15875v-1.1571h-0.13935v0.60325c0 0.11995 0.010583 0.24695 0.019403 0.36689h-0.00706c-0.040569-0.0847-0.081139-0.1711-0.12524-0.24871l-0.41275-0.72143h-0.15875z"/>
   <path id="path2579" d="m6.9087 292.51h0.29633c0.34925 0 0.53975-0.21519 0.53975-0.58384 0-0.36689-0.1905-0.57327-0.54681-0.57327h-0.28928zm0.14817-0.1217v-0.9137h0.13053c0.26988 0 0.40393 0.16051 0.40393 0.45156 0 0.2928-0.13406 0.46214-0.40393 0.46214z"/>
   <path id="path2581" d="m8.3657 292.51h0.68439v-0.12523h-0.53622v-0.41981h0.43744v-0.12523h-0.43744v-0.3616h0.51858v-0.12524h-0.66675z"/>
  </g>
  <text id="text925" x="7.705914" y="247.28606" font-family="'PT Sans Narrow'" font-size="2.8222px" font-stretch="condensed" font-weight="bold" stroke-width=".26458" text-align="center" text-anchor="middle" style="line-height:1.25" xml:space="preserve"><tspan id="tspan923" x="7.705914" y="247.28606" stroke-width=".26458"/></text>
  <rect id="rect908" x=".58" y="190.38" width="9" height="8.75" rx="1" ry="1" fill="#555d50"/>
  <g id="g897" transform="translate(-13.263)" fill="#fffff0" stroke-width=".26458">
   <path id="path6243" d="m16.009 177.53v-0.57291h-1.215v-2.8843h-0.6223v3.4572z" style="font-variant-ligatures:none"/>
   <path id="path6245" d="m16.266 174.07v3.4572h0.6223v-1.4125h1.0174v-0.57291h-1.0174v-0.89888h1.1063v-0.57291z" style="font-variant-ligatures:none"/>
   <path id="path6247" d="m20.701 175.8c0-0.96308-0.27164-1.7978-1.2248-1.7978-0.93345 0-1.2199 0.78529-1.2199 1.7978 0 0.97297 0.25682 1.7978 1.2199 1.7978 0.92357 0 1.2248-0.78528 1.2248-1.7978zm-1.7928 0c0-0.81492 0.18768-1.2248 0.56797-1.2248 0.10866 0 0.19756 0.0346 0.27164 0.0988 0.23707 0.21238 0.30127 0.66676 0.30127 1.1261 0 0.42969-0.04939 0.74084-0.14323 0.93346-0.09878 0.19755-0.24201 0.29139-0.42968 0.29139-0.10866 0-0.19756-0.0296-0.2667-0.0938-0.24694-0.21237-0.30127-0.65687-0.30127-1.131z" style="font-variant-ligatures:none"/>
   <path id="path6249" d="m20.923 176.95-0.15804 0.49389c0.14817 0.0938 0.45932 0.1531 0.70626 0.1531 0.14323 0 0.27658-0.0197 0.40499-0.0691 0.40005-0.14323 0.63712-0.51859 0.63712-1.0717 0-0.15805-0.01976-0.30128-0.05927-0.41981-0.09384-0.29139-0.29633-0.52352-0.64206-0.55316l-0.18274 0.0296v-0.0247l0.18274-0.13335 0.57291-0.93345v-0.35066h-1.5804v0.52352h0.67663l0.32597-0.0445-0.23707 0.22225-0.48895 0.82974v0.33584h0.2914c0.36548 0 0.55316 0.18768 0.55316 0.5581 0 0.3309-0.16792 0.57785-0.49389 0.57785-0.21237 0-0.37042-0.0494-0.50871-0.12347z" style="font-variant-ligatures:none"/>
  </g>
  <g id="text2632" transform="translate(10.36 .05585)" fill="#fffff0" stroke-width=".26458" style="font-variant-ligatures:none" aria-label="Freq A">
   <path id="path2930" d="m-8.4015 180.71v1.9756h0.3556v-0.80716h0.58138v-0.32737h-0.58138v-0.51365h0.63218v-0.32738z"/>
   <path id="path2932" d="m-6.917 181.44h-0.011289l-0.039511-0.16933h-0.25682v1.4111h0.33585v-0.94262c0.022578-0.0903 0.093134-0.16087 0.20602-0.16087 0.036689 0 0.079023 8e-3 0.12418 0.0254l0.039511-0.33302c-0.045156-0.0169-0.087489-0.0282-0.13264-0.0282-0.13829 0-0.22578 0.0931-0.26529 0.19755z"/>
   <path id="path2934" d="m-5.8276 182.43c-0.21449 0-0.28505-0.14393-0.29069-0.36124h0.6858c0.014111-0.0931 0.028222-0.18345 0.028222-0.28505 0-0.33584-0.14958-0.55315-0.47413-0.55315-0.18062 0-0.31891 0.0621-0.42051 0.18344-0.1016 0.12136-0.14958 0.30762-0.14958 0.56163 0 0.42615 0.13547 0.74224 0.5588 0.74224 0.17216 0 0.35278-0.0593 0.44591-0.14111l-0.10442-0.23424c-0.059267 0.048-0.17216 0.0875-0.2794 0.0875zm0.11007-0.5842h-0.38947c0.00847-0.17215 0.056445-0.32738 0.22296-0.32738 0.14393 0 0.17498 0.15805 0.16651 0.32738z"/>
   <path id="path2936" d="m-4.6225 181.24c-0.43462 0-0.61807 0.30763-0.61807 0.76483 0 0.24271 0.036689 0.42051 0.11571 0.53904 0.0762 0.11854 0.18344 0.1778 0.32456 0.1778 0.13829 0 0.21731-0.0508 0.27376-0.13829h0.011289v0.66323h0.33585v-1.9248c-0.1016-0.0423-0.29351-0.0819-0.44309-0.0819zm-0.079022 1.1825c-0.12982 0-0.19191-0.14394-0.19191-0.4318 0-0.15805 0.016933-0.27376 0.053622-0.34432 0.036689-0.0705 0.093134-0.10724 0.16651-0.10724 0.064911 0 0.11853 0.0113 0.15804 0.0339v0.70273c-0.028222 0.0875-0.079022 0.14676-0.18627 0.14676z"/>
   <path id="path2938" d="m-2.6526 182.24 0.12136 0.44591h0.37253l-0.57574-1.9897h-0.2794l-0.57291 1.9897h0.35278l0.11571-0.44591zm-0.38947-0.29351 0.11007-0.4572 0.047978-0.31327h0.011289l0.045156 0.31044 0.11289 0.46003z"/>
  </g>
  <rect id="rect1174" x=".58" y="227.38" width="9" height="8.75" rx="1" ry="1" fill="#555d50"/>
  <rect id="rect1238" x=".58" y="264.38" width="9" height="8.75" rx="1" ry="1" fill="#555d50"/>
 </g>
 <g id="layer2" display="none" fill-rule="evenodd" stroke-width=".26458">
  <circle id="circle918" cx="5.08" cy="26.25" r="4" fill="#00f"/>
  <circle id="circle922" cx="5.08" cy="35" r="4" fill="#0f0"/>
  <circle id="circle9581" cx="5.08" cy="42.5" r="3"/>
  <circle id="circle18954" cx="5.08" cy="18" r="3"/>
  <circle id="circle1188" cx="5.08" cy="63.25" r="4" fill="#00f"/>
  <circle id="circle1190" cx="5.08" cy="72" r="4" fill="#0f0"/>
  <circle id="circle1192" cx="5.08" cy="79.5" r="3"/>
  <circle id="circle1194" cx="5.08" cy="55" r="3"/>
  <circle id="circle1252" cx="5.08" cy="100.25" r="4" fill="#00f"/>
  <circle id="circle1254" cx="5.08" cy="109" r="4" fill="#0f0"/>
  <circle id="circle1256" cx="5.08" cy="116.5" r="3"/>
  <circle id="circle1258" cx="5.08" cy="92" r="3"/>
 </g>
 <g id="text9845" transform="translate(-10.139 .17171)" fill="#fffff0" stroke-width=".26458" style="font-variant-ligatures:none" aria-label="Freq B">
  <path id="path10963" d="m12.107 49.107v1.9756h0.3556v-0.80716h0.58138v-0.32738h-0.58138v-0.51365h0.63218v-0.32738z"/>
  <path id="path10965" d="m13.592 49.84h-0.01129l-0.03951-0.16933h-0.25682v1.4111h0.33585v-0.94262c0.02258-0.09031 0.09313-0.16087 0.20602-0.16087 0.03669 0 0.07902 0.0085 0.12418 0.0254l0.03951-0.33302c-0.04516-0.01693-0.08749-0.02822-0.13264-0.02822-0.13829 0-0.22578 0.09313-0.26529 0.19756z"/>
  <path id="path10967" d="m14.681 50.831c-0.21449 0-0.28504-0.14393-0.29069-0.36125h0.6858c0.01411-0.09313 0.02822-0.18344 0.02822-0.28504 0-0.33584-0.14958-0.55316-0.47414-0.55316-0.18062 0-0.31891 0.06209-0.42051 0.18344-0.1016 0.12136-0.14958 0.30762-0.14958 0.56162 0 0.42616 0.13547 0.74225 0.5588 0.74225 0.17216 0 0.35278-0.05927 0.44591-0.14111l-0.10442-0.23424c-0.05927 0.04798-0.17216 0.08749-0.2794 0.08749zm0.11007-0.5842h-0.38947c0.0085-0.17216 0.05645-0.32738 0.22296-0.32738 0.14393 0 0.17498 0.15804 0.16651 0.32738z"/>
  <path id="path10969" d="m15.886 49.64c-0.43462 0-0.61807 0.30762-0.61807 0.76482 0 0.24271 0.03669 0.42051 0.11571 0.53905 0.0762 0.11853 0.18344 0.1778 0.32456 0.1778 0.13829 0 0.21731-0.0508 0.27376-0.13829h0.01129v0.66322h0.33584v-1.9248c-0.1016-0.04233-0.29351-0.08184-0.44309-0.08184zm-0.07902 1.1825c-0.12982 0-0.19191-0.14393-0.19191-0.4318 0-0.15804 0.01693-0.27376 0.05362-0.34431 0.03669-0.07056 0.09313-0.10724 0.16651-0.10724 0.06491 0 0.11853 0.01129 0.15804 0.03387v0.70274c-0.02822 0.08749-0.07902 0.14676-0.18627 0.14676z"/>
  <path id="path10971" d="m17.656 49.078c-0.16369 0-0.37254 0.01975-0.50236 0.04233v1.9473c0.11853 0.03387 0.27658 0.04233 0.42333 0.04233h0.1016c0.38665 0 0.65194-0.19191 0.65194-0.5842 0-0.26811-0.12136-0.42616-0.33302-0.47978v-0.01693c0.18062-0.05927 0.28505-0.22578 0.28505-0.46567 0-0.37253-0.25682-0.48542-0.62654-0.48542zm-0.14676 1.7074v-0.56162h0.14393c0.2032 0 0.3048 0.07338 0.3048 0.2794 0 0.18062-0.1016 0.29916-0.27093 0.29916-0.0508 0-0.14676-0.0028-0.1778-0.01693zm0.41769-1.1402c0 0.1524-0.09031 0.24553-0.19756 0.28504-0.03387 0.0085-0.1016 0.01411-0.13829 0.01411h-0.08184v-0.54751c0.03104-0.0056 0.08467-0.01129 0.16369-0.01129 0.16933 0 0.254 0.08749 0.254 0.25964z"/>
 </g>
 <g id="text16196" transform="translate(-11.407 .23704)" fill="#fffff0" stroke-width=".26458" style="font-variant-ligatures:none" aria-label="Freq C">
  <path id="path16636" d="m13.421 86.052v1.9756h0.3556v-0.80716h0.58138v-0.32738h-0.58138v-0.51365h0.63218v-0.32738z"/>
  <path id="path16638" d="m14.905 86.786h-0.01129l-0.03951-0.16933h-0.25682v1.4111h0.33584v-0.94262c0.02258-0.09031 0.09313-0.16087 0.20602-0.16087 0.03669 0 0.07902 0.0085 0.12418 0.0254l0.03951-0.33302c-0.04515-0.01693-0.08749-0.02822-0.13264-0.02822-0.13829 0-0.22578 0.09313-0.26529 0.19756z"/>
  <path id="path16640" d="m15.995 87.777c-0.21449 0-0.28505-0.14393-0.29069-0.36125h0.6858c0.01411-0.09313 0.02822-0.18344 0.02822-0.28504 0-0.33584-0.14958-0.55316-0.47414-0.55316-0.18062 0-0.31891 0.06209-0.42051 0.18344-0.1016 0.12136-0.14958 0.30762-0.14958 0.56162 0 0.42616 0.13547 0.74225 0.5588 0.74225 0.17216 0 0.35278-0.05927 0.44591-0.14111l-0.10442-0.23424c-0.05927 0.04798-0.17216 0.08749-0.2794 0.08749zm0.11007-0.5842h-0.38947c0.0085-0.17216 0.05644-0.32738 0.22296-0.32738 0.14393 0 0.17498 0.15804 0.16651 0.32738z"/>
  <path id="path16642" d="m17.2 86.586c-0.43462 0-0.61807 0.30762-0.61807 0.76482 0 0.24271 0.03669 0.42051 0.11571 0.53905 0.0762 0.11853 0.18344 0.1778 0.32456 0.1778 0.13829 0 0.21731-0.0508 0.27376-0.13829h0.01129v0.66322h0.33584v-1.9248c-0.1016-0.04233-0.29351-0.08184-0.44309-0.08184zm-0.07902 1.1825c-0.12982 0-0.19191-0.14393-0.19191-0.4318 0-0.15804 0.01693-0.27376 0.05362-0.34431 0.03669-0.07056 0.09313-0.10724 0.16651-0.10724 0.06491 0 0.11853 0.01129 0.15804 0.03387v0.70274c-0.02822 0.08749-0.07902 0.14676-0.18627 0.14676z"/>
  <path id="path16644" d="m19.186 87.74c-0.0762 0-0.14111-0.01693-0.19473-0.0508-0.17498-0.11007-0.23142-0.35842-0.23142-0.64911 0-0.23989 0.03387-0.41769 0.10442-0.53058 0.06773-0.11289 0.16933-0.16933 0.29916-0.16933 0.12136 0 0.21731 0.01975 0.29633 0.05927l0.07056-0.31327c-0.10442-0.04516-0.24836-0.07338-0.40922-0.07338-0.22296 0-0.38947 0.08185-0.50518 0.21449-0.15804 0.1778-0.2286 0.45156-0.2286 0.80998 0 0.19191 0.01693 0.3556 0.05644 0.48542 0.09031 0.31891 0.2794 0.54469 0.66887 0.54469 0.16651 0 0.34713-0.03951 0.44027-0.11853l-0.07056-0.29916c-0.07902 0.0508-0.16651 0.09031-0.29633 0.09031z"/>
 </g>
</svg>
