<?xml version="1.0" encoding="UTF-8"?>
<svg id="svg8" width="10.16mm" height="128.5mm" version="1.1" viewBox="0 0 10.16 128.5" xmlns="http://www.w3.org/2000/svg" xmlns:cc="http://creativecommons.org/ns#" xmlns:dc="http://purl.org/dc/elements/1.1/" xmlns:rdf="http://www.w3.org/1999/02/22-rdf-syntax-ns#">
 <metadata id="metadata5">
  <rdf:RDF>
   <cc:Work rdf:about="">
    <dc:format>image/svg+xml</dc:format>
    <dc:type rdf:resource="http://purl.org/dc/dcmitype/StillImage"/>
   </cc:Work>
  </rdf:RDF>
 </metadata>
 <g id="layer1" transform="translate(0,-168.5)">
  <rect id="rect838" x="-5.5511e-17" y="168.5" width="10.16" height="128.5" fill="#242422"/>
  <text id="text64" x="2.0529213" y="233.73691" font-family="'PT Sans Narrow'" font-size="2.8222px" font-stretch="condensed" font-weight="bold" stroke-width=".26458" style="line-height:1.25" xml:space="preserve"><tspan id="tspan62" x="2.0529213" y="233.73691" stroke-width=".26458"/></text>
  <g id="text2569" transform="translate(0 -.83024)" fill="#fffff0" stroke-width=".26458" aria-label="GRANDE">
   <path id="path2571" d="m1.6964 292.53c0.15522 0 0.28222-0.0564 0.35807-0.13405v-0.48684h-0.381v0.12171h0.24518v0.30163c-0.045861 0.0423-0.12524 0.067-0.20814 0.067-0.24694 0-0.38276-0.18168-0.38276-0.47272 0-0.28751 0.14817-0.46567 0.381-0.46567 0.11642 0 0.1905 0.0441 0.24871 0.10407l0.081139-0.0917c-0.067028-0.0723-0.17286-0.14287-0.33338-0.14287-0.30692 0-0.53093 0.22754-0.53093 0.59972 0 0.37747 0.21696 0.59972 0.52211 0.59972z"/>
   <path id="path2573" d="m2.7 292.51h0.14817v-0.48859h0.20814l0.27869 0.48859h0.16757l-0.29457-0.50447c0.15699-0.0406 0.25929-0.1464 0.25929-0.32632 0-0.24165-0.16933-0.32632-0.40569-0.32632h-0.3616zm0.14817-0.60854v-0.42862h0.19226c0.17992 0 0.27869 0.0547 0.27869 0.20637 0 0.14817-0.098778 0.22225-0.27869 0.22225z"/>
   <path id="path2575" d="m4.2699 291.86c0.04057-0.12876 0.077611-0.25576 0.11289-0.38982h0.00706c0.037042 0.13406 0.074083 0.26106 0.11642 0.38982l0.054681 0.17463h-0.34573zm-0.35454 0.64558h0.14993l0.11112-0.35101h0.42157l0.10936 0.35101h0.15699l-0.38982-1.1571h-0.16933z"/>
   <path id="path2577" d="m5.3988 292.51h0.13935v-0.60854c0-0.11994-0.010583-0.24518-0.019403-0.3616h0.00706c0.038806 0.0847 0.081139 0.1711 0.12524 0.24871l0.41275 0.72143h0.15875v-1.1571h-0.13935v0.60325c0 0.11995 0.010583 0.24695 0.019403 0.36689h-0.00706c-0.040569-0.0847-0.081139-0.1711-0.12524-0.24871l-0.41275-0.72143h-0.15875z"/>
   <path id="path2579" d="m6.9087 292.51h0.29633c0.34925 0 0.53975-0.21519 0.53975-0.58384 0-0.36689-0.1905-0.57327-0.54681-0.57327h-0.28928zm0.14817-0.1217v-0.9137h0.13053c0.26988 0 0.40393 0.16051 0.40393 0.45156 0 0.2928-0.13406 0.46214-0.40393 0.46214z"/>
   <path id="path2581" d="m8.3657 292.51h0.68439v-0.12523h-0.53622v-0.41981h0.43744v-0.12523h-0.43744v-0.3616h0.51858v-0.12524h-0.66675z"/>
  </g>
  <text id="text925" x="7.705914" y="247.28606" font-family="'PT Sans Narrow'" font-size="2.8222px" font-stretch="condensed" font-weight="bold" stroke-width=".26458" text-align="center" text-anchor="middle" style="line-height:1.25" xml:space="preserve"><tspan id="tspan923" x="7.705914" y="247.28606" stroke-width=".26458"/></text>
  <rect id="rect908" x=".58" y="213" width="9" height="9.5" rx="1" ry="1" fill="#555d50"/>
  <rect id="rect984" x=".58" y="235" width="9" height="9.5" rx="1" ry="1" fill="#555d50"/>
  <rect id="rect1006" x=".58" y="257" width="9" height="9.5" rx="1" ry="1" fill="#555d50"/>
  <rect id="rect1028" x=".58" y="279" width="9" height="9.5" rx="1" ry="1" fill="#555d50"/>
  <g id="text25462" transform="translate(-15.126 168.44)" fill="#fffff0" stroke-width=".26458" style="font-variant-ligatures:none" aria-label="LFO4">
   <path id="path26828" d="m17.559 9.0815v-0.57291h-1.215v-2.8843h-0.6223v3.4572z"/>
   <path id="path26830" d="m17.816 5.6242v3.4572h0.6223v-1.4125h1.0174v-0.57291h-1.0174v-0.89888h1.1063v-0.57291z"/>
   <path id="path26832" d="m22.251 7.3528c0-0.96309-0.27164-1.7978-1.2248-1.7978-0.93345 0-1.2199 0.78529-1.2199 1.7978 0 0.97296 0.25682 1.7978 1.2199 1.7978 0.92357 0 1.2248-0.78529 1.2248-1.7978zm-1.7928 0c0-0.81492 0.18768-1.2248 0.56797-1.2248 0.10866 0 0.19756 0.034572 0.27164 0.098778 0.23707 0.21237 0.30127 0.66675 0.30127 1.1261 0 0.42968-0.04939 0.74084-0.14323 0.93345-0.09878 0.19756-0.24201 0.2914-0.42968 0.2914-0.10866 0-0.19756-0.029633-0.2667-0.093839-0.24694-0.21237-0.30127-0.65687-0.30127-1.131z"/>
   <path id="path26834" d="m24.691 8.1184v-0.50377h-0.43462v-2.0151h-0.51364l-1.2644 2.1534v0.36548h1.2199v0.96309h0.5581v-0.96309zm-0.99272-1.2693v0.76553h-0.44944l-0.25188 0.039511 0.19756-0.18768 0.39017-0.66181 0.14817-0.40005h0.01976z"/>
  </g>
  <g id="text904" transform="translate(-14.697 -.28419)" fill="#fffff0" stroke-width=".26458" style="font-variant-ligatures:none" aria-label="Freq">
   <path id="path19866" d="m17.666 180.58v1.9756h0.3556v-0.80715h0.58138v-0.32738h-0.58138v-0.51365h0.63218v-0.32738z"/>
   <path id="path19868" d="m19.151 181.32h-0.01129l-0.03951-0.16933h-0.25682v1.4111h0.33584v-0.94262c0.02258-0.0903 0.09313-0.16087 0.20602-0.16087 0.03669 0 0.07902 8e-3 0.12418 0.0254l0.03951-0.33302c-0.04516-0.0169-0.08749-0.0282-0.13264-0.0282-0.13829 0-0.22578 0.0931-0.26529 0.19755z"/>
   <path id="path19870" d="m20.24 182.31c-0.21449 0-0.28504-0.14393-0.29069-0.36124h0.6858c0.01411-0.0931 0.02822-0.18345 0.02822-0.28505 0-0.33584-0.14958-0.55315-0.47414-0.55315-0.18062 0-0.31891 0.0621-0.42051 0.18344-0.1016 0.12136-0.14958 0.30763-0.14958 0.56163 0 0.42615 0.13547 0.74224 0.5588 0.74224 0.17216 0 0.35278-0.0593 0.44591-0.14111l-0.10442-0.23424c-0.05927 0.048-0.17216 0.0875-0.2794 0.0875zm0.11007-0.5842h-0.38947c0.0085-0.17215 0.05644-0.32738 0.22296-0.32738 0.14393 0 0.17498 0.15805 0.16651 0.32738z"/>
   <path id="path19872" d="m21.445 181.12c-0.43462 0-0.61807 0.30763-0.61807 0.76483 0 0.24271 0.03669 0.42051 0.11571 0.53904 0.0762 0.11854 0.18344 0.1778 0.32456 0.1778 0.13829 0 0.21731-0.0508 0.27376-0.13828h0.01129v0.66322h0.33584v-1.9248c-0.1016-0.0423-0.29351-0.0819-0.44309-0.0819zm-0.07902 1.1825c-0.12982 0-0.19191-0.14394-0.19191-0.4318 0-0.15805 0.01693-0.27376 0.05362-0.34432 0.03669-0.0705 0.09313-0.10724 0.16651-0.10724 0.06491 0 0.11853 0.0113 0.15804 0.0339v0.70273c-0.02822 0.0875-0.07902 0.14676-0.18627 0.14676z"/>
  </g>
  <g id="text8250" transform="translate(-15.916 16.808)" fill="#fffff0" stroke-width=".26458" style="font-variant-ligatures:none" aria-label="A ratio">
   <path id="path19875" d="m18.665 188.15 0.12136 0.44591h0.37253l-0.57574-1.9897h-0.2794l-0.57291 1.9897h0.35278l0.11571-0.44591zm-0.38947-0.29351 0.11007-0.4572 0.04798-0.31327h0.01129l0.04516 0.31045 0.11289 0.46002z"/>
   <path id="path19877" d="m20.056 187.35h-0.01129l-0.03951-0.16933h-0.25682v1.4111h0.33584v-0.94262c0.02258-0.0903 0.09313-0.16087 0.20602-0.16087 0.03669 0 0.07902 8e-3 0.12418 0.0254l0.03951-0.33302c-0.04516-0.0169-0.08749-0.0282-0.13264-0.0282-0.13829 0-0.22578 0.0931-0.26529 0.19755z"/>
   <path id="path19879" d="m20.999 187.44c0.17216 0 0.18627 0.12136 0.17216 0.31045-0.381-0.0198-0.66887 0.0931-0.66887 0.45156 0 0.23706 0.127 0.40922 0.35842 0.40922 0.16651 0 0.27094-0.079 0.33302-0.18909h0.01129l0.05362 0.17216h0.27376c-0.08467-0.27094-0.0254-0.64065-0.0254-0.96521 0-0.31044-0.11571-0.47695-0.42898-0.47695-0.2032 0-0.381 0.0423-0.49954 0.11289l0.08467 0.25117c0.08185-0.0423 0.21167-0.0762 0.33585-0.0762zm-0.14958 0.70556c0-0.16087 0.16087-0.19755 0.32738-0.1778v0.23425c-0.03387 0.0649-0.09878 0.12135-0.19473 0.12135-0.09596 0-0.13264-0.0734-0.13264-0.1778z"/>
   <path id="path19881" d="m22.108 188.63c0.11853 0 0.23424-0.031 0.31609-0.0734l-0.04233-0.26811c-0.0508 0.0226-0.08749 0.0339-0.14958 0.0339-0.10442 0-0.11007-0.096-0.11007-0.22296v-0.61524h0.27376v-0.29916h-0.27376v-0.36971l-0.33584 0.10442v0.26529h-0.15522v0.29916h0.15522v0.73942c0 0.26247 0.07902 0.4064 0.32173 0.4064z"/>
   <path id="path19883" d="m22.591 187.18v1.4111h0.33585v-1.4111zm0.16651-0.20885c0.12418 0 0.21731-0.0649 0.21731-0.18909 0-0.12135-0.09313-0.19473-0.21731-0.19473-0.12418 0-0.20602 0.0762-0.20602 0.19473 0 0.12136 0.08185 0.18909 0.20602 0.18909z"/>
   <path id="path19885" d="m24.261 187.89c0-0.44027-0.14393-0.74225-0.5588-0.74225-0.40076 0-0.55598 0.30762-0.55598 0.74225 0 0.49671 0.18344 0.74224 0.55598 0.74224 0.40358 0 0.5588-0.30198 0.5588-0.74224zm-0.76765 0c0-0.16087 0.01693-0.27376 0.05362-0.34149 0.03669-0.0677 0.08749-0.1016 0.15522-0.1016 0.0762 0 0.12982 0.0395 0.16369 0.11289 0.03104 0.0762 0.04798 0.18626 0.04798 0.3302 0 0.16369-0.01976 0.27658-0.05362 0.34431-0.03387 0.0677-0.08749 0.0988-0.15804 0.0988-0.18344 0-0.20884-0.22578-0.20884-0.44309z"/>
  </g>
  <g id="text10630" transform="translate(-15.947 33.248)" fill="#fffff0" stroke-width=".26458" style="font-variant-ligatures:none" aria-label="B ratio">
   <path id="path19888" d="m18.295 192.15c-0.16369 0-0.37253 0.0198-0.50236 0.0423v1.9473c0.11853 0.0339 0.27658 0.0423 0.42333 0.0423h0.1016c0.38664 0 0.65194-0.19192 0.65194-0.58421 0-0.26811-0.12136-0.42615-0.33302-0.47977v-0.0169c0.18062-0.0593 0.28504-0.22578 0.28504-0.46567 0-0.37253-0.25682-0.48542-0.62654-0.48542zm-0.14676 1.7074v-0.56162h0.14393c0.2032 0 0.3048 0.0734 0.3048 0.2794 0 0.18062-0.1016 0.29915-0.27094 0.29915-0.0508 0-0.14676-3e-3 -0.1778-0.0169zm0.41769-1.1402c0 0.1524-0.09031 0.24553-0.19756 0.28504-0.03387 8e-3 -0.1016 0.0141-0.13829 0.0141h-0.08185v-0.54752c0.03105-6e-3 0.08467-0.0113 0.16369-0.0113 0.16933 0 0.254 0.0875 0.254 0.25965z"/>
   <path id="path19890" d="m20.056 192.91h-0.01129l-0.03951-0.16933h-0.25682v1.4111h0.33584v-0.94262c0.02258-0.0903 0.09313-0.16087 0.20602-0.16087 0.03669 0 0.07902 8e-3 0.12418 0.0254l0.03951-0.33302c-0.04515-0.0169-0.08749-0.0282-0.13264-0.0282-0.13829 0-0.22578 0.0931-0.26529 0.19755z"/>
   <path id="path19892" d="m20.998 193c0.17216 0 0.18627 0.12136 0.17216 0.31045-0.381-0.0198-0.66887 0.0931-0.66887 0.45156 0 0.23706 0.127 0.40922 0.35842 0.40922 0.16651 0 0.27093-0.079 0.33302-0.18909h0.01129l0.05362 0.17216h0.27376c-0.08467-0.27094-0.0254-0.64065-0.0254-0.96521 0-0.31044-0.11571-0.47695-0.42898-0.47695-0.2032 0-0.381 0.0423-0.49954 0.11289l0.08467 0.25117c0.08184-0.0423 0.21167-0.0762 0.33584-0.0762zm-0.14958 0.70556c0-0.16087 0.16087-0.19755 0.32738-0.1778v0.23425c-0.03387 0.0649-0.09878 0.12135-0.19473 0.12135-0.09596 0-0.13264-0.0734-0.13264-0.1778z"/>
   <path id="path19894" d="m22.108 194.19c0.11853 0 0.23424-0.031 0.31609-0.0734l-0.04233-0.26811c-0.0508 0.0226-0.08749 0.0339-0.14958 0.0339-0.10442 0-0.11007-0.096-0.11007-0.22296v-0.61524h0.27376v-0.29916h-0.27376v-0.36971l-0.33584 0.10442v0.26529h-0.15522v0.29916h0.15522v0.73942c0 0.26247 0.07902 0.4064 0.32173 0.4064z"/>
   <path id="path19896" d="m22.59 192.74v1.4111h0.33584v-1.4111zm0.16651-0.20885c0.12418 0 0.21731-0.0649 0.21731-0.18909 0-0.12135-0.09313-0.19473-0.21731-0.19473-0.12418 0-0.20602 0.0762-0.20602 0.19473 0 0.12136 0.08185 0.18909 0.20602 0.18909z"/>
   <path id="path19898" d="m24.261 193.45c0-0.44027-0.14393-0.74225-0.5588-0.74225-0.40076 0-0.55598 0.30762-0.55598 0.74225 0 0.49671 0.18344 0.74224 0.55598 0.74224 0.40358 0 0.5588-0.30198 0.5588-0.74224zm-0.76765 0c0-0.16087 0.01693-0.27376 0.05362-0.34149 0.03669-0.0677 0.08749-0.1016 0.15522-0.1016 0.0762 0 0.12982 0.0395 0.16369 0.11289 0.03104 0.0762 0.04798 0.18626 0.04798 0.3302 0 0.16369-0.01976 0.27657-0.05362 0.34431-0.03387 0.0677-0.08749 0.0988-0.15804 0.0988-0.18344 0-0.20884-0.22578-0.20884-0.44309z"/>
  </g>
  <g id="text13604" transform="translate(-15.432 50.393)" fill="#fffff0" stroke-width=".26458" style="font-variant-ligatures:none" aria-label="C ratio">
   <path id="path19901" d="m18.147 198.73c-0.0762 0-0.14111-0.0169-0.19473-0.0508-0.17498-0.11006-0.23142-0.35842-0.23142-0.64911 0-0.23989 0.03387-0.41769 0.10442-0.53058 0.06773-0.11289 0.16933-0.16933 0.29916-0.16933 0.12136 0 0.21731 0.0197 0.29633 0.0593l0.07056-0.31326c-0.10442-0.0452-0.24836-0.0734-0.40922-0.0734-0.22296 0-0.38947 0.0818-0.50518 0.21449-0.15804 0.1778-0.2286 0.45156-0.2286 0.80998 0 0.19191 0.01693 0.3556 0.05644 0.48542 0.09031 0.31891 0.2794 0.54469 0.66887 0.54469 0.16651 0 0.34713-0.0395 0.44027-0.11853l-0.07056-0.29916c-0.07902 0.0508-0.16651 0.0903-0.29633 0.0903z"/>
   <path id="path19903" d="m19.471 197.78h-0.01129l-0.03951-0.16933h-0.25682v1.4111h0.33584v-0.94262c0.02258-0.0903 0.09313-0.16087 0.20602-0.16087 0.03669 0 0.07902 8e-3 0.12418 0.0254l0.03951-0.33302c-0.04516-0.0169-0.08749-0.0282-0.13264-0.0282-0.13829 0-0.22578 0.0931-0.26529 0.19756z"/>
   <path id="path19905" d="m20.413 197.87c0.17216 0 0.18627 0.12136 0.17216 0.31045-0.381-0.0198-0.66887 0.0931-0.66887 0.45155 0 0.23707 0.127 0.40923 0.35842 0.40923 0.16651 0 0.27093-0.079 0.33302-0.18909h0.01129l0.05362 0.17215h0.27376c-0.08467-0.27093-0.0254-0.64064-0.0254-0.9652 0-0.31044-0.11571-0.47696-0.42898-0.47696-0.2032 0-0.381 0.0423-0.49954 0.11289l0.08467 0.25118c0.08185-0.0423 0.21167-0.0762 0.33584-0.0762zm-0.14958 0.70556c0-0.16087 0.16087-0.19756 0.32738-0.1778v0.23424c-0.03387 0.0649-0.09878 0.12136-0.19473 0.12136-0.09596 0-0.13264-0.0734-0.13264-0.1778z"/>
   <path id="path19907" d="m21.522 199.06c0.11853 0 0.23424-0.0311 0.31609-0.0734l-0.04233-0.26811c-0.0508 0.0226-0.08749 0.0339-0.14958 0.0339-0.10442 0-0.11007-0.096-0.11007-0.22296v-0.61525h0.27376v-0.29915h-0.27376v-0.36972l-0.33584 0.10443v0.26529h-0.15522v0.29915h0.15522v0.73943c0 0.26246 0.07902 0.4064 0.32173 0.4064z"/>
   <path id="path19909" d="m22.005 197.61v1.4111h0.33584v-1.4111zm0.16651-0.20885c0.12418 0 0.21731-0.0649 0.21731-0.18909 0-0.12135-0.09313-0.19473-0.21731-0.19473-0.12418 0-0.20602 0.0762-0.20602 0.19473 0 0.12136 0.08184 0.18909 0.20602 0.18909z"/>
   <path id="path19911" d="m23.676 198.32c0-0.44026-0.14393-0.74224-0.5588-0.74224-0.40076 0-0.55598 0.30762-0.55598 0.74224 0 0.49672 0.18344 0.74225 0.55598 0.74225 0.40358 0 0.5588-0.30198 0.5588-0.74225zm-0.76765 0c0-0.16086 0.01693-0.27375 0.05362-0.34149 0.03669-0.0677 0.08749-0.1016 0.15522-0.1016 0.0762 0 0.12982 0.0395 0.16369 0.11289 0.03104 0.0762 0.04798 0.18627 0.04798 0.3302 0 0.16369-0.01976 0.27658-0.05362 0.34432-0.03387 0.0677-0.08749 0.0988-0.15804 0.0988-0.18344 0-0.20884-0.22577-0.20884-0.44309z"/>
  </g>
  <g id="text15870" transform="translate(-15.735 67.802)" fill="#fffff0" stroke-width=".26458" style="font-variant-ligatures:none" aria-label="D ratio">
   <path id="path19914" d="m18.833 202.6c0-0.6096-0.2032-0.99907-0.81562-0.99907-0.16369 0-0.34149 6e-3 -0.4826 0.0282v1.9784c0.02258 6e-3 0.05362 8e-3 0.09596 0.0113 0.10724 8e-3 0.24553 0.0169 0.35842 0.0169 0.62089 0 0.84385-0.41769 0.84385-1.0358zm-0.37253-6e-3c0 0.35842-0.06773 0.71402-0.42051 0.71402-0.04515 0-0.11571 3e-3 -0.14958-0.0113v-1.3603c0.03669-8e-3 0.11289-8e-3 0.16369-8e-3 0.34431 0 0.4064 0.31892 0.4064 0.66605z"/>
   <path id="path19916" d="m19.891 202.36h-0.01129l-0.03951-0.16934h-0.25682v1.4111h0.33584v-0.94263c0.02258-0.0903 0.09313-0.16086 0.20602-0.16086 0.03669 0 0.07902 8e-3 0.12418 0.0254l0.03951-0.33303c-0.04516-0.0169-0.08749-0.0282-0.13264-0.0282-0.13829 0-0.22578 0.0931-0.26529 0.19756z"/>
   <path id="path19918" d="m20.834 202.45c0.17216 0 0.18627 0.12135 0.17216 0.31044-0.381-0.0198-0.66887 0.0931-0.66887 0.45156 0 0.23707 0.127 0.40922 0.35842 0.40922 0.16651 0 0.27093-0.079 0.33302-0.18909h0.01129l0.05362 0.17216h0.27376c-0.08467-0.27093-0.0254-0.64065-0.0254-0.9652 0-0.31045-0.11571-0.47696-0.42898-0.47696-0.2032 0-0.381 0.0423-0.49954 0.11289l0.08467 0.25118c0.08185-0.0423 0.21167-0.0762 0.33584-0.0762zm-0.14958 0.70556c0-0.16087 0.16087-0.19756 0.32738-0.1778v0.23424c-0.03387 0.0649-0.09878 0.12136-0.19473 0.12136-0.09596 0-0.13264-0.0734-0.13264-0.1778z"/>
   <path id="path19920" d="m21.943 203.64c0.11853 0 0.23424-0.031 0.31609-0.0734l-0.04233-0.26811c-0.0508 0.0226-0.08749 0.0339-0.14958 0.0339-0.10442 0-0.11007-0.0959-0.11007-0.22295v-0.61525h0.27376v-0.29916h-0.27376v-0.36971l-0.33584 0.10442v0.26529h-0.15523v0.29916h0.15522v0.73942c0 0.26247 0.07902 0.4064 0.32173 0.4064z"/>
   <path id="path19922" d="m22.425 202.19v1.4111h0.33584v-1.4111zm0.16651-0.20884c0.12418 0 0.21731-0.0649 0.21731-0.18909 0-0.12136-0.09313-0.19474-0.21731-0.19474-0.12418 0-0.20602 0.0762-0.20602 0.19474 0 0.12135 0.08184 0.18909 0.20602 0.18909z"/>
   <path id="path19924" d="m24.096 202.9c0-0.44027-0.14393-0.74225-0.5588-0.74225-0.40076 0-0.55598 0.30763-0.55598 0.74225 0 0.49671 0.18344 0.74225 0.55598 0.74225 0.40358 0 0.5588-0.30198 0.5588-0.74225zm-0.76765 0c0-0.16087 0.01693-0.27376 0.05362-0.34149 0.03669-0.0677 0.08749-0.1016 0.15522-0.1016 0.0762 0 0.12982 0.0395 0.16369 0.11289 0.03104 0.0762 0.04798 0.18627 0.04798 0.3302 0 0.16369-0.01976 0.27658-0.05362 0.34431-0.03387 0.0677-0.08749 0.0988-0.15804 0.0988-0.18344 0-0.20884-0.22578-0.20884-0.44309z"/>
  </g>
 </g>
 <g id="layer2" display="none">
  <circle id="circle918" cx="5.08" cy="49.3" r="4" fill="#00f" fill-rule="evenodd" stroke-width=".26458"/>
  <circle id="circle922" cx="5.08" cy="27" r="4" fill="#0f0" fill-rule="evenodd" stroke-width=".26458"/>
  <circle id="circle9581" cx="5.08" cy="40.8" r="3" fill-rule="evenodd" stroke-width=".26458"/>
  <circle id="circle18954" cx="5.08" cy="18.25" r="4" fill-rule="evenodd" stroke-width=".26458"/>
  <circle id="circle1002" cx="5.08" cy="71.3" r="4" fill="#00f" fill-rule="evenodd" stroke-width=".26458"/>
  <circle id="circle1004" cx="5.08" cy="62.8" r="3" fill-rule="evenodd" stroke-width=".26458"/>
  <circle id="circle1024" cx="5.08" cy="93.3" r="4" fill="#00f" fill-rule="evenodd" stroke-width=".26458"/>
  <circle id="circle1026" cx="5.08" cy="84.8" r="3" fill-rule="evenodd" stroke-width=".26458"/>
  <circle id="circle1046" cx="5.08" cy="115.3" r="4" fill="#00f" fill-rule="evenodd" stroke-width=".26458"/>
  <circle id="circle1048" cx="5.08" cy="106.8" r="3" fill-rule="evenodd" stroke-width=".26458"/>
  <circle id="path58" cx="8.2" cy="38" r=".816" display="inline" fill="#f00" stroke-width=".265"/>
  <circle id="circle1846" cx="8.2" cy="60" r=".816" display="inline" fill="#f00" stroke-width=".265"/>
  <circle id="circle1848" cx="8.2" cy="82" r=".816" display="inline" fill="#f00" stroke-width=".265"/>
  <circle id="circle1852" cx="8.2" cy="104" r=".816" display="inline" fill="#f00" stroke-width=".265"/>
 </g>
</svg>
