<?xml version="1.0" encoding="UTF-8"?>
<svg id="svg8" width="10.16mm" height="128.5mm" version="1.1" viewBox="0 0 10.16 128.5" xmlns="http://www.w3.org/2000/svg" xmlns:cc="http://creativecommons.org/ns#" xmlns:dc="http://purl.org/dc/elements/1.1/" xmlns:rdf="http://www.w3.org/1999/02/22-rdf-syntax-ns#">
 <metadata id="metadata5">
  <rdf:RDF>
   <cc:Work rdf:about="">
    <dc:format>image/svg+xml</dc:format>
    <dc:type rdf:resource="http://purl.org/dc/dcmitype/StillImage"/>
   </cc:Work>
  </rdf:RDF>
 </metadata>
 <g id="layer1" transform="translate(0,-168.5)">
  <rect id="rect838" x="-5.5511e-17" y="168.5" width="10.16" height="128.5" fill="#bbbbb0"/>
  <text id="text64" x="2.0529213" y="233.73691" font-family="'PT Sans Narrow'" font-size="2.8222px" font-stretch="condensed" font-weight="bold" stroke-width=".26458" style="line-height:1.25" xml:space="preserve"><tspan id="tspan62" x="2.0529213" y="233.73691" stroke-width=".26458"/></text>
  <g id="text2569" transform="translate(0 -.83024)" stroke-width=".26458" aria-label="GRANDE">
   <path id="path2571" d="m1.6964 292.53c0.15522 0 0.28222-0.0564 0.35807-0.13405v-0.48684h-0.381v0.12171h0.24518v0.30163c-0.045861 0.0423-0.12524 0.067-0.20814 0.067-0.24694 0-0.38276-0.18168-0.38276-0.47272 0-0.28751 0.14817-0.46567 0.381-0.46567 0.11642 0 0.1905 0.0441 0.24871 0.10407l0.081139-0.0917c-0.067028-0.0723-0.17286-0.14287-0.33338-0.14287-0.30692 0-0.53093 0.22754-0.53093 0.59972 0 0.37747 0.21696 0.59972 0.52211 0.59972z"/>
   <path id="path2573" d="m2.7 292.51h0.14817v-0.48859h0.20814l0.27869 0.48859h0.16757l-0.29457-0.50447c0.15699-0.0406 0.25929-0.1464 0.25929-0.32632 0-0.24165-0.16933-0.32632-0.40569-0.32632h-0.3616zm0.14817-0.60854v-0.42862h0.19226c0.17992 0 0.27869 0.0547 0.27869 0.20637 0 0.14817-0.098778 0.22225-0.27869 0.22225z"/>
   <path id="path2575" d="m4.2699 291.86c0.04057-0.12876 0.077611-0.25576 0.11289-0.38982h0.00706c0.037042 0.13406 0.074083 0.26106 0.11642 0.38982l0.054681 0.17463h-0.34573zm-0.35454 0.64558h0.14993l0.11112-0.35101h0.42157l0.10936 0.35101h0.15699l-0.38982-1.1571h-0.16933z"/>
   <path id="path2577" d="m5.3988 292.51h0.13935v-0.60854c0-0.11994-0.010583-0.24518-0.019403-0.3616h0.00706c0.038806 0.0847 0.081139 0.1711 0.12524 0.24871l0.41275 0.72143h0.15875v-1.1571h-0.13935v0.60325c0 0.11995 0.010583 0.24695 0.019403 0.36689h-0.00706c-0.040569-0.0847-0.081139-0.1711-0.12524-0.24871l-0.41275-0.72143h-0.15875z"/>
   <path id="path2579" d="m6.9087 292.51h0.29633c0.34925 0 0.53975-0.21519 0.53975-0.58384 0-0.36689-0.1905-0.57327-0.54681-0.57327h-0.28928zm0.14817-0.1217v-0.9137h0.13053c0.26988 0 0.40393 0.16051 0.40393 0.45156 0 0.2928-0.13406 0.46214-0.40393 0.46214z"/>
   <path id="path2581" d="m8.3657 292.51h0.68439v-0.12523h-0.53622v-0.41981h0.43744v-0.12523h-0.43744v-0.3616h0.51858v-0.12524h-0.66675z"/>
  </g>
  <text id="text925" x="7.705914" y="247.28606" font-family="'PT Sans Narrow'" font-size="2.8222px" font-stretch="condensed" font-weight="bold" stroke-width=".26458" text-align="center" text-anchor="middle" style="line-height:1.25" xml:space="preserve"><tspan id="tspan923" x="7.705914" y="247.28606" stroke-width=".26458"/></text>
  <rect id="rect902" x=".7125" y="179.63" width="8.735" height="27.535" rx="1" ry="1" fill="none" stroke="#555d50" stroke-width=".265"/>
  <rect id="rect908" x=".68" y="198.8" width="8.8" height="1" fill="#555d50"/>
  <rect id="rect1114" x=".7125" y="269.03" width="8.735" height="19.335" rx="1" ry="1" fill="none" stroke="#555d50" stroke-width=".265"/>
  <rect id="rect19628" x=".68" y="280" width="8.8" height="8.4" rx="1" ry="1" fill="#555d50"/>
  <rect id="rect19630" x=".68" y="198.8" width="8.8" height="8.4" rx="1" ry="1" fill="#555d50"/>
  <rect id="rect20112" x=".68" y="280" width="8.8" height="1" fill="#555d50"/>
  <rect id="rect20114" x=".7125" y="209.43" width="8.735" height="27.535" rx="1" ry="1" fill="none" stroke="#555d50" stroke-width=".265"/>
  <rect id="rect20116" x=".68" y="228.6" width="8.8" height="1" fill="#555d50"/>
  <rect id="rect20118" x=".68" y="228.6" width="8.8" height="8.4" rx="1" ry="1" fill="#555d50"/>
  <rect id="rect20130" x=".7125" y="239.23" width="8.735" height="27.535" rx="1" ry="1" fill="none" stroke="#555d50" stroke-width=".265"/>
  <rect id="rect20132" x=".68" y="258.4" width="8.8" height="1" fill="#555d50"/>
  <rect id="rect20134" x=".68" y="258.4" width="8.8" height="8.4" rx="1" ry="1" fill="#555d50"/>
  <g id="text8076" stroke-width=".26458" style="font-variant-ligatures:none" aria-label="Not">
   <path id="path1071" d="m3.786 270.61 0.56162 0.98496h0.27376v-1.9897h-0.33585v0.98495l0.045156 0.33585h-0.016934l-0.12136-0.34149-0.56727-0.99343h-0.27376v1.9897h0.33585v-0.97649l-0.045156-0.34149h0.014111z"/>
   <path id="path1073" d="m5.9337 270.87c0-0.44027-0.14393-0.74225-0.5588-0.74225-0.40076 0-0.55598 0.30763-0.55598 0.74225 0 0.49671 0.18344 0.74225 0.55598 0.74225 0.40358 0 0.5588-0.30198 0.5588-0.74225zm-0.76765 0c0-0.16087 0.016933-0.27376 0.053622-0.34149 0.036689-0.0677 0.087489-0.1016 0.15522-0.1016 0.0762 0 0.12982 0.0395 0.16369 0.11289 0.031045 0.0762 0.047978 0.18627 0.047978 0.3302 0 0.16369-0.019756 0.27658-0.053622 0.34431-0.033867 0.0677-0.087489 0.0988-0.15804 0.0988-0.18344 0-0.20885-0.22578-0.20885-0.44309z"/>
   <path id="path1075" d="m6.4925 271.61c0.11853 0 0.23425-0.031 0.31609-0.0734l-0.042334-0.26812c-0.0508 0.0226-0.087489 0.0339-0.14958 0.0339-0.10442 0-0.11007-0.096-0.11007-0.22296v-0.61524h0.27376v-0.29916h-0.27376v-0.36971l-0.33585 0.10442v0.26529h-0.15522v0.29916h0.15522v0.73942c0 0.26247 0.079022 0.4064 0.32173 0.4064z"/>
  </g>
  <g id="text32092" transform="translate(-12.297 .23671)" stroke-width=".26458" style="font-variant-ligatures:none" aria-label="Logic">
   <path id="path40894" d="m14.759 177.27v-0.57291h-1.215v-2.8843h-0.6223v3.4572z"/>
   <path id="path40896" d="m16.74 176.04c0-0.77047-0.25188-1.2989-0.9779-1.2989-0.70132 0-0.97296 0.53834-0.97296 1.2989 0 0.86924 0.32103 1.2989 0.97296 1.2989 0.70626 0 0.9779-0.52846 0.9779-1.2989zm-1.3434 0c0-0.28152 0.02963-0.47908 0.09384-0.59761s0.15311-0.1778 0.27164-0.1778c0.13335 0 0.22719 0.0692 0.28646 0.19756 0.05433 0.13335 0.08396 0.32596 0.08396 0.57785 0 0.28645-0.03457 0.48401-0.09384 0.60254-0.05927 0.11854-0.15311 0.17287-0.27658 0.17287-0.32103 0-0.36548-0.39512-0.36548-0.77541z"/>
   <path id="path40898" d="m18.024 174.75c-0.75071 0-1.0372 0.52847-1.0372 1.3384 0 0.42474 0.0642 0.73589 0.19262 0.93345 0.12841 0.19755 0.32597 0.29139 0.58773 0.29139 0.23213 0 0.38523-0.0593 0.48401-0.19755h0.01482v0.13335c0 0.3556-0.09878 0.54822-0.4445 0.54822-0.22719 0-0.3803-0.0593-0.5334-0.12348l-0.12347 0.49883c0.18274 0.10866 0.40993 0.14817 0.74577 0.14817 0.63218 0 0.93345-0.3803 0.93345-1.047v-2.3806c-0.2025-0.0889-0.50871-0.14323-0.81986-0.14323zm0.23213 0.57786v1.2347c-0.04939 0.14817-0.13829 0.24695-0.32597 0.24695-0.22719 0-0.33585-0.24695-0.33585-0.74578 0-0.28645 0.02963-0.49389 0.09878-0.61242 0.06914-0.11853 0.16298-0.1778 0.28646-0.1778 0.11359 0 0.19756 0.0198 0.27658 0.0543z"/>
   <path id="path40900" d="m19.313 174.8v2.4694h0.58773v-2.4694zm0.2914-0.36548c0.21731 0 0.3803-0.11359 0.3803-0.3309 0-0.21237-0.16298-0.34079-0.3803-0.34079-0.21731 0-0.36054 0.13335-0.36054 0.34079 0 0.21237 0.14323 0.3309 0.36054 0.3309z"/>
   <path id="path40902" d="m21.338 176.8c-0.35066 0-0.4445-0.3803-0.4445-0.76059 0-0.2667 0.03457-0.45932 0.10372-0.57785 0.06915-0.11854 0.17286-0.18274 0.31115-0.18274 0.16298 0 0.24694 0.0346 0.36548 0.0889l0.13829-0.48895c-0.16792-0.0889-0.34078-0.13829-0.61242-0.13829-0.68651 0-0.9137 0.55315-0.9137 1.2989 0 0.72602 0.18768 1.2989 0.90382 1.2989 0.25188 0 0.49389-0.079 0.64206-0.19756l-0.12347-0.45438c-0.10372 0.0692-0.20743 0.1136-0.37042 0.1136z"/>
  </g>
  <g id="g1537" transform="translate(.42124)" stroke-width=".26458">
   <path id="path15365" d="m3.6682 181.73 0.12136 0.44591h0.37254l-0.57574-1.9897h-0.2794l-0.57291 1.9897h0.35278l0.11571-0.44591zm-0.38947-0.29351 0.11007-0.45721 0.04798-0.31326h0.01129l0.04516 0.31044 0.11289 0.46003z" style="font-variant-ligatures:none"/>
   <path id="path15367" d="m4.9607 180.73c-0.18627 0-0.29916 0.0875-0.36689 0.19755h-0.0085l-0.03951-0.16368h-0.26811v1.4111h0.33585v-0.97931c0.0254-0.079 0.09596-0.15805 0.2032-0.15805 0.14111 0 0.16087 0.11289 0.16087 0.2794v0.85796h0.33584v-0.9398c0-0.29351-0.06773-0.50518-0.35278-0.50518z" style="font-variant-ligatures:none"/>
   <path id="path15369" d="m6.0219 180.73c-0.39793 0-0.52776 0.3302-0.52776 0.75918 0 0.254 0.03951 0.43745 0.12136 0.55034 0.08184 0.11288 0.19473 0.16933 0.33867 0.16933 0.15804 0 0.27094-0.0649 0.33585-0.19756h0.01129l0.04516 0.16369h0.23707c-0.0254-0.17215-0.0254-0.31326-0.0254-0.49953v-1.4788h-0.33585v0.57009c-0.06209-0.0254-0.11289-0.0367-0.20038-0.0367zm-0.18062 0.77047c0-0.17216 0.01693-0.29351 0.05645-0.36125 0.03669-0.0677 0.09313-0.1016 0.16933-0.1016 0.07338 0 0.11571 0.0141 0.15522 0.048v0.66605c-0.02822 0.0903-0.07902 0.14958-0.18909 0.14958-0.16651 0-0.19191-0.2032-0.19191-0.40076z" style="font-variant-ligatures:none"/>
  </g>
  <g id="g1448" transform="translate(.37312)" stroke-width=".26458">
   <path id="path15374" d="m4.951 211c0-0.55033-0.15522-1.0273-0.69991-1.0273-0.5334 0-0.69709 0.44873-0.69709 1.0273 0 0.55598 0.14676 1.0273 0.69709 1.0273 0.52776 0 0.69991-0.44873 0.69991-1.0273zm-1.0245 0c0-0.46567 0.10724-0.69991 0.32456-0.69991 0.06209 0 0.11289 0.0198 0.15522 0.0564 0.13547 0.12136 0.17216 0.381 0.17216 0.64347 0 0.24553-0.02822 0.42333-0.08185 0.5334-0.05645 0.11289-0.13829 0.16651-0.24553 0.16651-0.06209 0-0.11289-0.0169-0.1524-0.0536-0.14111-0.12136-0.17216-0.37536-0.17216-0.64629z" style="font-variant-ligatures:none"/>
   <path id="path15376" d="m5.4618 210.75h-0.01129l-0.03951-0.16933h-0.25682v1.4111h0.33585v-0.94262c0.02258-0.0903 0.09313-0.16087 0.20602-0.16087 0.03669 0 0.07902 8e-3 0.12418 0.0254l0.03951-0.33302c-0.04516-0.0169-0.08749-0.0282-0.13264-0.0282-0.13829 0-0.22578 0.0931-0.26529 0.19756z" style="font-variant-ligatures:none"/>
  </g>
  <g id="g993" transform="translate(1.0583)" stroke-width=".26458">
   <path id="path15381" d="m2.0926 240.76-0.4826 1.0047h0.39229l0.26529-0.60678 0.05645-0.22014 0.05927 0.22014 0.26529 0.60678h0.41487l-0.47413-1.0245 0.45156-0.95109h-0.38382l-0.23989 0.56444-0.0508 0.21449-0.05362-0.21449-0.2286-0.56444h-0.42898z" style="font-variant-ligatures:none"/>
   <path id="path15383" d="m4.1556 241.06c0-0.44027-0.14393-0.74225-0.5588-0.74225-0.40076 0-0.55598 0.30763-0.55598 0.74225 0 0.49671 0.18344 0.74225 0.55598 0.74225 0.40358 0 0.5588-0.30198 0.5588-0.74225zm-0.76765 0c0-0.16087 0.01693-0.27376 0.05362-0.34149 0.03669-0.0677 0.08749-0.1016 0.15522-0.1016 0.0762 0 0.12982 0.0395 0.16369 0.11289 0.03104 0.0762 0.04798 0.18627 0.04798 0.3302 0 0.16369-0.01976 0.27658-0.05362 0.34431-0.03387 0.0677-0.08749 0.0988-0.15804 0.0988-0.18344 0-0.20884-0.22578-0.20884-0.44309z" style="font-variant-ligatures:none"/>
   <path id="path15385" d="m4.6552 240.53h-0.01129l-0.03951-0.16934h-0.25682v1.4111h0.33584v-0.94263c0.02258-0.0903 0.09313-0.16087 0.20602-0.16087 0.03669 0 0.07902 8e-3 0.12418 0.0254l0.03951-0.33302c-0.04516-0.0169-0.08749-0.0282-0.13264-0.0282-0.13829 0-0.22578 0.0931-0.26529 0.19756z" style="font-variant-ligatures:none"/>
  </g>
 </g>
 <g id="layer2" display="none">
  <circle id="circle920" cx="5.08" cy="34.5" r="4" fill="#00f" fill-rule="evenodd" stroke-width=".26458"/>
  <circle id="circle922" cx="5.08" cy="17.9" r="4" fill="#0f0" fill-rule="evenodd" stroke-width=".26458"/>
  <circle id="circle1444" cx="5.08" cy="26.1" r="4" fill="#0f0" fill-rule="evenodd" stroke-width=".26458"/>
  <circle id="circle1116" cx="5.08" cy="115.7" r="4" fill="#00f" fill-rule="evenodd" stroke-width=".26458"/>
  <circle id="circle1118" cx="5.08" cy="107.3" r="4" fill="#0f0" fill-rule="evenodd" stroke-width=".26458"/>
  <circle id="circle20120" cx="5.08" cy="64.3" r="4" fill="#00f" fill-rule="evenodd" stroke-width=".26458"/>
  <circle id="circle20122" cx="5.08" cy="47.7" r="4" fill="#0f0" fill-rule="evenodd" stroke-width=".26458"/>
  <circle id="circle20124" cx="5.08" cy="55.9" r="4" fill="#0f0" fill-rule="evenodd" stroke-width=".26458"/>
  <circle id="circle20136" cx="5.08" cy="94.1" r="4" fill="#00f" fill-rule="evenodd" stroke-width=".26458"/>
  <circle id="circle20138" cx="5.08" cy="77.5" r="4" fill="#0f0" fill-rule="evenodd" stroke-width=".26458"/>
  <circle id="circle20140" cx="5.08" cy="85.7" r="4" fill="#0f0" fill-rule="evenodd" stroke-width=".26458"/>
  <circle id="path840" cx="7.68" cy="72.5" r=".975" display="inline" fill="#00b8ff" opacity=".994" stop-color="#000000" stroke="#454545" stroke-dashoffset="9.4488" stroke-width=".15"/>
 </g>
</svg>
