<?xml version="1.0" encoding="UTF-8"?>
<svg id="svg8" width="10.16mm" height="128.5mm" version="1.1" viewBox="0 0 10.16 128.5" xmlns="http://www.w3.org/2000/svg" xmlns:cc="http://creativecommons.org/ns#" xmlns:dc="http://purl.org/dc/elements/1.1/" xmlns:rdf="http://www.w3.org/1999/02/22-rdf-syntax-ns#">
 <metadata id="metadata5">
  <rdf:RDF>
   <cc:Work rdf:about="">
    <dc:format>image/svg+xml</dc:format>
    <dc:type rdf:resource="http://purl.org/dc/dcmitype/StillImage"/>
    <dc:title/>
   </cc:Work>
  </rdf:RDF>
 </metadata>
 <g id="layer1" transform="translate(0,-168.5)">
  <rect id="rect838" x="-5.5511e-17" y="168.5" width="10.16" height="128.5" fill="#bbbbb0"/>
  <text id="text64" x="2.0529213" y="233.73691" font-family="'PT Sans Narrow'" font-size="2.8222px" font-stretch="condensed" font-weight="bold" stroke-width=".26458" style="line-height:1.25" xml:space="preserve"><tspan id="tspan62" x="2.0529213" y="233.73691" stroke-width=".26458"/></text>
  <g id="text2569" transform="translate(0 -.83024)" stroke-width=".26458" aria-label="GRANDE">
   <path id="path2571" d="m1.6964 292.53c0.15522 0 0.28222-0.0564 0.35807-0.13405v-0.48684h-0.381v0.12171h0.24518v0.30163c-0.045861 0.0423-0.12524 0.067-0.20814 0.067-0.24694 0-0.38276-0.18168-0.38276-0.47272 0-0.28751 0.14817-0.46567 0.381-0.46567 0.11642 0 0.1905 0.0441 0.24871 0.10407l0.081139-0.0917c-0.067028-0.0723-0.17286-0.14287-0.33338-0.14287-0.30692 0-0.53093 0.22754-0.53093 0.59972 0 0.37747 0.21696 0.59972 0.52211 0.59972z"/>
   <path id="path2573" d="m2.7 292.51h0.14817v-0.48859h0.20814l0.27869 0.48859h0.16757l-0.29457-0.50447c0.15699-0.0406 0.25929-0.1464 0.25929-0.32632 0-0.24165-0.16933-0.32632-0.40569-0.32632h-0.3616zm0.14817-0.60854v-0.42862h0.19226c0.17992 0 0.27869 0.0547 0.27869 0.20637 0 0.14817-0.098778 0.22225-0.27869 0.22225z"/>
   <path id="path2575" d="m4.2699 291.86c0.04057-0.12876 0.077611-0.25576 0.11289-0.38982h0.00706c0.037042 0.13406 0.074083 0.26106 0.11642 0.38982l0.054681 0.17463h-0.34573zm-0.35454 0.64558h0.14993l0.11112-0.35101h0.42157l0.10936 0.35101h0.15699l-0.38982-1.1571h-0.16933z"/>
   <path id="path2577" d="m5.3988 292.51h0.13935v-0.60854c0-0.11994-0.010583-0.24518-0.019403-0.3616h0.00706c0.038806 0.0847 0.081139 0.1711 0.12524 0.24871l0.41275 0.72143h0.15875v-1.1571h-0.13935v0.60325c0 0.11995 0.010583 0.24695 0.019403 0.36689h-0.00706c-0.040569-0.0847-0.081139-0.1711-0.12524-0.24871l-0.41275-0.72143h-0.15875z"/>
   <path id="path2579" d="m6.9087 292.51h0.29633c0.34925 0 0.53975-0.21519 0.53975-0.58384 0-0.36689-0.1905-0.57327-0.54681-0.57327h-0.28928zm0.14817-0.1217v-0.9137h0.13053c0.26988 0 0.40393 0.16051 0.40393 0.45156 0 0.2928-0.13406 0.46214-0.40393 0.46214z"/>
   <path id="path2581" d="m8.3657 292.51h0.68439v-0.12523h-0.53622v-0.41981h0.43744v-0.12523h-0.43744v-0.3616h0.51858v-0.12524h-0.66675z"/>
  </g>
  <text id="text925" x="7.705914" y="247.28606" font-family="'PT Sans Narrow'" font-size="2.8222px" font-stretch="condensed" font-weight="bold" stroke-width=".26458" text-align="center" text-anchor="middle" style="line-height:1.25" xml:space="preserve"><tspan id="tspan923" x="7.705914" y="247.28606" stroke-width=".26458"/></text>
  <rect id="rect1277" x=".68" y="274.6" width="8.8" height="13.8" rx="1" ry="1" fill="#555d50" stroke-width=".26458"/>
  <rect id="rect2148" x=".71229" y="179.63" width="8.7354" height="92.735" rx="1" ry="1" fill="none" stroke="#555d50" stroke-width=".26458"/>
  <path id="path73074" d="m7.9696 184.71v0.29915h0.95956v-0.29915h-0.31609v-1.7103h-0.19756l-0.54469 0.53057 0.15522 0.18909 0.18627-0.14393 0.11571-0.16651-0.03669 0.19191v1.1091z" stroke-width=".26458" style="font-variant-ligatures:none"/>
  <path id="path73076" d="m7.9005 194.41 0.12982 0.24553c0.05644-0.0508 0.16369-0.11007 0.26811-0.11007 0.15804 0 0.23424 0.10725 0.2286 0.26529 0.0028 0.0649-0.0056 0.13265-0.0254 0.20603-0.04516 0.16369-0.11571 0.31609-0.19191 0.45438-0.11853 0.20602-0.25965 0.41204-0.40076 0.58702v0.19473h0.9906v-0.29915h-0.43745l-0.16933 0.0423v-0.0141l0.12418-0.11571c0.10724-0.14394 0.21731-0.3302 0.29916-0.51365 0.0762-0.16651 0.1524-0.37535 0.1524-0.60113 0-0.0847-0.01411-0.15805-0.03669-0.22296-0.06773-0.17216-0.20884-0.29069-0.44027-0.29069-0.22296 0-0.37253 0.0706-0.49107 0.17216z" stroke-width=".26458" style="font-variant-ligatures:none"/>
  <path id="path73078" d="m7.9908 207.14-0.09031 0.28223c0.08467 0.0536 0.26247 0.0875 0.40358 0.0875 0.08184 0 0.15804-0.0113 0.23142-0.0395 0.2286-0.0818 0.36407-0.29633 0.36407-0.61242 0-0.0903-0.01129-0.17216-0.03387-0.23989-0.05362-0.16651-0.16933-0.29916-0.36689-0.31609l-0.10442 0.0169v-0.0141l0.10442-0.0762 0.32738-0.5334v-0.20038h-0.90311v0.29916h0.38664l0.18627-0.0254-0.13547 0.127-0.2794 0.47413v0.19192h0.16651c0.20884 0 0.31609 0.10724 0.31609 0.31891 0 0.18909-0.09596 0.3302-0.28222 0.3302-0.12136 0-0.21167-0.0282-0.29069-0.0706z" stroke-width=".26458" style="font-variant-ligatures:none"/>
  <path id="path73080" d="m9.0322 218.19v-0.28787h-0.24836v-1.1515h-0.29351l-0.72249 1.2305v0.20885h0.69709v0.55033h0.31891v-0.55033zm-0.56727-0.72531v0.43744h-0.25682l-0.14393 0.0226 0.11289-0.10725 0.22296-0.37817 0.08467-0.22861h0.01129z" stroke-width=".26458" style="font-variant-ligatures:none"/>
  <path id="path73082" d="m8.4014 228.71-0.09313 0.0113v-0.40358h0.5334v-0.32738h-0.82127v1.0301l0.18344-0.0113c0.23424 0 0.36124 0.1016 0.36124 0.33584 0 0.20603-0.10724 0.35278-0.31044 0.35278-0.11007 0-0.20038-0.0169-0.26811-0.0536l-0.08749 0.28504c0.08467 0.0452 0.23989 0.0762 0.37253 0.0762 0.09031 0 0.17216-0.0141 0.25118-0.0423 0.23424-0.0847 0.37818-0.3048 0.37818-0.63218 0-0.3556-0.17216-0.60678-0.49954-0.62089z" stroke-width=".26458" style="font-variant-ligatures:none"/>
  <path id="path73084" d="m8.1841 240.17c0.06491-0.32738 0.26811-0.59267 0.5842-0.67451l-0.08467-0.27376c-0.11289 0.0254-0.21731 0.0706-0.31891 0.13829-0.32456 0.21731-0.52211 0.62089-0.52211 1.1684 0 0.12983 0.01411 0.24272 0.04233 0.33867 0.07056 0.23707 0.2286 0.40922 0.52776 0.40922 0.07902 0 0.14958-0.0141 0.21731-0.0452 0.2032-0.0903 0.32738-0.30762 0.32738-0.60678 0-0.1016-0.01411-0.18909-0.03669-0.26529-0.05927-0.19191-0.19191-0.34149-0.43462-0.34149-0.14958 0-0.24271 0.0677-0.30198 0.1524zm0.22013 0.80716c-0.04233 0-0.07902-8e-3 -0.10724-0.031-0.08749-0.0621-0.12982-0.18909-0.12982-0.34149v-0.0621c0-0.0226 0-0.0423 0.0028-0.0649 0.03104-0.0818 0.11289-0.16086 0.2286-0.16086 0.18062 0 0.23425 0.12982 0.23425 0.32738 0 0.18062-0.07056 0.33302-0.2286 0.33302z" stroke-width=".26458" style="font-variant-ligatures:none"/>
  <path id="path73086" d="m7.9668 252.49h0.32738l0.64065-1.8683v-0.10725h-1.0696v0.32174h0.59549l0.14111-0.0282-0.1016 0.13829z" stroke-width=".26458" style="font-variant-ligatures:none"/>
  <path id="path73088" d="m8.6512 262.7c0.13829-0.11853 0.23989-0.25118 0.23989-0.49671 0-0.29634-0.18909-0.47696-0.47978-0.47696-0.31609 0-0.50236 0.20885-0.50236 0.52211 0 0.23989 0.09878 0.37818 0.23707 0.48543-0.15522 0.11571-0.2794 0.26811-0.2794 0.5334 0 0.0818 0.01129 0.15522 0.03669 0.21731 0.07056 0.18062 0.23989 0.29633 0.49107 0.29633 0.0762 0 0.14676-0.0113 0.21449-0.0367 0.19191-0.0706 0.32456-0.24272 0.32456-0.50801 0-0.27375-0.11007-0.41486-0.28222-0.53622zm-0.25118 0.78176c-0.14958 0-0.22578-0.127-0.22578-0.2794 0-0.15805 0.06773-0.26247 0.17498-0.34431 0.11571 0.0903 0.25965 0.17497 0.25965 0.37817 0 0.1524-0.06773 0.24554-0.20885 0.24554zm0.0085-1.4563c0.11571 0 0.1778 0.11571 0.1778 0.24271 0 0.14958-0.05645 0.23424-0.12982 0.32173-0.11289-0.0677-0.22578-0.1524-0.22578-0.33584 0-0.11854 0.05362-0.2286 0.1778-0.2286z" stroke-width=".26458" style="font-variant-ligatures:none"/>
  <rect id="rect884" x=".71229" y="274.63" width="8.7354" height="13.735" rx="1" ry="1" fill="none" stroke="#555d50" stroke-width=".26458"/>
  <g id="text2970" transform="translate(-11.14 1.0681)" fill="#fffff0" stroke-width=".26458" style="font-variant-ligatures:none" aria-label="Poly Out">
   <path id="path4860" d="m12.541 274.94c-0.16369 0-0.33585 0.0197-0.46567 0.048v1.9558h0.3556v-0.68016c0.03669 0.0113 0.09878 0.0113 0.14676 0.0113h0.03669c0.41204 0 0.62936-0.25964 0.62936-0.68298 0-0.46002-0.25118-0.65193-0.70274-0.65193zm0.3302 0.64911c0 0.23142-0.09031 0.36971-0.31327 0.36971-0.02258 0-0.11289-8e-3 -0.127-0.0141v-0.67451c0.03669-8e-3 0.08467-0.0141 0.14393-0.0141 0.20038 0 0.29634 0.127 0.29634 0.33302z"/>
   <path id="path4862" d="m14.395 276.24c0-0.44027-0.14393-0.74224-0.5588-0.74224-0.40076 0-0.55598 0.30762-0.55598 0.74224 0 0.49671 0.18344 0.74225 0.55598 0.74225 0.40358 0 0.5588-0.30198 0.5588-0.74225zm-0.76765 0c0-0.16086 0.01693-0.27375 0.05362-0.34149 0.03669-0.0677 0.08749-0.1016 0.15522-0.1016 0.0762 0 0.12982 0.0395 0.16369 0.11289 0.03104 0.0762 0.04798 0.18627 0.04798 0.3302 0 0.16369-0.01976 0.27658-0.05362 0.34431-0.03387 0.0677-0.08749 0.0988-0.15804 0.0988-0.18344 0-0.20884-0.22578-0.20884-0.44309z"/>
   <path id="path4864" d="m14.875 276.98c0.09313 0 0.2286-0.0254 0.28222-0.0621l-0.03104-0.27094c-0.03951 0.0169-0.07056 0.0254-0.11289 0.0254-0.07902 0-0.08467-0.0847-0.08467-0.18344v-1.5184h-0.33585v1.699c0 0.21449 0.07902 0.31045 0.28222 0.31045z"/>
   <path id="path4866" d="m15.725 276.33-0.19756-0.79305h-0.40358l0.49107 1.4111c-0.02822 0.14393-0.08184 0.31327-0.24553 0.24836l-0.05644 0.28786c0.0508 0.031 0.127 0.0423 0.20884 0.0423 0.13264 0 0.20038-0.0903 0.254-0.19191 0.0762-0.14958 0.12418-0.33303 0.18062-0.52494l0.35278-1.2728h-0.34431l-0.16369 0.79023-0.0254 0.22296h-0.01411z"/>
   <path id="path4868" d="m18.219 275.96c0-0.55034-0.15522-1.0273-0.69991-1.0273-0.5334 0-0.69709 0.44873-0.69709 1.0273 0 0.55598 0.14676 1.0273 0.69709 1.0273 0.52776 0 0.69991-0.44873 0.69991-1.0273zm-1.0245 0c0-0.46567 0.10724-0.69991 0.32456-0.69991 0.06209 0 0.11289 0.0198 0.15522 0.0564 0.13547 0.12136 0.17216 0.381 0.17216 0.64347 0 0.24553-0.02822 0.42333-0.08185 0.5334-0.05644 0.11289-0.13829 0.16651-0.24553 0.16651-0.06209 0-0.11289-0.0169-0.1524-0.0536-0.14111-0.12136-0.17216-0.37536-0.17216-0.64629z"/>
   <path id="path4870" d="m18.781 276.98c0.18627 0 0.3048-0.1016 0.37253-0.2286h0.0085l0.05927 0.19191h0.254c-0.03104-0.11853-0.03951-0.27658-0.03951-0.42898v-0.98214h-0.33584v0.94263c-0.02822 0.096-0.09596 0.19756-0.20884 0.19756-0.13829 0-0.14393-0.127-0.14393-0.29634v-0.84385h-0.33584v0.91723c0 0.31327 0.06491 0.53058 0.36971 0.53058z"/>
   <path id="path4872" d="m20.048 276.98c0.11853 0 0.23424-0.031 0.31609-0.0734l-0.04233-0.26811c-0.0508 0.0226-0.08749 0.0339-0.14958 0.0339-0.10442 0-0.11007-0.096-0.11007-0.22295v-0.61525h0.27376v-0.29916h-0.27376v-0.36971l-0.33584 0.10443v0.26528h-0.15522v0.29916h0.15522v0.73943c0 0.26246 0.07902 0.4064 0.32173 0.4064z"/>
  </g>
  <g id="text60100" transform="translate(-31.938 -8.0273)" stroke-width=".26458" style="font-variant-ligatures:none" aria-label="Mono">
   <path id="path68629" d="m35.555 189.98v1.0188h0.3556v-1.9756h-0.33585l-0.38664 0.84949-0.06491 0.25118h-0.01129l-0.06773-0.24553-0.41205-0.85514h-0.34149v1.9756h0.33585v-1.0216l-0.05362-0.38101h0.01693l0.10442 0.34149 0.34149 0.6971h0.11853l0.32173-0.69427 0.10442-0.33867h0.01411z"/>
   <path id="path68631" d="m37.223 190.3c0-0.44027-0.14393-0.74225-0.5588-0.74225-0.40076 0-0.55598 0.30762-0.55598 0.74225 0 0.49671 0.18344 0.74224 0.55598 0.74224 0.40358 0 0.5588-0.30198 0.5588-0.74224zm-0.76765 0c0-0.16087 0.01693-0.27376 0.05362-0.34149 0.03669-0.0677 0.08749-0.1016 0.15522-0.1016 0.0762 0 0.12982 0.0395 0.16369 0.11288 0.03104 0.0762 0.04798 0.18627 0.04798 0.33021 0 0.16368-0.01976 0.27657-0.05362 0.34431-0.03387 0.0677-0.08749 0.0988-0.15804 0.0988-0.18344 0-0.20884-0.22578-0.20884-0.44309z"/>
   <path id="path68633" d="m38.097 189.56c-0.18627 0-0.29916 0.0875-0.36689 0.19756h-0.0085l-0.03951-0.16369h-0.26811v1.4111h0.33584v-0.97931c0.0254-0.079 0.09596-0.15805 0.2032-0.15805 0.14111 0 0.16087 0.11289 0.16087 0.2794v0.85796h0.33585v-0.9398c0-0.29351-0.06773-0.50518-0.35278-0.50518z"/>
   <path id="path68635" d="m39.746 190.3c0-0.44027-0.14393-0.74225-0.5588-0.74225-0.40076 0-0.55598 0.30762-0.55598 0.74225 0 0.49671 0.18344 0.74224 0.55598 0.74224 0.40358 0 0.5588-0.30198 0.5588-0.74224zm-0.76765 0c0-0.16087 0.01693-0.27376 0.05362-0.34149 0.03669-0.0677 0.08749-0.1016 0.15522-0.1016 0.0762 0 0.12982 0.0395 0.16369 0.11288 0.03104 0.0762 0.04798 0.18627 0.04798 0.33021 0 0.16368-0.01976 0.27657-0.05362 0.34431-0.03387 0.0677-0.08749 0.0988-0.15804 0.0988-0.18344 0-0.20884-0.22578-0.20884-0.44309z"/>
  </g>
  <g id="text9271" transform="translate(-12.341 -.1264)" stroke-width=".26458" style="font-variant-ligatures:none" aria-label="Mrg8">
   <path id="path11499" d="m15.231 175.87v1.7829h0.6223v-3.4572h-0.58773l-0.67663 1.4866-0.1136 0.43956h-0.01976l-0.11853-0.42968-0.72108-1.4965h-0.59761v3.4572h0.58773v-1.7879l-0.09384-0.66675h0.02963l0.18274 0.5976 0.59761 1.2199h0.20743l0.56303-1.215 0.18274-0.59266h0.02469z"/>
   <path id="path11501" d="m16.826 175.48h-0.01975l-0.06915-0.29633h-0.44944v2.4694h0.58773v-1.6496c0.03951-0.15805 0.16298-0.28152 0.36054-0.28152 0.06421 0 0.13829 0.0148 0.21731 0.0444l0.06914-0.58279c-0.07902-0.0296-0.15311-0.0494-0.23213-0.0494-0.24201 0-0.39511 0.16299-0.46426 0.34572z"/>
   <path id="path11503" d="m18.683 175.13c-0.75071 0-1.0372 0.52847-1.0372 1.3384 0 0.42475 0.06421 0.7359 0.19262 0.93346 0.12841 0.19755 0.32597 0.29139 0.58773 0.29139 0.23213 0 0.38523-0.0593 0.48401-0.19755h0.01482v0.13335c0 0.3556-0.09878 0.54821-0.4445 0.54821-0.22719 0-0.3803-0.0593-0.5334-0.12347l-0.12347 0.49883c0.18274 0.10866 0.40993 0.14817 0.74577 0.14817 0.63218 0 0.93345-0.3803 0.93345-1.047v-2.3806c-0.2025-0.0889-0.50871-0.14323-0.81986-0.14323zm0.23213 0.57785v1.2347c-0.04939 0.14817-0.13829 0.24694-0.32597 0.24694-0.22719 0-0.33584-0.24694-0.33584-0.74577 0-0.28646 0.02963-0.49389 0.09878-0.61242 0.06914-0.11854 0.16298-0.1778 0.28646-0.1778 0.11359 0 0.19756 0.0197 0.27658 0.0543z"/>
   <path id="path11505" d="m21.331 175.83c0.24201-0.20744 0.41981-0.43957 0.41981-0.86925 0-0.51858-0.33091-0.83467-0.83961-0.83467-0.55316 0-0.87912 0.36547-0.87912 0.91369 0 0.41981 0.17286 0.66182 0.41487 0.84949-0.27164 0.2025-0.48895 0.4692-0.48895 0.93346 0 0.14322 0.01975 0.27164 0.06421 0.38029 0.12347 0.31609 0.41981 0.51859 0.85937 0.51859 0.13335 0 0.25682-0.0198 0.37536-0.0642 0.33585-0.12347 0.56797-0.42475 0.56797-0.889 0-0.47908-0.19262-0.72602-0.49389-0.93839zm-0.43956 1.3681c-0.26176 0-0.39511-0.22225-0.39511-0.48895 0-0.27658 0.11853-0.45932 0.30621-0.60254 0.20249 0.15804 0.45438 0.30621 0.45438 0.66181 0 0.2667-0.11853 0.42968-0.36548 0.42968zm0.01482-2.5485c0.2025 0 0.31115 0.20249 0.31115 0.42475 0 0.26176-0.09878 0.40992-0.22719 0.56303-0.19756-0.11853-0.39511-0.2667-0.39511-0.58773 0-0.20743 0.09384-0.40005 0.31115-0.40005z"/>
  </g>
 </g>
 <g id="layer2" display="none" fill-rule="evenodd" stroke-width=".26458">
  <circle id="circle1247" cx="5.08" cy="19.5" r="4" display="inline" fill="#00f"/>
  <circle id="circle1249" cx="5.08" cy="30.75" r="4" display="inline" fill="#00f"/>
  <circle id="circle1251" cx="5.08" cy="42" r="4" display="inline" fill="#00f"/>
  <circle id="circle1253" cx="5.08" cy="53.25" r="4" display="inline" fill="#00f"/>
  <circle id="circle1255" cx="5.08" cy="64.5" r="4" display="inline" fill="#00f"/>
  <circle id="circle1257" cx="5.08" cy="75.75" r="4" display="inline" fill="#00f"/>
  <circle id="circle1259" cx="5.08" cy="87" r="4" display="inline" fill="#00f"/>
  <circle id="circle1261" cx="5.08" cy="98.25" r="4" display="inline" fill="#00f"/>
  <circle id="circle1263" cx="5.08" cy="114.5" r="4" display="inline" fill="#0f0"/>
 </g>
</svg>
