<?xml version="1.0" encoding="UTF-8"?>
<svg id="svg8" width="10.16mm" height="128.5mm" version="1.1" viewBox="0 0 10.16 128.5" xmlns="http://www.w3.org/2000/svg" xmlns:cc="http://creativecommons.org/ns#" xmlns:dc="http://purl.org/dc/elements/1.1/" xmlns:rdf="http://www.w3.org/1999/02/22-rdf-syntax-ns#">
 <metadata id="metadata5">
  <rdf:RDF>
   <cc:Work rdf:about="">
    <dc:format>image/svg+xml</dc:format>
    <dc:type rdf:resource="http://purl.org/dc/dcmitype/StillImage"/>
    <dc:title/>
   </cc:Work>
  </rdf:RDF>
 </metadata>
 <g id="layer1" transform="translate(0,-168.5)">
  <rect id="rect838" x="-5.5511e-17" y="168.5" width="10.16" height="128.5" fill="#242422"/>
  <text id="text64" x="2.0529213" y="233.73691" font-family="'PT Sans Narrow'" font-size="2.8222px" font-stretch="condensed" font-weight="bold" stroke-width=".26458" style="line-height:1.25" xml:space="preserve"><tspan id="tspan62" x="2.0529213" y="233.73691" stroke-width=".26458"/></text>
  <g id="text2569" transform="translate(0 -.83024)" fill="#fffff0" stroke-width=".26458" aria-label="GRANDE">
   <path id="path2571" d="m1.6964 292.53c0.15522 0 0.28222-0.0564 0.35807-0.13405v-0.48684h-0.381v0.12171h0.24518v0.30163c-0.045861 0.0423-0.12524 0.067-0.20814 0.067-0.24694 0-0.38276-0.18168-0.38276-0.47272 0-0.28751 0.14817-0.46567 0.381-0.46567 0.11642 0 0.1905 0.0441 0.24871 0.10407l0.081139-0.0917c-0.067028-0.0723-0.17286-0.14287-0.33338-0.14287-0.30692 0-0.53093 0.22754-0.53093 0.59972 0 0.37747 0.21696 0.59972 0.52211 0.59972z"/>
   <path id="path2573" d="m2.7 292.51h0.14817v-0.48859h0.20814l0.27869 0.48859h0.16757l-0.29457-0.50447c0.15699-0.0406 0.25929-0.1464 0.25929-0.32632 0-0.24165-0.16933-0.32632-0.40569-0.32632h-0.3616zm0.14817-0.60854v-0.42862h0.19226c0.17992 0 0.27869 0.0547 0.27869 0.20637 0 0.14817-0.098778 0.22225-0.27869 0.22225z"/>
   <path id="path2575" d="m4.2699 291.86c0.04057-0.12876 0.077611-0.25576 0.11289-0.38982h0.00706c0.037042 0.13406 0.074083 0.26106 0.11642 0.38982l0.054681 0.17463h-0.34573zm-0.35454 0.64558h0.14993l0.11112-0.35101h0.42157l0.10936 0.35101h0.15699l-0.38982-1.1571h-0.16933z"/>
   <path id="path2577" d="m5.3988 292.51h0.13935v-0.60854c0-0.11994-0.010583-0.24518-0.019403-0.3616h0.00706c0.038806 0.0847 0.081139 0.1711 0.12524 0.24871l0.41275 0.72143h0.15875v-1.1571h-0.13935v0.60325c0 0.11995 0.010583 0.24695 0.019403 0.36689h-0.00706c-0.040569-0.0847-0.081139-0.1711-0.12524-0.24871l-0.41275-0.72143h-0.15875z"/>
   <path id="path2579" d="m6.9087 292.51h0.29633c0.34925 0 0.53975-0.21519 0.53975-0.58384 0-0.36689-0.1905-0.57327-0.54681-0.57327h-0.28928zm0.14817-0.1217v-0.9137h0.13053c0.26988 0 0.40393 0.16051 0.40393 0.45156 0 0.2928-0.13406 0.46214-0.40393 0.46214z"/>
   <path id="path2581" d="m8.3657 292.51h0.68439v-0.12523h-0.53622v-0.41981h0.43744v-0.12523h-0.43744v-0.3616h0.51858v-0.12524h-0.66675z"/>
  </g>
  <text id="text925" x="7.705914" y="247.28606" font-family="'PT Sans Narrow'" font-size="2.8222px" font-stretch="condensed" font-weight="bold" stroke-width=".26458" text-align="center" text-anchor="middle" style="line-height:1.25" xml:space="preserve"><tspan id="tspan923" x="7.705914" y="247.28606" stroke-width=".26458"/></text>
  <g id="text914" transform="translate(-2.4507 -6.8264)" fill="#fffff0" stroke-width=".26458" aria-label="MS4">
   <path id="path920" d="m5.9823 182.57v1.7829h0.6223v-3.4572h-0.58773l-0.67663 1.4866-0.11359 0.43956h-0.019756l-0.11853-0.42969-0.72108-1.4965h-0.59761v3.4572h0.58773v-1.7879l-0.093839-0.66676h0.029633l0.18274 0.59761 0.59761 1.2199h0.20743l0.56303-1.215 0.18274-0.59267h0.024694z"/>
   <path id="path922" d="m7.1232 183.67-0.20249 0.5581c0.19756 0.12347 0.53834 0.19261 0.889 0.19261 0.67169 0 1.0717-0.34572 1.0717-1.0273 0-0.17286-0.034572-0.32103-0.093839-0.44944-0.12347-0.24694-0.32103-0.43462-0.54328-0.57785-0.19756-0.12347-0.40005-0.25188-0.53834-0.40993-0.064206-0.0691-0.093839-0.1531-0.093839-0.24694 0-0.21732 0.16298-0.31115 0.40005-0.31115 0.22719 0 0.47907 0.0741 0.60748 0.15804l0.19262-0.54822c-0.19756-0.11359-0.51365-0.18274-0.82974-0.18274-0.61736 0-0.99272 0.30622-0.99272 0.92852 0 0.18274 0.029633 0.33584 0.093839 0.45931 0.11853 0.24695 0.31609 0.42969 0.53834 0.56798 0.19756 0.12841 0.40005 0.25188 0.54328 0.41487 0.059267 0.0741 0.093839 0.16298 0.093839 0.2667 0 0.25682-0.16792 0.38523-0.49389 0.38523-0.24201 0-0.50377-0.0889-0.64206-0.1778z"/>
   <path id="path924" d="m11.292 183.39v-0.50377h-0.43462v-2.0151h-0.51364l-1.2644 2.1534v0.36548h1.2199v0.96309h0.5581v-0.96309zm-0.99272-1.2693v0.76552h-0.44944l-0.25188 0.0395 0.19756-0.18768 0.39017-0.66181 0.14817-0.40006h0.01976z"/>
  </g>
  <rect id="rect896" x=".58" y="220.25" width="9" height="12.75" rx="1" ry="1" fill="#555d50" stroke-width=".26458"/>
  <rect id="rect913" x=".58" y="247.5" width="9" height="41" rx="1" ry="1" fill="#555d50" stroke-width=".26458"/>
  <g id="text917" transform="translate(-.64576 .3929)" fill="#fffff0" stroke-width=".26458" aria-label="Merge">
   <path id="path919" d="m3.9167 221.56v1.0188h0.3556v-1.9756h-0.33585l-0.38665 0.84949-0.064911 0.25118h-0.011289l-0.067734-0.24554-0.41205-0.85513h-0.34149v1.9756h0.33585v-1.0216l-0.053622-0.381h0.016933l0.10442 0.34149 0.34149 0.69709h0.11853l0.32173-0.69427 0.10442-0.33867h0.014111z"/>
   <path id="path921" d="m5.0908 222.33c-0.21449 0-0.28505-0.14394-0.29069-0.36125h0.6858c0.014111-0.0931 0.028222-0.18344 0.028222-0.28504 0-0.33585-0.14958-0.55316-0.47413-0.55316-0.18062 0-0.31891 0.0621-0.42051 0.18345s-0.14958 0.30762-0.14958 0.56162c0 0.42616 0.13547 0.74225 0.5588 0.74225 0.17216 0 0.35278-0.0593 0.44591-0.14112l-0.10442-0.23424c-0.059267 0.048-0.17216 0.0875-0.2794 0.0875zm0.11007-0.5842h-0.38947c0.00847-0.17216 0.056445-0.32738 0.22296-0.32738 0.14393 0 0.17498 0.15804 0.16651 0.32738z"/>
   <path id="path923" d="m6.0362 221.34h-0.011289l-0.039511-0.16934h-0.25682v1.4111h0.33585v-0.94263c0.022578-0.0903 0.093134-0.16087 0.20602-0.16087 0.036689 0 0.079022 8e-3 0.12418 0.0254l0.039511-0.33302c-0.045156-0.0169-0.087489-0.0282-0.13264-0.0282-0.13829 0-0.22578 0.0931-0.26529 0.19756z"/>
   <path id="path925" d="m7.0974 221.14c-0.42898 0-0.59267 0.30198-0.59267 0.76482 0 0.24271 0.036689 0.42051 0.11007 0.5334s0.18627 0.16651 0.33585 0.16651c0.13264 0 0.22013-0.0339 0.27658-0.11288h0.00847v0.0762c0 0.2032-0.056445 0.31326-0.254 0.31326-0.12982 0-0.21731-0.0339-0.3048-0.0705l-0.070556 0.28504c0.10442 0.0621 0.23425 0.0847 0.42616 0.0847 0.36125 0 0.5334-0.21731 0.5334-0.59831v-1.3603c-0.11571-0.0508-0.29069-0.0818-0.46849-0.0818zm0.13264 0.3302v0.70556c-0.028222 0.0847-0.079022 0.14111-0.18627 0.14111-0.12982 0-0.19191-0.14111-0.19191-0.42616 0-0.16369 0.016933-0.28222 0.056445-0.34996 0.039511-0.0677 0.093134-0.1016 0.16369-0.1016 0.064911 0 0.11289 0.0113 0.15804 0.031z"/>
   <path id="path927" d="m8.3758 222.33c-0.21449 0-0.28505-0.14394-0.29069-0.36125h0.6858c0.014111-0.0931 0.028222-0.18344 0.028222-0.28504 0-0.33585-0.14958-0.55316-0.47413-0.55316-0.18062 0-0.31891 0.0621-0.42051 0.18345s-0.14958 0.30762-0.14958 0.56162c0 0.42616 0.13547 0.74225 0.5588 0.74225 0.17216 0 0.35278-0.0593 0.44591-0.14112l-0.10442-0.23424c-0.059267 0.048-0.17216 0.0875-0.2794 0.0875zm0.11007-0.5842h-0.38947c0.00847-0.17216 0.056445-0.32738 0.22296-0.32738 0.14393 0 0.17498 0.15804 0.16651 0.32738z"/>
  </g>
  <g id="text932" transform="translate(.27995 .57841)" fill="#fffff0" stroke-width=".26458" aria-label="Split">
   <path id="path934" d="m2.6298 237.05-0.11571 0.31891c0.11289 0.0706 0.30762 0.11007 0.508 0.11007 0.38382 0 0.61242-0.19756 0.61242-0.58703 0-0.0988-0.019756-0.18344-0.053622-0.25682-0.070556-0.14111-0.18344-0.24836-0.31045-0.3302-0.11289-0.0706-0.2286-0.14393-0.30762-0.23425-0.036689-0.0395-0.053622-0.0875-0.053622-0.14111 0-0.12418 0.093134-0.1778 0.2286-0.1778 0.12982 0 0.27376 0.0423 0.34713 0.0903l0.11007-0.31326c-0.11289-0.0649-0.29351-0.10443-0.47413-0.10443-0.35278 0-0.56727 0.17498-0.56727 0.53058 0 0.10443 0.016933 0.19191 0.053622 0.26247 0.067733 0.14111 0.18062 0.24553 0.30762 0.32456 0.11289 0.0734 0.2286 0.14393 0.31045 0.23706 0.033867 0.0423 0.053622 0.0931 0.053622 0.1524 0 0.14676-0.095956 0.22014-0.28222 0.22014-0.13829 0-0.28787-0.0508-0.36689-0.1016z"/>
   <path id="path936" d="m4.3626 237.48c0.39229 0 0.52776-0.34996 0.52776-0.78176 0-0.25118-0.036689-0.4318-0.11007-0.53905-0.073378-0.10724-0.18062-0.16369-0.32173-0.16369-0.18062 0-0.26811 0.0762-0.34431 0.19474h-0.00847l-0.033867-0.16087h-0.25118v1.9756h0.33585v-0.57291c0.056445 0.0367 0.11289 0.048 0.20602 0.048zm0.18062-0.79023c0 0.18063-0.019756 0.30763-0.059267 0.381-0.039511 0.0734-0.098778 0.11007-0.17216 0.11007-0.0762 0-0.11853-0.0169-0.15522-0.0564v-0.66323c0.033867-0.11006 0.095956-0.16651 0.19191-0.16651 0.16933 0 0.19473 0.19191 0.19473 0.39511z"/>
   <path id="path938" d="m5.3701 237.47c0.093134 0 0.2286-0.0254 0.28222-0.0621l-0.031045-0.27093c-0.039511 0.0169-0.070556 0.0254-0.11289 0.0254-0.079022 0-0.084667-0.0847-0.084667-0.18345v-1.5184h-0.33584v1.699c0 0.21449 0.079023 0.31044 0.28222 0.31044z"/>
   <path id="path940" d="m5.7963 236.03v1.4111h0.33585v-1.4111zm0.16651-0.20884c0.12418 0 0.21731-0.0649 0.21731-0.18909 0-0.12136-0.093134-0.19474-0.21731-0.19474-0.12418 0-0.20602 0.0762-0.20602 0.19474 0 0.12135 0.081845 0.18909 0.20602 0.18909z"/>
   <path id="path942" d="m6.77 237.47c0.11853 0 0.23425-0.031 0.31609-0.0734l-0.042334-0.26811c-0.0508 0.0226-0.087489 0.0339-0.14958 0.0339-0.10442 0-0.11007-0.096-0.11007-0.22296v-0.61524h0.27376v-0.29916h-0.27376v-0.36971l-0.33585 0.10442v0.26529h-0.15522v0.29916h0.15522v0.73942c0 0.26247 0.079022 0.4064 0.32173 0.4064z"/>
  </g>
  <g id="text947" transform="translate(-.46658 -.74991)" fill="#fffff0" stroke-width=".26458" aria-label="1">
   <path id="path963" d="m8.4362 182.96v0.29915h0.95956v-0.29915h-0.31609v-1.7103h-0.19756l-0.54469 0.53057 0.15522 0.18909 0.18627-0.14393 0.11571-0.16651-0.036689 0.19191v1.1091z" fill="#fffff0" stroke-width=".26458"/>
  </g>
  <g id="text951" transform="translate(-.18844 -.30547)" fill="#fffff0" stroke-width=".26458" aria-label="2">
   <path id="path966" d="m8.0889 190.97 0.12982 0.24554c0.056445-0.0508 0.16369-0.11007 0.26811-0.11007 0.15804 0 0.23425 0.10724 0.2286 0.26529 0.00282 0.0649-0.00564 0.13264-0.0254 0.20602-0.045156 0.16369-0.11571 0.31609-0.19191 0.45438-0.11853 0.20602-0.25965 0.41205-0.40076 0.58702v0.19474h0.9906v-0.29916h-0.43745l-0.16933 0.0423v-0.0141l0.12418-0.11571c0.10724-0.14393 0.21731-0.3302 0.29916-0.51364 0.0762-0.16651 0.1524-0.37536 0.1524-0.60114 0-0.0847-0.014111-0.15804-0.036689-0.22295-0.067733-0.17216-0.20884-0.29069-0.44027-0.29069-0.22296 0-0.37253 0.0706-0.49107 0.17215z" fill="#fffff0" stroke-width=".26458"/>
  </g>
  <g id="text955" transform="translate(.01664 -.08704)" fill="#fffff0" stroke-width=".26458" aria-label="3">
   <path id="path969" d="m7.9741 202.22-0.090311 0.28223c0.084667 0.0536 0.26247 0.0875 0.40358 0.0875 0.081845 0 0.15804-0.0113 0.23142-0.0395 0.2286-0.0818 0.36407-0.29633 0.36407-0.61242 0-0.0903-0.011289-0.17216-0.033867-0.23989-0.053622-0.16651-0.16933-0.29916-0.36689-0.31609l-0.10442 0.0169v-0.0141l0.10442-0.0762 0.32738-0.5334v-0.20038h-0.90311v0.29916h0.38665l0.18627-0.0254-0.13547 0.127-0.2794 0.47413v0.19192h0.16651c0.20884 0 0.31609 0.10724 0.31609 0.31891 0 0.18909-0.095956 0.3302-0.28222 0.3302-0.12136 0-0.21167-0.0282-0.29069-0.0706z" fill="#fffff0" stroke-width=".26458"/>
  </g>
  <g id="text959" transform="translate(.052585 -.18296)" fill="#fffff0" stroke-width=".26458" aria-label="4">
   <path id="path972" d="m8.9796 212.13v-0.28787h-0.24836v-1.1515h-0.29351l-0.72249 1.2305v0.20884h0.69709v0.55034h0.31891v-0.55034zm-0.56727-0.72531v0.43744h-0.25682l-0.14393 0.0226 0.11289-0.10724 0.22296-0.37818 0.084667-0.2286h0.011289z" fill="#fffff0" stroke-width=".26458"/>
  </g>
  <g id="text977" transform="translate(-6.5739 .30899)" fill="#fffff0" stroke-width=".26458" aria-label="1">
   <path id="path991" d="m7.9035 249.9v0.29915h0.95956v-0.29915h-0.31609v-1.7103h-0.19756l-0.54469 0.53058 0.15522 0.18909 0.18627-0.14394 0.11571-0.16651-0.036689 0.19191v1.1091z" fill="#fffff0" stroke-width=".26458"/>
  </g>
  <g id="text981" transform="translate(-6.8204 .33158)" fill="#fffff0" stroke-width=".26458" aria-label="2">
   <path id="path994" d="m8.0808 258.33 0.12982 0.24553c0.056445-0.0508 0.16369-0.11006 0.26811-0.11006 0.15804 0 0.23425 0.10724 0.2286 0.26528 0.00282 0.0649-0.00564 0.13265-0.0254 0.20603-0.045156 0.16369-0.11571 0.31609-0.19191 0.45438-0.11853 0.20602-0.25965 0.41204-0.40076 0.58702v0.19473h0.9906v-0.29915h-0.43745l-0.16933 0.0423v-0.0141l0.12418-0.11571c0.10724-0.14393 0.21731-0.3302 0.29916-0.51365 0.0762-0.16651 0.1524-0.37535 0.1524-0.60113 0-0.0847-0.014111-0.15805-0.036689-0.22296-0.067734-0.17215-0.20884-0.29069-0.44027-0.29069-0.22296 0-0.37253 0.0706-0.49107 0.17216z" fill="#fffff0" stroke-width=".26458"/>
  </g>
  <g id="text985" transform="translate(-7.153 .37762)" fill="#fffff0" stroke-width=".26458" aria-label="3">
   <path id="path997" d="m8.5037 269.76-0.090311 0.28223c0.084667 0.0536 0.26247 0.0875 0.40358 0.0875 0.081845 0 0.15804-0.0113 0.23142-0.0395 0.2286-0.0818 0.36407-0.29633 0.36407-0.61242 0-0.0903-0.011289-0.17216-0.033867-0.23989-0.053622-0.16651-0.16933-0.29916-0.36689-0.31609l-0.10442 0.0169v-0.0141l0.10442-0.0762 0.32738-0.5334v-0.20038h-0.90311v0.29916h0.38665l0.18627-0.0254-0.13547 0.127-0.2794 0.47413v0.19191h0.16651c0.20884 0 0.31609 0.10725 0.31609 0.31892 0 0.18909-0.095956 0.3302-0.28222 0.3302-0.12136 0-0.21167-0.0282-0.29069-0.0706z" fill="#fffff0" stroke-width=".26458"/>
  </g>
  <g id="text989" transform="translate(-6.872 .48836)" fill="#fffff0" stroke-width=".26458" aria-label="4">
   <path id="path1000" d="m9.2642 279.46v-0.28786h-0.24836v-1.1515h-0.29351l-0.72249 1.2305v0.20884h0.69709v0.55034h0.31891v-0.55034zm-0.56727-0.72531v0.43745h-0.25682l-0.14393 0.0226 0.11289-0.10725 0.22296-0.37818 0.084667-0.2286h0.011289z" fill="#fffff0" stroke-width=".26458"/>
  </g>
 </g>
 <g id="layer2" display="none" fill-rule="evenodd" stroke-width=".26458">
  <circle id="circle910" cx="5.08" cy="74.25" r="4" fill="#0f0"/>
  <circle id="circle914" cx="5.08" cy="59.25" r="4" fill="#00f"/>
  <circle id="circle918" cx="5.08" cy="85" r="3.4" fill="#00f"/>
  <circle id="circle922" cx="5.08" cy="17" r="3.4" fill="#0f0"/>
  <circle id="circle884" cx="5.08" cy="95" r="3.4" fill="#00f"/>
  <circle id="circle886" cx="5.08" cy="105" r="3.4" fill="#00f"/>
  <circle id="circle888" cx="5.08" cy="115" r="3.4" fill="#00f"/>
  <circle id="circle890" cx="5.08" cy="27" r="3.4" fill="#0f0"/>
  <circle id="circle892" cx="5.08" cy="37" r="3.4" fill="#0f0"/>
  <circle id="circle894" cx="5.08" cy="47" r="3.4" fill="#0f0"/>
 </g>
</svg>
