<?xml version="1.0" encoding="UTF-8" standalone="no"?>
<svg
   sodipodi:docname="MergeSplit4.svg"
   inkscape:version="1.1 (c68e22c387, 2021-05-23)"
   id="svg8"
   version="1.1"
   viewBox="0 0 10.16 128.5"
   height="128.5mm"
   width="10.16mm"
   xmlns:inkscape="http://www.inkscape.org/namespaces/inkscape"
   xmlns:sodipodi="http://sodipodi.sourceforge.net/DTD/sodipodi-0.dtd"
   xmlns="http://www.w3.org/2000/svg"
   xmlns:svg="http://www.w3.org/2000/svg"
   xmlns:rdf="http://www.w3.org/1999/02/22-rdf-syntax-ns#"
   xmlns:cc="http://creativecommons.org/ns#"
   xmlns:dc="http://purl.org/dc/elements/1.1/">
  <defs
     id="defs2" />
  <sodipodi:namedview
     inkscape:snap-global="true"
     inkscape:snap-bbox-midpoints="true"
     inkscape:snap-bbox="true"
     inkscape:document-rotation="0"
     inkscape:window-maximized="0"
     inkscape:window-y="23"
     inkscape:window-x="26"
     inkscape:window-height="1363"
     inkscape:window-width="1374"
     inkscape:lockguides="false"
     inkscape:guide-bbox="true"
     showguides="true"
     units="mm"
     showgrid="false"
     inkscape:current-layer="layer1"
     inkscape:document-units="mm"
     inkscape:cy="320.88864"
     inkscape:cx="-13.731721"
     inkscape:zoom="4.1509728"
     inkscape:pageshadow="2"
     inkscape:pageopacity="0.0"
     borderopacity="1.0"
     bordercolor="#666666"
     pagecolor="#ffffff"
     id="base"
     inkscape:bbox-nodes="false"
     inkscape:bbox-paths="false"
     inkscape:snap-grids="false"
     inkscape:snap-others="false"
     inkscape:object-nodes="false"
     inkscape:snap-nodes="false"
     inkscape:snap-bbox-edge-midpoints="false"
     inkscape:pagecheckerboard="0">
    <sodipodi:guide
       position="19.366522,111.5"
       orientation="0,1"
       id="guide837"
       inkscape:label=""
       inkscape:locked="false"
       inkscape:color="rgb(0,0,255)" />
    <sodipodi:guide
       inkscape:color="rgb(0,0,255)"
       inkscape:locked="false"
       inkscape:label=""
       id="guide875"
       orientation="0,1"
       position="-9.0869999,33.500001" />
    <sodipodi:guide
       position="20,91.500004"
       orientation="0,1"
       id="guide891"
       inkscape:label=""
       inkscape:locked="false"
       inkscape:color="rgb(0,0,255)" />
    <sodipodi:guide
       position="-0.45667893,43.500002"
       orientation="0,1"
       id="guide893"
       inkscape:label=""
       inkscape:locked="false"
       inkscape:color="rgb(0,0,255)" />
    <sodipodi:guide
       position="-21.247928,81.500003"
       orientation="0,1"
       id="guide901"
       inkscape:label=""
       inkscape:locked="false"
       inkscape:color="rgb(0,0,255)" />
    <sodipodi:guide
       position="-2.5513393,101.5"
       orientation="0,1"
       id="guide947"
       inkscape:label=""
       inkscape:locked="false"
       inkscape:color="rgb(0,0,255)" />
    <sodipodi:guide
       position="-4.8854,23.500001"
       orientation="0,1"
       id="guide3392"
       inkscape:label=""
       inkscape:locked="false"
       inkscape:color="rgb(0,0,255)" />
    <sodipodi:guide
       inkscape:color="rgb(0,0,255)"
       inkscape:locked="false"
       inkscape:label=""
       id="guide907"
       orientation="0,1"
       position="-14.335827,13.500001" />
    <sodipodi:guide
       position="-6.4238207,54.250002"
       orientation="0,1"
       id="guide908"
       inkscape:label=""
       inkscape:locked="false"
       inkscape:color="rgb(0,0,255)" />
    <sodipodi:guide
       inkscape:color="rgb(0,0,255)"
       inkscape:locked="false"
       inkscape:label=""
       id="guide944"
       orientation="-1,0"
       position="5.0800002,74.250002" />
    <sodipodi:guide
       position="-37.318825,69.250003"
       orientation="0,1"
       id="guide882"
       inkscape:label=""
       inkscape:locked="false"
       inkscape:color="rgb(0,0,255)" />
    <sodipodi:guide
       position="8.1600003,111"
       orientation="-1,0"
       id="guide961"
       inkscape:label=""
       inkscape:locked="false"
       inkscape:color="rgb(0,0,255)" />
    <sodipodi:guide
       position="8.1600005,27.500001"
       orientation="0,1"
       id="guide1003"
       inkscape:label=""
       inkscape:locked="false"
       inkscape:color="rgb(0,0,255)" />
    <sodipodi:guide
       position="14.692089,17.500001"
       orientation="0,1"
       id="guide1005"
       inkscape:label=""
       inkscape:locked="false"
       inkscape:color="rgb(0,0,255)" />
    <sodipodi:guide
       position="12.652406,37.500002"
       orientation="0,1"
       id="guide1007"
       inkscape:label=""
       inkscape:locked="false"
       inkscape:color="rgb(0,0,255)" />
    <sodipodi:guide
       position="14.723959,47.500002"
       orientation="0,1"
       id="guide1009"
       inkscape:label=""
       inkscape:locked="false"
       inkscape:color="rgb(0,0,255)" />
    <sodipodi:guide
       position="13.767858,85.500003"
       orientation="0,1"
       id="guide1011"
       inkscape:label=""
       inkscape:locked="false"
       inkscape:color="rgb(0,0,255)" />
    <sodipodi:guide
       position="12.907367,95.500004"
       orientation="0,1"
       id="guide1013"
       inkscape:label=""
       inkscape:locked="false"
       inkscape:color="rgb(0,0,255)" />
    <sodipodi:guide
       position="13.704118,105.5"
       orientation="0,1"
       id="guide1015"
       inkscape:label=""
       inkscape:locked="false"
       inkscape:color="rgb(0,0,255)" />
    <sodipodi:guide
       position="12.556796,115.5"
       orientation="0,1"
       id="guide1017"
       inkscape:label=""
       inkscape:locked="false"
       inkscape:color="rgb(0,0,255)" />
    <sodipodi:guide
       position="14.24245,8.5000003"
       orientation="0,1"
       id="guide911"
       inkscape:label=""
       inkscape:locked="false"
       inkscape:color="rgb(0,0,255)" />
    <sodipodi:guide
       position="2.0000001,48.283112"
       orientation="-1,0"
       id="guide904"
       inkscape:label=""
       inkscape:locked="false"
       inkscape:color="rgb(0,0,255)" />
  </sodipodi:namedview>
  <metadata
     id="metadata5">
    <rdf:RDF>
      <cc:Work
         rdf:about="">
        <dc:format>image/svg+xml</dc:format>
        <dc:type
           rdf:resource="http://purl.org/dc/dcmitype/StillImage" />
        <dc:title />
      </cc:Work>
    </rdf:RDF>
  </metadata>
  <g
     transform="translate(0,-168.5)"
     id="layer1"
     inkscape:groupmode="layer"
     inkscape:label="Layer 1"
     style="display:inline">
    <rect
       style="display:inline;opacity:1;fill:#bbbbb0;fill-opacity:1;stroke:none;stroke-width:1.131;stroke-miterlimit:4;stroke-dasharray:none"
       id="rect838"
       width="10.16"
       height="128.5"
       x="-5.5511151e-17"
       y="168.5" />
    <text
       xml:space="preserve"
       style="font-weight:bold;font-stretch:condensed;font-size:2.82223px;line-height:1.25;font-family:'PT Sans Narrow';-inkscape-font-specification:'PT Sans Narrow, Bold Condensed';stroke-width:0.264583"
       x="2.0529213"
       y="233.73691"
       id="text64"><tspan
         sodipodi:role="line"
         id="tspan62"
         x="2.0529213"
         y="233.73691"
         style="stroke-width:0.264583" /></text>
    <g
       aria-label="GRANDE"
       id="text2569"
       style="font-size:1.76389px;line-height:1.25;font-family:'Source Sans Pro';-inkscape-font-specification:'Source Sans Pro, Normal';text-align:center;letter-spacing:0.370417px;text-anchor:middle;stroke-width:0.264583"
       transform="translate(0,-0.83024)">
      <path
         d="m 1.6963961,292.52968 c 0.1552223,0 0.2822224,-0.0564 0.3580696,-0.13405 v -0.48684 H 1.6734655 v 0.12171 h 0.2451807 v 0.30163 c -0.045861,0.0423 -0.1252362,0.067 -0.208139,0.067 -0.2469446,0 -0.3827641,-0.18168 -0.3827641,-0.47272 0,-0.28751 0.1481667,-0.46567 0.3810002,-0.46567 0.1164167,0 0.1905001,0.0441 0.2487085,0.10407 l 0.081139,-0.0917 c -0.067028,-0.0723 -0.1728612,-0.14287 -0.3333752,-0.14287 -0.3069168,0 -0.5309309,0.22754 -0.5309309,0.59972 0,0.37747 0.2169585,0.59972 0.5221114,0.59972 z"
         style="stroke-width:0.264583"
         id="path2571" />
      <path
         d="m 2.7000468,292.50851 h 0.1481668 v -0.48859 h 0.208139 l 0.2786946,0.48859 h 0.1675696 l -0.2945696,-0.50447 c 0.1569862,-0.0406 0.2592918,-0.1464 0.2592918,-0.32632 0,-0.24165 -0.1693334,-0.32632 -0.4056947,-0.32632 H 2.7000468 Z m 0.1481668,-0.60854 v -0.42862 h 0.192264 c 0.1799168,0 0.2786946,0.0547 0.2786946,0.20637 0,0.14817 -0.098778,0.22225 -0.2786946,0.22225 z"
         style="stroke-width:0.264583"
         id="path2573" />
      <path
         d="m 4.2699053,291.86293 c 0.04057,-0.12876 0.077611,-0.25576 0.112889,-0.38982 h 0.00706 c 0.037042,0.13406 0.074083,0.26106 0.1164168,0.38982 l 0.054681,0.17463 H 4.2152247 Z m -0.3545419,0.64558 h 0.1499307 l 0.111125,-0.35101 H 4.5979889 L 4.70735,292.50851 H 4.8643363 L 4.4745166,291.3514 H 4.3051831 Z"
         style="stroke-width:0.264583"
         id="path2575" />
      <path
         d="M 5.3987927,292.50851 H 5.53814 v -0.60854 c 0,-0.11994 -0.010583,-0.24518 -0.019403,-0.3616 h 0.00706 c 0.038806,0.0847 0.081139,0.1711 0.1252362,0.24871 l 0.4127502,0.72143 H 6.2225293 V 291.3514 H 6.083182 v 0.60325 c 0,0.11995 0.010583,0.24695 0.019403,0.36689 h -0.00706 c -0.040569,-0.0847 -0.081139,-0.1711 -0.1252361,-0.24871 L 5.5575428,291.3514 H 5.3987927 Z"
         style="stroke-width:0.264583"
         id="path2577" />
      <path
         d="m 6.9086818,292.50851 h 0.2963335 c 0.3492503,0 0.5397504,-0.21519 0.5397504,-0.58384 0,-0.36689 -0.1905001,-0.57327 -0.5468059,-0.57327 h -0.289278 z m 0.1481668,-0.1217 v -0.9137 h 0.1305278 c 0.2698752,0 0.4039309,0.16051 0.4039309,0.45156 0,0.2928 -0.1340557,0.46214 -0.4039309,0.46214 z"
         style="stroke-width:0.264583"
         id="path2579" />
      <path
         d="m 8.3656535,292.50851 h 0.6843893 v -0.12523 H 8.5138202 v -0.41981 h 0.4374447 v -0.12523 H 8.5138202 v -0.3616 H 9.0324039 V 291.3514 H 8.3656535 Z"
         style="stroke-width:0.264583"
         id="path2581" />
    </g>
    <text
       xml:space="preserve"
       style="font-weight:bold;font-stretch:condensed;font-size:2.82223px;line-height:1.25;font-family:'PT Sans Narrow';-inkscape-font-specification:'PT Sans Narrow, Bold Condensed';text-align:center;text-anchor:middle;stroke-width:0.264583"
       x="7.705914"
       y="247.28606"
       id="text925"><tspan
         sodipodi:role="line"
         id="tspan923"
         x="7.705914"
         y="247.28606"
         style="stroke-width:0.264583" /></text>
    <g
       aria-label="MS4"
       id="text914"
       style="font-size:4.9389px;line-height:1.25;font-family:'PTQ Sans Narrow';-inkscape-font-specification:'PTQ Sans Narrow, Normal';stroke-width:0.264583"
       transform="translate(-2.4506526,-6.82639)">
      <path
         d="m 5.9823104,182.56983 v 1.78294 h 0.6223014 v -3.45723 H 6.0168827 l -0.6766293,1.48661 -0.1135947,0.43956 H 5.2069031 L 5.0883695,182.39202 4.3672901,180.89554 H 3.7696832 v 3.45723 h 0.5877291 v -1.78788 l -0.093839,-0.66676 h 0.029633 l 0.1827393,0.59761 0.5976069,1.21991 h 0.2074338 l 0.5630346,-1.21497 0.1827393,-0.59267 h 0.024694 z"
         style="stroke-width:0.264583"
         id="path920" />
      <path
         d="m 7.1231942,183.6712 -0.2024949,0.5581 c 0.197556,0.12347 0.5383401,0.19261 0.889002,0.19261 0.6716904,0 1.0717413,-0.34572 1.0717413,-1.02729 0,-0.17286 -0.034572,-0.32103 -0.093839,-0.44944 -0.1234725,-0.24694 -0.3210285,-0.43462 -0.543279,-0.57785 -0.197556,-0.12347 -0.4000509,-0.25188 -0.5383401,-0.40993 -0.064206,-0.0691 -0.093839,-0.1531 -0.093839,-0.24694 0,-0.21732 0.1629837,-0.31115 0.4000509,-0.31115 0.2271894,0 0.4790733,0.0741 0.6074847,0.15804 l 0.1926171,-0.54822 c -0.197556,-0.11359 -0.5136456,-0.18274 -0.8297352,-0.18274 -0.6173625,0 -0.9927189,0.30622 -0.9927189,0.92852 0,0.18274 0.029633,0.33584 0.093839,0.45931 0.1185336,0.24695 0.3160896,0.42969 0.5383401,0.56798 0.197556,0.12841 0.4000509,0.25188 0.543279,0.41487 0.059267,0.0741 0.093839,0.16298 0.093839,0.2667 0,0.25682 -0.1679226,0.38523 -0.49389,0.38523 -0.2420061,0 -0.5037678,-0.0889 -0.642057,-0.1778 z"
         style="stroke-width:0.264583"
         id="path922" />
      <path
         d="m 11.291622,183.38968 v -0.50377 h -0.434624 v -2.01507 h -0.513645 l -1.2643587,2.15336 v 0.36548 h 1.2199087 v 0.96309 h 0.558095 v -0.96309 z m -0.992719,-1.26929 v 0.76552 H 9.8494627 l -0.2518839,0.0395 0.197556,-0.18768 0.3901732,-0.66181 0.148167,-0.40006 h 0.01976 z"
         style="stroke-width:0.264583"
         id="path924" />
    </g>
    <rect
       style="display:inline;fill:#555d50;fill-opacity:1;stroke-width:0.264583"
       id="rect896"
       width="8.8000002"
       height="12.65"
       x="0.68000001"
       y="220.25"
       rx="1"
       ry="1" />
    <rect
       style="display:inline;fill:#555d50;fill-opacity:1;stroke-width:0.264583"
       id="rect913"
       width="8.8000002"
       height="40.900002"
       x="0.68000001"
       y="247.5"
       rx="1"
       ry="1" />
    <rect
       style="fill:#555d50;fill-opacity:1;stroke:none;stroke-width:0.264583;stroke-opacity:1"
       id="rect1025"
       width="9"
       height="2"
       x="0.58000004"
       y="220.25" />
    <g
       aria-label="Merge"
       id="text917"
       style="font-size:2.82223px;line-height:1.25;font-family:'PTQ Sans Narrow';-inkscape-font-specification:'PTQ Sans Narrow, Normal';fill:#fffff0;fill-opacity:1;stroke-width:0.264583"
       transform="translate(-0.64576321,0.3929)">
      <path
         d="m 3.9167179,221.56383 v 1.01883 h 0.355601 V 220.6071 H 3.9364735 l -0.3866455,0.84949 -0.064911,0.25118 H 3.4736278 L 3.4058942,221.46223 2.9938486,220.6071 H 2.6523588 v 1.97556 h 0.3358454 v -1.02165 l -0.053622,-0.381 h 0.016933 l 0.1044225,0.34149 0.3414898,0.69709 h 0.1185337 l 0.3217342,-0.69427 0.1044225,-0.33867 h 0.014111 z"
         style="fill:#fffff0;fill-opacity:1;stroke-width:0.264583"
         id="path919" />
      <path
         d="m 5.0907644,222.33148 c -0.2144895,0 -0.2850453,-0.14394 -0.2906897,-0.36125 h 0.6858019 c 0.014111,-0.0931 0.028222,-0.18344 0.028222,-0.28504 0,-0.33585 -0.1495782,-0.55316 -0.4741347,-0.55316 -0.1806227,0 -0.318912,0.0621 -0.4205123,0.18345 -0.1016003,0.12135 -0.1495782,0.30762 -0.1495782,0.56162 0,0.42616 0.1354671,0.74225 0.5588016,0.74225 0.172156,0 0.3527788,-0.0593 0.4459123,-0.14112 l -0.1044225,-0.23424 c -0.059267,0.048 -0.172156,0.0875 -0.2794007,0.0875 z m 0.1100669,-0.5842 H 4.8113636 c 0.00847,-0.17216 0.056445,-0.32738 0.2229562,-0.32738 0.1439337,0 0.1749782,0.15804 0.1665115,0.32738 z"
         style="fill:#fffff0;fill-opacity:1;stroke-width:0.264583"
         id="path921" />
      <path
         d="M 6.0362099,221.34088 H 6.024921 L 5.98541,221.17154 H 5.7285868 v 1.41112 h 0.3358454 v -0.94263 c 0.022578,-0.0903 0.093134,-0.16087 0.2060228,-0.16087 0.036689,0 0.079022,0.008 0.1241781,0.0254 l 0.039511,-0.33302 c -0.045156,-0.0169 -0.087489,-0.0282 -0.1326448,-0.0282 -0.1382893,0 -0.2257784,0.0931 -0.2652896,0.19756 z"
         style="fill:#fffff0;fill-opacity:1;stroke-width:0.264583"
         id="path923" />
      <path
         d="m 7.0973664,221.1405 c -0.428979,0 -0.5926683,0.30198 -0.5926683,0.76482 0,0.24271 0.036689,0.42051 0.110067,0.5334 0.073378,0.11289 0.1862672,0.16651 0.3358454,0.16651 0.1326448,0 0.2201339,-0.0339 0.2765785,-0.11288 h 0.00847 v 0.0762 c 0,0.2032 -0.056445,0.31326 -0.2540007,0.31326 -0.1298226,0 -0.2173117,-0.0339 -0.3048009,-0.0705 l -0.070556,0.28504 c 0.1044225,0.0621 0.2342451,0.0847 0.4261567,0.0847 0.3612455,0 0.5334015,-0.21731 0.5334015,-0.59831 v -1.36032 c -0.1157114,-0.0508 -0.2906897,-0.0818 -0.4684902,-0.0818 z m 0.1326448,0.3302 v 0.70556 c -0.028222,0.0847 -0.079022,0.14111 -0.1862671,0.14111 -0.1298226,0 -0.1919117,-0.14111 -0.1919117,-0.42616 0,-0.16369 0.016933,-0.28222 0.056445,-0.34996 0.039511,-0.0677 0.093134,-0.1016 0.1636894,-0.1016 0.064911,0 0.1128892,0.0113 0.1580448,0.031 z"
         style="fill:#fffff0;fill-opacity:1;stroke-width:0.264583"
         id="path925" />
      <path
         d="m 8.3758333,222.33148 c -0.2144894,0 -0.2850452,-0.14394 -0.2906897,-0.36125 h 0.685802 c 0.014111,-0.0931 0.028222,-0.18344 0.028222,-0.28504 0,-0.33585 -0.1495782,-0.55316 -0.4741347,-0.55316 -0.1806227,0 -0.318912,0.0621 -0.4205123,0.18345 -0.1016003,0.12135 -0.1495782,0.30762 -0.1495782,0.56162 0,0.42616 0.1354671,0.74225 0.5588016,0.74225 0.172156,0 0.3527787,-0.0593 0.4459123,-0.14112 l -0.1044225,-0.23424 c -0.059267,0.048 -0.172156,0.0875 -0.2794008,0.0875 z m 0.110067,-0.5842 H 8.0964326 c 0.00847,-0.17216 0.056445,-0.32738 0.2229561,-0.32738 0.1439338,0 0.1749783,0.15804 0.1665116,0.32738 z"
         style="fill:#fffff0;fill-opacity:1;stroke-width:0.264583"
         id="path927" />
    </g>
    <g
       aria-label="Split"
       id="text932"
       style="font-size:2.82223px;line-height:1.25;font-family:'PTQ Sans Narrow';-inkscape-font-specification:'PTQ Sans Narrow, Normal';stroke-width:0.264583"
       transform="translate(0.27995134,0.57841)">
      <path
         d="m 2.6297616,237.04721 -0.1157115,0.31891 c 0.1128892,0.0706 0.3076231,0.11007 0.5080015,0.11007 0.3838232,0 0.6124239,-0.19756 0.6124239,-0.58703 0,-0.0988 -0.019756,-0.18344 -0.053622,-0.25682 -0.070556,-0.14111 -0.1834449,-0.24836 -0.3104453,-0.3302 -0.1128892,-0.0706 -0.2286006,-0.14393 -0.3076231,-0.23425 -0.036689,-0.0395 -0.053622,-0.0875 -0.053622,-0.14111 0,-0.12418 0.093134,-0.1778 0.2286007,-0.1778 0.1298226,0 0.2737563,0.0423 0.3471343,0.0903 l 0.110067,-0.31326 c -0.1128892,-0.0649 -0.293512,-0.10443 -0.4741347,-0.10443 -0.3527788,0 -0.5672682,0.17498 -0.5672682,0.53058 0,0.10443 0.016933,0.19191 0.053622,0.26247 0.067733,0.14111 0.1806228,0.24553 0.3076231,0.32456 0.1128892,0.0734 0.2286006,0.14393 0.3104453,0.23706 0.033867,0.0423 0.053622,0.0931 0.053622,0.1524 0,0.14676 -0.095956,0.22014 -0.282223,0.22014 -0.1382893,0 -0.2878675,-0.0508 -0.3668899,-0.1016 z"
         style="stroke-width:0.264583"
         id="path934" />
      <path
         d="m 4.3626085,237.47619 c 0.39229,0 0.5277571,-0.34996 0.5277571,-0.78176 0,-0.25118 -0.036689,-0.4318 -0.110067,-0.53905 -0.073378,-0.10724 -0.1806227,-0.16369 -0.3217343,-0.16369 -0.1806227,0 -0.2681118,0.0762 -0.344312,0.19474 h -0.00847 l -0.033867,-0.16087 h -0.251175 v 1.97556 h 0.3358454 v -0.57291 c 0.056445,0.0367 0.1128892,0.048 0.2060228,0.048 z m 0.1806228,-0.79023 c 0,0.18063 -0.019756,0.30763 -0.059267,0.381 -0.039511,0.0734 -0.098778,0.11007 -0.172156,0.11007 -0.0762,0 -0.1185337,-0.0169 -0.1552227,-0.0564 v -0.66323 c 0.033867,-0.11006 0.095956,-0.16651 0.1919117,-0.16651 0.1693338,0 0.1947339,0.19191 0.1947339,0.39511 z"
         style="stroke-width:0.264583"
         id="path936" />
      <path
         d="m 5.3701408,237.47054 c 0.093134,0 0.2286007,-0.0254 0.282223,-0.0621 l -0.031045,-0.27093 c -0.039511,0.0169 -0.070556,0.0254 -0.1128892,0.0254 -0.079022,0 -0.084667,-0.0847 -0.084667,-0.18345 V 235.4611 H 5.0879178 v 1.69899 c 0,0.21449 0.079023,0.31044 0.282223,0.31044 z"
         style="stroke-width:0.264583"
         id="path938" />
      <path
         d="m 5.7962922,236.02556 v 1.41112 h 0.3358453 v -1.41112 z m 0.1665115,-0.20884 c 0.1241782,0 0.2173118,-0.0649 0.2173118,-0.18909 0,-0.12136 -0.093134,-0.19474 -0.2173118,-0.19474 -0.1241781,0 -0.2060228,0.0762 -0.2060228,0.19474 0,0.12135 0.081845,0.18909 0.2060228,0.18909 z"
         style="stroke-width:0.264583"
         id="path940" />
      <path
         d="m 6.7699574,237.47054 c 0.1185337,0 0.2342451,-0.031 0.3160898,-0.0734 l -0.042334,-0.26811 c -0.0508,0.0226 -0.087489,0.0339 -0.1495782,0.0339 -0.1044225,0 -0.110067,-0.096 -0.110067,-0.22296 v -0.61524 h 0.2737564 v -0.29916 H 6.7840685 v -0.36971 l -0.3358453,0.10442 v 0.26529 H 6.2930005 v 0.29916 h 0.1552227 v 0.73942 c 0,0.26247 0.079022,0.4064 0.3217342,0.4064 z"
         style="stroke-width:0.264583"
         id="path942" />
    </g>
    <g
       aria-label="1"
       id="text947"
       style="font-size:2.82223px;line-height:1.25;font-family:'PTQ Sans Narrow';-inkscape-font-specification:'PTQ Sans Narrow, Normal';stroke-width:0.264583"
       transform="translate(-0.70657888,-0.7502)">
      <path
         d="m 8.4361888,182.95547 v 0.29915 H 9.395747 v -0.29915 H 9.0796572 V 181.2452 H 8.8821011 l -0.5446904,0.53057 0.1552227,0.18909 0.1862672,-0.14393 0.1157114,-0.16651 -0.036689,0.19191 v 1.10914 z"
         style="stroke-width:0.264583"
         id="path963" />
    </g>
    <g
       aria-label="2"
       id="text951"
       style="font-size:2.82223px;line-height:1.25;font-family:'PTQ Sans Narrow';-inkscape-font-specification:'PTQ Sans Narrow, Normal';stroke-width:0.264583"
       transform="translate(-0.42844353,-0.3057654)">
      <path
         d="m 8.0889087,190.9701 0.1298226,0.24554 c 0.056445,-0.0508 0.1636893,-0.11007 0.2681119,-0.11007 0.1580448,0 0.2342451,0.10724 0.2286006,0.26529 0.00282,0.0649 -0.00564,0.13264 -0.0254,0.20602 -0.045156,0.16369 -0.1157114,0.31609 -0.1919116,0.45438 -0.1185337,0.20602 -0.2596452,0.41205 -0.4007567,0.58702 v 0.19474 h 0.9906028 v -0.29916 H 8.6505325 l -0.1693338,0.0423 v -0.0141 l 0.1241781,-0.11571 c 0.1072448,-0.14393 0.2173117,-0.3302 0.2991564,-0.51364 0.0762,-0.16651 0.1524004,-0.37536 0.1524004,-0.60114 0,-0.0847 -0.014111,-0.15804 -0.036689,-0.22295 -0.067733,-0.17216 -0.208845,-0.29069 -0.4402678,-0.29069 -0.2229562,0 -0.3725344,0.0706 -0.4910681,0.17215 z"
         style="stroke-width:0.264583"
         id="path966" />
    </g>
    <g
       aria-label="3"
       id="text955"
       style="font-size:2.82223px;line-height:1.25;font-family:'PTQ Sans Narrow';-inkscape-font-specification:'PTQ Sans Narrow, Normal';stroke-width:0.264583"
       transform="translate(-0.22336033,-0.08733481)">
      <path
         d="m 7.9741366,202.22485 -0.090311,0.28223 c 0.084667,0.0536 0.2624674,0.0875 0.4035789,0.0875 0.081845,0 0.1580449,-0.0113 0.2314229,-0.0395 0.2286006,-0.0818 0.3640676,-0.29633 0.3640676,-0.61242 0,-0.0903 -0.011289,-0.17216 -0.033867,-0.23989 -0.053622,-0.16651 -0.1693338,-0.29916 -0.3668899,-0.31609 l -0.1044226,0.0169 v -0.0141 l 0.1044226,-0.0762 0.3273787,-0.5334 V 200.5795 H 7.9064031 v 0.29916 h 0.3866455 l 0.1862672,-0.0254 -0.135467,0.127 -0.2794008,0.47413 v 0.19192 h 0.1665116 c 0.208845,0 0.3160898,0.10724 0.3160898,0.31891 0,0.18909 -0.095956,0.3302 -0.2822231,0.3302 -0.1213558,0 -0.2116672,-0.0282 -0.2906897,-0.0706 z"
         style="stroke-width:0.264583"
         id="path969" />
    </g>
    <g
       aria-label="4"
       id="text959"
       style="font-size:2.82223px;line-height:1.25;font-family:'PTQ Sans Narrow';-inkscape-font-specification:'PTQ Sans Narrow, Normal';stroke-width:0.264583"
       transform="translate(-0.18741528,-0.18325421)">
      <path
         d="m 8.9795948,212.12746 v -0.28787 H 8.7312385 v -1.15147 H 8.4377266 l -0.7224909,1.2305 v 0.20884 h 0.6970908 v 0.55034 h 0.318912 v -0.55034 z m -0.5672683,-0.72531 v 0.43744 H 8.1555036 l -0.1439337,0.0226 0.1128892,-0.10724 0.2229561,-0.37818 0.084667,-0.2286 h 0.011289 z"
         style="stroke-width:0.264583"
         id="path972" />
    </g>
    <rect
       style="fill:#555d50;fill-opacity:1;stroke:none;stroke-width:0.264583;stroke-opacity:1"
       id="rect1023"
       width="9"
       height="2"
       x="0.58000004"
       y="247.50002" />
    <g
       aria-label="1"
       id="text977"
       style="font-size:2.82223px;line-height:1.25;font-family:'PTQ Sans Narrow';-inkscape-font-specification:'PTQ Sans Narrow, Normal';fill:#fffff0;fill-opacity:1;stroke-width:0.264583"
       transform="translate(-6.333735,0.30900516)">
      <path
         d="m 7.9035245,249.89657 v 0.29915 h 0.9595582 v -0.29915 H 8.5469929 V 248.1863 H 8.3494368 l -0.5446904,0.53058 0.1552227,0.18909 0.1862672,-0.14394 0.1157114,-0.16651 -0.036689,0.19191 v 1.10914 z"
         style="fill:#fffff0;fill-opacity:1;stroke-width:0.264583"
         id="path991" />
    </g>
    <g
       aria-label="2"
       id="text981"
       style="font-size:2.82223px;line-height:1.25;font-family:'PTQ Sans Narrow';-inkscape-font-specification:'PTQ Sans Narrow, Normal';fill:#fffff0;fill-opacity:1;stroke-width:0.264583"
       transform="translate(-6.5801872,0.33160076)">
      <path
         d="m 8.080832,258.33305 0.1298226,0.24553 c 0.056445,-0.0508 0.1636894,-0.11006 0.2681119,-0.11006 0.1580449,0 0.2342451,0.10724 0.2286006,0.26528 0.00282,0.0649 -0.00564,0.13265 -0.0254,0.20603 -0.045156,0.16369 -0.1157115,0.31609 -0.1919117,0.45438 -0.1185337,0.20602 -0.2596452,0.41204 -0.4007567,0.58702 v 0.19473 h 0.9906028 v -0.29915 H 8.6424558 l -0.1693338,0.0423 v -0.0141 l 0.1241782,-0.11571 c 0.1072447,-0.14393 0.2173117,-0.3302 0.2991563,-0.51365 0.0762,-0.16651 0.1524005,-0.37535 0.1524005,-0.60113 0,-0.0847 -0.014111,-0.15805 -0.036689,-0.22296 -0.067734,-0.17215 -0.208845,-0.29069 -0.4402679,-0.29069 -0.2229562,0 -0.3725344,0.0706 -0.4910681,0.17216 z"
         style="fill:#fffff0;fill-opacity:1;stroke-width:0.264583"
         id="path994" />
    </g>
    <g
       aria-label="3"
       id="text985"
       style="font-size:2.82223px;line-height:1.25;font-family:'PTQ Sans Narrow';-inkscape-font-specification:'PTQ Sans Narrow, Normal';fill:#fffff0;fill-opacity:1;stroke-width:0.264583"
       transform="translate(-6.9127791,0.37763536)">
      <path
         d="m 8.5037349,269.76019 -0.090311,0.28223 c 0.084667,0.0536 0.2624674,0.0875 0.4035789,0.0875 0.081845,0 0.1580449,-0.0113 0.2314229,-0.0395 0.2286006,-0.0818 0.3640677,-0.29633 0.3640677,-0.61242 0,-0.0903 -0.011289,-0.17216 -0.033867,-0.23989 -0.053622,-0.16651 -0.1693338,-0.29916 -0.3668899,-0.31609 l -0.1044225,0.0169 v -0.0141 l 0.1044225,-0.0762 0.3273787,-0.5334 v -0.20038 H 8.4360014 v 0.29916 h 0.3866455 l 0.1862672,-0.0254 -0.1354671,0.127 -0.2794008,0.47413 v 0.19191 h 0.1665116 c 0.208845,0 0.3160898,0.10725 0.3160898,0.31892 0,0.18909 -0.095956,0.3302 -0.282223,0.3302 -0.1213559,0 -0.2116673,-0.0282 -0.2906897,-0.0706 z"
         style="fill:#fffff0;fill-opacity:1;stroke-width:0.264583"
         id="path997" />
    </g>
    <g
       aria-label="4"
       id="text989"
       style="font-size:2.82223px;line-height:1.25;font-family:'PTQ Sans Narrow';-inkscape-font-specification:'PTQ Sans Narrow, Normal';fill:#fffff0;fill-opacity:1;stroke-width:0.264583"
       transform="translate(-6.6318326,0.48837996)">
      <path
         d="m 9.2641917,279.45613 v -0.28786 H 9.0158355 v -1.15147 h -0.293512 l -0.7224909,1.23049 v 0.20884 h 0.6970909 v 0.55034 h 0.318912 v -0.55034 z m -0.5672682,-0.72531 v 0.43745 h -0.256823 l -0.1439337,0.0226 0.1128892,-0.10725 0.2229562,-0.37818 0.084667,-0.2286 h 0.011289 z"
         style="fill:#fffff0;fill-opacity:1;stroke-width:0.264583"
         id="path1000" />
    </g>
    <rect
       style="fill:none;fill-opacity:1;stroke:#555d50;stroke-width:0.264583;stroke-opacity:1"
       id="rect1019"
       width="8.7354164"
       height="53.23542"
       x="0.71229154"
       y="179.63226"
       rx="1"
       ry="1" />
    <rect
       style="fill:none;fill-opacity:1;stroke:#555d50;stroke-width:0.264583;stroke-opacity:1"
       id="rect1021"
       width="8.7231102"
       height="53.235416"
       x="0.71844465"
       y="235.13229"
       rx="1"
       ry="1" />
  </g>
  <g
     style="display:none"
     inkscape:label="components"
     id="layer2"
     inkscape:groupmode="layer">
    <circle
       inkscape:label="CV_Out"
       cy="74.25"
       cx="5.0799999"
       id="circle910"
       style="fill:#00ff00;fill-rule:evenodd;stroke-width:0.264582"
       r="4" />
    <circle
       inkscape:label="CV_Out"
       cy="59.25"
       cx="5.0799999"
       id="circle914"
       style="fill:#0000ff;fill-rule:evenodd;stroke-width:0.264582"
       r="4" />
    <circle
       inkscape:label="CV_Out"
       cy="85.000015"
       cx="5.0799999"
       id="circle918"
       style="fill:#0000ff;fill-rule:evenodd;stroke-width:0.264582"
       r="3.4000001" />
    <circle
       style="fill:#00ff00;fill-rule:evenodd;stroke-width:0.264582"
       id="circle922"
       cx="5.0799999"
       cy="16.99971"
       inkscape:label="CV_Out"
       r="3.4000001" />
    <circle
       inkscape:label="CV_Out"
       cy="95.000015"
       cx="5.0799999"
       id="circle884"
       style="fill:#0000ff;fill-rule:evenodd;stroke-width:0.264582"
       r="3.4000001" />
    <circle
       inkscape:label="CV_Out"
       cy="105.00002"
       cx="5.0799999"
       id="circle886"
       style="fill:#0000ff;fill-rule:evenodd;stroke-width:0.264582"
       r="3.4000001" />
    <circle
       inkscape:label="CV_Out"
       cy="115.00002"
       cx="5.0799999"
       id="circle888"
       style="fill:#0000ff;fill-rule:evenodd;stroke-width:0.264582"
       r="3.4000001" />
    <circle
       style="fill:#00ff00;fill-rule:evenodd;stroke-width:0.264582"
       id="circle890"
       cx="5.0799999"
       cy="26.99971"
       inkscape:label="CV_Out"
       r="3.4000001" />
    <circle
       style="fill:#00ff00;fill-rule:evenodd;stroke-width:0.264582"
       id="circle892"
       cx="5.0799999"
       cy="36.999706"
       inkscape:label="CV_Out"
       r="3.4000001" />
    <circle
       style="fill:#00ff00;fill-rule:evenodd;stroke-width:0.264582"
       id="circle894"
       cx="5.0799999"
       cy="46.999706"
       inkscape:label="CV_Out"
       r="3.4000001" />
  </g>
</svg>
