<?xml version="1.0" encoding="UTF-8"?>
<svg id="svg8" width="40.64mm" height="128.5mm" version="1.1" viewBox="0 0 40.64 128.5" xmlns="http://www.w3.org/2000/svg" xmlns:cc="http://creativecommons.org/ns#" xmlns:dc="http://purl.org/dc/elements/1.1/" xmlns:rdf="http://www.w3.org/1999/02/22-rdf-syntax-ns#">
 <metadata id="metadata5">
  <rdf:RDF>
   <cc:Work rdf:about="">
    <dc:format>image/svg+xml</dc:format>
    <dc:type rdf:resource="http://purl.org/dc/dcmitype/StillImage"/>
   </cc:Work>
  </rdf:RDF>
 </metadata>
 <g id="layer1">
  <rect id="rect838" width="40.64" height="128.5" fill="#242422"/>
  <rect id="rect278" x="16.175" y="106.62" width="22.34" height="13.25" rx="1" ry="1" fill="#242422" opacity=".994" stop-color="#000000" stroke="#555d50" stroke-width=".25"/>
  <text id="text1248" x="18.803024" y="18.018106" font-family="'PT Sans Narrow'" font-size="4.9389px" font-stretch="condensed" font-weight="bold" stroke-width=".26458" text-align="center" text-anchor="middle" style="line-height:1.25" xml:space="preserve"><tspan id="tspan1244" x="18.803024" y="18.018106" stroke-width=".26458" text-align="center" text-anchor="middle"/></text>
  <g id="text2533" transform="matrix(1.5 0 0 1.5 -15.75 -61.664)" fill="#fffff0" stroke-width=".17639" aria-label="GRANDE">
   <path id="path2535" d="m20.481 123.44c0.15522 0 0.28222-0.0564 0.35807-0.13406v-0.48683h-0.381v0.12171h0.24518v0.30162c-0.04586 0.0423-0.12524 0.067-0.20814 0.067-0.24694 0-0.38276-0.18168-0.38276-0.47272 0-0.28751 0.14817-0.46567 0.381-0.46567 0.11642 0 0.1905 0.0441 0.24871 0.10407l0.08114-0.0917c-0.06703-0.0723-0.17286-0.14288-0.33338-0.14288-0.30692 0-0.53093 0.22755-0.53093 0.59973 0 0.37747 0.21696 0.59972 0.52211 0.59972z"/>
   <path id="path2537" d="m21.484 123.42h0.14817v-0.48859h0.20814l0.2787 0.48859h0.16757l-0.29457-0.50447c0.15699-0.0406 0.25929-0.1464 0.25929-0.32632 0-0.24165-0.16933-0.32632-0.4057-0.32632h-0.3616zm0.14817-0.60854v-0.42862h0.19226c0.17992 0 0.2787 0.0547 0.2787 0.20637 0 0.14817-0.09878 0.22225-0.2787 0.22225z"/>
   <path id="path2539" d="m23.054 122.78c0.04057-0.12876 0.07761-0.25576 0.11289-0.38982h0.0071c0.03704 0.13406 0.07408 0.26106 0.11642 0.38982l0.05468 0.17462h-0.34572zm-0.35454 0.64558h0.14993l0.11112-0.35101h0.42157l0.10936 0.35101h0.15699l-0.38982-1.1571h-0.16933z"/>
   <path id="path2541" d="m24.183 123.42h0.13935v-0.60854c0-0.11994-0.01058-0.24518-0.0194-0.3616h0.0071c0.0388 0.0847 0.08114 0.1711 0.12524 0.24871l0.41275 0.72143h0.15875v-1.1571h-0.13935v0.60325c0 0.11995 0.01058 0.24695 0.0194 0.36689h-0.0071c-0.04057-0.0847-0.08114-0.1711-0.12524-0.24871l-0.41275-0.72143h-0.15875z"/>
   <path id="path2543" d="m25.693 123.42h0.29633c0.34925 0 0.53975-0.21519 0.53975-0.58384 0-0.36689-0.1905-0.57327-0.5468-0.57327h-0.28928zm0.14817-0.12171v-0.91369h0.13053c0.26988 0 0.40393 0.16051 0.40393 0.45156 0 0.2928-0.13406 0.46213-0.40393 0.46213z"/>
   <path id="path2545" d="m27.15 123.42h0.68439v-0.12523h-0.53622v-0.41981h0.43744v-0.12524h-0.43744v-0.36159h0.51858v-0.12524h-0.66675z"/>
  </g>
  <g id="text1138" transform="translate(1.139 .81796)" fill="#fffff0" stroke-width=".26458" aria-label="Poly Out">
   <path id="path1216" d="m27.202 106.74c-0.16369 0-0.33584 0.0198-0.46567 0.048v1.9558h0.3556v-0.68016c0.03669 0.0113 0.09878 0.0113 0.14676 0.0113h0.03669c0.41205 0 0.62936-0.25964 0.62936-0.68298 0-0.46002-0.25118-0.65193-0.70274-0.65193zm0.3302 0.64911c0 0.23142-0.09031 0.36971-0.31327 0.36971-0.02258 0-0.11289-8e-3 -0.127-0.0141v-0.67451c0.03669-8e-3 0.08467-0.0141 0.14393-0.0141 0.20038 0 0.29633 0.127 0.29633 0.33302z"/>
   <path id="path1218" d="m29.056 108.03c0-0.44026-0.14393-0.74224-0.5588-0.74224-0.40076 0-0.55598 0.30762-0.55598 0.74224 0 0.49672 0.18344 0.74225 0.55598 0.74225 0.40358 0 0.5588-0.30198 0.5588-0.74225zm-0.76765 0c0-0.16086 0.01693-0.27375 0.05362-0.34149 0.03669-0.0677 0.08749-0.1016 0.15522-0.1016 0.0762 0 0.12982 0.0395 0.16369 0.11289 0.03104 0.0762 0.04798 0.18627 0.04798 0.3302 0 0.16369-0.01976 0.27658-0.05362 0.34432-0.03387 0.0677-0.08749 0.0988-0.15804 0.0988-0.18344 0-0.20884-0.22577-0.20884-0.44309z"/>
   <path id="path1220" d="m29.536 108.77c0.09313 0 0.2286-0.0254 0.28222-0.0621l-0.03105-0.27093c-0.03951 0.0169-0.07055 0.0254-0.11289 0.0254-0.07902 0-0.08467-0.0847-0.08467-0.18345v-1.5184h-0.33584v1.699c0 0.21449 0.07902 0.31045 0.28222 0.31045z"/>
   <path id="path1222" d="m30.386 108.12-0.19756-0.79304h-0.40358l0.49107 1.4111c-0.02822 0.14394-0.08185 0.31327-0.24553 0.24836l-0.05645 0.28787c0.0508 0.031 0.127 0.0423 0.20884 0.0423 0.13264 0 0.20038-0.0903 0.254-0.19191 0.0762-0.14958 0.12418-0.33303 0.18062-0.52494l0.35278-1.2728h-0.34431l-0.16369 0.79022-0.0254 0.22296h-0.01411z"/>
   <path id="path1224" d="m32.88 107.75c0-0.55033-0.15522-1.0273-0.69991-1.0273-0.5334 0-0.69709 0.44873-0.69709 1.0273 0 0.55598 0.14676 1.0273 0.69709 1.0273 0.52776 0 0.69991-0.44873 0.69991-1.0273zm-1.0245 0c0-0.46567 0.10724-0.69991 0.32456-0.69991 0.06209 0 0.11289 0.0198 0.15522 0.0564 0.13547 0.12136 0.17216 0.381 0.17216 0.64347 0 0.24554-0.02822 0.42334-0.08184 0.5334-0.05644 0.11289-0.13829 0.16651-0.24553 0.16651-0.06209 0-0.11289-0.0169-0.1524-0.0536-0.14111-0.12135-0.17216-0.37535-0.17216-0.64629z"/>
   <path id="path1226" d="m33.442 108.78c0.18627 0 0.3048-0.1016 0.37254-0.2286h0.0085l0.05927 0.19191h0.254c-0.03104-0.11853-0.03951-0.27658-0.03951-0.42898v-0.98213h-0.33585v0.94262c-0.02822 0.096-0.09596 0.19756-0.20884 0.19756-0.13829 0-0.14393-0.127-0.14393-0.29634v-0.84384h-0.33584v0.91722c0 0.31327 0.06491 0.53058 0.36971 0.53058z"/>
   <path id="path1228" d="m34.709 108.77c0.11853 0 0.23424-0.031 0.31609-0.0734l-0.04233-0.26811c-0.0508 0.0226-0.08749 0.0339-0.14958 0.0339-0.10442 0-0.11007-0.096-0.11007-0.22296v-0.61525h0.27376v-0.29916h-0.27376v-0.36971l-0.33584 0.10442v0.26529h-0.15522v0.29915h0.15522v0.73943c0 0.26247 0.07902 0.4064 0.32173 0.4064z"/>
  </g>
  <g id="text1146" transform="translate(-.7371 1.7019)" fill="#fffff0" stroke-width=".26458" aria-label="2">
   <path id="path1175" d="m36.02 25.213 0.12982 0.24553c0.05645-0.0508 0.16369-0.11007 0.26811-0.11007 0.15804 0 0.23424 0.10724 0.2286 0.26529 0.0028 0.06491-0.0056 0.13264-0.0254 0.20602-0.04516 0.16369-0.11571 0.31609-0.19191 0.45438-0.11853 0.20602-0.25964 0.41205-0.40076 0.58702v0.19473h0.9906v-0.29916h-0.43744l-0.16933 0.04233v-0.01411l0.12418-0.11571c0.10724-0.14393 0.21731-0.3302 0.29916-0.51365 0.0762-0.16651 0.1524-0.37536 0.1524-0.60114 0-0.08467-0.01411-0.15804-0.03669-0.22296-0.06773-0.17216-0.20884-0.29069-0.44027-0.29069-0.22296 0-0.37254 0.07056-0.49107 0.17216z" fill="#fffff0" stroke-width=".26458"/>
  </g>
  <g id="text1142" transform="translate(-1.4127 3.1007)" fill="#fffff0" stroke-width=".26458" aria-label="1">
   <path id="path1172" d="m36.765 14.105v0.29916h0.95956v-0.29916h-0.31609v-1.7103h-0.19756l-0.54469 0.53058 0.15522 0.18909 0.18627-0.14393 0.11571-0.16651-0.03669 0.19191v1.1091z" fill="#fffff0" stroke-width=".26458"/>
  </g>
  <g id="text1150" transform="translate(-1.3183 1.9934)" fill="#fffff0" stroke-width=".26458" aria-label="3">
   <path id="path1178" d="m36.691 37.644-0.09031 0.28222c0.08467 0.05362 0.26247 0.08749 0.40358 0.08749 0.08184 0 0.15804-0.01129 0.23142-0.03951 0.2286-0.08184 0.36407-0.29633 0.36407-0.61242 0-0.09031-0.01129-0.17216-0.03387-0.23989-0.05362-0.16651-0.16933-0.29916-0.36689-0.31609l-0.10442 0.01693v-0.01411l0.10442-0.0762 0.32738-0.5334v-0.20038h-0.90311v0.29916h0.38664l0.18627-0.0254-0.13547 0.127-0.2794 0.47414v0.19191h0.16651c0.20884 0 0.31609 0.10724 0.31609 0.31891 0 0.18909-0.09596 0.3302-0.28222 0.3302-0.12136 0-0.21167-0.02822-0.29069-0.07055z" fill="#fffff0" stroke-width=".26458"/>
  </g>
  <g id="text1154" transform="translate(-1.0025 1.9666)" fill="#fffff0" stroke-width=".26458" aria-label="4">
   <path id="path1181" d="m37.417 48.728v-0.28787h-0.24836v-1.1515h-0.29351l-0.72249 1.2305v0.20884h0.69709v0.55033h0.31891v-0.55033zm-0.56727-0.72531v0.43745h-0.25682l-0.14393 0.02258 0.11289-0.10724 0.22296-0.37818 0.08467-0.2286h0.01129z" fill="#fffff0" stroke-width=".26458"/>
  </g>
  <g id="text1158" transform="translate(-.83426 .59911)" fill="#fffff0" stroke-width=".26458" aria-label="5">
   <path id="path1184" d="m36.618 60.613-0.09313 0.01129v-0.40358h0.5334v-0.32738h-0.82127v1.0301l0.18344-0.01129c0.23424 0 0.36124 0.1016 0.36124 0.33584 0 0.20602-0.10724 0.35278-0.31044 0.35278-0.11007 0-0.20038-0.01693-0.26811-0.05362l-0.08749 0.28504c0.08467 0.04516 0.23989 0.0762 0.37253 0.0762 0.09031 0 0.17216-0.01411 0.25118-0.04233 0.23424-0.08467 0.37818-0.3048 0.37818-0.63218 0-0.3556-0.17216-0.60678-0.49954-0.62089z" fill="#fffff0" stroke-width=".26458"/>
  </g>
  <g id="text1162" transform="translate(.12663 -.031279)" fill="#fffff0" stroke-width=".26458" aria-label="6">
   <path id="path1187" d="m35.44 72.703c0.06491-0.32738 0.26811-0.59267 0.5842-0.67451l-0.08467-0.27376c-0.11289 0.0254-0.21731 0.07056-0.31891 0.13829-0.32456 0.21731-0.52211 0.62089-0.52211 1.1684 0 0.12982 0.01411 0.24271 0.04233 0.33867 0.07056 0.23707 0.2286 0.40922 0.52776 0.40922 0.07902 0 0.14958-0.01411 0.21731-0.04516 0.2032-0.09031 0.32738-0.30762 0.32738-0.60678 0-0.1016-0.01411-0.18909-0.03669-0.26529-0.05927-0.19191-0.19191-0.34149-0.43462-0.34149-0.14958 0-0.24271 0.06773-0.30198 0.1524zm0.22013 0.80716c-0.04233 0-0.07902-0.0085-0.10724-0.03104-0.08749-0.06209-0.12982-0.18909-0.12982-0.34149v-0.06209c0-0.02258 0-0.04233 0.0028-0.06491 0.03104-0.08185 0.11289-0.16087 0.2286-0.16087 0.18062 0 0.23424 0.12982 0.23424 0.32738 0 0.18062-0.07056 0.33302-0.2286 0.33302z" fill="#fffff0" stroke-width=".26458"/>
  </g>
  <g id="text1166" transform="translate(.24833 1.1649)" fill="#fffff0" stroke-width=".26458" aria-label="7">
   <path id="path1190" d="m35.101 83.823h0.32738l0.64065-1.8683v-0.10724h-1.0696v0.32173h0.59549l0.14111-0.02822-0.1016 0.13829z" fill="#fffff0" stroke-width=".26458"/>
  </g>
  <g id="text1170" transform="translate(.48399 2.2469)" fill="#fffff0" stroke-width=".26458" aria-label="8">
   <path id="path1193" d="m35.55 92.95c0.13829-0.11853 0.23989-0.25118 0.23989-0.49671 0-0.29633-0.18909-0.47696-0.47978-0.47696-0.31609 0-0.50236 0.20884-0.50236 0.52211 0 0.23989 0.09878 0.37818 0.23707 0.48542-0.15522 0.11571-0.2794 0.26811-0.2794 0.5334 0 0.08184 0.01129 0.15522 0.03669 0.21731 0.07056 0.18062 0.23989 0.29633 0.49107 0.29633 0.0762 0 0.14676-0.01129 0.21449-0.03669 0.19191-0.07056 0.32456-0.24271 0.32456-0.508 0-0.27376-0.11007-0.41487-0.28222-0.53622zm-0.25118 0.78176c-0.14958 0-0.22578-0.127-0.22578-0.2794 0-0.15804 0.06773-0.26247 0.17498-0.34431 0.11571 0.09031 0.25964 0.17498 0.25964 0.37818 0 0.1524-0.06773 0.24553-0.20884 0.24553zm0.0085-1.4563c0.11571 0 0.1778 0.11571 0.1778 0.24271 0 0.14958-0.05645 0.23424-0.12982 0.32174-0.11289-0.06773-0.22578-0.1524-0.22578-0.33585 0-0.11853 0.05362-0.2286 0.1778-0.2286z" fill="#fffff0" stroke-width=".26458"/>
  </g>
  <g id="text1085" transform="translate(-2.4068 -.88696)" fill="#fffff0" stroke-width=".26458" aria-label="Notes/Oct">
   <path id="path1087" d="m5.8169 107.75 0.56162 0.98496h0.27376v-1.9897h-0.33585v0.98496l0.045156 0.33584h-0.016934l-0.12136-0.34149-0.56727-0.99342h-0.27376v1.9897h0.33585v-0.97649l-0.045156-0.34149h0.014111z"/>
   <path id="path1089" d="m7.9647 108.02c0-0.44026-0.14393-0.74224-0.5588-0.74224-0.40076 0-0.55598 0.30762-0.55598 0.74224 0 0.49672 0.18344 0.74225 0.55598 0.74225 0.40358 0 0.5588-0.30198 0.5588-0.74225zm-0.76765 0c0-0.16086 0.016933-0.27375 0.053622-0.34149 0.036689-0.0677 0.087489-0.1016 0.15522-0.1016 0.0762 0 0.12982 0.0395 0.16369 0.11289 0.031045 0.0762 0.047978 0.18627 0.047978 0.3302 0 0.16369-0.019756 0.27658-0.053622 0.34432-0.033867 0.0677-0.087489 0.0988-0.15804 0.0988-0.18344 0-0.20884-0.22578-0.20884-0.44309z"/>
   <path id="path1091" d="m8.5235 108.76c0.11853 0 0.23425-0.031 0.31609-0.0734l-0.042333-0.26811c-0.0508 0.0226-0.087489 0.0339-0.14958 0.0339-0.10442 0-0.11007-0.0959-0.11007-0.22295v-0.61525h0.27376v-0.29915h-0.27376v-0.36972l-0.33585 0.10443v0.26529h-0.15522v0.29915h0.15522v0.73943c0 0.26246 0.079023 0.4064 0.32173 0.4064z"/>
   <path id="path1093" d="m9.5479 108.47c-0.21449 0-0.28505-0.14393-0.29069-0.36124h0.6858c0.014111-0.0931 0.028222-0.18345 0.028222-0.28505 0-0.33584-0.14958-0.55316-0.47413-0.55316-0.18062 0-0.31891 0.0621-0.42051 0.18345-0.1016 0.12136-0.14958 0.30762-0.14958 0.56162 0 0.42616 0.13547 0.74225 0.5588 0.74225 0.17216 0 0.35278-0.0593 0.44591-0.14111l-0.10442-0.23425c-0.059267 0.048-0.17216 0.0875-0.2794 0.0875zm0.11007-0.5842h-0.38947c0.00847-0.17216 0.056445-0.32738 0.22296-0.32738 0.14393 0 0.17498 0.15805 0.16651 0.32738z"/>
   <path id="path1095" d="m10.51 108.47c-0.11853 0-0.22578-0.0395-0.29916-0.0847l-0.09313 0.27093c0.08749 0.0621 0.254 0.1016 0.4064 0.1016 0.29069 0 0.47131-0.1524 0.47131-0.4318 0-0.29351-0.2032-0.38382-0.38664-0.49107-0.06209-0.0339-0.13547-0.0734-0.13547-0.15804 0-0.0762 0.04515-0.11572 0.13829-0.11572 0.09596 0 0.20884 0.0367 0.2794 0.0649l0.07902-0.25965c-0.09313-0.0536-0.25682-0.0931-0.40922-0.0931-0.27376 0-0.42334 0.14393-0.42334 0.41204 0 0.29351 0.20602 0.37818 0.38665 0.48543 0.06209 0.0367 0.13547 0.0847 0.13547 0.17497 0 0.0875-0.06491 0.12418-0.14958 0.12418z"/>
   <path id="path1097" d="m11.831 106.71-0.82974 2.3058 0.25964 0.0988 0.82691-2.3058z"/>
   <path id="path1099" d="m13.516 107.73c0-0.55033-0.15522-1.0273-0.69991-1.0273-0.5334 0-0.69709 0.44873-0.69709 1.0273 0 0.55598 0.14676 1.0273 0.69709 1.0273 0.52776 0 0.69991-0.44873 0.69991-1.0273zm-1.0245 0c0-0.46567 0.10724-0.69991 0.32456-0.69991 0.06209 0 0.11289 0.0198 0.15522 0.0564 0.13547 0.12136 0.17216 0.381 0.17216 0.64347 0 0.24553-0.02822 0.42333-0.08184 0.5334-0.05645 0.11289-0.13829 0.16651-0.24553 0.16651-0.06209 0-0.11289-0.0169-0.1524-0.0536-0.14111-0.12136-0.17216-0.37536-0.17216-0.64629z"/>
   <path id="path1101" d="m14.269 108.45c-0.20038 0-0.254-0.21732-0.254-0.43463 0-0.1524 0.01976-0.26246 0.05927-0.3302 0.03951-0.0677 0.09878-0.10442 0.1778-0.10442 0.09313 0 0.14111 0.0198 0.20884 0.0508l0.07902-0.2794c-0.09596-0.0508-0.19473-0.079-0.34996-0.079-0.39229 0-0.52211 0.31609-0.52211 0.74224 0 0.41487 0.10724 0.74225 0.51647 0.74225 0.14393 0 0.28222-0.0452 0.36689-0.11289l-0.07056-0.25964c-0.05927 0.0395-0.11853 0.0649-0.21167 0.0649z"/>
   <path id="path1103" d="m15.074 108.76c0.11853 0 0.23425-0.031 0.31609-0.0734l-0.04233-0.26811c-0.0508 0.0226-0.08749 0.0339-0.14958 0.0339-0.10442 0-0.11007-0.0959-0.11007-0.22295v-0.61525h0.27376v-0.29915h-0.27376v-0.36972l-0.33585 0.10443v0.26529h-0.15522v0.29915h0.15522v0.73943c0 0.26246 0.07902 0.4064 0.32173 0.4064z"/>
  </g>
  <g id="text1114" transform="translate(-2.0128 -1.6928)" fill="#fffff0" stroke-width=".26458" aria-label="Channels">
   <path id="path1116" d="m19.811 112.14c-0.0762 0-0.14111-0.0169-0.19473-0.0508-0.17498-0.11006-0.23142-0.35842-0.23142-0.64911 0-0.23989 0.03387-0.41769 0.10442-0.53058 0.06773-0.11289 0.16933-0.16933 0.29916-0.16933 0.12136 0 0.21731 0.0197 0.29633 0.0593l0.07056-0.31327c-0.10442-0.0452-0.24836-0.0734-0.40922-0.0734-0.22296 0-0.38947 0.0818-0.50518 0.21449-0.15804 0.1778-0.2286 0.45156-0.2286 0.80998 0 0.19191 0.01693 0.3556 0.05645 0.48542 0.09031 0.31892 0.2794 0.54469 0.66887 0.54469 0.16651 0 0.34713-0.0395 0.44027-0.11853l-0.07055-0.29916c-0.07902 0.0508-0.16651 0.0903-0.29634 0.0903z"/>
   <path id="path1118" d="m21.025 110.98c-0.16651 0-0.26811 0.0706-0.33867 0.16369h-0.0085v-0.69145h-0.33585v1.9756h0.33585v-0.97084c0.02258-0.0847 0.09878-0.16934 0.20038-0.16934 0.14393 0 0.16369 0.12136 0.16369 0.28787v0.85231h0.33585v-0.92569c0-0.30198-0.05927-0.52211-0.35278-0.52211z"/>
   <path id="path1120" d="m22.032 111.28c0.17216 0 0.18627 0.12136 0.17216 0.31045-0.381-0.0198-0.66887 0.0931-0.66887 0.45155 0 0.23707 0.127 0.40923 0.35842 0.40923 0.16651 0 0.27093-0.079 0.33302-0.18909h0.01129l0.05362 0.17215h0.27376c-0.08467-0.27093-0.0254-0.64064-0.0254-0.9652 0-0.31044-0.11571-0.47695-0.42898-0.47695-0.2032 0-0.381 0.0423-0.49954 0.11288l0.08467 0.25118c0.08185-0.0423 0.21167-0.0762 0.33584-0.0762zm-0.14958 0.70556c0-0.16087 0.16087-0.19756 0.32738-0.1778v0.23424c-0.03387 0.0649-0.09878 0.12136-0.19473 0.12136-0.09596 0-0.13264-0.0734-0.13264-0.1778z"/>
   <path id="path1122" d="m23.458 110.99c-0.18627 0-0.29916 0.0875-0.36689 0.19756h-0.0085l-0.03951-0.16369h-0.26811v1.4111h0.33584v-0.97931c0.0254-0.079 0.09596-0.15805 0.2032-0.15805 0.14111 0 0.16087 0.11289 0.16087 0.2794v0.85796h0.33584v-0.9398c0-0.29351-0.06773-0.50518-0.35278-0.50518z"/>
   <path id="path1124" d="m24.725 110.99c-0.18627 0-0.29916 0.0875-0.36689 0.19756h-0.0085l-0.03951-0.16369h-0.26811v1.4111h0.33585v-0.97931c0.0254-0.079 0.09596-0.15805 0.2032-0.15805 0.14111 0 0.16087 0.11289 0.16087 0.2794v0.85796h0.33585v-0.9398c0-0.29351-0.06773-0.50518-0.35278-0.50518z"/>
   <path id="path1126" d="m25.879 112.18c-0.21449 0-0.28504-0.14393-0.29069-0.36124h0.6858c0.01411-0.0931 0.02822-0.18345 0.02822-0.28505 0-0.33584-0.14958-0.55315-0.47413-0.55315-0.18062 0-0.31891 0.0621-0.42051 0.18344-0.1016 0.12136-0.14958 0.30762-0.14958 0.56162 0 0.42616 0.13547 0.74225 0.5588 0.74225 0.17216 0 0.35278-0.0593 0.44591-0.14111l-0.10442-0.23425c-0.05927 0.048-0.17216 0.0875-0.2794 0.0875zm0.11007-0.5842h-0.38947c0.0085-0.17215 0.05645-0.32738 0.22296-0.32738 0.14393 0 0.17498 0.15805 0.16651 0.32738z"/>
   <path id="path1128" d="m26.805 112.46c0.09313 0 0.2286-0.0254 0.28222-0.0621l-0.03104-0.27093c-0.03951 0.0169-0.07056 0.0254-0.11289 0.0254-0.07902 0-0.08467-0.0847-0.08467-0.18345v-1.5184h-0.33584v1.699c0 0.21449 0.07902 0.31045 0.28222 0.31045z"/>
   <path id="path1130" d="m27.527 112.18c-0.11853 0-0.22578-0.0395-0.29916-0.0847l-0.09313 0.27093c0.08749 0.0621 0.254 0.1016 0.4064 0.1016 0.29069 0 0.47131-0.1524 0.47131-0.4318 0-0.29351-0.2032-0.38382-0.38664-0.49107-0.06209-0.0339-0.13547-0.0734-0.13547-0.15804 0-0.0762 0.04516-0.11571 0.13829-0.11571 0.09596 0 0.20884 0.0367 0.2794 0.0649l0.07902-0.25965c-0.09313-0.0536-0.25682-0.0931-0.40922-0.0931-0.27376 0-0.42334 0.14393-0.42334 0.41204 0 0.29352 0.20602 0.37818 0.38665 0.48543 0.06209 0.0367 0.13547 0.0847 0.13547 0.17498 0 0.0875-0.06491 0.12417-0.14958 0.12417z"/>
  </g>
  <g id="text1137" transform="translate(-1.1626 1.188)" fill="#fffff0" stroke-width=".26458" aria-label="Outputs">
   <path id="path1139" d="m28.514 11.839c0-0.55034-0.15522-1.0273-0.69991-1.0273-0.5334 0-0.69709 0.44873-0.69709 1.0273 0 0.55598 0.14676 1.0273 0.69709 1.0273 0.52776 0 0.69991-0.44873 0.69991-1.0273zm-1.0245 0c0-0.46567 0.10724-0.69991 0.32456-0.69991 0.06209 0 0.11289 0.01976 0.15522 0.05645 0.13547 0.12136 0.17216 0.381 0.17216 0.64347 0 0.24553-0.02822 0.42334-0.08185 0.5334-0.05645 0.11289-0.13829 0.16651-0.24553 0.16651-0.06209 0-0.11289-0.01693-0.1524-0.05362-0.14111-0.12136-0.17216-0.37536-0.17216-0.64629z"/>
   <path id="path1141" d="m29.075 12.864c0.18627 0 0.3048-0.1016 0.37254-0.2286h0.0085l0.05927 0.19191h0.254c-0.03104-0.11853-0.03951-0.27658-0.03951-0.42898v-0.98214h-0.33585v0.94262c-0.02822 0.09596-0.09596 0.19756-0.20884 0.19756-0.13829 0-0.14393-0.127-0.14393-0.29633v-0.84385h-0.33585v0.91722c0 0.31327 0.06491 0.53058 0.36971 0.53058z"/>
   <path id="path1143" d="m30.343 12.861c0.11853 0 0.23424-0.03104 0.31609-0.07338l-0.04233-0.26811c-0.0508 0.02258-0.08749 0.03387-0.14958 0.03387-0.10442 0-0.11007-0.09596-0.11007-0.22296v-0.61525h0.27376v-0.29916h-0.27376v-0.36971l-0.33584 0.10442v0.26529h-0.15522v0.29916h0.15522v0.73942c0 0.26247 0.07902 0.4064 0.32173 0.4064z"/>
   <path id="path1145" d="m31.339 12.867c0.39229 0 0.52776-0.34996 0.52776-0.78176 0-0.25118-0.03669-0.4318-0.11007-0.53905-0.07338-0.10724-0.18062-0.16369-0.32173-0.16369-0.18062 0-0.26811 0.0762-0.34431 0.19473h-0.0085l-0.03387-0.16087h-0.25118v1.9756h0.33584v-0.57291c0.05645 0.03669 0.11289 0.04798 0.20602 0.04798zm0.18062-0.79022c0 0.18062-0.01976 0.30762-0.05927 0.381-0.03951 0.07338-0.09878 0.11007-0.17216 0.11007-0.0762 0-0.11853-0.01693-0.15522-0.05645v-0.66322c0.03387-0.11007 0.09596-0.16651 0.19191-0.16651 0.16933 0 0.19473 0.19191 0.19473 0.39511z"/>
   <path id="path1147" d="m32.417 12.864c0.18627 0 0.3048-0.1016 0.37253-0.2286h0.0085l0.05927 0.19191h0.254c-0.03104-0.11853-0.03951-0.27658-0.03951-0.42898v-0.98214h-0.33584v0.94262c-0.02822 0.09596-0.09596 0.19756-0.20884 0.19756-0.13829 0-0.14393-0.127-0.14393-0.29633v-0.84385h-0.33584v0.91722c0 0.31327 0.06491 0.53058 0.36971 0.53058z"/>
   <path id="path1149" d="m33.684 12.861c0.11853 0 0.23424-0.03104 0.31609-0.07338l-0.04233-0.26811c-0.0508 0.02258-0.08749 0.03387-0.14958 0.03387-0.10442 0-0.11007-0.09596-0.11007-0.22296v-0.61525h0.27376v-0.29916h-0.27376v-0.36971l-0.33585 0.10442v0.26529h-0.15522v0.29916h0.15522v0.73942c0 0.26247 0.07902 0.4064 0.32174 0.4064z"/>
   <path id="path1151" d="m34.463 12.576c-0.11853 0-0.22578-0.03951-0.29916-0.08467l-0.09313 0.27094c0.08749 0.06209 0.254 0.1016 0.4064 0.1016 0.29069 0 0.47131-0.1524 0.47131-0.4318 0-0.29351-0.2032-0.38382-0.38664-0.49107-0.06209-0.03387-0.13547-0.07338-0.13547-0.15804 0-0.0762 0.04516-0.11571 0.13829-0.11571 0.09596 0 0.20884 0.03669 0.2794 0.06491l0.07902-0.25965c-0.09313-0.05362-0.25682-0.09313-0.40922-0.09313-0.27376 0-0.42333 0.14393-0.42333 0.41204 0 0.29351 0.20602 0.37818 0.38664 0.48542 0.06209 0.03669 0.13547 0.08467 0.13547 0.17498 0 0.08749-0.06491 0.12418-0.14958 0.12418z"/>
  </g>
  <g id="text1156" transform="translate(-7.8223 -2.7556)" fill="#fffff0" stroke-width=".26458" aria-label="Notes">
   <path id="path1179" d="m23.77 15.774 0.56162 0.98496h0.27376v-1.9897h-0.33584v0.98496l0.04516 0.33584h-0.01693l-0.12136-0.34149-0.56727-0.99342h-0.27376v1.9897h0.33584v-0.97649l-0.04515-0.34149h0.01411z"/>
   <path id="path1182" d="m25.918 16.04c0-0.44027-0.14393-0.74225-0.5588-0.74225-0.40076 0-0.55598 0.30762-0.55598 0.74225 0 0.49671 0.18344 0.74225 0.55598 0.74225 0.40358 0 0.5588-0.30198 0.5588-0.74225zm-0.76765 0c0-0.16087 0.01693-0.27376 0.05362-0.34149 0.03669-0.06773 0.08749-0.1016 0.15522-0.1016 0.0762 0 0.12982 0.03951 0.16369 0.11289 0.03104 0.0762 0.04798 0.18627 0.04798 0.3302 0 0.16369-0.01975 0.27658-0.05362 0.34431-0.03387 0.06773-0.08749 0.09878-0.15804 0.09878-0.18344 0-0.20884-0.22578-0.20884-0.44309z"/>
   <path id="path1185" d="m26.477 16.779c0.11853 0 0.23424-0.03104 0.31609-0.07338l-0.04233-0.26811c-0.0508 0.02258-0.08749 0.03387-0.14958 0.03387-0.10442 0-0.11007-0.09596-0.11007-0.22296v-0.61525h0.27376v-0.29916h-0.27376v-0.36971l-0.33584 0.10442v0.26529h-0.15522v0.29916h0.15522v0.73942c0 0.26247 0.07902 0.4064 0.32173 0.4064z"/>
   <path id="path1188" d="m27.501 16.494c-0.21449 0-0.28505-0.14393-0.29069-0.36124h0.6858c0.01411-0.09313 0.02822-0.18344 0.02822-0.28505 0-0.33584-0.14958-0.55316-0.47414-0.55316-0.18062 0-0.31891 0.06209-0.42051 0.18344-0.1016 0.12136-0.14958 0.30762-0.14958 0.56162 0 0.42616 0.13547 0.74225 0.5588 0.74225 0.17216 0 0.35278-0.05927 0.44591-0.14111l-0.10442-0.23424c-0.05927 0.04798-0.17216 0.08749-0.2794 0.08749zm0.11007-0.5842h-0.38947c0.0085-0.17216 0.05644-0.32738 0.22296-0.32738 0.14393 0 0.17498 0.15804 0.16651 0.32738z"/>
   <path id="path1191" d="m28.464 16.494c-0.11853 0-0.22578-0.03951-0.29916-0.08467l-0.09313 0.27093c0.08749 0.06209 0.254 0.1016 0.4064 0.1016 0.29069 0 0.47131-0.1524 0.47131-0.4318 0-0.29351-0.2032-0.38382-0.38665-0.49107-0.06209-0.03387-0.13547-0.07338-0.13547-0.15804 0-0.0762 0.04516-0.11571 0.13829-0.11571 0.09596 0 0.20884 0.03669 0.2794 0.06491l0.07902-0.25964c-0.09313-0.05362-0.25682-0.09313-0.40922-0.09313-0.27376 0-0.42334 0.14393-0.42334 0.41205 0 0.29351 0.20602 0.37818 0.38665 0.48542 0.06209 0.03669 0.13547 0.08467 0.13547 0.17498 0 0.08749-0.06491 0.12418-0.14958 0.12418z"/>
  </g>
  <g id="text1160" transform="translate(4.2632 -3.369)" fill="#fffff0" stroke-width=".26458" aria-label="Octaves">
   <path id="path1162" d="m0.90287 16.396c0-0.55034-0.15522-1.0273-0.69991-1.0273-0.5334 0-0.69709 0.44874-0.69709 1.0273 0 0.55598 0.14676 1.0273 0.69709 1.0273 0.52776 0 0.69991-0.44874 0.69991-1.0273zm-1.0245 0c0-0.46567 0.10724-0.69991 0.32456-0.69991 0.062089 0 0.11289 0.01976 0.15522 0.05645 0.13547 0.12136 0.17216 0.381 0.17216 0.64347 0 0.24553-0.028222 0.42334-0.081845 0.5334-0.056445 0.11289-0.13829 0.16651-0.24553 0.16651-0.062089 0-0.11289-0.01693-0.1524-0.05362-0.14111-0.12136-0.17216-0.37536-0.17216-0.64629z"/>
   <path id="path1164" d="m1.6564 17.113c-0.20038 0-0.254-0.21731-0.254-0.43462 0-0.1524 0.019756-0.26247 0.059267-0.3302 0.039511-0.06773 0.098778-0.10442 0.1778-0.10442 0.093134 0 0.14111 0.01975 0.20884 0.0508l0.079023-0.2794c-0.095956-0.0508-0.19473-0.07902-0.34996-0.07902-0.39229 0-0.52211 0.31609-0.52211 0.74225 0 0.41487 0.10724 0.74225 0.51647 0.74225 0.14393 0 0.28222-0.04516 0.36689-0.11289l-0.070556-0.25965c-0.059267 0.03951-0.11853 0.06491-0.21167 0.06491z"/>
   <path id="path1166" d="m2.4607 17.418c0.11853 0 0.23425-0.03104 0.31609-0.07338l-0.042334-0.26811c-0.0508 0.02258-0.087489 0.03387-0.14958 0.03387-0.10442 0-0.11007-0.09596-0.11007-0.22296v-0.61525h0.27376v-0.29916h-0.27376v-0.36971l-0.33585 0.10442v0.26529h-0.15522v0.29916h0.15522v0.73942c0 0.26247 0.079022 0.4064 0.32173 0.4064z"/>
   <path id="path1168" d="m3.3384 16.233c0.17216 0 0.18627 0.12136 0.17216 0.31044-0.381-0.01976-0.66887 0.09313-0.66887 0.45156 0 0.23707 0.127 0.40922 0.35842 0.40922 0.16651 0 0.27093-0.07902 0.33302-0.18909h0.011289l0.053622 0.17216h0.27376c-0.084667-0.27093-0.0254-0.64065-0.0254-0.9652 0-0.31044-0.11571-0.47696-0.42898-0.47696-0.2032 0-0.381 0.04233-0.49953 0.11289l0.084667 0.25118c0.081845-0.04233 0.21167-0.0762 0.33585-0.0762zm-0.14958 0.70556c0-0.16087 0.16087-0.19756 0.32738-0.1778v0.23424c-0.033867 0.06491-0.098778 0.12136-0.19473 0.12136-0.095956 0-0.13264-0.07338-0.13264-0.1778z"/>
   <path id="path1170" d="m4.5097 16.71-0.19473-0.7366h-0.39229l0.49953 1.4252h0.22578l0.47413-1.4252h-0.36125l-0.17498 0.73378-0.031045 0.22578h-0.011289z"/>
   <path id="path1173" d="m5.7599 17.133c-0.21449 0-0.28505-0.14393-0.29069-0.36124h0.6858c0.014111-0.09313 0.028222-0.18344 0.028222-0.28505 0-0.33584-0.14958-0.55316-0.47413-0.55316-0.18062 0-0.31891 0.06209-0.42051 0.18344-0.1016 0.12136-0.14958 0.30762-0.14958 0.56162 0 0.42616 0.13547 0.74225 0.5588 0.74225 0.17216 0 0.35278-0.05927 0.44591-0.14111l-0.10442-0.23424c-0.059267 0.04798-0.17216 0.08749-0.2794 0.08749zm0.11007-0.5842h-0.38947c0.00847-0.17216 0.056445-0.32738 0.22296-0.32738 0.14393 0 0.17498 0.15804 0.16651 0.32738z"/>
   <path id="path1176" d="m6.7223 17.133c-0.11853 0-0.22578-0.03951-0.29916-0.08467l-0.093134 0.27093c0.087489 0.06209 0.254 0.1016 0.4064 0.1016 0.29069 0 0.47131-0.1524 0.47131-0.4318 0-0.29351-0.2032-0.38382-0.38665-0.49107-0.062089-0.03387-0.13547-0.07338-0.13547-0.15804 0-0.0762 0.045156-0.11571 0.13829-0.11571 0.095956 0 0.20884 0.03669 0.2794 0.06491l0.079022-0.25964c-0.093134-0.05362-0.25682-0.09313-0.40922-0.09313-0.27376 0-0.42333 0.14393-0.42333 0.41204 0 0.29351 0.20602 0.37818 0.38665 0.48542 0.062089 0.03669 0.13547 0.08467 0.13547 0.17498 0 0.08749-0.064911 0.12418-0.14958 0.12418z"/>
  </g>
  <rect id="rect1673" x="2.125" y="11.125" width="36.39" height="93.25" rx="1" ry="1" fill="none" opacity=".994" stop-color="#000000" stroke="#555d50" stroke-width=".25"/>
  <text id="text1110" x="19.557768" y="3.3306198" font-family="'PTQ Sans Narrow'" font-size="2.8222px" stroke-width=".26458" text-align="center" text-anchor="middle" style="line-height:1.25" xml:space="preserve"><tspan id="tspan1108" x="19.557768" y="3.3306198" stroke-width=".26458"/></text>
  <g id="text1115" transform="translate(3.2121 5.3401)" fill="#fffff0" stroke-width=".26458" aria-label="Microtonal Notes">
   <path id="path1117" d="m4.5326 1.8836v1.7829h0.6223v-3.4572h-0.58773l-0.67663 1.4866-0.11359 0.43956h-0.019756l-0.11853-0.42968-0.72108-1.4965h-0.59761v3.4572h0.58773v-1.7879l-0.093839-0.66675h0.029633l0.18274 0.59761 0.59761 1.2199h0.20743l0.56303-1.215 0.18274-0.59267h0.024694z"/>
   <path id="path1119" d="m5.6389 1.1971v2.4694h0.58773v-2.4694zm0.2914-0.36548c0.21731 0 0.3803-0.11359 0.3803-0.33091 0-0.21237-0.16298-0.34078-0.3803-0.34078s-0.36054 0.13335-0.36054 0.34078c0 0.21237 0.14323 0.33091 0.36054 0.33091z"/>
   <path id="path1121" d="m7.6638 3.1924c-0.35066 0-0.4445-0.3803-0.4445-0.76059 0-0.2667 0.034572-0.45932 0.10372-0.57785 0.069145-0.11853 0.17286-0.18274 0.31115-0.18274 0.16298 0 0.24694 0.034572 0.36548 0.0889l0.13829-0.48895c-0.16792-0.0889-0.34078-0.13829-0.61242-0.13829-0.68651 0-0.9137 0.55316-0.9137 1.2989 0 0.72602 0.18768 1.2989 0.90382 1.2989 0.25188 0 0.49389-0.079022 0.64206-0.19756l-0.12347-0.45438c-0.10372 0.069145-0.20743 0.11359-0.37042 0.11359z"/>
   <path id="path1123" d="m8.9677 1.4934h-0.019756l-0.069145-0.29633h-0.44944v2.4694h0.58773v-1.6496c0.039511-0.15804 0.16298-0.28152 0.36054-0.28152 0.064206 0 0.13829 0.014817 0.21731 0.04445l0.069145-0.58279c-0.079022-0.029633-0.15311-0.049389-0.23213-0.049389-0.24201 0-0.39511 0.16298-0.46426 0.34572z"/>
   <path id="path1125" d="m11.738 2.4318c0-0.77047-0.25188-1.2989-0.9779-1.2989-0.70132 0-0.97296 0.53834-0.97296 1.2989 0 0.86925 0.32103 1.2989 0.97296 1.2989 0.70626 0 0.9779-0.52846 0.9779-1.2989zm-1.3434 0c0-0.28152 0.02963-0.47907 0.09384-0.59761s0.15311-0.1778 0.27164-0.1778c0.13335 0 0.22719 0.069145 0.28646 0.19756 0.05433 0.13335 0.08396 0.32597 0.08396 0.57785 0 0.28646-0.03457 0.48401-0.09384 0.60255s-0.15311 0.17286-0.27658 0.17286c-0.32103 0-0.36548-0.39511-0.36548-0.77541z"/>
   <path id="path1127" d="m12.716 3.7258c0.20743 0 0.40993-0.054328 0.55316-0.12841l-0.07408-0.4692c-0.0889 0.039511-0.15311 0.059267-0.26176 0.059267-0.18274 0-0.19262-0.16792-0.19262-0.39017v-1.0767h0.47907v-0.52352h-0.47907v-0.647l-0.58773 0.18274v0.46426h-0.27164v0.52352h0.27164v1.294c0 0.45932 0.13829 0.7112 0.56304 0.7112z"/>
   <path id="path1129" d="m15.373 2.4318c0-0.77047-0.25188-1.2989-0.9779-1.2989-0.70132 0-0.97296 0.53834-0.97296 1.2989 0 0.86925 0.32103 1.2989 0.97296 1.2989 0.70626 0 0.9779-0.52846 0.9779-1.2989zm-1.3434 0c0-0.28152 0.02963-0.47907 0.09384-0.59761s0.1531-0.1778 0.27164-0.1778c0.13335 0 0.22719 0.069145 0.28646 0.19756 0.05433 0.13335 0.08396 0.32597 0.08396 0.57785 0 0.28646-0.03457 0.48401-0.09384 0.60255s-0.1531 0.17286-0.27658 0.17286c-0.32103 0-0.36548-0.39511-0.36548-0.77541z"/>
   <path id="path1131" d="m16.904 1.1378c-0.32597 0-0.52352 0.15311-0.64206 0.34572h-0.01482l-0.06914-0.28646h-0.4692v2.4694h0.58773v-1.7138c0.04445-0.13829 0.16792-0.27658 0.3556-0.27658 0.24694 0 0.28152 0.19756 0.28152 0.48895v1.5014h0.58773v-1.6447c0-0.51365-0.11853-0.88406-0.61736-0.88406z"/>
   <path id="path1133" d="m18.668 1.6515c0.30127 0 0.32597 0.21237 0.30127 0.54328-0.66675-0.034572-1.1705 0.16298-1.1705 0.79022 0 0.41487 0.22225 0.71614 0.62724 0.71614 0.2914 0 0.47413-0.13829 0.58279-0.33091h0.01976l0.09384 0.30127h0.47907c-0.14817-0.47413-0.04445-1.1211-0.04445-1.6891 0-0.54328-0.2025-0.83467-0.75071-0.83467-0.3556 0-0.66675 0.074083-0.87418 0.19756l0.14817 0.43956c0.14323-0.074084 0.37042-0.13335 0.58773-0.13335zm-0.26176 1.2347c0-0.28152 0.28152-0.34572 0.57291-0.31115v0.40993c-0.059267 0.11359-0.17286 0.21237-0.34078 0.21237-0.16792 0-0.23213-0.12841-0.23213-0.31115z"/>
   <path id="path1135" d="m20.47 3.7258c0.16298 0 0.40005-0.04445 0.49389-0.10866l-0.05433-0.47413c-0.06914 0.029633-0.12347 0.04445-0.19756 0.04445-0.13829 0-0.14817-0.14817-0.14817-0.32103v-2.6571h-0.58773v2.9732c0 0.37536 0.13829 0.54328 0.49389 0.54328z"/>
   <path id="path1137" d="m22.95 1.9676 0.98284 1.7237h0.47907v-3.4819h-0.58773v1.7237l0.07902 0.58773h-0.02963l-0.21237-0.59761-0.99272-1.7385h-0.47907v3.4819h0.58773v-1.7089l-0.07902-0.59761h0.02469z"/>
   <path id="path1140" d="m26.708 2.4318c0-0.77047-0.25188-1.2989-0.9779-1.2989-0.70132 0-0.97296 0.53834-0.97296 1.2989 0 0.86925 0.32103 1.2989 0.97296 1.2989 0.70626 0 0.9779-0.52846 0.9779-1.2989zm-1.3434 0c0-0.28152 0.02963-0.47907 0.09384-0.59761s0.15311-0.1778 0.27164-0.1778c0.13335 0 0.22719 0.069145 0.28646 0.19756 0.05433 0.13335 0.08396 0.32597 0.08396 0.57785 0 0.28646-0.03457 0.48401-0.09384 0.60255s-0.15311 0.17286-0.27658 0.17286c-0.32103 0-0.36548-0.39511-0.36548-0.77541z"/>
   <path id="path1142" d="m27.686 3.7258c0.20743 0 0.40993-0.054328 0.55316-0.12841l-0.07408-0.4692c-0.0889 0.039511-0.15311 0.059267-0.26176 0.059267-0.18274 0-0.19262-0.16792-0.19262-0.39017v-1.0767h0.47907v-0.52352h-0.47908v-0.647l-0.58773 0.18274v0.46426h-0.27164v0.52352h0.27164v1.294c0 0.45932 0.13829 0.7112 0.56304 0.7112z"/>
   <path id="path1144" d="m29.479 3.227c-0.37536 0-0.49883-0.25188-0.50871-0.63218h1.2002c0.0247-0.16298 0.04939-0.32103 0.04939-0.49883 0-0.58773-0.26176-0.96802-0.82974-0.96802-0.31609 0-0.5581 0.10866-0.7359 0.32103s-0.26176 0.53834-0.26176 0.98284c0 0.74577 0.23707 1.2989 0.9779 1.2989 0.30127 0 0.61736-0.10372 0.78035-0.24694l-0.18274-0.40993c-0.10372 0.083961-0.30127 0.15311-0.48895 0.15311zm0.19262-1.0224h-0.68157c0.01482-0.30127 0.09878-0.57291 0.39017-0.57291 0.25188 0 0.30621 0.27658 0.2914 0.57291z"/>
   <path id="path1146" d="m31.163 3.227c-0.20743 0-0.39511-0.069145-0.52352-0.14817l-0.16298 0.47413c0.15311 0.10866 0.4445 0.1778 0.7112 0.1778 0.50871 0 0.8248-0.2667 0.8248-0.75565 0-0.51365-0.3556-0.67169-0.67663-0.85937-0.10866-0.059267-0.23707-0.12841-0.23707-0.27658 0-0.13335 0.07902-0.20249 0.24201-0.20249 0.16792 0 0.36548 0.064206 0.48895 0.11359l0.13829-0.45438c-0.16298-0.093839-0.44944-0.16298-0.71614-0.16298-0.47907 0-0.74084 0.25188-0.74084 0.72108 0 0.51365 0.36054 0.66181 0.67663 0.84949 0.10866 0.064206 0.23707 0.14817 0.23707 0.30621 0 0.15311-0.11359 0.21731-0.26176 0.21731z"/>
  </g>
  <g id="g30195" transform="translate(8.32 -.5)" fill="#242422" stroke="#fffff0" stroke-width=".1">
   <path id="path720-4" transform="rotate(90)" d="m24.232-7.0853a5.14 5.14 0 0 1-3.7857 2.2058l-0.44798-5.1204z" opacity=".994" stop-color="#000000"/>
   <path id="path722-4" transform="rotate(90)" d="m20.891-4.9381a5.14 5.14 0 0 1-4.5271-1.4274l3.6345-3.6345z" opacity=".994" stop-color="#000000"/>
   <path id="path724-3" transform="rotate(90)" d="m24.64-7.7908a5.14 5.14 0 0 1-0.43058 0.739l-4.2104-2.9482z" opacity=".994" stop-color="#000000"/>
   <path id="path726-0" transform="rotate(90)" d="m17.017-5.8131a5.14 5.14 0 0 1-2.1389-4.6349l5.1204 0.44798z" opacity=".994" stop-color="#000000"/>
   <path id="path728-7" transform="rotate(90)" d="m14.923-9.1879a5.14 5.14 0 0 1 2.1273-5.0226l2.9482 4.2104z" opacity=".994" stop-color="#000000"/>
   <path id="path730-8" transform="rotate(90)" d="m15.86-13.048a5.14 5.14 0 0 1 5.4694-1.9173l-1.3303 4.9649z" opacity=".994" stop-color="#000000"/>
   <path id="path732-6" transform="rotate(90)" d="m19.267-15.088a5.14 5.14 0 0 1 5.3899 2.9154l-4.6584 2.1723z" opacity=".994" stop-color="#000000"/>
   <path id="path734-8" transform="rotate(90)" d="m23.112-14.09a5.14 5.14 0 0 1 1.5282 1.881l-4.641 2.2092z" opacity=".994" stop-color="#000000"/>
   <circle id="circle736-8" cx="10" cy="20" r="4.04" opacity=".994" stop-color="#000000"/>
  </g>
  <g id="g1796" transform="translate(8.32 10.75)" fill="#242422" stroke="#fffff0" stroke-width=".1">
   <path id="path1778" transform="rotate(90)" d="m24.232-7.0853a5.14 5.14 0 0 1-3.7857 2.2058l-0.44798-5.1204z" opacity=".994" stop-color="#000000"/>
   <path id="path1780" transform="rotate(90)" d="m20.891-4.9381a5.14 5.14 0 0 1-4.5271-1.4274l3.6345-3.6345z" opacity=".994" stop-color="#000000"/>
   <path id="path1782" transform="rotate(90)" d="m24.64-7.7908a5.14 5.14 0 0 1-0.43058 0.739l-4.2104-2.9482z" opacity=".994" stop-color="#000000"/>
   <path id="path1784" transform="rotate(90)" d="m17.017-5.8131a5.14 5.14 0 0 1-2.1389-4.6349l5.1204 0.44798z" opacity=".994" stop-color="#000000"/>
   <path id="path1786" transform="rotate(90)" d="m14.923-9.1879a5.14 5.14 0 0 1 2.1273-5.0226l2.9482 4.2104z" opacity=".994" stop-color="#000000"/>
   <path id="path1788" transform="rotate(90)" d="m15.86-13.048a5.14 5.14 0 0 1 5.4694-1.9173l-1.3303 4.9649z" opacity=".994" stop-color="#000000"/>
   <path id="path1790" transform="rotate(90)" d="m19.267-15.088a5.14 5.14 0 0 1 5.3899 2.9154l-4.6584 2.1723z" opacity=".994" stop-color="#000000"/>
   <path id="path1792" transform="rotate(90)" d="m23.112-14.09a5.14 5.14 0 0 1 1.5282 1.881l-4.641 2.2092z" opacity=".994" stop-color="#000000"/>
   <circle id="circle1794" cx="10" cy="20" r="4.04" opacity=".994" stop-color="#000000"/>
  </g>
  <g id="g1816" transform="translate(8.32 22)" fill="#242422" stroke="#fffff0" stroke-width=".1">
   <path id="path1798" transform="rotate(90)" d="m24.232-7.0853a5.14 5.14 0 0 1-3.7857 2.2058l-0.44798-5.1204z" opacity=".994" stop-color="#000000"/>
   <path id="path1800" transform="rotate(90)" d="m20.891-4.9381a5.14 5.14 0 0 1-4.5271-1.4274l3.6345-3.6345z" opacity=".994" stop-color="#000000"/>
   <path id="path1802" transform="rotate(90)" d="m24.64-7.7908a5.14 5.14 0 0 1-0.43058 0.739l-4.2104-2.9482z" opacity=".994" stop-color="#000000"/>
   <path id="path1804" transform="rotate(90)" d="m17.017-5.8131a5.14 5.14 0 0 1-2.1389-4.6349l5.1204 0.44798z" opacity=".994" stop-color="#000000"/>
   <path id="path1806" transform="rotate(90)" d="m14.923-9.1879a5.14 5.14 0 0 1 2.1273-5.0226l2.9482 4.2104z" opacity=".994" stop-color="#000000"/>
   <path id="path1808" transform="rotate(90)" d="m15.86-13.048a5.14 5.14 0 0 1 5.4694-1.9173l-1.3303 4.9649z" opacity=".994" stop-color="#000000"/>
   <path id="path1810" transform="rotate(90)" d="m19.267-15.088a5.14 5.14 0 0 1 5.3899 2.9154l-4.6584 2.1723z" opacity=".994" stop-color="#000000"/>
   <path id="path1812" transform="rotate(90)" d="m23.112-14.09a5.14 5.14 0 0 1 1.5282 1.881l-4.641 2.2092z" opacity=".994" stop-color="#000000"/>
   <circle id="circle1814" cx="10" cy="20" r="4.04" opacity=".994" stop-color="#000000"/>
  </g>
  <g id="g1836" transform="translate(8.32 33.25)" fill="#242422" stroke="#fffff0" stroke-width=".1">
   <path id="path1818" transform="rotate(90)" d="m24.232-7.0853a5.14 5.14 0 0 1-3.7857 2.2058l-0.44798-5.1204z" opacity=".994" stop-color="#000000"/>
   <path id="path1820" transform="rotate(90)" d="m20.891-4.9381a5.14 5.14 0 0 1-4.5271-1.4274l3.6345-3.6345z" opacity=".994" stop-color="#000000"/>
   <path id="path1822" transform="rotate(90)" d="m24.64-7.7908a5.14 5.14 0 0 1-0.43058 0.739l-4.2104-2.9482z" opacity=".994" stop-color="#000000"/>
   <path id="path1824" transform="rotate(90)" d="m17.017-5.8131a5.14 5.14 0 0 1-2.1389-4.6349l5.1204 0.44798z" opacity=".994" stop-color="#000000"/>
   <path id="path1826" transform="rotate(90)" d="m14.923-9.1879a5.14 5.14 0 0 1 2.1273-5.0226l2.9482 4.2104z" opacity=".994" stop-color="#000000"/>
   <path id="path1828" transform="rotate(90)" d="m15.86-13.048a5.14 5.14 0 0 1 5.4694-1.9173l-1.3303 4.9649z" opacity=".994" stop-color="#000000"/>
   <path id="path1830" transform="rotate(90)" d="m19.267-15.088a5.14 5.14 0 0 1 5.3899 2.9154l-4.6584 2.1723z" opacity=".994" stop-color="#000000"/>
   <path id="path1832" transform="rotate(90)" d="m23.112-14.09a5.14 5.14 0 0 1 1.5282 1.881l-4.641 2.2092z" opacity=".994" stop-color="#000000"/>
   <circle id="circle1834" cx="10" cy="20" r="4.04" opacity=".994" stop-color="#000000"/>
  </g>
  <g id="g1856" transform="translate(8.32 44.5)" fill="#242422" stroke="#fffff0" stroke-width=".1">
   <path id="path1838" transform="rotate(90)" d="m24.232-7.0853a5.14 5.14 0 0 1-3.7857 2.2058l-0.44798-5.1204z" opacity=".994" stop-color="#000000"/>
   <path id="path1840" transform="rotate(90)" d="m20.891-4.9381a5.14 5.14 0 0 1-4.5271-1.4274l3.6345-3.6345z" opacity=".994" stop-color="#000000"/>
   <path id="path1842" transform="rotate(90)" d="m24.64-7.7908a5.14 5.14 0 0 1-0.43058 0.739l-4.2104-2.9482z" opacity=".994" stop-color="#000000"/>
   <path id="path1844" transform="rotate(90)" d="m17.017-5.8131a5.14 5.14 0 0 1-2.1389-4.6349l5.1204 0.44798z" opacity=".994" stop-color="#000000"/>
   <path id="path1846" transform="rotate(90)" d="m14.923-9.1879a5.14 5.14 0 0 1 2.1273-5.0226l2.9482 4.2104z" opacity=".994" stop-color="#000000"/>
   <path id="path1848" transform="rotate(90)" d="m15.86-13.048a5.14 5.14 0 0 1 5.4694-1.9173l-1.3303 4.9649z" opacity=".994" stop-color="#000000"/>
   <path id="path1850" transform="rotate(90)" d="m19.267-15.088a5.14 5.14 0 0 1 5.3899 2.9154l-4.6584 2.1723z" opacity=".994" stop-color="#000000"/>
   <path id="path1852" transform="rotate(90)" d="m23.112-14.09a5.14 5.14 0 0 1 1.5282 1.881l-4.641 2.2092z" opacity=".994" stop-color="#000000"/>
   <circle id="circle1854" cx="10" cy="20" r="4.04" opacity=".994" stop-color="#000000"/>
  </g>
  <g id="g1876" transform="translate(8.32 55.75)" fill="#242422" stroke="#fffff0" stroke-width=".1">
   <path id="path1858" transform="rotate(90)" d="m24.232-7.0853a5.14 5.14 0 0 1-3.7857 2.2058l-0.44798-5.1204z" opacity=".994" stop-color="#000000"/>
   <path id="path1860" transform="rotate(90)" d="m20.891-4.9381a5.14 5.14 0 0 1-4.5271-1.4274l3.6345-3.6345z" opacity=".994" stop-color="#000000"/>
   <path id="path1862" transform="rotate(90)" d="m24.64-7.7908a5.14 5.14 0 0 1-0.43058 0.739l-4.2104-2.9482z" opacity=".994" stop-color="#000000"/>
   <path id="path1864" transform="rotate(90)" d="m17.017-5.8131a5.14 5.14 0 0 1-2.1389-4.6349l5.1204 0.44798z" opacity=".994" stop-color="#000000"/>
   <path id="path1866" transform="rotate(90)" d="m14.923-9.1879a5.14 5.14 0 0 1 2.1273-5.0226l2.9482 4.2104z" opacity=".994" stop-color="#000000"/>
   <path id="path1868" transform="rotate(90)" d="m15.86-13.048a5.14 5.14 0 0 1 5.4694-1.9173l-1.3303 4.9649z" opacity=".994" stop-color="#000000"/>
   <path id="path1870" transform="rotate(90)" d="m19.267-15.088a5.14 5.14 0 0 1 5.3899 2.9154l-4.6584 2.1723z" opacity=".994" stop-color="#000000"/>
   <path id="path1872" transform="rotate(90)" d="m23.112-14.09a5.14 5.14 0 0 1 1.5282 1.881l-4.641 2.2092z" opacity=".994" stop-color="#000000"/>
   <circle id="circle1874" cx="10" cy="20" r="4.04" opacity=".994" stop-color="#000000"/>
  </g>
  <g id="g1896" transform="translate(8.32 67)" fill="#242422" stroke="#fffff0" stroke-width=".1">
   <path id="path1878" transform="rotate(90)" d="m24.232-7.0853a5.14 5.14 0 0 1-3.7857 2.2058l-0.44798-5.1204z" opacity=".994" stop-color="#000000"/>
   <path id="path1880" transform="rotate(90)" d="m20.891-4.9381a5.14 5.14 0 0 1-4.5271-1.4274l3.6345-3.6345z" opacity=".994" stop-color="#000000"/>
   <path id="path1882" transform="rotate(90)" d="m24.64-7.7908a5.14 5.14 0 0 1-0.43058 0.739l-4.2104-2.9482z" opacity=".994" stop-color="#000000"/>
   <path id="path1884" transform="rotate(90)" d="m17.017-5.8131a5.14 5.14 0 0 1-2.1389-4.6349l5.1204 0.44798z" opacity=".994" stop-color="#000000"/>
   <path id="path1886" transform="rotate(90)" d="m14.923-9.1879a5.14 5.14 0 0 1 2.1273-5.0226l2.9482 4.2104z" opacity=".994" stop-color="#000000"/>
   <path id="path1888" transform="rotate(90)" d="m15.86-13.048a5.14 5.14 0 0 1 5.4694-1.9173l-1.3303 4.9649z" opacity=".994" stop-color="#000000"/>
   <path id="path1890" transform="rotate(90)" d="m19.267-15.088a5.14 5.14 0 0 1 5.3899 2.9154l-4.6584 2.1723z" opacity=".994" stop-color="#000000"/>
   <path id="path1892" transform="rotate(90)" d="m23.112-14.09a5.14 5.14 0 0 1 1.5282 1.881l-4.641 2.2092z" opacity=".994" stop-color="#000000"/>
   <circle id="circle1894" cx="10" cy="20" r="4.04" opacity=".994" stop-color="#000000"/>
  </g>
  <g id="g1916" transform="translate(8.32 78.25)" fill="#242422" stroke="#fffff0" stroke-width=".1">
   <path id="path1898" transform="rotate(90)" d="m24.232-7.0853a5.14 5.14 0 0 1-3.7857 2.2058l-0.44798-5.1204z" opacity=".994" stop-color="#000000"/>
   <path id="path1900" transform="rotate(90)" d="m20.891-4.9381a5.14 5.14 0 0 1-4.5271-1.4274l3.6345-3.6345z" opacity=".994" stop-color="#000000"/>
   <path id="path1902" transform="rotate(90)" d="m24.64-7.7908a5.14 5.14 0 0 1-0.43058 0.739l-4.2104-2.9482z" opacity=".994" stop-color="#000000"/>
   <path id="path1904" transform="rotate(90)" d="m17.017-5.8131a5.14 5.14 0 0 1-2.1389-4.6349l5.1204 0.44798z" opacity=".994" stop-color="#000000"/>
   <path id="path1906" transform="rotate(90)" d="m14.923-9.1879a5.14 5.14 0 0 1 2.1273-5.0226l2.9482 4.2104z" opacity=".994" stop-color="#000000"/>
   <path id="path1908" transform="rotate(90)" d="m15.86-13.048a5.14 5.14 0 0 1 5.4694-1.9173l-1.3303 4.9649z" opacity=".994" stop-color="#000000"/>
   <path id="path1910" transform="rotate(90)" d="m19.267-15.088a5.14 5.14 0 0 1 5.3899 2.9154l-4.6584 2.1723z" opacity=".994" stop-color="#000000"/>
   <path id="path1912" transform="rotate(90)" d="m23.112-14.09a5.14 5.14 0 0 1 1.5282 1.881l-4.641 2.2092z" opacity=".994" stop-color="#000000"/>
   <circle id="circle1914" cx="10" cy="20" r="4.04" opacity=".994" stop-color="#000000"/>
  </g>
  <g id="g30184" transform="translate(-1.85 74.5)" fill="#242422" stroke="#fffff0">
   <path id="path960-1" transform="rotate(90)" d="m45.508-7.3782a6.1 6.1 0 0 1-3.929 3.2704l-1.5788-5.8921z" opacity=".994" stop-color="#000000" stroke-width=".1"/>
   <path id="path958-7" transform="rotate(90)" d="m41.995-4.2355a6.1 6.1 0 0 1-5.4939-0.76767l3.4988-4.9968z" opacity=".994" stop-color="#000000" stroke-width=".1"/>
   <path id="path956-8" transform="rotate(90)" d="m37.292-4.534a6.1 6.1 0 0 1-3.3688-4.9343l6.0768-0.53165z" opacity=".994" stop-color="#000000" stroke-width=".1"/>
   <path id="path954-5" transform="rotate(90)" d="m34.205-8.0967a6.1 6.1 0 0 1 1.4821-6.2167l4.3134 4.3134z" opacity=".994" stop-color="#000000" stroke-width=".1"/>
   <path id="path962-7" transform="rotate(90)" d="m34.578-12.795a6.1 6.1 0 0 1 5.9535-3.2816l-0.53165 6.0768z" opacity=".994" stop-color="#000000" stroke-width=".1"/>
   <path id="path964-4" transform="rotate(90)" d="m38.189-15.825a6.1 6.1 0 0 1 7.0939 2.7749l-5.2828 3.05z" opacity=".994" stop-color="#000000" stroke-width=".1"/>
   <path id="path966-1" transform="rotate(90)" d="m42.881-15.377a6.1 6.1 0 0 1 2.627 2.7551l-5.5078 2.6218z" opacity=".994" stop-color="#000000" stroke-width=".1"/>
   <circle id="circle968" cx="10" cy="40" r="5" opacity=".994" stop-color="#000000" stroke-width=".099999"/>
  </g>
 </g>
 <g id="layer2" display="none">
  <circle id="circle13" cx="29.87" cy="98.251" r="4" display="inline" fill="#00f" fill-rule="evenodd" stroke-width=".26458"/>
  <circle id="circle877" cx="32.02" cy="114.5" r="4" display="inline" fill="#00f" fill-rule="evenodd" stroke-width=".26458"/>
  <circle id="path1183" cx="18.32" cy="53.251" r="4" display="inline" fill="none" opacity=".994" stop-color="#000000" stroke="#f20000" stroke-opacity=".99578" stroke-width=".2"/>
  <circle id="path471" cx="7.62" cy="19.5" r="3.15" opacity=".997" stroke-width=".5"/>
  <circle id="circle473" cx="7.62" cy="30.75" r="3.15" opacity=".997" stroke-width=".5"/>
  <circle id="circle475" cx="7.62" cy="42" r="3.15" opacity=".997" stroke-width=".5"/>
  <circle id="circle477" cx="7.62" cy="53.251" r="3.15" opacity=".997" stroke-width=".5"/>
  <circle id="circle479" cx="7.62" cy="64.501" r="3.15" opacity=".997" stroke-width=".5"/>
  <circle id="circle481" cx="7.62" cy="75.751" r="3.15" opacity=".997" stroke-width=".5"/>
  <circle id="circle483" cx="7.62" cy="87.001" r="3.15" opacity=".997" stroke-width=".5"/>
  <circle id="circle485" cx="7.62" cy="98.251" r="3.15" opacity=".997" stroke-width=".5"/>
  <circle id="circle516" cx="29.87" cy="87.001" r="4" display="inline" fill="#00f" fill-rule="evenodd" stroke-width=".26458"/>
  <circle id="circle518" cx="29.87" cy="75.751" r="4" display="inline" fill="#00f" fill-rule="evenodd" stroke-width=".26458"/>
  <circle id="circle520" cx="29.87" cy="64.501" r="4" display="inline" fill="#00f" fill-rule="evenodd" stroke-width=".26458"/>
  <circle id="circle522" cx="29.87" cy="53.251" r="4" display="inline" fill="#00f" fill-rule="evenodd" stroke-width=".26458"/>
  <circle id="circle524" cx="29.87" cy="42" r="4" display="inline" fill="#00f" fill-rule="evenodd" stroke-width=".26458"/>
  <circle id="circle526" cx="29.87" cy="30.75" r="4" display="inline" fill="#00f" fill-rule="evenodd" stroke-width=".26458"/>
  <circle id="circle528" cx="29.87" cy="19.5" r="4" display="inline" fill="#00f" fill-rule="evenodd" stroke-width=".26458"/>
  <circle id="circle1108" cx="7.62" cy="98.251" r="3.15" opacity=".997" stroke-width=".5"/>
  <circle id="circle1110" transform="scale(-1,1)" cx="-21.5" cy="114.5" r="3.15" opacity=".997" stroke-width=".5"/>
  <circle id="path1150" cx="35.85" cy="30.75" r=".8" display="inline" fill="#269aff" opacity=".994" stop-color="#000000" stroke="#555d50" stroke-dashoffset="9.4488" stroke-width=".075"/>
  <circle id="circle1167" cx="35.85" cy="19.5" r=".8" display="inline" fill="#269aff" opacity=".994" stop-color="#000000" stroke="#555d50" stroke-dashoffset="9.4488" stroke-width=".075"/>
  <circle id="circle1169" cx="35.85" cy="42" r=".8" display="inline" fill="#269aff" opacity=".994" stop-color="#000000" stroke="#555d50" stroke-dashoffset="9.4488" stroke-width=".075"/>
  <circle id="circle1171" cx="35.85" cy="53.251" r=".8" display="inline" fill="#269aff" opacity=".994" stop-color="#000000" stroke="#555d50" stroke-dashoffset="9.4488" stroke-width=".075"/>
  <circle id="circle1173" cx="35.85" cy="64.501" r=".8" display="inline" fill="#269aff" opacity=".994" stop-color="#000000" stroke="#555d50" stroke-dashoffset="9.4488" stroke-width=".075"/>
  <circle id="circle1175" cx="35.85" cy="75.751" r=".8" display="inline" fill="#269aff" opacity=".994" stop-color="#000000" stroke="#555d50" stroke-dashoffset="9.4488" stroke-width=".075"/>
  <circle id="circle1177" cx="35.85" cy="87.001" r=".8" display="inline" fill="#269aff" opacity=".994" stop-color="#000000" stroke="#555d50" stroke-dashoffset="9.4488" stroke-width=".075"/>
  <circle id="circle1179" cx="35.85" cy="98.251" r=".8" display="inline" fill="#269aff" opacity=".994" stop-color="#000000" stroke="#555d50" stroke-dashoffset="9.4488" stroke-width=".075"/>
 </g>
</svg>
