<?xml version="1.0" encoding="UTF-8"?>
<svg id="svg8" width="55.88mm" height="128.5mm" version="1.1" viewBox="0 0 55.88 128.5" xmlns="http://www.w3.org/2000/svg" xmlns:cc="http://creativecommons.org/ns#" xmlns:dc="http://purl.org/dc/elements/1.1/" xmlns:rdf="http://www.w3.org/1999/02/22-rdf-syntax-ns#">
 <metadata id="metadata5">
  <rdf:RDF>
   <cc:Work rdf:about="">
    <dc:format>image/svg+xml</dc:format>
    <dc:type rdf:resource="http://purl.org/dc/dcmitype/StillImage"/>
   </cc:Work>
  </rdf:RDF>
 </metadata>
 <g id="layer1">
  <rect id="rect838" width="55.88" height="128.5" fill="#242422"/>
  <text id="text1248" x="18.803024" y="18.018106" font-family="'PT Sans Narrow'" font-size="4.9389px" font-stretch="condensed" font-weight="bold" stroke-width=".26458" text-align="center" text-anchor="middle" style="line-height:1.25" xml:space="preserve"><tspan id="tspan1244" x="18.803024" y="18.018106" stroke-width=".26458" text-align="center" text-anchor="middle"/></text>
  <g id="text2533" transform="matrix(1.5 0 0 1.5 -7.9045 -61.664)" fill="#fffff0" stroke-width=".17639" aria-label="GRANDE">
   <path id="path2535" d="m20.481 123.44c0.15522 0 0.28222-0.0564 0.35807-0.13406v-0.48683h-0.381v0.12171h0.24518v0.30162c-0.04586 0.0423-0.12524 0.067-0.20814 0.067-0.24694 0-0.38276-0.18168-0.38276-0.47272 0-0.28751 0.14817-0.46567 0.381-0.46567 0.11642 0 0.1905 0.0441 0.24871 0.10407l0.08114-0.0917c-0.06703-0.0723-0.17286-0.14288-0.33338-0.14288-0.30692 0-0.53093 0.22755-0.53093 0.59973 0 0.37747 0.21696 0.59972 0.52211 0.59972z"/>
   <path id="path2537" d="m21.484 123.42h0.14817v-0.48859h0.20814l0.2787 0.48859h0.16757l-0.29457-0.50447c0.15699-0.0406 0.25929-0.1464 0.25929-0.32632 0-0.24165-0.16933-0.32632-0.4057-0.32632h-0.3616zm0.14817-0.60854v-0.42862h0.19226c0.17992 0 0.2787 0.0547 0.2787 0.20637 0 0.14817-0.09878 0.22225-0.2787 0.22225z"/>
   <path id="path2539" d="m23.054 122.78c0.04057-0.12876 0.07761-0.25576 0.11289-0.38982h0.0071c0.03704 0.13406 0.07408 0.26106 0.11642 0.38982l0.05468 0.17462h-0.34572zm-0.35454 0.64558h0.14993l0.11112-0.35101h0.42157l0.10936 0.35101h0.15699l-0.38982-1.1571h-0.16933z"/>
   <path id="path2541" d="m24.183 123.42h0.13935v-0.60854c0-0.11994-0.01058-0.24518-0.0194-0.3616h0.0071c0.0388 0.0847 0.08114 0.1711 0.12524 0.24871l0.41275 0.72143h0.15875v-1.1571h-0.13935v0.60325c0 0.11995 0.01058 0.24695 0.0194 0.36689h-0.0071c-0.04057-0.0847-0.08114-0.1711-0.12524-0.24871l-0.41275-0.72143h-0.15875z"/>
   <path id="path2543" d="m25.693 123.42h0.29633c0.34925 0 0.53975-0.21519 0.53975-0.58384 0-0.36689-0.1905-0.57327-0.5468-0.57327h-0.28928zm0.14817-0.12171v-0.91369h0.13053c0.26988 0 0.40393 0.16051 0.40393 0.45156 0 0.2928-0.13406 0.46213-0.40393 0.46213z"/>
   <path id="path2545" d="m27.15 123.42h0.68439v-0.12523h-0.53622v-0.41981h0.43744v-0.12524h-0.43744v-0.36159h0.51858v-0.12524h-0.66675z"/>
  </g>
  <g id="text1085" transform="translate(.61388 -.88696)" fill="#fffff0" stroke-width=".26458" aria-label="Notes/Oct">
   <path id="path1087" d="m5.8169 107.75 0.56162 0.98496h0.27376v-1.9897h-0.33585v0.98496l0.045156 0.33584h-0.016934l-0.12136-0.34149-0.56727-0.99342h-0.27376v1.9897h0.33585v-0.97649l-0.045156-0.34149h0.014111z"/>
   <path id="path1089" d="m7.9647 108.02c0-0.44026-0.14393-0.74224-0.5588-0.74224-0.40076 0-0.55598 0.30762-0.55598 0.74224 0 0.49672 0.18344 0.74225 0.55598 0.74225 0.40358 0 0.5588-0.30198 0.5588-0.74225zm-0.76765 0c0-0.16086 0.016933-0.27375 0.053622-0.34149 0.036689-0.0677 0.087489-0.1016 0.15522-0.1016 0.0762 0 0.12982 0.0395 0.16369 0.11289 0.031045 0.0762 0.047978 0.18627 0.047978 0.3302 0 0.16369-0.019756 0.27658-0.053622 0.34432-0.033867 0.0677-0.087489 0.0988-0.15804 0.0988-0.18344 0-0.20884-0.22578-0.20884-0.44309z"/>
   <path id="path1091" d="m8.5235 108.76c0.11853 0 0.23425-0.031 0.31609-0.0734l-0.042333-0.26811c-0.0508 0.0226-0.087489 0.0339-0.14958 0.0339-0.10442 0-0.11007-0.0959-0.11007-0.22295v-0.61525h0.27376v-0.29915h-0.27376v-0.36972l-0.33585 0.10443v0.26529h-0.15522v0.29915h0.15522v0.73943c0 0.26246 0.079023 0.4064 0.32173 0.4064z"/>
   <path id="path1093" d="m9.5479 108.47c-0.21449 0-0.28505-0.14393-0.29069-0.36124h0.6858c0.014111-0.0931 0.028222-0.18345 0.028222-0.28505 0-0.33584-0.14958-0.55316-0.47413-0.55316-0.18062 0-0.31891 0.0621-0.42051 0.18345-0.1016 0.12136-0.14958 0.30762-0.14958 0.56162 0 0.42616 0.13547 0.74225 0.5588 0.74225 0.17216 0 0.35278-0.0593 0.44591-0.14111l-0.10442-0.23425c-0.059267 0.048-0.17216 0.0875-0.2794 0.0875zm0.11007-0.5842h-0.38947c0.00847-0.17216 0.056445-0.32738 0.22296-0.32738 0.14393 0 0.17498 0.15805 0.16651 0.32738z"/>
   <path id="path1095" d="m10.51 108.47c-0.11853 0-0.22578-0.0395-0.29916-0.0847l-0.09313 0.27093c0.08749 0.0621 0.254 0.1016 0.4064 0.1016 0.29069 0 0.47131-0.1524 0.47131-0.4318 0-0.29351-0.2032-0.38382-0.38664-0.49107-0.06209-0.0339-0.13547-0.0734-0.13547-0.15804 0-0.0762 0.04515-0.11572 0.13829-0.11572 0.09596 0 0.20884 0.0367 0.2794 0.0649l0.07902-0.25965c-0.09313-0.0536-0.25682-0.0931-0.40922-0.0931-0.27376 0-0.42334 0.14393-0.42334 0.41204 0 0.29351 0.20602 0.37818 0.38665 0.48543 0.06209 0.0367 0.13547 0.0847 0.13547 0.17497 0 0.0875-0.06491 0.12418-0.14958 0.12418z"/>
   <path id="path1097" d="m11.831 106.71-0.82974 2.3058 0.25964 0.0988 0.82691-2.3058z"/>
   <path id="path1099" d="m13.516 107.73c0-0.55033-0.15522-1.0273-0.69991-1.0273-0.5334 0-0.69709 0.44873-0.69709 1.0273 0 0.55598 0.14676 1.0273 0.69709 1.0273 0.52776 0 0.69991-0.44873 0.69991-1.0273zm-1.0245 0c0-0.46567 0.10724-0.69991 0.32456-0.69991 0.06209 0 0.11289 0.0198 0.15522 0.0564 0.13547 0.12136 0.17216 0.381 0.17216 0.64347 0 0.24553-0.02822 0.42333-0.08184 0.5334-0.05645 0.11289-0.13829 0.16651-0.24553 0.16651-0.06209 0-0.11289-0.0169-0.1524-0.0536-0.14111-0.12136-0.17216-0.37536-0.17216-0.64629z"/>
   <path id="path1101" d="m14.269 108.45c-0.20038 0-0.254-0.21732-0.254-0.43463 0-0.1524 0.01976-0.26246 0.05927-0.3302 0.03951-0.0677 0.09878-0.10442 0.1778-0.10442 0.09313 0 0.14111 0.0198 0.20884 0.0508l0.07902-0.2794c-0.09596-0.0508-0.19473-0.079-0.34996-0.079-0.39229 0-0.52211 0.31609-0.52211 0.74224 0 0.41487 0.10724 0.74225 0.51647 0.74225 0.14393 0 0.28222-0.0452 0.36689-0.11289l-0.07056-0.25964c-0.05927 0.0395-0.11853 0.0649-0.21167 0.0649z"/>
   <path id="path1103" d="m15.074 108.76c0.11853 0 0.23425-0.031 0.31609-0.0734l-0.04233-0.26811c-0.0508 0.0226-0.08749 0.0339-0.14958 0.0339-0.10442 0-0.11007-0.0959-0.11007-0.22295v-0.61525h0.27376v-0.29915h-0.27376v-0.36972l-0.33585 0.10443v0.26529h-0.15522v0.29915h0.15522v0.73943c0 0.26246 0.07902 0.4064 0.32173 0.4064z"/>
  </g>
  <rect id="rect1673" x="2.625" y="58.875" width="24.19" height="45.5" rx="1" ry="1" fill="none" opacity=".994" stop-color="#000000" stroke="#555d50" stroke-width=".25"/>
  <text id="text1110" x="19.557768" y="3.3306198" font-family="'PTQ Sans Narrow'" font-size="2.8222px" stroke-width=".26458" text-align="center" text-anchor="middle" style="line-height:1.25" xml:space="preserve"><tspan id="tspan1108" x="19.557768" y="3.3306198" stroke-width=".26458"/></text>
  <rect id="rect288" x="2.625" y="11.125" width="24.19" height="45.5" rx="1" ry="1" fill="none" opacity=".994" stop-color="#000000" stroke="#555d50" stroke-width=".25"/>
  <rect id="rect430" x="29.065" y="58.875" width="24.19" height="45.5" rx="1" ry="1" fill="none" opacity=".994" stop-color="#000000" stroke="#555d50" stroke-width=".25"/>
  <rect id="rect452" x="29.065" y="11.125" width="24.19" height="45.5" rx="1" ry="1" fill="none" opacity=".994" stop-color="#000000" stroke="#555d50" stroke-width=".25"/>
  <rect id="rect562" x="41.005" y="106.62" width="10.25" height="13.25" rx="1" ry="1" fill="#555d50" opacity=".994" stop-color="#000000" stroke="#555d50" stroke-width=".25"/>
  <g id="text1138" transform="matrix(1 0 0 1.0002 15.249 .8015)" fill="#fffff0" stroke-width=".26456" aria-label="Poly Out">
   <path id="path1216" d="m27.202 106.74c-0.16369 0-0.33584 0.0198-0.46567 0.048v1.9558h0.3556v-0.68016c0.03669 0.0113 0.09878 0.0113 0.14676 0.0113h0.03669c0.41205 0 0.62936-0.25964 0.62936-0.68298 0-0.46002-0.25118-0.65193-0.70274-0.65193zm0.3302 0.64911c0 0.23142-0.09031 0.36971-0.31327 0.36971-0.02258 0-0.11289-8e-3 -0.127-0.0141v-0.67451c0.03669-8e-3 0.08467-0.0141 0.14393-0.0141 0.20038 0 0.29633 0.127 0.29633 0.33302z"/>
   <path id="path1218" d="m29.056 108.03c0-0.44026-0.14393-0.74224-0.5588-0.74224-0.40076 0-0.55598 0.30762-0.55598 0.74224 0 0.49672 0.18344 0.74225 0.55598 0.74225 0.40358 0 0.5588-0.30198 0.5588-0.74225zm-0.76765 0c0-0.16086 0.01693-0.27375 0.05362-0.34149 0.03669-0.0677 0.08749-0.1016 0.15522-0.1016 0.0762 0 0.12982 0.0395 0.16369 0.11289 0.03104 0.0762 0.04798 0.18627 0.04798 0.3302 0 0.16369-0.01976 0.27658-0.05362 0.34432-0.03387 0.0677-0.08749 0.0988-0.15804 0.0988-0.18344 0-0.20884-0.22577-0.20884-0.44309z"/>
   <path id="path1220" d="m29.536 108.77c0.09313 0 0.2286-0.0254 0.28222-0.0621l-0.03105-0.27093c-0.03951 0.0169-0.07055 0.0254-0.11289 0.0254-0.07902 0-0.08467-0.0847-0.08467-0.18345v-1.5184h-0.33584v1.699c0 0.21449 0.07902 0.31045 0.28222 0.31045z"/>
   <path id="path1222" d="m30.386 108.12-0.19756-0.79304h-0.40358l0.49107 1.4111c-0.02822 0.14394-0.08185 0.31327-0.24553 0.24836l-0.05645 0.28787c0.0508 0.031 0.127 0.0423 0.20884 0.0423 0.13264 0 0.20038-0.0903 0.254-0.19191 0.0762-0.14958 0.12418-0.33303 0.18062-0.52494l0.35278-1.2728h-0.34431l-0.16369 0.79022-0.0254 0.22296h-0.01411z"/>
   <path id="path1224" d="m32.88 107.75c0-0.55033-0.15522-1.0273-0.69991-1.0273-0.5334 0-0.69709 0.44873-0.69709 1.0273 0 0.55598 0.14676 1.0273 0.69709 1.0273 0.52776 0 0.69991-0.44873 0.69991-1.0273zm-1.0245 0c0-0.46567 0.10724-0.69991 0.32456-0.69991 0.06209 0 0.11289 0.0198 0.15522 0.0564 0.13547 0.12136 0.17216 0.381 0.17216 0.64347 0 0.24554-0.02822 0.42334-0.08184 0.5334-0.05644 0.11289-0.13829 0.16651-0.24553 0.16651-0.06209 0-0.11289-0.0169-0.1524-0.0536-0.14111-0.12135-0.17216-0.37535-0.17216-0.64629z"/>
   <path id="path1226" d="m33.442 108.78c0.18627 0 0.3048-0.1016 0.37254-0.2286h0.0085l0.05927 0.19191h0.254c-0.03104-0.11853-0.03951-0.27658-0.03951-0.42898v-0.98213h-0.33585v0.94262c-0.02822 0.096-0.09596 0.19756-0.20884 0.19756-0.13829 0-0.14393-0.127-0.14393-0.29634v-0.84384h-0.33584v0.91722c0 0.31327 0.06491 0.53058 0.36971 0.53058z"/>
   <path id="path1228" d="m34.709 108.77c0.11853 0 0.23424-0.031 0.31609-0.0734l-0.04233-0.26811c-0.0508 0.0226-0.08749 0.0339-0.14958 0.0339-0.10442 0-0.11007-0.096-0.11007-0.22296v-0.61525h0.27376v-0.29916h-0.27376v-0.36971l-0.33584 0.10442v0.26529h-0.15522v0.29915h0.15522v0.73943c0 0.26247 0.07902 0.4064 0.32173 0.4064z"/>
  </g>
  <g id="text1424" transform="translate(-.33251 1.5251)" fill="#fffff0" stroke-width=".26458" aria-label="1">
   <path id="path1438" d="m24.572 47.11v0.29916h0.95956v-0.29916h-0.31609v-1.7103h-0.19756l-0.54469 0.53058 0.15522 0.18909 0.18627-0.14393 0.11571-0.16651-0.03669 0.19191v1.1091z" fill="#fffff0" stroke-width=".26458"/>
  </g>
  <g id="text1428" transform="translate(-.31691 2.5065)" fill="#fffff0" stroke-width=".26458" aria-label="2">
   <path id="path1441" d="m24.487 33.337 0.12982 0.24553c0.05644-0.0508 0.16369-0.11007 0.26811-0.11007 0.15804 0 0.23424 0.10724 0.2286 0.26529 0.0028 0.06491-0.0056 0.13264-0.0254 0.20602-0.04516 0.16369-0.11571 0.31609-0.19191 0.45438-0.11853 0.20602-0.25965 0.41205-0.40076 0.58702v0.19473h0.9906v-0.29916h-0.43745l-0.16933 0.04233v-0.01411l0.12418-0.11571c0.10724-0.14393 0.21731-0.3302 0.29916-0.51365 0.0762-0.16651 0.1524-0.37536 0.1524-0.60114 0-0.08467-0.01411-0.15804-0.03669-0.22296-0.06773-0.17216-0.20884-0.29069-0.44027-0.29069-0.22296 0-0.37253 0.07056-0.49107 0.17216z" fill="#fffff0" stroke-width=".26458"/>
  </g>
  <g id="text1432" transform="translate(-.33137 2.1398)" fill="#fffff0" stroke-width=".26458" aria-label="3">
   <path id="path1444" d="m24.592 23.926-0.09031 0.28222c0.08467 0.05362 0.26247 0.08749 0.40358 0.08749 0.08184 0 0.15804-0.01129 0.23142-0.03951 0.2286-0.08185 0.36407-0.29633 0.36407-0.61242 0-0.09031-0.01129-0.17216-0.03387-0.23989-0.05362-0.16651-0.16933-0.29916-0.36689-0.31609l-0.10442 0.01693v-0.01411l0.10442-0.0762 0.32738-0.5334v-0.20038h-0.90311v0.29916h0.38664l0.18627-0.0254-0.13547 0.127-0.2794 0.47414v0.19191h0.16651c0.20884 0 0.31609 0.10724 0.31609 0.31891 0 0.18909-0.09596 0.3302-0.28222 0.3302-0.12136 0-0.21167-0.02822-0.29069-0.07056z" fill="#fffff0" stroke-width=".26458"/>
  </g>
  <g id="text1436" transform="translate(-.37952 1.7121)" fill="#fffff0" stroke-width=".26458" aria-label="4">
   <path id="path1447" d="m25.682 12.912v-0.28787h-0.24836v-1.1515h-0.29351l-0.72249 1.2305v0.20884h0.69709v0.55034h0.31891v-0.55034zm-0.56727-0.72531v0.43744h-0.25682l-0.14393 0.02258 0.11289-0.10724 0.22296-0.37818 0.08467-0.2286h0.01129z" fill="#fffff0" stroke-width=".26458"/>
  </g>
  <g id="g1452" transform="translate(26.126 1.5251)" fill="#fffff0" stroke-width=".26458" aria-label="1">
   <path id="path1450" d="m24.572 47.11v0.29916h0.95956v-0.29916h-0.31609v-1.7103h-0.19756l-0.54469 0.53058 0.15522 0.18909 0.18627-0.14393 0.11571-0.16651-0.03669 0.19191v1.1091z" fill="#fffff0" stroke-width=".26458"/>
  </g>
  <g id="g1456" transform="translate(26.141 2.5065)" fill="#fffff0" stroke-width=".26458" aria-label="2">
   <path id="path1454" d="m24.487 33.337 0.12982 0.24553c0.05644-0.0508 0.16369-0.11007 0.26811-0.11007 0.15804 0 0.23424 0.10724 0.2286 0.26529 0.0028 0.06491-0.0056 0.13264-0.0254 0.20602-0.04516 0.16369-0.11571 0.31609-0.19191 0.45438-0.11853 0.20602-0.25965 0.41205-0.40076 0.58702v0.19473h0.9906v-0.29916h-0.43745l-0.16933 0.04233v-0.01411l0.12418-0.11571c0.10724-0.14393 0.21731-0.3302 0.29916-0.51365 0.0762-0.16651 0.1524-0.37536 0.1524-0.60114 0-0.08467-0.01411-0.15804-0.03669-0.22296-0.06773-0.17216-0.20884-0.29069-0.44027-0.29069-0.22296 0-0.37253 0.07056-0.49107 0.17216z" fill="#fffff0" stroke-width=".26458"/>
  </g>
  <g id="g1460" transform="translate(26.127 2.1398)" fill="#fffff0" stroke-width=".26458" aria-label="3">
   <path id="path1458" d="m24.592 23.926-0.09031 0.28222c0.08467 0.05362 0.26247 0.08749 0.40358 0.08749 0.08184 0 0.15804-0.01129 0.23142-0.03951 0.2286-0.08185 0.36407-0.29633 0.36407-0.61242 0-0.09031-0.01129-0.17216-0.03387-0.23989-0.05362-0.16651-0.16933-0.29916-0.36689-0.31609l-0.10442 0.01693v-0.01411l0.10442-0.0762 0.32738-0.5334v-0.20038h-0.90311v0.29916h0.38664l0.18627-0.0254-0.13547 0.127-0.2794 0.47414v0.19191h0.16651c0.20884 0 0.31609 0.10724 0.31609 0.31891 0 0.18909-0.09596 0.3302-0.28222 0.3302-0.12136 0-0.21167-0.02822-0.29069-0.07056z" fill="#fffff0" stroke-width=".26458"/>
  </g>
  <g id="g1464" transform="translate(26.079 1.7121)" fill="#fffff0" stroke-width=".26458" aria-label="4">
   <path id="path1462" d="m25.682 12.912v-0.28787h-0.24836v-1.1515h-0.29351l-0.72249 1.2305v0.20884h0.69709v0.55034h0.31891v-0.55034zm-0.56727-0.72531v0.43744h-0.25682l-0.14393 0.02258 0.11289-0.10724 0.22296-0.37818 0.08467-0.2286h0.01129z" fill="#fffff0" stroke-width=".26458"/>
  </g>
  <g id="g1468" transform="translate(26.126 49.15)" fill="#fffff0" stroke-width=".26458" aria-label="1">
   <path id="path1466" d="m24.572 47.11v0.29916h0.95956v-0.29916h-0.31609v-1.7103h-0.19756l-0.54469 0.53058 0.15522 0.18909 0.18627-0.14393 0.11571-0.16651-0.03669 0.19191v1.1091z" fill="#fffff0" stroke-width=".26458"/>
  </g>
  <g id="g1472" transform="translate(26.141 50.132)" fill="#fffff0" stroke-width=".26458" aria-label="2">
   <path id="path1470" d="m24.487 33.337 0.12982 0.24553c0.05644-0.0508 0.16369-0.11007 0.26811-0.11007 0.15804 0 0.23424 0.10724 0.2286 0.26529 0.0028 0.06491-0.0056 0.13264-0.0254 0.20602-0.04516 0.16369-0.11571 0.31609-0.19191 0.45438-0.11853 0.20602-0.25965 0.41205-0.40076 0.58702v0.19473h0.9906v-0.29916h-0.43745l-0.16933 0.04233v-0.01411l0.12418-0.11571c0.10724-0.14393 0.21731-0.3302 0.29916-0.51365 0.0762-0.16651 0.1524-0.37536 0.1524-0.60114 0-0.08467-0.01411-0.15804-0.03669-0.22296-0.06773-0.17216-0.20884-0.29069-0.44027-0.29069-0.22296 0-0.37253 0.07056-0.49107 0.17216z" fill="#fffff0" stroke-width=".26458"/>
  </g>
  <g id="g1476" transform="translate(26.127 49.765)" fill="#fffff0" stroke-width=".26458" aria-label="3">
   <path id="path1474" d="m24.592 23.926-0.09031 0.28222c0.08467 0.05362 0.26247 0.08749 0.40358 0.08749 0.08184 0 0.15804-0.01129 0.23142-0.03951 0.2286-0.08185 0.36407-0.29633 0.36407-0.61242 0-0.09031-0.01129-0.17216-0.03387-0.23989-0.05362-0.16651-0.16933-0.29916-0.36689-0.31609l-0.10442 0.01693v-0.01411l0.10442-0.0762 0.32738-0.5334v-0.20038h-0.90311v0.29916h0.38664l0.18627-0.0254-0.13547 0.127-0.2794 0.47414v0.19191h0.16651c0.20884 0 0.31609 0.10724 0.31609 0.31891 0 0.18909-0.09596 0.3302-0.28222 0.3302-0.12136 0-0.21167-0.02822-0.29069-0.07056z" fill="#fffff0" stroke-width=".26458"/>
  </g>
  <g id="g1480" transform="translate(26.079 49.337)" fill="#fffff0" stroke-width=".26458" aria-label="4">
   <path id="path1478" d="m25.682 12.912v-0.28787h-0.24836v-1.1515h-0.29351l-0.72249 1.2305v0.20884h0.69709v0.55034h0.31891v-0.55034zm-0.56727-0.72531v0.43744h-0.25682l-0.14393 0.02258 0.11289-0.10724 0.22296-0.37818 0.08467-0.2286h0.01129z" fill="#fffff0" stroke-width=".26458"/>
  </g>
  <g id="g1484" transform="translate(-.33251 49.15)" fill="#fffff0" stroke-width=".26458" aria-label="1">
   <path id="path1482" d="m24.572 47.11v0.29916h0.95956v-0.29916h-0.31609v-1.7103h-0.19756l-0.54469 0.53058 0.15522 0.18909 0.18627-0.14393 0.11571-0.16651-0.03669 0.19191v1.1091z" fill="#fffff0" stroke-width=".26458"/>
  </g>
  <g id="g1488" transform="translate(-.31691 50.132)" fill="#fffff0" stroke-width=".26458" aria-label="2">
   <path id="path1486" d="m24.487 33.337 0.12982 0.24553c0.05644-0.0508 0.16369-0.11007 0.26811-0.11007 0.15804 0 0.23424 0.10724 0.2286 0.26529 0.0028 0.06491-0.0056 0.13264-0.0254 0.20602-0.04516 0.16369-0.11571 0.31609-0.19191 0.45438-0.11853 0.20602-0.25965 0.41205-0.40076 0.58702v0.19473h0.9906v-0.29916h-0.43745l-0.16933 0.04233v-0.01411l0.12418-0.11571c0.10724-0.14393 0.21731-0.3302 0.29916-0.51365 0.0762-0.16651 0.1524-0.37536 0.1524-0.60114 0-0.08467-0.01411-0.15804-0.03669-0.22296-0.06773-0.17216-0.20884-0.29069-0.44027-0.29069-0.22296 0-0.37253 0.07056-0.49107 0.17216z" fill="#fffff0" stroke-width=".26458"/>
  </g>
  <g id="g1492" transform="translate(-.33137 49.765)" fill="#fffff0" stroke-width=".26458" aria-label="3">
   <path id="path1490" d="m24.592 23.926-0.09031 0.28222c0.08467 0.05362 0.26247 0.08749 0.40358 0.08749 0.08184 0 0.15804-0.01129 0.23142-0.03951 0.2286-0.08185 0.36407-0.29633 0.36407-0.61242 0-0.09031-0.01129-0.17216-0.03387-0.23989-0.05362-0.16651-0.16933-0.29916-0.36689-0.31609l-0.10442 0.01693v-0.01411l0.10442-0.0762 0.32738-0.5334v-0.20038h-0.90311v0.29916h0.38664l0.18627-0.0254-0.13547 0.127-0.2794 0.47414v0.19191h0.16651c0.20884 0 0.31609 0.10724 0.31609 0.31891 0 0.18909-0.09596 0.3302-0.28222 0.3302-0.12136 0-0.21167-0.02822-0.29069-0.07056z" fill="#fffff0" stroke-width=".26458"/>
  </g>
  <g id="g1496" transform="translate(-.37952 49.337)" fill="#fffff0" stroke-width=".26458" aria-label="4">
   <path id="path1494" d="m25.682 12.912v-0.28787h-0.24836v-1.1515h-0.29351l-0.72249 1.2305v0.20884h0.69709v0.55034h0.31891v-0.55034zm-0.56727-0.72531v0.43744h-0.25682l-0.14393 0.02258 0.11289-0.10724 0.22296-0.37818 0.08467-0.2286h0.01129z" fill="#fffff0" stroke-width=".26458"/>
  </g>
  <g id="text1316" transform="translate(-.11046 1.1231)" fill="#fffff0" stroke-width=".26458" aria-label="A">
   <path id="path1336" d="m4.5806 12.676 0.12136 0.44591h0.37253l-0.57573-1.9897h-0.2794l-0.57291 1.9897h0.35278l0.11571-0.44591zm-0.38947-0.29351 0.11007-0.4572 0.047978-0.31327h0.011289l0.045156 0.31044 0.11289 0.46002z" fill="#fffff0" stroke-width=".26458"/>
  </g>
  <g id="text1320" transform="translate(-.16771 1.6653)" fill="#fffff0" stroke-width=".26458" aria-label="B">
   <path id="path1339" d="m30.772 10.569c-0.16369 0-0.37253 0.01976-0.50236 0.04233v1.9473c0.11853 0.03387 0.27658 0.04233 0.42334 0.04233h0.1016c0.38664 0 0.65194-0.19191 0.65194-0.5842 0-0.26811-0.12136-0.42616-0.33302-0.47978v-0.01693c0.18062-0.05927 0.28504-0.22578 0.28504-0.46567 0-0.37254-0.25682-0.48542-0.62654-0.48542zm-0.14676 1.7074v-0.56162h0.14393c0.2032 0 0.3048 0.07338 0.3048 0.2794 0 0.18062-0.1016 0.29916-0.27093 0.29916-0.0508 0-0.14676-0.0028-0.1778-0.01693zm0.41769-1.1402c0 0.1524-0.09031 0.24553-0.19756 0.28505-0.03387 0.0085-0.1016 0.01411-0.13829 0.01411h-0.08184v-0.54751c0.03104-0.0056 0.08467-0.01129 0.16369-0.01129 0.16933 0 0.254 0.08749 0.254 0.25964z" fill="#fffff0" stroke-width=".26458"/>
  </g>
  <g id="text1324" transform="translate(.0054355 .95911)" fill="#fffff0" stroke-width=".26458" aria-label="C">
   <path id="path1333" d="m4.4605 60.741c-0.0762 0-0.14111-0.01693-0.19473-0.0508-0.17498-0.11007-0.23142-0.35842-0.23142-0.64911 0-0.23989 0.033867-0.41769 0.10442-0.53058 0.067734-0.11289 0.16933-0.16933 0.29916-0.16933 0.12136 0 0.21731 0.01976 0.29633 0.05927l0.070556-0.31327c-0.10442-0.04516-0.24836-0.07338-0.40922-0.07338-0.22296 0-0.38947 0.08185-0.50518 0.21449-0.15804 0.1778-0.2286 0.45156-0.2286 0.80998 0 0.19191 0.016933 0.3556 0.056445 0.48542 0.090311 0.31891 0.2794 0.54469 0.66887 0.54469 0.16651 0 0.34713-0.03951 0.44027-0.11853l-0.070556-0.29916c-0.079022 0.0508-0.16651 0.09031-0.29633 0.09031z" fill="#fffff0" stroke-width=".26458"/>
  </g>
  <g id="text1328" transform="translate(-.22504 1.247)" fill="#fffff0" stroke-width=".26458" aria-label="D">
   <path id="path1330" d="m31.564 59.735c0-0.6096-0.2032-0.99907-0.81562-0.99907-0.16369 0-0.34149 0.0056-0.4826 0.02822v1.9784c0.02258 0.0056 0.05362 0.0085 0.09596 0.01129 0.10724 0.0085 0.24553 0.01693 0.35842 0.01693 0.62089 0 0.84385-0.41769 0.84385-1.0358zm-0.37253-0.0056c0 0.35842-0.06773 0.71402-0.42051 0.71402-0.04516 0-0.11571 0.0028-0.14958-0.01129v-1.3603c0.03669-0.0085 0.11289-0.0085 0.16369-0.0085 0.34431 0 0.4064 0.31891 0.4064 0.66605z" fill="#fffff0" stroke-width=".26458"/>
  </g>
  <g id="text1191" transform="translate(-6.218 .10669)" fill="#fffff0" stroke-width=".26458" aria-label="Select">
   <path id="path1193" d="m29.294 109.06-0.11571 0.31891c0.11289 0.0705 0.30762 0.11006 0.508 0.11006 0.38382 0 0.61242-0.19755 0.61242-0.58702 0-0.0988-0.01976-0.18344-0.05362-0.25682-0.07056-0.14111-0.18344-0.24836-0.31044-0.3302-0.11289-0.0706-0.2286-0.14394-0.30762-0.23425-0.03669-0.0395-0.05362-0.0875-0.05362-0.14111 0-0.12418 0.09313-0.1778 0.2286-0.1778 0.12982 0 0.27376 0.0423 0.34713 0.0903l0.11007-0.31327c-0.11289-0.0649-0.29351-0.10442-0.47413-0.10442-0.35278 0-0.56727 0.17498-0.56727 0.53058 0 0.10442 0.01693 0.19191 0.05362 0.26247 0.06773 0.14111 0.18062 0.24553 0.30762 0.32455 0.11289 0.0734 0.2286 0.14394 0.31044 0.23707 0.03387 0.0423 0.05362 0.0931 0.05362 0.1524 0 0.14676-0.09596 0.22014-0.28222 0.22014-0.13829 0-0.28787-0.0508-0.36689-0.1016z"/>
   <path id="path1195" d="m31.055 109.2c-0.21449 0-0.28504-0.14393-0.29069-0.36124h0.6858c0.01411-0.0931 0.02822-0.18345 0.02822-0.28505 0-0.33584-0.14958-0.55315-0.47413-0.55315-0.18062 0-0.31891 0.0621-0.42051 0.18344-0.1016 0.12136-0.14958 0.30762-0.14958 0.56163 0 0.42615 0.13547 0.74224 0.5588 0.74224 0.17216 0 0.35278-0.0593 0.44591-0.14111l-0.10442-0.23424c-0.05927 0.048-0.17216 0.0875-0.2794 0.0875zm0.11007-0.5842h-0.38947c0.0085-0.17215 0.05645-0.32738 0.22296-0.32738 0.14393 0 0.17498 0.15805 0.16651 0.32738z"/>
   <path id="path1197" d="m31.981 109.49c0.09313 0 0.2286-0.0254 0.28222-0.0621l-0.03104-0.27093c-0.03951 0.0169-0.07056 0.0254-0.11289 0.0254-0.07902 0-0.08467-0.0847-0.08467-0.18345v-1.5184h-0.33584v1.699c0 0.21449 0.07902 0.31045 0.28222 0.31045z"/>
   <path id="path1199" d="m32.949 109.2c-0.21449 0-0.28505-0.14393-0.29069-0.36124h0.6858c0.01411-0.0931 0.02822-0.18345 0.02822-0.28505 0-0.33584-0.14958-0.55315-0.47414-0.55315-0.18062 0-0.31891 0.0621-0.42051 0.18344-0.1016 0.12136-0.14958 0.30762-0.14958 0.56163 0 0.42615 0.13547 0.74224 0.5588 0.74224 0.17216 0 0.35278-0.0593 0.44591-0.14111l-0.10442-0.23424c-0.05927 0.048-0.17216 0.0875-0.2794 0.0875zm0.11007-0.5842h-0.38947c0.0085-0.17215 0.05644-0.32738 0.22296-0.32738 0.14393 0 0.17498 0.15805 0.16651 0.32738z"/>
   <path id="path1201" d="m34.137 109.18c-0.20038 0-0.254-0.21731-0.254-0.43462 0-0.1524 0.01976-0.26247 0.05927-0.33021 0.03951-0.0677 0.09878-0.10442 0.1778-0.10442 0.09313 0 0.14111 0.0198 0.20884 0.0508l0.07902-0.2794c-0.09596-0.0508-0.19473-0.079-0.34996-0.079-0.39229 0-0.52211 0.31609-0.52211 0.74225 0 0.41486 0.10724 0.74224 0.51647 0.74224 0.14393 0 0.28222-0.0451 0.36689-0.11289l-0.07056-0.25964c-0.05927 0.0395-0.11853 0.0649-0.21167 0.0649z"/>
   <path id="path1203" d="m34.941 109.49c0.11853 0 0.23425-0.031 0.31609-0.0734l-0.04233-0.26811c-0.0508 0.0226-0.08749 0.0339-0.14958 0.0339-0.10442 0-0.11007-0.096-0.11007-0.22296v-0.61525h0.27376v-0.29915h-0.27376v-0.36971l-0.33585 0.10442v0.26529h-0.15522v0.29915h0.15522v0.73943c0 0.26247 0.07902 0.4064 0.32173 0.4064z"/>
  </g>
  <rect id="rect1249" x="30.917" y="109.38" width="7.25" height="10.15" rx="1" ry="1" fill="none" opacity=".994" stop-color="#000000" stroke="#555d50" stroke-width=".25"/>
  <g id="g1362" transform="translate(.52917 -.74999)" fill="#fffff0" stroke-width=".26458">
   <g id="text1269" transform="translate(-2.68 6.838)" aria-label="0V = A">
    <path id="path1283" d="m34.18 105.18q0-0.20743 0.02752-0.35348 0.02963-0.14605 0.08467-0.23707 0.05503-0.0931 0.13547-0.13547 0.08043-0.0423 0.18415-0.0423 0.11007 0 0.1905 0.0423 0.08255 0.0423 0.13547 0.13547 0.05503 0.091 0.08043 0.23707 0.02752 0.14605 0.02752 0.35348 0 0.20955-0.02963 0.35772-0.02963 0.14605-0.08467 0.23918-0.05503 0.091-0.13547 0.13335-0.08043 0.0423-0.18415 0.0423-0.11007 0-0.19262-0.0423-0.08043-0.0444-0.13335-0.13758-0.05292-0.0952-0.08043-0.2413-0.0254-0.14605-0.0254-0.35137zm0.25188 0q0 0.28363 0.04233 0.41698 0.04233 0.13124 0.1397 0.13124 0.04657 0 0.08043-0.0296 0.03598-0.0296 0.05715-0.0952t0.03175-0.16933q0.01058-0.10372 0.01058-0.254 0-0.28152-0.04233-0.41275-0.04022-0.13123-0.1397-0.13123-0.04868 0-0.08255 0.0296t-0.05503 0.0952q-0.02117 0.0656-0.03175 0.16933-0.01058 0.10372-0.01058 0.24977z"/>
    <path id="path1285" d="m35.632 105.31 0.02963 0.254h0.0085l0.03387-0.25611 0.2159-0.86784h0.28152l-0.44873 1.4922h-0.20323l-0.45297-1.4922h0.31538z"/>
    <path id="path1287" d="m36.643 104.89h0.77893v0.22437h-0.77893zm0 0.40428h0.77893v0.22437h-0.77893z"/>
    <path id="path1289" d="m38.559 105.59h-0.34925l-0.08678 0.33443h-0.26458l0.42968-1.4922h0.20955l0.4318 1.4922h-0.2794zm-0.2921-0.22014h0.24553l-0.08467-0.34501-0.03387-0.23284h-0.0085l-0.03598 0.23495z"/>
   </g>
   <g id="text1273" transform="translate(-3.0891 6.8045)" aria-label="1V = B">
    <path id="path1292" d="m34.699 107.9h0.2413v-0.83186l0.02752-0.14393-0.08678 0.12488-0.1397 0.10795-0.11642-0.14181 0.40852-0.39794h0.14817v1.2827h0.23707v0.22436h-0.71967z"/>
    <path id="path1294" d="m36.041 107.51 0.02963 0.254h0.0085l0.03387-0.25612 0.2159-0.86784h0.28152l-0.44873 1.4923h-0.2032l-0.45297-1.4923h0.31535z"/>
    <path id="path1296" d="m37.053 107.09h0.77893v0.22437h-0.77893zm0 0.40429h0.77893v0.22436h-0.77893z"/>
    <path id="path1298" d="m39.288 106.99q0 0.055-0.0127 0.11007-0.01058 0.0529-0.03598 0.1016-0.0254 0.0466-0.06773 0.0825-0.04022 0.036-0.09737 0.055v0.0127q0.0508 0.0127 0.09525 0.0381 0.04657 0.0254 0.08043 0.0699 0.03387 0.0423 0.05292 0.10583 0.02117 0.0614 0.02117 0.14605 0 0.1143-0.04022 0.19897-0.0381 0.0825-0.10583 0.13546-0.06562 0.0529-0.15452 0.0783-0.0889 0.0254-0.18838 0.0254-0.02963 0-0.0762 0t-0.1016-4e-3q-0.05292-2e-3 -0.11007-8e-3 -0.05715-6e-3 -0.10583-0.019v-1.4605q0.06985-0.0127 0.17145-0.0212 0.10372-0.0106 0.20532-0.0106 0.09313 0 0.1778 0.0148 0.08678 0.0148 0.15028 0.055 0.06562 0.0402 0.10372 0.11218 0.0381 0.0699 0.0381 0.18203zm-0.44662 0.92922q0.0889 0 0.14605-0.0571 0.05715-0.0572 0.05715-0.16721 0-0.0698-0.01905-0.11007-0.01905-0.0423-0.0508-0.0635-0.03175-0.0233-0.07408-0.0296-0.04022-6e-3 -0.08467-6e-3h-0.10795v0.42121q0.01693 6e-3 0.05715 0.0106 0.04233 2e-3 0.0762 2e-3zm-0.07197-0.64347q0.02328 0 0.05292-2e-3 0.03175-4e-3 0.0508-8e-3 0.06138-0.0233 0.10372-0.0762 0.04445-0.0529 0.04445-0.13758 0-0.055-0.01482-0.0931t-0.04022-0.0593q-0.0254-0.0233-0.06138-0.0318-0.03387-0.0106-0.07408-0.0106-0.08678 0-0.12277 8e-3v0.41063z"/>
   </g>
   <g id="text1277" transform="translate(-7.8643 7.1898)" aria-label="2V = C">
    <path id="path1301" d="m40.148 108.78q0 0.11007-0.03175 0.22648-0.03175 0.1143-0.08255 0.22437-0.04868 0.11007-0.10795 0.20955-0.05927 0.0995-0.11642 0.17568l-0.09313 0.0868v0.0106l0.127-0.0318h0.32808v0.22437h-0.74295v-0.14605q0.04445-0.055 0.09525-0.12489 0.05292-0.072 0.10372-0.15028 0.05292-0.0804 0.1016-0.1651 0.04868-0.0868 0.08467-0.17145 0.0381-0.0868 0.05927-0.16933 0.02328-0.0825 0.01905-0.15452 0.0042-0.0889-0.0381-0.14393-0.04233-0.055-0.13335-0.055-0.05292 0-0.10795 0.0254-0.05503 0.0233-0.09313 0.0572l-0.09737-0.18415q0.06985-0.0593 0.15875-0.0931 0.0889-0.036 0.20955-0.036 0.0762 0 0.14182 0.0254 0.06562 0.0233 0.11218 0.072 0.04868 0.0487 0.0762 0.12065 0.02752 0.072 0.02752 0.16722z"/>
    <path id="path1303" d="m40.823 109.29 0.02963 0.254h0.0085l0.03387-0.25612 0.2159-0.86783h0.28152l-0.44873 1.4922h-0.2032l-0.45297-1.4922h0.31538z"/>
    <path id="path1305" d="m41.835 108.87h0.77893v0.22436h-0.77893zm0 0.40428h0.77893v0.22437h-0.77893z"/>
    <path id="path1307" d="m44.039 109.84q-0.05503 0.0466-0.14817 0.0677-0.09102 0.0212-0.18203 0.0212-0.1143 0-0.21378-0.0381-0.09737-0.0402-0.17145-0.13123-0.07408-0.091-0.11642-0.23919-0.04233-0.14816-0.04233-0.36406 0-0.22437 0.04657-0.37254 0.04868-0.14816 0.12488-0.23495 0.07832-0.0889 0.1778-0.12488 0.09948-0.036 0.20108-0.036 0.10372 0 0.17992 0.0169 0.07832 0.0169 0.127 0.0381l-0.05292 0.23495q-0.04022-0.0212-0.09525-0.0318-0.05292-0.0127-0.127-0.0127-0.14605 0-0.22437 0.127-0.07832 0.127-0.07832 0.39793 0 0.11642 0.01693 0.21379 0.01905 0.0952 0.05715 0.1651 0.04022 0.0699 0.09948 0.10795 0.06138 0.0381 0.14605 0.0381 0.07408 0 0.127-0.0191 0.05292-0.0212 0.09525-0.0487z"/>
   </g>
   <g id="text1281" transform="translate(-7.9949 6.9231)" aria-label="3V = D">
    <path id="path1310" d="m39.839 112.13q0.10372 0 0.15663-0.0699 0.05503-0.0699 0.05503-0.1778 0-0.23918-0.23707-0.23918h-0.12488v-0.14393l0.20955-0.3556 0.1016-0.0952-0.1397 0.019h-0.28998v-0.22437h0.67733v0.15028l-0.24553 0.40005-0.07832 0.0572v0.0106l0.07832-0.0127q0.05927 4e-3 0.1143 0.0318 0.05503 0.0275 0.09525 0.0783 0.04233 0.0508 0.06562 0.127 0.0254 0.0762 0.0254 0.17992 0 0.12488-0.03598 0.2159-0.03387 0.091-0.09525 0.1524-0.05927 0.0614-0.14182 0.091-0.08043 0.0296-0.17357 0.0296-0.07832 0-0.1651-0.0169t-0.13758-0.0487l0.06773-0.21166q0.04445 0.0233 0.09737 0.0381t0.12065 0.0148z"/>
    <path id="path1312" d="m40.941 111.72 0.02963 0.254h0.0085l0.03387-0.25612 0.2159-0.86783h0.28152l-0.44873 1.4922h-0.2032l-0.45297-1.4922h0.31538z"/>
    <path id="path1314" d="m41.953 111.29h0.77893v0.22436h-0.77893zm0 0.40428h0.77893v0.22437h-0.77893z"/>
    <path id="path1316" d="m43.342 110.85q0.0381-6e-3 0.08467-8e-3 0.04868-4e-3 0.09737-6e-3 0.0508-4e-3 0.09737-4e-3 0.04657-2e-3 0.08255-2e-3 0.17568 0 0.2921 0.055 0.11853 0.0529 0.18838 0.1524 0.07197 0.0974 0.1016 0.23495 0.02963 0.13758 0.02963 0.30691 0 0.15452-0.02963 0.29634-0.02752 0.1397-0.09948 0.24765-0.07197 0.10583-0.19473 0.16933-0.12277 0.0635-0.30903 0.0635-0.02752 0-0.07408-2e-3 -0.04657-2e-3 -0.09737-6e-3 -0.0508-2e-3 -0.09737-6e-3 -0.04657-2e-3 -0.07197-6e-3zm0.38947 0.22437q-0.03387 0-0.06985 2e-3 -0.03387 0-0.05292 4e-3v1.0202q0.0063 2e-3 0.02117 4e-3 0.01693 0 0.03387 2e-3 0.01905 0 0.03387 2e-3 0.01693 0 0.02328 0 0.09525 0 0.15663-0.0444 0.06138-0.0444 0.09525-0.11854 0.03598-0.0741 0.04868-0.16933 0.01482-0.0974 0.01482-0.2032 0-0.0974-0.0127-0.18838-0.01058-0.091-0.04445-0.15875-0.03175-0.0699-0.09313-0.11007-0.05927-0.0423-0.15452-0.0423z"/>
   </g>
  </g>
  <g id="text1230" transform="translate(-2.6512 6.9547)" fill="#fffff0" stroke-width=".26458" aria-label="Microtonal Chords">
   <path id="path1232" d="m17.036 0.28871v1.7829h0.6223v-3.4572h-0.58773l-0.67663 1.4866-0.1136 0.43956h-0.01976l-0.11853-0.42968-0.72108-1.4965h-0.59761v3.4572h0.58773v-1.7879l-0.09384-0.66675h0.02963l0.18274 0.59761 0.59761 1.2199h0.20743l0.56303-1.215 0.18274-0.59267h0.02469z"/>
   <path id="path1234" d="m18.143-0.3978v2.4694h0.58773v-2.4694zm0.2914-0.36548c0.21731 0 0.3803-0.11359 0.3803-0.33091 0-0.21237-0.16298-0.34078-0.3803-0.34078-0.21731 0-0.36054 0.13335-0.36054 0.34078 0 0.21237 0.14323 0.33091 0.36054 0.33091z"/>
   <path id="path1236" d="m20.168 1.5975c-0.35066 0-0.4445-0.3803-0.4445-0.76059 0-0.2667 0.03457-0.45932 0.10372-0.57785 0.06914-0.11853 0.17286-0.18274 0.31115-0.18274 0.16298 0 0.24694 0.034572 0.36548 0.0889l0.13829-0.48895c-0.16792-0.0889-0.34078-0.13829-0.61242-0.13829-0.68651 0-0.9137 0.55316-0.9137 1.2989 0 0.72602 0.18768 1.2989 0.90382 1.2989 0.25188 0 0.49389-0.079022 0.64206-0.19756l-0.12347-0.45438c-0.10372 0.069145-0.20743 0.11359-0.37042 0.11359z"/>
   <path id="path1238" d="m21.472-0.10147h-0.01976l-0.06914-0.29633h-0.44944v2.4694h0.58773v-1.6496c0.03951-0.15804 0.16298-0.28152 0.36054-0.28152 0.06421 0 0.13829 0.014817 0.21731 0.04445l0.06914-0.58279c-0.07902-0.029633-0.1531-0.049389-0.23213-0.049389-0.24201 0-0.39511 0.16298-0.46426 0.34572z"/>
   <path id="path1240" d="m24.242 0.83692c0-0.77047-0.25188-1.2989-0.9779-1.2989-0.70132 0-0.97296 0.53834-0.97296 1.2989 0 0.86925 0.32103 1.2989 0.97296 1.2989 0.70626 0 0.9779-0.52846 0.9779-1.2989zm-1.3434 0c0-0.28152 0.02963-0.47907 0.09384-0.59761s0.15311-0.1778 0.27164-0.1778c0.13335 0 0.22719 0.069145 0.28646 0.19756 0.05433 0.13335 0.08396 0.32597 0.08396 0.57785 0 0.28646-0.03457 0.48401-0.09384 0.60255s-0.15311 0.17286-0.27658 0.17286c-0.32103 0-0.36548-0.39511-0.36548-0.77541z"/>
   <path id="path1242" d="m25.22 2.1309c0.20743 0 0.40993-0.054328 0.55316-0.12841l-0.074083-0.4692c-0.0889 0.039511-0.15311 0.059267-0.26176 0.059267-0.18274 0-0.19262-0.16792-0.19262-0.39017v-1.0767h0.47907v-0.52352h-0.47907v-0.647l-0.58773 0.18274v0.46426h-0.27164v0.52352h0.27164v1.294c0 0.45932 0.13829 0.7112 0.56304 0.7112z"/>
   <path id="path1244" d="m27.877 0.83692c0-0.77047-0.25188-1.2989-0.9779-1.2989-0.70132 0-0.97296 0.53834-0.97296 1.2989 0 0.86925 0.32103 1.2989 0.97296 1.2989 0.70626 0 0.9779-0.52846 0.9779-1.2989zm-1.3434 0c0-0.28152 0.02963-0.47907 0.09384-0.59761s0.15311-0.1778 0.27164-0.1778c0.13335 0 0.22719 0.069145 0.28646 0.19756 0.05433 0.13335 0.08396 0.32597 0.08396 0.57785 0 0.28646-0.03457 0.48401-0.09384 0.60255s-0.15311 0.17286-0.27658 0.17286c-0.32103 0-0.36548-0.39511-0.36548-0.77541z"/>
   <path id="path1246" d="m29.408-0.45707c-0.32597 0-0.52352 0.15311-0.64206 0.34572h-0.01482l-0.06914-0.28646h-0.4692v2.4694h0.58773v-1.7138c0.04445-0.13829 0.16792-0.27658 0.3556-0.27658 0.24694 0 0.28152 0.19756 0.28152 0.48895v1.5014h0.58773v-1.6447c0-0.51365-0.11853-0.88406-0.61736-0.88406z"/>
   <path id="path1248" d="m31.172 0.056578c0.30127 0 0.32597 0.21237 0.30127 0.54328-0.66675-0.034572-1.1705 0.16298-1.1705 0.79022 0 0.41487 0.22225 0.71614 0.62724 0.71614 0.2914 0 0.47414-0.13829 0.58279-0.33091h0.01975l0.09384 0.30127h0.47907c-0.14817-0.47413-0.04445-1.1211-0.04445-1.6891 0-0.54328-0.2025-0.83467-0.75071-0.83467-0.3556 0-0.66675 0.074084-0.87419 0.19756l0.14817 0.43956c0.14323-0.074084 0.37042-0.13335 0.58773-0.13335zm-0.26176 1.2347c0-0.28152 0.28152-0.34572 0.57291-0.31115v0.40993c-0.05927 0.11359-0.17286 0.21237-0.34078 0.21237-0.16792 0-0.23213-0.12841-0.23213-0.31115z"/>
   <path id="path1250" d="m32.974 2.1309c0.16298 0 0.40005-0.04445 0.49389-0.10866l-0.05433-0.47413c-0.06914 0.029633-0.12347 0.04445-0.19756 0.04445-0.13829 0-0.14817-0.14817-0.14817-0.32103v-2.6571h-0.58773v2.9732c0 0.37536 0.13829 0.54328 0.49389 0.54328z"/>
   <path id="path1252" d="m35.952 1.5679c-0.13335 0-0.24694-0.029633-0.34078-0.0889-0.30621-0.19262-0.40499-0.62724-0.40499-1.1359 0-0.41981 0.05927-0.73096 0.18274-0.92851 0.11853-0.19756 0.29633-0.29633 0.52352-0.29633 0.21237 0 0.3803 0.034572 0.51858 0.10372l0.12347-0.54822c-0.18274-0.079022-0.43462-0.12841-0.71614-0.12841-0.39017 0-0.68157 0.14323-0.88406 0.37536-0.27658 0.31115-0.40005 0.79022-0.40005 1.4175 0 0.33585 0.02963 0.6223 0.09878 0.84949 0.15804 0.5581 0.48895 0.95321 1.1705 0.95321 0.2914 0 0.60748-0.069145 0.77047-0.20743l-0.12347-0.52352c-0.13829 0.0889-0.2914 0.15804-0.51858 0.15804z"/>
   <path id="path1254" d="m38.076-0.46201c-0.2914 0-0.4692 0.12347-0.59267 0.28646h-0.01482v-1.21h-0.58773v3.4572h0.58773v-1.699c0.03951-0.14817 0.17286-0.29633 0.35066-0.29633 0.25188 0 0.28646 0.21237 0.28646 0.50377v1.4915h0.58773v-1.62c0-0.52846-0.10372-0.9137-0.61736-0.9137z"/>
   <path id="path1256" d="m40.96 0.83692c0-0.77047-0.25188-1.2989-0.9779-1.2989-0.70132 0-0.97296 0.53834-0.97296 1.2989 0 0.86925 0.32103 1.2989 0.97296 1.2989 0.70626 0 0.9779-0.52846 0.9779-1.2989zm-1.3434 0c0-0.28152 0.02963-0.47907 0.09384-0.59761s0.15311-0.1778 0.27164-0.1778c0.13335 0 0.22719 0.069145 0.28646 0.19756 0.05433 0.13335 0.08396 0.32597 0.08396 0.57785 0 0.28646-0.03457 0.48401-0.09384 0.60255s-0.15311 0.17286-0.27658 0.17286c-0.32103 0-0.36548-0.39511-0.36548-0.77541z"/>
   <path id="path1258" d="m41.835-0.10147h-0.01976l-0.06914-0.29633h-0.44944v2.4694h0.58773v-1.6496c0.03951-0.15804 0.16298-0.28152 0.36054-0.28152 0.06421 0 0.13829 0.014817 0.21731 0.04445l0.06914-0.58279c-0.07902-0.029633-0.15311-0.049389-0.23213-0.049389-0.24201 0-0.39511 0.16298-0.46426 0.34572z"/>
   <path id="path1260" d="m43.578-0.45213c-0.69638 0-0.92357 0.57785-0.92357 1.3286 0 0.4445 0.06914 0.76553 0.21237 0.96309 0.14323 0.19756 0.34078 0.29633 0.59267 0.29633 0.27658 0 0.47414-0.11359 0.58773-0.34572h0.01976l0.07902 0.28646h0.41487c-0.044452-0.30127-0.044452-0.54822-0.044452-0.87419v-2.588h-0.58773v0.99766c-0.10866-0.04445-0.19756-0.064206-0.35066-0.064206zm-0.31609 1.3483c0-0.30127 0.02963-0.51365 0.09878-0.63218 0.06421-0.11853 0.16298-0.1778 0.29633-0.1778 0.12841 0 0.2025 0.024694 0.27164 0.083961v1.1656c-0.04939 0.15804-0.13829 0.26176-0.33091 0.26176-0.2914 0-0.33584-0.3556-0.33584-0.70132z"/>
   <path id="path1262" d="m45.509 1.6321c-0.20743 0-0.39511-0.069145-0.52352-0.14817l-0.16298 0.47413c0.15311 0.10866 0.4445 0.1778 0.7112 0.1778 0.50871 0 0.8248-0.2667 0.8248-0.75565 0-0.51365-0.3556-0.67169-0.67663-0.85937-0.10866-0.059267-0.23707-0.12841-0.23707-0.27658 0-0.13335 0.07902-0.20249 0.24201-0.20249 0.16792 0 0.36548 0.064206 0.48895 0.11359l0.13829-0.45438c-0.16298-0.093839-0.44944-0.16298-0.71614-0.16298-0.47907 0-0.74084 0.25188-0.74084 0.72108 0 0.51365 0.36054 0.66181 0.67663 0.84949 0.10866 0.064206 0.23707 0.14817 0.23707 0.30621 0 0.15311-0.1136 0.21731-0.26176 0.21731z"/>
  </g>
  <g id="g30184" transform="translate(1 74.5)" fill="#242422" stroke="#fffff0">
   <path id="path960-1" transform="rotate(90)" d="m45.508-7.3782a6.1 6.1 0 0 1-3.929 3.2704l-1.5788-5.8921z" opacity=".994" stop-color="#000000" stroke-width=".1"/>
   <path id="path958-7" transform="rotate(90)" d="m41.995-4.2355a6.1 6.1 0 0 1-5.4939-0.76767l3.4988-4.9968z" opacity=".994" stop-color="#000000" stroke-width=".1"/>
   <path id="path956-8" transform="rotate(90)" d="m37.292-4.534a6.1 6.1 0 0 1-3.3688-4.9343l6.0768-0.53165z" opacity=".994" stop-color="#000000" stroke-width=".1"/>
   <path id="path954-5" transform="rotate(90)" d="m34.205-8.0967a6.1 6.1 0 0 1 1.4821-6.2167l4.3134 4.3134z" opacity=".994" stop-color="#000000" stroke-width=".1"/>
   <path id="path962-7" transform="rotate(90)" d="m34.578-12.795a6.1 6.1 0 0 1 5.9535-3.2816l-0.53165 6.0768z" opacity=".994" stop-color="#000000" stroke-width=".1"/>
   <path id="path964-4" transform="rotate(90)" d="m38.189-15.825a6.1 6.1 0 0 1 7.0939 2.7749l-5.2828 3.05z" opacity=".994" stop-color="#000000" stroke-width=".1"/>
   <path id="path966-1" transform="rotate(90)" d="m42.881-15.377a6.1 6.1 0 0 1 2.627 2.7551l-5.5078 2.6218z" opacity=".994" stop-color="#000000" stroke-width=".1"/>
   <circle id="circle968" cx="10" cy="40" r="5" opacity=".994" stop-color="#000000" stroke-width=".099999"/>
  </g>
  <g id="g30195" transform="translate(9 -2.75)" fill="#242422" stroke="#fffff0" stroke-width=".1">
   <path id="path720-4" transform="rotate(90)" d="m24.232-7.0853a5.14 5.14 0 0 1-3.7857 2.2058l-0.44798-5.1204z" opacity=".994" stop-color="#000000"/>
   <path id="path722-3" transform="rotate(90)" d="m20.891-4.9381a5.14 5.14 0 0 1-4.5271-1.4274l3.6345-3.6345z" opacity=".994" stop-color="#000000"/>
   <path id="path724-0" transform="rotate(90)" d="m24.64-7.7908a5.14 5.14 0 0 1-0.43058 0.739l-4.2104-2.9482z" opacity=".994" stop-color="#000000"/>
   <path id="path726-7" transform="rotate(90)" d="m17.017-5.8131a5.14 5.14 0 0 1-2.1389-4.6349l5.1204 0.44798z" opacity=".994" stop-color="#000000"/>
   <path id="path728-8" transform="rotate(90)" d="m14.923-9.1879a5.14 5.14 0 0 1 2.1273-5.0226l2.9482 4.2104z" opacity=".994" stop-color="#000000"/>
   <path id="path730-6" transform="rotate(90)" d="m15.86-13.048a5.14 5.14 0 0 1 5.4694-1.9173l-1.3303 4.9649z" opacity=".994" stop-color="#000000"/>
   <path id="path732-8" transform="rotate(90)" d="m19.267-15.088a5.14 5.14 0 0 1 5.3899 2.9154l-4.6584 2.1723z" opacity=".994" stop-color="#000000"/>
   <path id="path734-8" transform="rotate(90)" d="m23.112-14.09a5.14 5.14 0 0 1 1.5282 1.881l-4.641 2.2092z" opacity=".994" stop-color="#000000"/>
   <circle id="circle736-4" cx="10" cy="20" r="4.04" opacity=".994" stop-color="#000000"/>
  </g>
  <g id="g1761" transform="translate(9 8.5)" fill="#242422" stroke="#fffff0" stroke-width=".1">
   <path id="path1743" transform="rotate(90)" d="m24.232-7.0853a5.14 5.14 0 0 1-3.7857 2.2058l-0.44798-5.1204z" opacity=".994" stop-color="#000000"/>
   <path id="path1745" transform="rotate(90)" d="m20.891-4.9381a5.14 5.14 0 0 1-4.5271-1.4274l3.6345-3.6345z" opacity=".994" stop-color="#000000"/>
   <path id="path1747" transform="rotate(90)" d="m24.64-7.7908a5.14 5.14 0 0 1-0.43058 0.739l-4.2104-2.9482z" opacity=".994" stop-color="#000000"/>
   <path id="path1749" transform="rotate(90)" d="m17.017-5.8131a5.14 5.14 0 0 1-2.1389-4.6349l5.1204 0.44798z" opacity=".994" stop-color="#000000"/>
   <path id="path1751" transform="rotate(90)" d="m14.923-9.1879a5.14 5.14 0 0 1 2.1273-5.0226l2.9482 4.2104z" opacity=".994" stop-color="#000000"/>
   <path id="path1753" transform="rotate(90)" d="m15.86-13.048a5.14 5.14 0 0 1 5.4694-1.9173l-1.3303 4.9649z" opacity=".994" stop-color="#000000"/>
   <path id="path1755" transform="rotate(90)" d="m19.267-15.088a5.14 5.14 0 0 1 5.3899 2.9154l-4.6584 2.1723z" opacity=".994" stop-color="#000000"/>
   <path id="path1757" transform="rotate(90)" d="m23.112-14.09a5.14 5.14 0 0 1 1.5282 1.881l-4.641 2.2092z" opacity=".994" stop-color="#000000"/>
   <circle id="circle1759" cx="10" cy="20" r="4.04" opacity=".994" stop-color="#000000"/>
  </g>
  <g id="g1781" transform="translate(9 19.75)" fill="#242422" stroke="#fffff0" stroke-width=".1">
   <path id="path1763" transform="rotate(90)" d="m24.232-7.0853a5.14 5.14 0 0 1-3.7857 2.2058l-0.44798-5.1204z" opacity=".994" stop-color="#000000"/>
   <path id="path1765" transform="rotate(90)" d="m20.891-4.9381a5.14 5.14 0 0 1-4.5271-1.4274l3.6345-3.6345z" opacity=".994" stop-color="#000000"/>
   <path id="path1767" transform="rotate(90)" d="m24.64-7.7908a5.14 5.14 0 0 1-0.43058 0.739l-4.2104-2.9482z" opacity=".994" stop-color="#000000"/>
   <path id="path1769" transform="rotate(90)" d="m17.017-5.8131a5.14 5.14 0 0 1-2.1389-4.6349l5.1204 0.44798z" opacity=".994" stop-color="#000000"/>
   <path id="path1771" transform="rotate(90)" d="m14.923-9.1879a5.14 5.14 0 0 1 2.1273-5.0226l2.9482 4.2104z" opacity=".994" stop-color="#000000"/>
   <path id="path1773" transform="rotate(90)" d="m15.86-13.048a5.14 5.14 0 0 1 5.4694-1.9173l-1.3303 4.9649z" opacity=".994" stop-color="#000000"/>
   <path id="path1775" transform="rotate(90)" d="m19.267-15.088a5.14 5.14 0 0 1 5.3899 2.9154l-4.6584 2.1723z" opacity=".994" stop-color="#000000"/>
   <path id="path1777" transform="rotate(90)" d="m23.112-14.09a5.14 5.14 0 0 1 1.5282 1.881l-4.641 2.2092z" opacity=".994" stop-color="#000000"/>
   <circle id="circle1779" cx="10" cy="20" r="4.04" opacity=".994" stop-color="#000000"/>
  </g>
  <g id="g1801" transform="translate(9 31)" fill="#242422" stroke="#fffff0" stroke-width=".1">
   <path id="path1783" transform="rotate(90)" d="m24.232-7.0853a5.14 5.14 0 0 1-3.7857 2.2058l-0.44798-5.1204z" opacity=".994" stop-color="#000000"/>
   <path id="path1785" transform="rotate(90)" d="m20.891-4.9381a5.14 5.14 0 0 1-4.5271-1.4274l3.6345-3.6345z" opacity=".994" stop-color="#000000"/>
   <path id="path1787" transform="rotate(90)" d="m24.64-7.7908a5.14 5.14 0 0 1-0.43058 0.739l-4.2104-2.9482z" opacity=".994" stop-color="#000000"/>
   <path id="path1789" transform="rotate(90)" d="m17.017-5.8131a5.14 5.14 0 0 1-2.1389-4.6349l5.1204 0.44798z" opacity=".994" stop-color="#000000"/>
   <path id="path1791" transform="rotate(90)" d="m14.923-9.1879a5.14 5.14 0 0 1 2.1273-5.0226l2.9482 4.2104z" opacity=".994" stop-color="#000000"/>
   <path id="path1793" transform="rotate(90)" d="m15.86-13.048a5.14 5.14 0 0 1 5.4694-1.9173l-1.3303 4.9649z" opacity=".994" stop-color="#000000"/>
   <path id="path1795" transform="rotate(90)" d="m19.267-15.088a5.14 5.14 0 0 1 5.3899 2.9154l-4.6584 2.1723z" opacity=".994" stop-color="#000000"/>
   <path id="path1797" transform="rotate(90)" d="m23.112-14.09a5.14 5.14 0 0 1 1.5282 1.881l-4.641 2.2092z" opacity=".994" stop-color="#000000"/>
   <circle id="circle1799" cx="10" cy="20" r="4.04" opacity=".994" stop-color="#000000"/>
  </g>
  <g id="g1901" transform="translate(35.44 -2.7487)" fill="#242422" stroke="#fffff0" stroke-width=".1">
   <path id="path1883" transform="rotate(90)" d="m24.232-7.0853a5.14 5.14 0 0 1-3.7857 2.2058l-0.44798-5.1204z" opacity=".994" stop-color="#000000"/>
   <path id="path1885" transform="rotate(90)" d="m20.891-4.9381a5.14 5.14 0 0 1-4.5271-1.4274l3.6345-3.6345z" opacity=".994" stop-color="#000000"/>
   <path id="path1887" transform="rotate(90)" d="m24.64-7.7908a5.14 5.14 0 0 1-0.43058 0.739l-4.2104-2.9482z" opacity=".994" stop-color="#000000"/>
   <path id="path1889" transform="rotate(90)" d="m17.017-5.8131a5.14 5.14 0 0 1-2.1389-4.6349l5.1204 0.44798z" opacity=".994" stop-color="#000000"/>
   <path id="path1891" transform="rotate(90)" d="m14.923-9.1879a5.14 5.14 0 0 1 2.1273-5.0226l2.9482 4.2104z" opacity=".994" stop-color="#000000"/>
   <path id="path1893" transform="rotate(90)" d="m15.86-13.048a5.14 5.14 0 0 1 5.4694-1.9173l-1.3303 4.9649z" opacity=".994" stop-color="#000000"/>
   <path id="path1895" transform="rotate(90)" d="m19.267-15.088a5.14 5.14 0 0 1 5.3899 2.9154l-4.6584 2.1723z" opacity=".994" stop-color="#000000"/>
   <path id="path1897" transform="rotate(90)" d="m23.112-14.09a5.14 5.14 0 0 1 1.5282 1.881l-4.641 2.2092z" opacity=".994" stop-color="#000000"/>
   <circle id="circle1899" cx="10" cy="20" r="4.04" opacity=".994" stop-color="#000000"/>
  </g>
  <g id="g2801" transform="translate(35.44 8.5)" fill="#242422" stroke="#fffff0" stroke-width=".1">
   <path id="path2783" transform="rotate(90)" d="m24.232-7.0853a5.14 5.14 0 0 1-3.7857 2.2058l-0.44798-5.1204z" opacity=".994" stop-color="#000000"/>
   <path id="path2785" transform="rotate(90)" d="m20.891-4.9381a5.14 5.14 0 0 1-4.5271-1.4274l3.6345-3.6345z" opacity=".994" stop-color="#000000"/>
   <path id="path2787" transform="rotate(90)" d="m24.64-7.7908a5.14 5.14 0 0 1-0.43058 0.739l-4.2104-2.9482z" opacity=".994" stop-color="#000000"/>
   <path id="path2789" transform="rotate(90)" d="m17.017-5.8131a5.14 5.14 0 0 1-2.1389-4.6349l5.1204 0.44798z" opacity=".994" stop-color="#000000"/>
   <path id="path2791" transform="rotate(90)" d="m14.923-9.1879a5.14 5.14 0 0 1 2.1273-5.0226l2.9482 4.2104z" opacity=".994" stop-color="#000000"/>
   <path id="path2793" transform="rotate(90)" d="m15.86-13.048a5.14 5.14 0 0 1 5.4694-1.9173l-1.3303 4.9649z" opacity=".994" stop-color="#000000"/>
   <path id="path2795" transform="rotate(90)" d="m19.267-15.088a5.14 5.14 0 0 1 5.3899 2.9154l-4.6584 2.1723z" opacity=".994" stop-color="#000000"/>
   <path id="path2797" transform="rotate(90)" d="m23.112-14.09a5.14 5.14 0 0 1 1.5282 1.881l-4.641 2.2092z" opacity=".994" stop-color="#000000"/>
   <circle id="circle2799" cx="10" cy="20" r="4.04" opacity=".994" stop-color="#000000"/>
  </g>
  <g id="g2821" transform="translate(35.44 19.75)" fill="#242422" stroke="#fffff0" stroke-width=".1">
   <path id="path2803" transform="rotate(90)" d="m24.232-7.0853a5.14 5.14 0 0 1-3.7857 2.2058l-0.44798-5.1204z" opacity=".994" stop-color="#000000"/>
   <path id="path2805" transform="rotate(90)" d="m20.891-4.9381a5.14 5.14 0 0 1-4.5271-1.4274l3.6345-3.6345z" opacity=".994" stop-color="#000000"/>
   <path id="path2807" transform="rotate(90)" d="m24.64-7.7908a5.14 5.14 0 0 1-0.43058 0.739l-4.2104-2.9482z" opacity=".994" stop-color="#000000"/>
   <path id="path2809" transform="rotate(90)" d="m17.017-5.8131a5.14 5.14 0 0 1-2.1389-4.6349l5.1204 0.44798z" opacity=".994" stop-color="#000000"/>
   <path id="path2811" transform="rotate(90)" d="m14.923-9.1879a5.14 5.14 0 0 1 2.1273-5.0226l2.9482 4.2104z" opacity=".994" stop-color="#000000"/>
   <path id="path2813" transform="rotate(90)" d="m15.86-13.048a5.14 5.14 0 0 1 5.4694-1.9173l-1.3303 4.9649z" opacity=".994" stop-color="#000000"/>
   <path id="path2815" transform="rotate(90)" d="m19.267-15.088a5.14 5.14 0 0 1 5.3899 2.9154l-4.6584 2.1723z" opacity=".994" stop-color="#000000"/>
   <path id="path2817" transform="rotate(90)" d="m23.112-14.09a5.14 5.14 0 0 1 1.5282 1.881l-4.641 2.2092z" opacity=".994" stop-color="#000000"/>
   <circle id="circle2819" cx="10" cy="20" r="4.04" opacity=".994" stop-color="#000000"/>
  </g>
  <g id="g2841" transform="translate(35.44 31)" fill="#242422" stroke="#fffff0" stroke-width=".1">
   <path id="path2823" transform="rotate(90)" d="m24.232-7.0853a5.14 5.14 0 0 1-3.7857 2.2058l-0.44798-5.1204z" opacity=".994" stop-color="#000000"/>
   <path id="path2825" transform="rotate(90)" d="m20.891-4.9381a5.14 5.14 0 0 1-4.5271-1.4274l3.6345-3.6345z" opacity=".994" stop-color="#000000"/>
   <path id="path2827" transform="rotate(90)" d="m24.64-7.7908a5.14 5.14 0 0 1-0.43058 0.739l-4.2104-2.9482z" opacity=".994" stop-color="#000000"/>
   <path id="path2829" transform="rotate(90)" d="m17.017-5.8131a5.14 5.14 0 0 1-2.1389-4.6349l5.1204 0.44798z" opacity=".994" stop-color="#000000"/>
   <path id="path2831" transform="rotate(90)" d="m14.923-9.1879a5.14 5.14 0 0 1 2.1273-5.0226l2.9482 4.2104z" opacity=".994" stop-color="#000000"/>
   <path id="path2833" transform="rotate(90)" d="m15.86-13.048a5.14 5.14 0 0 1 5.4694-1.9173l-1.3303 4.9649z" opacity=".994" stop-color="#000000"/>
   <path id="path2835" transform="rotate(90)" d="m19.267-15.088a5.14 5.14 0 0 1 5.3899 2.9154l-4.6584 2.1723z" opacity=".994" stop-color="#000000"/>
   <path id="path2837" transform="rotate(90)" d="m23.112-14.09a5.14 5.14 0 0 1 1.5282 1.881l-4.641 2.2092z" opacity=".994" stop-color="#000000"/>
   <circle id="circle2839" cx="10" cy="20" r="4.04" opacity=".994" stop-color="#000000"/>
  </g>
  <g id="g2861" transform="translate(35.44 45)" fill="#242422" stroke="#fffff0" stroke-width=".1">
   <path id="path2843" transform="rotate(90)" d="m24.232-7.0853a5.14 5.14 0 0 1-3.7857 2.2058l-0.44798-5.1204z" opacity=".994" stop-color="#000000"/>
   <path id="path2845" transform="rotate(90)" d="m20.891-4.9381a5.14 5.14 0 0 1-4.5271-1.4274l3.6345-3.6345z" opacity=".994" stop-color="#000000"/>
   <path id="path2847" transform="rotate(90)" d="m24.64-7.7908a5.14 5.14 0 0 1-0.43058 0.739l-4.2104-2.9482z" opacity=".994" stop-color="#000000"/>
   <path id="path2849" transform="rotate(90)" d="m17.017-5.8131a5.14 5.14 0 0 1-2.1389-4.6349l5.1204 0.44798z" opacity=".994" stop-color="#000000"/>
   <path id="path2851" transform="rotate(90)" d="m14.923-9.1879a5.14 5.14 0 0 1 2.1273-5.0226l2.9482 4.2104z" opacity=".994" stop-color="#000000"/>
   <path id="path2853" transform="rotate(90)" d="m15.86-13.048a5.14 5.14 0 0 1 5.4694-1.9173l-1.3303 4.9649z" opacity=".994" stop-color="#000000"/>
   <path id="path2855" transform="rotate(90)" d="m19.267-15.088a5.14 5.14 0 0 1 5.3899 2.9154l-4.6584 2.1723z" opacity=".994" stop-color="#000000"/>
   <path id="path2857" transform="rotate(90)" d="m23.112-14.09a5.14 5.14 0 0 1 1.5282 1.881l-4.641 2.2092z" opacity=".994" stop-color="#000000"/>
   <circle id="circle2859" cx="10" cy="20" r="4.04" opacity=".994" stop-color="#000000"/>
  </g>
  <g id="g2881" transform="translate(35.44 56.25)" fill="#242422" stroke="#fffff0" stroke-width=".1">
   <path id="path2863" transform="rotate(90)" d="m24.232-7.0853a5.14 5.14 0 0 1-3.7857 2.2058l-0.44798-5.1204z" opacity=".994" stop-color="#000000"/>
   <path id="path2865" transform="rotate(90)" d="m20.891-4.9381a5.14 5.14 0 0 1-4.5271-1.4274l3.6345-3.6345z" opacity=".994" stop-color="#000000"/>
   <path id="path2867" transform="rotate(90)" d="m24.64-7.7908a5.14 5.14 0 0 1-0.43058 0.739l-4.2104-2.9482z" opacity=".994" stop-color="#000000"/>
   <path id="path2869" transform="rotate(90)" d="m17.017-5.8131a5.14 5.14 0 0 1-2.1389-4.6349l5.1204 0.44798z" opacity=".994" stop-color="#000000"/>
   <path id="path2871" transform="rotate(90)" d="m14.923-9.1879a5.14 5.14 0 0 1 2.1273-5.0226l2.9482 4.2104z" opacity=".994" stop-color="#000000"/>
   <path id="path2873" transform="rotate(90)" d="m15.86-13.048a5.14 5.14 0 0 1 5.4694-1.9173l-1.3303 4.9649z" opacity=".994" stop-color="#000000"/>
   <path id="path2875" transform="rotate(90)" d="m19.267-15.088a5.14 5.14 0 0 1 5.3899 2.9154l-4.6584 2.1723z" opacity=".994" stop-color="#000000"/>
   <path id="path2877" transform="rotate(90)" d="m23.112-14.09a5.14 5.14 0 0 1 1.5282 1.881l-4.641 2.2092z" opacity=".994" stop-color="#000000"/>
   <circle id="circle2879" cx="10" cy="20" r="4.04" opacity=".994" stop-color="#000000"/>
  </g>
  <g id="g2901" transform="translate(35.44 67.5)" fill="#242422" stroke="#fffff0" stroke-width=".1">
   <path id="path2883" transform="rotate(90)" d="m24.232-7.0853a5.14 5.14 0 0 1-3.7857 2.2058l-0.44798-5.1204z" opacity=".994" stop-color="#000000"/>
   <path id="path2885" transform="rotate(90)" d="m20.891-4.9381a5.14 5.14 0 0 1-4.5271-1.4274l3.6345-3.6345z" opacity=".994" stop-color="#000000"/>
   <path id="path2887" transform="rotate(90)" d="m24.64-7.7908a5.14 5.14 0 0 1-0.43058 0.739l-4.2104-2.9482z" opacity=".994" stop-color="#000000"/>
   <path id="path2889" transform="rotate(90)" d="m17.017-5.8131a5.14 5.14 0 0 1-2.1389-4.6349l5.1204 0.44798z" opacity=".994" stop-color="#000000"/>
   <path id="path2891" transform="rotate(90)" d="m14.923-9.1879a5.14 5.14 0 0 1 2.1273-5.0226l2.9482 4.2104z" opacity=".994" stop-color="#000000"/>
   <path id="path2893" transform="rotate(90)" d="m15.86-13.048a5.14 5.14 0 0 1 5.4694-1.9173l-1.3303 4.9649z" opacity=".994" stop-color="#000000"/>
   <path id="path2895" transform="rotate(90)" d="m19.267-15.088a5.14 5.14 0 0 1 5.3899 2.9154l-4.6584 2.1723z" opacity=".994" stop-color="#000000"/>
   <path id="path2897" transform="rotate(90)" d="m23.112-14.09a5.14 5.14 0 0 1 1.5282 1.881l-4.641 2.2092z" opacity=".994" stop-color="#000000"/>
   <circle id="circle2899" cx="10" cy="20" r="4.04" opacity=".994" stop-color="#000000"/>
  </g>
  <g id="g2921" transform="translate(35.44 78.75)" fill="#242422" stroke="#fffff0" stroke-width=".1">
   <path id="path2903" transform="rotate(90)" d="m24.232-7.0853a5.14 5.14 0 0 1-3.7857 2.2058l-0.44798-5.1204z" opacity=".994" stop-color="#000000"/>
   <path id="path2905" transform="rotate(90)" d="m20.891-4.9381a5.14 5.14 0 0 1-4.5271-1.4274l3.6345-3.6345z" opacity=".994" stop-color="#000000"/>
   <path id="path2907" transform="rotate(90)" d="m24.64-7.7908a5.14 5.14 0 0 1-0.43058 0.739l-4.2104-2.9482z" opacity=".994" stop-color="#000000"/>
   <path id="path2909" transform="rotate(90)" d="m17.017-5.8131a5.14 5.14 0 0 1-2.1389-4.6349l5.1204 0.44798z" opacity=".994" stop-color="#000000"/>
   <path id="path2911" transform="rotate(90)" d="m14.923-9.1879a5.14 5.14 0 0 1 2.1273-5.0226l2.9482 4.2104z" opacity=".994" stop-color="#000000"/>
   <path id="path2913" transform="rotate(90)" d="m15.86-13.048a5.14 5.14 0 0 1 5.4694-1.9173l-1.3303 4.9649z" opacity=".994" stop-color="#000000"/>
   <path id="path2915" transform="rotate(90)" d="m19.267-15.088a5.14 5.14 0 0 1 5.3899 2.9154l-4.6584 2.1723z" opacity=".994" stop-color="#000000"/>
   <path id="path2917" transform="rotate(90)" d="m23.112-14.09a5.14 5.14 0 0 1 1.5282 1.881l-4.641 2.2092z" opacity=".994" stop-color="#000000"/>
   <circle id="circle2919" cx="10" cy="20" r="4.04" opacity=".994" stop-color="#000000"/>
  </g>
  <g id="g2941" transform="translate(9 78.75)" fill="#242422" stroke="#fffff0" stroke-width=".1">
   <path id="path2923" transform="rotate(90)" d="m24.232-7.0853a5.14 5.14 0 0 1-3.7857 2.2058l-0.44798-5.1204z" opacity=".994" stop-color="#000000"/>
   <path id="path2925" transform="rotate(90)" d="m20.891-4.9381a5.14 5.14 0 0 1-4.5271-1.4274l3.6345-3.6345z" opacity=".994" stop-color="#000000"/>
   <path id="path2927" transform="rotate(90)" d="m24.64-7.7908a5.14 5.14 0 0 1-0.43058 0.739l-4.2104-2.9482z" opacity=".994" stop-color="#000000"/>
   <path id="path2929" transform="rotate(90)" d="m17.017-5.8131a5.14 5.14 0 0 1-2.1389-4.6349l5.1204 0.44798z" opacity=".994" stop-color="#000000"/>
   <path id="path2931" transform="rotate(90)" d="m14.923-9.1879a5.14 5.14 0 0 1 2.1273-5.0226l2.9482 4.2104z" opacity=".994" stop-color="#000000"/>
   <path id="path2933" transform="rotate(90)" d="m15.86-13.048a5.14 5.14 0 0 1 5.4694-1.9173l-1.3303 4.9649z" opacity=".994" stop-color="#000000"/>
   <path id="path2935" transform="rotate(90)" d="m19.267-15.088a5.14 5.14 0 0 1 5.3899 2.9154l-4.6584 2.1723z" opacity=".994" stop-color="#000000"/>
   <path id="path2937" transform="rotate(90)" d="m23.112-14.09a5.14 5.14 0 0 1 1.5282 1.881l-4.641 2.2092z" opacity=".994" stop-color="#000000"/>
   <circle id="circle2939" cx="10" cy="20" r="4.04" opacity=".994" stop-color="#000000"/>
  </g>
  <g id="g2961" transform="translate(9 67.501)" fill="#242422" stroke="#fffff0" stroke-width=".1">
   <path id="path2943" transform="rotate(90)" d="m24.232-7.0853a5.14 5.14 0 0 1-3.7857 2.2058l-0.44798-5.1204z" opacity=".994" stop-color="#000000"/>
   <path id="path2945" transform="rotate(90)" d="m20.891-4.9381a5.14 5.14 0 0 1-4.5271-1.4274l3.6345-3.6345z" opacity=".994" stop-color="#000000"/>
   <path id="path2947" transform="rotate(90)" d="m24.64-7.7908a5.14 5.14 0 0 1-0.43058 0.739l-4.2104-2.9482z" opacity=".994" stop-color="#000000"/>
   <path id="path2949" transform="rotate(90)" d="m17.017-5.8131a5.14 5.14 0 0 1-2.1389-4.6349l5.1204 0.44798z" opacity=".994" stop-color="#000000"/>
   <path id="path2951" transform="rotate(90)" d="m14.923-9.1879a5.14 5.14 0 0 1 2.1273-5.0226l2.9482 4.2104z" opacity=".994" stop-color="#000000"/>
   <path id="path2953" transform="rotate(90)" d="m15.86-13.048a5.14 5.14 0 0 1 5.4694-1.9173l-1.3303 4.9649z" opacity=".994" stop-color="#000000"/>
   <path id="path2955" transform="rotate(90)" d="m19.267-15.088a5.14 5.14 0 0 1 5.3899 2.9154l-4.6584 2.1723z" opacity=".994" stop-color="#000000"/>
   <path id="path2957" transform="rotate(90)" d="m23.112-14.09a5.14 5.14 0 0 1 1.5282 1.881l-4.641 2.2092z" opacity=".994" stop-color="#000000"/>
   <circle id="circle2959" cx="10" cy="20" r="4.04" opacity=".994" stop-color="#000000"/>
  </g>
  <g id="g2981" transform="translate(9 56.251)" fill="#242422" stroke="#fffff0" stroke-width=".1">
   <path id="path2963" transform="rotate(90)" d="m24.232-7.0853a5.14 5.14 0 0 1-3.7857 2.2058l-0.44798-5.1204z" opacity=".994" stop-color="#000000"/>
   <path id="path2965" transform="rotate(90)" d="m20.891-4.9381a5.14 5.14 0 0 1-4.5271-1.4274l3.6345-3.6345z" opacity=".994" stop-color="#000000"/>
   <path id="path2967" transform="rotate(90)" d="m24.64-7.7908a5.14 5.14 0 0 1-0.43058 0.739l-4.2104-2.9482z" opacity=".994" stop-color="#000000"/>
   <path id="path2969" transform="rotate(90)" d="m17.017-5.8131a5.14 5.14 0 0 1-2.1389-4.6349l5.1204 0.44798z" opacity=".994" stop-color="#000000"/>
   <path id="path2971" transform="rotate(90)" d="m14.923-9.1879a5.14 5.14 0 0 1 2.1273-5.0226l2.9482 4.2104z" opacity=".994" stop-color="#000000"/>
   <path id="path2973" transform="rotate(90)" d="m15.86-13.048a5.14 5.14 0 0 1 5.4694-1.9173l-1.3303 4.9649z" opacity=".994" stop-color="#000000"/>
   <path id="path2975" transform="rotate(90)" d="m19.267-15.088a5.14 5.14 0 0 1 5.3899 2.9154l-4.6584 2.1723z" opacity=".994" stop-color="#000000"/>
   <path id="path2977" transform="rotate(90)" d="m23.112-14.09a5.14 5.14 0 0 1 1.5282 1.881l-4.641 2.2092z" opacity=".994" stop-color="#000000"/>
   <circle id="circle2979" cx="10" cy="20" r="4.04" opacity=".994" stop-color="#000000"/>
  </g>
  <g id="g3001" transform="translate(9 45.001)" fill="#242422" stroke="#fffff0" stroke-width=".1">
   <path id="path2983" transform="rotate(90)" d="m24.232-7.0853a5.14 5.14 0 0 1-3.7857 2.2058l-0.44798-5.1204z" opacity=".994" stop-color="#000000"/>
   <path id="path2985" transform="rotate(90)" d="m20.891-4.9381a5.14 5.14 0 0 1-4.5271-1.4274l3.6345-3.6345z" opacity=".994" stop-color="#000000"/>
   <path id="path2987" transform="rotate(90)" d="m24.64-7.7908a5.14 5.14 0 0 1-0.43058 0.739l-4.2104-2.9482z" opacity=".994" stop-color="#000000"/>
   <path id="path2989" transform="rotate(90)" d="m17.017-5.8131a5.14 5.14 0 0 1-2.1389-4.6349l5.1204 0.44798z" opacity=".994" stop-color="#000000"/>
   <path id="path2991" transform="rotate(90)" d="m14.923-9.1879a5.14 5.14 0 0 1 2.1273-5.0226l2.9482 4.2104z" opacity=".994" stop-color="#000000"/>
   <path id="path2993" transform="rotate(90)" d="m15.86-13.048a5.14 5.14 0 0 1 5.4694-1.9173l-1.3303 4.9649z" opacity=".994" stop-color="#000000"/>
   <path id="path2995" transform="rotate(90)" d="m19.267-15.088a5.14 5.14 0 0 1 5.3899 2.9154l-4.6584 2.1723z" opacity=".994" stop-color="#000000"/>
   <path id="path2997" transform="rotate(90)" d="m23.112-14.09a5.14 5.14 0 0 1 1.5282 1.881l-4.641 2.2092z" opacity=".994" stop-color="#000000"/>
   <circle id="circle2999" cx="10" cy="20" r="4.04" opacity=".994" stop-color="#000000"/>
  </g>
 </g>
 <g id="layer2" display="none">
  <circle id="circle877" cx="46.13" cy="114.5" r="4" display="inline" fill="#00f" fill-rule="evenodd" stroke-width=".26458"/>
  <circle id="path1183" cx="19" cy="51" r="4" display="inline" fill="none" opacity=".994" stop-color="#000000" stroke="#f20000" stroke-opacity=".99578" stroke-width=".2"/>
  <circle id="path471" cx="8.25" cy="17.25" r="3.15" opacity=".997" stroke-width=".5"/>
  <circle id="circle473" cx="8.25" cy="28.5" r="3.15" opacity=".997" stroke-width=".5"/>
  <circle id="circle475" cx="8.25" cy="39.75" r="3.15" opacity=".997" stroke-width=".5"/>
  <circle id="circle477" cx="8.25" cy="51" r="3.15" opacity=".997" stroke-width=".5"/>
  <circle id="circle479" cx="8.25" cy="65" r="3.15" opacity=".997" stroke-width=".5"/>
  <circle id="circle481" cx="8.25" cy="76.25" r="3.15" opacity=".997" stroke-width=".5"/>
  <circle id="circle483" cx="8.25" cy="87.5" r="3.15" opacity=".997" stroke-width=".5"/>
  <circle id="circle485" cx="8.1492" cy="98.751" r="3.15" opacity=".997" stroke-width=".5"/>
  <circle id="circle1108" cx="8.25" cy="98.75" r="3.15" opacity=".997" stroke-width=".5"/>
  <circle id="circle454" cx="45.44" cy="51" r="4" display="inline" fill="none" opacity=".994" stop-color="#000000" stroke="#f20000" stroke-opacity=".99578" stroke-width=".2"/>
  <circle id="circle456" cx="34.69" cy="17.25" r="3.15" opacity=".997" stroke-width=".5"/>
  <circle id="circle458" cx="34.69" cy="28.5" r="3.15" opacity=".997" stroke-width=".5"/>
  <circle id="circle460" cx="34.69" cy="39.75" r="3.15" opacity=".997" stroke-width=".5"/>
  <circle id="circle462" cx="34.69" cy="51" r="3.15" opacity=".997" stroke-width=".5"/>
  <circle id="circle464" cx="34.69" cy="65" r="3.15" opacity=".997" stroke-width=".5"/>
  <circle id="circle466" cx="34.69" cy="76.25" r="3.15" opacity=".997" stroke-width=".5"/>
  <circle id="circle468" cx="34.608" cy="87.5" r="3.15" opacity=".997" stroke-width=".5"/>
  <circle id="circle470" cx="34.608" cy="98.751" r="3.15" opacity=".997" stroke-width=".5"/>
  <circle id="circle472" cx="34.69" cy="98.75" r="3.15" opacity=".997" stroke-width=".5"/>
  <circle id="path1196" cx="6" cy="13.25" r="1" display="inline" fill="#559fff" stroke-width=".26458"/>
  <circle id="circle1198" cx="32.44" cy="13.25" r="1" display="inline" fill="#559fff" stroke-width=".26458"/>
  <circle id="circle1200" cx="6" cy="61" r="1" display="inline" fill="#559fff" stroke-width=".26458"/>
  <circle id="circle1202" cx="32.44" cy="61" r="1" display="inline" fill="#559fff" stroke-width=".26458"/>
  <circle id="circle1228" cx="26" cy="114.5" r="4" display="inline" fill="#00f" fill-rule="evenodd" stroke-width=".26458"/>
 </g>
</svg>
