<?xml version="1.0" encoding="UTF-8"?>
<svg id="svg8" width="25.4mm" height="128.5mm" version="1.1" viewBox="0 0 25.4 128.5" xmlns="http://www.w3.org/2000/svg" xmlns:cc="http://creativecommons.org/ns#" xmlns:dc="http://purl.org/dc/elements/1.1/" xmlns:rdf="http://www.w3.org/1999/02/22-rdf-syntax-ns#">
 <metadata id="metadata5">
  <rdf:RDF>
   <cc:Work rdf:about="">
    <dc:format>image/svg+xml</dc:format>
    <dc:type rdf:resource="http://purl.org/dc/dcmitype/StillImage"/>
   </cc:Work>
  </rdf:RDF>
 </metadata>
 <g id="layer1" transform="translate(0,-168.5)">
  <rect id="rect838" x="-1.3878e-16" y="168.5" width="25.4" height="128.5" fill="#242422"/>
  <rect id="rect912" x="8.2" y="221.5" width="9" height="13" rx="1" ry="1" fill="#555d50"/>
  <text id="text64" x="2.0529213" y="233.73691" font-family="'PT Sans Narrow'" font-size="2.8222px" font-stretch="condensed" font-weight="bold" stroke-width=".26458" style="line-height:1.25" xml:space="preserve"><tspan id="tspan62" x="2.0529213" y="233.73691" stroke-width=".26458"/></text>
  <rect id="rect919" x="1.88" y="253.5" width="9" height="13" rx="1" ry="1" fill="#555d50"/>
  <g id="text944" transform="translate(7.62 1.3615)" fill="#fffff0" stroke-width=".26458" aria-label="Octave">
   <path id="path974" d="m1.7413 183.27q0-0.50236 0.17216-0.76483t0.52493-0.26247q0.18344 0 0.31609 0.0734 0.13264 0.0706 0.21731 0.20602 0.084667 0.13265 0.12418 0.32456 0.042334 0.18909 0.042334 0.42334 0 0.50235-0.1778 0.76482-0.17498 0.26247-0.52211 0.26247-0.18627 0-0.31891-0.0706-0.12982-0.0734-0.21449-0.20602-0.084667-0.13547-0.12418-0.32456-0.039511-0.19191-0.039511-0.42615zm0.37253 0q0 0.14957 0.016933 0.2794 0.016933 0.127 0.056445 0.22013 0.039511 0.0931 0.098778 0.14676 0.062089 0.0536 0.1524 0.0536 0.16369 0 0.24553-0.16651 0.081845-0.16651 0.081845-0.5334 0-0.14394-0.016933-0.27094-0.016933-0.12982-0.056445-0.22295-0.036689-0.096-0.098778-0.14958-0.062089-0.0564-0.15522-0.0564-0.32456 0-0.32456 0.69992z"/>
   <path id="path976" d="m4.1741 184.18q-0.070556 0.0564-0.16933 0.0847-0.098778 0.0282-0.19756 0.0282-0.14393 0-0.24271-0.0508-0.095956-0.0536-0.15804-0.14958-0.062089-0.0988-0.090311-0.23425-0.0254-0.13829-0.0254-0.30762 0-0.36971 0.13264-0.55598t0.38947-0.18627q0.127 0 0.20602 0.0226 0.081845 0.0226 0.14393 0.0564l-0.079022 0.27941q-0.0508-0.0254-0.098778-0.0367-0.045156-0.0141-0.11007-0.0141-0.11853 0-0.1778 0.10442-0.059267 0.1016-0.059267 0.3302 0 0.19191 0.059267 0.31327 0.062089 0.12135 0.19473 0.12135 0.070556 0 0.11853-0.0169 0.0508-0.0198 0.093134-0.048z"/>
   <path id="path978" d="m4.2192 182.84h0.15522v-0.26529l0.33585-0.10442v0.36971h0.27376v0.29916h-0.27376v0.61524q0 0.12136 0.022578 0.17216 0.0254 0.0508 0.087489 0.0508 0.042334 0 0.0762-8e-3 0.033867-8e-3 0.073378-0.0254l0.042333 0.26812q-0.062089 0.031-0.14393 0.0508-0.081845 0.0226-0.17216 0.0226-0.16087 0-0.24271-0.0931-0.079022-0.0931-0.079022-0.31327v-0.73942h-0.15522z"/>
   <path id="path980" d="m5.1534 182.93q0.084667-0.0508 0.21167-0.0819 0.127-0.031 0.28787-0.031 0.23989 0 0.33302 0.12418 0.095956 0.12418 0.095956 0.35278 0 0.13264-0.00847 0.26246-0.00564 0.127-0.00847 0.25118-0.00282 0.12136 0.00282 0.23707 0.00847 0.11289 0.039511 0.21449h-0.27375l-0.053622-0.17216h-0.011289q-0.045156 0.0819-0.127 0.13547-0.081845 0.0536-0.20602 0.0536-0.16651 0-0.26247-0.11007-0.095956-0.11288-0.095956-0.29915 0-0.254 0.18062-0.36125 0.18062-0.10724 0.48825-0.0903 0.014111-0.16369-0.022578-0.23707-0.033867-0.0734-0.14958-0.0734-0.084667 0-0.17498 0.0198-0.090311 0.0198-0.16087 0.0564zm0.40358 1.0583q0.0762 0 0.12418-0.0367 0.047978-0.0395 0.070556-0.0847v-0.23425q-0.064911-8e-3 -0.12418-3e-3 -0.059267 6e-3 -0.10442 0.0254-0.045156 0.0198-0.073378 0.0593-0.0254 0.0367-0.0254 0.096 0 0.0875 0.033867 0.13265 0.036689 0.0452 0.098778 0.0452z"/>
   <path id="path982" d="m6.7451 183.58 0.033867 0.22296h0.011289l0.031045-0.22578 0.17498-0.73378h0.36125l-0.47413 1.4252h-0.22578l-0.49953-1.4252h0.39229z"/>
   <path id="path984" d="m8.3792 184.15q-0.070556 0.0621-0.19191 0.1016-0.12136 0.0395-0.254 0.0395-0.14676 0-0.254-0.0508-0.10442-0.0508-0.17216-0.14676-0.067734-0.096-0.1016-0.23142-0.031045-0.13829-0.031045-0.31327 0-0.381 0.14958-0.56162 0.1524-0.18345 0.42051-0.18345 0.090311 0 0.17498 0.0282 0.084667 0.0254 0.14958 0.0903 0.067734 0.0621 0.10724 0.16934 0.042333 0.10442 0.042333 0.26529 0 0.0621-0.00847 0.13264-0.00564 0.0706-0.019756 0.1524h-0.6858q0.00564 0.17498 0.073378 0.26811 0.067734 0.0931 0.21731 0.0931 0.090311 0 0.16369-0.0282 0.0762-0.0282 0.11571-0.0593zm-0.44027-1.0583q-0.10724 0-0.16087 0.0875-0.053622 0.0847-0.062089 0.23989h0.38947q0.00847-0.16087-0.033867-0.24272-0.042333-0.0847-0.13264-0.0847z"/>
  </g>
  <g id="text948" transform="translate(7.62 4.2939)" fill="#fffff0" stroke-width=".26458" aria-label="Note">
   <path id="path987" d="m3.2202 197.02-0.12982-0.34713h-0.014111l0.045156 0.34149v0.97649h-0.33585v-1.9897h0.27376l0.56727 0.99342 0.12136 0.34149h0.016933l-0.045156-0.33584v-0.98496h0.33585v1.9897h-0.27376z"/>
   <path id="path989" d="m4.2531 197.29q0-0.37536 0.14676-0.5588 0.14676-0.18345 0.40922-0.18345 0.28222 0 0.42051 0.18627t0.13829 0.55598q0 0.37818-0.14676 0.56162-0.14676 0.18063-0.41205 0.18063-0.55598 0-0.55598-0.74225zm0.34713 0q0 0.21167 0.047978 0.32738t0.16087 0.11571q0.10724 0 0.15804-0.0988 0.053622-0.1016 0.053622-0.34431 0-0.21731-0.047978-0.3302t-0.16369-0.11289q-0.098778 0-0.15522 0.1016-0.053622 0.0988-0.053622 0.34149z"/>
   <path id="path991" d="m5.4497 196.58h0.15522v-0.26529l0.33585-0.10442v0.36971h0.27376v0.29916h-0.27376v0.61525q0 0.12135 0.022578 0.17215 0.0254 0.0508 0.087489 0.0508 0.042334 0 0.0762-8e-3 0.033867-8e-3 0.073378-0.0254l0.042333 0.26812q-0.062089 0.031-0.14393 0.0508-0.081845 0.0226-0.17216 0.0226-0.16087 0-0.24271-0.0931-0.079022-0.0931-0.079022-0.31327v-0.73995h-0.15522z"/>
   <path id="path993" d="m7.335 197.89q-0.070556 0.0621-0.19191 0.1016-0.12136 0.0395-0.254 0.0395-0.14676 0-0.254-0.0508-0.10442-0.0508-0.17216-0.14676-0.067734-0.0959-0.1016-0.23142-0.031045-0.13829-0.031045-0.31327 0-0.381 0.14958-0.56162 0.1524-0.18345 0.42051-0.18345 0.090311 0 0.17498 0.0282 0.084667 0.0254 0.14958 0.0903 0.067734 0.0621 0.10724 0.16933 0.042333 0.10442 0.042333 0.26529 0 0.0621-0.00847 0.13264-0.00564 0.0706-0.019756 0.1524h-0.6858q0.00564 0.17498 0.073378 0.26812 0.067734 0.0931 0.21731 0.0931 0.090311 0 0.16369-0.0282 0.0762-0.0282 0.11571-0.0593zm-0.44027-1.0583q-0.10724 0-0.16087 0.0875-0.053622 0.0847-0.062089 0.23989h0.38947q0.00847-0.16087-0.033867-0.24271-0.042333-0.0847-0.13264-0.0847z"/>
  </g>
  <g id="text960" transform="translate(1.0583 18.01)" fill="#fffff0" stroke-width=".26458" aria-label="Octave">
   <path id="path1012" d="m1.7413 237.52q0-0.50235 0.17216-0.76482t0.52493-0.26247q0.18344 0 0.31609 0.0734 0.13264 0.0705 0.21731 0.20602 0.084667 0.13265 0.12418 0.32456 0.042334 0.18909 0.042334 0.42333 0 0.50236-0.1778 0.76483-0.17498 0.26246-0.52211 0.26246-0.18627 0-0.31891-0.0705-0.12982-0.0734-0.21449-0.20602-0.084667-0.13547-0.12418-0.32456-0.039511-0.19191-0.039511-0.42616zm0.37253 0q0 0.14958 0.016933 0.2794 0.016933 0.127 0.056445 0.22014 0.039511 0.0931 0.098778 0.14675 0.062089 0.0536 0.1524 0.0536 0.16369 0 0.24553-0.16652 0.081845-0.16651 0.081845-0.5334 0-0.14393-0.016933-0.27093-0.016933-0.12982-0.056445-0.22296-0.036689-0.096-0.098778-0.14958-0.062089-0.0564-0.15522-0.0564-0.32456 0-0.32456 0.69991z"/>
   <path id="path1014" d="m4.1741 238.43q-0.070556 0.0565-0.16933 0.0847-0.098778 0.0282-0.19756 0.0282-0.14393 0-0.24271-0.0508-0.095956-0.0536-0.15804-0.14958-0.062089-0.0988-0.090311-0.23424-0.0254-0.13829-0.0254-0.30762 0-0.36972 0.13264-0.55598 0.13264-0.18627 0.38947-0.18627 0.127 0 0.20602 0.0226 0.081845 0.0226 0.14393 0.0564l-0.079022 0.2794q-0.0508-0.0254-0.098778-0.0367-0.045156-0.0141-0.11007-0.0141-0.11853 0-0.1778 0.10442-0.059267 0.1016-0.059267 0.33021 0 0.19191 0.059267 0.31326 0.062089 0.12136 0.19473 0.12136 0.070556 0 0.11853-0.0169 0.0508-0.0198 0.093134-0.048z"/>
   <path id="path1016" d="m4.2192 237.09h0.15522v-0.26529l0.33585-0.10442v0.36971h0.27376v0.29915h-0.27376v0.61525q0 0.12136 0.022578 0.17216 0.0254 0.0508 0.087489 0.0508 0.042334 0 0.0762-8e-3 0.033867-8e-3 0.073378-0.0254l0.042333 0.26811q-0.062089 0.031-0.14393 0.0508-0.081845 0.0226-0.17216 0.0226-0.16087 0-0.24271-0.0931-0.079022-0.0931-0.079022-0.31327v-0.73943h-0.15522z"/>
   <path id="path1018" d="m5.1534 237.18q0.084667-0.0508 0.21167-0.0818 0.127-0.031 0.28787-0.031 0.23989 0 0.33302 0.12417 0.095956 0.12418 0.095956 0.35278 0 0.13265-0.00847 0.26247-0.00564 0.127-0.00847 0.25118-0.00282 0.12135 0.00282 0.23707 0.00847 0.11288 0.039511 0.21448h-0.27375l-0.053622-0.17215h-0.011289q-0.045156 0.0818-0.127 0.13547-0.081845 0.0536-0.20602 0.0536-0.16651 0-0.26247-0.11007-0.095956-0.11289-0.095956-0.29916 0-0.254 0.18062-0.36124 0.18062-0.10725 0.48825-0.0903 0.014111-0.16369-0.022578-0.23707-0.033867-0.0734-0.14958-0.0734-0.084667 0-0.17498 0.0198-0.090311 0.0198-0.16087 0.0564zm0.40358 1.0583q0.0762 0 0.12418-0.0367 0.047978-0.0395 0.070556-0.0847v-0.23424q-0.064911-8e-3 -0.12418-3e-3 -0.059267 6e-3 -0.10442 0.0254-0.045156 0.0197-0.073378 0.0593-0.0254 0.0367-0.0254 0.096 0 0.0875 0.033867 0.13265 0.036689 0.0452 0.098778 0.0452z"/>
   <path id="path1020" d="m6.7451 237.83 0.033867 0.22296h0.011289l0.031045-0.22578 0.17498-0.73378h0.36125l-0.47413 1.4252h-0.22578l-0.49953-1.4252h0.39229z"/>
   <path id="path1022" d="m8.3792 238.4q-0.070556 0.0621-0.19191 0.1016-0.12136 0.0395-0.254 0.0395-0.14676 0-0.254-0.0508-0.10442-0.0508-0.17216-0.14675-0.067734-0.096-0.1016-0.23143-0.031045-0.13829-0.031045-0.31326 0-0.38101 0.14958-0.56163 0.1524-0.18344 0.42051-0.18344 0.090311 0 0.17498 0.0282 0.084667 0.0254 0.14958 0.0903 0.067734 0.0621 0.10724 0.16933 0.042333 0.10443 0.042333 0.26529 0 0.0621-0.00847 0.13265-0.00564 0.0705-0.019756 0.1524h-0.6858q0.00564 0.17498 0.073378 0.26811 0.067734 0.0931 0.21731 0.0931 0.090311 0 0.16369-0.0282 0.0762-0.0282 0.11571-0.0593zm-0.44027-1.0583q-0.10724 0-0.16087 0.0875-0.053622 0.0847-0.062089 0.23989h0.38947q0.00847-0.16086-0.033867-0.24271-0.042333-0.0847-0.13264-0.0847z"/>
  </g>
  <rect id="rect1006" x="14.55" y="253.5" width="9" height="13" rx="1" ry="1" fill="#555d50"/>
  <g id="text964" transform="translate(13.97 4.47)" fill="#fffff0" stroke-width=".26458" aria-label="Note">
   <path id="path1025" d="m3.2202 251.05-0.12982-0.34714h-0.014111l0.045156 0.34149v0.97649h-0.33585v-1.9897h0.27376l0.56727 0.99343 0.12136 0.34149h0.016933l-0.045156-0.33585v-0.98496h0.33585v1.9897h-0.27376z"/>
   <path id="path1027" d="m4.2531 251.31q0-0.37536 0.14676-0.55881 0.14676-0.18344 0.40922-0.18344 0.28222 0 0.42051 0.18627 0.13829 0.18626 0.13829 0.55598 0 0.37817-0.14676 0.56162-0.14676 0.18062-0.41205 0.18062-0.55598 0-0.55598-0.74224zm0.34713 0q0 0.21166 0.047978 0.32737 0.047978 0.11572 0.16087 0.11572 0.10724 0 0.15804-0.0988 0.053622-0.1016 0.053622-0.34431 0-0.21732-0.047978-0.33021-0.047978-0.11288-0.16369-0.11288-0.098778 0-0.15522 0.1016-0.053622 0.0988-0.053622 0.34149z"/>
   <path id="path1029" d="m5.4497 250.61h0.15522v-0.26529l0.33585-0.10442v0.36971h0.27376v0.29915h-0.27376v0.61525q0 0.12136 0.022578 0.17216 0.0254 0.0508 0.087489 0.0508 0.042334 0 0.0762-8e-3 0.033867-8e-3 0.073378-0.0254l0.042333 0.26811q-0.062089 0.031-0.14393 0.0508-0.081845 0.0226-0.17216 0.0226-0.16087 0-0.24271-0.0931-0.079022-0.0931-0.079022-0.31327v-0.73943h-0.15522z"/>
   <path id="path1031" d="m7.335 251.92q-0.070556 0.0621-0.19191 0.1016-0.12136 0.0395-0.254 0.0395-0.14676 0-0.254-0.0508-0.10442-0.0508-0.17216-0.14675-0.067734-0.096-0.1016-0.23143-0.031045-0.13829-0.031045-0.31326 0-0.38101 0.14958-0.56163 0.1524-0.18344 0.42051-0.18344 0.090311 0 0.17498 0.0282 0.084667 0.0254 0.14958 0.0903 0.067734 0.0621 0.10724 0.16933 0.042333 0.10443 0.042333 0.26529 0 0.0621-0.00847 0.13265-0.00564 0.0705-0.019756 0.1524h-0.6858q0.00564 0.17498 0.073378 0.26811 0.067734 0.0931 0.21731 0.0931 0.090311 0 0.16369-0.0282 0.0762-0.0282 0.11571-0.0593zm-0.44027-1.0583q-0.10724 0-0.16087 0.0875-0.053622 0.0847-0.062089 0.23989h0.38947q0.00847-0.16086-0.033867-0.24271-0.042333-0.0847-0.13264-0.0847z"/>
  </g>
  <g id="text1191" transform="translate(-12.604 203.56)" fill="#fffff0" stroke-width=".26458" aria-label="Notes/Oct">
   <path id="path1212" d="m20.854 66.703-0.12982-0.34714h-0.01411l0.04516 0.34149v0.97649h-0.33585v-1.9897h0.27376l0.56727 0.99342 0.12136 0.34149h0.01693l-0.045153-0.33584v-0.98496h0.33585v1.9897h-0.27376z"/>
   <path id="path1214" d="m21.887 66.969q0-0.37536 0.14676-0.5588t0.40922-0.18344q0.28222 0 0.42051 0.18627 0.13829 0.18627 0.13829 0.55598 0 0.37818-0.14676 0.56162-0.14676 0.18062-0.41205 0.18062-0.55598 0-0.55598-0.74225zm0.34713 0q0 0.21167 0.04798 0.32738t0.16087 0.11571q0.10724 0 0.15804-0.09878 0.05362-0.1016 0.05362-0.34431 0-0.21731-0.04798-0.3302-0.04798-0.11289-0.16369-0.11289-0.09878 0-0.15522 0.1016-0.05362 0.09878-0.05362 0.34149z"/>
   <path id="path1216" d="m23.084 66.263h0.15522v-0.26529l0.33585-0.10442v0.36971h0.27376v0.29916h-0.27376v0.61525q0 0.12136 0.02258 0.17216 0.0254 0.0508 0.08749 0.0508 0.04233 0 0.0762-0.0085t0.07338-0.0254l0.04233 0.26811q-0.06209 0.03104-0.14393 0.0508-0.08184 0.02258-0.17216 0.02258-0.16087 0-0.24271-0.09313-0.07902-0.09313-0.07902-0.31327v-0.73942h-0.15522z"/>
   <path id="path1218" d="m24.969 67.57q-0.07056 0.06209-0.19191 0.1016-0.12136 0.03951-0.254 0.03951-0.14676 0-0.254-0.0508-0.10442-0.0508-0.17216-0.14676-0.06773-0.09596-0.1016-0.23142-0.03104-0.13829-0.03104-0.31327 0-0.381 0.14958-0.56162 0.1524-0.18344 0.42051-0.18344 0.09031 0 0.17498 0.02822 0.08467 0.0254 0.14958 0.09031 0.06773 0.06209 0.10724 0.16933 0.04233 0.10442 0.04233 0.26529 0 0.06209-0.0085 0.13264-0.0056 0.07056-0.01976 0.1524h-0.6858q0.0056 0.17498 0.07338 0.26811 0.06773 0.09313 0.21731 0.09313 0.09031 0 0.16369-0.02822 0.0762-0.02822 0.11571-0.05927zm-0.44027-1.0583q-0.10724 0-0.16087 0.08749-0.05362 0.08467-0.06209 0.23989h0.38947q0.0085-0.16087-0.03387-0.24271-0.04233-0.08467-0.13264-0.08467z"/>
   <path id="path1220" d="m25.697 67.299q0-0.05927-0.03951-0.09878-0.03669-0.04233-0.09596-0.0762-0.05927-0.03669-0.127-0.07338-0.06491-0.03669-0.12418-0.09031-0.05927-0.05362-0.09878-0.12982-0.03669-0.0762-0.03669-0.19191 0-0.19756 0.10724-0.3048 0.10724-0.10724 0.31609-0.10724 0.12418 0 0.23424 0.02822 0.11007 0.0254 0.17498 0.06491l-0.07902 0.25965q-0.05362-0.02258-0.12982-0.04233-0.0762-0.02258-0.14958-0.02258-0.13829 0-0.13829 0.11571 0 0.05362 0.03669 0.09031 0.03951 0.03387 0.09878 0.06773 0.05927 0.03387 0.12418 0.07055 0.06773 0.03669 0.127 0.09313 0.05927 0.05362 0.09596 0.13264 0.03951 0.07902 0.03951 0.19473 0 0.19473-0.11853 0.31327-0.11853 0.11853-0.35278 0.11853-0.11571 0-0.2286-0.02822-0.11007-0.02822-0.1778-0.07338l0.09313-0.27093q0.05927 0.03387 0.13547 0.05927 0.07902 0.0254 0.16369 0.0254 0.06491 0 0.10724-0.02822 0.04233-0.03104 0.04233-0.09596z"/>
   <path id="path1222" d="m26.868 65.665 0.25682 0.09878-0.82691 2.3058-0.25964-0.09878z"/>
   <path id="path1224" d="m27.156 66.686q0-0.50236 0.17216-0.76482 0.17216-0.26247 0.52494-0.26247 0.18344 0 0.31609 0.07338 0.13264 0.07056 0.21731 0.20602 0.08467 0.13264 0.12418 0.32456 0.04233 0.18909 0.04233 0.42333 0 0.50236-0.1778 0.76482-0.17498 0.26247-0.52211 0.26247-0.18627 0-0.31891-0.07056-0.12982-0.07338-0.21449-0.20602-0.08467-0.13547-0.12418-0.32456-0.03951-0.19191-0.03951-0.42616zm0.37253 0q0 0.14958 0.01693 0.2794 0.01693 0.127 0.05644 0.22013 0.03951 0.09313 0.09878 0.14676 0.06209 0.05362 0.1524 0.05362 0.16369 0 0.24553-0.16651 0.08185-0.16651 0.08185-0.5334 0-0.14393-0.01693-0.27093-0.01693-0.12982-0.05644-0.22296-0.03669-0.09596-0.09878-0.14958-0.06209-0.05645-0.15522-0.05645-0.32456 0-0.32456 0.69991z"/>
   <path id="path1226" d="m29.589 67.598q-0.07056 0.05644-0.16933 0.08467-0.09878 0.02822-0.19756 0.02822-0.14393 0-0.24271-0.0508-0.09596-0.05362-0.15804-0.14958-0.06209-0.09878-0.09031-0.23424-0.0254-0.13829-0.0254-0.30762 0-0.36971 0.13264-0.55598 0.13264-0.18627 0.38947-0.18627 0.127 0 0.20602 0.02258 0.08185 0.02258 0.14393 0.05644l-0.07902 0.2794q-0.0508-0.0254-0.09878-0.03669-0.04516-0.01411-0.11007-0.01411-0.11853 0-0.1778 0.10442-0.05927 0.1016-0.05927 0.3302 0 0.19191 0.05927 0.31327 0.06209 0.12136 0.19473 0.12136 0.07055 0 0.11853-0.01693 0.0508-0.01976 0.09313-0.04798z"/>
   <path id="path1228" d="m29.634 66.263h0.15522v-0.26529l0.33585-0.10442v0.36971h0.27376v0.29916h-0.27376v0.61525q0 0.12136 0.02258 0.17216 0.0254 0.0508 0.08749 0.0508 0.04233 0 0.0762-0.0085t0.07338-0.0254l0.04233 0.26811q-0.06209 0.03104-0.14393 0.0508-0.08184 0.02258-0.17216 0.02258-0.16087 0-0.24271-0.09313-0.07902-0.09313-0.07902-0.31327v-0.73942h-0.15522z"/>
  </g>
  <g id="text1034" transform="translate(8.5125 -1.2121)" fill="#fffff0" stroke-width=".26458" aria-label="NoteMT">
   <path id="path1036" d="m-1.9392 177-0.22719-0.60749h-0.024694l0.079022 0.59761v1.7089h-0.58773v-3.4819h0.47907l0.99272 1.7385 0.21237 0.59761h0.029633l-0.079022-0.58773v-1.7237h0.58773v3.4819h-0.47907z"/>
   <path id="path1038" d="m-0.13158 177.46q0-0.65688 0.25682-0.97791 0.25682-0.32102 0.71614-0.32102 0.49389 0 0.7359 0.32596 0.24201 0.32597 0.24201 0.97297 0 0.66181-0.25682 0.98284-0.25682 0.31609-0.72108 0.31609-0.97296 0-0.97296-1.2989zm0.60748 0q0 0.37041 0.083961 0.57291 0.083961 0.20249 0.28152 0.20249 0.18768 0 0.27658-0.17286 0.093839-0.1778 0.093839-0.60254 0-0.3803-0.083961-0.57786-0.083961-0.19755-0.28646-0.19755-0.17286 0-0.27164 0.1778-0.093839 0.17286-0.093839 0.59761z"/>
   <path id="path1040" d="m1.9625 176.22h0.27164v-0.46426l0.58773-0.18274v0.647h0.47907v0.52352h-0.47907v1.0767q0 0.21238 0.039511 0.30128 0.04445 0.0889 0.15311 0.0889 0.074083 0 0.13335-0.0148 0.059267-0.0148 0.12841-0.0445l0.074083 0.4692q-0.10866 0.0543-0.25188 0.0889-0.14323 0.0395-0.30127 0.0395-0.28152 0-0.42475-0.16299-0.13829-0.16298-0.13829-0.54821v-1.294h-0.27164z"/>
   <path id="path1042" d="m5.2617 178.51q-0.12347 0.10866-0.33585 0.1778-0.21237 0.0692-0.4445 0.0692-0.25682 0-0.4445-0.0889-0.18274-0.0889-0.30127-0.25683-0.11853-0.16792-0.1778-0.40499-0.054328-0.242-0.054328-0.54821 0-0.66676 0.26176-0.98285 0.2667-0.32102 0.7359-0.32102 0.15804 0 0.30621 0.0494 0.14817 0.0445 0.26176 0.15804 0.11853 0.10866 0.18768 0.29633 0.074083 0.18274 0.074083 0.46426 0 0.10866-0.014817 0.23213-0.00988 0.12347-0.034572 0.2667h-1.2002q0.00988 0.30621 0.12841 0.46919 0.11853 0.16299 0.3803 0.16299 0.15804 0 0.28646-0.0494 0.13335-0.0494 0.20249-0.10372zm-0.77047-1.8521q-0.18768 0-0.28152 0.15311-0.093839 0.14817-0.10866 0.41981h0.68157q0.014817-0.28152-0.059267-0.42475-0.074084-0.14817-0.23213-0.14817z"/>
   <path id="path1044" d="m7.9287 176.91 0.069145-0.66181h-0.024695l-0.18274 0.59266-0.56303 1.215h-0.20743l-0.59761-1.2199-0.18274-0.5976h-0.029633l0.093839 0.66675v1.7879h-0.58773v-3.4572h0.59761l0.72108 1.4965 0.11853 0.42968h0.019756l0.11359-0.43956 0.67663-1.4866h0.58773v3.4572h-0.6223z"/>
   <path id="path1046" d="m11.075 175.81h-0.81986v2.8843h-0.6223v-2.8843h-0.81986v-0.57291h2.262z"/>
  </g>
  <g id="text2533" transform="matrix(1.5 0 0 1.5 -23.144 106.84)" fill="#fffff0" stroke-width=".17639" aria-label="GRANDE">
   <path id="path2535" d="m20.481 123.44c0.15522 0 0.28222-0.0564 0.35807-0.13406v-0.48683h-0.381v0.12171h0.24518v0.30162c-0.04586 0.0423-0.12524 0.067-0.20814 0.067-0.24694 0-0.38276-0.18168-0.38276-0.47272 0-0.28751 0.14817-0.46567 0.381-0.46567 0.11642 0 0.1905 0.0441 0.24871 0.10407l0.08114-0.0917c-0.06703-0.0723-0.17286-0.14288-0.33338-0.14288-0.30692 0-0.53093 0.22755-0.53093 0.59973 0 0.37747 0.21696 0.59972 0.52211 0.59972z"/>
   <path id="path2537" d="m21.484 123.42h0.14817v-0.48859h0.20814l0.2787 0.48859h0.16757l-0.29457-0.50447c0.15699-0.0406 0.25929-0.1464 0.25929-0.32632 0-0.24165-0.16933-0.32632-0.4057-0.32632h-0.3616zm0.14817-0.60854v-0.42862h0.19226c0.17992 0 0.2787 0.0547 0.2787 0.20637 0 0.14817-0.09878 0.22225-0.2787 0.22225z"/>
   <path id="path2539" d="m23.054 122.78c0.04057-0.12876 0.07761-0.25576 0.11289-0.38982h0.0071c0.03704 0.13406 0.07408 0.26106 0.11642 0.38982l0.05468 0.17462h-0.34572zm-0.35454 0.64558h0.14993l0.11112-0.35101h0.42157l0.10936 0.35101h0.15699l-0.38982-1.1571h-0.16933z"/>
   <path id="path2541" d="m24.183 123.42h0.13935v-0.60854c0-0.11994-0.01058-0.24518-0.0194-0.3616h0.0071c0.0388 0.0847 0.08114 0.1711 0.12524 0.24871l0.41275 0.72143h0.15875v-1.1571h-0.13935v0.60325c0 0.11995 0.01058 0.24695 0.0194 0.36689h-0.0071c-0.04057-0.0847-0.08114-0.1711-0.12524-0.24871l-0.41275-0.72143h-0.15875z"/>
   <path id="path2543" d="m25.693 123.42h0.29633c0.34925 0 0.53975-0.21519 0.53975-0.58384 0-0.36689-0.1905-0.57327-0.5468-0.57327h-0.28928zm0.14817-0.12171v-0.91369h0.13053c0.26988 0 0.40393 0.16051 0.40393 0.45156 0 0.2928-0.13406 0.46213-0.40393 0.46213z"/>
   <path id="path2545" d="m27.15 123.42h0.68439v-0.12523h-0.53622v-0.41981h0.43744v-0.12524h-0.43744v-0.36159h0.51858v-0.12524h-0.66675z"/>
  </g>
  <g id="text937" transform="translate(-14.249 -.47641)" fill="#fffff0" stroke-width=".26458" aria-label="V/Oct">
   <path id="path943" d="m24.77 224.18 0.03951 0.33867h0.01129l0.04516-0.34149 0.28787-1.1571h0.37536l-0.59831 1.9897h-0.27094l-0.60396-1.9897h0.42051z"/>
   <path id="path945" d="m26.283 222.98 0.25682 0.0988-0.82691 2.3058-0.25965-0.0988z"/>
   <path id="path947" d="m26.571 224q0-0.50236 0.17216-0.76483t0.52494-0.26247q0.18344 0 0.31609 0.0734 0.13264 0.0706 0.21731 0.20602 0.08467 0.13265 0.12418 0.32456 0.04233 0.18909 0.04233 0.42334 0 0.50235-0.1778 0.76482-0.17498 0.26247-0.52211 0.26247-0.18627 0-0.31891-0.0706-0.12982-0.0734-0.21449-0.20602-0.08467-0.13547-0.12418-0.32456-0.03951-0.19191-0.03951-0.42615zm0.37253 0q0 0.14957 0.01693 0.2794 0.01693 0.127 0.05644 0.22013 0.03951 0.0931 0.09878 0.14676 0.06209 0.0536 0.1524 0.0536 0.16369 0 0.24553-0.16651 0.08184-0.16652 0.08184-0.5334 0-0.14394-0.01693-0.27094-0.01693-0.12982-0.05645-0.22296-0.03669-0.0959-0.09878-0.14957-0.06209-0.0565-0.15522-0.0565-0.32456 0-0.32456 0.69992z"/>
   <path id="path949" d="m29.004 224.92q-0.07056 0.0564-0.16933 0.0847-0.09878 0.0282-0.19756 0.0282-0.14393 0-0.24271-0.0508-0.09596-0.0536-0.15804-0.14957-0.06209-0.0988-0.09031-0.23425-0.0254-0.13829-0.0254-0.30762 0-0.36971 0.13264-0.55598 0.13264-0.18627 0.38947-0.18627 0.127 0 0.20602 0.0226 0.08185 0.0226 0.14393 0.0564l-0.07902 0.2794q-0.0508-0.0254-0.09878-0.0367-0.04516-0.0141-0.11007-0.0141-0.11853 0-0.1778 0.10443-0.05927 0.1016-0.05927 0.3302 0 0.19191 0.05927 0.31327 0.06209 0.12135 0.19473 0.12135 0.07056 0 0.11853-0.0169 0.0508-0.0198 0.09313-0.048z"/>
   <path id="path951" d="m29.049 223.58h0.15522v-0.26529l0.33584-0.10442v0.36971h0.27376v0.29916h-0.27376v0.61524q0 0.12136 0.02258 0.17216 0.0254 0.0508 0.08749 0.0508 0.04233 0 0.0762-8e-3t0.07338-0.0254l0.04233 0.26811q-0.06209 0.0311-0.14393 0.0508-0.08184 0.0226-0.17216 0.0226-0.16087 0-0.24271-0.0931-0.07902-0.0931-0.07902-0.31327v-0.73942h-0.15523z"/>
  </g>
  <g id="text941" transform="translate(-16.146 1.0631)" fill="#fffff0" stroke-width=".26458" aria-label="V/Oct In">
   <path id="path955" d="m19.105 238.64 0.03951 0.33866h0.01129l0.04516-0.34149 0.28787-1.1571h0.37536l-0.59831 1.9897h-0.27093l-0.60396-1.9897h0.42051z"/>
   <path id="path957" d="m20.617 237.44 0.25682 0.0988-0.82691 2.3058-0.25964-0.0988z"/>
   <path id="path959" d="m20.905 238.46q0-0.50236 0.17216-0.76482 0.17216-0.26247 0.52494-0.26247 0.18344 0 0.31609 0.0734 0.13264 0.0705 0.21731 0.20602 0.08467 0.13264 0.12418 0.32456 0.04233 0.18908 0.04233 0.42333 0 0.50236-0.1778 0.76482-0.17498 0.26247-0.52211 0.26247-0.18627 0-0.31891-0.0705-0.12982-0.0734-0.21449-0.20603-0.08467-0.13546-0.12418-0.32455-0.03951-0.19191-0.03951-0.42616zm0.37253 0q0 0.14958 0.01693 0.2794 0.01693 0.127 0.05644 0.22013 0.03951 0.0931 0.09878 0.14676 0.06209 0.0536 0.1524 0.0536 0.16369 0 0.24553-0.16651 0.08185-0.16651 0.08185-0.5334 0-0.14393-0.01693-0.27093-0.01693-0.12983-0.05644-0.22296-0.03669-0.096-0.09878-0.14958-0.06209-0.0564-0.15522-0.0564-0.32456 0-0.32456 0.69991z"/>
   <path id="path961" d="m23.338 239.38q-0.07056 0.0564-0.16933 0.0847-0.09878 0.0282-0.19756 0.0282-0.14393 0-0.24271-0.0508-0.09596-0.0536-0.15804-0.14958-0.06209-0.0988-0.09031-0.23424-0.0254-0.13829-0.0254-0.30763 0-0.36971 0.13264-0.55598 0.13264-0.18626 0.38947-0.18626 0.127 0 0.20602 0.0226 0.08185 0.0226 0.14393 0.0565l-0.07902 0.2794q-0.0508-0.0254-0.09878-0.0367-0.04516-0.0141-0.11007-0.0141-0.11853 0-0.1778 0.10442-0.05927 0.1016-0.05927 0.3302 0 0.19191 0.05927 0.31327 0.06209 0.12136 0.19473 0.12136 0.07056 0 0.11853-0.0169 0.0508-0.0197 0.09313-0.048z"/>
   <path id="path963" d="m23.383 238.04h0.15522v-0.26529l0.33584-0.10443v0.36972h0.27376v0.29915h-0.27376v0.61525q0 0.12135 0.02258 0.17215 0.0254 0.0508 0.08749 0.0508 0.04233 0 0.0762-8e-3t0.07338-0.0254l0.04233 0.26811q-0.06209 0.031-0.14393 0.0508-0.08185 0.0226-0.17216 0.0226-0.16087 0-0.24271-0.0931-0.07902-0.0931-0.07902-0.31326v-0.73943h-0.15522z"/>
   <path id="path965" d="m24.93 237.48h0.3556v1.9756h-0.3556z"/>
   <path id="path967" d="m26.265 239.45v-0.85796q0-0.15522-0.03669-0.21731-0.03669-0.0621-0.12418-0.0621-0.07338 0-0.127 0.0452t-0.0762 0.11289v0.97931h-0.33584v-1.4111h0.26811l0.03951 0.16368h0.0085q0.0508-0.0818 0.13829-0.13828 0.08749-0.0593 0.2286-0.0593 0.08467 0 0.14958 0.0254 0.06773 0.0254 0.11289 0.0847 0.04516 0.0564 0.06773 0.15522 0.02258 0.0959 0.02258 0.23989v0.9398z"/>
  </g>
  <g id="text946" transform="translate(-14.175 1.0311)" fill="#fffff0" stroke-width=".26458" aria-label="Notes">
   <path id="path964" d="m30.853 240.89 0.56162 0.98496h0.27376v-1.9897h-0.33585v0.98495l0.04516 0.33585h-0.01693l-0.12136-0.34149-0.56727-0.99343h-0.27376v1.9897h0.33584v-0.9765l-0.04516-0.34149h0.01411z"/>
   <path id="path966" d="m33.001 241.15c0-0.44027-0.14393-0.74225-0.5588-0.74225-0.40076 0-0.55598 0.30763-0.55598 0.74225 0 0.49671 0.18344 0.74225 0.55598 0.74225 0.40358 0 0.5588-0.30198 0.5588-0.74225zm-0.76765 0c0-0.16087 0.01693-0.27376 0.05362-0.34149 0.03669-0.0677 0.08749-0.1016 0.15522-0.1016 0.0762 0 0.12982 0.0395 0.16369 0.11289 0.03104 0.0762 0.04798 0.18627 0.04798 0.3302 0 0.16369-0.01976 0.27658-0.05362 0.34431-0.03387 0.0677-0.08749 0.0988-0.15804 0.0988-0.18344 0-0.20884-0.22578-0.20884-0.44309z"/>
   <path id="path968" d="m33.56 241.89c0.11853 0 0.23425-0.031 0.31609-0.0734l-0.04233-0.26812c-0.0508 0.0226-0.08749 0.0339-0.14958 0.0339-0.10442 0-0.11007-0.096-0.11007-0.22296v-0.61524h0.27376v-0.29916h-0.27376v-0.36971l-0.33585 0.10442v0.26529h-0.15522v0.29916h0.15522v0.73942c0 0.26247 0.07902 0.4064 0.32173 0.4064z"/>
   <path id="path970" d="m34.584 241.61c-0.21449 0-0.28504-0.14394-0.29069-0.36125h0.6858c0.01411-0.0931 0.02822-0.18344 0.02822-0.28504 0-0.33585-0.14958-0.55316-0.47413-0.55316-0.18062 0-0.31891 0.0621-0.42051 0.18344-0.1016 0.12136-0.14958 0.30763-0.14958 0.56163 0 0.42616 0.13547 0.74225 0.5588 0.74225 0.17216 0 0.35278-0.0593 0.44591-0.14112l-0.10442-0.23424c-0.05927 0.048-0.17216 0.0875-0.2794 0.0875zm0.11007-0.5842h-0.38947c0.0085-0.17216 0.05645-0.32738 0.22296-0.32738 0.14393 0 0.17498 0.15804 0.16651 0.32738z"/>
   <path id="path972" d="m35.547 241.61c-0.11853 0-0.22578-0.0395-0.29916-0.0847l-0.09313 0.27093c0.08749 0.0621 0.254 0.10161 0.4064 0.10161 0.29069 0 0.47131-0.15241 0.47131-0.43181 0-0.29351-0.2032-0.38382-0.38664-0.49106-0.06209-0.0339-0.13547-0.0734-0.13547-0.15805 0-0.0762 0.04515-0.11571 0.13829-0.11571 0.09596 0 0.20884 0.0367 0.2794 0.0649l0.07902-0.25964c-0.09313-0.0536-0.25682-0.0931-0.40922-0.0931-0.27376 0-0.42334 0.14394-0.42334 0.41205 0 0.29351 0.20602 0.37818 0.38665 0.48542 0.06209 0.0367 0.13547 0.0847 0.13547 0.17498 0 0.0875-0.06491 0.12418-0.14958 0.12418z"/>
  </g>
  <g id="text950" transform="translate(-14.494 2.534)" fill="#fffff0" stroke-width=".26458" aria-label="Round">
   <path id="path952" d="m31.601 236.42c0-0.39511-0.25118-0.5588-0.64065-0.5588-0.14958 0-0.34996 0.0198-0.47696 0.048v1.9558h0.3556v-0.81563l0.1524 0.0367 0.34431 0.77894h0.40922l-0.36407-0.75636-0.11289-0.0903c0.21449-0.0762 0.33302-0.29351 0.33302-0.59832zm-0.60678-0.23142c0.16369 0 0.23425 0.12418 0.23425 0.28787 0 0.20602-0.0762 0.3302-0.26811 0.3302h-0.12136v-0.60396c0.03669-0.0113 0.1016-0.0141 0.15522-0.0141z"/>
   <path id="path954" d="m32.848 237.16c0-0.44027-0.14393-0.74225-0.5588-0.74225-0.40076 0-0.55598 0.30763-0.55598 0.74225 0 0.49671 0.18344 0.74225 0.55598 0.74225 0.40358 0 0.5588-0.30198 0.5588-0.74225zm-0.76765 0c0-0.16087 0.01693-0.27376 0.05362-0.34149 0.03669-0.0677 0.08749-0.1016 0.15522-0.1016 0.0762 0 0.12982 0.0395 0.16369 0.11289 0.03104 0.0762 0.04798 0.18626 0.04798 0.3302 0 0.16369-0.01975 0.27658-0.05362 0.34431-0.03387 0.0677-0.08749 0.0988-0.15804 0.0988-0.18344 0-0.20884-0.22578-0.20884-0.44309z"/>
   <path id="path956" d="m33.399 237.91c0.18627 0 0.3048-0.10161 0.37254-0.22861h0.0085l0.05927 0.19192h0.254c-0.03104-0.11854-0.03951-0.27658-0.03951-0.42898v-0.98214h-0.33585v0.94263c-0.02822 0.0959-0.09595 0.19755-0.20884 0.19755-0.13829 0-0.14393-0.127-0.14393-0.29633v-0.84385h-0.33588v0.91723c0 0.31326 0.06491 0.53058 0.36971 0.53058z"/>
   <path id="path958" d="m34.982 236.42c-0.18627 0-0.29916 0.0875-0.36689 0.19756h-0.0085l-0.03951-0.16369h-0.26811v1.4111h0.33585v-0.97932c0.0254-0.079 0.09596-0.15804 0.2032-0.15804 0.14111 0 0.16087 0.11289 0.16087 0.2794v0.85796h0.33584v-0.93981c0-0.29351-0.06773-0.50518-0.35278-0.50518z"/>
   <path id="path960" d="m36.043 236.43c-0.39794 0-0.52776 0.3302-0.52776 0.75918 0 0.254 0.03951 0.43744 0.12136 0.55033 0.08184 0.11289 0.19473 0.16934 0.33867 0.16934 0.15804 0 0.27093-0.0649 0.33585-0.19756h0.01129l0.04515 0.16369h0.23707c-0.0254-0.17216-0.0254-0.31327-0.0254-0.49954v-1.4788h-0.33585v0.57009c-0.06209-0.0254-0.11289-0.0367-0.20038-0.0367zm-0.18062 0.77047c0-0.17216 0.01693-0.29352 0.05645-0.36125 0.03669-0.0677 0.09313-0.1016 0.16933-0.1016 0.07338 0 0.11571 0.0141 0.15522 0.048v0.66604c-0.02822 0.0903-0.07902 0.14958-0.18909 0.14958-0.16651 0-0.19191-0.2032-0.19191-0.40075z"/>
  </g>
  <rect id="rect278" x="14.675" y="237.42" width="8.75" height="12.75" rx="1" ry="1" fill="none" opacity=".994" stop-color="#000000" stroke="#555d50" stroke-width=".25"/>
  <g id="g30174" transform="translate(2.6808 219.5)" fill="#242422" stroke="#fffff0">
   <path id="path960-1-4" transform="rotate(90)" d="m66.678-6.8404a7.396 7.396 0 0 1-4.7638 3.9652l-1.9142-7.144z" opacity=".994" stop-color="#000000" stroke-width=".1"/>
   <path id="path958-7-3" transform="rotate(90)" d="m62.419-3.03a7.396 7.396 0 0 1-6.6612-0.93077l4.2422-6.0584z" opacity=".994" stop-color="#000000" stroke-width=".1"/>
   <path id="path956-5" transform="rotate(90)" d="m56.716-3.3919a7.396 7.396 0 0 1-4.0845-5.9827l7.3679-0.6446z" opacity=".994" stop-color="#000000" stroke-width=".1"/>
   <path id="path954-9" transform="rotate(90)" d="m52.973-7.7115a7.396 7.396 0 0 1 1.797-7.5375l5.2298 5.2298z" opacity=".994" stop-color="#000000" stroke-width=".1"/>
   <path id="path962-6" transform="rotate(90)" d="m53.426-13.408a7.396 7.396 0 0 1 7.2184-3.9788l-0.6446 7.3679z" opacity=".994" stop-color="#000000" stroke-width=".1"/>
   <path id="path964-2" transform="rotate(90)" d="m57.804-17.082a7.396 7.396 0 0 1 8.6011 3.3645l-6.4051 3.698z" opacity=".994" stop-color="#000000" stroke-width=".1"/>
   <path id="path966-1-0" transform="rotate(90)" d="m63.493-16.538a7.396 7.396 0 0 1 3.1851 3.3404l-6.678 3.1788z" opacity=".994" stop-color="#000000" stroke-width=".1"/>
   <circle id="circle968-7" cx="10" cy="60" r="6.296" opacity=".994" stop-color="#000000" stroke-width=".1"/>
  </g>
  <g id="g30164" transform="translate(2.7 130.5)" fill="#242422" stroke="#fffff0" stroke-width=".1">
   <path id="path990" transform="rotate(90)" d="m86.091-5.8061a7.396 7.396 0 0 1-5.4473 3.1739l-0.6446-7.3679z" opacity=".994" stop-color="#000000"/>
   <path id="path988" transform="rotate(90)" d="m81.283-2.7164a7.396 7.396 0 0 1-6.5141-2.0539l5.2298-5.2298z" opacity=".994" stop-color="#000000"/>
   <path id="path992" transform="rotate(90)" d="m86.677-6.8212a7.396 7.396 0 0 1-0.61957 1.0634l-6.0584-4.2422z" opacity=".994" stop-color="#000000"/>
   <path id="path985" transform="rotate(90)" d="m75.709-3.9754a7.396 7.396 0 0 1-3.0777-6.6692l7.3679 0.6446z" opacity=".994" stop-color="#000000"/>
   <path id="path938" transform="rotate(90)" d="m72.696-8.8314a7.396 7.396 0 0 1 3.0609-7.227l4.2422 6.0584z" opacity=".994" stop-color="#000000"/>
   <path id="path940" transform="rotate(90)" d="m74.043-14.385a7.396 7.396 0 0 1 7.87-2.7588l-1.9142 7.144z" opacity=".994" stop-color="#000000"/>
   <path id="path942" transform="rotate(90)" d="m78.946-17.321a7.396 7.396 0 0 1 7.7556 4.195l-6.7031 3.1257z" opacity=".994" stop-color="#000000"/>
   <path id="path979" transform="rotate(90)" d="m84.478-15.885a7.396 7.396 0 0 1 2.1989 2.7066l-6.678 3.1788z" opacity=".994" stop-color="#000000"/>
   <circle id="circle994" cx="10" cy="80" r="6.296" opacity=".994" stop-color="#000000"/>
  </g>
 </g>
 <g id="layer2" display="none">
  <circle id="circle908" cx="6.35" cy="77" r="4" fill="#0f0" fill-rule="evenodd" stroke-width=".26458"/>
  <circle id="circle920" cx="12.7" cy="61" r="4" fill="#00f" fill-rule="evenodd" stroke-width=".26458"/>
  <circle id="circle891" cx="19.05" cy="93.126" r="4" fill="#00f" fill-rule="evenodd" stroke-width=".26458"/>
  <circle id="circle915" cx="6.35" cy="93.126" r="4" fill="#00f" fill-rule="evenodd" stroke-width=".26458"/>
  <circle id="path1183" cx="12.7" cy="23" r="5" display="inline" opacity=".994" stop-color="#000000" stroke-width=".2"/>
  <circle id="path1236" cx="12.7" cy="42" r="6" display="inline" opacity=".994" stop-color="#000000" stroke-width=".2"/>
  <circle id="circle973" cx="12.7" cy="111" r="6" display="inline" opacity=".994" stop-color="#000000" stroke-width=".2"/>
  <ellipse id="circle908-7" cx="19.05" cy="77.9" rx="2.9" ry="2.9" display="inline" fill="#0f0" fill-rule="evenodd" stroke-width=".26458"/>
 </g>
</svg>
