<?xml version="1.0" encoding="UTF-8" standalone="no"?>
<svg
   xmlns:dc="http://purl.org/dc/elements/1.1/"
   xmlns:cc="http://creativecommons.org/ns#"
   xmlns:rdf="http://www.w3.org/1999/02/22-rdf-syntax-ns#"
   xmlns:svg="http://www.w3.org/2000/svg"
   xmlns="http://www.w3.org/2000/svg"
   xmlns:sodipodi="http://sodipodi.sourceforge.net/DTD/sodipodi-0.dtd"
   xmlns:inkscape="http://www.inkscape.org/namespaces/inkscape"
   sodipodi:docname="NoteMT.svg"
   inkscape:version="1.0.1 (3bc2e813f5, 2020-09-07)"
   id="svg8"
   version="1.1"
   viewBox="0 0 25.4 128.5"
   height="128.5mm"
   width="25.4mm">
  <defs
     id="defs2" />
  <sodipodi:namedview
     inkscape:snap-global="true"
     inkscape:snap-bbox-midpoints="true"
     inkscape:snap-bbox="true"
     inkscape:document-rotation="0"
     inkscape:window-maximized="0"
     inkscape:window-y="23"
     inkscape:window-x="26"
     inkscape:window-height="712"
     inkscape:window-width="1366"
     inkscape:lockguides="false"
     inkscape:guide-bbox="true"
     showguides="true"
     units="mm"
     showgrid="false"
     inkscape:current-layer="layer1"
     inkscape:document-units="mm"
     inkscape:cy="336.50185"
     inkscape:cx="65.449656"
     inkscape:zoom="2.828427"
     inkscape:pageshadow="2"
     inkscape:pageopacity="0.0"
     borderopacity="1.0"
     bordercolor="#666666"
     pagecolor="#ffffff"
     id="base"
     inkscape:bbox-nodes="false"
     inkscape:bbox-paths="false"
     inkscape:snap-grids="false"
     inkscape:snap-others="false"
     inkscape:object-nodes="false"
     inkscape:snap-nodes="true"
     inkscape:snap-bbox-edge-midpoints="false">
    <sodipodi:guide
       position="33.66316,51.500001"
       orientation="0,1"
       id="guide893"
       inkscape:label=""
       inkscape:locked="false"
       inkscape:color="rgb(0,0,255)" />
    <sodipodi:guide
       position="37,86.500001"
       orientation="0,1"
       id="guide899"
       inkscape:label=""
       inkscape:locked="false"
       inkscape:color="rgb(0,0,255)" />
    <sodipodi:guide
       position="35.808314,105.5"
       orientation="0,1"
       id="guide947"
       inkscape:label=""
       inkscape:locked="false"
       inkscape:color="rgb(0,0,255)" />
    <sodipodi:guide
       position="19.05,21.993851"
       orientation="-1,0"
       id="guide998"
       inkscape:label=""
       inkscape:locked="false"
       inkscape:color="rgb(0,0,255)" />
    <sodipodi:guide
       position="38.902957,67.500001"
       orientation="0,1"
       id="guide908"
       inkscape:label=""
       inkscape:locked="false"
       inkscape:color="rgb(0,0,255)" />
    <sodipodi:guide
       position="6.3500001,22.50041"
       orientation="-1,0"
       id="guide993"
       inkscape:label=""
       inkscape:locked="false"
       inkscape:color="rgb(0,0,255)" />
    <sodipodi:guide
       position="40.104014,17.5"
       orientation="0,1"
       id="guide894"
       inkscape:label=""
       inkscape:locked="false"
       inkscape:color="rgb(0,0,255)" />
    <sodipodi:guide
       position="12.7,101.92199"
       orientation="-1,0"
       id="guide905"
       inkscape:label=""
       inkscape:locked="false"
       inkscape:color="rgb(0,0,255)" />
    <sodipodi:guide
       position="40.694676,35.374455"
       orientation="0,1"
       id="guide906"
       inkscape:label=""
       inkscape:locked="false"
       inkscape:color="rgb(0,0,255)" />
    <sodipodi:guide
       position="19.049999,50.599976"
       orientation="0,-1"
       id="guide973" />
  </sodipodi:namedview>
  <metadata
     id="metadata5">
    <rdf:RDF>
      <cc:Work
         rdf:about="">
        <dc:format>image/svg+xml</dc:format>
        <dc:type
           rdf:resource="http://purl.org/dc/dcmitype/StillImage" />
        <dc:title />
      </cc:Work>
    </rdf:RDF>
  </metadata>
  <g
     transform="translate(0,-168.5)"
     id="layer1"
     inkscape:groupmode="layer"
     inkscape:label="Layer 1"
     style="display:inline">
    <rect
       style="display:inline;opacity:1;fill:#bbbbb0;fill-opacity:1;stroke:none;stroke-width:1.131;stroke-miterlimit:4;stroke-dasharray:none"
       id="rect838"
       width="25.4"
       height="128.5"
       x="-1.3877788e-16"
       y="168.5" />
    <rect
       rx="0.79999995"
       ry="0.80000025"
       y="221.5"
       x="8.1000004"
       height="13"
       width="9.1999998"
       id="rect912"
       style="fill:#555d50;fill-opacity:1;stroke:none;stroke-width:0.829455;stroke-opacity:0.25" />
    <text
       xml:space="preserve"
       style="font-weight:bold;font-stretch:condensed;font-size:2.82223px;line-height:1.25;font-family:'PT Sans Narrow';-inkscape-font-specification:'PT Sans Narrow, Bold Condensed';stroke-width:0.264583"
       x="2.0529213"
       y="233.73691"
       id="text64"><tspan
         sodipodi:role="line"
         id="tspan62"
         x="2.0529213"
         y="233.73691"
         style="stroke-width:0.264583" /></text>
    <rect
       rx="0.79999995"
       ry="0.80000019"
       y="253.5"
       x="1.78"
       height="13"
       width="9.1999998"
       id="rect919"
       style="fill:#555d50;fill-opacity:1;stroke:none;stroke-width:0.829456;stroke-opacity:0.25" />
    <g
       aria-label="Octave"
       id="text944"
       style="font-weight:bold;font-stretch:condensed;font-size:2.82223px;line-height:1.25;font-family:'PT Sans Narrow';-inkscape-font-specification:'PT Sans Narrow, Bold Condensed';text-align:center;text-anchor:middle;stroke-width:0.264583"
       transform="translate(7.6200003,1.36146)">
      <path
         d="m 1.7413126,183.26584 q 0,-0.50236 0.172156,-0.76483 0.172156,-0.26247 0.5249348,-0.26247 0.183445,0 0.3160898,0.0734 0.1326448,0.0706 0.2173117,0.20602 0.084667,0.13265 0.1241781,0.32456 0.042334,0.18909 0.042334,0.42334 0,0.50235 -0.1778005,0.76482 -0.1749783,0.26247 -0.5221126,0.26247 -0.1862672,0 -0.318912,-0.0706 -0.1298226,-0.0734 -0.2144895,-0.20602 -0.084667,-0.13547 -0.1241781,-0.32456 -0.039511,-0.19191 -0.039511,-0.42615 z m 0.3725343,0 q 0,0.14957 0.016933,0.2794 0.016933,0.127 0.056445,0.22013 0.039511,0.0931 0.098778,0.14676 0.062089,0.0536 0.1524004,0.0536 0.1636894,0 0.245534,-0.16651 0.081845,-0.16651 0.081845,-0.5334 0,-0.14394 -0.016933,-0.27094 -0.016933,-0.12982 -0.056445,-0.22295 -0.036689,-0.096 -0.098778,-0.14958 -0.062089,-0.0564 -0.1552227,-0.0564 -0.3245565,0 -0.3245565,0.69992 z"
         style="stroke-width:0.264583"
         id="path974" />
      <path
         d="m 4.1740735,184.17742 q -0.070556,0.0564 -0.1693338,0.0847 -0.098778,0.0282 -0.1975561,0.0282 -0.1439337,0 -0.2427118,-0.0508 -0.095956,-0.0536 -0.1580449,-0.14958 -0.062089,-0.0988 -0.090311,-0.23425 -0.0254,-0.13829 -0.0254,-0.30762 0,-0.36971 0.1326448,-0.55598 0.1326448,-0.18627 0.3894678,-0.18627 0.1270003,0 0.2060228,0.0226 0.081845,0.0226 0.1439337,0.0564 l -0.079022,0.27941 q -0.0508,-0.0254 -0.098778,-0.0367 -0.045156,-0.0141 -0.110067,-0.0141 -0.1185336,0 -0.1778005,0.10442 -0.059267,0.1016 -0.059267,0.3302 0,0.19191 0.059267,0.31327 0.062089,0.12135 0.1947339,0.12135 0.070556,0 0.1185337,-0.0169 0.0508,-0.0198 0.093134,-0.048 z"
         style="stroke-width:0.264583"
         id="path976" />
      <path
         d="m 4.2192249,182.8425 h 0.1552227 v -0.26529 l 0.3358454,-0.10442 v 0.36971 h 0.2737563 v 0.29916 H 4.710293 v 0.61524 q 0,0.12136 0.022578,0.17216 0.0254,0.0508 0.087489,0.0508 0.042334,0 0.0762,-0.008 0.033867,-0.008 0.073378,-0.0254 l 0.042333,0.26812 q -0.062089,0.031 -0.1439337,0.0508 -0.081845,0.0226 -0.1721561,0.0226 -0.1608671,0 -0.2427118,-0.0931 -0.079022,-0.0931 -0.079022,-0.31327 v -0.73942 H 4.2192249 Z"
         style="stroke-width:0.264583"
         id="path978" />
      <path
         d="m 5.1533786,182.92717 q 0.084667,-0.0508 0.2116673,-0.0819 0.1270004,-0.031 0.2878675,-0.031 0.2398895,0 0.3330231,0.12418 0.095956,0.12418 0.095956,0.35278 0,0.13264 -0.00847,0.26246 -0.00564,0.127 -0.00847,0.25118 -0.00282,0.12136 0.00282,0.23707 0.00847,0.11289 0.039511,0.21449 H 5.8335361 l -0.053622,-0.17216 h -0.011289 q -0.045156,0.0819 -0.1270003,0.13547 -0.081845,0.0536 -0.2060228,0.0536 -0.1665116,0 -0.2624674,-0.11007 -0.095956,-0.11288 -0.095956,-0.29915 0,-0.254 0.1806228,-0.36125 0.1806227,-0.10724 0.4882458,-0.0903 0.014111,-0.16369 -0.022578,-0.23707 -0.033867,-0.0734 -0.1495782,-0.0734 -0.084667,0 -0.1749782,0.0198 -0.090311,0.0198 -0.1608672,0.0564 z m 0.4035789,1.05833 q 0.0762,0 0.1241782,-0.0367 0.047978,-0.0395 0.070556,-0.0847 v -0.23425 q -0.064911,-0.008 -0.1241781,-0.003 -0.059267,0.006 -0.1044225,0.0254 -0.045156,0.0198 -0.073378,0.0593 -0.0254,0.0367 -0.0254,0.096 0,0.0875 0.033867,0.13265 0.036689,0.0452 0.098778,0.0452 z"
         style="stroke-width:0.264583"
         id="path980" />
      <path
         d="m 6.7451116,183.5791 0.033867,0.22296 h 0.011289 l 0.031045,-0.22578 0.1749783,-0.73378 h 0.3612454 l -0.4741346,1.42523 H 6.6576225 L 6.1580877,182.8425 h 0.39229 z"
         style="stroke-width:0.264583"
         id="path982" />
      <path
         d="m 8.3791763,184.14919 q -0.070556,0.0621 -0.1919116,0.1016 -0.1213559,0.0395 -0.2540007,0.0395 -0.146756,0 -0.2540008,-0.0508 -0.1044225,-0.0508 -0.172156,-0.14676 -0.067734,-0.096 -0.1016003,-0.23142 -0.031045,-0.13829 -0.031045,-0.31327 0,-0.381 0.1495782,-0.56162 0.1524004,-0.18345 0.4205123,-0.18345 0.090311,0 0.1749782,0.0282 0.084667,0.0254 0.1495782,0.0903 0.067734,0.0621 0.1072448,0.16934 0.042333,0.10442 0.042333,0.26529 0,0.0621 -0.00847,0.13264 -0.00564,0.0706 -0.019756,0.1524 H 7.7046633 q 0.00564,0.17498 0.073378,0.26811 0.067734,0.0931 0.2173117,0.0931 0.090311,0 0.1636894,-0.0282 0.0762,-0.0282 0.1157114,-0.0593 z m -0.4402679,-1.05833 q -0.1072447,0 -0.1608671,0.0875 -0.053622,0.0847 -0.062089,0.23989 H 8.10542 q 0.00847,-0.16087 -0.033867,-0.24272 -0.042333,-0.0847 -0.1326448,-0.0847 z"
         style="stroke-width:0.264583"
         id="path984" />
    </g>
    <g
       transform="translate(7.6200002,4.29391)"
       aria-label="Note"
       id="text948"
       style="font-weight:bold;font-stretch:condensed;font-size:2.82223px;line-height:1.25;font-family:'PT Sans Narrow';-inkscape-font-specification:'PT Sans Narrow, Bold Condensed';text-align:center;text-anchor:middle;stroke-width:0.264583">
      <path
         d="m 3.2201545,197.02491 -0.1298226,-0.34713 h -0.014111 l 0.045156,0.34149 v 0.97649 H 2.785531 v -1.98967 h 0.2737563 l 0.5672683,0.99342 0.1213559,0.34149 h 0.016933 l -0.045156,-0.33584 v -0.98496 h 0.3358454 v 1.98967 H 3.7817783 Z"
         style="stroke-width:0.264583"
         id="path987" />
      <path
         d="m 4.2530879,197.2902 q 0,-0.37536 0.146756,-0.5588 0.1467559,-0.18345 0.4092233,-0.18345 0.282223,0 0.4205123,0.18627 0.1382893,0.18627 0.1382893,0.55598 0,0.37818 -0.146756,0.56162 -0.1467559,0.18063 -0.4120456,0.18063 -0.5559793,0 -0.5559793,-0.74225 z m 0.3471343,0 q 0,0.21167 0.047978,0.32738 0.047978,0.11571 0.1608671,0.11571 0.1072448,0 0.1580449,-0.0988 0.053622,-0.1016 0.053622,-0.34431 0,-0.21731 -0.047978,-0.3302 -0.047978,-0.11289 -0.1636894,-0.11289 -0.098778,0 -0.1552226,0.1016 -0.053622,0.0988 -0.053622,0.34149 z"
         style="stroke-width:0.264583"
         id="path989" />
      <path
         d="m 5.4497125,196.58464 h 0.1552227 v -0.26529 l 0.3358454,-0.10442 v 0.36971 h 0.2737563 v 0.29916 H 5.9407806 v 0.61525 q 0,0.12135 0.022578,0.17215 0.0254,0.0508 0.087489,0.0508 0.042334,0 0.0762,-0.008 0.033867,-0.008 0.073378,-0.0254 l 0.042333,0.26812 q -0.062089,0.031 -0.1439338,0.0508 -0.081845,0.0226 -0.172156,0.0226 -0.1608671,0 -0.2427118,-0.0931 -0.079022,-0.0931 -0.079022,-0.31327 V 196.8838 H 5.4497125 Z"
         style="stroke-width:0.264583"
         id="path991" />
      <path
         d="m 7.334958,197.89134 q -0.070556,0.0621 -0.1919116,0.1016 -0.1213559,0.0395 -0.2540007,0.0395 -0.146756,0 -0.2540008,-0.0508 -0.1044225,-0.0508 -0.172156,-0.14676 -0.067734,-0.0959 -0.1016003,-0.23142 -0.031045,-0.13829 -0.031045,-0.31327 0,-0.381 0.1495782,-0.56162 0.1524004,-0.18345 0.4205123,-0.18345 0.090311,0 0.1749782,0.0282 0.084667,0.0254 0.1495782,0.0903 0.067734,0.0621 0.1072448,0.16933 0.042333,0.10442 0.042333,0.26529 0,0.0621 -0.00847,0.13264 -0.00564,0.0706 -0.019756,0.1524 H 6.660445 q 0.00564,0.17498 0.073378,0.26812 0.067734,0.0931 0.2173117,0.0931 0.090311,0 0.1636894,-0.0282 0.0762,-0.0282 0.1157114,-0.0593 z M 6.8946901,196.833 q -0.1072447,0 -0.1608671,0.0875 -0.053622,0.0847 -0.062089,0.23989 h 0.3894678 q 0.00847,-0.16087 -0.033867,-0.24271 -0.042333,-0.0847 -0.1326448,-0.0847 z"
         style="stroke-width:0.264583"
         id="path993" />
    </g>
    <g
       aria-label="Octave"
       id="text960"
       style="font-weight:bold;font-stretch:condensed;font-size:2.82223px;line-height:1.25;font-family:'PT Sans Narrow';-inkscape-font-specification:'PT Sans Narrow, Bold Condensed';text-align:center;text-anchor:middle;fill:#fffff0;fill-opacity:1;stroke-width:0.264583"
       transform="translate(1.0583337,18.0099)">
      <path
         d="m 1.7413126,237.51739 q 0,-0.50235 0.172156,-0.76482 0.172156,-0.26247 0.5249348,-0.26247 0.183445,0 0.3160898,0.0734 0.1326448,0.0705 0.2173117,0.20602 0.084667,0.13265 0.1241781,0.32456 0.042334,0.18909 0.042334,0.42333 0,0.50236 -0.1778005,0.76483 -0.1749783,0.26246 -0.5221126,0.26246 -0.1862672,0 -0.318912,-0.0705 -0.1298226,-0.0734 -0.2144895,-0.20602 -0.084667,-0.13547 -0.1241781,-0.32456 -0.039511,-0.19191 -0.039511,-0.42616 z m 0.3725343,0 q 0,0.14958 0.016933,0.2794 0.016933,0.127 0.056445,0.22014 0.039511,0.0931 0.098778,0.14675 0.062089,0.0536 0.1524004,0.0536 0.1636894,0 0.245534,-0.16652 0.081845,-0.16651 0.081845,-0.5334 0,-0.14393 -0.016933,-0.27093 -0.016933,-0.12982 -0.056445,-0.22296 -0.036689,-0.096 -0.098778,-0.14958 -0.062089,-0.0564 -0.1552227,-0.0564 -0.3245565,0 -0.3245565,0.69991 z"
         style="fill:#fffff0;fill-opacity:1;stroke-width:0.264583"
         id="path1012" />
      <path
         d="m 4.1740735,238.42897 q -0.070556,0.0565 -0.1693338,0.0847 -0.098778,0.0282 -0.1975561,0.0282 -0.1439337,0 -0.2427118,-0.0508 -0.095956,-0.0536 -0.1580449,-0.14958 -0.062089,-0.0988 -0.090311,-0.23424 -0.0254,-0.13829 -0.0254,-0.30762 0,-0.36972 0.1326448,-0.55598 0.1326448,-0.18627 0.3894678,-0.18627 0.1270003,0 0.2060228,0.0226 0.081845,0.0226 0.1439337,0.0564 l -0.079022,0.2794 q -0.0508,-0.0254 -0.098778,-0.0367 -0.045156,-0.0141 -0.110067,-0.0141 -0.1185336,0 -0.1778005,0.10442 -0.059267,0.1016 -0.059267,0.33021 0,0.19191 0.059267,0.31326 0.062089,0.12136 0.1947339,0.12136 0.070556,0 0.1185337,-0.0169 0.0508,-0.0198 0.093134,-0.048 z"
         style="fill:#fffff0;fill-opacity:1;stroke-width:0.264583"
         id="path1014" />
      <path
         d="m 4.2192249,237.09406 h 0.1552227 v -0.26529 l 0.3358454,-0.10442 v 0.36971 h 0.2737563 v 0.29915 H 4.710293 v 0.61525 q 0,0.12136 0.022578,0.17216 0.0254,0.0508 0.087489,0.0508 0.042334,0 0.0762,-0.008 0.033867,-0.008 0.073378,-0.0254 l 0.042333,0.26811 q -0.062089,0.031 -0.1439337,0.0508 -0.081845,0.0226 -0.1721561,0.0226 -0.1608671,0 -0.2427118,-0.0931 -0.079022,-0.0931 -0.079022,-0.31327 v -0.73943 H 4.2192249 Z"
         style="fill:#fffff0;fill-opacity:1;stroke-width:0.264583"
         id="path1016" />
      <path
         d="m 5.1533786,237.17872 q 0.084667,-0.0508 0.2116673,-0.0818 0.1270004,-0.031 0.2878675,-0.031 0.2398895,0 0.3330231,0.12417 0.095956,0.12418 0.095956,0.35278 0,0.13265 -0.00847,0.26247 -0.00564,0.127 -0.00847,0.25118 -0.00282,0.12135 0.00282,0.23707 0.00847,0.11288 0.039511,0.21448 H 5.8335361 l -0.053622,-0.17215 h -0.011289 q -0.045156,0.0818 -0.1270003,0.13547 -0.081845,0.0536 -0.2060228,0.0536 -0.1665116,0 -0.2624674,-0.11007 -0.095956,-0.11289 -0.095956,-0.29916 0,-0.254 0.1806228,-0.36124 0.1806227,-0.10725 0.4882458,-0.0903 0.014111,-0.16369 -0.022578,-0.23707 -0.033867,-0.0734 -0.1495782,-0.0734 -0.084667,0 -0.1749782,0.0198 -0.090311,0.0198 -0.1608672,0.0564 z m 0.4035789,1.05834 q 0.0762,0 0.1241782,-0.0367 0.047978,-0.0395 0.070556,-0.0847 v -0.23424 q -0.064911,-0.008 -0.1241781,-0.003 -0.059267,0.006 -0.1044225,0.0254 -0.045156,0.0197 -0.073378,0.0593 -0.0254,0.0367 -0.0254,0.096 0,0.0875 0.033867,0.13265 0.036689,0.0452 0.098778,0.0452 z"
         style="fill:#fffff0;fill-opacity:1;stroke-width:0.264583"
         id="path1018" />
      <path
         d="m 6.7451116,237.83066 0.033867,0.22296 h 0.011289 l 0.031045,-0.22578 0.1749783,-0.73378 h 0.3612454 l -0.4741346,1.42522 H 6.6576225 l -0.4995348,-1.42522 h 0.39229 z"
         style="fill:#fffff0;fill-opacity:1;stroke-width:0.264583"
         id="path1020" />
      <path
         d="m 8.3791763,238.40075 q -0.070556,0.0621 -0.1919116,0.1016 -0.1213559,0.0395 -0.2540007,0.0395 -0.146756,0 -0.2540008,-0.0508 -0.1044225,-0.0508 -0.172156,-0.14675 -0.067734,-0.096 -0.1016003,-0.23143 -0.031045,-0.13829 -0.031045,-0.31326 0,-0.38101 0.1495782,-0.56163 0.1524004,-0.18344 0.4205123,-0.18344 0.090311,0 0.1749782,0.0282 0.084667,0.0254 0.1495782,0.0903 0.067734,0.0621 0.1072448,0.16933 0.042333,0.10443 0.042333,0.26529 0,0.0621 -0.00847,0.13265 -0.00564,0.0705 -0.019756,0.1524 H 7.7046633 q 0.00564,0.17498 0.073378,0.26811 0.067734,0.0931 0.2173117,0.0931 0.090311,0 0.1636894,-0.0282 0.0762,-0.0282 0.1157114,-0.0593 z m -0.4402679,-1.05834 q -0.1072447,0 -0.1608671,0.0875 -0.053622,0.0847 -0.062089,0.23989 H 8.10542 q 0.00847,-0.16086 -0.033867,-0.24271 -0.042333,-0.0847 -0.1326448,-0.0847 z"
         style="fill:#fffff0;fill-opacity:1;stroke-width:0.264583"
         id="path1022" />
    </g>
    <path
       transform="rotate(90)"
       sodipodi:arc-type="slice"
       sodipodi:end="1.4835299"
       sodipodi:start="0.60292399"
       sodipodi:ry="7.43648"
       sodipodi:rx="7.4486375"
       sodipodi:cy="-12.699997"
       sodipodi:cx="210.4987"
       sodipodi:type="arc"
       id="path990"
       style="display:inline;opacity:0.994;fill:#bbbbb0;fill-opacity:1;stroke:#000000;stroke-width:0.1;stroke-miterlimit:4;stroke-dasharray:none;stroke-opacity:1;stop-color:#000000"
       d="m 216.634,-8.4831162 a 7.4486375,7.43648 0 0 1 -5.48611,3.1913013 l -0.64919,-7.4081821 z" />
    <path
       style="display:inline;opacity:0.994;fill:#bbbbb0;fill-opacity:1;stroke:#000000;stroke-width:0.1;stroke-miterlimit:4;stroke-dasharray:none;stroke-opacity:1;stop-color:#000000"
       id="path988"
       sodipodi:type="arc"
       sodipodi:cx="210.4987"
       sodipodi:cy="-12.699997"
       sodipodi:rx="7.4486375"
       sodipodi:ry="7.43648"
       sodipodi:start="1.3962634"
       sodipodi:end="2.3561945"
       sodipodi:arc-type="slice"
       transform="rotate(90)"
       d="m 211.79215,-5.3764937 a 7.4486375,7.43648 0 0 1 -6.56043,-2.0651178 l 5.26698,-5.2583855 z" />
    <path
       style="display:inline;opacity:0.994;fill:#bbbbb0;fill-opacity:1;stroke:#000000;stroke-width:0.1;stroke-miterlimit:4;stroke-dasharray:none;stroke-opacity:1;stop-color:#000000"
       id="path992"
       sodipodi:type="arc"
       sodipodi:cx="210.4987"
       sodipodi:cy="-12.699997"
       sodipodi:rx="7.4486375"
       sodipodi:ry="7.43648"
       sodipodi:start="0.44427356"
       sodipodi:end="0.61086524"
       sodipodi:arc-type="slice"
       transform="rotate(90)"
       d="m 217.22425,-9.5037824 a 7.4486375,7.43648 0 0 1 -0.62398,1.0691752 l -6.10157,-4.2653898 z" />
    <path
       transform="rotate(90)"
       sodipodi:arc-type="slice"
       sodipodi:end="3.2288591"
       sodipodi:start="2.1896028"
       sodipodi:ry="7.43648"
       sodipodi:rx="7.4486375"
       sodipodi:cy="-12.699997"
       sodipodi:cx="210.4987"
       sodipodi:type="arc"
       id="path985"
       style="display:inline;opacity:0.994;fill:#bbbbb0;fill-opacity:1;stroke:#000000;stroke-width:0.1;stroke-miterlimit:4;stroke-dasharray:none;stroke-opacity:1;stop-color:#000000"
       d="m 206.17802,-6.6424533 a 7.4486375,7.43648 0 0 1 -3.09961,-6.7056757 l 7.42029,0.648132 z" />
    <path
       transform="rotate(90)"
       sodipodi:arc-type="slice"
       sodipodi:end="4.1015237"
       sodipodi:start="2.9829248"
       sodipodi:ry="7.43648"
       sodipodi:rx="7.4486375"
       sodipodi:cy="-12.699997"
       sodipodi:cx="210.4987"
       sodipodi:type="arc"
       id="path938"
       style="display:inline;opacity:0.994;fill:#bbbbb0;fill-opacity:1;stroke:#000000;stroke-width:0.1;stroke-miterlimit:4;stroke-dasharray:none;stroke-opacity:1;stop-color:#000000"
       d="m 203.14363,-11.525011 a 7.4486375,7.43648 0 0 1 3.08271,-7.266594 l 4.27236,6.091608 z" />
    <path
       style="display:inline;opacity:0.994;fill:#bbbbb0;fill-opacity:1;stroke:#000000;stroke-width:0.1;stroke-miterlimit:4;stroke-dasharray:none;stroke-opacity:1;stop-color:#000000"
       id="path940"
       sodipodi:type="arc"
       sodipodi:cx="210.4987"
       sodipodi:cy="-12.699997"
       sodipodi:rx="7.4486375"
       sodipodi:ry="7.43648"
       sodipodi:start="3.7762642"
       sodipodi:end="4.9741884"
       sodipodi:arc-type="slice"
       transform="rotate(90)"
       d="m 204.50056,-17.109183 a 7.4486375,7.43648 0 0 1 7.92599,-2.773902 l -1.92785,7.183088 z" />
    <path
       transform="rotate(90)"
       sodipodi:arc-type="slice"
       sodipodi:end="5.846853"
       sodipodi:start="4.5695861"
       sodipodi:ry="7.43648"
       sodipodi:rx="7.4486375"
       sodipodi:cy="-12.699997"
       sodipodi:cx="210.4987"
       sodipodi:type="arc"
       id="path942"
       style="display:inline;opacity:0.994;fill:#bbbbb0;fill-opacity:1;stroke:#000000;stroke-width:0.1;stroke-miterlimit:4;stroke-dasharray:none;stroke-opacity:1;stop-color:#000000"
       d="m 209.43863,-20.060781 a 7.4486375,7.43648 0 0 1 7.81083,4.217992 l -6.75076,3.142792 z" />
    <rect
       style="fill:#555d50;fill-opacity:1;stroke:none;stroke-width:0.829456;stroke-opacity:0.25"
       id="rect1006"
       width="9.1999998"
       height="13"
       x="14.45"
       y="253.5"
       ry="0.80000019"
       rx="0.79999995" />
    <g
       aria-label="Note"
       id="text964"
       style="font-weight:bold;font-stretch:condensed;font-size:2.82223px;line-height:1.25;font-family:'PT Sans Narrow';-inkscape-font-specification:'PT Sans Narrow, Bold Condensed';text-align:center;text-anchor:middle;fill:#fffff0;fill-opacity:1;stroke-width:0.264583"
       transform="translate(13.97,4.47002)">
      <path
         d="m 3.2201545,251.04881 -0.1298226,-0.34714 h -0.014111 l 0.045156,0.34149 v 0.97649 H 2.785531 v -1.98967 h 0.2737563 l 0.5672683,0.99343 0.1213559,0.34149 h 0.016933 l -0.045156,-0.33585 v -0.98496 h 0.3358454 v 1.98967 H 3.7817783 Z"
         style="fill:#fffff0;fill-opacity:1;stroke-width:0.264583"
         id="path1025" />
      <path
         d="m 4.2530879,251.3141 q 0,-0.37536 0.146756,-0.55881 0.1467559,-0.18344 0.4092233,-0.18344 0.282223,0 0.4205123,0.18627 0.1382893,0.18626 0.1382893,0.55598 0,0.37817 -0.146756,0.56162 -0.1467559,0.18062 -0.4120456,0.18062 -0.5559793,0 -0.5559793,-0.74224 z m 0.3471343,0 q 0,0.21166 0.047978,0.32737 0.047978,0.11572 0.1608671,0.11572 0.1072448,0 0.1580449,-0.0988 0.053622,-0.1016 0.053622,-0.34431 0,-0.21732 -0.047978,-0.33021 -0.047978,-0.11288 -0.1636894,-0.11288 -0.098778,0 -0.1552226,0.1016 -0.053622,0.0988 -0.053622,0.34149 z"
         style="fill:#fffff0;fill-opacity:1;stroke-width:0.264583"
         id="path1027" />
      <path
         d="m 5.4497125,250.60854 h 0.1552227 v -0.26529 l 0.3358454,-0.10442 v 0.36971 h 0.2737563 v 0.29915 H 5.9407806 v 0.61525 q 0,0.12136 0.022578,0.17216 0.0254,0.0508 0.087489,0.0508 0.042334,0 0.0762,-0.008 0.033867,-0.008 0.073378,-0.0254 l 0.042333,0.26811 q -0.062089,0.031 -0.1439338,0.0508 -0.081845,0.0226 -0.172156,0.0226 -0.1608671,0 -0.2427118,-0.0931 -0.079022,-0.0931 -0.079022,-0.31327 v -0.73943 H 5.4497125 Z"
         style="fill:#fffff0;fill-opacity:1;stroke-width:0.264583"
         id="path1029" />
      <path
         d="m 7.334958,251.91523 q -0.070556,0.0621 -0.1919116,0.1016 -0.1213559,0.0395 -0.2540007,0.0395 -0.146756,0 -0.2540008,-0.0508 -0.1044225,-0.0508 -0.172156,-0.14675 -0.067734,-0.096 -0.1016003,-0.23143 -0.031045,-0.13829 -0.031045,-0.31326 0,-0.38101 0.1495782,-0.56163 0.1524004,-0.18344 0.4205123,-0.18344 0.090311,0 0.1749782,0.0282 0.084667,0.0254 0.1495782,0.0903 0.067734,0.0621 0.1072448,0.16933 0.042333,0.10443 0.042333,0.26529 0,0.0621 -0.00847,0.13265 -0.00564,0.0705 -0.019756,0.1524 H 6.660445 q 0.00564,0.17498 0.073378,0.26811 0.067734,0.0931 0.2173117,0.0931 0.090311,0 0.1636894,-0.0282 0.0762,-0.0282 0.1157114,-0.0593 z m -0.4402679,-1.05834 q -0.1072447,0 -0.1608671,0.0875 -0.053622,0.0847 -0.062089,0.23989 h 0.3894678 q 0.00847,-0.16086 -0.033867,-0.24271 -0.042333,-0.0847 -0.1326448,-0.0847 z"
         style="fill:#fffff0;fill-opacity:1;stroke-width:0.264583"
         id="path1031" />
    </g>
    <g
       aria-label="Notes/Oct"
       id="text1191"
       style="font-weight:bold;font-stretch:condensed;font-size:2.82223px;line-height:1.25;font-family:'PT Sans Narrow';-inkscape-font-specification:'PT Sans Narrow, Bold Condensed';text-align:center;text-anchor:middle;display:inline;stroke-width:0.264583"
       transform="translate(-12.6037,203.56216)">
      <path
         d="m 20.854324,66.703256 -0.129823,-0.347135 h -0.01411 l 0.04516,0.34149 v 0.976492 H 20.4197 v -1.989672 h 0.273756 l 0.567269,0.993425 0.121356,0.341489 h 0.01693 L 21.353858,66.6835 v -0.984958 h 0.335846 v 1.989672 h -0.273757 z"
         style="stroke-width:0.264583"
         id="path1212" />
      <path
         d="m 21.887257,66.968545 q 0,-0.375356 0.146756,-0.558801 0.146756,-0.183445 0.409223,-0.183445 0.282223,0 0.420513,0.186267 0.138289,0.186267 0.138289,0.555979 0,0.378179 -0.146756,0.561624 -0.146756,0.180623 -0.412046,0.180623 -0.555979,0 -0.555979,-0.742247 z m 0.347134,0 q 0,0.211668 0.04798,0.327379 0.04798,0.115711 0.160867,0.115711 0.107245,0 0.158045,-0.09878 0.05362,-0.1016 0.05362,-0.344312 0,-0.217311 -0.04798,-0.330201 -0.04798,-0.112889 -0.16369,-0.112889 -0.09878,0 -0.155222,0.1016 -0.05362,0.09878 -0.05362,0.34149 z"
         style="stroke-width:0.264583"
         id="path1214" />
      <path
         d="m 23.083882,66.262988 h 0.155222 v -0.26529 l 0.335846,-0.104422 v 0.369712 h 0.273756 v 0.299156 H 23.57495 v 0.615246 q 0,0.121356 0.02258,0.172156 0.0254,0.0508 0.08749,0.0508 0.04233,0 0.0762,-0.0085 0.03387,-0.0085 0.07338,-0.0254 l 0.04233,0.268112 q -0.06209,0.03104 -0.143933,0.0508 -0.08184,0.02258 -0.172156,0.02258 -0.160868,0 -0.242712,-0.09313 -0.07902,-0.09313 -0.07902,-0.313268 v -0.739424 h -0.155222 z"
         style="stroke-width:0.264583"
         id="path1216" />
      <path
         d="m 24.969127,67.56968 q -0.07056,0.06209 -0.191912,0.101601 -0.121355,0.03951 -0.254,0.03951 -0.146756,0 -0.254001,-0.0508 -0.104422,-0.0508 -0.172156,-0.146756 -0.06773,-0.09596 -0.1016,-0.231423 -0.03104,-0.138289 -0.03104,-0.313268 0,-0.381001 0.149578,-0.561624 0.152401,-0.183444 0.420513,-0.183444 0.09031,0 0.174978,0.02822 0.08467,0.0254 0.149578,0.09031 0.06773,0.06209 0.107245,0.169334 0.04233,0.104422 0.04233,0.26529 0,0.06209 -0.0085,0.132644 -0.0056,0.07056 -0.01976,0.152401 h -0.685802 q 0.0056,0.174978 0.07338,0.268112 0.06773,0.09313 0.217312,0.09313 0.09031,0 0.163689,-0.02822 0.0762,-0.02822 0.115712,-0.05927 z m -0.440268,-1.058336 q -0.107245,0 -0.160867,0.08749 -0.05362,0.08467 -0.06209,0.23989 h 0.389468 q 0.0085,-0.160867 -0.03387,-0.242712 -0.04233,-0.08467 -0.132645,-0.08467 z"
         style="stroke-width:0.264583"
         id="path1218" />
      <path
         d="m 25.697261,67.298746 q 0,-0.05927 -0.03951,-0.09878 -0.03669,-0.04233 -0.09596,-0.0762 -0.05927,-0.03669 -0.127,-0.07338 -0.06491,-0.03669 -0.124179,-0.09031 -0.05927,-0.05362 -0.09878,-0.129823 -0.03669,-0.0762 -0.03669,-0.191912 0,-0.197556 0.107245,-0.304801 0.107245,-0.107244 0.31609,-0.107244 0.124178,0 0.234245,0.02822 0.110067,0.0254 0.174978,0.06491 l -0.07902,0.259646 q -0.05362,-0.02258 -0.129823,-0.04233 -0.0762,-0.02258 -0.149578,-0.02258 -0.138289,0 -0.138289,0.115712 0,0.05362 0.03669,0.09031 0.03951,0.03387 0.09878,0.06773 0.05927,0.03387 0.124178,0.07055 0.06773,0.03669 0.127,0.09313 0.05927,0.05362 0.09596,0.132645 0.03951,0.07902 0.03951,0.194734 0,0.194733 -0.118533,0.313267 -0.118534,0.118534 -0.352779,0.118534 -0.115712,0 -0.228601,-0.02822 -0.110067,-0.02822 -0.1778,-0.07338 l 0.09313,-0.270934 q 0.05927,0.03387 0.135467,0.05927 0.07902,0.0254 0.16369,0.0254 0.06491,0 0.107244,-0.02822 0.04233,-0.03104 0.04233,-0.09596 z"
         style="stroke-width:0.264583"
         id="path1220" />
      <path
         d="m 26.868482,65.664675 0.256823,0.09878 -0.826913,2.305762 -0.259645,-0.09878 z"
         style="stroke-width:0.264583"
         id="path1222" />
      <path
         d="m 27.156347,66.686322 q 0,-0.502357 0.172156,-0.764824 0.172156,-0.262468 0.524935,-0.262468 0.183445,0 0.31609,0.07338 0.132645,0.07056 0.217311,0.206023 0.08467,0.132645 0.124179,0.324557 0.04233,0.189089 0.04233,0.423334 0,0.502357 -0.1778,0.764825 -0.174979,0.262467 -0.522113,0.262467 -0.186267,0 -0.318912,-0.07056 -0.129823,-0.07338 -0.21449,-0.206023 -0.08467,-0.135467 -0.124178,-0.324556 -0.03951,-0.191912 -0.03951,-0.426157 z m 0.372534,0 q 0,0.149578 0.01693,0.279401 0.01693,0.127 0.05644,0.220134 0.03951,0.09313 0.09878,0.146756 0.06209,0.05362 0.1524,0.05362 0.163689,0 0.245534,-0.166511 0.08185,-0.166512 0.08185,-0.533402 0,-0.143933 -0.01693,-0.270934 -0.01693,-0.129822 -0.05644,-0.222956 -0.03669,-0.09596 -0.09878,-0.149578 -0.06209,-0.05645 -0.155223,-0.05645 -0.324557,0 -0.324557,0.699913 z"
         style="stroke-width:0.264583"
         id="path1224" />
      <path
         d="m 29.589108,67.597903 q -0.07056,0.05644 -0.169334,0.08467 -0.09878,0.02822 -0.197556,0.02822 -0.143934,0 -0.242712,-0.0508 -0.09596,-0.05362 -0.158045,-0.149579 -0.06209,-0.09878 -0.09031,-0.234245 -0.0254,-0.138289 -0.0254,-0.307623 0,-0.369712 0.132644,-0.555979 0.132645,-0.186267 0.389468,-0.186267 0.127,0 0.206023,0.02258 0.08185,0.02258 0.143934,0.05644 l -0.07902,0.279401 q -0.0508,-0.0254 -0.09878,-0.03669 -0.04516,-0.01411 -0.110067,-0.01411 -0.118533,0 -0.1778,0.104422 -0.05927,0.101601 -0.05927,0.330201 0,0.191912 0.05927,0.313268 0.06209,0.121356 0.194734,0.121356 0.07055,0 0.118533,-0.01693 0.0508,-0.01976 0.09313,-0.04798 z"
         style="stroke-width:0.264583"
         id="path1226" />
      <path
         d="m 29.634259,66.262988 h 0.155223 v -0.26529 l 0.335846,-0.104422 v 0.369712 h 0.273756 v 0.299156 h -0.273756 v 0.615246 q 0,0.121356 0.02258,0.172156 0.0254,0.0508 0.08749,0.0508 0.04233,0 0.0762,-0.0085 0.03387,-0.0085 0.07338,-0.0254 l 0.04233,0.268112 q -0.06209,0.03104 -0.143934,0.0508 -0.08184,0.02258 -0.172156,0.02258 -0.160867,0 -0.242711,-0.09313 -0.07902,-0.09313 -0.07902,-0.313268 v -0.739424 h -0.155223 z"
         style="stroke-width:0.264583"
         id="path1228" />
    </g>
    <g
       aria-label="NoteMT"
       id="text1034"
       style="font-weight:bold;font-stretch:condensed;font-size:4.9389px;line-height:1.25;font-family:'PT Sans Narrow';-inkscape-font-specification:'PT Sans Narrow, Bold Condensed';text-align:center;text-anchor:middle;stroke-width:0.264583"
       transform="translate(8.5125114,-1.21211)">
      <path
         d="m -1.9392075,176.99505 -0.2271894,-0.60749 h -0.024694 l 0.079022,0.59761 v 1.70886 H -2.699798 v -3.48192 h 0.4790733 l 0.9927189,1.73849 0.2123727,0.59761 h 0.0296334 l -0.0790224,-0.58773 v -1.72368 h 0.5877291 v 3.48193 h -0.47907329 z"
         style="stroke-width:0.264583"
         id="path1036" />
      <path
         d="m -0.13157508,177.45931 q 0,-0.65688 0.2568228,-0.97791 0.2568228,-0.32102 0.7161405,-0.32102 0.49388998,0 0.73589608,0.32596 0.2420061,0.32597 0.2420061,0.97297 0,0.66181 -0.2568228,0.98284 -0.2568228,0.31609 -0.72107938,0.31609 -0.9729633,0 -0.9729633,-1.29893 z m 0.6074847,0 q 0,0.37041 0.0839613,0.57291 0.0839613,0.20249 0.2815173,0.20249 0.18767818,0 0.27657838,-0.17286 0.093839,-0.1778 0.093839,-0.60254 0,-0.3803 -0.083961,-0.57786 -0.083961,-0.19755 -0.28645618,-0.19755 -0.1728615,0 -0.2716395,0.1778 -0.0938391,0.17286 -0.0938393,0.59761 z"
         style="stroke-width:0.264583"
         id="path1038" />
      <path
         d="m 1.962517,176.22458 h 0.2716395 v -0.46426 l 0.5877291,-0.18274 v 0.647 h 0.4790733 v 0.52352 H 2.8218856 v 1.07668 q 0,0.21238 0.039511,0.30128 0.04445,0.0889 0.1531059,0.0889 0.074083,0 0.1333503,-0.0148 0.059267,-0.0148 0.1284114,-0.0445 l 0.074083,0.4692 q -0.1086558,0.0543 -0.2518839,0.0889 -0.1432281,0.0395 -0.3012729,0.0395 -0.2815173,0 -0.4247454,-0.16299 -0.1382892,-0.16298 -0.1382892,-0.54821 v -1.294 H 1.962517 Z"
         style="stroke-width:0.264583"
         id="path1040" />
      <path
         d="m 5.2616943,178.51129 q -0.1234725,0.10866 -0.3358452,0.1778 -0.2123727,0.0692 -0.444501,0.0692 -0.2568228,0 -0.444501,-0.0889 -0.1827393,-0.0889 -0.3012729,-0.25683 -0.1185336,-0.16792 -0.1778004,-0.40499 -0.054328,-0.242 -0.054328,-0.54821 0,-0.66676 0.2617617,-0.98285 0.2667006,-0.32102 0.7358961,-0.32102 0.1580448,0 0.3062118,0.0494 0.148167,0.0445 0.2617617,0.15804 0.1185336,0.10866 0.1876782,0.29633 0.074083,0.18274 0.074083,0.46426 0,0.10866 -0.014817,0.23213 -0.00988,0.12347 -0.034572,0.2667 H 4.0812972 q 0.00988,0.30621 0.1284114,0.46919 0.1185336,0.16299 0.3802953,0.16299 0.1580448,0 0.2864562,-0.0494 0.1333503,-0.0494 0.2024949,-0.10372 z M 4.4912259,176.6592 q -0.1876782,0 -0.2815173,0.15311 -0.093839,0.14817 -0.1086558,0.41981 H 4.782621 Q 4.797438,176.9506 4.723354,176.80737 4.64927,176.6592 4.4912259,176.6592 Z"
         style="stroke-width:0.264583"
         id="path1042" />
      <path
         d="m 7.9286979,176.91109 0.069145,-0.66181 H 7.973148 l -0.1827393,0.59266 -0.5630346,1.21497 H 7.0199403 L 6.4223334,176.837 6.2395941,176.2394 h -0.029633 l 0.093839,0.66675 v 1.78788 H 5.7160707 v -3.45723 h 0.5976069 l 0.7210794,1.49649 0.1185336,0.42968 h 0.019756 l 0.1135947,-0.43956 0.6766293,-1.48661 h 0.5877291 v 3.45723 H 7.9286979 Z"
         style="stroke-width:0.264583"
         id="path1044" />
      <path
         d="m 11.074775,175.80971 h -0.819857 v 2.88432 H 9.6326163 v -2.88432 H 8.8127589 v -0.57291 h 2.2620161 z"
         style="stroke-width:0.264583"
         id="path1046" />
    </g>
    <g
       aria-label="GRANDE"
       id="text2533"
       style="font-size:1.76389px;line-height:1.25;font-family:'Source Sans Pro';-inkscape-font-specification:'Source Sans Pro, Normal';text-align:center;letter-spacing:0.370417px;text-anchor:middle;stroke-width:0.176389"
       transform="matrix(1.5,0,0,1.5,-23.144467,106.83592)">
      <path
         d="m 20.480543,123.44218 c 0.155222,0 0.282222,-0.0564 0.35807,-0.13406 v -0.48683 h -0.381001 v 0.12171 h 0.245181 v 0.30162 c -0.04586,0.0423 -0.125236,0.067 -0.208139,0.067 -0.246945,0 -0.382764,-0.18168 -0.382764,-0.47272 0,-0.28751 0.148167,-0.46567 0.381,-0.46567 0.116417,0 0.1905,0.0441 0.248709,0.10407 l 0.08114,-0.0917 c -0.06703,-0.0723 -0.172862,-0.14288 -0.333376,-0.14288 -0.306917,0 -0.530931,0.22755 -0.530931,0.59973 0,0.37747 0.216959,0.59972 0.522112,0.59972 z"
         style="stroke-width:0.176389"
         id="path2535" />
      <path
         d="m 21.484194,123.42101 h 0.148166 v -0.48859 h 0.208139 l 0.278695,0.48859 h 0.16757 l -0.29457,-0.50447 c 0.156986,-0.0406 0.259292,-0.1464 0.259292,-0.32632 0,-0.24165 -0.169334,-0.32632 -0.405695,-0.32632 h -0.361597 z m 0.148166,-0.60854 v -0.42862 h 0.192264 c 0.179917,0 0.278695,0.0547 0.278695,0.20637 0,0.14817 -0.09878,0.22225 -0.278695,0.22225 z"
         style="stroke-width:0.176389"
         id="path2537" />
      <path
         d="m 23.054052,122.77543 c 0.04057,-0.12876 0.07761,-0.25576 0.112889,-0.38982 h 0.0071 c 0.03704,0.13406 0.07408,0.26106 0.116416,0.38982 l 0.05468,0.17462 h -0.345722 z m -0.354542,0.64558 h 0.149931 L 22.960566,123.07 h 0.42157 l 0.109361,0.35101 h 0.156986 l -0.38982,-1.15711 H 23.08933 Z"
         style="stroke-width:0.176389"
         id="path2539" />
      <path
         d="m 24.182939,123.42101 h 0.139348 v -0.60854 c 0,-0.11994 -0.01058,-0.24518 -0.0194,-0.3616 h 0.0071 c 0.0388,0.0847 0.08114,0.1711 0.125236,0.24871 l 0.41275,0.72143 h 0.15875 v -1.15711 h -0.139347 v 0.60325 c 0,0.11995 0.01058,0.24695 0.0194,0.36689 h -0.0071 c -0.04057,-0.0847 -0.08114,-0.1711 -0.125236,-0.24871 l -0.41275,-0.72143 h -0.158751 z"
         style="stroke-width:0.176389"
         id="path2541" />
      <path
         d="m 25.692829,123.42101 h 0.296333 c 0.34925,0 0.53975,-0.21519 0.53975,-0.58384 0,-0.36689 -0.1905,-0.57327 -0.546805,-0.57327 h -0.289278 z m 0.148166,-0.12171 v -0.91369 h 0.130528 c 0.269875,0 0.403931,0.16051 0.403931,0.45156 0,0.2928 -0.134056,0.46213 -0.403931,0.46213 z"
         style="stroke-width:0.176389"
         id="path2543" />
      <path
         d="m 27.1498,123.42101 h 0.68439 v -0.12523 h -0.536223 v -0.41981 h 0.437445 v -0.12524 h -0.437445 v -0.36159 h 0.518584 V 122.2639 H 27.1498 Z"
         style="stroke-width:0.176389"
         id="path2545" />
    </g>
    <g
       aria-label="V/Oct"
       id="text937"
       style="font-weight:bold;font-stretch:condensed;font-size:2.82223px;line-height:1.25;font-family:'PT Sans Narrow';-inkscape-font-specification:'PT Sans Narrow, Bold Condensed';text-align:center;text-anchor:middle;fill:#fffff0;fill-opacity:1;stroke-width:0.264583"
       transform="translate(-14.2492,-0.47641)">
      <path
         d="m 24.770442,224.17586 0.03951,0.33867 h 0.01129 l 0.04516,-0.34149 0.287868,-1.15712 h 0.375356 l -0.598312,1.98968 h -0.270935 l -0.603957,-1.98968 h 0.420512 z"
         style="fill:#fffff0;fill-opacity:1;stroke-width:0.264583"
         id="path943" />
      <path
         d="m 26.283153,222.98206 0.256823,0.0988 -0.826913,2.30576 -0.259646,-0.0988 z"
         style="fill:#fffff0;fill-opacity:1;stroke-width:0.264583"
         id="path945" />
      <path
         d="m 26.571018,224.00371 q 0,-0.50236 0.172156,-0.76483 0.172156,-0.26247 0.524935,-0.26247 0.183445,0 0.316089,0.0734 0.132645,0.0706 0.217312,0.20602 0.08467,0.13265 0.124178,0.32456 0.04233,0.18909 0.04233,0.42334 0,0.50235 -0.177801,0.76482 -0.174978,0.26247 -0.522112,0.26247 -0.186268,0 -0.318912,-0.0706 -0.129823,-0.0734 -0.21449,-0.20602 -0.08467,-0.13547 -0.124178,-0.32456 -0.03951,-0.19191 -0.03951,-0.42615 z m 0.372534,0 q 0,0.14957 0.01693,0.2794 0.01693,0.127 0.05644,0.22013 0.03951,0.0931 0.09878,0.14676 0.06209,0.0536 0.152401,0.0536 0.163689,0 0.245534,-0.16651 0.08184,-0.16652 0.08184,-0.5334 0,-0.14394 -0.01693,-0.27094 -0.01693,-0.12982 -0.05645,-0.22296 -0.03669,-0.0959 -0.09878,-0.14957 -0.06209,-0.0565 -0.155222,-0.0565 -0.324557,0 -0.324557,0.69992 z"
         style="fill:#fffff0;fill-opacity:1;stroke-width:0.264583"
         id="path947" />
      <path
         d="m 29.003779,224.91529 q -0.07056,0.0564 -0.169334,0.0847 -0.09878,0.0282 -0.197556,0.0282 -0.143934,0 -0.242712,-0.0508 -0.09596,-0.0536 -0.158045,-0.14957 -0.06209,-0.0988 -0.09031,-0.23425 -0.0254,-0.13829 -0.0254,-0.30762 0,-0.36971 0.132645,-0.55598 0.132644,-0.18627 0.389467,-0.18627 0.127001,0 0.206023,0.0226 0.08185,0.0226 0.143934,0.0564 l -0.07902,0.2794 q -0.0508,-0.0254 -0.09878,-0.0367 -0.04516,-0.0141 -0.110067,-0.0141 -0.118533,0 -0.1778,0.10443 -0.05927,0.1016 -0.05927,0.3302 0,0.19191 0.05927,0.31327 0.06209,0.12135 0.194734,0.12135 0.07056,0 0.118533,-0.0169 0.0508,-0.0198 0.09313,-0.048 z"
         style="fill:#fffff0;fill-opacity:1;stroke-width:0.264583"
         id="path949" />
      <path
         d="m 29.04893,223.58037 h 0.155223 v -0.26529 l 0.335845,-0.10442 v 0.36971 h 0.273756 v 0.29916 h -0.273756 v 0.61524 q 0,0.12136 0.02258,0.17216 0.0254,0.0508 0.08749,0.0508 0.04233,0 0.0762,-0.008 0.03387,-0.008 0.07338,-0.0254 l 0.04233,0.26811 q -0.06209,0.0311 -0.143934,0.0508 -0.08184,0.0226 -0.172156,0.0226 -0.160867,0 -0.242712,-0.0931 -0.07902,-0.0931 -0.07902,-0.31327 v -0.73942 H 29.04893 Z"
         style="fill:#fffff0;fill-opacity:1;stroke-width:0.264583"
         id="path951" />
    </g>
    <g
       aria-label="V/Oct In"
       id="text941"
       style="font-weight:bold;font-stretch:condensed;font-size:2.82223px;line-height:1.25;font-family:'PT Sans Narrow';-inkscape-font-specification:'PT Sans Narrow, Bold Condensed';text-align:center;text-anchor:middle;stroke-width:0.264583"
       transform="translate(-16.145544,1.06309)">
      <path
         d="m 19.104628,238.63636 0.03951,0.33866 h 0.01129 l 0.04516,-0.34149 0.287868,-1.15711 h 0.375357 l -0.598313,1.98967 h -0.270934 l -0.603958,-1.98967 h 0.420513 z"
         style="stroke-width:0.264583"
         id="path955" />
      <path
         d="m 20.617338,237.44255 0.256823,0.0988 -0.826913,2.30576 -0.259645,-0.0988 z"
         style="stroke-width:0.264583"
         id="path957" />
      <path
         d="m 20.905203,238.4642 q 0,-0.50236 0.172156,-0.76482 0.172156,-0.26247 0.524935,-0.26247 0.183445,0 0.31609,0.0734 0.132644,0.0705 0.217311,0.20602 0.08467,0.13264 0.124178,0.32456 0.04233,0.18908 0.04233,0.42333 0,0.50236 -0.177801,0.76482 -0.174978,0.26247 -0.522112,0.26247 -0.186267,0 -0.318912,-0.0705 -0.129823,-0.0734 -0.21449,-0.20603 -0.08467,-0.13546 -0.124178,-0.32455 -0.03951,-0.19191 -0.03951,-0.42616 z m 0.372534,0 q 0,0.14958 0.01693,0.2794 0.01693,0.127 0.05644,0.22013 0.03951,0.0931 0.09878,0.14676 0.06209,0.0536 0.152401,0.0536 0.163689,0 0.245534,-0.16651 0.08185,-0.16651 0.08185,-0.5334 0,-0.14393 -0.01693,-0.27093 -0.01693,-0.12983 -0.05644,-0.22296 -0.03669,-0.096 -0.09878,-0.14958 -0.06209,-0.0564 -0.155223,-0.0564 -0.324557,0 -0.324557,0.69991 z"
         style="stroke-width:0.264583"
         id="path959" />
      <path
         d="m 23.337964,239.37578 q -0.07056,0.0564 -0.169334,0.0847 -0.09878,0.0282 -0.197556,0.0282 -0.143934,0 -0.242712,-0.0508 -0.09596,-0.0536 -0.158045,-0.14958 -0.06209,-0.0988 -0.09031,-0.23424 -0.0254,-0.13829 -0.0254,-0.30763 0,-0.36971 0.132645,-0.55598 0.132645,-0.18626 0.389468,-0.18626 0.127,0 0.206022,0.0226 0.08185,0.0226 0.143934,0.0565 l -0.07902,0.2794 q -0.0508,-0.0254 -0.09878,-0.0367 -0.04516,-0.0141 -0.110067,-0.0141 -0.118534,0 -0.177801,0.10442 -0.05927,0.1016 -0.05927,0.3302 0,0.19191 0.05927,0.31327 0.06209,0.12136 0.194734,0.12136 0.07056,0 0.118534,-0.0169 0.0508,-0.0197 0.09313,-0.048 z"
         style="stroke-width:0.264583"
         id="path961" />
      <path
         d="m 23.383115,238.04087 h 0.155223 v -0.26529 l 0.335845,-0.10443 v 0.36972 h 0.273757 v 0.29915 h -0.273757 v 0.61525 q 0,0.12135 0.02258,0.17215 0.0254,0.0508 0.08749,0.0508 0.04233,0 0.0762,-0.008 0.03387,-0.008 0.07338,-0.0254 l 0.04233,0.26811 q -0.06209,0.031 -0.143934,0.0508 -0.08185,0.0226 -0.172156,0.0226 -0.160867,0 -0.242712,-0.0931 -0.07902,-0.0931 -0.07902,-0.31326 v -0.73943 h -0.155223 z"
         style="stroke-width:0.264583"
         id="path963" />
      <path
         d="m 24.929693,237.47642 h 0.355601 v 1.97556 h -0.355601 z"
         style="stroke-width:0.264583"
         id="path965" />
      <path
         d="m 26.264605,239.45198 v -0.85796 q 0,-0.15522 -0.03669,-0.21731 -0.03669,-0.0621 -0.124178,-0.0621 -0.07338,0 -0.127,0.0452 -0.05362,0.0452 -0.0762,0.11289 v 0.97931 h -0.335845 v -1.41111 h 0.268112 l 0.03951,0.16368 h 0.0085 q 0.0508,-0.0818 0.138289,-0.13828 0.08749,-0.0593 0.228601,-0.0593 0.08467,0 0.149578,0.0254 0.06773,0.0254 0.112889,0.0847 0.04516,0.0564 0.06773,0.15522 0.02258,0.0959 0.02258,0.23989 v 0.9398 z"
         style="stroke-width:0.264583"
         id="path967" />
    </g>
    <g
       transform="translate(-55.319548,216.48616)"
       style="display:inline"
       id="g1770">
      <path
         style="display:inline;opacity:0.994;fill:#bbbbb0;fill-opacity:1;stroke:#000000;stroke-width:0.1;stroke-miterlimit:4;stroke-dasharray:none;stroke-opacity:1;stop-color:#000000"
         id="path960-1"
         sodipodi:type="arc"
         sodipodi:cx="62.999645"
         sodipodi:cy="-68.019188"
         sodipodi:rx="7.4356337"
         sodipodi:ry="7.4364619"
         sodipodi:start="0.44427356"
         sodipodi:end="1.3089969"
         sodipodi:arc-type="slice"
         transform="rotate(90)"
         d="m 69.713451,-64.822981 a 7.4356337,7.4364619 0 0 1 -4.789322,3.986864 l -1.924484,-7.183071 z" />
      <path
         transform="rotate(90)"
         sodipodi:arc-type="slice"
         sodipodi:end="2.1816616"
         sodipodi:start="1.2375955"
         sodipodi:ry="7.4364619"
         sodipodi:rx="7.4356337"
         sodipodi:cy="-68.019188"
         sodipodi:cx="62.999645"
         sodipodi:type="arc"
         id="path958-7"
         style="display:inline;opacity:0.994;fill:#bbbbb0;fill-opacity:1;stroke:#000000;stroke-width:0.1;stroke-miterlimit:4;stroke-dasharray:none;stroke-opacity:1;stop-color:#000000"
         d="m 65.431614,-60.991729 a 7.4356337,7.4364619 0 0 1 -6.696873,-0.935866 l 4.264904,-6.091593 z" />
      <path
         style="display:inline;opacity:0.994;fill:#bbbbb0;fill-opacity:1;stroke:#000000;stroke-width:0.1;stroke-miterlimit:4;stroke-dasharray:none;stroke-opacity:1;stop-color:#000000"
         id="path956-5"
         sodipodi:type="arc"
         sodipodi:cx="62.999645"
         sodipodi:cy="-68.019188"
         sodipodi:rx="7.4356337"
         sodipodi:ry="7.4364619"
         sodipodi:start="2.0307779"
         sodipodi:end="3.0543262"
         sodipodi:arc-type="slice"
         transform="rotate(90)"
         d="m 59.698733,-61.355667 a 7.4356337,7.4364619 0 0 1 -4.106427,-6.015391 l 7.407339,-0.64813 z" />
      <path
         transform="rotate(90)"
         sodipodi:arc-type="slice"
         sodipodi:end="3.9269908"
         sodipodi:start="2.8242743"
         sodipodi:ry="7.4364619"
         sodipodi:rx="7.4356337"
         sodipodi:cy="-68.019188"
         sodipodi:cx="62.999645"
         sodipodi:type="arc"
         id="path954-9"
         style="display:inline;opacity:0.994;fill:#bbbbb0;fill-opacity:1;stroke:#000000;stroke-width:0.1;stroke-miterlimit:4;stroke-dasharray:none;stroke-opacity:1;stop-color:#000000"
         d="m 55.935231,-65.698864 a 7.4356337,7.4364619 0 0 1 1.806627,-7.578696 l 5.257787,5.258372 z" />
      <path
         transform="rotate(90)"
         sodipodi:arc-type="slice"
         sodipodi:end="4.7996554"
         sodipodi:start="3.6175963"
         sodipodi:ry="7.4364619"
         sodipodi:rx="7.4356337"
         sodipodi:cy="-68.019188"
         sodipodi:cx="62.999645"
         sodipodi:type="arc"
         id="path962-6"
         style="display:inline;opacity:0.994;fill:#bbbbb0;fill-opacity:1;stroke:#000000;stroke-width:0.1;stroke-miterlimit:4;stroke-dasharray:none;stroke-opacity:1;stop-color:#000000"
         d="m 56.390607,-71.426803 a 7.4356337,7.4364619 0 0 1 7.257096,-4.000549 l -0.648058,7.408164 z" />
      <path
         style="display:inline;opacity:0.994;fill:#bbbbb0;fill-opacity:1;stroke:#000000;stroke-width:0.1;stroke-miterlimit:4;stroke-dasharray:none;stroke-opacity:1;stop-color:#000000"
         id="path964-2"
         sodipodi:type="arc"
         sodipodi:cx="62.999645"
         sodipodi:cy="-68.019188"
         sodipodi:rx="7.4356337"
         sodipodi:ry="7.4364619"
         sodipodi:start="4.4109357"
         sodipodi:end="5.7595865"
         sodipodi:arc-type="slice"
         transform="rotate(90)"
         d="m 60.791944,-75.12031 a 7.4356337,7.4364619 0 0 1 8.647149,3.382891 l -6.439448,3.718231 z" />
      <path
         transform="rotate(90)"
         sodipodi:arc-type="slice"
         sodipodi:end="5.8389117"
         sodipodi:start="5.2042577"
         sodipodi:ry="7.4364619"
         sodipodi:rx="7.4356337"
         sodipodi:cy="-68.019188"
         sodipodi:cx="62.999645"
         sodipodi:type="arc"
         id="path966-1"
         style="display:inline;opacity:0.994;fill:#bbbbb0;fill-opacity:1;stroke:#000000;stroke-width:0.1;stroke-miterlimit:4;stroke-dasharray:none;stroke-opacity:1;stop-color:#000000"
         d="m 66.511301,-74.574071 a 7.4356337,7.4364619 0 0 1 3.20215,3.358676 l -6.713806,3.196207 z" />
      <ellipse
         ry="6.1424799"
         rx="6.1431642"
         cy="63"
         cx="68.000008"
         id="circle968-7"
         style="opacity:0.994;fill:#bbbbb0;fill-opacity:1;stroke:#000000;stroke-width:0.1;stroke-miterlimit:4;stroke-dasharray:none;stroke-opacity:1;stop-color:#000000" />
    </g>
    <path
       d="m 215.0097,-18.617642 a 7.4486375,7.43648 0 0 1 2.21455,2.72143 l -6.72555,3.196215 z"
       style="display:inline;opacity:0.994;fill:#bbbbb0;fill-opacity:1;stroke:#000000;stroke-width:0.1;stroke-miterlimit:4;stroke-dasharray:none;stroke-opacity:1;stop-color:#000000"
       id="path979"
       sodipodi:type="arc"
       sodipodi:cx="210.4987"
       sodipodi:cy="-12.699997"
       sodipodi:rx="7.4486375"
       sodipodi:ry="7.43648"
       sodipodi:start="5.3629256"
       sodipodi:end="5.8389117"
       sodipodi:arc-type="slice"
       transform="rotate(90)" />
    <ellipse
       ry="6.1532226"
       rx="6.1431789"
       cy="210.5"
       cx="12.7"
       id="circle994"
       style="opacity:0.994;fill:#bbbbb0;fill-opacity:1;stroke:#000000;stroke-width:0.1;stroke-miterlimit:4;stroke-dasharray:none;stroke-opacity:1;stop-color:#000000" />
    <g
       aria-label="Notes"
       id="text946"
       style="font-size:2.82223px;line-height:1.25;font-family:'PTQ Sans Narrow';-inkscape-font-specification:'PTQ Sans Narrow, Normal';stroke-width:0.264583"
       transform="translate(-14.1754,1.031135)">
      <path
         d="m 30.853317,240.88772 0.561623,0.98496 h 0.273757 v -1.98967 h -0.335846 v 0.98495 l 0.04516,0.33585 h -0.01693 l -0.121356,-0.34149 -0.567269,-0.99343 H 30.4187 v 1.98968 h 0.335845 v -0.9765 l -0.04516,-0.34149 h 0.01411 z"
         style="stroke-width:0.264583"
         id="path964" />
      <path
         d="m 33.001031,241.15301 c 0,-0.44027 -0.143934,-0.74225 -0.558802,-0.74225 -0.400756,0 -0.555979,0.30763 -0.555979,0.74225 0,0.49671 0.183445,0.74225 0.555979,0.74225 0.403579,0 0.558802,-0.30198 0.558802,-0.74225 z m -0.767647,0 c 0,-0.16087 0.01693,-0.27376 0.05362,-0.34149 0.03669,-0.0677 0.08749,-0.1016 0.155222,-0.1016 0.0762,0 0.129823,0.0395 0.16369,0.11289 0.03104,0.0762 0.04798,0.18627 0.04798,0.3302 0,0.16369 -0.01976,0.27658 -0.05362,0.34431 -0.03387,0.0677 -0.08749,0.0988 -0.158045,0.0988 -0.183445,0 -0.208845,-0.22578 -0.208845,-0.44309 z"
         style="stroke-width:0.264583"
         id="path966" />
      <path
         d="m 33.559831,241.89243 c 0.118534,0 0.234246,-0.031 0.31609,-0.0734 l -0.04233,-0.26812 c -0.0508,0.0226 -0.08749,0.0339 -0.149578,0.0339 -0.104423,0 -0.110067,-0.096 -0.110067,-0.22296 v -0.61524 h 0.273756 v -0.29916 h -0.273756 v -0.36971 l -0.335846,0.10442 v 0.26529 h -0.155222 v 0.29916 H 33.2381 v 0.73942 c 0,0.26247 0.07902,0.4064 0.321734,0.4064 z"
         style="stroke-width:0.264583"
         id="path968" />
      <path
         d="m 34.584297,241.60739 c -0.21449,0 -0.285045,-0.14394 -0.29069,-0.36125 h 0.685802 c 0.01411,-0.0931 0.02822,-0.18344 0.02822,-0.28504 0,-0.33585 -0.149578,-0.55316 -0.474134,-0.55316 -0.180623,0 -0.318912,0.0621 -0.420513,0.18344 -0.1016,0.12136 -0.149578,0.30763 -0.149578,0.56163 0,0.42616 0.135467,0.74225 0.558802,0.74225 0.172156,0 0.352778,-0.0593 0.445912,-0.14112 l -0.104422,-0.23424 c -0.05927,0.048 -0.172156,0.0875 -0.279401,0.0875 z m 0.110067,-0.5842 h -0.389468 c 0.0085,-0.17216 0.05645,-0.32738 0.222956,-0.32738 0.143934,0 0.174978,0.15804 0.166512,0.32738 z"
         style="stroke-width:0.264583"
         id="path970" />
      <path
         d="m 35.546676,241.60739 c -0.118534,0 -0.225779,-0.0395 -0.299157,-0.0847 l -0.09313,0.27093 c 0.08749,0.0621 0.254,0.10161 0.406401,0.10161 0.29069,0 0.471312,-0.15241 0.471312,-0.43181 0,-0.29351 -0.2032,-0.38382 -0.386645,-0.49106 -0.06209,-0.0339 -0.135467,-0.0734 -0.135467,-0.15805 0,-0.0762 0.04515,-0.11571 0.138289,-0.11571 0.09596,0 0.208845,0.0367 0.279401,0.0649 l 0.07902,-0.25964 c -0.09313,-0.0536 -0.256823,-0.0931 -0.409223,-0.0931 -0.273757,0 -0.423335,0.14394 -0.423335,0.41205 0,0.29351 0.206023,0.37818 0.386646,0.48542 0.06209,0.0367 0.135467,0.0847 0.135467,0.17498 0,0.0875 -0.06491,0.12418 -0.149579,0.12418 z"
         style="stroke-width:0.264583"
         id="path972" />
    </g>
    <g
       aria-label="Round"
       id="text950"
       style="font-size:2.82223px;line-height:1.25;font-family:'PTQ Sans Narrow';-inkscape-font-specification:'PTQ Sans Narrow, Normal';stroke-width:0.264583"
       transform="translate(-14.493957,2.534045)">
      <path
         d="m 31.60086,236.42478 c 0,-0.39511 -0.251179,-0.5588 -0.640646,-0.5588 -0.149578,0 -0.349957,0.0198 -0.476957,0.048 v 1.95581 h 0.355601 v -0.81563 l 0.1524,0.0367 0.344312,0.77894 h 0.409224 l -0.364068,-0.75636 -0.112889,-0.0903 c 0.214489,-0.0762 0.333023,-0.29351 0.333023,-0.59832 z m -0.60678,-0.23142 c 0.16369,0 0.234246,0.12418 0.234246,0.28787 0,0.20602 -0.0762,0.3302 -0.268112,0.3302 h -0.121356 v -0.60396 c 0.03669,-0.0113 0.1016,-0.0141 0.155222,-0.0141 z"
         style="stroke-width:0.264583"
         id="path952" />
      <path
         d="m 32.848278,237.16421 c 0,-0.44027 -0.143933,-0.74225 -0.558801,-0.74225 -0.400757,0 -0.555979,0.30763 -0.555979,0.74225 0,0.49671 0.183445,0.74225 0.555979,0.74225 0.403579,0 0.558801,-0.30198 0.558801,-0.74225 z m -0.767646,0 c 0,-0.16087 0.01693,-0.27376 0.05362,-0.34149 0.03669,-0.0677 0.08749,-0.1016 0.155223,-0.1016 0.0762,0 0.129822,0.0395 0.163689,0.11289 0.03104,0.0762 0.04798,0.18626 0.04798,0.3302 0,0.16369 -0.01975,0.27658 -0.05362,0.34431 -0.03387,0.0677 -0.08749,0.0988 -0.158045,0.0988 -0.183445,0 -0.208845,-0.22578 -0.208845,-0.44309 z"
         style="stroke-width:0.264583"
         id="path954" />
      <path
         d="m 33.398612,237.90646 c 0.186268,0 0.304801,-0.10161 0.372535,-0.22861 h 0.0085 l 0.05927,0.19192 h 0.254001 c -0.03104,-0.11854 -0.03951,-0.27658 -0.03951,-0.42898 v -0.98214 h -0.335846 v 0.94263 c -0.02822,0.0959 -0.09595,0.19755 -0.208845,0.19755 -0.138289,0 -0.143933,-0.127 -0.143933,-0.29633 v -0.84385 H 33.0289 v 0.91723 c 0,0.31326 0.06491,0.53058 0.369712,0.53058 z"
         style="stroke-width:0.264583"
         id="path956" />
      <path
         d="m 34.981881,236.42478 c -0.186267,0 -0.299156,0.0875 -0.36689,0.19756 h -0.0085 l -0.03951,-0.16369 h -0.268112 v 1.41112 h 0.335846 v -0.97932 c 0.0254,-0.079 0.09596,-0.15804 0.2032,-0.15804 0.141112,0 0.160868,0.11289 0.160868,0.2794 v 0.85796 h 0.335845 v -0.93981 c 0,-0.29351 -0.06773,-0.50518 -0.352779,-0.50518 z"
         style="stroke-width:0.264583"
         id="path958" />
      <path
         d="m 36.043038,236.42761 c -0.397935,0 -0.527757,0.3302 -0.527757,0.75918 0,0.254 0.03951,0.43744 0.121356,0.55033 0.08184,0.11289 0.194734,0.16934 0.338667,0.16934 0.158045,0 0.270934,-0.0649 0.335846,-0.19756 h 0.01129 l 0.04515,0.16369 h 0.237068 c -0.0254,-0.17216 -0.0254,-0.31327 -0.0254,-0.49954 v -1.47884 h -0.335846 v 0.57009 c -0.06209,-0.0254 -0.112889,-0.0367 -0.200378,-0.0367 z m -0.180623,0.77047 c 0,-0.17216 0.01693,-0.29352 0.05645,-0.36125 0.03669,-0.0677 0.09313,-0.1016 0.169333,-0.1016 0.07338,0 0.115712,0.0141 0.155223,0.048 v 0.66604 c -0.02822,0.0903 -0.07902,0.14958 -0.189089,0.14958 -0.166512,0 -0.191912,-0.2032 -0.191912,-0.40075 z"
         style="stroke-width:0.264583"
         id="path960" />
    </g>
    <rect
       style="display:inline;opacity:0.994;fill:none;stroke:#555d50;stroke-width:0.250001;stroke-miterlimit:4;stroke-dasharray:none;stroke-opacity:1;stop-color:#000000"
       id="rect278"
       width="8.9499989"
       height="12.749999"
       x="14.575001"
       y="237.425"
       rx="0.99999994"
       ry="0.9999997" />
  </g>
  <g
     style="display:none"
     inkscape:label="components"
     id="layer2"
     inkscape:groupmode="layer">
    <circle
       inkscape:label="CV_Out"
       cy="77"
       cx="6.3499999"
       id="circle908"
       style="fill:#00ff00;fill-rule:evenodd;stroke-width:0.264582"
       r="4" />
    <circle
       r="4"
       style="fill:#0000ff;fill-rule:evenodd;stroke-width:0.264582"
       id="circle920"
       cx="12.7"
       cy="61"
       inkscape:label="CV_Out" />
    <circle
       r="4"
       style="fill:#0000ff;fill-rule:evenodd;stroke-width:0.264582"
       id="circle891"
       cx="19.049999"
       cy="93.125542"
       inkscape:label="CV_Out" />
    <circle
       inkscape:label="CV_Out"
       cy="93.125542"
       cx="6.3499999"
       id="circle915"
       style="fill:#0000ff;fill-rule:evenodd;stroke-width:0.264582"
       r="4" />
    <circle
       style="display:inline;opacity:0.994;fill:#000000;fill-opacity:1;stroke-width:0.2;stop-color:#000000"
       id="path1183"
       cx="12.7"
       cy="23.000002"
       r="5" />
    <circle
       style="display:inline;opacity:0.994;fill:#000000;fill-opacity:1;stroke-width:0.200001;stop-color:#000000"
       id="path1236"
       cx="12.7"
       cy="42"
       r="6" />
    <circle
       r="6"
       cy="111"
       cx="12.7"
       id="circle973"
       style="display:inline;opacity:0.994;fill:#000000;fill-opacity:1;stroke-width:0.200001;stop-color:#000000" />
    <g
       aria-label="NoteMT"
       id="text983"
       style="font-weight:bold;font-stretch:condensed;font-size:4.9389px;line-height:1.25;font-family:'PT Sans Narrow';-inkscape-font-specification:'PT Sans Narrow, Bold Condensed';text-align:center;text-anchor:middle;stroke-width:0.264583"
       transform="translate(-18.41602,1.9410936)">
      <path
         d="M 24.676611,6.101936 24.449422,5.4944513 h -0.02469 l 0.07902,0.5976069 V 7.8009176 H 23.91602 V 4.3189931 h 0.479074 l 0.992719,1.7384928 0.212372,0.5976069 h 0.02963 L 25.550796,6.0673637 V 4.3436876 h 0.587729 v 3.4819245 h -0.479073 z"
         style="stroke-width:0.264583"
         id="path986" />
      <path
         d="m 26.484243,6.5661926 q 0,-0.6568737 0.256823,-0.9779022 0.256823,-0.3210285 0.716141,-0.3210285 0.49389,0 0.735896,0.3259674 0.242006,0.3259674 0.242006,0.9729633 0,0.6618126 -0.256823,0.9828411 -0.256823,0.3160896 -0.721079,0.3160896 -0.972964,0 -0.972964,-1.2989307 z m 0.607485,0 q 0,0.3704175 0.08396,0.5729124 0.08396,0.2024949 0.281518,0.2024949 0.187678,0 0.276578,-0.1728615 0.09384,-0.1778004 0.09384,-0.6025458 0,-0.3802953 -0.08396,-0.5778513 -0.08396,-0.197556 -0.286456,-0.197556 -0.172862,0 -0.27164,0.1778004 -0.09384,0.1728615 -0.09384,0.5976069 z"
         style="stroke-width:0.264583"
         id="path994" />
      <path
         d="m 28.578335,5.3314676 h 0.27164 V 4.867211 l 0.587729,-0.1827393 v 0.6469959 h 0.479073 V 5.854991 h -0.479073 v 1.0766802 q 0,0.2123727 0.03951,0.3012729 0.04445,0.0889 0.153106,0.0889 0.07408,0 0.13335,-0.014817 0.05927,-0.014817 0.128412,-0.04445 l 0.07408,0.4691955 q -0.108655,0.054328 -0.251884,0.0889 -0.143228,0.039511 -0.301272,0.039511 -0.281518,0 -0.424746,-0.1629837 Q 28.849975,7.534217 28.849975,7.1489828 V 5.854991 h -0.27164 z"
         style="stroke-width:0.264583"
         id="path997" />
      <path
         d="m 31.877513,7.6181783 q -0.123473,0.1086558 -0.335845,0.1778004 -0.212373,0.069145 -0.444501,0.069145 -0.256823,0 -0.444501,-0.0889 -0.18274,-0.0889 -0.301273,-0.2568228 -0.118534,-0.1679226 -0.177801,-0.4049898 -0.05433,-0.2420061 -0.05433,-0.5482179 0,-0.6667515 0.261762,-0.9828411 0.266701,-0.3210285 0.735896,-0.3210285 0.158045,0 0.306212,0.049389 0.148167,0.04445 0.261762,0.1580448 0.118533,0.1086558 0.187678,0.296334 0.07408,0.1827393 0.07408,0.4642566 0,0.1086558 -0.01482,0.2321283 -0.0099,0.1234725 -0.03457,0.2667006 H 30.69711 q 0.0099,0.3062118 0.128411,0.4691955 0.118534,0.1629837 0.380295,0.1629837 0.158045,0 0.286457,-0.049389 0.13335,-0.049389 0.202494,-0.1037169 z M 31.107044,5.7660908 q -0.187678,0 -0.281517,0.1531059 -0.09384,0.148167 -0.108656,0.4198065 h 0.681568 q 0.01482,-0.2815173 -0.05927,-0.4247454 -0.07408,-0.148167 -0.232129,-0.148167 z"
         style="stroke-width:0.264583"
         id="path999" />
      <path
         d="m 34.544516,6.0179747 0.06914,-0.6618126 h -0.0247 l -0.182739,0.592668 -0.563034,1.2149694 H 33.635759 L 33.038152,5.9438912 32.855413,5.3462843 h -0.02963 l 0.09384,0.6667515 v 1.7878818 h -0.587729 v -3.45723 h 0.597607 l 0.721079,1.4964867 0.118534,0.4296843 h 0.01976 l 0.113594,-0.4395621 0.67663,-1.4866089 h 0.587729 v 3.45723 h -0.622302 z"
         style="stroke-width:0.264583"
         id="path1001" />
      <path
         d="M 37.690594,4.9166 H 36.870736 V 7.8009176 H 36.248435 V 4.9166 H 35.428577 V 4.3436876 h 2.262017 z"
         style="stroke-width:0.264583"
         id="path1003" />
    </g>
    <ellipse
       inkscape:label="CV_Out"
       cy="77.900024"
       cx="19.049999"
       id="circle908-7"
       style="display:inline;fill:#00ff00;fill-rule:evenodd;stroke-width:0.264582"
       rx="2.8999999"
       ry="2.9000001" />
  </g>
</svg>
