<?xml version="1.0" encoding="UTF-8"?>
<svg id="svg8" width="10.16mm" height="128.5mm" version="1.1" viewBox="0 0 10.16 128.5" xmlns="http://www.w3.org/2000/svg" xmlns:cc="http://creativecommons.org/ns#" xmlns:dc="http://purl.org/dc/elements/1.1/" xmlns:rdf="http://www.w3.org/1999/02/22-rdf-syntax-ns#">
 <metadata id="metadata5">
  <rdf:RDF>
   <cc:Work rdf:about="">
    <dc:format>image/svg+xml</dc:format>
    <dc:type rdf:resource="http://purl.org/dc/dcmitype/StillImage"/>
    <dc:title/>
   </cc:Work>
  </rdf:RDF>
 </metadata>
 <g id="layer1" transform="translate(0,-168.5)">
  <rect id="rect838" x="-5.5511e-17" y="168.5" width="10.16" height="128.5" fill="#242422"/>
  <text id="text64" x="2.0529213" y="233.73691" font-family="'PT Sans Narrow'" font-size="2.8222px" font-stretch="condensed" font-weight="bold" stroke-width=".26458" style="line-height:1.25" xml:space="preserve"><tspan id="tspan62" x="2.0529213" y="233.73691" stroke-width=".26458"/></text>
  <g id="text2569" transform="translate(0 -.83024)" fill="#fffff0" stroke-width=".26458" aria-label="GRANDE">
   <path id="path2571" d="m1.6964 292.53c0.15522 0 0.28222-0.0564 0.35807-0.13405v-0.48684h-0.381v0.12171h0.24518v0.30163c-0.045861 0.0423-0.12524 0.067-0.20814 0.067-0.24694 0-0.38276-0.18168-0.38276-0.47272 0-0.28751 0.14817-0.46567 0.381-0.46567 0.11642 0 0.1905 0.0441 0.24871 0.10407l0.081139-0.0917c-0.067028-0.0723-0.17286-0.14287-0.33338-0.14287-0.30692 0-0.53093 0.22754-0.53093 0.59972 0 0.37747 0.21696 0.59972 0.52211 0.59972z"/>
   <path id="path2573" d="m2.7 292.51h0.14817v-0.48859h0.20814l0.27869 0.48859h0.16757l-0.29457-0.50447c0.15699-0.0406 0.25929-0.1464 0.25929-0.32632 0-0.24165-0.16933-0.32632-0.40569-0.32632h-0.3616zm0.14817-0.60854v-0.42862h0.19226c0.17992 0 0.27869 0.0547 0.27869 0.20637 0 0.14817-0.098778 0.22225-0.27869 0.22225z"/>
   <path id="path2575" d="m4.2699 291.86c0.04057-0.12876 0.077611-0.25576 0.11289-0.38982h0.00706c0.037042 0.13406 0.074083 0.26106 0.11642 0.38982l0.054681 0.17463h-0.34573zm-0.35454 0.64558h0.14993l0.11112-0.35101h0.42157l0.10936 0.35101h0.15699l-0.38982-1.1571h-0.16933z"/>
   <path id="path2577" d="m5.3988 292.51h0.13935v-0.60854c0-0.11994-0.010583-0.24518-0.019403-0.3616h0.00706c0.038806 0.0847 0.081139 0.1711 0.12524 0.24871l0.41275 0.72143h0.15875v-1.1571h-0.13935v0.60325c0 0.11995 0.010583 0.24695 0.019403 0.36689h-0.00706c-0.040569-0.0847-0.081139-0.1711-0.12524-0.24871l-0.41275-0.72143h-0.15875z"/>
   <path id="path2579" d="m6.9087 292.51h0.29633c0.34925 0 0.53975-0.21519 0.53975-0.58384 0-0.36689-0.1905-0.57327-0.54681-0.57327h-0.28928zm0.14817-0.1217v-0.9137h0.13053c0.26988 0 0.40393 0.16051 0.40393 0.45156 0 0.2928-0.13406 0.46214-0.40393 0.46214z"/>
   <path id="path2581" d="m8.3657 292.51h0.68439v-0.12523h-0.53622v-0.41981h0.43744v-0.12523h-0.43744v-0.3616h0.51858v-0.12524h-0.66675z"/>
  </g>
  <text id="text925" x="7.705914" y="247.28606" font-family="'PT Sans Narrow'" font-size="2.8222px" font-stretch="condensed" font-weight="bold" stroke-width=".26458" text-align="center" text-anchor="middle" style="line-height:1.25" xml:space="preserve"><tspan id="tspan923" x="7.705914" y="247.28606" stroke-width=".26458"/></text>
  <rect id="rect45" x=".58" y="191.75" width="9" height="23" rx="1" ry="1" fill="#555d50"/>
  <g id="text847" transform="translate(-.063381 -69.556)" stroke-width=".26458" aria-label="CV In">
   <path id="path922" d="m4.308 250.04h0.3556v1.9756h-0.3556z"/>
   <path id="path924" d="m5.6429 252.02v-0.85796q0-0.15522-0.036689-0.21731-0.036689-0.0621-0.12418-0.0621-0.073378 0-0.127 0.0451-0.053622 0.0452-0.0762 0.11289v0.97932h-0.33585v-1.4111h0.26811l0.039511 0.16369h0.00847q0.0508-0.0818 0.13829-0.13829 0.087489-0.0593 0.2286-0.0593 0.084667 0 0.14958 0.0254 0.067733 0.0254 0.11289 0.0847 0.045156 0.0565 0.067734 0.15522 0.022578 0.096 0.022578 0.23989v0.93981z"/>
  </g>
  <g id="g933" transform="translate(-10.62 -60.856)" stroke-width=".26458" aria-label="Reset">
   <path id="path920" d="m14.124 277.39c0-0.39511-0.25118-0.5588-0.64065-0.5588-0.14958 0-0.34996 0.0198-0.47696 0.048v1.9558h0.3556v-0.81562l0.1524 0.0367 0.34431 0.77893h0.40922l-0.36407-0.75636-0.11289-0.0903c0.21449-0.0762 0.33302-0.29351 0.33302-0.59831zm-0.60678-0.23142c0.16369 0 0.23424 0.12417 0.23424 0.28786 0 0.20603-0.0762 0.3302-0.26811 0.3302h-0.12136v-0.60395c0.03669-0.0113 0.1016-0.0141 0.15522-0.0141z"/>
   <path id="path925" d="m14.878 278.59c-0.21449 0-0.28504-0.14393-0.29069-0.36124h0.6858c0.01411-0.0931 0.02822-0.18345 0.02822-0.28505 0-0.33584-0.14958-0.55316-0.47414-0.55316-0.18062 0-0.31891 0.0621-0.42051 0.18345-0.1016 0.12136-0.14958 0.30762-0.14958 0.56162 0 0.42616 0.13547 0.74225 0.5588 0.74225 0.17216 0 0.35278-0.0593 0.44591-0.14111l-0.10442-0.23425c-0.05927 0.048-0.17216 0.0875-0.2794 0.0875zm0.11007-0.5842h-0.38947c0.0085-0.17216 0.05645-0.32738 0.22296-0.32738 0.14393 0 0.17498 0.15805 0.16651 0.32738z"/>
   <path id="path927" d="m15.84 278.59c-0.11853 0-0.22578-0.0395-0.29916-0.0847l-0.09313 0.27093c0.08749 0.0621 0.254 0.1016 0.4064 0.1016 0.29069 0 0.47131-0.1524 0.47131-0.4318 0-0.29351-0.2032-0.38382-0.38665-0.49107-0.06209-0.0339-0.13547-0.0734-0.13547-0.15804 0-0.0762 0.04516-0.11572 0.13829-0.11572 0.09596 0 0.20884 0.0367 0.2794 0.0649l0.07902-0.25965c-0.09313-0.0536-0.25682-0.0931-0.40922-0.0931-0.27376 0-0.42333 0.14393-0.42333 0.41204 0 0.29351 0.20602 0.37818 0.38664 0.48543 0.06209 0.0367 0.13547 0.0847 0.13547 0.17497 0 0.0875-0.06491 0.12418-0.14958 0.12418z"/>
   <path id="path929" d="m17.073 278.59c-0.21449 0-0.28504-0.14393-0.29069-0.36124h0.6858c0.01411-0.0931 0.02822-0.18345 0.02822-0.28505 0-0.33584-0.14958-0.55316-0.47414-0.55316-0.18062 0-0.31891 0.0621-0.42051 0.18345-0.1016 0.12136-0.14958 0.30762-0.14958 0.56162 0 0.42616 0.13547 0.74225 0.5588 0.74225 0.17216 0 0.35278-0.0593 0.44591-0.14111l-0.10442-0.23425c-0.05927 0.048-0.17216 0.0875-0.2794 0.0875zm0.11007-0.5842h-0.38947c0.0085-0.17216 0.05644-0.32738 0.22296-0.32738 0.14393 0 0.17498 0.15805 0.16651 0.32738z"/>
   <path id="path931" d="m18.078 278.87c0.11853 0 0.23424-0.031 0.31609-0.0734l-0.04233-0.26811c-0.0508 0.0226-0.08749 0.0339-0.14958 0.0339-0.10442 0-0.11007-0.096-0.11007-0.22295v-0.61525h0.27376v-0.29915h-0.27376v-0.36972l-0.33585 0.10443v0.26529h-0.15522v0.29915h0.15522v0.73943c0 0.26246 0.07902 0.4064 0.32174 0.4064z"/>
  </g>
  <g id="g6961" transform="translate(-11.4 1.3407)" fill="#fffff0" stroke-width=".26458">
   <path id="path6843" d="m13.208 172.66c-0.28646 0-0.58773 0.0346-0.81492 0.084v3.4227h0.6223v-1.1903c0.0642 0.0198 0.17286 0.0198 0.25682 0.0198h0.06421c0.72108 0 1.1014-0.45438 1.1014-1.1952 0-0.80505-0.43956-1.1409-1.2298-1.1409zm0.57785 1.136c0 0.40499-0.15804 0.64699-0.54822 0.64699-0.03951 0-0.19756-0.0148-0.22225-0.0247v-1.1804c0.0642-0.0148 0.14817-0.0247 0.25188-0.0247 0.35066 0 0.51858 0.22225 0.51858 0.58279z" style="font-variant-ligatures:none"/>
   <path id="path6845" d="m15.589 175.73c-0.37536 0-0.49883-0.25189-0.50871-0.63218h1.2002c0.02469-0.16299 0.04939-0.32103 0.04939-0.49883 0-0.58773-0.26176-0.96803-0.82974-0.96803-0.31609 0-0.5581 0.10866-0.7359 0.32103-0.1778 0.21237-0.26176 0.53834-0.26176 0.98284 0 0.74578 0.23707 1.2989 0.9779 1.2989 0.30127 0 0.61736-0.10371 0.78035-0.24694l-0.18274-0.40993c-0.10372 0.084-0.30127 0.15311-0.48895 0.15311zm0.19262-1.0224h-0.68157c0.01482-0.30127 0.09878-0.57291 0.39017-0.57291 0.25188 0 0.30621 0.27658 0.2914 0.57291z" style="font-variant-ligatures:none"/>
   <path id="path6847" d="m17.446 174.15c0.30127 0 0.32597 0.21237 0.30127 0.54328-0.66675-0.0346-1.1705 0.16298-1.1705 0.79022 0 0.41487 0.22225 0.71614 0.62724 0.71614 0.2914 0 0.47413-0.13829 0.58279-0.33091h0.01976l0.09384 0.30128h0.47907c-0.14817-0.47414-0.04445-1.1211-0.04445-1.6891 0-0.54328-0.2025-0.83467-0.75071-0.83467-0.3556 0-0.66675 0.0741-0.87418 0.19756l0.14817 0.43956c0.14323-0.0741 0.37042-0.13335 0.58773-0.13335zm-0.26176 1.2347c0-0.28152 0.28152-0.34572 0.57291-0.31115v0.40993c-0.05927 0.11359-0.17286 0.21237-0.34078 0.21237-0.16792 0-0.23213-0.12841-0.23213-0.31115z" style="font-variant-ligatures:none"/>
   <path id="path6849" d="m19.471 175.14 0.43462 1.0224h0.66181l-0.50377-1.1557-0.23213-0.16793 0.21237-0.16792 0.45438-0.9779h-0.63712l-0.40993 0.98284-0.11853 0.0691v-2.0398h-0.58773v3.4572h0.58773v-1.0224z" style="font-variant-ligatures:none"/>
  </g>
  <g id="g10436" transform="translate(-.063381 -69.527)" fill="#fffff0" stroke-width=".26458" aria-label="CV In">
   <path id="path10432" d="m4.308 250.04h0.3556v1.9756h-0.3556z"/>
   <path id="path10434" d="m5.6429 252.02v-0.85796q0-0.15522-0.036689-0.21731-0.036689-0.0621-0.12418-0.0621-0.073378 0-0.127 0.0451-0.053622 0.0452-0.0762 0.11289v0.97932h-0.33585v-1.4111h0.26811l0.039511 0.16369h0.00847q0.0508-0.0818 0.13829-0.13829 0.087489-0.0593 0.2286-0.0593 0.084667 0 0.14958 0.0254 0.067733 0.0254 0.11289 0.0847 0.045156 0.0565 0.067734 0.15522 0.022578 0.096 0.022578 0.23989v0.93981z"/>
  </g>
  <g id="g10456" transform="translate(-10.62 -60.827)" fill="#fffff0" stroke-width=".26458" aria-label="Reset">
   <path id="path10446" d="m14.124 277.39c0-0.39511-0.25118-0.5588-0.64065-0.5588-0.14958 0-0.34996 0.0198-0.47696 0.048v1.9558h0.3556v-0.81562l0.1524 0.0367 0.34431 0.77893h0.40922l-0.36407-0.75636-0.11289-0.0903c0.21449-0.0762 0.33302-0.29351 0.33302-0.59831zm-0.60678-0.23142c0.16369 0 0.23424 0.12417 0.23424 0.28786 0 0.20603-0.0762 0.3302-0.26811 0.3302h-0.12136v-0.60395c0.03669-0.0113 0.1016-0.0141 0.15522-0.0141z"/>
   <path id="path10448" d="m14.878 278.59c-0.21449 0-0.28504-0.14393-0.29069-0.36124h0.6858c0.01411-0.0931 0.02822-0.18345 0.02822-0.28505 0-0.33584-0.14958-0.55316-0.47414-0.55316-0.18062 0-0.31891 0.0621-0.42051 0.18345-0.1016 0.12136-0.14958 0.30762-0.14958 0.56162 0 0.42616 0.13547 0.74225 0.5588 0.74225 0.17216 0 0.35278-0.0593 0.44591-0.14111l-0.10442-0.23425c-0.05927 0.048-0.17216 0.0875-0.2794 0.0875zm0.11007-0.5842h-0.38947c0.0085-0.17216 0.05645-0.32738 0.22296-0.32738 0.14393 0 0.17498 0.15805 0.16651 0.32738z"/>
   <path id="path10450" d="m15.84 278.59c-0.11853 0-0.22578-0.0395-0.29916-0.0847l-0.09313 0.27093c0.08749 0.0621 0.254 0.1016 0.4064 0.1016 0.29069 0 0.47131-0.1524 0.47131-0.4318 0-0.29351-0.2032-0.38382-0.38665-0.49107-0.06209-0.0339-0.13547-0.0734-0.13547-0.15804 0-0.0762 0.04516-0.11572 0.13829-0.11572 0.09596 0 0.20884 0.0367 0.2794 0.0649l0.07902-0.25965c-0.09313-0.0536-0.25682-0.0931-0.40922-0.0931-0.27376 0-0.42333 0.14393-0.42333 0.41204 0 0.29351 0.20602 0.37818 0.38664 0.48543 0.06209 0.0367 0.13547 0.0847 0.13547 0.17497 0 0.0875-0.06491 0.12418-0.14958 0.12418z"/>
   <path id="path10452" d="m17.073 278.59c-0.21449 0-0.28504-0.14393-0.29069-0.36124h0.6858c0.01411-0.0931 0.02822-0.18345 0.02822-0.28505 0-0.33584-0.14958-0.55316-0.47414-0.55316-0.18062 0-0.31891 0.0621-0.42051 0.18345-0.1016 0.12136-0.14958 0.30762-0.14958 0.56162 0 0.42616 0.13547 0.74225 0.5588 0.74225 0.17216 0 0.35278-0.0593 0.44591-0.14111l-0.10442-0.23425c-0.05927 0.048-0.17216 0.0875-0.2794 0.0875zm0.11007-0.5842h-0.38947c0.0085-0.17216 0.05644-0.32738 0.22296-0.32738 0.14393 0 0.17498 0.15805 0.16651 0.32738z"/>
   <path id="path10454" d="m18.078 278.87c0.11853 0 0.23424-0.031 0.31609-0.0734l-0.04233-0.26811c-0.0508 0.0226-0.08749 0.0339-0.14958 0.0339-0.10442 0-0.11007-0.096-0.11007-0.22295v-0.61525h0.27376v-0.29915h-0.27376v-0.36972l-0.33585 0.10443v0.26529h-0.15522v0.29915h0.15522v0.73943c0 0.26246 0.07902 0.4064 0.32174 0.4064z"/>
  </g>
  <g id="g10612" transform="translate(-.063381 -21.057)" stroke-width=".26458" aria-label="CV In">
   <path id="path10608" d="m4.308 250.04h0.3556v1.9756h-0.3556z"/>
   <path id="path10610" d="m5.6429 252.02v-0.85796q0-0.15522-0.036689-0.21731-0.036689-0.0621-0.12418-0.0621-0.073378 0-0.127 0.0451-0.053622 0.0452-0.0762 0.11289v0.97932h-0.33585v-1.4111h0.26811l0.039511 0.16369h0.00847q0.0508-0.0818 0.13829-0.13829 0.087489-0.0593 0.2286-0.0593 0.084667 0 0.14958 0.0254 0.067733 0.0254 0.11289 0.0847 0.045156 0.0565 0.067734 0.15522 0.022578 0.096 0.022578 0.23989v0.93981z"/>
  </g>
  <g id="g10632" transform="translate(-10.62 -12.356)" stroke-width=".26458" aria-label="Reset">
   <path id="path10622" d="m14.124 277.39c0-0.39511-0.25118-0.5588-0.64065-0.5588-0.14958 0-0.34996 0.0198-0.47696 0.048v1.9558h0.3556v-0.81562l0.1524 0.0367 0.34431 0.77893h0.40922l-0.36407-0.75636-0.11289-0.0903c0.21449-0.0762 0.33302-0.29351 0.33302-0.59831zm-0.60678-0.23142c0.16369 0 0.23424 0.12417 0.23424 0.28786 0 0.20603-0.0762 0.3302-0.26811 0.3302h-0.12136v-0.60395c0.03669-0.0113 0.1016-0.0141 0.15522-0.0141z"/>
   <path id="path10624" d="m14.878 278.59c-0.21449 0-0.28504-0.14393-0.29069-0.36124h0.6858c0.01411-0.0931 0.02822-0.18345 0.02822-0.28505 0-0.33584-0.14958-0.55316-0.47414-0.55316-0.18062 0-0.31891 0.0621-0.42051 0.18345-0.1016 0.12136-0.14958 0.30762-0.14958 0.56162 0 0.42616 0.13547 0.74225 0.5588 0.74225 0.17216 0 0.35278-0.0593 0.44591-0.14111l-0.10442-0.23425c-0.05927 0.048-0.17216 0.0875-0.2794 0.0875zm0.11007-0.5842h-0.38947c0.0085-0.17216 0.05645-0.32738 0.22296-0.32738 0.14393 0 0.17498 0.15805 0.16651 0.32738z"/>
   <path id="path10626" d="m15.84 278.59c-0.11853 0-0.22578-0.0395-0.29916-0.0847l-0.09313 0.27093c0.08749 0.0621 0.254 0.1016 0.4064 0.1016 0.29069 0 0.47131-0.1524 0.47131-0.4318 0-0.29351-0.2032-0.38382-0.38665-0.49107-0.06209-0.0339-0.13547-0.0734-0.13547-0.15804 0-0.0762 0.04516-0.11572 0.13829-0.11572 0.09596 0 0.20884 0.0367 0.2794 0.0649l0.07902-0.25965c-0.09313-0.0536-0.25682-0.0931-0.40922-0.0931-0.27376 0-0.42333 0.14393-0.42333 0.41204 0 0.29351 0.20602 0.37818 0.38664 0.48543 0.06209 0.0367 0.13547 0.0847 0.13547 0.17497 0 0.0875-0.06491 0.12418-0.14958 0.12418z"/>
   <path id="path10628" d="m17.073 278.59c-0.21449 0-0.28504-0.14393-0.29069-0.36124h0.6858c0.01411-0.0931 0.02822-0.18345 0.02822-0.28505 0-0.33584-0.14958-0.55316-0.47414-0.55316-0.18062 0-0.31891 0.0621-0.42051 0.18345-0.1016 0.12136-0.14958 0.30762-0.14958 0.56162 0 0.42616 0.13547 0.74225 0.5588 0.74225 0.17216 0 0.35278-0.0593 0.44591-0.14111l-0.10442-0.23425c-0.05927 0.048-0.17216 0.0875-0.2794 0.0875zm0.11007-0.5842h-0.38947c0.0085-0.17216 0.05644-0.32738 0.22296-0.32738 0.14393 0 0.17498 0.15805 0.16651 0.32738z"/>
   <path id="path10630" d="m18.078 278.87c0.11853 0 0.23424-0.031 0.31609-0.0734l-0.04233-0.26811c-0.0508 0.0226-0.08749 0.0339-0.14958 0.0339-0.10442 0-0.11007-0.096-0.11007-0.22295v-0.61525h0.27376v-0.29915h-0.27376v-0.36972l-0.33585 0.10443v0.26529h-0.15522v0.29915h0.15522v0.73943c0 0.26246 0.07902 0.4064 0.32174 0.4064z"/>
  </g>
  <rect id="rect10642" x=".58" y="240.25" width="9" height="23" rx="1" ry="1" fill="#555d50"/>
  <g id="g10648" transform="translate(-.063381 -21.027)" fill="#fffff0" stroke-width=".26458" aria-label="CV In">
   <path id="path10644" d="m4.308 250.04h0.3556v1.9756h-0.3556z"/>
   <path id="path10646" d="m5.6429 252.02v-0.85796q0-0.15522-0.036689-0.21731-0.036689-0.0621-0.12418-0.0621-0.073378 0-0.127 0.0451-0.053622 0.0452-0.0762 0.11289v0.97932h-0.33585v-1.4111h0.26811l0.039511 0.16369h0.00847q0.0508-0.0818 0.13829-0.13829 0.087489-0.0593 0.2286-0.0593 0.084667 0 0.14958 0.0254 0.067733 0.0254 0.11289 0.0847 0.045156 0.0565 0.067734 0.15522 0.022578 0.096 0.022578 0.23989v0.93981z"/>
  </g>
  <g id="g10668" transform="translate(-10.62 -12.327)" fill="#fffff0" stroke-width=".26458" aria-label="Reset">
   <path id="path10658" d="m14.124 277.39c0-0.39511-0.25118-0.5588-0.64065-0.5588-0.14958 0-0.34996 0.0198-0.47696 0.048v1.9558h0.3556v-0.81562l0.1524 0.0367 0.34431 0.77893h0.40922l-0.36407-0.75636-0.11289-0.0903c0.21449-0.0762 0.33302-0.29351 0.33302-0.59831zm-0.60678-0.23142c0.16369 0 0.23424 0.12417 0.23424 0.28786 0 0.20603-0.0762 0.3302-0.26811 0.3302h-0.12136v-0.60395c0.03669-0.0113 0.1016-0.0141 0.15522-0.0141z"/>
   <path id="path10660" d="m14.878 278.59c-0.21449 0-0.28504-0.14393-0.29069-0.36124h0.6858c0.01411-0.0931 0.02822-0.18345 0.02822-0.28505 0-0.33584-0.14958-0.55316-0.47414-0.55316-0.18062 0-0.31891 0.0621-0.42051 0.18345-0.1016 0.12136-0.14958 0.30762-0.14958 0.56162 0 0.42616 0.13547 0.74225 0.5588 0.74225 0.17216 0 0.35278-0.0593 0.44591-0.14111l-0.10442-0.23425c-0.05927 0.048-0.17216 0.0875-0.2794 0.0875zm0.11007-0.5842h-0.38947c0.0085-0.17216 0.05645-0.32738 0.22296-0.32738 0.14393 0 0.17498 0.15805 0.16651 0.32738z"/>
   <path id="path10662" d="m15.84 278.59c-0.11853 0-0.22578-0.0395-0.29916-0.0847l-0.09313 0.27093c0.08749 0.0621 0.254 0.1016 0.4064 0.1016 0.29069 0 0.47131-0.1524 0.47131-0.4318 0-0.29351-0.2032-0.38382-0.38665-0.49107-0.06209-0.0339-0.13547-0.0734-0.13547-0.15804 0-0.0762 0.04516-0.11572 0.13829-0.11572 0.09596 0 0.20884 0.0367 0.2794 0.0649l0.07902-0.25965c-0.09313-0.0536-0.25682-0.0931-0.40922-0.0931-0.27376 0-0.42333 0.14393-0.42333 0.41204 0 0.29351 0.20602 0.37818 0.38664 0.48543 0.06209 0.0367 0.13547 0.0847 0.13547 0.17497 0 0.0875-0.06491 0.12418-0.14958 0.12418z"/>
   <path id="path10664" d="m17.073 278.59c-0.21449 0-0.28504-0.14393-0.29069-0.36124h0.6858c0.01411-0.0931 0.02822-0.18345 0.02822-0.28505 0-0.33584-0.14958-0.55316-0.47414-0.55316-0.18062 0-0.31891 0.0621-0.42051 0.18345-0.1016 0.12136-0.14958 0.30762-0.14958 0.56162 0 0.42616 0.13547 0.74225 0.5588 0.74225 0.17216 0 0.35278-0.0593 0.44591-0.14111l-0.10442-0.23425c-0.05927 0.048-0.17216 0.0875-0.2794 0.0875zm0.11007-0.5842h-0.38947c0.0085-0.17216 0.05644-0.32738 0.22296-0.32738 0.14393 0 0.17498 0.15805 0.16651 0.32738z"/>
   <path id="path10666" d="m18.078 278.87c0.11853 0 0.23424-0.031 0.31609-0.0734l-0.04233-0.26811c-0.0508 0.0226-0.08749 0.0339-0.14958 0.0339-0.10442 0-0.11007-0.096-0.11007-0.22295v-0.61525h0.27376v-0.29915h-0.27376v-0.36972l-0.33585 0.10443v0.26529h-0.15522v0.29915h0.15522v0.73943c0 0.26246 0.07902 0.4064 0.32174 0.4064z"/>
  </g>
  <g id="text2343" transform="translate(-23.167 169.33)" fill="#fffff0" stroke-width=".26458" style="font-variant-ligatures:none" aria-label="Thresh">
   <path id="path5929" d="m26.237 109.01v-0.32738h-1.2926v0.32738h0.46849v1.6482h0.3556v-1.6482z"/>
   <path id="path5931" d="m27.063 109.21c-0.16651 0-0.26811 0.0706-0.33867 0.16369h-0.0085v-0.69145h-0.33584v1.9756h0.33584v-0.97084c0.02258-0.0847 0.09878-0.16934 0.20038-0.16934 0.14393 0 0.16369 0.12136 0.16369 0.28787v0.85231h0.33584v-0.92569c0-0.30198-0.05927-0.52211-0.35278-0.52211z"/>
   <path id="path5933" d="m27.955 109.42h-0.01129l-0.03951-0.16933h-0.25682v1.4111h0.33585v-0.94262c0.02258-0.0903 0.09313-0.16087 0.20602-0.16087 0.03669 0 0.07902 8e-3 0.12418 0.0254l0.03951-0.33302c-0.04516-0.0169-0.08749-0.0282-0.13264-0.0282-0.13829 0-0.22578 0.0931-0.26529 0.19755z"/>
   <path id="path5935" d="m29.045 110.41c-0.21449 0-0.28504-0.14393-0.29069-0.36124h0.6858c0.01411-0.0931 0.02822-0.18345 0.02822-0.28505 0-0.33584-0.14958-0.55315-0.47413-0.55315-0.18062 0-0.31891 0.0621-0.42051 0.18344-0.1016 0.12136-0.14958 0.30763-0.14958 0.56163 0 0.42615 0.13547 0.74224 0.5588 0.74224 0.17216 0 0.35278-0.0593 0.44591-0.14111l-0.10442-0.23424c-0.05927 0.048-0.17216 0.0875-0.2794 0.0875zm0.11007-0.5842h-0.38947c0.0085-0.17215 0.05645-0.32738 0.22296-0.32738 0.14393 0 0.17498 0.15805 0.16651 0.32738z"/>
   <path id="path5937" d="m30.007 110.41c-0.11853 0-0.22578-0.0395-0.29916-0.0847l-0.09313 0.27093c0.08749 0.0621 0.254 0.1016 0.4064 0.1016 0.29069 0 0.47131-0.1524 0.47131-0.4318 0-0.29351-0.2032-0.38382-0.38664-0.49107-0.06209-0.0339-0.13547-0.0734-0.13547-0.15804 0-0.0762 0.04516-0.11571 0.13829-0.11571 0.09596 0 0.20884 0.0367 0.2794 0.0649l0.07902-0.25965c-0.09313-0.0536-0.25682-0.0931-0.40922-0.0931-0.27376 0-0.42334 0.14393-0.42334 0.41204 0 0.29352 0.20602 0.37818 0.38665 0.48543 0.06209 0.0367 0.13547 0.0847 0.13547 0.17498 0 0.0875-0.06491 0.12417-0.14958 0.12417z"/>
   <path id="path5939" d="m31.353 109.21c-0.16651 0-0.26811 0.0706-0.33867 0.16369h-0.0085v-0.69145h-0.33584v1.9756h0.33584v-0.97084c0.02258-0.0847 0.09878-0.16934 0.20038-0.16934 0.14393 0 0.16369 0.12136 0.16369 0.28787v0.85231h0.33584v-0.92569c0-0.30198-0.05927-0.52211-0.35278-0.52211z"/>
  </g>
  <g id="g10444" transform="matrix(.99999 0 0 1 -10.15 176.83)" fill="#fffff0" stroke-width=".26458" aria-label="Min">
   <path id="path10438" d="m14.395 27.681v1.0188h0.3556v-1.9756h-0.33584l-0.38665 0.84949-0.06491 0.25118h-0.01129l-0.06773-0.24553-0.41205-0.85514h-0.34149v1.9756h0.33585v-1.0216l-0.05362-0.381h0.01693l0.10442 0.34149 0.34149 0.69709h0.11853l0.32173-0.69427 0.10442-0.33867h0.01411z"/>
   <path id="path10440" d="m15.027 27.289v1.4111h0.33584v-1.4111zm0.16651-0.20884c0.12418 0 0.21731-0.06491 0.21731-0.18909 0-0.12136-0.09313-0.19473-0.21731-0.19473-0.12418 0-0.20602 0.0762-0.20602 0.19473 0 0.12136 0.08184 0.18909 0.20602 0.18909z"/>
   <path id="path10442" d="m16.317 27.255c-0.18627 0-0.29916 0.08749-0.36689 0.19756h-0.0085l-0.03951-0.16369h-0.26811v1.4111h0.33584v-0.97931c0.0254-0.07902 0.09596-0.15804 0.2032-0.15804 0.14111 0 0.16087 0.11289 0.16087 0.2794v0.85796h0.33584v-0.9398c0-0.29351-0.06773-0.50518-0.35278-0.50518z"/>
  </g>
  <g id="g10464" transform="translate(-9.767 170.14)" fill="#fffff0" stroke-width=".26458" aria-label="Max">
   <path id="path10458" d="m13.712 23.347v1.0188h0.3556v-1.9756h-0.33584l-0.38664 0.84949-0.06491 0.25118h-0.01129l-0.06773-0.24553-0.41205-0.85514h-0.34149v1.9756h0.33585v-1.0216l-0.05362-0.381h0.01693l0.10442 0.34149 0.34149 0.69709h0.11853l0.32173-0.69427 0.10442-0.33867h0.01411z"/>
   <path id="path10460" d="m14.74 23.214c0.17216 0 0.18627 0.12136 0.17216 0.31044-0.381-0.01975-0.66887 0.09313-0.66887 0.45156 0 0.23707 0.127 0.40922 0.35842 0.40922 0.16651 0 0.27093-0.07902 0.33302-0.18909h0.01129l0.05362 0.17216h0.27376c-0.08467-0.27093-0.0254-0.64065-0.0254-0.9652 0-0.31044-0.11571-0.47696-0.42898-0.47696-0.2032 0-0.381 0.04233-0.49953 0.11289l0.08467 0.25118c0.08184-0.04233 0.21167-0.0762 0.33584-0.0762zm-0.14958 0.70556c0-0.16087 0.16087-0.19756 0.32738-0.1778v0.23424c-0.03387 0.06491-0.09878 0.12136-0.19473 0.12136-0.09596 0-0.13264-0.07338-0.13264-0.1778z"/>
   <path id="path10462" d="m15.736 23.643-0.36407 0.72249h0.36125l0.17216-0.36689 0.06491-0.20038 0.06209 0.20038 0.17216 0.36689h0.381l-0.36124-0.73378 0.33867-0.67734h-0.36407l-0.14676 0.33302-0.05927 0.18062-0.05362-0.18062-0.14393-0.33302h-0.39511z"/>
  </g>
  <g id="g10656" transform="matrix(.99999 0 0 1 -10.15 225.3)" fill="#fffff0" stroke-width=".26458" aria-label="Min">
   <path id="path10650" d="m14.395 27.681v1.0188h0.3556v-1.9756h-0.33584l-0.38665 0.84949-0.06491 0.25118h-0.01129l-0.06773-0.24553-0.41205-0.85514h-0.34149v1.9756h0.33585v-1.0216l-0.05362-0.381h0.01693l0.10442 0.34149 0.34149 0.69709h0.11853l0.32173-0.69427 0.10442-0.33867h0.01411z"/>
   <path id="path10652" d="m15.027 27.289v1.4111h0.33584v-1.4111zm0.16651-0.20884c0.12418 0 0.21731-0.06491 0.21731-0.18909 0-0.12136-0.09313-0.19473-0.21731-0.19473-0.12418 0-0.20602 0.0762-0.20602 0.19473 0 0.12136 0.08184 0.18909 0.20602 0.18909z"/>
   <path id="path10654" d="m16.317 27.255c-0.18627 0-0.29916 0.08749-0.36689 0.19756h-0.0085l-0.03951-0.16369h-0.26811v1.4111h0.33584v-0.97931c0.0254-0.07902 0.09596-0.15804 0.2032-0.15804 0.14111 0 0.16087 0.11289 0.16087 0.2794v0.85796h0.33584v-0.9398c0-0.29351-0.06773-0.50518-0.35278-0.50518z"/>
  </g>
  <g id="g10676" transform="translate(-9.767 218.61)" fill="#fffff0" stroke-width=".26458" aria-label="Max">
   <path id="path10670" d="m13.712 23.347v1.0188h0.3556v-1.9756h-0.33584l-0.38664 0.84949-0.06491 0.25118h-0.01129l-0.06773-0.24553-0.41205-0.85514h-0.34149v1.9756h0.33585v-1.0216l-0.05362-0.381h0.01693l0.10442 0.34149 0.34149 0.69709h0.11853l0.32173-0.69427 0.10442-0.33867h0.01411z"/>
   <path id="path10672" d="m14.74 23.214c0.17216 0 0.18627 0.12136 0.17216 0.31044-0.381-0.01975-0.66887 0.09313-0.66887 0.45156 0 0.23707 0.127 0.40922 0.35842 0.40922 0.16651 0 0.27093-0.07902 0.33302-0.18909h0.01129l0.05362 0.17216h0.27376c-0.08467-0.27093-0.0254-0.64065-0.0254-0.9652 0-0.31044-0.11571-0.47696-0.42898-0.47696-0.2032 0-0.381 0.04233-0.49953 0.11289l0.08467 0.25118c0.08184-0.04233 0.21167-0.0762 0.33584-0.0762zm-0.14958 0.70556c0-0.16087 0.16087-0.19756 0.32738-0.1778v0.23424c-0.03387 0.06491-0.09878 0.12136-0.19473 0.12136-0.09596 0-0.13264-0.07338-0.13264-0.1778z"/>
   <path id="path10674" d="m15.736 23.643-0.36407 0.72249h0.36125l0.17216-0.36689 0.06491-0.20038 0.06209 0.20038 0.17216 0.36689h0.381l-0.36124-0.73378 0.33867-0.67734h-0.36407l-0.14676 0.33302-0.05927 0.18062-0.05362-0.18062-0.14393-0.33302h-0.39511z"/>
  </g>
 </g>
 <g id="layer2" display="none">
  <circle id="circle918" cx="5.08" cy="41.5" r="4" fill="#00f" fill-rule="evenodd" stroke-width=".26458"/>
  <circle id="circle920" cx="5.08" cy="30.5" r="4" fill="#00f" fill-rule="evenodd" stroke-width=".26458"/>
  <circle id="circle922" cx="5.08" cy="18.471" r="4" fill="#0f0" fill-rule="evenodd" stroke-width=".26458"/>
  <circle id="path885" cx="5.08" cy="53" r="3" fill="#555d50" stroke-width=".265"/>
  <circle id="path7147" cx="8" cy="25.25" r="1" display="inline" fill="#f00"/>
  <circle id="circle7491" cx="8" cy="36.25" r="1" display="inline" fill="#f00"/>
  <circle id="circle911" cx="5.08" cy="115.5" r="3" fill-rule="evenodd" stroke-width=".26458"/>
  <circle id="circle10466" cx="5.08" cy="41.529" r="4" fill="#00f" fill-rule="evenodd" stroke-width=".26458"/>
  <circle id="circle10468" cx="5.08" cy="30.529" r="4" fill="#00f" fill-rule="evenodd" stroke-width=".26458"/>
  <circle id="circle10470" cx="5.08" cy="18.5" r="4" fill="#0f0" fill-rule="evenodd" stroke-width=".26458"/>
  <circle id="circle10472" cx="5.08" cy="53.029" r="3" fill="#555d50" stroke-width=".265"/>
  <circle id="circle10678" cx="5.08" cy="90" r="4" fill="#00f" fill-rule="evenodd" stroke-width=".26458"/>
  <circle id="circle10680" cx="5.08" cy="79" r="4" fill="#00f" fill-rule="evenodd" stroke-width=".26458"/>
  <circle id="circle10682" cx="5.08" cy="66.971" r="4" fill="#0f0" fill-rule="evenodd" stroke-width=".26458"/>
  <circle id="circle10684" cx="5.08" cy="101.5" r="3" fill="#555d50" stroke-width=".265"/>
  <circle id="circle10686" cx="8" cy="73.75" r="1" display="inline" fill="#f00"/>
  <circle id="circle10688" cx="8" cy="84.75" r="1" display="inline" fill="#f00"/>
  <circle id="circle10690" cx="5.08" cy="90" r="4" fill="#00f" fill-rule="evenodd" stroke-width=".26458"/>
  <circle id="circle10692" cx="5.08" cy="79" r="4" fill="#00f" fill-rule="evenodd" stroke-width=".26458"/>
  <circle id="circle10694" cx="5.08" cy="66.971" r="4" fill="#0f0" fill-rule="evenodd" stroke-width=".26458"/>
  <circle id="circle10696" cx="5.08" cy="101.5" r="3" fill="#555d50" stroke-width=".265"/>
 </g>
</svg>
