<?xml version="1.0" encoding="UTF-8"?>
<svg id="svg8" width="10.16mm" height="128.5mm" version="1.1" viewBox="0 0 10.16 128.5" xmlns="http://www.w3.org/2000/svg" xmlns:cc="http://creativecommons.org/ns#" xmlns:dc="http://purl.org/dc/elements/1.1/" xmlns:rdf="http://www.w3.org/1999/02/22-rdf-syntax-ns#">
 <metadata id="metadata5">
  <rdf:RDF>
   <cc:Work rdf:about="">
    <dc:format>image/svg+xml</dc:format>
    <dc:type rdf:resource="http://purl.org/dc/dcmitype/StillImage"/>
   </cc:Work>
  </rdf:RDF>
 </metadata>
 <g id="layer1" transform="translate(0,-168.5)">
  <rect id="rect838" x="-5.5511e-17" y="168.5" width="10.16" height="128.5" fill="#242422"/>
  <text id="text64" x="2.0529213" y="233.73691" font-family="'PT Sans Narrow'" font-size="2.8222px" font-stretch="condensed" font-weight="bold" stroke-width=".26458" style="line-height:1.25" xml:space="preserve"><tspan id="tspan62" x="2.0529213" y="233.73691" stroke-width=".26458"/></text>
  <g id="text2569" transform="translate(0 -.83024)" fill="#fffff0" stroke-width=".26458" aria-label="GRANDE">
   <path id="path2571" d="m1.6964 292.53c0.15522 0 0.28222-0.0564 0.35807-0.13405v-0.48684h-0.381v0.12171h0.24518v0.30163c-0.045861 0.0423-0.12524 0.067-0.20814 0.067-0.24694 0-0.38276-0.18168-0.38276-0.47272 0-0.28751 0.14817-0.46567 0.381-0.46567 0.11642 0 0.1905 0.0441 0.24871 0.10407l0.081139-0.0917c-0.067028-0.0723-0.17286-0.14287-0.33338-0.14287-0.30692 0-0.53093 0.22754-0.53093 0.59972 0 0.37747 0.21696 0.59972 0.52211 0.59972z"/>
   <path id="path2573" d="m2.7 292.51h0.14817v-0.48859h0.20814l0.27869 0.48859h0.16757l-0.29457-0.50447c0.15699-0.0406 0.25929-0.1464 0.25929-0.32632 0-0.24165-0.16933-0.32632-0.40569-0.32632h-0.3616zm0.14817-0.60854v-0.42862h0.19226c0.17992 0 0.27869 0.0547 0.27869 0.20637 0 0.14817-0.098778 0.22225-0.27869 0.22225z"/>
   <path id="path2575" d="m4.2699 291.86c0.04057-0.12876 0.077611-0.25576 0.11289-0.38982h0.00706c0.037042 0.13406 0.074083 0.26106 0.11642 0.38982l0.054681 0.17463h-0.34573zm-0.35454 0.64558h0.14993l0.11112-0.35101h0.42157l0.10936 0.35101h0.15699l-0.38982-1.1571h-0.16933z"/>
   <path id="path2577" d="m5.3988 292.51h0.13935v-0.60854c0-0.11994-0.010583-0.24518-0.019403-0.3616h0.00706c0.038806 0.0847 0.081139 0.1711 0.12524 0.24871l0.41275 0.72143h0.15875v-1.1571h-0.13935v0.60325c0 0.11995 0.010583 0.24695 0.019403 0.36689h-0.00706c-0.040569-0.0847-0.081139-0.1711-0.12524-0.24871l-0.41275-0.72143h-0.15875z"/>
   <path id="path2579" d="m6.9087 292.51h0.29633c0.34925 0 0.53975-0.21519 0.53975-0.58384 0-0.36689-0.1905-0.57327-0.54681-0.57327h-0.28928zm0.14817-0.1217v-0.9137h0.13053c0.26988 0 0.40393 0.16051 0.40393 0.45156 0 0.2928-0.13406 0.46214-0.40393 0.46214z"/>
   <path id="path2581" d="m8.3657 292.51h0.68439v-0.12523h-0.53622v-0.41981h0.43744v-0.12523h-0.43744v-0.3616h0.51858v-0.12524h-0.66675z"/>
  </g>
  <text id="text925" x="7.705914" y="247.28606" font-family="'PT Sans Narrow'" font-size="2.8222px" font-stretch="condensed" font-weight="bold" stroke-width=".26458" text-align="center" text-anchor="middle" style="line-height:1.25" xml:space="preserve"><tspan id="tspan923" x="7.705914" y="247.28606" stroke-width=".26458"/></text>
  <g id="g3435" transform="translate(.375 -55.5)" fill="#fffff0" stroke-width=".26458">
   <g id="text977" transform="translate(-2.6766 -12.395)" aria-label="1">
    <path id="path991" d="m7.9035 249.9v0.29915h0.95956v-0.29915h-0.31609v-1.7103h-0.19756l-0.54469 0.53058 0.15522 0.18909 0.18627-0.14394 0.11571-0.16651-0.036689 0.19191v1.1091z" fill="#fffff0" stroke-width=".26458"/>
   </g>
   <g id="text981" transform="translate(-2.9231 -19.045)" aria-label="2">
    <path id="path994" d="m8.0808 258.33 0.12982 0.24553c0.056445-0.0508 0.16369-0.11006 0.26811-0.11006 0.15804 0 0.23425 0.10724 0.2286 0.26528 0.00282 0.0649-0.00564 0.13265-0.0254 0.20603-0.045156 0.16369-0.11571 0.31609-0.19191 0.45438-0.11853 0.20602-0.25965 0.41204-0.40076 0.58702v0.19473h0.9906v-0.29915h-0.43745l-0.16933 0.0423v-0.0141l0.12418-0.11571c0.10724-0.14393 0.21731-0.3302 0.29916-0.51365 0.0762-0.16651 0.1524-0.37535 0.1524-0.60113 0-0.0847-0.014111-0.15805-0.036689-0.22296-0.067734-0.17215-0.20884-0.29069-0.44027-0.29069-0.22296 0-0.37253 0.0706-0.49107 0.17216z" fill="#fffff0" stroke-width=".26458"/>
   </g>
   <g id="text985" transform="translate(-3.2557 -25.672)" aria-label="3">
    <path id="path997" d="m8.5037 269.76-0.090311 0.28223c0.084667 0.0536 0.26247 0.0875 0.40358 0.0875 0.081845 0 0.15804-0.0113 0.23142-0.0395 0.2286-0.0818 0.36407-0.29633 0.36407-0.61242 0-0.0903-0.011289-0.17216-0.033867-0.23989-0.053622-0.16651-0.16933-0.29916-0.36689-0.31609l-0.10442 0.0169v-0.0141l0.10442-0.0762 0.32738-0.5334v-0.20038h-0.90311v0.29916h0.38665l0.18627-0.0254-0.13547 0.127-0.2794 0.47413v0.19191h0.16651c0.20884 0 0.31609 0.10725 0.31609 0.31892 0 0.18909-0.095956 0.3302-0.28222 0.3302-0.12136 0-0.21167-0.0282-0.29069-0.0706z" fill="#fffff0" stroke-width=".26458"/>
   </g>
   <g id="text989" transform="translate(-2.9747 -32.234)" aria-label="4">
    <path id="path1000" d="m9.2642 279.46v-0.28786h-0.24836v-1.1515h-0.29351l-0.72249 1.2305v0.20884h0.69709v0.55034h0.31891v-0.55034zm-0.56727-0.72531v0.43745h-0.25682l-0.14393 0.0226 0.11289-0.10725 0.22296-0.37818 0.084667-0.2286h0.011289z" fill="#fffff0" stroke-width=".26458"/>
   </g>
   <g id="text3047" transform="translate(.5773 4.2038)" style="font-variant-ligatures:none" aria-label="16">
    <path id="path27730" d="m3.9596 283.19v0.29915h0.95956v-0.29915h-0.31609v-1.7103h-0.19756l-0.54469 0.53057 0.15522 0.18909 0.18627-0.14393 0.11571-0.16651-0.036689 0.19191v1.1091z"/>
    <path id="path27732" d="m5.5259 282.42c0.064911-0.32738 0.26811-0.59267 0.5842-0.67451l-0.084667-0.27376c-0.11289 0.0254-0.21731 0.0706-0.31891 0.13829-0.32456 0.21731-0.52211 0.62089-0.52211 1.1684 0 0.12983 0.014111 0.24272 0.042333 0.33867 0.070556 0.23707 0.2286 0.40922 0.52776 0.40922 0.079022 0 0.14958-0.0141 0.21731-0.0452 0.2032-0.0903 0.32738-0.30762 0.32738-0.60678 0-0.1016-0.014111-0.18909-0.036689-0.26529-0.059267-0.19191-0.19191-0.34149-0.43462-0.34149-0.14958 0-0.24271 0.0677-0.30198 0.1524zm0.22013 0.80716c-0.042333 0-0.079022-8e-3 -0.10724-0.0311-0.087489-0.0621-0.12982-0.18909-0.12982-0.34149v-0.0621c0-0.0226 0-0.0423 0.00282-0.0649 0.031045-0.0818 0.11289-0.16086 0.2286-0.16086 0.18062 0 0.23425 0.12982 0.23425 0.32737 0 0.18063-0.070556 0.33303-0.2286 0.33303z"/>
   </g>
   <g id="text12891" transform="translate(26.804 -3.541)" style="font-variant-ligatures:none" aria-label="5">
    <path id="path27670" d="m-21.145 253.36-0.09313 0.0113v-0.40358h0.5334v-0.32738h-0.82127v1.0301l0.18344-0.0113c0.23424 0 0.36125 0.1016 0.36125 0.33584 0 0.20603-0.10724 0.35278-0.31045 0.35278-0.11007 0-0.20038-0.0169-0.26811-0.0536l-0.08749 0.28505c0.08467 0.0452 0.23989 0.0762 0.37254 0.0762 0.09031 0 0.17216-0.0141 0.25118-0.0423 0.23424-0.0847 0.37818-0.3048 0.37818-0.63218 0-0.3556-0.17216-0.60678-0.49954-0.62089z" fill="#fffff0"/>
   </g>
   <g id="text14457" transform="translate(27.957 -6.0356)" style="font-variant-ligatures:none" aria-label="7">
    <path id="path27673" d="m-22.733 263.78h0.32738l0.64065-1.8683v-0.10725h-1.0696v0.32174h0.59549l0.14111-0.0282-0.1016 0.13829z" fill="#fffff0"/>
   </g>
   <g id="text15649" transform="translate(28.019 -6.2293)" style="font-variant-ligatures:none" aria-label="8">
    <path id="path27676" d="m-22.111 266.26c0.13829-0.11853 0.23989-0.25117 0.23989-0.49671 0-0.29633-0.18909-0.47696-0.47978-0.47696-0.31609 0-0.50236 0.20885-0.50236 0.52212 0 0.23989 0.09878 0.37818 0.23707 0.48542-0.15522 0.11571-0.2794 0.26811-0.2794 0.5334 0 0.0818 0.01129 0.15522 0.03669 0.21731 0.07056 0.18063 0.23989 0.29634 0.49107 0.29634 0.0762 0 0.14676-0.0113 0.21449-0.0367 0.19191-0.0706 0.32456-0.24271 0.32456-0.508 0-0.27376-0.11007-0.41487-0.28222-0.53623zm-0.25118 0.78176c-0.14958 0-0.22578-0.127-0.22578-0.2794 0-0.15804 0.06773-0.26247 0.17498-0.34431 0.11571 0.0903 0.25964 0.17498 0.25964 0.37818 0 0.1524-0.06773 0.24553-0.20884 0.24553zm0.0085-1.4563c0.11571 0 0.1778 0.11571 0.1778 0.24271 0 0.14958-0.05645 0.23425-0.12982 0.32174-0.11289-0.0677-0.22578-0.1524-0.22578-0.33585 0-0.11853 0.05362-0.2286 0.1778-0.2286z" fill="#fffff0"/>
   </g>
   <g id="text11633" transform="translate(27.322 -5.664)" style="font-variant-ligatures:none" aria-label="6">
    <path id="path27667" d="m-21.88 259.02c0.06491-0.32738 0.26811-0.59267 0.5842-0.67452l-0.08467-0.27375c-0.11289 0.0254-0.21731 0.0706-0.31891 0.13829-0.32456 0.21731-0.52211 0.62089-0.52211 1.1684 0 0.12982 0.01411 0.24271 0.04233 0.33867 0.07056 0.23707 0.2286 0.40922 0.52776 0.40922 0.07902 0 0.14958-0.0141 0.21731-0.0451 0.2032-0.0903 0.32738-0.30763 0.32738-0.60678 0-0.1016-0.01411-0.18909-0.03669-0.26529-0.05927-0.19191-0.19191-0.34149-0.43462-0.34149-0.14958 0-0.24271 0.0677-0.30198 0.1524zm0.22013 0.80716c-0.04233 0-0.07902-8e-3 -0.10724-0.031-0.08749-0.0621-0.12982-0.18909-0.12982-0.34149v-0.0621c0-0.0226 0-0.0423 0.0028-0.0649 0.03104-0.0818 0.11289-0.16087 0.2286-0.16087 0.18062 0 0.23424 0.12983 0.23424 0.32738 0 0.18062-0.07056 0.33303-0.2286 0.33303z" fill="#fffff0"/>
   </g>
   <g id="text19129" transform="translate(21.617 7.5821)" style="font-variant-ligatures:none" aria-label="9">
    <path id="path27679" d="m-15.754 255.94c-0.05645 0.33302-0.24836 0.57009-0.57574 0.635l0.07902 0.28222c0.25964-0.0282 0.4572-0.16368 0.59549-0.34713 0.16933-0.22578 0.25964-0.55033 0.25964-0.96238 0-0.4318-0.1778-0.74507-0.57574-0.74507-0.37253 0-0.55316 0.2794-0.55316 0.65758 0 0.10725 0.01411 0.19756 0.04233 0.27376 0.07055 0.18062 0.21167 0.33302 0.45156 0.33302 0.14393 0 0.20884-0.0367 0.27658-0.127zm-0.22013-0.8382c0.04516 0 0.08184 0.0113 0.11571 0.0339 0.09878 0.0734 0.13829 0.21732 0.13829 0.38947 0 0.0452-0.0028 0.0931-0.0085 0.12982-0.04233 0.0706-0.11571 0.11289-0.22578 0.11289-0.16933 0-0.24553-0.14111-0.24553-0.32737 0-0.17781 0.05927-0.33867 0.22578-0.33867z" fill="#fffff0"/>
   </g>
   <g id="text20013" transform="translate(21.142 6.9414)" style="font-variant-ligatures:none" aria-label="10">
    <path id="path27682" d="m-16.614 260.49v0.29916h0.95956v-0.29916h-0.31609v-1.7103h-0.19756l-0.54469 0.53058 0.15522 0.18909 0.18627-0.14393 0.11571-0.16652-0.03669 0.19192v1.1091z"/>
    <path id="path27684" d="m-15.412 259.8c0 0.18344 0.01129 0.33866 0.03387 0.46849 0.05645 0.31609 0.18344 0.56162 0.54187 0.56162 0.20884 0 0.33867-0.0903 0.42616-0.23425 0.11289-0.19191 0.1524-0.46566 0.1524-0.79586 0-0.18345-0.01411-0.34149-0.03669-0.47132-0.05645-0.31326-0.18909-0.55315-0.54187-0.55315-0.21167 0-0.34149 0.0931-0.42616 0.23706-0.11571 0.19192-0.14958 0.46285-0.14958 0.78741zm0.33584 0c0-0.21732 0.0056-0.40923 0.05645-0.55881 0.02822-0.0931 0.0762-0.16651 0.18344-0.16651 0.08749 0 0.14958 0.0593 0.18627 0.17498 0.03669 0.11853 0.05644 0.30198 0.05644 0.55034 0 0.22577-0.0085 0.41486-0.05644 0.56444-0.03104 0.0931-0.07902 0.16651-0.18344 0.16651-0.08749 0-0.14958-0.0564-0.18627-0.17498-0.03951-0.11853-0.05645-0.30197-0.05645-0.55597z"/>
   </g>
   <g id="text20567" transform="translate(21.482 7.5555)" style="font-variant-ligatures:none" aria-label="11">
    <path id="path27687" d="m-16.929 263.22v0.29916h0.95956v-0.29916h-0.31609v-1.7103h-0.19756l-0.54469 0.53058 0.15522 0.18909 0.18627-0.14393 0.11571-0.16651-0.03669 0.19191v1.1091z"/>
    <path id="path27689" d="m-15.58 263.22v0.29916h0.95956v-0.29916h-0.31609v-1.7103h-0.19756l-0.54469 0.53058 0.15522 0.18909 0.18627-0.14393 0.11571-0.16651-0.03669 0.19191v1.1091z"/>
   </g>
   <g id="text21539" transform="translate(21.904 7.8439)" style="font-variant-ligatures:none" aria-label="12">
    <path id="path27692" d="m-17.332 266.26v0.29916h0.95956v-0.29916h-0.31609v-1.7103h-0.19756l-0.54469 0.53058 0.15522 0.18909 0.18627-0.14394 0.11571-0.16651-0.03669 0.19191v1.1091z"/>
    <path id="path27694" d="m-16.062 264.72 0.12982 0.24553c0.05644-0.0508 0.16369-0.11006 0.26811-0.11006 0.15804 0 0.23424 0.10724 0.2286 0.26529 0.0028 0.0649-0.0056 0.13264-0.0254 0.20602-0.04515 0.16369-0.11571 0.31609-0.19191 0.45438-0.11853 0.20602-0.25965 0.41204-0.40076 0.58702v0.19474h0.9906v-0.29916h-0.43745l-0.16933 0.0423v-0.0141l0.12418-0.11571c0.10724-0.14393 0.21731-0.3302 0.29916-0.51365 0.0762-0.16651 0.1524-0.37535 0.1524-0.60113 0-0.0847-0.01411-0.15804-0.03669-0.22296-0.06773-0.17215-0.20884-0.29069-0.44027-0.29069-0.22296 0-0.37253 0.0706-0.49107 0.17216z"/>
   </g>
   <g id="text22489" transform="translate(21.606 9.0448)" style="font-variant-ligatures:none" aria-label="13">
    <path id="path27697" d="m-17.043 268.36v0.29915h0.95956v-0.29915h-0.31609v-1.7103h-0.19756l-0.54469 0.53058 0.15522 0.18909 0.18627-0.14394 0.11571-0.16651-0.03669 0.19191v1.1091z"/>
    <path id="path27699" d="m-15.665 268.33-0.09031 0.28223c0.08467 0.0536 0.26247 0.0875 0.40358 0.0875 0.08185 0 0.15804-0.0113 0.23142-0.0395 0.2286-0.0818 0.36407-0.29633 0.36407-0.61242 0-0.0903-0.01129-0.17216-0.03387-0.23989-0.05362-0.16651-0.16933-0.29916-0.36689-0.31609l-0.10442 0.0169v-0.0141l0.10442-0.0762 0.32738-0.5334v-0.20038h-0.90311v0.29916h0.38665l0.18627-0.0254-0.13547 0.127-0.2794 0.47413v0.19192h0.16651c0.20884 0 0.31609 0.10724 0.31609 0.31891 0 0.18909-0.09596 0.3302-0.28222 0.3302-0.12136 0-0.21167-0.0282-0.29069-0.0706z"/>
   </g>
   <g id="text24011" transform="translate(21.208 8.977)" style="font-variant-ligatures:none" aria-label="14">
    <path id="path27702" d="m-16.71 271.78v0.29916h0.95956v-0.29916h-0.31609v-1.7103h-0.19756l-0.54469 0.53058 0.15522 0.18909 0.18627-0.14393 0.11571-0.16652-0.03669 0.19192v1.1091z"/>
    <path id="path27704" d="m-14.294 271.53v-0.28786h-0.24836v-1.1515h-0.29351l-0.72249 1.2305v0.20884h0.69709v0.55034h0.31891v-0.55034zm-0.56727-0.72531v0.43745h-0.25682l-0.14393 0.0226 0.11289-0.10724 0.22296-0.37818 0.08467-0.2286h0.01129z"/>
   </g>
   <g id="text25921" transform="translate(21.628 8.7821)" style="font-variant-ligatures:none" aria-label="15">
    <path id="path27707" d="m-17.054 275.28v0.29916h0.95956v-0.29916h-0.31609v-1.7103h-0.19756l-0.54469 0.53058 0.15522 0.18909 0.18627-0.14394 0.11571-0.16651-0.03669 0.19191v1.1091z"/>
    <path id="path27709" d="m-15.288 274.32-0.09313 0.0113v-0.40358h0.5334v-0.32737h-0.82127v1.0301l0.18344-0.0113c0.23425 0 0.36125 0.1016 0.36125 0.33585 0 0.20602-0.10724 0.35277-0.31044 0.35277-0.11007 0-0.20038-0.0169-0.26811-0.0536l-0.08749 0.28505c0.08467 0.0452 0.23989 0.0762 0.37253 0.0762 0.09031 0 0.17216-0.0141 0.25118-0.0423 0.23425-0.0847 0.37818-0.3048 0.37818-0.63218 0-0.3556-0.17216-0.60677-0.49953-0.62089z"/>
   </g>
  </g>
  <rect id="rect913" x=".58" y="247.5" width="9" height="40.9" rx="1" ry="1" fill="#555d50" stroke-width=".26458"/>
  <g id="text977-1" transform="translate(-6.5739 .30899)" fill="#fffff0" stroke-width=".26458" aria-label="1">
   <path id="path991-2" d="m7.9035 249.9v0.29915h0.95956v-0.29915h-0.31609v-1.7103h-0.19756l-0.54469 0.53058 0.15522 0.18909 0.18627-0.14394 0.11571-0.16651-0.036689 0.19191v1.1091z" fill="#fffff0" stroke-width=".26458"/>
  </g>
  <g id="text981-9" transform="translate(-6.8204 .33159)" fill="#fffff0" stroke-width=".26458" aria-label="2">
   <path id="path994-3" d="m8.0808 258.33 0.12982 0.24553c0.056445-0.0508 0.16369-0.11006 0.26811-0.11006 0.15804 0 0.23425 0.10724 0.2286 0.26528 0.00282 0.0649-0.00564 0.13265-0.0254 0.20603-0.045156 0.16369-0.11571 0.31609-0.19191 0.45438-0.11853 0.20602-0.25965 0.41204-0.40076 0.58702v0.19473h0.9906v-0.29915h-0.43745l-0.16933 0.0423v-0.0141l0.12418-0.11571c0.10724-0.14393 0.21731-0.3302 0.29916-0.51365 0.0762-0.16651 0.1524-0.37535 0.1524-0.60113 0-0.0847-0.014111-0.15805-0.036689-0.22296-0.067734-0.17215-0.20884-0.29069-0.44027-0.29069-0.22296 0-0.37253 0.0706-0.49107 0.17216z" fill="#fffff0" stroke-width=".26458"/>
  </g>
  <g id="text985-9" transform="translate(-7.153 .37762)" fill="#fffff0" stroke-width=".26458" aria-label="3">
   <path id="path997-0" d="m8.5037 269.76-0.090311 0.28223c0.084667 0.0536 0.26247 0.0875 0.40358 0.0875 0.081845 0 0.15804-0.0113 0.23142-0.0395 0.2286-0.0818 0.36407-0.29633 0.36407-0.61242 0-0.0903-0.011289-0.17216-0.033867-0.23989-0.053622-0.16651-0.16933-0.29916-0.36689-0.31609l-0.10442 0.0169v-0.0141l0.10442-0.0762 0.32738-0.5334v-0.20038h-0.90311v0.29916h0.38665l0.18627-0.0254-0.13547 0.127-0.2794 0.47413v0.19191h0.16651c0.20884 0 0.31609 0.10725 0.31609 0.31892 0 0.18909-0.095956 0.3302-0.28222 0.3302-0.12136 0-0.21167-0.0282-0.29069-0.0706z" fill="#fffff0" stroke-width=".26458"/>
  </g>
  <g id="text989-8" transform="translate(-6.872 .48837)" fill="#fffff0" stroke-width=".26458" aria-label="4">
   <path id="path1000-8" d="m9.2642 279.46v-0.28786h-0.24836v-1.1515h-0.29351l-0.72249 1.2305v0.20884h0.69709v0.55034h0.31891v-0.55034zm-0.56727-0.72531v0.43745h-0.25682l-0.14393 0.0226 0.11289-0.10725 0.22296-0.37818 0.084667-0.2286h0.011289z" fill="#fffff0" stroke-width=".26458"/>
  </g>
  <g id="text7079" transform="translate(-.44899 13.564)" fill="#fffff0" stroke-width=".26458" style="font-variant-ligatures:none" aria-label="PSplt">
   <path id="path8595" d="m1.7853 160.46c-0.28646 0-0.58773 0.0346-0.81492 0.084v3.4227h0.6223v-1.1903c0.064206 0.0198 0.17286 0.0198 0.25682 0.0198h0.064206c0.72108 0 1.1014-0.45438 1.1014-1.1952 0-0.80504-0.43956-1.1409-1.2298-1.1409zm0.57785 1.136c0 0.40499-0.15804 0.64699-0.54822 0.64699-0.039511 0-0.19756-0.0148-0.22225-0.0247v-1.1804c0.064206-0.0148 0.14817-0.0247 0.25188-0.0247 0.35066 0 0.51858 0.22225 0.51858 0.58279z"/>
   <path id="path8597" d="m3.4003 163.28-0.20249 0.5581c0.19756 0.12347 0.53834 0.19261 0.889 0.19261 0.67169 0 1.0717-0.34572 1.0717-1.0273 0-0.17286-0.034572-0.32103-0.093839-0.44944-0.12347-0.24694-0.32103-0.43462-0.54328-0.57785-0.19756-0.12347-0.40005-0.25188-0.53834-0.40993-0.064206-0.0691-0.093839-0.1531-0.093839-0.24694 0-0.21731 0.16298-0.31115 0.40005-0.31115 0.22719 0 0.47907 0.0741 0.60748 0.15804l0.19262-0.54822c-0.19756-0.11359-0.51365-0.18273-0.82974-0.18273-0.61736 0-0.99272 0.30621-0.99272 0.92851 0 0.18274 0.029633 0.33584 0.093839 0.45932 0.11853 0.24694 0.31609 0.42968 0.53834 0.56797 0.19756 0.12841 0.40005 0.25188 0.54328 0.41487 0.059267 0.0741 0.093839 0.16298 0.093839 0.2667 0 0.25682-0.16792 0.38523-0.49389 0.38523-0.24201 0-0.50377-0.0889-0.64206-0.1778z"/>
   <path id="path8599" d="m6.4328 164.03c0.68651 0 0.92357-0.61242 0.92357-1.3681 0-0.43956-0.064206-0.75565-0.19262-0.94333-0.12841-0.18768-0.31609-0.28646-0.56303-0.28646-0.31609 0-0.4692 0.13335-0.60255 0.34079h-0.014817l-0.059267-0.28152h-0.43956v3.4572h0.58773v-1.0026c0.098778 0.0642 0.19756 0.084 0.36054 0.084zm0.31609-1.3829c0 0.31609-0.034572 0.53834-0.10372 0.66675-0.069145 0.12842-0.17286 0.19262-0.30127 0.19262-0.13335 0-0.20743-0.0296-0.27164-0.0988v-1.1606c0.059267-0.19262 0.16792-0.29139 0.33585-0.29139 0.29633 0 0.34078 0.33584 0.34078 0.69144z"/>
   <path id="path8601" d="m8.196 164.02c0.16298 0 0.40005-0.0445 0.49389-0.10866l-0.054328-0.47413c-0.069145 0.0296-0.12347 0.0444-0.19756 0.0444-0.13829 0-0.14817-0.14817-0.14817-0.32103v-2.6571h-0.58773v2.9732c0 0.37535 0.13829 0.54328 0.49389 0.54328z"/>
   <path id="path8603" d="m9.5344 164.02c0.20743 0 0.40993-0.0543 0.55316-0.12841l-0.07408-0.4692c-0.0889 0.0395-0.15311 0.0593-0.26176 0.0593-0.18274 0-0.19262-0.16793-0.19262-0.39018v-1.0767h0.47907v-0.52352h-0.47908v-0.647l-0.58773 0.18274v0.46426h-0.27164v0.52352h0.27164v1.294c0 0.45931 0.13829 0.7112 0.56303 0.7112z"/>
  </g>
  <g id="text2189" transform="translate(-9.1644 55.669)" fill="#fffff0" stroke-width=".26458" style="font-variant-ligatures:none" aria-label="Split">
   <path id="path3789" d="m12.074 181.96-0.11571 0.31891c0.11289 0.0706 0.30762 0.11007 0.508 0.11007 0.38382 0 0.61242-0.19756 0.61242-0.58703 0-0.0988-0.01975-0.18344-0.05362-0.25682-0.07056-0.14111-0.18344-0.24835-0.31044-0.3302-0.11289-0.0706-0.2286-0.14393-0.30762-0.23424-0.03669-0.0395-0.05362-0.0875-0.05362-0.14112 0-0.12417 0.09313-0.1778 0.2286-0.1778 0.12982 0 0.27376 0.0423 0.34713 0.0903l0.11007-0.31326c-0.11289-0.0649-0.29351-0.10443-0.47414-0.10443-0.35278 0-0.56727 0.17498-0.56727 0.53058 0 0.10443 0.01693 0.19192 0.05362 0.26247 0.06773 0.14111 0.18062 0.24554 0.30762 0.32456 0.11289 0.0734 0.2286 0.14393 0.31044 0.23706 0.03387 0.0423 0.05362 0.0931 0.05362 0.15241 0 0.14675-0.09596 0.22013-0.28222 0.22013-0.13829 0-0.28787-0.0508-0.36689-0.1016z"/>
   <path id="path3791" d="m13.807 182.39c0.39229 0 0.52776-0.34996 0.52776-0.78176 0-0.25118-0.03669-0.4318-0.11007-0.53905-0.07338-0.10724-0.18062-0.16368-0.32173-0.16368-0.18062 0-0.26811 0.0762-0.34431 0.19473h-0.0085l-0.03387-0.16087h-0.25114v1.9756h0.33584v-0.57291c0.05645 0.0367 0.11289 0.048 0.20602 0.048zm0.18062-0.79023c0 0.18063-0.01976 0.30763-0.05927 0.381-0.03951 0.0734-0.09878 0.11007-0.17216 0.11007-0.0762 0-0.11853-0.0169-0.15522-0.0564v-0.66323c0.03387-0.11006 0.09596-0.16651 0.19191-0.16651 0.16933 0 0.19473 0.19191 0.19473 0.39511z"/>
   <path id="path3793" d="m14.814 182.38c0.09313 0 0.2286-0.0254 0.28222-0.0621l-0.03105-0.27093c-0.03951 0.0169-0.07056 0.0254-0.11289 0.0254-0.07902 0-0.08467-0.0847-0.08467-0.18344v-1.5184h-0.33584v1.699c0 0.21449 0.07902 0.31044 0.28222 0.31044z"/>
   <path id="path3795" d="m15.241 180.93v1.4111h0.33584v-1.4111zm0.16651-0.20884c0.12418 0 0.21731-0.0649 0.21731-0.18909 0-0.12136-0.09313-0.19474-0.21731-0.19474-0.12418 0-0.20602 0.0762-0.20602 0.19474 0 0.12135 0.08184 0.18909 0.20602 0.18909z"/>
   <path id="path3797" d="m16.214 182.38c0.11853 0 0.23424-0.031 0.31609-0.0734l-0.04233-0.26812c-0.0508 0.0226-0.08749 0.0339-0.14958 0.0339-0.10442 0-0.11007-0.096-0.11007-0.22296v-0.61524h0.27376v-0.29916h-0.27376v-0.36971l-0.33584 0.10442v0.26529h-0.15523v0.29916h0.15522v0.73942c0 0.26247 0.07902 0.4064 0.32173 0.4064z"/>
  </g>
 </g>
 <g id="layer2" display="none" fill-rule="evenodd" stroke-width=".26458">
  <circle id="circle910-0" cx="5.08" cy="74.25" r="4" display="inline" fill="#0f0"/>
  <circle id="circle888-8" cx="5.08" cy="114.75" r="4" display="inline" fill="#00f"/>
  <circle id="circle29246" cx="5.08" cy="105" r="4" display="inline" fill="#00f"/>
  <circle id="circle29248" cx="5.08" cy="95" r="4" display="inline" fill="#00f"/>
  <circle id="circle29250" cx="5.08" cy="85" r="4" display="inline" fill="#00f"/>
 </g>
</svg>
