<?xml version="1.0" encoding="UTF-8"?>
<svg id="svg8" width="10.16mm" height="128.5mm" version="1.1" viewBox="0 0 10.16 128.5" xmlns="http://www.w3.org/2000/svg" xmlns:cc="http://creativecommons.org/ns#" xmlns:dc="http://purl.org/dc/elements/1.1/" xmlns:rdf="http://www.w3.org/1999/02/22-rdf-syntax-ns#">
 <metadata id="metadata5">
  <rdf:RDF>
   <cc:Work rdf:about="">
    <dc:format>image/svg+xml</dc:format>
    <dc:type rdf:resource="http://purl.org/dc/dcmitype/StillImage"/>
    <dc:title/>
   </cc:Work>
  </rdf:RDF>
 </metadata>
 <g id="layer1" transform="translate(0,-168.5)">
  <rect id="rect838" x="-5.5511e-17" y="168.5" width="10.16" height="128.5" fill="#242422"/>
  <rect id="rect45" x=".58" y="276.5" width="9" height="12" rx="1" ry="1" fill="#555d50"/>
  <text id="text64" x="2.0529213" y="233.73691" font-family="'PT Sans Narrow'" font-size="2.8222px" font-stretch="condensed" font-weight="bold" stroke-width=".26458" style="line-height:1.25" xml:space="preserve"><tspan id="tspan62" x="2.0529213" y="233.73691" stroke-width=".26458"/></text>
  <g id="text908" transform="translate(0 -2.3062)" fill="#fffff0" stroke-width=".26458" aria-label="GRANDE">
   <path id="path911" d="m1.6642 294.01c0.15522 0 0.28222-0.0564 0.35807-0.13405v-0.48684h-0.381v0.12171h0.24518v0.30163c-0.045861 0.0423-0.12524 0.067-0.20814 0.067-0.24694 0-0.38276-0.18168-0.38276-0.47273 0-0.28751 0.14817-0.46566 0.381-0.46566 0.11642 0 0.1905 0.0441 0.24871 0.10407l0.081139-0.0917c-0.067028-0.0723-0.17286-0.14287-0.33338-0.14287-0.30692 0-0.53093 0.22754-0.53093 0.59972 0 0.37747 0.21696 0.59972 0.52211 0.59972z"/>
   <path id="path913" d="m2.6679 293.98h0.14817v-0.4886h0.20814l0.27869 0.4886h0.16757l-0.29457-0.50447c0.15699-0.0406 0.25929-0.14641 0.25929-0.32632 0-0.24166-0.16933-0.32632-0.40569-0.32632h-0.3616zm0.14817-0.60854v-0.42863h0.19226c0.17992 0 0.27869 0.0547 0.27869 0.20638 0 0.14816-0.098778 0.22225-0.27869 0.22225z"/>
   <path id="path915" d="m4.2377 293.34c0.04057-0.12876 0.077611-0.25576 0.11289-0.38982h0.00706c0.037042 0.13406 0.074083 0.26106 0.11642 0.38982l0.05468 0.17463h-0.34573zm-0.35454 0.64559h0.14993l0.11113-0.35102h0.42157l0.10936 0.35102h0.15699l-0.38982-1.1571h-0.16933z"/>
   <path id="path918" d="m5.3666 293.98h0.13935v-0.60854c0-0.11995-0.010583-0.24519-0.019403-0.3616h0.00706c0.038806 0.0847 0.081139 0.1711 0.12524 0.24871l0.41275 0.72143h0.15875v-1.1571h-0.13935v0.60325c0 0.11994 0.010583 0.24694 0.019403 0.36689h-0.00706c-0.040569-0.0847-0.081139-0.1711-0.12524-0.24871l-0.41275-0.72143h-0.15875z"/>
   <path id="path920" d="m6.8765 293.98h0.29633c0.34925 0 0.53975-0.2152 0.53975-0.58385 0-0.36689-0.1905-0.57326-0.54681-0.57326h-0.28928zm0.14817-0.12171v-0.9137h0.13053c0.26988 0 0.40393 0.16052 0.40393 0.45156 0 0.29281-0.13406 0.46214-0.40393 0.46214z"/>
   <path id="path922" d="m8.3335 293.98h0.68439v-0.12524h-0.53622v-0.4198h0.43744v-0.12524h-0.43744v-0.3616h0.51858v-0.12523h-0.66675z"/>
  </g>
  <g id="text13960" transform="translate(-6.7507 168.53)" fill="#fffff0" stroke-width=".26458" style="font-variant-ligatures:none" aria-label="1">
   <path id="path161396" d="m8.6203 15.677v0.29916h0.95956v-0.29916h-0.31609v-1.7103h-0.19756l-0.54469 0.53058 0.15522 0.18909 0.18627-0.14393 0.11571-0.16651-0.036689 0.19191v1.1091z" fill="#fffff0"/>
  </g>
  <g id="text17572" transform="translate(-13.443 168.18)" fill="#fffff0" stroke-width=".26458" style="font-variant-ligatures:none" aria-label="2">
   <path id="path161399" d="m15.244 20.381 0.12982 0.24553c0.05645-0.0508 0.16369-0.11007 0.26811-0.11007 0.15804 0 0.23424 0.10724 0.2286 0.26529 0.0028 0.06491-0.0056 0.13264-0.0254 0.20602-0.04516 0.16369-0.11571 0.31609-0.19191 0.45438-0.11853 0.20602-0.25964 0.41205-0.40076 0.58702v0.19473h0.9906v-0.29916h-0.43745l-0.16933 0.04233v-0.01411l0.12418-0.11571c0.10724-0.14393 0.21731-0.3302 0.29916-0.51364 0.0762-0.16651 0.1524-0.37536 0.1524-0.60114 0-0.08467-0.01411-0.15804-0.03669-0.22296-0.06773-0.17216-0.20885-0.29069-0.44027-0.29069-0.22296 0-0.37254 0.07055-0.49107 0.17216z" fill="#fffff0"/>
  </g>
  <g id="text19686" transform="translate(-6.7275 167.75)" fill="#fffff0" stroke-width=".26458" style="font-variant-ligatures:none" aria-label="3">
   <path id="path161402" d="m8.6183 28.185-0.090311 0.28222c0.084667 0.05362 0.26247 0.08749 0.40358 0.08749 0.081845 0 0.15804-0.01129 0.23142-0.03951 0.2286-0.08185 0.36407-0.29633 0.36407-0.61242 0-0.09031-0.011289-0.17216-0.033867-0.23989-0.053622-0.16651-0.16933-0.29916-0.36689-0.31609l-0.10442 0.01693v-0.01411l0.10442-0.0762 0.32738-0.5334v-0.20038h-0.90311v0.29916h0.38665l0.18627-0.0254-0.13547 0.127-0.2794 0.47413v0.19191h0.16651c0.20885 0 0.31609 0.10724 0.31609 0.31891 0 0.18909-0.095956 0.3302-0.28222 0.3302-0.12136 0-0.21167-0.02822-0.29069-0.07056z" fill="#fffff0"/>
  </g>
  <g id="text52396" transform="translate(-14.423 165.42)" fill="#fffff0" stroke-width=".26458" style="font-variant-ligatures:none" aria-label="10">
   <path id="path161414" d="m15.644 71.868v0.29916h0.95956v-0.29916h-0.31609v-1.7103h-0.19756l-0.54469 0.53058 0.15522 0.18909 0.18627-0.14393 0.11571-0.16651-0.03669 0.19191v1.1091z"/>
   <path id="path161416" d="m16.846 71.176c0 0.18344 0.01129 0.33867 0.03387 0.46849 0.05645 0.31609 0.18344 0.56162 0.54187 0.56162 0.20884 0 0.33867-0.09031 0.42616-0.23424 0.11289-0.19191 0.1524-0.46567 0.1524-0.79587 0-0.18344-0.01411-0.34149-0.03669-0.47131-0.05645-0.31327-0.18909-0.55316-0.54187-0.55316-0.21167 0-0.34149 0.09313-0.42616 0.23707-0.11571 0.19191-0.14958 0.46284-0.14958 0.7874zm0.33584 0c0-0.21731 0.0056-0.40922 0.05645-0.5588 0.02822-0.09313 0.0762-0.16651 0.18344-0.16651 0.08749 0 0.14958 0.05927 0.18627 0.17498 0.03669 0.11853 0.05644 0.30198 0.05644 0.55034 0 0.22578-0.0085 0.41487-0.05644 0.56445-0.03105 0.09313-0.07902 0.16651-0.18344 0.16651-0.08749 0-0.14958-0.05645-0.18627-0.17498-0.03951-0.11853-0.05645-0.30198-0.05645-0.55598z"/>
  </g>
  <g id="text55414" transform="translate(-7.2236 164.95)" fill="#fffff0" stroke-width=".26458" style="font-variant-ligatures:none" aria-label="11">
   <path id="path161419" d="m8.4444 78.255v0.29916h0.95956v-0.29916h-0.31609v-1.7103h-0.19756l-0.54469 0.53058 0.15522 0.18909 0.18627-0.14393 0.11571-0.16651-0.036689 0.19191v1.1091z"/>
   <path id="path161421" d="m9.7935 78.255v0.29916h0.95956v-0.29916h-0.31609v-1.7103h-0.19756l-0.54469 0.53058 0.15522 0.18909 0.18627-0.14393 0.11571-0.16651-0.03669 0.19191v1.1091z"/>
  </g>
  <g id="text58498" transform="translate(-14.046 164.78)" fill="#fffff0" stroke-width=".26458" style="font-variant-ligatures:none" aria-label="12">
   <path id="path161424" d="m15.276 84.324v0.29916h0.95956v-0.29916h-0.31609v-1.7103h-0.19756l-0.54469 0.53058 0.15522 0.18909 0.18627-0.14393 0.11571-0.16651-0.03669 0.19191v1.1091z"/>
   <path id="path161426" d="m16.546 82.78 0.12982 0.24553c0.05645-0.0508 0.16369-0.11007 0.26811-0.11007 0.15804 0 0.23424 0.10724 0.2286 0.26529 0.0028 0.06491-0.0056 0.13264-0.0254 0.20602-0.04516 0.16369-0.11571 0.31609-0.19191 0.45438-0.11853 0.20602-0.25964 0.41204-0.40076 0.58702v0.19473h0.9906v-0.29916h-0.43745l-0.16933 0.04233v-0.01411l0.12418-0.11571c0.10724-0.14393 0.21731-0.3302 0.29916-0.51365 0.0762-0.16651 0.1524-0.37536 0.1524-0.60114 0-0.08467-0.01411-0.15804-0.03669-0.22296-0.06773-0.17216-0.20884-0.29069-0.44027-0.29069-0.22296 0-0.37254 0.07056-0.49107 0.17216z"/>
  </g>
  <g id="text63474" transform="translate(-6.9011 164.37)" fill="#fffff0" stroke-width=".26458" style="font-variant-ligatures:none" aria-label="13">
   <path id="path161429" d="m8.1149 90.602v0.29916h0.95956v-0.29916h-0.31609v-1.7103h-0.19756l-0.54469 0.53058 0.15522 0.18909 0.18627-0.14393 0.11571-0.16651-0.036689 0.19191v1.1091z"/>
   <path id="path161431" d="m9.4922 90.571-0.090311 0.28222c0.084667 0.05362 0.26247 0.08749 0.40358 0.08749 0.081845 0 0.15804-0.01129 0.23142-0.03951 0.2286-0.08185 0.36407-0.29633 0.36407-0.61242 0-0.09031-0.01129-0.17216-0.03387-0.23989-0.05362-0.16651-0.16933-0.29916-0.36689-0.31609l-0.10442 0.01693v-0.01411l0.10442-0.0762 0.32738-0.5334v-0.20038h-0.90311v0.29916h0.38665l0.18627-0.0254-0.13547 0.127-0.2794 0.47413v0.19191h0.16651c0.20884 0 0.31609 0.10724 0.31609 0.31891 0 0.18909-0.095956 0.3302-0.28222 0.3302-0.12136 0-0.21167-0.02822-0.29069-0.07056z"/>
  </g>
  <g id="text66360" transform="translate(-13.72 163.91)" fill="#fffff0" stroke-width=".26458" style="font-variant-ligatures:none" aria-label="14">
   <path id="path161434" d="m14.936 96.982v0.29916h0.95956v-0.29916h-0.31609v-1.7103h-0.19756l-0.54469 0.53058 0.15522 0.18909 0.18627-0.14393 0.11571-0.16651-0.03669 0.19191v1.1091z"/>
   <path id="path161436" d="m17.352 96.731v-0.28787h-0.24836v-1.1515h-0.29351l-0.72249 1.2305v0.20884h0.69709v0.55034h0.31891v-0.55034zm-0.56727-0.72531v0.43745h-0.25682l-0.14393 0.02258 0.11289-0.10724 0.22296-0.37818 0.08467-0.2286h0.01129z"/>
  </g>
  <g id="text68982" transform="translate(-6.9158 163.49)" fill="#fffff0" stroke-width=".26458" style="font-variant-ligatures:none" aria-label="15">
   <path id="path161439" d="m8.1507 103.27v0.29916h0.95956v-0.29916h-0.31609v-1.7103h-0.19756l-0.54469 0.53058 0.15522 0.18909 0.18627-0.14393 0.11571-0.16651-0.036689 0.19191v1.1091z"/>
   <path id="path161441" d="m9.9174 102.32-0.093134 0.0113v-0.40359h0.5334v-0.32738h-0.82127v1.0301l0.18344-0.0113c0.23425 0 0.36125 0.1016 0.36125 0.33584 0 0.20602-0.10724 0.35278-0.31045 0.35278-0.11007 0-0.20038-0.0169-0.26811-0.0536l-0.087489 0.28504c0.084667 0.0452 0.23989 0.0762 0.37253 0.0762 0.090311 0 0.17216-0.0141 0.25118-0.0423 0.23424-0.0847 0.37818-0.3048 0.37818-0.63218 0-0.3556-0.17216-0.60678-0.49953-0.62089z"/>
  </g>
  <g id="text71230" transform="translate(-13.498 163.18)" fill="#fffff0" stroke-width=".26458" style="font-variant-ligatures:none" aria-label="16">
   <path id="path161444" d="m14.716 109.51v0.29916h0.95956v-0.29916h-0.31609v-1.7103h-0.19756l-0.54469 0.53058 0.15522 0.18909 0.18627-0.14393 0.11571-0.16651-0.03669 0.19191v1.1091z"/>
   <path id="path161446" d="m16.282 108.75c0.06491-0.32738 0.26811-0.59267 0.5842-0.67451l-0.08467-0.27376c-0.11289 0.0254-0.21731 0.0705-0.31891 0.13829-0.32456 0.21731-0.52211 0.62089-0.52211 1.1684 0 0.12982 0.01411 0.24271 0.04233 0.33867 0.07056 0.23707 0.2286 0.40922 0.52776 0.40922 0.07902 0 0.14958-0.0141 0.21731-0.0452 0.2032-0.0903 0.32738-0.30763 0.32738-0.60678 0-0.1016-0.01411-0.18909-0.03669-0.26529-0.05927-0.19191-0.19191-0.34149-0.43462-0.34149-0.14958 0-0.24271 0.0677-0.30198 0.1524zm0.22013 0.80716c-0.04233 0-0.07902-8e-3 -0.10724-0.031-0.08749-0.0621-0.12982-0.18909-0.12982-0.34149v-0.0621c0-0.0226 0-0.0423 0.0028-0.0649 0.03104-0.0818 0.11289-0.16087 0.2286-0.16087 0.18062 0 0.23424 0.12983 0.23424 0.32738 0 0.18063-0.07056 0.33303-0.2286 0.33303z"/>
  </g>
  <g id="text81560" transform="translate(-13.833 167.25)" fill="#fffff0" stroke-width=".26458" style="font-variant-ligatures:none" aria-label="4">
   <path id="path161449" d="m16.765 34.398v-0.28787h-0.24836v-1.1515h-0.29351l-0.72249 1.2305v0.20884h0.69709v0.55034h0.31891v-0.55034zm-0.56727-0.72531v0.43744h-0.25682l-0.14393 0.02258 0.11289-0.10724 0.22296-0.37818 0.08467-0.2286h0.01129z" fill="#fffff0"/>
  </g>
  <g id="text85744" transform="translate(-6.8557 166.97)" fill="#fffff0" stroke-width=".26458" style="font-variant-ligatures:none" aria-label="5">
   <path id="path161452" d="m9.1571 39.837-0.093134 0.01129v-0.40358h0.5334v-0.32738h-0.82127v1.0301l0.18344-0.01129c0.23425 0 0.36125 0.1016 0.36125 0.33585 0 0.20602-0.10724 0.35278-0.31045 0.35278-0.11007 0-0.20038-0.01693-0.26811-0.05362l-0.087489 0.28504c0.084667 0.04516 0.23989 0.0762 0.37253 0.0762 0.090311 0 0.17216-0.01411 0.25118-0.04233 0.23425-0.08467 0.37818-0.3048 0.37818-0.63218 0-0.3556-0.17216-0.60678-0.49953-0.62089z" fill="#fffff0"/>
  </g>
  <g id="text89774" transform="translate(-14 166.91)" fill="#fffff0" stroke-width=".26458" style="font-variant-ligatures:none" aria-label="6">
   <path id="path161455" d="m16.084 46.009c0.06491-0.32738 0.26811-0.59267 0.5842-0.67451l-0.084667-0.27376c-0.11289 0.0254-0.21731 0.07056-0.31891 0.13829-0.32456 0.21731-0.52211 0.62089-0.52211 1.1684 0 0.12982 0.01411 0.24271 0.04233 0.33867 0.07056 0.23707 0.2286 0.40922 0.52776 0.40922 0.07902 0 0.14958-0.01411 0.21731-0.04516 0.2032-0.09031 0.32738-0.30762 0.32738-0.60678 0-0.1016-0.01411-0.18909-0.03669-0.26529-0.05927-0.19191-0.19191-0.34149-0.43462-0.34149-0.14958 0-0.24271 0.06773-0.30198 0.1524zm0.22013 0.80716c-0.04233 0-0.07902-0.0085-0.10724-0.03104-0.08749-0.06209-0.12982-0.18909-0.12982-0.34149v-0.06209c0-0.02258 0-0.04233 0.0028-0.06491 0.03105-0.08185 0.11289-0.16087 0.2286-0.16087 0.18062 0 0.23424 0.12982 0.23424 0.32738 0 0.18062-0.07056 0.33302-0.2286 0.33302z" fill="#fffff0"/>
  </g>
  <g id="text93012" transform="translate(-6.9695 166.18)" fill="#fffff0" stroke-width=".26458" style="font-variant-ligatures:none" aria-label="7">
   <path id="path161458" d="m8.8363 53.708h0.32738l0.64065-1.8683v-0.10724h-1.0696v0.32174h0.59549l0.14111-0.02822-0.1016 0.13829z" fill="#fffff0"/>
  </g>
  <g id="text95854" transform="translate(-13.618 166)" fill="#fffff0" stroke-width=".26458" style="font-variant-ligatures:none" aria-label="8">
   <path id="path161461" d="m16.169 58.748c0.13829-0.11853 0.23989-0.25118 0.23989-0.49671 0-0.29633-0.18909-0.47696-0.47978-0.47696-0.31609 0-0.50236 0.20884-0.50236 0.52211 0 0.23989 0.09878 0.37818 0.23707 0.48542-0.15522 0.11571-0.2794 0.26811-0.2794 0.5334 0 0.08185 0.01129 0.15522 0.03669 0.21731 0.07056 0.18062 0.23989 0.29633 0.49107 0.29633 0.0762 0 0.14676-0.01129 0.21449-0.03669 0.19191-0.07055 0.32456-0.24271 0.32456-0.508 0-0.27376-0.11007-0.41487-0.28222-0.53622zm-0.25118 0.78176c-0.14958 0-0.22578-0.127-0.22578-0.2794 0-0.15804 0.06773-0.26247 0.17498-0.34431 0.11571 0.09031 0.25965 0.17498 0.25965 0.37818 0 0.1524-0.06773 0.24553-0.20884 0.24553zm0.0085-1.4563c0.11571 0 0.1778 0.11571 0.1778 0.24271 0 0.14958-0.05645 0.23424-0.12982 0.32173-0.11289-0.06773-0.22578-0.1524-0.22578-0.33584 0-0.11853 0.05362-0.2286 0.1778-0.2286z" fill="#fffff0"/>
  </g>
  <g id="text99114" transform="translate(-6.9259 165.72)" fill="#fffff0" stroke-width=".26458" style="font-variant-ligatures:none" aria-label="9">
   <path id="path161464" d="m9.4319 65.087c-0.056445 0.33302-0.24836 0.57009-0.57573 0.635l0.079022 0.28222c0.25965-0.02822 0.4572-0.16369 0.59549-0.34714 0.16933-0.22578 0.25965-0.55033 0.25965-0.96238 0-0.4318-0.1778-0.74507-0.57573-0.74507-0.37253 0-0.55316 0.2794-0.55316 0.65758 0 0.10724 0.014111 0.19756 0.042333 0.27376 0.070556 0.18062 0.21167 0.33302 0.45156 0.33302 0.14393 0 0.20884-0.03669 0.27658-0.127zm-0.22013-0.8382c0.045156 0 0.081845 0.01129 0.11571 0.03387 0.098778 0.07338 0.13829 0.21731 0.13829 0.38947 0 0.04516-0.00282 0.09313-0.00847 0.12982-0.042333 0.07055-0.11571 0.11289-0.22578 0.11289-0.16933 0-0.24553-0.14111-0.24553-0.32738 0-0.1778 0.059267-0.33867 0.22578-0.33867z" fill="#fffff0"/>
  </g>
  <g id="text3522" transform="translate(1.3125e-8,168.5)" fill="#fffff0" stroke-width=".26458" style="font-variant-ligatures:none" aria-label="Push">
   <path id="path919" d="m1.9068 5.5c-0.28646 0-0.58773 0.034572-0.81492 0.083961v3.4227h0.6223v-1.1903c0.064206 0.019756 0.17286 0.019756 0.25682 0.019756h0.064206c0.72108 0 1.1014-0.45438 1.1014-1.1952 0-0.80504-0.43956-1.1409-1.2298-1.1409zm0.57785 1.1359c0 0.40499-0.15804 0.647-0.54822 0.647-0.039511 0-0.19756-0.014817-0.22225-0.024694v-1.1804c0.064206-0.014817 0.14817-0.024695 0.25188-0.024695 0.35066 0 0.51858 0.22225 0.51858 0.58279z"/>
   <path id="path921" d="m3.9515 9.0708c0.32597 0 0.5334-0.1778 0.65193-0.40005h0.014817l0.10372 0.33585h0.4445c-0.054328-0.20743-0.069145-0.48401-0.069145-0.75071v-1.7187h-0.58773v1.6496c-0.049389 0.16792-0.16792 0.34572-0.36548 0.34572-0.24201 0-0.25188-0.22225-0.25188-0.51858v-1.4767h-0.58773v1.6051c0 0.54822 0.11359 0.92851 0.647 0.92851z"/>
   <path id="path923" d="m6.0949 8.5671c-0.20743 0-0.39511-0.069145-0.52352-0.14817l-0.16298 0.47413c0.15311 0.10866 0.4445 0.1778 0.7112 0.1778 0.50871 0 0.8248-0.2667 0.8248-0.75565 0-0.51365-0.3556-0.67169-0.67663-0.85937-0.10866-0.059267-0.23707-0.12841-0.23707-0.27658 0-0.13335 0.079022-0.20249 0.24201-0.20249 0.16792 0 0.36548 0.064206 0.48895 0.11359l0.13829-0.45438c-0.16298-0.093839-0.44944-0.16298-0.71614-0.16298-0.47907 0-0.74084 0.25188-0.74084 0.72108 0 0.51365 0.36054 0.66181 0.67663 0.84949 0.10866 0.064206 0.23707 0.14817 0.23707 0.30621 0 0.15311-0.11359 0.21731-0.26176 0.21731z"/>
   <path id="path925" d="m8.4508 6.473c-0.2914 0-0.4692 0.12347-0.59267 0.28646h-0.014817v-1.21h-0.58773v3.4572h0.58773v-1.699c0.039511-0.14817 0.17286-0.29633 0.35066-0.29633 0.25188 0 0.28646 0.21237 0.28646 0.50377v1.4915h0.58773v-1.62c0-0.52846-0.10372-0.9137-0.61736-0.9137z"/>
  </g>
  <g id="text903" transform="translate(.30529 96.525)" fill="#fffff0" stroke-width=".26458" aria-label="Out">
   <path id="path906" d="m3.0038 181.75q0-0.50236 0.17216-0.76483 0.17216-0.26247 0.52493-0.26247 0.18344 0 0.31609 0.0734 0.13264 0.0706 0.21731 0.20602 0.084667 0.13265 0.12418 0.32456 0.042333 0.18909 0.042333 0.42334 0 0.50235-0.1778 0.76482-0.17498 0.26247-0.52211 0.26247-0.18627 0-0.31891-0.0706-0.12982-0.0734-0.21449-0.20602-0.084667-0.13547-0.12418-0.32456-0.039511-0.19191-0.039511-0.42615zm0.37253 0q0 0.14957 0.016933 0.2794 0.016933 0.127 0.056445 0.22013 0.039511 0.0931 0.098778 0.14676 0.062089 0.0536 0.1524 0.0536 0.16369 0 0.24553-0.16651 0.081845-0.16651 0.081845-0.5334 0-0.14394-0.016933-0.27094-0.016933-0.12982-0.056445-0.22295-0.036689-0.096-0.098778-0.14958-0.062089-0.0565-0.15522-0.0565-0.32456 0-0.32456 0.69992z"/>
   <path id="path908" d="m4.9285 181.33v0.84385q0 0.16651 0.031045 0.23142 0.031045 0.0649 0.11289 0.0649 0.079022 0 0.13264-0.0564 0.053622-0.0593 0.0762-0.14111v-0.94263h0.33585v0.98214q0 0.11571 0.00847 0.2286 0.00847 0.11006 0.031045 0.20038h-0.254l-0.059267-0.19192h-0.00847q-0.053622 0.0988-0.14676 0.16369-0.090311 0.0649-0.22578 0.0649-0.087489 0-0.15522-0.0254-0.067734-0.0226-0.11571-0.0818-0.047978-0.0593-0.073378-0.16087-0.0254-0.10442-0.0254-0.26246v-0.91723z"/>
   <path id="path910" d="m5.7526 181.33h0.15522v-0.26529l0.33585-0.10442v0.36971h0.27376v0.29916h-0.27376v0.61524q0 0.12136 0.022578 0.17216 0.0254 0.0508 0.087489 0.0508 0.042334 0 0.0762-8e-3 0.033867-8e-3 0.073378-0.0254l0.042333 0.26811q-0.062089 0.031-0.14393 0.0508-0.081845 0.0226-0.17216 0.0226-0.16087 0-0.24271-0.0931-0.079022-0.0931-0.079022-0.31327v-0.73942h-0.15522z"/>
  </g>
 </g>
 <g id="layer2" display="none">
  <circle id="circle13" cx="5.08" cy="115" r="4" fill="#00f" fill-rule="evenodd" stroke-width=".26458"/>
  <rect id="rect1007" x="3.9" y="12.5" width="5" height="5" rx=".6" ry=".6" display="inline" stroke-width=".15"/>
  <rect id="rect1774" x="3.9" y="18.4" width="5" height="5" rx=".6" ry=".6" display="inline" stroke-width=".15"/>
  <rect id="rect1776" x="3.9" y="24.3" width="5" height="5" rx=".6" ry=".6" display="inline" stroke-width=".15"/>
  <rect id="rect1778" x="3.9" y="30.2" width="5" height="5" rx=".6" ry=".6" display="inline" stroke-width=".15"/>
  <rect id="rect1780" x="3.9" y="36.1" width="5" height="5" rx=".6" ry=".6" display="inline" stroke-width=".15"/>
  <rect id="rect1782" x="3.9" y="42" width="5" height="5" rx=".6" ry=".6" display="inline" stroke-width=".15"/>
  <rect id="rect1784" x="3.9" y="47.9" width="5" height="5" rx=".6" ry=".6" display="inline" stroke-width=".15"/>
  <rect id="rect1786" x="3.9" y="53.8" width="5" height="5" rx=".6" ry=".6" display="inline" stroke-width=".15"/>
  <rect id="rect1788" x="3.9" y="59.7" width="5" height="5" rx=".6" ry=".6" display="inline" stroke-width=".15"/>
  <rect id="rect1790" x="3.9" y="65.6" width="5" height="5" rx=".6" ry=".6" display="inline" stroke-width=".15"/>
  <rect id="rect1792" x="3.9" y="71.5" width="5" height="5" rx=".6" ry=".6" display="inline" stroke-width=".15"/>
  <rect id="rect1794" x="3.9" y="77.4" width="5" height="5" rx=".6" ry=".6" display="inline" stroke-width=".15"/>
  <rect id="rect1796" x="3.9" y="83.3" width="5" height="5" rx=".6" ry=".6" display="inline" stroke-width=".15"/>
  <rect id="rect1798" x="3.9" y="89.2" width="5" height="5" rx=".6" ry=".6" display="inline" stroke-width=".15"/>
  <rect id="rect1800" x="3.9" y="95.1" width="5" height="5" rx=".6" ry=".6" display="inline" stroke-width=".15"/>
  <rect id="rect1802" x="3.9" y="101" width="5" height="5" rx=".6" ry=".6" display="inline" stroke-width=".15"/>
 </g>
</svg>
