<?xml version="1.0" encoding="UTF-8"?>
<svg id="svg8" width="10.16mm" height="128.5mm" version="1.1" viewBox="0 0 10.16 128.5" xmlns="http://www.w3.org/2000/svg" xmlns:cc="http://creativecommons.org/ns#" xmlns:dc="http://purl.org/dc/elements/1.1/" xmlns:rdf="http://www.w3.org/1999/02/22-rdf-syntax-ns#">
 <metadata id="metadata5">
  <rdf:RDF>
   <cc:Work rdf:about="">
    <dc:format>image/svg+xml</dc:format>
    <dc:type rdf:resource="http://purl.org/dc/dcmitype/StillImage"/>
    <dc:title/>
   </cc:Work>
  </rdf:RDF>
 </metadata>
 <g id="layer1" transform="translate(0,-168.5)">
  <rect id="rect838" x="-5.5511e-17" y="168.5" width="10.16" height="128.5" fill="#bbbbb0"/>
  <rect id="rect45" x=".58" y="191.5" width="9" height="23" rx="1" ry="1" fill="#555d50"/>
  <text id="text64" x="2.0529213" y="233.73691" font-family="'PT Sans Narrow'" font-size="2.8222px" font-stretch="condensed" font-weight="bold" stroke-width=".26458" style="line-height:1.25" xml:space="preserve"><tspan id="tspan62" x="2.0529213" y="233.73691" stroke-width=".26458"/></text>
  <g id="text2569" transform="translate(0 -.83024)" stroke-width=".26458" aria-label="GRANDE">
   <path id="path2571" d="m1.6964 292.53c0.15522 0 0.28222-0.0564 0.35807-0.13405v-0.48684h-0.381v0.12171h0.24518v0.30163c-0.045861 0.0423-0.12524 0.067-0.20814 0.067-0.24694 0-0.38276-0.18168-0.38276-0.47272 0-0.28751 0.14817-0.46567 0.381-0.46567 0.11642 0 0.1905 0.0441 0.24871 0.10407l0.081139-0.0917c-0.067028-0.0723-0.17286-0.14287-0.33338-0.14287-0.30692 0-0.53093 0.22754-0.53093 0.59972 0 0.37747 0.21696 0.59972 0.52211 0.59972z"/>
   <path id="path2573" d="m2.7 292.51h0.14817v-0.48859h0.20814l0.27869 0.48859h0.16757l-0.29457-0.50447c0.15699-0.0406 0.25929-0.1464 0.25929-0.32632 0-0.24165-0.16933-0.32632-0.40569-0.32632h-0.3616zm0.14817-0.60854v-0.42862h0.19226c0.17992 0 0.27869 0.0547 0.27869 0.20637 0 0.14817-0.098778 0.22225-0.27869 0.22225z"/>
   <path id="path2575" d="m4.2699 291.86c0.04057-0.12876 0.077611-0.25576 0.11289-0.38982h0.00706c0.037042 0.13406 0.074083 0.26106 0.11642 0.38982l0.054681 0.17463h-0.34573zm-0.35454 0.64558h0.14993l0.11112-0.35101h0.42157l0.10936 0.35101h0.15699l-0.38982-1.1571h-0.16933z"/>
   <path id="path2577" d="m5.3988 292.51h0.13935v-0.60854c0-0.11994-0.010583-0.24518-0.019403-0.3616h0.00706c0.038806 0.0847 0.081139 0.1711 0.12524 0.24871l0.41275 0.72143h0.15875v-1.1571h-0.13935v0.60325c0 0.11995 0.010583 0.24695 0.019403 0.36689h-0.00706c-0.040569-0.0847-0.081139-0.1711-0.12524-0.24871l-0.41275-0.72143h-0.15875z"/>
   <path id="path2579" d="m6.9087 292.51h0.29633c0.34925 0 0.53975-0.21519 0.53975-0.58384 0-0.36689-0.1905-0.57327-0.54681-0.57327h-0.28928zm0.14817-0.1217v-0.9137h0.13053c0.26988 0 0.40393 0.16051 0.40393 0.45156 0 0.2928-0.13406 0.46214-0.40393 0.46214z"/>
   <path id="path2581" d="m8.3657 292.51h0.68439v-0.12523h-0.53622v-0.41981h0.43744v-0.12523h-0.43744v-0.3616h0.51858v-0.12524h-0.66675z"/>
  </g>
  <g id="text913" transform="translate(-3.6006e-7 1.5)" fill="#fffff0" stroke-width=".26458" aria-label="+2">
   <path id="path936" d="m6.5115 202.16h0.36407v-0.41205h0.31045v0.41205h0.36407v0.29916h-0.36407v0.41486h-0.31045v-0.41486h-0.36407z"/>
   <path id="path938" d="m8.7919 201.76q0 0.14676-0.042333 0.30198-0.042333 0.1524-0.11007 0.29915-0.064911 0.14676-0.14393 0.27941-0.079023 0.13264-0.15522 0.23424l-0.12418 0.11571v0.0141l0.16933-0.0423h0.43745v0.29916h-0.9906v-0.19474q0.059267-0.0734 0.127-0.16651 0.070556-0.096 0.13829-0.20038 0.070556-0.10724 0.13547-0.22013 0.064911-0.11571 0.11289-0.2286 0.0508-0.11571 0.079022-0.22578 0.031045-0.11007 0.0254-0.20602 0.00564-0.11854-0.0508-0.19192-0.056445-0.0734-0.1778-0.0734-0.070556 0-0.14393 0.0339-0.073378 0.031-0.12418 0.0762l-0.12982-0.24553q0.093134-0.079 0.21167-0.12418 0.11853-0.048 0.2794-0.048 0.1016 0 0.18909 0.0339 0.087489 0.031 0.14958 0.096 0.064911 0.0649 0.1016 0.16086 0.036689 0.096 0.036689 0.22296z"/>
  </g>
  <text id="text925" x="7.705914" y="247.28606" font-family="'PT Sans Narrow'" font-size="2.8222px" font-stretch="condensed" font-weight="bold" stroke-width=".26458" text-align="center" text-anchor="middle" style="line-height:1.25" xml:space="preserve"><tspan id="tspan923" x="7.705914" y="247.28606" stroke-width=".26458"/></text>
  <rect id="rect912" x=".68" y="265.5" width="8.8" height="22.9" rx="1" ry="1" fill="#555d50"/>
  <rect id="rect916" x=".58" y="265.5" width="9" height="1" fill="#555d50"/>
  <g id="g924" transform="translate(3.9939e-8 75.75)" fill="#fffff0" stroke-width=".26458" aria-label="+1">
   <path id="path920" d="m6.4917 191.4h0.36407v-0.41204h0.31045v0.41204h0.36407v0.29916h-0.36407v0.41487h-0.31045v-0.41487h-0.36407z"/>
   <path id="path922" d="m7.8831 192.21h0.32173v-1.1091l0.036689-0.19191-0.11571 0.16651-0.18627 0.14393-0.15522-0.18909 0.54469-0.53058h0.19756v1.7103h0.31609v0.29916h-0.95956z"/>
  </g>
  <g id="g930" transform="translate(-3.6006e-7 75.5)" fill="#fffff0" stroke-width=".26458" aria-label="+2">
   <path id="path926" d="m6.5115 202.16h0.36407v-0.41205h0.31045v0.41205h0.36407v0.29916h-0.36407v0.41486h-0.31045v-0.41486h-0.36407z"/>
   <path id="path928" d="m8.7919 201.76q0 0.14676-0.042333 0.30198-0.042333 0.1524-0.11007 0.29915-0.064911 0.14676-0.14393 0.27941-0.079023 0.13264-0.15522 0.23424l-0.12418 0.11571v0.0141l0.16933-0.0423h0.43745v0.29916h-0.9906v-0.19474q0.059267-0.0734 0.127-0.16651 0.070556-0.096 0.13829-0.20038 0.070556-0.10724 0.13547-0.22013 0.064911-0.11571 0.11289-0.2286 0.0508-0.11571 0.079022-0.22578 0.031045-0.11007 0.0254-0.20602 0.00564-0.11854-0.0508-0.19192-0.056445-0.0734-0.1778-0.0734-0.070556 0-0.14393 0.0339-0.073378 0.031-0.12418 0.0762l-0.12982-0.24553q0.093134-0.079 0.21167-0.12418 0.11853-0.048 0.2794-0.048 0.1016 0 0.18909 0.0339 0.087489 0.031 0.14958 0.096 0.064911 0.0649 0.1016 0.16086 0.036689 0.096 0.036689 0.22296z"/>
  </g>
  <rect id="rect910" x=".68" y="228.5" width="8.8" height="22.9" rx="1" ry="1" fill="#555d50"/>
  <rect id="rect914" x=".58" y="228.5" width="9" height="1" fill="#555d50"/>
  <g id="text907-4" transform="translate(3.9939e-8 38.75)" fill="#fffff0" stroke-width=".26458" aria-label="+1">
   <path id="path927-1" d="m6.4917 191.4h0.36407v-0.41204h0.31045v0.41204h0.36407v0.29916h-0.36407v0.41487h-0.31045v-0.41487h-0.36407z"/>
   <path id="path930-8" d="m7.8831 192.21h0.32173v-1.1091l0.036689-0.19191-0.11571 0.16651-0.18627 0.14393-0.15522-0.18909 0.54469-0.53058h0.19756v1.7103h0.31609v0.29916h-0.95956z"/>
  </g>
  <g id="text913-5" transform="translate(-3.6006e-7 38.5)" fill="#fffff0" stroke-width=".26458" aria-label="+2">
   <path id="path936-9" d="m6.5115 202.16h0.36407v-0.41205h0.31045v0.41205h0.36407v0.29916h-0.36407v0.41486h-0.31045v-0.41486h-0.36407z"/>
   <path id="path938-7" d="m8.7919 201.76q0 0.14676-0.042333 0.30198-0.042333 0.1524-0.11007 0.29915-0.064911 0.14676-0.14393 0.27941-0.079023 0.13264-0.15522 0.23424l-0.12418 0.11571v0.0141l0.16933-0.0423h0.43745v0.29916h-0.9906v-0.19474q0.059267-0.0734 0.127-0.16651 0.070556-0.096 0.13829-0.20038 0.070556-0.10724 0.13547-0.22013 0.064911-0.11571 0.11289-0.2286 0.0508-0.11571 0.079022-0.22578 0.031045-0.11007 0.0254-0.20602 0.00564-0.11854-0.0508-0.19192-0.056445-0.0734-0.1778-0.0734-0.070556 0-0.14393 0.0339-0.073378 0.031-0.12418 0.0762l-0.12982-0.24553q0.093134-0.079 0.21167-0.12418 0.11853-0.048 0.2794-0.048 0.1016 0 0.18909 0.0339 0.087489 0.031 0.14958 0.096 0.064911 0.0649 0.1016 0.16086 0.036689 0.096 0.036689 0.22296z"/>
  </g>
  <g id="text915" stroke-width=".26458" aria-label="SD">
   <path id="path917" d="m4.1342 176.64q0-0.15805-0.093839-0.26671-0.093839-0.11359-0.23707-0.21237-0.13829-0.0988-0.30621-0.20249-0.16298-0.10372-0.30621-0.24201-0.13829-0.13829-0.23213-0.32597-0.093839-0.18767-0.093839-0.45931 0-0.25189 0.074083-0.42475 0.079022-0.1778 0.21237-0.28646 0.13335-0.11359 0.31609-0.16298 0.18274-0.0543 0.39017-0.0543 0.25188 0 0.4692 0.0494t0.36054 0.13335l-0.19262 0.54822q-0.083961-0.0593-0.25188-0.10866-0.16298-0.0494-0.3556-0.0494t-0.29633 0.079-0.10372 0.23213q0 0.13828 0.093839 0.24694 0.093839 0.10372 0.23213 0.2025 0.14323 0.0988 0.30621 0.20743 0.16792 0.10372 0.30621 0.24694 0.14323 0.13829 0.23707 0.33091 0.093839 0.18768 0.093839 0.44944t-0.079022 0.45438q-0.074083 0.19262-0.21731 0.32103-0.13829 0.12347-0.33585 0.18768-0.19756 0.0642-0.43956 0.0642-0.30621 0-0.53834-0.0593-0.22719-0.0593-0.35066-0.13335l0.20249-0.55809q0.098778 0.0593 0.27164 0.11853 0.17286 0.0593 0.37042 0.0593 0.49389 0 0.49389-0.38523z"/>
   <path id="path919" d="m5.0923 174.07q0.0889-0.0148 0.19756-0.0198 0.11359-0.01 0.22719-0.0148 0.11853-0.01 0.22719-0.01 0.10866-5e-3 0.19262-5e-3 0.40993 0 0.68157 0.12841 0.27658 0.12347 0.43956 0.3556 0.16792 0.22719 0.23707 0.54822 0.069145 0.32103 0.069145 0.71614 0 0.36054-0.069145 0.69144-0.064206 0.32597-0.23213 0.57786-0.16792 0.24694-0.45438 0.39511t-0.72108 0.14817q-0.064206 0-0.17286-5e-3 -0.10866-5e-3 -0.22719-0.0148-0.11853-5e-3 -0.22719-0.0148-0.10866-5e-3 -0.16792-0.0148zm0.90876 0.52352q-0.079022 0-0.16298 5e-3 -0.079022 0-0.12347 0.01v2.3806q0.014817 5e-3 0.049389 0.01 0.039511 0 0.079022 5e-3 0.04445 0 0.079022 5e-3 0.039511 0 0.054328 0 0.22225 0 0.36548-0.10371 0.14323-0.10372 0.22225-0.27658 0.083961-0.17286 0.11359-0.39511 0.034572-0.22719 0.034572-0.47414 0-0.22719-0.029633-0.43956-0.024694-0.21237-0.10372-0.37042-0.074084-0.16298-0.21731-0.25682-0.13829-0.0988-0.36054-0.0988z"/>
  </g>
  <rect id="rect902" x=".7125" y="179.63" width="8.735" height="34.735" rx="1" ry="1" fill="none" stroke="#555d50" stroke-width=".265"/>
  <rect id="rect904" x=".7125" y="216.63" width="8.735" height="34.735" rx="1" ry="1" fill="none" stroke="#555d50" stroke-width=".265"/>
  <rect id="rect906" x=".7125" y="253.63" width="8.735" height="34.735" rx="1" ry="1" fill="none" stroke="#555d50" stroke-width=".265"/>
  <rect id="rect908" x=".58" y="191.5" width="9" height="1" fill="#555d50"/>
  <g id="text907" transform="translate(3.9939e-8 1.75)" fill="#fffff0" stroke-width=".26458" aria-label="+1">
   <path id="path927" d="m6.4917 191.4h0.36407v-0.41204h0.31045v0.41204h0.36407v0.29916h-0.36407v0.41487h-0.31045v-0.41487h-0.36407z"/>
   <path id="path930" d="m7.8831 192.21h0.32173v-1.1091l0.036689-0.19191-0.11571 0.16651-0.18627 0.14393-0.15522-0.18909 0.54469-0.53058h0.19756v1.7103h0.31609v0.29916h-0.95956z"/>
  </g>
 </g>
 <g id="layer2" display="none" fill-rule="evenodd" stroke-width=".26458">
  <circle id="circle921" cx="5.08" cy="114.25" r="4" fill="#00f"/>
  <circle id="circle910" cx="5.08" cy="54.25" r="4" fill="#0f0"/>
  <circle id="circle906" cx="5.08" cy="103.75" r="4" fill="#00f"/>
  <circle id="circle912" cx="5.08" cy="77.25" r="4" fill="#00f"/>
  <circle id="circle914" cx="5.08" cy="66.75" r="4" fill="#00f"/>
  <circle id="circle918" cx="5.08" cy="40.25" r="4" fill="#00f"/>
  <circle id="circle920" cx="5.08" cy="29.75" r="4" fill="#00f"/>
  <circle id="circle922" cx="5.08" cy="17.25" r="4" fill="#0f0"/>
  <circle id="circle916" cx="5.08" cy="91.25" r="4" fill="#0f0"/>
 </g>
</svg>
