<?xml version="1.0" encoding="UTF-8" standalone="no"?>
<svg
   xmlns:dc="http://purl.org/dc/elements/1.1/"
   xmlns:cc="http://creativecommons.org/ns#"
   xmlns:rdf="http://www.w3.org/1999/02/22-rdf-syntax-ns#"
   xmlns:svg="http://www.w3.org/2000/svg"
   xmlns="http://www.w3.org/2000/svg"
   xmlns:sodipodi="http://sodipodi.sourceforge.net/DTD/sodipodi-0.dtd"
   xmlns:inkscape="http://www.inkscape.org/namespaces/inkscape"
   sodipodi:docname="SampleDelays.svg"
   inkscape:version="1.0.1 (3bc2e813f5, 2020-09-07)"
   id="svg8"
   version="1.1"
   viewBox="0 0 10.16 128.5"
   height="128.5mm"
   width="10.16mm">
  <defs
     id="defs2" />
  <sodipodi:namedview
     inkscape:snap-global="true"
     inkscape:snap-bbox-midpoints="true"
     inkscape:snap-bbox="true"
     inkscape:document-rotation="0"
     inkscape:window-maximized="0"
     inkscape:window-y="104"
     inkscape:window-x="734"
     inkscape:window-height="1205"
     inkscape:window-width="1835"
     inkscape:lockguides="false"
     inkscape:guide-bbox="true"
     showguides="true"
     units="mm"
     showgrid="false"
     inkscape:current-layer="layer1"
     inkscape:document-units="mm"
     inkscape:cy="238.4727"
     inkscape:cx="-355.08063"
     inkscape:zoom="0.5188716"
     inkscape:pageshadow="2"
     inkscape:pageopacity="0.0"
     borderopacity="1.0"
     bordercolor="#666666"
     pagecolor="#ffffff"
     id="base"
     inkscape:bbox-nodes="false"
     inkscape:bbox-paths="false"
     inkscape:snap-grids="false"
     inkscape:snap-others="false"
     inkscape:object-nodes="false"
     inkscape:snap-nodes="false"
     inkscape:snap-bbox-edge-midpoints="false">
    <sodipodi:guide
       position="19.366522,111"
       orientation="0,1"
       id="guide837"
       inkscape:label=""
       inkscape:locked="false"
       inkscape:color="rgb(0,0,255)" />
    <sodipodi:guide
       inkscape:color="rgb(0,0,255)"
       inkscape:locked="false"
       inkscape:label=""
       id="guide875"
       orientation="0,1"
       position="-9.0869999,37.500002" />
    <sodipodi:guide
       position="20,86.500003"
       orientation="0,1"
       id="guide891"
       inkscape:label=""
       inkscape:locked="false"
       inkscape:color="rgb(0,0,255)" />
    <sodipodi:guide
       position="-0.45667893,49.750002"
       orientation="0,1"
       id="guide893"
       inkscape:label=""
       inkscape:locked="false"
       inkscape:color="rgb(0,0,255)" />
    <sodipodi:guide
       position="-21.247928,74.250003"
       orientation="0,1"
       id="guide901"
       inkscape:label=""
       inkscape:locked="false"
       inkscape:color="rgb(0,0,255)" />
    <sodipodi:guide
       position="-2.5513393,98.750004"
       orientation="0,1"
       id="guide947"
       inkscape:label=""
       inkscape:locked="false"
       inkscape:color="rgb(0,0,255)" />
    <sodipodi:guide
       position="1.58,32.186943"
       orientation="-1,0"
       id="guide996"
       inkscape:label=""
       inkscape:locked="false"
       inkscape:color="rgb(0,0,255)" />
    <sodipodi:guide
       position="8.5799999,33.10826"
       orientation="-1,0"
       id="guide998"
       inkscape:label=""
       inkscape:locked="false"
       inkscape:color="rgb(0,0,255)" />
    <sodipodi:guide
       position="-4.8854,25.250001"
       orientation="0,1"
       id="guide3392"
       inkscape:label=""
       inkscape:locked="false"
       inkscape:color="rgb(0,0,255)" />
    <sodipodi:guide
       inkscape:color="rgb(0,0,255)"
       inkscape:locked="false"
       inkscape:label=""
       id="guide907"
       orientation="0,1"
       position="-14.335827,13.000001" />
    <sodipodi:guide
       position="-2.015698,62.000003"
       orientation="0,1"
       id="guide908"
       inkscape:label=""
       inkscape:locked="false"
       inkscape:color="rgb(0,0,255)" />
    <sodipodi:guide
       position="2.5000001,103.0901"
       orientation="-1,0"
       id="guide993"
       inkscape:label=""
       inkscape:locked="false"
       inkscape:color="rgb(0,0,255)" />
    <sodipodi:guide
       position="7.667205,108.44731"
       orientation="1,0"
       id="guide909" />
    <sodipodi:guide
       inkscape:color="rgb(0,0,255)"
       inkscape:locked="false"
       inkscape:label=""
       id="guide944"
       orientation="-1,0"
       position="5.0800002,74.250002" />
  </sodipodi:namedview>
  <metadata
     id="metadata5">
    <rdf:RDF>
      <cc:Work
         rdf:about="">
        <dc:format>image/svg+xml</dc:format>
        <dc:type
           rdf:resource="http://purl.org/dc/dcmitype/StillImage" />
        <dc:title />
      </cc:Work>
    </rdf:RDF>
  </metadata>
  <g
     transform="translate(0,-168.5)"
     id="layer1"
     inkscape:groupmode="layer"
     inkscape:label="Layer 1"
     style="display:inline">
    <rect
       style="display:inline;opacity:1;fill:#bbbbb0;fill-opacity:1;stroke:none;stroke-width:1.131;stroke-miterlimit:4;stroke-dasharray:none"
       id="rect838"
       width="10.16"
       height="128.5"
       x="-5.5511151e-17"
       y="168.5" />
    <rect
       rx="0.80000001"
       ry="0.80000013"
       y="265.25"
       x="0.77999979"
       height="23.25"
       width="8.6000004"
       id="rect912"
       style="opacity:1;fill:#555d50;fill-opacity:1;stroke:none;stroke-width:0.829457;stroke-opacity:0.25" />
    <rect
       style="opacity:1;fill:#555d50;fill-opacity:1;stroke:none;stroke-width:0.829454;stroke-opacity:0.25"
       id="rect45"
       width="8.6000004"
       height="23.25"
       x="0.77999979"
       y="191.75"
       ry="0.80000001"
       rx="0.80000001" />
    <text
       xml:space="preserve"
       style="font-weight:bold;font-stretch:condensed;font-size:2.82223px;line-height:1.25;font-family:'PT Sans Narrow';-inkscape-font-specification:'PT Sans Narrow, Bold Condensed';opacity:1;stroke-width:0.264583"
       x="2.0529213"
       y="233.73691"
       id="text64"><tspan
         sodipodi:role="line"
         id="tspan62"
         x="2.0529213"
         y="233.73691"
         style="stroke-width:0.264583" /></text>
    <g
       aria-label="GRANDE"
       id="text2569"
       style="font-size:1.76389px;line-height:1.25;font-family:'Source Sans Pro';-inkscape-font-specification:'Source Sans Pro, Normal';text-align:center;letter-spacing:0.370417px;text-anchor:middle;opacity:1;stroke-width:0.264583"
       transform="translate(0,-0.83024)">
      <path
         d="m 1.6963961,292.52968 c 0.1552223,0 0.2822224,-0.0564 0.3580696,-0.13405 v -0.48684 H 1.6734655 v 0.12171 h 0.2451807 v 0.30163 c -0.045861,0.0423 -0.1252362,0.067 -0.208139,0.067 -0.2469446,0 -0.3827641,-0.18168 -0.3827641,-0.47272 0,-0.28751 0.1481667,-0.46567 0.3810002,-0.46567 0.1164167,0 0.1905001,0.0441 0.2487085,0.10407 l 0.081139,-0.0917 c -0.067028,-0.0723 -0.1728612,-0.14287 -0.3333752,-0.14287 -0.3069168,0 -0.5309309,0.22754 -0.5309309,0.59972 0,0.37747 0.2169585,0.59972 0.5221114,0.59972 z"
         style="stroke-width:0.264583"
         id="path2571" />
      <path
         d="m 2.7000468,292.50851 h 0.1481668 v -0.48859 h 0.208139 l 0.2786946,0.48859 h 0.1675696 l -0.2945696,-0.50447 c 0.1569862,-0.0406 0.2592918,-0.1464 0.2592918,-0.32632 0,-0.24165 -0.1693334,-0.32632 -0.4056947,-0.32632 H 2.7000468 Z m 0.1481668,-0.60854 v -0.42862 h 0.192264 c 0.1799168,0 0.2786946,0.0547 0.2786946,0.20637 0,0.14817 -0.098778,0.22225 -0.2786946,0.22225 z"
         style="stroke-width:0.264583"
         id="path2573" />
      <path
         d="m 4.2699053,291.86293 c 0.04057,-0.12876 0.077611,-0.25576 0.112889,-0.38982 h 0.00706 c 0.037042,0.13406 0.074083,0.26106 0.1164168,0.38982 l 0.054681,0.17463 H 4.2152247 Z m -0.3545419,0.64558 h 0.1499307 l 0.111125,-0.35101 H 4.5979889 L 4.70735,292.50851 H 4.8643363 L 4.4745166,291.3514 H 4.3051831 Z"
         style="stroke-width:0.264583"
         id="path2575" />
      <path
         d="M 5.3987927,292.50851 H 5.53814 v -0.60854 c 0,-0.11994 -0.010583,-0.24518 -0.019403,-0.3616 h 0.00706 c 0.038806,0.0847 0.081139,0.1711 0.1252362,0.24871 l 0.4127502,0.72143 H 6.2225293 V 291.3514 H 6.083182 v 0.60325 c 0,0.11995 0.010583,0.24695 0.019403,0.36689 h -0.00706 c -0.040569,-0.0847 -0.081139,-0.1711 -0.1252361,-0.24871 L 5.5575428,291.3514 H 5.3987927 Z"
         style="stroke-width:0.264583"
         id="path2577" />
      <path
         d="m 6.9086818,292.50851 h 0.2963335 c 0.3492503,0 0.5397504,-0.21519 0.5397504,-0.58384 0,-0.36689 -0.1905001,-0.57327 -0.5468059,-0.57327 h -0.289278 z m 0.1481668,-0.1217 v -0.9137 h 0.1305278 c 0.2698752,0 0.4039309,0.16051 0.4039309,0.45156 0,0.2928 -0.1340557,0.46214 -0.4039309,0.46214 z"
         style="stroke-width:0.264583"
         id="path2579" />
      <path
         d="m 8.3656535,292.50851 h 0.6843893 v -0.12523 H 8.5138202 v -0.41981 h 0.4374447 v -0.12523 H 8.5138202 v -0.3616 H 9.0324039 V 291.3514 H 8.3656535 Z"
         style="stroke-width:0.264583"
         id="path2581" />
    </g>
    <g
       transform="translate(3.9938734e-8,1.75)"
       aria-label="+1"
       id="text907"
       style="font-weight:bold;font-stretch:condensed;font-size:2.82223px;line-height:1.25;font-family:'PT Sans Narrow';-inkscape-font-specification:'PT Sans Narrow, Bold Condensed';text-align:center;text-anchor:middle;opacity:1;fill:#fffff0;fill-opacity:1;stroke-width:0.264583">
      <path
         d="m 6.4917482,191.40029 h 0.3640676 v -0.41204 h 0.3104453 v 0.41204 h 0.3640677 v 0.29916 H 7.1662611 v 0.41487 H 6.8558158 v -0.41487 H 6.4917482 Z"
         style="fill:#fffff0;fill-opacity:1;stroke-width:0.264583"
         id="path927" />
      <path
         d="m 7.8831029,192.21027 h 0.3217342 v -1.10913 l 0.036689,-0.19191 -0.1157114,0.16651 -0.1862672,0.14393 L 7.7843248,191.03058 8.3290153,190.5 h 0.1975561 v 1.71027 h 0.3160897 v 0.29916 H 7.8831029 Z"
         style="fill:#fffff0;fill-opacity:1;stroke-width:0.264583"
         id="path930" />
    </g>
    <g
       transform="translate(-3.6006133e-7,3.24999)"
       aria-label="+2"
       id="text913"
       style="font-weight:bold;font-stretch:condensed;font-size:2.82223px;line-height:1.25;font-family:'PT Sans Narrow';-inkscape-font-specification:'PT Sans Narrow, Bold Condensed';text-align:center;text-anchor:middle;opacity:1;fill:#fffff0;fill-opacity:1;stroke-width:0.264583">
      <path
         d="m 6.511504,202.15594 h 0.3640677 v -0.41205 H 7.186017 v 0.41205 h 0.3640677 v 0.29916 H 7.186017 v 0.41486 H 6.8755717 V 202.4551 H 6.511504 Z"
         style="fill:#fffff0;fill-opacity:1;stroke-width:0.264583"
         id="path936" />
      <path
         d="m 8.7918612,201.76365 q 0,0.14676 -0.042333,0.30198 -0.042333,0.1524 -0.110067,0.29915 -0.064911,0.14676 -0.1439337,0.27941 -0.079023,0.13264 -0.1552227,0.23424 l -0.1241781,0.11571 v 0.0141 l 0.1693338,-0.0423 h 0.4374456 v 0.29916 H 7.832303 v -0.19474 q 0.059267,-0.0734 0.1270003,-0.16651 0.070556,-0.096 0.1382893,-0.20038 0.070556,-0.10724 0.1354671,-0.22013 0.064911,-0.11571 0.1128892,-0.2286 0.0508,-0.11571 0.079022,-0.22578 0.031045,-0.11007 0.0254,-0.20602 0.00564,-0.11854 -0.0508,-0.19192 -0.056445,-0.0734 -0.1778005,-0.0734 -0.070556,0 -0.1439337,0.0339 -0.073378,0.031 -0.1241781,0.0762 L 7.823836,201.42219 q 0.093134,-0.079 0.2116673,-0.12418 0.1185336,-0.048 0.2794007,-0.048 0.1016003,0 0.1890894,0.0339 0.087489,0.031 0.1495782,0.096 0.064911,0.0649 0.1016003,0.16086 0.036689,0.096 0.036689,0.22296 z"
         style="fill:#fffff0;fill-opacity:1;stroke-width:0.264583"
         id="path938" />
    </g>
    <text
       xml:space="preserve"
       style="font-weight:bold;font-stretch:condensed;font-size:2.82223px;line-height:1.25;font-family:'PT Sans Narrow';-inkscape-font-specification:'PT Sans Narrow, Bold Condensed';text-align:center;text-anchor:middle;opacity:1;stroke-width:0.264583"
       x="7.705914"
       y="247.28606"
       id="text925"><tspan
         sodipodi:role="line"
         id="tspan923"
         x="7.705914"
         y="247.28606"
         style="stroke-width:0.264583" /></text>
    <rect
       rx="0.80000001"
       ry="0.80000001"
       y="228.5"
       x="0.77999979"
       height="23.25"
       width="8.6000004"
       id="rect918"
       style="opacity:1;fill:#555d50;fill-opacity:1;stroke:none;stroke-width:0.829454;stroke-opacity:0.25" />
    <g
       transform="translate(3.9938794e-8,75.25)"
       aria-label="+1"
       id="g924"
       style="font-weight:bold;font-stretch:condensed;font-size:2.82223px;line-height:1.25;font-family:'PT Sans Narrow';-inkscape-font-specification:'PT Sans Narrow, Bold Condensed';text-align:center;text-anchor:middle;display:inline;opacity:1;fill:#fffff0;fill-opacity:1;stroke-width:0.264583">
      <path
         d="m 6.4917482,191.40029 h 0.3640676 v -0.41204 h 0.3104453 v 0.41204 h 0.3640677 v 0.29916 H 7.1662611 v 0.41487 H 6.8558158 v -0.41487 H 6.4917482 Z"
         style="fill:#fffff0;fill-opacity:1;stroke-width:0.264583"
         id="path920" />
      <path
         d="m 7.8831029,192.21027 h 0.3217342 v -1.10913 l 0.036689,-0.19191 -0.1157114,0.16651 -0.1862672,0.14393 L 7.7843248,191.03058 8.3290153,190.5 h 0.1975561 v 1.71027 h 0.3160897 v 0.29916 H 7.8831029 Z"
         style="fill:#fffff0;fill-opacity:1;stroke-width:0.264583"
         id="path922" />
    </g>
    <g
       transform="translate(-3.6006121e-7,76.74999)"
       aria-label="+2"
       id="g930"
       style="font-weight:bold;font-stretch:condensed;font-size:2.82223px;line-height:1.25;font-family:'PT Sans Narrow';-inkscape-font-specification:'PT Sans Narrow, Bold Condensed';text-align:center;text-anchor:middle;display:inline;opacity:1;fill:#fffff0;fill-opacity:1;stroke-width:0.264583">
      <path
         d="m 6.511504,202.15594 h 0.3640677 v -0.41205 H 7.186017 v 0.41205 h 0.3640677 v 0.29916 H 7.186017 v 0.41486 H 6.8755717 V 202.4551 H 6.511504 Z"
         style="fill:#fffff0;fill-opacity:1;stroke-width:0.264583"
         id="path926" />
      <path
         d="m 8.7918612,201.76365 q 0,0.14676 -0.042333,0.30198 -0.042333,0.1524 -0.110067,0.29915 -0.064911,0.14676 -0.1439337,0.27941 -0.079023,0.13264 -0.1552227,0.23424 l -0.1241781,0.11571 v 0.0141 l 0.1693338,-0.0423 h 0.4374456 v 0.29916 H 7.832303 v -0.19474 q 0.059267,-0.0734 0.1270003,-0.16651 0.070556,-0.096 0.1382893,-0.20038 0.070556,-0.10724 0.1354671,-0.22013 0.064911,-0.11571 0.1128892,-0.2286 0.0508,-0.11571 0.079022,-0.22578 0.031045,-0.11007 0.0254,-0.20602 0.00564,-0.11854 -0.0508,-0.19192 -0.056445,-0.0734 -0.1778005,-0.0734 -0.070556,0 -0.1439337,0.0339 -0.073378,0.031 -0.1241781,0.0762 L 7.823836,201.42219 q 0.093134,-0.079 0.2116673,-0.12418 0.1185336,-0.048 0.2794007,-0.048 0.1016003,0 0.1890894,0.0339 0.087489,0.031 0.1495782,0.096 0.064911,0.0649 0.1016003,0.16086 0.036689,0.096 0.036689,0.22296 z"
         style="fill:#fffff0;fill-opacity:1;stroke-width:0.264583"
         id="path928" />
    </g>
    <g
       style="font-weight:bold;font-stretch:condensed;font-size:2.82223px;line-height:1.25;font-family:'PT Sans Narrow';-inkscape-font-specification:'PT Sans Narrow, Bold Condensed';text-align:center;text-anchor:middle;display:inline;opacity:1;fill:#fffff0;fill-opacity:1;stroke-width:0.264583"
       id="text907-4"
       aria-label="+1"
       transform="translate(3.9938795e-8,38.5)">
      <path
         id="path927-1"
         style="fill:#fffff0;fill-opacity:1;stroke-width:0.264583"
         d="m 6.4917482,191.40029 h 0.3640676 v -0.41204 h 0.3104453 v 0.41204 h 0.3640677 v 0.29916 H 7.1662611 v 0.41487 H 6.8558158 v -0.41487 H 6.4917482 Z" />
      <path
         id="path930-8"
         style="fill:#fffff0;fill-opacity:1;stroke-width:0.264583"
         d="m 7.8831029,192.21027 h 0.3217342 v -1.10913 l 0.036689,-0.19191 -0.1157114,0.16651 -0.1862672,0.14393 L 7.7843248,191.03058 8.3290153,190.5 h 0.1975561 v 1.71027 h 0.3160897 v 0.29916 H 7.8831029 Z" />
    </g>
    <g
       style="font-weight:bold;font-stretch:condensed;font-size:2.82223px;line-height:1.25;font-family:'PT Sans Narrow';-inkscape-font-specification:'PT Sans Narrow, Bold Condensed';text-align:center;text-anchor:middle;display:inline;opacity:1;fill:#fffff0;fill-opacity:1;stroke-width:0.264583"
       id="text913-5"
       aria-label="+2"
       transform="translate(-3.6006121e-7,39.99999)">
      <path
         id="path936-9"
         style="fill:#fffff0;fill-opacity:1;stroke-width:0.264583"
         d="m 6.511504,202.15594 h 0.3640677 v -0.41205 H 7.186017 v 0.41205 h 0.3640677 v 0.29916 H 7.186017 v 0.41486 H 6.8755717 V 202.4551 H 6.511504 Z" />
      <path
         id="path938-7"
         style="fill:#fffff0;fill-opacity:1;stroke-width:0.264583"
         d="m 8.7918612,201.76365 q 0,0.14676 -0.042333,0.30198 -0.042333,0.1524 -0.110067,0.29915 -0.064911,0.14676 -0.1439337,0.27941 -0.079023,0.13264 -0.1552227,0.23424 l -0.1241781,0.11571 v 0.0141 l 0.1693338,-0.0423 h 0.4374456 v 0.29916 H 7.832303 v -0.19474 q 0.059267,-0.0734 0.1270003,-0.16651 0.070556,-0.096 0.1382893,-0.20038 0.070556,-0.10724 0.1354671,-0.22013 0.064911,-0.11571 0.1128892,-0.2286 0.0508,-0.11571 0.079022,-0.22578 0.031045,-0.11007 0.0254,-0.20602 0.00564,-0.11854 -0.0508,-0.19192 -0.056445,-0.0734 -0.1778005,-0.0734 -0.070556,0 -0.1439337,0.0339 -0.073378,0.031 -0.1241781,0.0762 L 7.823836,201.42219 q 0.093134,-0.079 0.2116673,-0.12418 0.1185336,-0.048 0.2794007,-0.048 0.1016003,0 0.1890894,0.0339 0.087489,0.031 0.1495782,0.096 0.064911,0.0649 0.1016003,0.16086 0.036689,0.096 0.036689,0.22296 z" />
    </g>
    <g
       aria-label="SD"
       id="text915"
       style="font-weight:bold;font-stretch:condensed;font-size:4.9389px;line-height:1.25;font-family:'PT Sans Narrow';-inkscape-font-specification:'PT Sans Narrow, Bold Condensed';text-align:center;text-anchor:middle;opacity:1;stroke-width:0.264583">
      <path
         d="m 4.1342025,176.63737 q 0,-0.15805 -0.093839,-0.26671 -0.093839,-0.11359 -0.2370672,-0.21237 -0.1382892,-0.0988 -0.3062118,-0.20249 -0.1629837,-0.10372 -0.3062118,-0.24201 -0.1382892,-0.13829 -0.2321283,-0.32597 -0.093839,-0.18767 -0.093839,-0.45931 0,-0.25189 0.074083,-0.42475 0.079022,-0.1778 0.2123727,-0.28646 0.1333503,-0.11359 0.3160896,-0.16298 0.1827393,-0.0543 0.3901731,-0.0543 0.2518839,0 0.4691955,0.0494 0.2173116,0.0494 0.3605397,0.13335 l -0.1926171,0.54822 q -0.083961,-0.0593 -0.2518839,-0.10866 -0.1629837,-0.0494 -0.3556008,-0.0494 -0.1926171,0 -0.296334,0.079 -0.1037169,0.079 -0.1037169,0.23213 0,0.13828 0.093839,0.24694 0.093839,0.10372 0.2321283,0.2025 0.1432281,0.0988 0.3062118,0.20743 0.1679226,0.10372 0.3062118,0.24694 0.1432281,0.13829 0.2370672,0.33091 0.093839,0.18768 0.093839,0.44944 0,0.26176 -0.079022,0.45438 -0.074083,0.19262 -0.2173116,0.32103 -0.1382892,0.12347 -0.3358452,0.18768 -0.197556,0.0642 -0.4395621,0.0642 -0.3062118,0 -0.5383401,-0.0593 -0.2271894,-0.0593 -0.3506619,-0.13335 l 0.2024949,-0.55809 q 0.098778,0.0593 0.2716395,0.11853 0.1728615,0.0593 0.3704175,0.0593 0.49389,0 0.4938901,-0.38523 z"
         style="stroke-width:0.264583"
         id="path917" />
      <path
         d="m 5.0923451,174.06914 q 0.0889,-0.0148 0.197556,-0.0198 0.1135947,-0.01 0.2271894,-0.0148 0.1185336,-0.01 0.2271894,-0.01 0.1086558,-0.005 0.1926171,-0.005 0.4099287,0 0.6815682,0.12841 0.2765784,0.12347 0.4395621,0.3556 0.1679226,0.22719 0.2370672,0.54822 0.069145,0.32103 0.069145,0.71614 0,0.36054 -0.069145,0.69144 -0.064206,0.32597 -0.2321283,0.57786 -0.1679226,0.24694 -0.4543788,0.39511 -0.2864562,0.14817 -0.7210794,0.14817 -0.064206,0 -0.1728615,-0.005 -0.1086558,-0.005 -0.2271894,-0.0148 -0.1185336,-0.005 -0.2271894,-0.0148 -0.1086558,-0.005 -0.1679226,-0.0148 z m 0.9087576,0.52352 q -0.079022,0 -0.1629837,0.005 -0.079022,0 -0.1234725,0.01 v 2.38055 q 0.014817,0.005 0.049389,0.01 0.039511,0 0.079022,0.005 0.04445,0 0.079022,0.005 0.039511,0 0.054328,0 0.2222505,0 0.3654786,-0.10371 0.1432281,-0.10372 0.2222505,-0.27658 0.083961,-0.17286 0.1135947,-0.39511 0.034572,-0.22719 0.034572,-0.47414 0,-0.22719 -0.029633,-0.43956 -0.024694,-0.21237 -0.1037169,-0.37042 -0.074084,-0.16298 -0.2173116,-0.25682 -0.1382892,-0.0988 -0.3605397,-0.0988 z"
         style="stroke-width:0.264583"
         id="path919" />
    </g>
  </g>
  <g
     style="display:none"
     inkscape:label="components"
     id="layer2"
     inkscape:groupmode="layer">
    <circle
       inkscape:label="CV_Out"
       cy="115.5"
       cx="5.0799999"
       id="circle921"
       style="fill:#0000ff;fill-rule:evenodd;stroke-width:0.264582"
       r="4" />
    <circle
       inkscape:label="CV_Out"
       cy="54.25"
       cx="5.0799999"
       id="circle910"
       style="fill:#00ff00;fill-rule:evenodd;stroke-width:0.264582"
       r="4" />
    <circle
       r="4"
       style="fill:#0000ff;fill-rule:evenodd;stroke-width:0.264582"
       id="circle906"
       cx="5.0799999"
       cy="103.25"
       inkscape:label="CV_Out" />
    <circle
       r="4"
       style="fill:#0000ff;fill-rule:evenodd;stroke-width:0.264582"
       id="circle912"
       cx="5.0799999"
       cy="78.75"
       inkscape:label="CV_Out" />
    <circle
       inkscape:label="CV_Out"
       cy="66.5"
       cx="5.0799999"
       id="circle914"
       style="fill:#0000ff;fill-rule:evenodd;stroke-width:0.264582"
       r="4" />
    <circle
       inkscape:label="CV_Out"
       cy="42"
       cx="5.0799999"
       id="circle918"
       style="fill:#0000ff;fill-rule:evenodd;stroke-width:0.264582"
       r="4" />
    <circle
       r="4"
       style="fill:#0000ff;fill-rule:evenodd;stroke-width:0.264582"
       id="circle920"
       cx="5.0799999"
       cy="29.75"
       inkscape:label="CV_Out" />
    <circle
       r="4"
       style="fill:#00ff00;fill-rule:evenodd;stroke-width:0.264582"
       id="circle922"
       cx="5.0799999"
       cy="17.500004"
       inkscape:label="CV_Out" />
    <circle
       r="4"
       style="fill:#00ff00;fill-rule:evenodd;stroke-width:0.264582"
       id="circle916"
       cx="5.0799999"
       cy="91"
       inkscape:label="CV_Out" />
    <g
       transform="translate(0.07947688,-191.91494)"
       style="font-weight:bold;font-stretch:condensed;font-size:2.82223px;line-height:1.25;font-family:'PT Sans Narrow';-inkscape-font-specification:'PT Sans Narrow, Bold Condensed';text-align:center;text-anchor:middle;display:inline;stroke-width:0.264583"
       id="text927"
       aria-label="In B">
      <path
         id="path929"
         style="stroke-width:0.264583"
         d="m 3.168898,239.69351 h 0.355601 v 1.97556 H 3.168898 Z" />
      <path
         id="path932"
         style="stroke-width:0.264583"
         d="m 4.5038099,241.66907 v -0.85796 q 0,-0.15522 -0.036689,-0.21731 -0.036689,-0.0621 -0.1241782,-0.0621 -0.073378,0 -0.1270003,0.0452 -0.053622,0.0452 -0.0762,0.11289 v 0.97932 H 3.8038969 v -1.41112 h 0.2681118 l 0.039511,0.16369 h 0.00847 q 0.0508,-0.0818 0.1382892,-0.13829 0.087489,-0.0593 0.2286007,-0.0593 0.084667,0 0.1495782,0.0254 0.067734,0.0254 0.1128892,0.0847 0.045156,0.0565 0.067734,0.15523 0.022578,0.0959 0.022578,0.23988 v 0.93981 z" />
      <path
         id="path934"
         style="stroke-width:0.264583"
         d="m 6.7841699,240.15071 q 0,0.0734 -0.016933,0.14675 -0.014111,0.0706 -0.047978,0.13547 -0.033867,0.0621 -0.090311,0.11007 -0.053622,0.048 -0.1298226,0.0734 v 0.0169 q 0.067734,0.0169 0.1270004,0.0508 0.062089,0.0339 0.1072447,0.0931 0.045156,0.0564 0.070556,0.14111 0.028222,0.0819 0.028222,0.19474 0,0.1524 -0.053622,0.26529 -0.0508,0.11006 -0.1411115,0.18062 -0.087489,0.0706 -0.2060228,0.10442 -0.1185336,0.0339 -0.2511785,0.0339 -0.039511,0 -0.1016002,0 -0.062089,0 -0.1354671,-0.006 -0.070556,-0.003 -0.146756,-0.0113 -0.0762,-0.008 -0.1411115,-0.0254 v -1.94734 q 0.093134,-0.0169 0.2286007,-0.0282 0.1382893,-0.0141 0.2737563,-0.0141 0.1241781,0 0.2370673,0.0198 0.1157115,0.0198 0.2003784,0.0734 0.087489,0.0536 0.1382892,0.14958 0.0508,0.0931 0.0508,0.24271 z m -0.5954906,1.23896 q 0.1185337,0 0.1947339,-0.0762 0.0762,-0.0762 0.0762,-0.22296 0,-0.0931 -0.0254,-0.14676 -0.0254,-0.0564 -0.067734,-0.0847 -0.042333,-0.0311 -0.098778,-0.0395 -0.053622,-0.008 -0.1128892,-0.008 H 6.0108788 v 0.56162 q 0.022578,0.008 0.0762,0.0141 0.056445,0.003 0.1016003,0.003 z m -0.095956,-0.85796 q 0.031045,0 0.070556,-0.003 0.042333,-0.006 0.067734,-0.0113 0.081845,-0.031 0.1382893,-0.1016 0.059267,-0.0706 0.059267,-0.18345 0,-0.0734 -0.019756,-0.12418 -0.019756,-0.0508 -0.053622,-0.079 -0.033867,-0.031 -0.081845,-0.0423 -0.045156,-0.0141 -0.098778,-0.0141 -0.1157115,0 -0.1636894,0.0113 v 0.54751 z" />
    </g>
    <g
       style="font-weight:bold;font-stretch:condensed;font-size:2.82223px;line-height:1.25;font-family:'PT Sans Narrow';-inkscape-font-specification:'PT Sans Narrow, Bold Condensed';text-align:center;text-anchor:middle;display:inline;stroke-width:0.264583"
       id="text912"
       aria-label="In A"
       transform="translate(-1.6666667e-8,-168)">
      <path
         id="path914"
         style="stroke-width:0.264583"
         d="m 3.2384979,179.01411 h 0.355601 v 1.97556 h -0.355601 z" />
      <path
         id="path916"
         style="stroke-width:0.264583"
         d="m 4.5734098,180.98967 v -0.85796 q 0,-0.15522 -0.036689,-0.21731 -0.036689,-0.0621 -0.1241781,-0.0621 -0.073378,0 -0.1270003,0.0452 -0.053622,0.0452 -0.0762,0.11289 v 0.97931 H 3.8734968 v -1.41112 h 0.2681118 l 0.039511,0.16369 h 0.00847 q 0.0508,-0.0818 0.1382893,-0.13829 0.087489,-0.0593 0.2286007,-0.0593 0.084667,0 0.1495781,0.0254 0.067734,0.0254 0.1128893,0.0847 0.045156,0.0564 0.067734,0.15523 0.022578,0.096 0.022578,0.23989 v 0.9398 z" />
      <path
         id="path918"
         style="stroke-width:0.264583"
         d="M 6.427612,180.54376 H 5.9619441 l -0.1157115,0.44591 H 5.4934539 L 6.0663666,179 h 0.2794008 l 0.5757349,1.98967 H 6.5489679 Z M 6.0381443,180.25025 H 6.365523 l -0.1128892,-0.46003 -0.045156,-0.31044 h -0.011289 l -0.047978,0.31326 z" />
    </g>
    <g
       aria-label="In C"
       id="text934"
       style="font-weight:bold;font-stretch:condensed;font-size:2.82223px;line-height:1.25;font-family:'PT Sans Narrow';-inkscape-font-specification:'PT Sans Narrow, Bold Condensed';text-align:center;text-anchor:middle;display:inline;stroke-width:0.264583"
       transform="translate(1.260735,-174.49701)">
      <path
         d="m 2.0327972,259.03658 h 0.355601 v 1.97557 h -0.355601 z"
         style="stroke-width:0.264583"
         id="path937" />
      <path
         d="m 3.3677091,261.01215 v -0.85796 q 0,-0.15522 -0.036689,-0.21731 -0.036689,-0.0621 -0.1241781,-0.0621 -0.073378,0 -0.1270003,0.0451 -0.053622,0.0452 -0.0762,0.11289 v 0.97932 H 2.6677961 v -1.41112 h 0.2681118 l 0.039511,0.16369 h 0.00847 q 0.0508,-0.0818 0.1382893,-0.13829 0.087489,-0.0593 0.2286006,-0.0593 0.084667,0 0.1495782,0.0254 0.067734,0.0254 0.1128892,0.0847 0.045156,0.0564 0.067734,0.15522 0.022578,0.096 0.022578,0.23989 v 0.93981 z"
         style="stroke-width:0.264583"
         id="path939" />
      <path
         d="m 5.6057329,260.93312 q -0.073378,0.0621 -0.1975561,0.0903 -0.1213559,0.0282 -0.2427118,0.0282 -0.1524005,0 -0.2850453,-0.0508 -0.1298226,-0.0536 -0.2286006,-0.17498 -0.098778,-0.12136 -0.1552227,-0.31891 -0.056445,-0.19756 -0.056445,-0.48543 0,-0.29915 0.062089,-0.49671 0.064911,-0.19756 0.1665116,-0.31327 0.1044225,-0.11853 0.2370673,-0.16651 0.1326448,-0.048 0.2681119,-0.048 0.1382892,0 0.2398895,0.0226 0.1044225,0.0226 0.1693338,0.0508 l -0.070556,0.31327 q -0.053622,-0.0282 -0.1270004,-0.0423 -0.070556,-0.0169 -0.1693338,-0.0169 -0.1947339,0 -0.2991564,0.16934 -0.1044225,0.16933 -0.1044225,0.53058 0,0.15522 0.022578,0.28504 0.0254,0.127 0.0762,0.22013 0.053622,0.0931 0.1326448,0.14394 0.081845,0.0508 0.1947339,0.0508 0.098778,0 0.1693338,-0.0254 0.070556,-0.0282 0.1270003,-0.0649 z"
         style="stroke-width:0.264583"
         id="path941" />
    </g>
  </g>
</svg>
