<?xml version="1.0" encoding="UTF-8" standalone="no"?>
<svg
   xmlns:dc="http://purl.org/dc/elements/1.1/"
   xmlns:cc="http://creativecommons.org/ns#"
   xmlns:rdf="http://www.w3.org/1999/02/22-rdf-syntax-ns#"
   xmlns:svg="http://www.w3.org/2000/svg"
   xmlns="http://www.w3.org/2000/svg"
   xmlns:sodipodi="http://sodipodi.sourceforge.net/DTD/sodipodi-0.dtd"
   xmlns:inkscape="http://www.inkscape.org/namespaces/inkscape"
   sodipodi:docname="Scale.svg"
   inkscape:version="1.0.1 (3bc2e813f5, 2020-09-07)"
   id="svg8"
   version="1.1"
   viewBox="0 0 10.16 128.5"
   height="128.5mm"
   width="10.16mm">
  <defs
     id="defs2" />
  <sodipodi:namedview
     inkscape:snap-global="true"
     inkscape:snap-bbox-midpoints="true"
     inkscape:snap-bbox="true"
     inkscape:document-rotation="0"
     inkscape:window-maximized="0"
     inkscape:window-y="204"
     inkscape:window-x="299"
     inkscape:window-height="1205"
     inkscape:window-width="1562"
     inkscape:lockguides="false"
     inkscape:guide-bbox="true"
     showguides="true"
     units="mm"
     showgrid="false"
     inkscape:current-layer="layer1"
     inkscape:document-units="mm"
     inkscape:cy="346.89194"
     inkscape:cx="-70.468957"
     inkscape:zoom="1.2826985"
     inkscape:pageshadow="2"
     inkscape:pageopacity="0.0"
     borderopacity="1.0"
     bordercolor="#666666"
     pagecolor="#ffffff"
     id="base"
     inkscape:bbox-nodes="false"
     inkscape:bbox-paths="false"
     inkscape:snap-grids="false"
     inkscape:snap-others="false"
     inkscape:object-nodes="false"
     inkscape:snap-nodes="false"
     inkscape:snap-bbox-edge-midpoints="false">
    <sodipodi:guide
       inkscape:color="rgb(0,0,255)"
       inkscape:label=""
       inkscape:locked="false"
       id="guide815"
       orientation="1,0"
       position="5.0800002,80.319942" />
    <sodipodi:guide
       inkscape:color="rgb(0,0,255)"
       inkscape:label=""
       inkscape:locked="false"
       id="guide817"
       orientation="0,1"
       position="-1.8753815,28.5" />
    <sodipodi:guide
       inkscape:color="rgb(0,0,255)"
       inkscape:label=""
       inkscape:locked="false"
       id="guide819"
       orientation="0,1"
       position="-5.8866377,55.499999" />
    <sodipodi:guide
       position="19.366522,109"
       orientation="0,1"
       id="guide837"
       inkscape:label=""
       inkscape:locked="false"
       inkscape:color="rgb(0,0,255)" />
    <sodipodi:guide
       inkscape:color="rgb(0,0,255)"
       inkscape:locked="false"
       inkscape:label=""
       id="guide875"
       orientation="0,1"
       position="-9.0869999,15.5" />
    <sodipodi:guide
       position="20,79.499999"
       orientation="0,1"
       id="guide891"
       inkscape:label=""
       inkscape:locked="false"
       inkscape:color="rgb(0,0,255)" />
    <sodipodi:guide
       position="-0.45667893,31.5"
       orientation="0,1"
       id="guide893"
       inkscape:label=""
       inkscape:locked="false"
       inkscape:color="rgb(0,0,255)" />
    <sodipodi:guide
       position="5.0799999,87.499999"
       orientation="0,1"
       id="guide895"
       inkscape:label=""
       inkscape:locked="false"
       inkscape:color="rgb(0,0,255)" />
    <sodipodi:guide
       position="-17.238885,71.499999"
       orientation="0,1"
       id="guide897"
       inkscape:label=""
       inkscape:locked="false"
       inkscape:color="rgb(0,0,255)" />
    <sodipodi:guide
       position="-20.355093,63.499999"
       orientation="0,1"
       id="guide899"
       inkscape:label=""
       inkscape:locked="false"
       inkscape:color="rgb(0,0,255)" />
    <sodipodi:guide
       position="-21.247928,47.5"
       orientation="0,1"
       id="guide901"
       inkscape:label=""
       inkscape:locked="false"
       inkscape:color="rgb(0,0,255)" />
    <sodipodi:guide
       position="23.954946,43.500002"
       orientation="0,1"
       id="guide903"
       inkscape:label=""
       inkscape:locked="false"
       inkscape:color="rgb(0,0,255)" />
    <sodipodi:guide
       position="-13.630746,39.5"
       orientation="0,1"
       id="guide905"
       inkscape:label=""
       inkscape:locked="false"
       inkscape:color="rgb(0,0,255)" />
    <sodipodi:guide
       position="-15.902537,23.5"
       orientation="0,1"
       id="guide907"
       inkscape:label=""
       inkscape:locked="false"
       inkscape:color="rgb(0,0,255)" />
    <sodipodi:guide
       position="-2.5513393,95.499999"
       orientation="0,1"
       id="guide947"
       inkscape:label=""
       inkscape:locked="false"
       inkscape:color="rgb(0,0,255)" />
    <sodipodi:guide
       position="2.0788691,103.5"
       orientation="0,1"
       id="guide949"
       inkscape:label=""
       inkscape:locked="false"
       inkscape:color="rgb(0,0,255)" />
    <sodipodi:guide
       position="1.58,32.186943"
       orientation="-1,0"
       id="guide996"
       inkscape:label=""
       inkscape:locked="false"
       inkscape:color="rgb(0,0,255)" />
    <sodipodi:guide
       position="8.5799999,33.10826"
       orientation="-1,0"
       id="guide998"
       inkscape:label=""
       inkscape:locked="false"
       inkscape:color="rgb(0,0,255)" />
    <sodipodi:guide
       position="12.739999,13.5"
       orientation="0,1"
       id="guide3392"
       inkscape:label=""
       inkscape:locked="false"
       inkscape:color="rgb(0,0,255)" />
  </sodipodi:namedview>
  <metadata
     id="metadata5">
    <rdf:RDF>
      <cc:Work
         rdf:about="">
        <dc:format>image/svg+xml</dc:format>
        <dc:type
           rdf:resource="http://purl.org/dc/dcmitype/StillImage" />
        <dc:title />
      </cc:Work>
    </rdf:RDF>
  </metadata>
  <g
     transform="translate(0,-168.5)"
     id="layer1"
     inkscape:groupmode="layer"
     inkscape:label="Layer 1"
     style="display:inline">
    <rect
       style="display:inline;opacity:1;fill:#bbbbb0;fill-opacity:1;stroke:none;stroke-width:1.131;stroke-miterlimit:4;stroke-dasharray:none"
       id="rect838"
       width="10.16"
       height="128.5"
       x="-5.5511151e-17"
       y="168.5" />
    <rect
       style="fill:#555d50;stroke:none;stroke-width:0.829457;stroke-opacity:0.25;fill-opacity:1"
       id="rect45"
       width="8.6000004"
       height="13"
       x="0.77999997"
       y="179.5"
       ry="0.80000001"
       rx="0.80000001" />
    <text
       xml:space="preserve"
       style="font-weight:bold;font-stretch:condensed;font-size:2.82223px;line-height:1.25;font-family:'PT Sans Narrow';-inkscape-font-specification:'PT Sans Narrow, Bold Condensed';stroke-width:0.264583"
       x="2.0529213"
       y="233.73691"
       id="text64"><tspan
         sodipodi:role="line"
         id="tspan62"
         x="2.0529213"
         y="233.73691"
         style="stroke-width:0.264583" /></text>
    <rect
       style="display:inline;opacity:0.399946;fill:#787878;fill-opacity:1;stroke:none;stroke-width:1"
       id="rect912"
       width="7"
       height="4.5"
       x="1.5799996"
       y="196.60001"
       rx="1.5"
       ry="1.5" />
    <rect
       ry="1.5"
       rx="1.5"
       y="204.60001"
       x="1.58"
       height="4.5"
       width="7"
       id="rect929"
       style="display:inline;opacity:0.399946;fill:#787878;fill-opacity:1;stroke:none;stroke-width:1" />
    <rect
       ry="1.5"
       rx="1.5"
       y="212.60001"
       x="1.58"
       height="4.5"
       width="7"
       id="rect931"
       style="display:inline;opacity:0.399946;fill:#787878;fill-opacity:1;stroke:none;stroke-width:1" />
    <rect
       style="display:inline;opacity:0.399946;fill:#787878;fill-opacity:1;stroke:none;stroke-width:1"
       id="rect933"
       width="7"
       height="4.5"
       x="1.58"
       y="220.60001"
       rx="1.5"
       ry="1.5" />
    <rect
       ry="1.5"
       rx="1.5"
       y="228.60001"
       x="1.58"
       height="4.5"
       width="7"
       id="rect935"
       style="display:inline;opacity:0.399946;fill:#787878;fill-opacity:1;stroke:none;stroke-width:1" />
    <rect
       style="display:inline;opacity:0.399946;fill:#787878;fill-opacity:1;stroke:none;stroke-width:1"
       id="rect937"
       width="7"
       height="4.5"
       x="1.58"
       y="236.60001"
       rx="1.5"
       ry="1.5" />
    <rect
       ry="1.5"
       rx="1.5"
       y="244.60001"
       x="1.58"
       height="4.5"
       width="7"
       id="rect939"
       style="display:inline;opacity:0.399946;fill:#787878;fill-opacity:1;stroke:none;stroke-width:1" />
    <rect
       style="display:inline;opacity:0.399946;fill:#787878;fill-opacity:1;stroke:none;stroke-width:1"
       id="rect944"
       width="7"
       height="4.5"
       x="1.58"
       y="252.60001"
       rx="1.5"
       ry="1.5" />
    <rect
       ry="1.5"
       rx="1.5"
       y="260.60001"
       x="1.58"
       height="4.5"
       width="7"
       id="rect946"
       style="display:inline;opacity:0.399946;fill:#787878;fill-opacity:1;stroke:none;stroke-width:1" />
    <rect
       style="display:inline;opacity:0.399946;fill:#787878;fill-opacity:1;stroke:none;stroke-width:1"
       id="rect948"
       width="7"
       height="4.5"
       x="1.5799996"
       y="268.60001"
       rx="1.5"
       ry="1.5" />
    <rect
       ry="1.5"
       rx="1.5"
       y="276.60001"
       x="1.58"
       height="4.5"
       width="7"
       id="rect950"
       style="display:inline;opacity:0.399946;fill:#787878;fill-opacity:1;stroke:none;stroke-width:1" />
    <rect
       style="display:inline;opacity:0.399946;fill:#787878;fill-opacity:1;stroke:none;stroke-width:1"
       id="rect952"
       width="7"
       height="4.5"
       x="1.58"
       y="284.60001"
       rx="1.5"
       ry="1.5" />
    <g
       aria-label="Out"
       id="text903"
       style="font-weight:bold;font-stretch:condensed;font-size:2.82223px;line-height:1.25;font-family:'PT Sans Narrow';-inkscape-font-specification:'PT Sans Narrow, Bold Condensed';letter-spacing:0px;word-spacing:0px;fill:#fffff0;stroke-width:0.264583;fill-opacity:1"
       transform="translate(0.1002323,-0.22496)">
      <path
         d="m 3.0037678,181.75226 q 0,-0.50236 0.1721561,-0.76483 0.172156,-0.26247 0.5249348,-0.26247 0.1834449,0 0.3160897,0.0734 0.1326449,0.0706 0.2173118,0.20602 0.084667,0.13265 0.1241781,0.32456 0.042333,0.18909 0.042333,0.42334 0,0.50235 -0.1778005,0.76482 -0.1749782,0.26247 -0.5221125,0.26247 -0.1862672,0 -0.318912,-0.0706 -0.1298226,-0.0734 -0.2144895,-0.20602 -0.084667,-0.13547 -0.1241781,-0.32456 -0.039511,-0.19191 -0.039511,-0.42615 z m 0.3725344,0 q 0,0.14957 0.016933,0.2794 0.016933,0.127 0.056445,0.22013 0.039511,0.0931 0.098778,0.14676 0.062089,0.0536 0.1524005,0.0536 0.1636893,0 0.245534,-0.16651 0.081845,-0.16651 0.081845,-0.5334 0,-0.14394 -0.016933,-0.27094 -0.016933,-0.12982 -0.056445,-0.22295 -0.036689,-0.096 -0.098778,-0.14958 -0.062089,-0.0565 -0.1552226,-0.0565 -0.3245565,0 -0.3245565,0.69992 z"
         style="fill:#fffff0;stroke-width:0.264583;fill-opacity:1"
         id="path906" />
      <path
         d="m 4.9285273,181.32892 v 0.84385 q 0,0.16651 0.031045,0.23142 0.031045,0.0649 0.1128892,0.0649 0.079022,0 0.1326448,-0.0564 0.053622,-0.0593 0.0762,-0.14111 v -0.94263 h 0.3358454 v 0.98214 q 0,0.11571 0.00847,0.2286 0.00847,0.11006 0.031045,0.20038 H 5.402662 l -0.059267,-0.19192 h -0.00847 q -0.053622,0.0988 -0.146756,0.16369 -0.090311,0.0649 -0.2257784,0.0649 -0.087489,0 -0.1552226,-0.0254 -0.067734,-0.0226 -0.1157115,-0.0818 -0.047978,-0.0593 -0.073378,-0.16087 -0.0254,-0.10442 -0.0254,-0.26246 v -0.91723 z"
         style="fill:#fffff0;stroke-width:0.264583;fill-opacity:1"
         id="path908" />
      <path
         d="m 5.7526162,181.32892 h 0.1552227 v -0.26529 l 0.3358453,-0.10442 v 0.36971 h 0.2737564 v 0.29916 H 6.2436842 v 0.61524 q 0,0.12136 0.022578,0.17216 0.0254,0.0508 0.087489,0.0508 0.042334,0 0.0762,-0.008 0.033867,-0.008 0.073378,-0.0254 l 0.042333,0.26811 q -0.062089,0.031 -0.1439338,0.0508 -0.081845,0.0226 -0.172156,0.0226 -0.1608671,0 -0.2427118,-0.0931 -0.079022,-0.0931 -0.079022,-0.31327 V 181.6286 H 5.7526162 Z"
         style="fill:#fffff0;stroke-width:0.264583;fill-opacity:1"
         id="path910" />
    </g>
    <g
       aria-label="Scale"
       id="text915"
       style="font-weight:bold;font-stretch:condensed;font-size:4.23333px;line-height:1.25;font-family:'PT Sans Narrow';-inkscape-font-specification:'PT Sans Narrow, Bold Condensed';letter-spacing:0px;word-spacing:0px;stroke-width:0.264583">
      <path
         d="m 2.3727984,176.2606 q 0,-0.13547 -0.080433,-0.2286 -0.080433,-0.0974 -0.2031998,-0.18203 -0.1185332,-0.0847 -0.2624664,-0.17357 -0.1396999,-0.0889 -0.2624665,-0.20743 -0.1185332,-0.11854 -0.1989665,-0.2794 -0.080433,-0.16087 -0.080433,-0.3937 0,-0.2159 0.0635,-0.36407 0.067733,-0.1524 0.1820332,-0.24553 0.1142999,-0.0974 0.2709331,-0.1397 Q 1.9579321,174 2.1357319,174 q 0.2158999,0 0.4021664,0.0423 0.1862665,0.0423 0.309033,0.1143 l -0.1650998,0.4699 q -0.071967,-0.0508 -0.2158998,-0.0931 -0.1396999,-0.0423 -0.3047998,-0.0423 -0.1650998,0 -0.2539998,0.0677 -0.0889,0.0677 -0.0889,0.19897 0,0.11853 0.080433,0.21166 0.080433,0.0889 0.1989665,0.17357 0.1227665,0.0847 0.2624664,0.1778 0.1439332,0.0889 0.2624665,0.21167 0.1227665,0.11853 0.2031998,0.28363 0.080433,0.16087 0.080433,0.38523 0,0.22437 -0.067733,0.38947 -0.0635,0.1651 -0.1862665,0.27517 -0.1185333,0.10583 -0.2878664,0.16086 -0.1693332,0.055 -0.3767664,0.055 -0.2624664,0 -0.4614329,-0.0508 -0.1947332,-0.0508 -0.3005665,-0.11429 l 0.1735666,-0.47837 q 0.084667,0.0508 0.2328331,0.1016 0.1481665,0.0508 0.3174997,0.0508 0.423333,0 0.423333,-0.3302 z"
         style="stroke-width:0.264583"
         id="path917" />
      <path
         d="m 4.4344265,176.9083 q -0.1058333,0.0847 -0.2539998,0.127 -0.1481665,0.0423 -0.2963331,0.0423 -0.2158998,0 -0.3640663,-0.0762 -0.1439333,-0.0804 -0.2370665,-0.22436 -0.093133,-0.14817 -0.1354666,-0.35137 -0.0381,-0.20743 -0.0381,-0.46143 0,-0.55457 0.1989665,-0.83397 0.1989665,-0.2794 0.5841995,-0.2794 0.1904998,0 0.309033,0.0339 0.1227666,0.0339 0.2158999,0.0847 l -0.1185333,0.4191 q -0.0762,-0.0381 -0.1481665,-0.055 -0.067733,-0.0212 -0.1650999,-0.0212 -0.1777998,0 -0.2666997,0.15664 -0.0889,0.1524 -0.0889,0.4953 0,0.28786 0.0889,0.4699 0.093133,0.18203 0.2920997,0.18203 0.1058333,0 0.1777999,-0.0254 0.0762,-0.0296 0.1396998,-0.072 z"
         style="stroke-width:0.264583"
         id="path919" />
      <path
         d="m 4.6714865,175.03293 q 0.1269999,-0.0762 0.3174997,-0.12276 0.1904998,-0.0466 0.4317996,-0.0466 0.3598331,0 0.4995329,0.18627 0.1439333,0.18626 0.1439333,0.52916 0,0.19897 -0.0127,0.3937 -0.00847,0.1905 -0.0127,0.37677 -0.00423,0.18203 0.00423,0.3556 0.0127,0.16933 0.059267,0.32173 h -0.410633 l -0.080433,-0.25823 h -0.016933 q -0.067733,0.12277 -0.1904999,0.2032 -0.1227665,0.0804 -0.3090331,0.0804 -0.2497664,0 -0.3936996,-0.1651 -0.1439332,-0.16933 -0.1439332,-0.44873 0,-0.381 0.2709331,-0.54187 0.2709331,-0.16086 0.732366,-0.13546 0.021167,-0.24554 -0.033867,-0.3556 -0.0508,-0.11007 -0.2243665,-0.11007 -0.1269999,0 -0.2624664,0.0296 -0.1354666,0.0296 -0.2412998,0.0847 z m 0.6053661,1.5875 q 0.1142999,0 0.1862665,-0.055 0.071967,-0.0593 0.1058333,-0.127 v -0.35137 q -0.097367,-0.0127 -0.1862665,-0.004 -0.0889,0.008 -0.1566332,0.0381 -0.067733,0.0296 -0.1100666,0.0889 -0.0381,0.055 -0.0381,0.14393 0,0.13124 0.0508,0.19897 0.055033,0.0677 0.1481665,0.0677 z"
         style="stroke-width:0.264583"
         id="path921" />
      <path
         d="m 6.9278436,176.3368 q 0,0.14817 0.029633,0.21167 0.029633,0.0635 0.097367,0.0635 0.0381,0 0.0762,-0.008 0.042333,-0.008 0.093133,-0.0296 l 0.046567,0.40639 q -0.0508,0.0339 -0.1735665,0.0635 -0.1227666,0.0296 -0.2497665,0.0296 -0.2116665,0 -0.3174997,-0.10584 -0.1058333,-0.10583 -0.1058333,-0.35983 v -2.54846 h 0.5037663 z"
         style="stroke-width:0.264583"
         id="path923" />
      <path
         d="m 8.8751674,176.86597 q -0.1058332,0.0931 -0.2878664,0.15239 -0.1820332,0.0593 -0.3809997,0.0593 -0.2201331,0 -0.3809997,-0.0762 -0.1566332,-0.0762 -0.2582331,-0.22013 -0.1015999,-0.14393 -0.1523998,-0.34713 -0.046567,-0.20744 -0.046567,-0.4699 0,-0.5715 0.2243665,-0.84244 0.2285998,-0.27516 0.6307661,-0.27516 0.1354666,0 0.2624665,0.0423 0.1269999,0.0381 0.2243665,0.13547 0.1015999,0.0931 0.1608665,0.254 0.0635,0.15663 0.0635,0.39793 0,0.0931 -0.0127,0.19897 -0.00847,0.10583 -0.029633,0.2286 H 7.8634016 q 0.00847,0.26246 0.1100666,0.40216 0.1015999,0.1397 0.3259664,0.1397 0.1354665,0 0.2455331,-0.0423 0.1142999,-0.0423 0.1735665,-0.0889 z m -0.6603994,-1.5875 q -0.1608666,0 -0.2412998,0.13123 -0.080433,0.127 -0.093133,0.35983 h 0.5841995 q 0.0127,-0.2413 -0.0508,-0.36406 -0.0635,-0.127 -0.1989665,-0.127 z"
         style="stroke-width:0.264583"
         id="path925" />
    </g>
    <g
       aria-label="GRANDE"
       id="text908"
       style="font-size:1.76389px;line-height:1.25;font-family:'Source Sans Pro';-inkscape-font-specification:'Source Sans Pro, Normal';text-align:center;letter-spacing:0.370417px;text-anchor:middle;stroke-width:0.264583"
       transform="translate(0,-2.30625)">
      <path
         d="m 1.6642316,294.00569 c 0.1552224,0 0.2822224,-0.0564 0.3580697,-0.13405 V 293.3848 H 1.6413011 v 0.12171 h 0.2451807 v 0.30163 c -0.045861,0.0423 -0.1252362,0.067 -0.208139,0.067 -0.2469447,0 -0.3827642,-0.18168 -0.3827642,-0.47273 0,-0.28751 0.1481668,-0.46566 0.3810003,-0.46566 0.1164167,0 0.1905001,0.0441 0.2487085,0.10407 l 0.081139,-0.0917 c -0.067028,-0.0723 -0.1728612,-0.14287 -0.3333752,-0.14287 -0.3069169,0 -0.5309309,0.22754 -0.5309309,0.59972 0,0.37747 0.2169585,0.59972 0.5221113,0.59972 z"
         style="stroke-width:0.264583"
         id="path911" />
      <path
         d="m 2.6678828,293.98453 h 0.1481667 v -0.4886 h 0.208139 l 0.2786947,0.4886 h 0.1675695 l -0.2945696,-0.50447 c 0.1569862,-0.0406 0.2592918,-0.14641 0.2592918,-0.32632 0,-0.24166 -0.1693334,-0.32632 -0.4056947,-0.32632 H 2.6678828 Z m 0.1481667,-0.60854 v -0.42863 h 0.192264 c 0.1799168,0 0.2786947,0.0547 0.2786947,0.20638 0,0.14816 -0.098778,0.22225 -0.2786947,0.22225 z"
         style="stroke-width:0.264583"
         id="path913" />
      <path
         d="m 4.2377416,293.33894 c 0.04057,-0.12876 0.077611,-0.25576 0.1128889,-0.38982 h 0.00706 c 0.037042,0.13406 0.074083,0.26106 0.1164168,0.38982 l 0.05468,0.17463 H 4.183061 Z m -0.3545419,0.64559 h 0.1499306 l 0.1111251,-0.35102 h 0.4215697 l 0.1093612,0.35102 H 4.8321725 L 4.4423528,292.82742 H 4.2730194 Z"
         style="stroke-width:0.264583"
         id="path915" />
      <path
         d="m 5.3666292,293.98453 h 0.1393473 v -0.60854 c 0,-0.11995 -0.010583,-0.24519 -0.019403,-0.3616 h 0.00706 c 0.038806,0.0847 0.081139,0.1711 0.1252362,0.24871 l 0.4127502,0.72143 H 6.19037 v -1.15711 H 6.0510185 v 0.60325 c 0,0.11994 0.010583,0.24694 0.019403,0.36689 h -0.00706 c -0.040569,-0.0847 -0.081139,-0.1711 -0.1252362,-0.24871 l -0.412746,-0.72143 H 5.3666292 Z"
         style="stroke-width:0.264583"
         id="path918" />
      <path
         d="m 6.8765188,293.98453 h 0.2963335 c 0.3492503,0 0.5397504,-0.2152 0.5397504,-0.58385 0,-0.36689 -0.1905001,-0.57326 -0.5468059,-0.57326 h -0.289278 z m 0.1481668,-0.12171 v -0.9137 h 0.1305278 c 0.2698752,0 0.4039308,0.16052 0.4039308,0.45156 0,0.29281 -0.1340556,0.46214 -0.4039308,0.46214 z"
         style="stroke-width:0.264583"
         id="path920" />
      <path
         d="m 8.3334909,293.98453 h 0.6843894 v -0.12524 H 8.4816577 v -0.4198 h 0.4374447 v -0.12524 H 8.4816577 v -0.3616 h 0.5185837 v -0.12523 H 8.3334909 Z"
         style="stroke-width:0.264583"
         id="path922" />
    </g>
  </g>
  <g
     style="display:none"
     inkscape:label="components"
     id="layer2"
     inkscape:groupmode="layer">
    <circle
       style="fill:#0000ff;fill-rule:evenodd;stroke-width:0.264582"
       id="circle13"
       cx="5.0799999"
       cy="19.5"
       r="2"
       inkscape:label="CV_Out" />
    <rect
       style="opacity:1;fill:#505050;fill-opacity:1;stroke:#000000;stroke-width:1;stroke-miterlimit:4;stroke-dasharray:none;stroke-opacity:1"
       id="rect941"
       width="6"
       height="6"
       x="2.0799999"
       y="105.5"
       rx="1"
       ry="1" />
    <rect
       style="opacity:1;fill:#ff0000;fill-opacity:1;stroke:#ffffff;stroke-width:1;stroke-miterlimit:4;stroke-dasharray:none;stroke-opacity:1"
       id="rect945"
       width="6"
       height="6"
       x="2.0799999"
       y="113.5"
       rx="1"
       ry="1" />
    <rect
       ry="1"
       rx="1"
       y="97.5"
       x="2.0799999"
       height="6"
       width="6"
       id="rect957"
       style="opacity:1;fill:#505050;fill-opacity:1;stroke:#ffffff;stroke-width:1;stroke-miterlimit:4;stroke-dasharray:none;stroke-opacity:1" />
    <rect
       ry="1"
       rx="1"
       y="89.5"
       x="2.0799999"
       height="6"
       width="6"
       id="rect959"
       style="opacity:1;fill:#ff0000;fill-opacity:1;stroke:#000000;stroke-width:1;stroke-miterlimit:4;stroke-dasharray:none;stroke-opacity:1" />
    <rect
       style="opacity:1;fill:#ff0000;fill-opacity:1;stroke:#ffffff;stroke-width:1;stroke-miterlimit:4;stroke-dasharray:none;stroke-opacity:1"
       id="rect961"
       width="6"
       height="6"
       x="2.0799999"
       y="81.5"
       rx="1"
       ry="1" />
    <rect
       ry="1"
       rx="1"
       y="73.5"
       x="2.0799999"
       height="6"
       width="6"
       id="rect963"
       style="opacity:1;fill:#ff0000;fill-opacity:1;stroke:#ffffff;stroke-width:1;stroke-miterlimit:4;stroke-dasharray:none;stroke-opacity:1" />
    <rect
       style="opacity:1;fill:#ff0000;fill-opacity:1;stroke:#000000;stroke-width:1;stroke-miterlimit:4;stroke-dasharray:none;stroke-opacity:1"
       id="rect965"
       width="6"
       height="6"
       x="2.0799999"
       y="65.5"
       rx="1"
       ry="1" />
    <rect
       style="opacity:1;fill:#ff0000;fill-opacity:1;stroke:#ffffff;stroke-width:1;stroke-miterlimit:4;stroke-dasharray:none;stroke-opacity:1"
       id="rect967"
       width="6"
       height="6"
       x="2.0799999"
       y="57.5"
       rx="1"
       ry="1" />
    <rect
       ry="1"
       rx="1"
       y="49.5"
       x="2.0799999"
       height="6"
       width="6"
       id="rect969"
       style="opacity:1;fill:#ff0000;fill-opacity:1;stroke:#000000;stroke-width:1;stroke-miterlimit:4;stroke-dasharray:none;stroke-opacity:1" />
    <rect
       ry="1"
       rx="1"
       y="41.5"
       x="2.0799999"
       height="6"
       width="6"
       id="rect971"
       style="opacity:1;fill:#ff0000;fill-opacity:1;stroke:#ffffff;stroke-width:1;stroke-miterlimit:4;stroke-dasharray:none;stroke-opacity:1" />
    <rect
       style="opacity:1;fill:#ff0000;fill-opacity:1;stroke:#000000;stroke-width:1;stroke-miterlimit:4;stroke-dasharray:none;stroke-opacity:1"
       id="rect973"
       width="6"
       height="6"
       x="2.0799999"
       y="33.5"
       rx="1"
       ry="1" />
    <rect
       style="opacity:1;fill:#ff0000;fill-opacity:1;stroke:#ffffff;stroke-width:1;stroke-miterlimit:4;stroke-dasharray:none;stroke-opacity:1"
       id="rect975"
       width="6"
       height="6"
       x="2.0799999"
       y="25.499998"
       rx="1"
       ry="1" />
  </g>
</svg>
