<?xml version="1.0" encoding="UTF-8"?>
<svg id="svg8" width="10.16mm" height="128.5mm" version="1.1" viewBox="0 0 10.16 128.5" xmlns="http://www.w3.org/2000/svg" xmlns:cc="http://creativecommons.org/ns#" xmlns:dc="http://purl.org/dc/elements/1.1/" xmlns:rdf="http://www.w3.org/1999/02/22-rdf-syntax-ns#">
 <metadata id="metadata5">
  <rdf:RDF>
   <cc:Work rdf:about="">
    <dc:format>image/svg+xml</dc:format>
    <dc:type rdf:resource="http://purl.org/dc/dcmitype/StillImage"/>
    <dc:title/>
   </cc:Work>
  </rdf:RDF>
 </metadata>
 <g id="layer1" transform="translate(0,-168.5)">
  <rect id="rect838" x="-5.5511e-17" y="168.5" width="10.16" height="128.5" fill="#bbbbb0"/>
  <rect id="rect45" x=".58" y="179.5" width="9" height="13" rx="1" ry="1" fill="#555d50"/>
  <text id="text64" x="2.0529213" y="233.73691" font-family="'PT Sans Narrow'" font-size="2.8222px" font-stretch="condensed" font-weight="bold" stroke-width=".26458" style="line-height:1.25" xml:space="preserve"><tspan id="tspan62" x="2.0529213" y="233.73691" stroke-width=".26458"/></text>
  <rect id="rect912" x="1.58" y="196.6" width="7" height="4.5" rx="1.5" ry="1.5" fill="#787878" opacity=".39995"/>
  <rect id="rect929" x="1.58" y="204.6" width="7" height="4.5" rx="1.5" ry="1.5" fill="#787878" opacity=".39995"/>
  <rect id="rect931" x="1.58" y="212.6" width="7" height="4.5" rx="1.5" ry="1.5" fill="#787878" opacity=".39995"/>
  <rect id="rect933" x="1.58" y="220.6" width="7" height="4.5" rx="1.5" ry="1.5" fill="#787878" opacity=".39995"/>
  <rect id="rect935" x="1.58" y="228.6" width="7" height="4.5" rx="1.5" ry="1.5" fill="#787878" opacity=".39995"/>
  <rect id="rect937" x="1.58" y="236.6" width="7" height="4.5" rx="1.5" ry="1.5" fill="#787878" opacity=".39995"/>
  <rect id="rect939" x="1.58" y="244.6" width="7" height="4.5" rx="1.5" ry="1.5" fill="#787878" opacity=".39995"/>
  <rect id="rect944" x="1.58" y="252.6" width="7" height="4.5" rx="1.5" ry="1.5" fill="#787878" opacity=".39995"/>
  <rect id="rect946" x="1.58" y="260.6" width="7" height="4.5" rx="1.5" ry="1.5" fill="#787878" opacity=".39995"/>
  <rect id="rect948" x="1.58" y="268.6" width="7" height="4.5" rx="1.5" ry="1.5" fill="#787878" opacity=".39995"/>
  <rect id="rect950" x="1.58" y="276.6" width="7" height="4.5" rx="1.5" ry="1.5" fill="#787878" opacity=".39995"/>
  <rect id="rect952" x="1.58" y="284.6" width="7" height="4.5" rx="1.5" ry="1.5" fill="#787878" opacity=".39995"/>
  <g id="text903" transform="translate(.10023 -.22496)" fill="#fffff0" stroke-width=".26458" aria-label="Out">
   <path id="path906" d="m3.0038 181.75q0-0.50236 0.17216-0.76483 0.17216-0.26247 0.52493-0.26247 0.18344 0 0.31609 0.0734 0.13264 0.0706 0.21731 0.20602 0.084667 0.13265 0.12418 0.32456 0.042333 0.18909 0.042333 0.42334 0 0.50235-0.1778 0.76482-0.17498 0.26247-0.52211 0.26247-0.18627 0-0.31891-0.0706-0.12982-0.0734-0.21449-0.20602-0.084667-0.13547-0.12418-0.32456-0.039511-0.19191-0.039511-0.42615zm0.37253 0q0 0.14957 0.016933 0.2794 0.016933 0.127 0.056445 0.22013 0.039511 0.0931 0.098778 0.14676 0.062089 0.0536 0.1524 0.0536 0.16369 0 0.24553-0.16651 0.081845-0.16651 0.081845-0.5334 0-0.14394-0.016933-0.27094-0.016933-0.12982-0.056445-0.22295-0.036689-0.096-0.098778-0.14958-0.062089-0.0565-0.15522-0.0565-0.32456 0-0.32456 0.69992z"/>
   <path id="path908" d="m4.9285 181.33v0.84385q0 0.16651 0.031045 0.23142 0.031045 0.0649 0.11289 0.0649 0.079022 0 0.13264-0.0564 0.053622-0.0593 0.0762-0.14111v-0.94263h0.33585v0.98214q0 0.11571 0.00847 0.2286 0.00847 0.11006 0.031045 0.20038h-0.254l-0.059267-0.19192h-0.00847q-0.053622 0.0988-0.14676 0.16369-0.090311 0.0649-0.22578 0.0649-0.087489 0-0.15522-0.0254-0.067734-0.0226-0.11571-0.0818-0.047978-0.0593-0.073378-0.16087-0.0254-0.10442-0.0254-0.26246v-0.91723z"/>
   <path id="path910" d="m5.7526 181.33h0.15522v-0.26529l0.33585-0.10442v0.36971h0.27376v0.29916h-0.27376v0.61524q0 0.12136 0.022578 0.17216 0.0254 0.0508 0.087489 0.0508 0.042334 0 0.0762-8e-3 0.033867-8e-3 0.073378-0.0254l0.042333 0.26811q-0.062089 0.031-0.14393 0.0508-0.081845 0.0226-0.17216 0.0226-0.16087 0-0.24271-0.0931-0.079022-0.0931-0.079022-0.31327v-0.73942h-0.15522z"/>
  </g>
  <g id="text915" stroke-width=".26458" aria-label="Scale">
   <path id="path917" d="m2.3728 176.26q0-0.13547-0.080433-0.2286-0.080433-0.0974-0.2032-0.18203-0.11853-0.0847-0.26247-0.17357-0.1397-0.0889-0.26247-0.20743-0.11853-0.11854-0.19897-0.2794-0.080433-0.16087-0.080433-0.3937 0-0.2159 0.0635-0.36407 0.067733-0.1524 0.18203-0.24553 0.1143-0.0974 0.27093-0.1397 0.15663-0.04657 0.33443-0.04657 0.2159 0 0.40217 0.0423t0.30903 0.1143l-0.1651 0.4699q-0.071967-0.0508-0.2159-0.0931-0.1397-0.0423-0.3048-0.0423-0.1651 0-0.254 0.0677t-0.0889 0.19897q0 0.11853 0.080433 0.21166 0.080433 0.0889 0.19897 0.17357 0.12277 0.0847 0.26247 0.1778 0.14393 0.0889 0.26247 0.21167 0.12277 0.11853 0.2032 0.28363 0.080433 0.16087 0.080433 0.38523 0 0.22437-0.067733 0.38947-0.0635 0.1651-0.18627 0.27517-0.11853 0.10583-0.28787 0.16086-0.16933 0.055-0.37677 0.055-0.26247 0-0.46143-0.0508-0.19473-0.0508-0.30057-0.11429l0.17357-0.47837q0.084667 0.0508 0.23283 0.1016 0.14817 0.0508 0.3175 0.0508 0.42333 0 0.42333-0.3302z"/>
   <path id="path919" d="m4.4344 176.91q-0.10583 0.0847-0.254 0.127t-0.29633 0.0423q-0.2159 0-0.36407-0.0762-0.14393-0.0804-0.23707-0.22436-0.093133-0.14817-0.13547-0.35137-0.0381-0.20743-0.0381-0.46143 0-0.55457 0.19897-0.83397t0.5842-0.2794q0.1905 0 0.30903 0.0339 0.12277 0.0339 0.2159 0.0847l-0.11853 0.4191q-0.0762-0.0381-0.14817-0.055-0.067733-0.0212-0.1651-0.0212-0.1778 0-0.2667 0.15664-0.0889 0.1524-0.0889 0.4953 0 0.28786 0.0889 0.4699 0.093133 0.18203 0.2921 0.18203 0.10583 0 0.1778-0.0254 0.0762-0.0296 0.1397-0.072z"/>
   <path id="path921" d="m4.6715 175.03q0.127-0.0762 0.3175-0.12276 0.1905-0.0466 0.4318-0.0466 0.35983 0 0.49953 0.18627 0.14393 0.18626 0.14393 0.52916 0 0.19897-0.0127 0.3937-0.00847 0.1905-0.0127 0.37677-0.00423 0.18203 0.00423 0.3556 0.0127 0.16933 0.059267 0.32173h-0.41063l-0.080433-0.25823h-0.016933q-0.067733 0.12277-0.1905 0.2032-0.12277 0.0804-0.30903 0.0804-0.24977 0-0.3937-0.1651-0.14393-0.16933-0.14393-0.44873 0-0.381 0.27093-0.54187 0.27093-0.16086 0.73237-0.13546 0.021167-0.24554-0.033867-0.3556-0.0508-0.11007-0.22437-0.11007-0.127 0-0.26247 0.0296-0.13547 0.0296-0.2413 0.0847zm0.60537 1.5875q0.1143 0 0.18627-0.055 0.071967-0.0593 0.10583-0.127v-0.35137q-0.097367-0.0127-0.18627-4e-3 -0.0889 8e-3 -0.15663 0.0381-0.067733 0.0296-0.11007 0.0889-0.0381 0.055-0.0381 0.14393 0 0.13124 0.0508 0.19897 0.055033 0.0677 0.14817 0.0677z"/>
   <path id="path923" d="m6.9278 176.34q0 0.14817 0.029633 0.21167t0.097367 0.0635q0.0381 0 0.0762-8e-3 0.042333-8e-3 0.093133-0.0296l0.046567 0.40639q-0.0508 0.0339-0.17357 0.0635-0.12277 0.0296-0.24977 0.0296-0.21167 0-0.3175-0.10584-0.10583-0.10583-0.10583-0.35983v-2.5485h0.50377z"/>
   <path id="path925" d="m8.8752 176.87q-0.10583 0.0931-0.28787 0.15239-0.18203 0.0593-0.381 0.0593-0.22013 0-0.381-0.0762-0.15663-0.0762-0.25823-0.22013t-0.1524-0.34713q-0.046567-0.20744-0.046567-0.4699 0-0.5715 0.22437-0.84244 0.2286-0.27516 0.63077-0.27516 0.13547 0 0.26247 0.0423 0.127 0.0381 0.22437 0.13547 0.1016 0.0931 0.16087 0.254 0.0635 0.15663 0.0635 0.39793 0 0.0931-0.0127 0.19897-0.00847 0.10583-0.029633 0.2286h-1.0287q0.00847 0.26246 0.11007 0.40216 0.1016 0.1397 0.32597 0.1397 0.13547 0 0.24553-0.0423 0.1143-0.0423 0.17357-0.0889zm-0.6604-1.5875q-0.16087 0-0.2413 0.13123-0.080433 0.127-0.093133 0.35983h0.5842q0.0127-0.2413-0.0508-0.36406-0.0635-0.127-0.19897-0.127z"/>
  </g>
  <g id="text908" transform="translate(0 -2.3062)" stroke-width=".26458" aria-label="GRANDE">
   <path id="path911" d="m1.6642 294.01c0.15522 0 0.28222-0.0564 0.35807-0.13405v-0.48684h-0.381v0.12171h0.24518v0.30163c-0.045861 0.0423-0.12524 0.067-0.20814 0.067-0.24694 0-0.38276-0.18168-0.38276-0.47273 0-0.28751 0.14817-0.46566 0.381-0.46566 0.11642 0 0.1905 0.0441 0.24871 0.10407l0.081139-0.0917c-0.067028-0.0723-0.17286-0.14287-0.33338-0.14287-0.30692 0-0.53093 0.22754-0.53093 0.59972 0 0.37747 0.21696 0.59972 0.52211 0.59972z"/>
   <path id="path913" d="m2.6679 293.98h0.14817v-0.4886h0.20814l0.27869 0.4886h0.16757l-0.29457-0.50447c0.15699-0.0406 0.25929-0.14641 0.25929-0.32632 0-0.24166-0.16933-0.32632-0.40569-0.32632h-0.3616zm0.14817-0.60854v-0.42863h0.19226c0.17992 0 0.27869 0.0547 0.27869 0.20638 0 0.14816-0.098778 0.22225-0.27869 0.22225z"/>
   <path id="path915" d="m4.2377 293.34c0.04057-0.12876 0.077611-0.25576 0.11289-0.38982h0.00706c0.037042 0.13406 0.074083 0.26106 0.11642 0.38982l0.05468 0.17463h-0.34573zm-0.35454 0.64559h0.14993l0.11113-0.35102h0.42157l0.10936 0.35102h0.15699l-0.38982-1.1571h-0.16933z"/>
   <path id="path918" d="m5.3666 293.98h0.13935v-0.60854c0-0.11995-0.010583-0.24519-0.019403-0.3616h0.00706c0.038806 0.0847 0.081139 0.1711 0.12524 0.24871l0.41275 0.72143h0.15875v-1.1571h-0.13935v0.60325c0 0.11994 0.010583 0.24694 0.019403 0.36689h-0.00706c-0.040569-0.0847-0.081139-0.1711-0.12524-0.24871l-0.41275-0.72143h-0.15875z"/>
   <path id="path920" d="m6.8765 293.98h0.29633c0.34925 0 0.53975-0.2152 0.53975-0.58385 0-0.36689-0.1905-0.57326-0.54681-0.57326h-0.28928zm0.14817-0.12171v-0.9137h0.13053c0.26988 0 0.40393 0.16052 0.40393 0.45156 0 0.29281-0.13406 0.46214-0.40393 0.46214z"/>
   <path id="path922" d="m8.3335 293.98h0.68439v-0.12524h-0.53622v-0.4198h0.43744v-0.12524h-0.43744v-0.3616h0.51858v-0.12523h-0.66675z"/>
  </g>
 </g>
 <g id="layer2" display="none">
  <circle id="circle13" cx="5.08" cy="19.5" r="2" fill="#00f" fill-rule="evenodd" stroke-width=".26458"/>
  <rect id="rect941" x="2.08" y="105.5" width="6" height="6" rx="1" ry="1" fill="#505050" stroke="#000"/>
  <rect id="rect945" x="2.08" y="113.5" width="6" height="6" rx="1" ry="1" fill="#f00" stroke="#fff"/>
  <rect id="rect957" x="2.08" y="97.5" width="6" height="6" rx="1" ry="1" fill="#505050" stroke="#fff"/>
  <rect id="rect959" x="2.08" y="89.5" width="6" height="6" rx="1" ry="1" fill="#f00" stroke="#000"/>
  <rect id="rect961" x="2.08" y="81.5" width="6" height="6" rx="1" ry="1" fill="#f00" stroke="#fff"/>
  <rect id="rect963" x="2.08" y="73.5" width="6" height="6" rx="1" ry="1" fill="#f00" stroke="#fff"/>
  <rect id="rect965" x="2.08" y="65.5" width="6" height="6" rx="1" ry="1" fill="#f00" stroke="#000"/>
  <rect id="rect967" x="2.08" y="57.5" width="6" height="6" rx="1" ry="1" fill="#f00" stroke="#fff"/>
  <rect id="rect969" x="2.08" y="49.5" width="6" height="6" rx="1" ry="1" fill="#f00" stroke="#000"/>
  <rect id="rect971" x="2.08" y="41.5" width="6" height="6" rx="1" ry="1" fill="#f00" stroke="#fff"/>
  <rect id="rect973" x="2.08" y="33.5" width="6" height="6" rx="1" ry="1" fill="#f00" stroke="#000"/>
  <rect id="rect975" x="2.08" y="25.5" width="6" height="6" rx="1" ry="1" fill="#f00" stroke="#fff"/>
 </g>
</svg>
