<?xml version="1.0" encoding="UTF-8" standalone="no"?>
<svg
   xmlns:dc="http://purl.org/dc/elements/1.1/"
   xmlns:cc="http://creativecommons.org/ns#"
   xmlns:rdf="http://www.w3.org/1999/02/22-rdf-syntax-ns#"
   xmlns:svg="http://www.w3.org/2000/svg"
   xmlns="http://www.w3.org/2000/svg"
   xmlns:sodipodi="http://sodipodi.sourceforge.net/DTD/sodipodi-0.dtd"
   xmlns:inkscape="http://www.inkscape.org/namespaces/inkscape"
   sodipodi:docname="Tails.svg"
   inkscape:version="1.0.2 (e86c870879, 2021-01-15)"
   id="svg8"
   version="1.1"
   viewBox="0 0 10.16 128.5"
   height="128.5mm"
   width="10.16mm">
  <defs
     id="defs2" />
  <sodipodi:namedview
     inkscape:snap-global="true"
     inkscape:snap-bbox-midpoints="true"
     inkscape:snap-bbox="true"
     inkscape:document-rotation="0"
     inkscape:window-maximized="0"
     inkscape:window-y="23"
     inkscape:window-x="26"
     inkscape:window-height="913"
     inkscape:window-width="1314"
     inkscape:lockguides="false"
     inkscape:guide-bbox="true"
     showguides="true"
     units="mm"
     showgrid="false"
     inkscape:current-layer="layer1"
     inkscape:document-units="mm"
     inkscape:cy="194.37035"
     inkscape:cx="-15.712396"
     inkscape:zoom="4.1213157"
     inkscape:pageshadow="2"
     inkscape:pageopacity="0.0"
     borderopacity="1.0"
     bordercolor="#666666"
     pagecolor="#ffffff"
     id="base"
     inkscape:bbox-nodes="false"
     inkscape:bbox-paths="false"
     inkscape:snap-grids="false"
     inkscape:snap-others="false"
     inkscape:object-nodes="false"
     inkscape:snap-nodes="false"
     inkscape:snap-bbox-edge-midpoints="false">
    <sodipodi:guide
       inkscape:color="rgb(0,0,255)"
       inkscape:label=""
       inkscape:locked="false"
       id="guide817"
       orientation="0,1"
       position="-1.8753815,34.000001" />
    <sodipodi:guide
       position="5.0800001,45.499987"
       orientation="0,1"
       id="guide903"
       inkscape:label=""
       inkscape:locked="false"
       inkscape:color="rgb(0,0,255)" />
    <sodipodi:guide
       position="5.0800002,39.119987"
       orientation="-1,0"
       id="guide998"
       inkscape:label=""
       inkscape:locked="false"
       inkscape:color="rgb(0,0,255)" />
    <sodipodi:guide
       position="-1.9066059,13.500001"
       orientation="0,1"
       id="guide879"
       inkscape:label=""
       inkscape:locked="false"
       inkscape:color="rgb(0,0,255)" />
    <sodipodi:guide
       position="5.0800001,82.500003"
       orientation="0,1"
       id="guide883"
       inkscape:label=""
       inkscape:locked="false"
       inkscape:color="rgb(0,0,255)" />
    <sodipodi:guide
       position="5.0800002,107"
       orientation="0,1"
       id="guide939"
       inkscape:label=""
       inkscape:locked="false"
       inkscape:color="rgb(0,0,255)" />
    <sodipodi:guide
       position="5.0800002,95.000004"
       orientation="0,1"
       id="guide941"
       inkscape:label=""
       inkscape:locked="false"
       inkscape:color="rgb(0,0,255)" />
    <sodipodi:guide
       position="5.0800002,71.500003"
       orientation="0,1"
       id="guide945"
       inkscape:label=""
       inkscape:locked="false"
       inkscape:color="rgb(0,0,255)" />
    <sodipodi:guide
       position="-3.722421,54.500002"
       orientation="0,1"
       id="guide949"
       inkscape:label=""
       inkscape:locked="false"
       inkscape:color="rgb(0,0,255)" />
    <sodipodi:guide
       position="5.0800001,24.99997"
       orientation="0,1"
       id="guide957"
       inkscape:label=""
       inkscape:locked="false"
       inkscape:color="rgb(0,0,255)" />
  </sodipodi:namedview>
  <metadata
     id="metadata5">
    <rdf:RDF>
      <cc:Work
         rdf:about="">
        <dc:format>image/svg+xml</dc:format>
        <dc:type
           rdf:resource="http://purl.org/dc/dcmitype/StillImage" />
        <dc:title />
      </cc:Work>
    </rdf:RDF>
  </metadata>
  <g
     transform="translate(0,-168.5)"
     id="layer1"
     inkscape:groupmode="layer"
     inkscape:label="Layer 1"
     style="display:inline">
    <rect
       style="display:inline;opacity:1;fill:#bbbbb0;fill-opacity:1;stroke:none;stroke-width:1.131;stroke-miterlimit:4;stroke-dasharray:none"
       id="rect838"
       width="10.16"
       height="128.5"
       x="-5.5511151e-17"
       y="168.5" />
    <g
       transform="translate(19.465003,-2.8689215)"
       aria-label="CV Out"
       id="text851"
       style="font-weight:bold;font-stretch:condensed;font-size:2.82223px;line-height:1.25;font-family:'PT Sans Narrow';-inkscape-font-specification:'PT Sans Narrow, Bold Condensed';display:inline;fill:#fffff0;fill-opacity:1;stroke-width:0.264583">
      <path
         inkscape:connector-curvature="0"
         d="m 3.1180002,263.0273 q 0,-0.50236 0.172156,-0.76483 Q 3.4623123,262 3.815091,262 q 0.183445,0 0.3160898,0.0734 0.1326448,0.0706 0.2173117,0.20602 0.084667,0.13265 0.1241782,0.32456 0.042333,0.18909 0.042333,0.42334 0,0.50235 -0.1778005,0.76482 -0.1749783,0.26247 -0.5221126,0.26247 -0.1862671,0 -0.318912,-0.0706 -0.1298225,-0.0734 -0.2144895,-0.20602 Q 3.1970221,263.64252 3.157511,263.45343 3.118,263.26152 3.118,263.02728 Z m 0.3725344,0 q 0,0.14957 0.016933,0.2794 0.016933,0.127 0.056445,0.22013 0.039511,0.0931 0.098778,0.14676 0.062089,0.0536 0.1524004,0.0536 0.1636894,0 0.2455341,-0.16651 0.081845,-0.16651 0.081845,-0.5334 0,-0.14394 -0.016933,-0.27094 -0.016933,-0.12982 -0.056445,-0.22296 -0.036689,-0.0959 -0.098778,-0.14957 -0.062089,-0.0564 -0.1552227,-0.0564 -0.3245564,0 -0.3245564,0.69992 z"
         style="fill:#fffff0;fill-opacity:1;stroke-width:0.264583"
         id="path931" />
      <path
         inkscape:connector-curvature="0"
         d="m 5.04276,262.60396 v 0.84385 q 0,0.16651 0.031045,0.23142 0.031045,0.0649 0.1128892,0.0649 0.079022,0 0.1326448,-0.0564 0.053622,-0.0593 0.0762,-0.14111 v -0.94263 h 0.3358454 v 0.98214 q 0,0.11571 0.00847,0.2286 0.00847,0.11006 0.031045,0.20038 H 5.5168946 l -0.059267,-0.19192 h -0.00847 q -0.053622,0.0988 -0.146756,0.16369 -0.090311,0.0649 -0.2257784,0.0649 -0.087489,0 -0.1552226,-0.0254 -0.067734,-0.0226 -0.1157115,-0.0818 -0.047978,-0.0593 -0.073378,-0.16087 -0.0254,-0.10442 -0.0254,-0.26246 v -0.91723 z"
         style="fill:#fffff0;fill-opacity:1;stroke-width:0.264583"
         id="path933" />
      <path
         inkscape:connector-curvature="0"
         d="M 5.8668483,262.60396 H 6.022071 v -0.26529 l 0.3358454,-0.10442 v 0.36971 h 0.2737563 v 0.29916 H 6.3579164 v 0.61524 q 0,0.12136 0.022578,0.17216 0.0254,0.0508 0.087489,0.0508 0.042333,0 0.0762,-0.008 0.033867,-0.008 0.073378,-0.0254 l 0.042333,0.26811 q -0.062089,0.0311 -0.1439337,0.0508 -0.081845,0.0226 -0.1721561,0.0226 -0.1608671,0 -0.2427118,-0.0931 -0.079022,-0.0931 -0.079022,-0.31327 v -0.73942 H 5.8668483 Z"
         style="fill:#fffff0;fill-opacity:1;stroke-width:0.264583"
         id="path935" />
    </g>
    <text
       xml:space="preserve"
       style="font-weight:bold;font-stretch:condensed;font-size:2.82223px;line-height:1.25;font-family:'PT Sans Narrow';-inkscape-font-specification:'PT Sans Narrow, Bold Condensed';stroke-width:0.264583"
       x="2.0529213"
       y="233.73691"
       id="text64"><tspan
         sodipodi:role="line"
         id="tspan62"
         x="2.0529213"
         y="233.73691"
         style="stroke-width:0.264583" /></text>
    <g
       aria-label="GRANDE"
       id="text908"
       style="font-size:1.76389px;line-height:1.25;font-family:'Source Sans Pro';-inkscape-font-specification:'Source Sans Pro, Normal';text-align:center;letter-spacing:0.370417px;text-anchor:middle;display:inline;stroke-width:0.264583"
       transform="translate(-3.0543484e-7,-2.30625)">
      <path
         d="m 1.6642316,294.00569 c 0.1552224,0 0.2822224,-0.0564 0.3580697,-0.13405 V 293.3848 H 1.6413011 v 0.12171 h 0.2451807 v 0.30163 c -0.045861,0.0423 -0.1252362,0.067 -0.208139,0.067 -0.2469447,0 -0.3827642,-0.18168 -0.3827642,-0.47273 0,-0.28751 0.1481668,-0.46566 0.3810003,-0.46566 0.1164167,0 0.1905001,0.0441 0.2487085,0.10407 l 0.081139,-0.0917 c -0.067028,-0.0723 -0.1728612,-0.14287 -0.3333752,-0.14287 -0.3069169,0 -0.5309309,0.22754 -0.5309309,0.59972 0,0.37747 0.2169585,0.59972 0.5221113,0.59972 z"
         style="stroke-width:0.264583"
         id="path911" />
      <path
         d="m 2.6678828,293.98453 h 0.1481667 v -0.4886 h 0.208139 l 0.2786947,0.4886 h 0.1675695 l -0.2945696,-0.50447 c 0.1569862,-0.0406 0.2592918,-0.14641 0.2592918,-0.32632 0,-0.24166 -0.1693334,-0.32632 -0.4056947,-0.32632 H 2.6678828 Z m 0.1481667,-0.60854 v -0.42863 h 0.192264 c 0.1799168,0 0.2786947,0.0547 0.2786947,0.20638 0,0.14816 -0.098778,0.22225 -0.2786947,0.22225 z"
         style="stroke-width:0.264583"
         id="path913" />
      <path
         d="m 4.2377416,293.33894 c 0.04057,-0.12876 0.077611,-0.25576 0.1128889,-0.38982 h 0.00706 c 0.037042,0.13406 0.074083,0.26106 0.1164168,0.38982 l 0.05468,0.17463 H 4.183061 Z m -0.3545419,0.64559 h 0.1499306 l 0.1111251,-0.35102 h 0.4215697 l 0.1093612,0.35102 H 4.8321725 L 4.4423528,292.82742 H 4.2730194 Z"
         style="stroke-width:0.264583"
         id="path915" />
      <path
         d="m 5.3666292,293.98453 h 0.1393473 v -0.60854 c 0,-0.11995 -0.010583,-0.24519 -0.019403,-0.3616 h 0.00706 c 0.038806,0.0847 0.081139,0.1711 0.1252362,0.24871 l 0.4127502,0.72143 H 6.19037 v -1.15711 H 6.0510185 v 0.60325 c 0,0.11994 0.010583,0.24694 0.019403,0.36689 h -0.00706 c -0.040569,-0.0847 -0.081139,-0.1711 -0.1252362,-0.24871 l -0.412746,-0.72143 H 5.3666292 Z"
         style="stroke-width:0.264583"
         id="path918" />
      <path
         d="m 6.8765188,293.98453 h 0.2963335 c 0.3492503,0 0.5397504,-0.2152 0.5397504,-0.58385 0,-0.36689 -0.1905001,-0.57326 -0.5468059,-0.57326 h -0.289278 z m 0.1481668,-0.12171 v -0.9137 h 0.1305278 c 0.2698752,0 0.4039308,0.16052 0.4039308,0.45156 0,0.29281 -0.1340556,0.46214 -0.4039308,0.46214 z"
         style="stroke-width:0.264583"
         id="path920" />
      <path
         d="m 8.3334909,293.98453 h 0.6843894 v -0.12524 H 8.4816577 v -0.4198 h 0.4374447 v -0.12524 H 8.4816577 v -0.3616 h 0.5185837 v -0.12523 H 8.3334909 Z"
         style="stroke-width:0.264583"
         id="path922-1" />
    </g>
    <rect
       style="fill:none;fill-opacity:1;stroke:#555d50;stroke-width:0.265;stroke-miterlimit:4;stroke-dasharray:none;stroke-opacity:1"
       id="rect866"
       width="8.7350006"
       height="55.735001"
       x="0.71250004"
       y="232.63251"
       ry="1"
       rx="1" />
    <rect
       style="fill:none;fill-opacity:1;stroke:#555d50;stroke-width:0.265;stroke-miterlimit:4;stroke-dasharray:none;stroke-opacity:1"
       id="rect868"
       width="8.7350006"
       height="50.735001"
       x="0.71250004"
       y="179.63251"
       ry="1"
       rx="1" />
    <rect
       style="fill:#555d50;fill-opacity:1;stroke:none;stroke-width:0.829457;stroke-opacity:0.25"
       id="rect937"
       width="9"
       height="12"
       x="0.58000004"
       y="195" />
    <g
       aria-label="V/Oct"
       id="g973"
       style="font-size:2.82223px;line-height:1.25;font-family:'PTQ Sans Narrow';-inkscape-font-specification:'PTQ Sans Narrow, Normal';stroke-width:0.264583"
       transform="translate(-11.884099,23.24107)">
      <path
         d="m 14.785344,214.65837 -0.293512,-1.15993 h -0.420513 l 0.603958,1.98967 h 0.270934 l 0.598312,-1.98967 h -0.375356 l -0.287868,1.15711 -0.04515,0.34149 h -0.01129 z"
         style="stroke-width:0.264583"
         id="path963" />
      <path
         d="m 16.298054,213.46457 -0.829735,2.30576 0.259645,0.0988 0.826913,-2.30576 z"
         style="stroke-width:0.264583"
         id="path965" />
      <path
         d="m 17.982923,214.48622 c 0,-0.55034 -0.155223,-1.02729 -0.699913,-1.02729 -0.533402,0 -0.697091,0.44873 -0.697091,1.02729 0,0.55598 0.146756,1.02729 0.697091,1.02729 0.527757,0 0.699913,-0.44873 0.699913,-1.02729 z m -1.02447,0 c 0,-0.46567 0.107245,-0.69991 0.324557,-0.69991 0.06209,0 0.112889,0.0198 0.155222,0.0564 0.135468,0.12136 0.172157,0.381 0.172157,0.64347 0,0.24553 -0.02822,0.42333 -0.08185,0.5334 -0.05645,0.11289 -0.138289,0.16651 -0.245534,0.16651 -0.06209,0 -0.112889,-0.0169 -0.152401,-0.0536 -0.141111,-0.12136 -0.172156,-0.37536 -0.172156,-0.64629 z"
         style="stroke-width:0.264583"
         id="path967" />
      <path
         d="m 18.736457,215.20306 c -0.200378,0 -0.254001,-0.21731 -0.254001,-0.43462 0,-0.1524 0.01976,-0.26247 0.05927,-0.3302 0.03951,-0.0677 0.09878,-0.10442 0.177801,-0.10442 0.09313,0 0.141111,0.0197 0.208845,0.0508 l 0.07902,-0.2794 c -0.09596,-0.0508 -0.194734,-0.079 -0.349957,-0.079 -0.392289,0 -0.522112,0.31609 -0.522112,0.74225 0,0.41487 0.107245,0.74225 0.516468,0.74225 0.143934,0 0.282223,-0.0452 0.36689,-0.11289 l -0.07056,-0.25965 c -0.05927,0.0395 -0.118533,0.0649 -0.211667,0.0649 z"
         style="stroke-width:0.264583"
         id="path969" />
      <path
         d="m 19.540788,215.50787 c 0.118534,0 0.234245,-0.031 0.31609,-0.0734 l -0.04233,-0.26811 c -0.0508,0.0226 -0.08749,0.0339 -0.149578,0.0339 -0.104422,0 -0.110067,-0.096 -0.110067,-0.22295 v -0.61525 h 0.273756 v -0.29916 h -0.273756 v -0.36971 l -0.335845,0.10442 v 0.26529 h -0.155223 v 0.29916 h 0.155223 v 0.73942 c 0,0.26247 0.07902,0.40641 0.321734,0.40641 z"
         style="stroke-width:0.264583"
         id="path971" />
    </g>
    <g
       aria-label="Gate"
       id="g983"
       style="font-size:2.82223px;line-height:1.25;font-family:'PTQ Sans Narrow';-inkscape-font-specification:'PTQ Sans Narrow, Normal';stroke-width:0.264583"
       transform="translate(-12.095633,38.81718)">
      <path
         d="m 15.725013,220.10997 c -0.118534,0 -0.21449,-0.0564 -0.287868,-0.16933 -0.07338,-0.11289 -0.107244,-0.28787 -0.107244,-0.52776 0,-0.36124 0.0762,-0.70273 0.428979,-0.70273 0.129822,0 0.225778,0.0226 0.313267,0.0593 l 0.07338,-0.30763 c -0.110067,-0.0452 -0.268112,-0.079 -0.431801,-0.079 -0.23989,0 -0.412046,0.0931 -0.530579,0.23425 -0.152401,0.18062 -0.225779,0.44591 -0.225779,0.79304 0,0.18062 0.01693,0.33585 0.0508,0.46567 0.08749,0.32738 0.279401,0.56162 0.680158,0.56162 0.214489,0 0.400757,-0.0705 0.522112,-0.18626 v -0.87489 h -0.609601 v 0.21448 l 0.324556,0.0452 v 0.40358 c -0.04798,0.0452 -0.115711,0.0705 -0.200378,0.0705 z"
         style="stroke-width:0.264583"
         id="path975" />
      <path
         d="m 16.836968,219.24637 c 0.172156,0 0.186268,0.12136 0.172156,0.31045 -0.381001,-0.0198 -0.668868,0.0931 -0.668868,0.45155 0,0.23707 0.127,0.40923 0.358423,0.40923 0.166512,0 0.270934,-0.079 0.333023,-0.18909 h 0.01129 l 0.05362,0.17215 h 0.273756 c -0.08467,-0.27093 -0.0254,-0.64064 -0.0254,-0.9652 0,-0.31044 -0.115712,-0.47695 -0.428979,-0.47695 -0.203201,0 -0.381001,0.0423 -0.499535,0.11288 l 0.08467,0.25118 c 0.08185,-0.0423 0.211667,-0.0762 0.335844,-0.0762 z m -0.149578,0.70556 c 0,-0.16087 0.160867,-0.19756 0.327379,-0.1778 v 0.23424 c -0.03387,0.0649 -0.09878,0.12136 -0.194734,0.12136 -0.09596,0 -0.132645,-0.0734 -0.132645,-0.1778 z"
         style="stroke-width:0.264583"
         id="path977" />
      <path
         d="m 17.9461,220.43171 c 0.118534,0 0.234245,-0.0311 0.31609,-0.0734 l -0.04233,-0.26811 c -0.0508,0.0226 -0.08749,0.0339 -0.149578,0.0339 -0.104423,0 -0.110067,-0.096 -0.110067,-0.22296 v -0.61525 h 0.273756 v -0.29915 h -0.273756 v -0.36971 l -0.335845,0.10442 v 0.26529 h -0.155223 v 0.29915 h 0.155223 v 0.73943 c 0,0.26247 0.07902,0.4064 0.321734,0.4064 z"
         style="stroke-width:0.264583"
         id="path979" />
      <path
         d="m 18.970565,220.14666 c -0.21449,0 -0.285045,-0.14393 -0.29069,-0.36124 h 0.685802 c 0.01411,-0.0931 0.02822,-0.18345 0.02822,-0.28505 0,-0.33584 -0.149578,-0.55315 -0.474134,-0.55315 -0.180623,0 -0.318912,0.0621 -0.420513,0.18344 -0.1016,0.12136 -0.149578,0.30762 -0.149578,0.56162 0,0.42616 0.135467,0.74225 0.558802,0.74225 0.172156,0 0.352779,-0.0593 0.445912,-0.14111 l -0.104422,-0.23425 c -0.05927,0.048 -0.172156,0.0875 -0.279401,0.0875 z m 0.110067,-0.5842 h -0.389468 c 0.0085,-0.17215 0.05645,-0.32738 0.222956,-0.32738 0.143934,0 0.174979,0.15805 0.166512,0.32738 z"
         style="stroke-width:0.264583"
         id="path981" />
    </g>
    <g
       aria-label="Chans"
       id="g995"
       style="font-size:2.82223px;line-height:1.25;font-family:'PTQ Sans Narrow';-inkscape-font-specification:'PTQ Sans Narrow, Normal';stroke-width:0.264583"
       transform="translate(-14.011467,56.01745)">
      <path
         d="m 16.970568,223.60975 c -0.0762,0 -0.141111,-0.0169 -0.194734,-0.0508 -0.174978,-0.11007 -0.231422,-0.35843 -0.231422,-0.64912 0,-0.23989 0.03387,-0.41769 0.104422,-0.53058 0.06773,-0.11289 0.169334,-0.16933 0.299157,-0.16933 0.121355,0 0.217311,0.0198 0.296334,0.0593 l 0.07055,-0.31327 c -0.104422,-0.0452 -0.248356,-0.0734 -0.409223,-0.0734 -0.222956,0 -0.389468,0.0819 -0.505179,0.21449 -0.158045,0.1778 -0.228601,0.45156 -0.228601,0.80998 0,0.19191 0.01693,0.3556 0.05645,0.48542 0.09031,0.31892 0.279401,0.54469 0.668868,0.54469 0.166512,0 0.347135,-0.0395 0.440268,-0.11853 l -0.07056,-0.29916 c -0.07902,0.0508 -0.166512,0.0903 -0.296335,0.0903 z"
         style="stroke-width:0.264583"
         id="path985" />
      <path
         d="m 18.184124,222.44981 c -0.166512,0 -0.268112,0.0706 -0.338668,0.16369 h -0.0085 v -0.69145 H 17.50111 v 1.97556 h 0.335846 v -0.97084 c 0.02258,-0.0847 0.09878,-0.16934 0.200378,-0.16934 0.143934,0 0.163689,0.12136 0.163689,0.28787 v 0.85231 h 0.335846 v -0.92569 c 0,-0.30198 -0.05927,-0.52211 -0.352779,-0.52211 z"
         style="stroke-width:0.264583"
         id="path987" />
      <path
         d="m 19.191658,222.74614 c 0.172156,0 0.186267,0.12136 0.172156,0.31045 -0.381001,-0.0198 -0.668868,0.0931 -0.668868,0.45156 0,0.23706 0.127,0.40922 0.358423,0.40922 0.166512,0 0.270934,-0.079 0.333023,-0.18909 h 0.01129 l 0.05362,0.17216 h 0.273757 c -0.08467,-0.27094 -0.0254,-0.64065 -0.0254,-0.96521 0,-0.31044 -0.115712,-0.47695 -0.428979,-0.47695 -0.203201,0 -0.381001,0.0423 -0.499535,0.11289 l 0.08467,0.25117 c 0.08184,-0.0423 0.211667,-0.0762 0.335845,-0.0762 z m -0.149578,0.70556 c 0,-0.16087 0.160867,-0.19755 0.327379,-0.1778 v 0.23425 c -0.03387,0.0649 -0.09878,0.12135 -0.194734,0.12135 -0.09596,0 -0.132645,-0.0734 -0.132645,-0.1778 z"
         style="stroke-width:0.264583"
         id="path989" />
      <path
         d="m 20.616879,222.45263 c -0.186267,0 -0.299156,0.0875 -0.366889,0.19756 h -0.0085 L 20.20198,222.4865 H 19.9339 v 1.41111 h 0.335845 v -0.97931 c 0.0254,-0.079 0.09596,-0.15805 0.203201,-0.15805 0.141111,0 0.160867,0.11289 0.160867,0.27941 v 0.85795 h 0.335845 v -0.9398 c 0,-0.29351 -0.06773,-0.50518 -0.352779,-0.50518 z"
         style="stroke-width:0.264583"
         id="path991" />
      <path
         d="m 21.525636,223.64644 c -0.118534,0 -0.225779,-0.0395 -0.299157,-0.0847 l -0.09313,0.27093 c 0.08749,0.0621 0.254,0.1016 0.406401,0.1016 0.29069,0 0.471312,-0.1524 0.471312,-0.4318 0,-0.29351 -0.2032,-0.38382 -0.386645,-0.49107 -0.06209,-0.0339 -0.135467,-0.0734 -0.135467,-0.15804 0,-0.0762 0.04516,-0.11571 0.138289,-0.11571 0.09596,0 0.208845,0.0367 0.279401,0.0649 l 0.07902,-0.25965 c -0.09313,-0.0536 -0.256823,-0.0931 -0.409223,-0.0931 -0.273756,0 -0.423335,0.14393 -0.423335,0.41205 0,0.29351 0.206023,0.37817 0.386646,0.48542 0.06209,0.0367 0.135467,0.0847 0.135467,0.17498 0,0.0875 -0.06491,0.12418 -0.149578,0.12418 z"
         style="stroke-width:0.264583"
         id="path993" />
    </g>
    <rect
       style="fill:#555d50;fill-opacity:1;stroke:none;stroke-width:0.829458;stroke-opacity:0.25"
       id="rect997"
       width="9"
       height="9.5999994"
       x="0.57999998"
       y="267" />
    <rect
       style="fill:#555d50;fill-opacity:1;stroke:none;stroke-width:0.829458;stroke-opacity:0.25"
       id="rect999"
       width="9"
       height="9.6999998"
       x="0.58000004"
       y="246.39999" />
    <g
       aria-label="Tails"
       id="text911"
       style="font-size:4.9389px;line-height:1.25;font-family:'PTQ Sans Narrow';-inkscape-font-specification:'PTQ Sans Narrow, Normal';stroke-width:0.264583"
       transform="translate(-13.780416,0.20237)">
      <path
         d="m 17.193553,174.41993 v -0.57292 h -2.262016 v 0.57292 h 0.819858 v 2.88431 h 0.622301 v -2.88431 z"
         style="stroke-width:0.264583"
         id="path917" />
      <path
         d="m 17.76152,175.28917 c 0.301273,0 0.325967,0.21238 0.301273,0.54328 -0.666752,-0.0346 -1.17052,0.16299 -1.17052,0.79023 0,0.41486 0.222251,0.71614 0.627241,0.71614 0.291395,0 0.474134,-0.13829 0.58279,-0.33091 h 0.01976 l 0.09384,0.30127 h 0.479073 c -0.148167,-0.47413 -0.04445,-1.12113 -0.04445,-1.6891 0,-0.54328 -0.202495,-0.83467 -0.750713,-0.83467 -0.355601,0 -0.666751,0.0741 -0.874185,0.19755 l 0.148167,0.43956 c 0.143228,-0.0741 0.370417,-0.13335 0.587729,-0.13335 z m -0.261762,1.23473 c 0,-0.28152 0.281517,-0.34572 0.572913,-0.31115 v 0.40993 c -0.05927,0.11359 -0.172862,0.21237 -0.340785,0.21237 -0.167922,0 -0.232128,-0.12841 -0.232128,-0.31115 z"
         style="stroke-width:0.264583"
         id="path921" />
      <path
         d="m 19.109831,174.83479 v 2.46945 h 0.587729 v -2.46945 z m 0.291395,-0.36547 c 0.217311,0 0.380295,-0.1136 0.380295,-0.33091 0,-0.21237 -0.162984,-0.34078 -0.380295,-0.34078 -0.217312,0 -0.36054,0.13335 -0.36054,0.34078 0,0.21237 0.143228,0.33091 0.36054,0.33091 z"
         style="stroke-width:0.264583"
         id="path923" />
      <path
         d="m 20.675454,177.36351 c 0.162984,0 0.400051,-0.0444 0.49389,-0.10865 l -0.05433,-0.47414 c -0.06914,0.0296 -0.123472,0.0445 -0.197556,0.0445 -0.138289,0 -0.148167,-0.14817 -0.148167,-0.32103 v -2.65713 h -0.587729 v 2.97322 c 0,0.37536 0.13829,0.54328 0.49389,0.54328 z"
         style="stroke-width:0.264583"
         id="path925" />
      <path
         d="m 21.939803,176.86468 c -0.207433,0 -0.395112,-0.0691 -0.523523,-0.14816 l -0.162984,0.47413 c 0.153106,0.10866 0.444501,0.1778 0.711202,0.1778 0.508707,0 0.824796,-0.2667 0.824796,-0.75565 0,-0.51365 -0.355601,-0.67169 -0.676629,-0.85937 -0.108656,-0.0593 -0.237067,-0.12841 -0.237067,-0.27658 0,-0.13335 0.07902,-0.20249 0.242006,-0.20249 0.167922,0 0.365478,0.0642 0.488951,0.11359 l 0.138289,-0.45438 c -0.162984,-0.0938 -0.44944,-0.16298 -0.71614,-0.16298 -0.479074,0 -0.740835,0.25188 -0.740835,0.72108 0,0.51364 0.360539,0.66181 0.676629,0.84949 0.108656,0.0642 0.237067,0.14817 0.237067,0.30621 0,0.15311 -0.113595,0.21731 -0.261762,0.21731 z"
         style="stroke-width:0.264583"
         id="path927" />
    </g>
    <g
       aria-label="Out"
       id="text943"
       style="font-size:2.82223px;line-height:1.25;font-family:'PTQ Sans Narrow';-inkscape-font-specification:'PTQ Sans Narrow, Normal';fill:#fffff0;fill-opacity:1;stroke-width:0.265;stroke-miterlimit:4;stroke-dasharray:none"
       transform="translate(-14.472935,7.03204)">
      <path
         d="m 19.17899,189.49525 c 0,-0.55033 -0.155222,-1.02729 -0.699913,-1.02729 -0.533401,0 -0.69709,0.44873 -0.69709,1.02729 0,0.55598 0.146756,1.02729 0.69709,1.02729 0.527757,0 0.699913,-0.44873 0.699913,-1.02729 z m -1.024469,0 c 0,-0.46567 0.107245,-0.69991 0.324556,-0.69991 0.06209,0 0.11289,0.0197 0.155223,0.0564 0.135467,0.12136 0.172156,0.381 0.172156,0.64347 0,0.24554 -0.02822,0.42334 -0.08185,0.5334 -0.05644,0.11289 -0.138289,0.16651 -0.245534,0.16651 -0.06209,0 -0.112889,-0.0169 -0.1524,-0.0536 -0.141112,-0.12135 -0.172156,-0.37535 -0.172156,-0.64629 z"
         style="fill:#fffff0;fill-opacity:1;stroke-width:0.265;stroke-miterlimit:4;stroke-dasharray:none"
         id="path945" />
      <path
         d="m 19.740613,190.51972 c 0.186267,0 0.304801,-0.1016 0.372534,-0.2286 h 0.0085 l 0.05927,0.19191 h 0.254 c -0.03104,-0.11853 -0.03951,-0.27658 -0.03951,-0.42898 v -0.98213 h -0.335845 v 0.94262 c -0.02822,0.096 -0.09596,0.19756 -0.208845,0.19756 -0.138289,0 -0.143934,-0.127 -0.143934,-0.29634 v -0.84384 h -0.335845 v 0.91722 c 0,0.31327 0.06491,0.53058 0.369712,0.53058 z"
         style="fill:#fffff0;fill-opacity:1;stroke-width:0.265;stroke-miterlimit:4;stroke-dasharray:none"
         id="path947" />
      <path
         d="m 21.007792,190.5169 c 0.118534,0 0.234245,-0.031 0.31609,-0.0734 l -0.04233,-0.26811 c -0.0508,0.0226 -0.08749,0.0339 -0.149578,0.0339 -0.104423,0 -0.110067,-0.096 -0.110067,-0.22296 v -0.61525 h 0.273756 v -0.29915 h -0.273756 v -0.36971 l -0.335845,0.10442 v 0.26529 h -0.155223 v 0.29915 h 0.155223 v 0.73943 c 0,0.26247 0.07902,0.4064 0.321734,0.4064 z"
         style="fill:#fffff0;fill-opacity:1;stroke-width:0.265;stroke-miterlimit:4;stroke-dasharray:none"
         id="path949" />
    </g>
    <g
       aria-label="In"
       id="text929"
       style="font-size:2.82223px;line-height:1.25;font-family:'PTQ Sans Narrow';-inkscape-font-specification:'PTQ Sans Narrow, Normal';stroke-width:0.264583"
       transform="translate(-13.542541,2.24235)">
      <path
         d="m 17.787178,181.25765 v 1.97557 h 0.355601 v -1.97557 z"
         style="stroke-width:0.264583"
         id="path936" />
      <path
         d="m 19.105157,181.78823 c -0.186268,0 -0.299157,0.0875 -0.36689,0.19756 h -0.0085 l -0.03951,-0.16369 h -0.268112 v 1.41112 h 0.335845 v -0.97932 c 0.0254,-0.079 0.09596,-0.15804 0.203201,-0.15804 0.141111,0 0.160867,0.11289 0.160867,0.2794 v 0.85796 h 0.335845 v -0.93981 c 0,-0.29351 -0.06773,-0.50518 -0.352778,-0.50518 z"
         style="stroke-width:0.264583"
         id="path938" />
    </g>
    <g
       aria-label="Gain"
       id="text954"
       style="font-size:2.82223px;line-height:1.25;font-family:'PTQ Sans Narrow';-inkscape-font-specification:'PTQ Sans Narrow, Normal';stroke-width:0.264583"
       transform="translate(-11.751326,-0.4721)">
      <path
         d="m 15.452687,222.09925 c -0.118533,0 -0.214489,-0.0565 -0.287867,-0.16934 -0.07338,-0.11289 -0.107245,-0.28786 -0.107245,-0.52775 0,-0.36125 0.0762,-0.70274 0.428979,-0.70274 0.129823,0 0.225779,0.0226 0.313268,0.0593 l 0.07338,-0.30762 c -0.110067,-0.0452 -0.268112,-0.079 -0.431802,-0.079 -0.239889,0 -0.412045,0.0931 -0.530579,0.23425 -0.1524,0.18062 -0.225778,0.44591 -0.225778,0.79304 0,0.18063 0.01693,0.33585 0.0508,0.46567 0.08749,0.32738 0.279401,0.56163 0.680157,0.56163 0.21449,0 0.400757,-0.0706 0.522113,-0.18627 v -0.87489 h -0.609602 v 0.21449 l 0.324557,0.0452 v 0.40358 c -0.04798,0.0452 -0.115712,0.0706 -0.200379,0.0706 z"
         style="stroke-width:0.264583"
         id="path956" />
      <path
         d="m 16.564643,221.23565 c 0.172156,0 0.186267,0.12135 0.172156,0.31044 -0.381001,-0.0197 -0.668869,0.0931 -0.668869,0.45156 0,0.23707 0.127001,0.40922 0.358424,0.40922 0.166511,0 0.270934,-0.079 0.333023,-0.18909 h 0.01129 l 0.05362,0.17216 h 0.273756 c -0.08467,-0.27094 -0.0254,-0.64065 -0.0254,-0.9652 0,-0.31045 -0.115711,-0.47696 -0.428979,-0.47696 -0.2032,0 -0.381001,0.0423 -0.499534,0.11289 l 0.08467,0.25118 c 0.08184,-0.0423 0.211667,-0.0762 0.335845,-0.0762 z m -0.149578,0.70555 c 0,-0.16086 0.160867,-0.19755 0.327378,-0.1778 v 0.23425 c -0.03387,0.0649 -0.09878,0.12135 -0.194733,0.12135 -0.09596,0 -0.132645,-0.0734 -0.132645,-0.1778 z"
         style="stroke-width:0.264583"
         id="path958" />
      <path
         d="m 17.335107,220.976 v 1.41112 h 0.335845 V 220.976 Z m 0.166511,-0.20884 c 0.124178,0 0.217312,-0.0649 0.217312,-0.18909 0,-0.12136 -0.09313,-0.19474 -0.217312,-0.19474 -0.124178,0 -0.206023,0.0762 -0.206023,0.19474 0,0.12135 0.08185,0.18909 0.206023,0.18909 z"
         style="stroke-width:0.264583"
         id="path960" />
      <path
         d="m 18.624862,220.94213 c -0.186267,0 -0.299157,0.0875 -0.36689,0.19756 h -0.0085 L 18.209962,220.976 H 17.94185 v 1.41112 h 0.335845 v -0.97932 c 0.0254,-0.079 0.09596,-0.15804 0.203201,-0.15804 0.141111,0 0.160867,0.11289 0.160867,0.2794 v 0.85796 h 0.335845 v -0.93981 c 0,-0.29351 -0.06773,-0.50518 -0.352778,-0.50518 z"
         style="stroke-width:0.264583"
         id="path962" />
    </g>
    <g
       aria-label="CV"
       id="text914"
       style="font-size:2.82223px;line-height:1.25;font-family:'PTQ Sans Narrow';-inkscape-font-specification:'PTQ Sans Narrow, Normal';display:inline;stroke-width:0.264583"
       transform="translate(-11.238557,167.82779)">
      <path
         d="m 15.874056,41.899411 c -0.0762,0 -0.141112,-0.01693 -0.194734,-0.0508 -0.174979,-0.110067 -0.231423,-0.358423 -0.231423,-0.649113 0,-0.239889 0.03387,-0.41769 0.104422,-0.530579 0.06773,-0.112889 0.169334,-0.169334 0.299157,-0.169334 0.121356,0 0.217311,0.01976 0.296334,0.05927 l 0.07056,-0.313268 c -0.104423,-0.04516 -0.248357,-0.07338 -0.409224,-0.07338 -0.222956,0 -0.389467,0.08184 -0.505179,0.21449 -0.158045,0.1778 -0.228601,0.451557 -0.228601,0.80998 0,0.191912 0.01693,0.355601 0.05645,0.485424 0.09031,0.318912 0.279401,0.54469 0.668869,0.54469 0.166511,0 0.347134,-0.03951 0.440267,-0.118534 L 16.17039,41.8091 c -0.07902,0.0508 -0.166512,0.09031 -0.296334,0.09031 z"
         style="stroke-width:0.264583"
         id="path922" />
      <path
         d="m 16.802566,41.371654 -0.293512,-1.159936 h -0.420512 l 0.603957,1.989672 h 0.270934 l 0.598313,-1.989672 h -0.375357 l -0.287867,1.157114 -0.04516,0.34149 h -0.01129 z"
         style="stroke-width:0.264583"
         id="path924" />
    </g>
    <rect
       style="opacity:0.997;fill:#555d50;fill-opacity:1;stroke:none;stroke-width:0.499999"
       id="rect912"
       width="8.8000002"
       height="3.2650001"
       x="0.68000001"
       y="179.60001"
       rx="1"
       ry="1" />
    <rect
       style="opacity:0.997;fill:#555d50;fill-opacity:1;stroke:none;stroke-width:0.499999"
       id="rect928"
       width="8.8000002"
       height="3.2650001"
       x="0.68000001"
       y="232.60001"
       rx="1"
       ry="1" />
    <rect
       style="fill:#555d50;fill-opacity:1;stroke-width:0.25;stroke-opacity:0.647059"
       id="rect17238"
       width="8.8000002"
       height="1"
       x="0.68000001"
       y="234.86501"
       rx="1.3877788e-16"
       ry="1.3877788e-16" />
    <g
       id="g931"
       transform="translate(-1.66893e-8,0.06930463)">
      <path
         d="m 2.707914,234.11882 0.561624,0.98496 h 0.273756 v -1.98967 H 3.207449 v 0.98496 l 0.04516,0.33584 H 3.235679 L 3.114323,234.09342 2.547055,233.1 H 2.273299 v 1.98967 h 0.335837 v -0.97649 l -0.04515,-0.34149 h 0.01411 z"
         style="font-size:2.82223px;line-height:1.25;font-family:'PTQ Sans Narrow';-inkscape-font-specification:'PTQ Sans Narrow, Normal';fill:#fffff0;fill-opacity:1;stroke-width:0.264583"
         id="path942" />
      <path
         d="m 4.855629,234.38411 c 0,-0.44026 -0.143934,-0.74224 -0.558802,-0.74224 -0.400757,0 -0.555979,0.30762 -0.555979,0.74224 0,0.49672 0.183445,0.74225 0.555979,0.74225 0.403579,0 0.558802,-0.30198 0.558802,-0.74225 z m -0.767647,0 c 0,-0.16086 0.01693,-0.27375 0.05362,-0.34149 0.03669,-0.0677 0.08749,-0.1016 0.155223,-0.1016 0.0762,0 0.129823,0.0395 0.163689,0.11289 0.03105,0.0762 0.04798,0.18627 0.04798,0.3302 0,0.16369 -0.01975,0.27658 -0.05362,0.34432 -0.03387,0.0677 -0.08749,0.0988 -0.158045,0.0988 -0.183445,0 -0.208845,-0.22577 -0.208845,-0.44309 z"
         style="font-size:2.82223px;line-height:1.25;font-family:'PTQ Sans Narrow';-inkscape-font-specification:'PTQ Sans Narrow, Normal';fill:#fffff0;fill-opacity:1;stroke-width:0.264583"
         id="path944" />
      <path
         d="m 5.414429,235.12354 c 0.118534,0 0.234245,-0.031 0.31609,-0.0734 l -0.04233,-0.26811 c -0.0508,0.0226 -0.08749,0.0339 -0.149579,0.0339 -0.104422,0 -0.110067,-0.0959 -0.110067,-0.22295 v -0.61525 H 5.7023 v -0.29915 H 5.428543 v -0.36972 l -0.335845,0.10443 v 0.26529 H 4.937475 v 0.29915 h 0.155223 v 0.73943 c 0,0.26246 0.07902,0.4064 0.321734,0.4064 z"
         style="font-size:2.82223px;line-height:1.25;font-family:'PTQ Sans Narrow';-inkscape-font-specification:'PTQ Sans Narrow, Normal';fill:#fffff0;fill-opacity:1;stroke-width:0.264583"
         id="path946" />
      <path
         d="m 6.438895,234.83849 c -0.21449,0 -0.285046,-0.14393 -0.29069,-0.36124 h 0.685802 c 0.01411,-0.0931 0.02822,-0.18345 0.02822,-0.28505 0,-0.33584 -0.149578,-0.55316 -0.474135,-0.55316 -0.180622,0 -0.318912,0.0621 -0.420512,0.18345 -0.1016,0.12136 -0.149578,0.30762 -0.149578,0.56162 0,0.42616 0.135467,0.74225 0.558801,0.74225 0.172156,0 0.352779,-0.0593 0.445913,-0.14111 L 6.718293,234.751 c -0.05927,0.048 -0.172156,0.0875 -0.2794,0.0875 z m 0.110066,-0.5842 H 6.159494 c 0.0085,-0.17216 0.05644,-0.32738 0.222956,-0.32738 0.143934,0 0.174978,0.15805 0.166511,0.32738 z"
         style="font-size:2.82223px;line-height:1.25;font-family:'PTQ Sans Narrow';-inkscape-font-specification:'PTQ Sans Narrow, Normal';fill:#fffff0;fill-opacity:1;stroke-width:0.264583"
         id="path948" />
      <path
         d="m 7.401273,234.83849 c -0.118533,0 -0.225778,-0.0395 -0.299156,-0.0847 l -0.09313,0.27093 c 0.08749,0.0621 0.254001,0.1016 0.406402,0.1016 0.290689,0 0.471312,-0.1524 0.471312,-0.4318 0,-0.29351 -0.203201,-0.38382 -0.386646,-0.49107 -0.06209,-0.0339 -0.135467,-0.0734 -0.135467,-0.15804 0,-0.0762 0.04516,-0.11572 0.13829,-0.11572 0.09596,0 0.208845,0.0367 0.2794,0.0649 l 0.07902,-0.25965 c -0.09313,-0.0536 -0.256823,-0.0931 -0.409223,-0.0931 -0.273757,0 -0.423335,0.14393 -0.423335,0.41204 0,0.29351 0.206023,0.37818 0.386646,0.48543 0.06209,0.0367 0.135467,0.0847 0.135467,0.17497 0,0.0875 -0.06491,0.12418 -0.149579,0.12418 z"
         style="font-size:2.82223px;line-height:1.25;font-family:'PTQ Sans Narrow';-inkscape-font-specification:'PTQ Sans Narrow, Normal';fill:#fffff0;fill-opacity:1;stroke-width:0.264583"
         id="path950" />
    </g>
    <rect
       style="fill:#555d50;fill-opacity:1;stroke-width:0.25;stroke-opacity:0.647059"
       id="rect17240"
       width="8.8000002"
       height="1"
       x="0.67999989"
       y="181.86501"
       rx="1.3877788e-16"
       ry="1.3877788e-16" />
    <g
       aria-label="VCA"
       id="text909"
       style="font-size:2.82223px;line-height:1.25;font-family:'PTQ Sans Narrow';-inkscape-font-specification:'PTQ Sans Narrow, Normal';fill:#fffff0;fill-opacity:1;stroke-width:0.264583"
       transform="translate(-15.903508,-0.42758511)">
      <path
         d="m 19.706453,181.78223 -0.293512,-1.15994 h -0.420512 l 0.603957,1.98968 h 0.270934 l 0.598313,-1.98968 h -0.375357 l -0.287867,1.15712 -0.04516,0.34149 h -0.01129 z"
         style="fill:#fffff0;fill-opacity:1;stroke-width:0.264583"
         id="path912" />
      <path
         d="m 21.25303,182.30999 c -0.0762,0 -0.141112,-0.0169 -0.194734,-0.0508 -0.174978,-0.11007 -0.231423,-0.35843 -0.231423,-0.64912 0,-0.23989 0.03387,-0.41769 0.104423,-0.53058 0.06773,-0.11288 0.169333,-0.16933 0.299156,-0.16933 0.121356,0 0.217312,0.0198 0.296334,0.0593 l 0.07056,-0.31327 c -0.104423,-0.0452 -0.248356,-0.0734 -0.409224,-0.0734 -0.222956,0 -0.389467,0.0818 -0.505179,0.21449 -0.158045,0.1778 -0.2286,0.45156 -0.2286,0.80998 0,0.19191 0.01693,0.3556 0.05644,0.48543 0.09031,0.31891 0.279401,0.54469 0.668869,0.54469 0.166511,0 0.347134,-0.0395 0.440268,-0.11854 l -0.07056,-0.29915 c -0.07902,0.0508 -0.166512,0.0903 -0.296334,0.0903 z"
         style="fill:#fffff0;fill-opacity:1;stroke-width:0.264583"
         id="path914" />
      <path
         d="m 22.480696,182.15194 0.121356,0.44591 h 0.372535 l -0.575735,-1.98967 h -0.279401 l -0.572913,1.98967 h 0.352779 l 0.115711,-0.44591 z m -0.389467,-0.29351 0.110067,-0.4572 0.04798,-0.31327 h 0.01129 l 0.04516,0.31045 0.112889,0.46002 z"
         style="fill:#fffff0;fill-opacity:1;stroke-width:0.264583"
         id="path916" />
    </g>
  </g>
  <g
     style="display:none"
     inkscape:label="components"
     id="layer2"
     inkscape:groupmode="layer">
    <circle
       cy="46.000004"
       cx="5.0799999"
       id="path11"
       style="fill:#00ff00;fill-rule:evenodd;stroke-width:0.264582"
       inkscape:label="CV_In"
       r="4" />
    <circle
       cy="21.500004"
       cx="5.0799999"
       id="circle860"
       style="fill:#00ff00;fill-rule:evenodd;stroke-width:0.264582"
       inkscape:label="CV_In"
       r="4" />
    <circle
       style="fill:#0000ff;fill-rule:evenodd;stroke-width:0.264582"
       id="circle862"
       cx="5.0799999"
       cy="33.5"
       inkscape:label="CV_Out"
       r="4" />
    <circle
       style="fill:#000000;fill-opacity:1;fill-rule:evenodd;stroke-width:0.264582"
       id="circle864"
       cx="5.0799999"
       cy="57"
       inkscape:label="CV_Out"
       r="3.5" />
    <circle
       cy="74"
       cx="5.0799999"
       id="circle951"
       style="fill:#00ff00;fill-rule:evenodd;stroke-width:0.264582"
       inkscape:label="CV_In"
       r="3.4000001" />
    <circle
       style="fill:#0000ff;fill-rule:evenodd;stroke-width:0.264582"
       id="circle953"
       cx="5.0799999"
       cy="82.800003"
       inkscape:label="CV_Out"
       r="4" />
    <circle
       cy="94.5"
       cx="5.0799999"
       id="circle955"
       style="fill:#00ff00;fill-rule:evenodd;stroke-width:0.264582"
       inkscape:label="CV_In"
       r="3.4000001" />
    <circle
       style="fill:#0000ff;fill-rule:evenodd;stroke-width:0.264582"
       id="circle959"
       cx="5.0799999"
       cy="103.3"
       inkscape:label="CV_Out"
       r="4" />
    <circle
       style="fill:#000000;fill-opacity:1;fill-rule:evenodd;stroke-width:0.264582"
       id="circle961"
       cx="5.0799999"
       cy="115"
       inkscape:label="CV_Out"
       r="3.5" />
  </g>
</svg>
