<?xml version="1.0" encoding="UTF-8"?>
<svg id="svg8" width="10.16mm" height="128.5mm" version="1.1" viewBox="0 0 10.16 128.5" xmlns="http://www.w3.org/2000/svg" xmlns:cc="http://creativecommons.org/ns#" xmlns:dc="http://purl.org/dc/elements/1.1/" xmlns:rdf="http://www.w3.org/1999/02/22-rdf-syntax-ns#">
 <metadata id="metadata5">
  <rdf:RDF>
   <cc:Work rdf:about="">
    <dc:format>image/svg+xml</dc:format>
    <dc:type rdf:resource="http://purl.org/dc/dcmitype/StillImage"/>
    <dc:title/>
   </cc:Work>
  </rdf:RDF>
 </metadata>
 <g id="layer1" transform="translate(0,-168.5)">
  <rect id="rect838" x="-5.5511e-17" y="168.5" width="10.16" height="128.5" fill="#bbbbb0"/>
  <g id="text851" transform="translate(19.465 -2.8689)" fill="#fffff0" stroke-width=".26458" aria-label="CV Out">
   <path id="path931" d="m3.118 263.03q0-0.50236 0.17216-0.76483 0.17216-0.26247 0.52493-0.26247 0.18344 0 0.31609 0.0734 0.13264 0.0706 0.21731 0.20602 0.084667 0.13265 0.12418 0.32456 0.042333 0.18909 0.042333 0.42334 0 0.50235-0.1778 0.76482-0.17498 0.26247-0.52211 0.26247-0.18627 0-0.31891-0.0706-0.12982-0.0734-0.21449-0.20602-0.084667-0.13547-0.12418-0.32456-0.039511-0.19191-0.039511-0.42615zm0.37253 0q0 0.14957 0.016933 0.2794 0.016933 0.127 0.056445 0.22013 0.039511 0.0931 0.098778 0.14676 0.062089 0.0536 0.1524 0.0536 0.16369 0 0.24553-0.16651 0.081845-0.16651 0.081845-0.5334 0-0.14394-0.016933-0.27094-0.016933-0.12982-0.056445-0.22296-0.036689-0.0959-0.098778-0.14957-0.062089-0.0564-0.15522-0.0564-0.32456 0-0.32456 0.69992z"/>
   <path id="path933" d="m5.0428 262.6v0.84385q0 0.16651 0.031045 0.23142 0.031045 0.0649 0.11289 0.0649 0.079022 0 0.13264-0.0564 0.053622-0.0593 0.0762-0.14111v-0.94263h0.33585v0.98214q0 0.11571 0.00847 0.2286 0.00847 0.11006 0.031045 0.20038h-0.254l-0.059267-0.19192h-0.00847q-0.053622 0.0988-0.14676 0.16369-0.090311 0.0649-0.22578 0.0649-0.087489 0-0.15522-0.0254-0.067734-0.0226-0.11571-0.0818-0.047978-0.0593-0.073378-0.16087-0.0254-0.10442-0.0254-0.26246v-0.91723z"/>
   <path id="path935" d="m5.8668 262.6h0.15522v-0.26529l0.33585-0.10442v0.36971h0.27376v0.29916h-0.27376v0.61524q0 0.12136 0.022578 0.17216 0.0254 0.0508 0.087489 0.0508 0.042333 0 0.0762-8e-3t0.073378-0.0254l0.042333 0.26811q-0.062089 0.0311-0.14393 0.0508-0.081845 0.0226-0.17216 0.0226-0.16087 0-0.24271-0.0931-0.079022-0.0931-0.079022-0.31327v-0.73942h-0.15522z"/>
  </g>
  <text id="text64" x="2.0529213" y="233.73691" font-family="'PT Sans Narrow'" font-size="2.8222px" font-stretch="condensed" font-weight="bold" stroke-width=".26458" style="line-height:1.25" xml:space="preserve"><tspan id="tspan62" x="2.0529213" y="233.73691" stroke-width=".26458"/></text>
  <g id="text908" transform="translate(-3.0543e-7 -2.3062)" stroke-width=".26458" aria-label="GRANDE">
   <path id="path911" d="m1.6642 294.01c0.15522 0 0.28222-0.0564 0.35807-0.13405v-0.48684h-0.381v0.12171h0.24518v0.30163c-0.045861 0.0423-0.12524 0.067-0.20814 0.067-0.24694 0-0.38276-0.18168-0.38276-0.47273 0-0.28751 0.14817-0.46566 0.381-0.46566 0.11642 0 0.1905 0.0441 0.24871 0.10407l0.081139-0.0917c-0.067028-0.0723-0.17286-0.14287-0.33338-0.14287-0.30692 0-0.53093 0.22754-0.53093 0.59972 0 0.37747 0.21696 0.59972 0.52211 0.59972z"/>
   <path id="path913" d="m2.6679 293.98h0.14817v-0.4886h0.20814l0.27869 0.4886h0.16757l-0.29457-0.50447c0.15699-0.0406 0.25929-0.14641 0.25929-0.32632 0-0.24166-0.16933-0.32632-0.40569-0.32632h-0.3616zm0.14817-0.60854v-0.42863h0.19226c0.17992 0 0.27869 0.0547 0.27869 0.20638 0 0.14816-0.098778 0.22225-0.27869 0.22225z"/>
   <path id="path915" d="m4.2377 293.34c0.04057-0.12876 0.077611-0.25576 0.11289-0.38982h0.00706c0.037042 0.13406 0.074083 0.26106 0.11642 0.38982l0.05468 0.17463h-0.34573zm-0.35454 0.64559h0.14993l0.11113-0.35102h0.42157l0.10936 0.35102h0.15699l-0.38982-1.1571h-0.16933z"/>
   <path id="path918" d="m5.3666 293.98h0.13935v-0.60854c0-0.11995-0.010583-0.24519-0.019403-0.3616h0.00706c0.038806 0.0847 0.081139 0.1711 0.12524 0.24871l0.41275 0.72143h0.15875v-1.1571h-0.13935v0.60325c0 0.11994 0.010583 0.24694 0.019403 0.36689h-0.00706c-0.040569-0.0847-0.081139-0.1711-0.12524-0.24871l-0.41275-0.72143h-0.15875z"/>
   <path id="path920" d="m6.8765 293.98h0.29633c0.34925 0 0.53975-0.2152 0.53975-0.58385 0-0.36689-0.1905-0.57326-0.54681-0.57326h-0.28928zm0.14817-0.12171v-0.9137h0.13053c0.26988 0 0.40393 0.16052 0.40393 0.45156 0 0.29281-0.13406 0.46214-0.40393 0.46214z"/>
   <path id="path922-1" d="m8.3335 293.98h0.68439v-0.12524h-0.53622v-0.4198h0.43744v-0.12524h-0.43744v-0.3616h0.51858v-0.12523h-0.66675z"/>
  </g>
  <rect id="rect866" x=".7125" y="231.63" width="8.735" height="56.735" rx="1" ry="1" fill="none" stroke="#555d50" stroke-width=".265"/>
  <rect id="rect868" x=".7125" y="179.63" width="8.735" height="49.735" rx="1" ry="1" fill="none" stroke="#555d50" stroke-width=".265"/>
  <rect id="rect937" x=".58" y="194.8" width="9" height="11.7" fill="#555d50"/>
  <g id="g973" transform="translate(-11.884 22.141)" stroke-width=".26458" aria-label="V/Oct">
   <path id="path963" d="m14.785 214.66-0.29351-1.1599h-0.42051l0.60396 1.9897h0.27093l0.59831-1.9897h-0.37536l-0.28787 1.1571-0.04515 0.34149h-0.01129z"/>
   <path id="path965" d="m16.298 213.46-0.82974 2.3058 0.25964 0.0988 0.82691-2.3058z"/>
   <path id="path967" d="m17.983 214.49c0-0.55034-0.15522-1.0273-0.69991-1.0273-0.5334 0-0.69709 0.44873-0.69709 1.0273 0 0.55598 0.14676 1.0273 0.69709 1.0273 0.52776 0 0.69991-0.44873 0.69991-1.0273zm-1.0245 0c0-0.46567 0.10724-0.69991 0.32456-0.69991 0.06209 0 0.11289 0.0198 0.15522 0.0564 0.13547 0.12136 0.17216 0.381 0.17216 0.64347 0 0.24553-0.02822 0.42333-0.08185 0.5334-0.05645 0.11289-0.13829 0.16651-0.24553 0.16651-0.06209 0-0.11289-0.0169-0.1524-0.0536-0.14111-0.12136-0.17216-0.37536-0.17216-0.64629z"/>
   <path id="path969" d="m18.736 215.2c-0.20038 0-0.254-0.21731-0.254-0.43462 0-0.1524 0.01976-0.26247 0.05927-0.3302 0.03951-0.0677 0.09878-0.10442 0.1778-0.10442 0.09313 0 0.14111 0.0197 0.20884 0.0508l0.07902-0.2794c-0.09596-0.0508-0.19473-0.079-0.34996-0.079-0.39229 0-0.52211 0.31609-0.52211 0.74225 0 0.41487 0.10724 0.74225 0.51647 0.74225 0.14393 0 0.28222-0.0452 0.36689-0.11289l-0.07056-0.25965c-0.05927 0.0395-0.11853 0.0649-0.21167 0.0649z"/>
   <path id="path971" d="m19.541 215.51c0.11853 0 0.23424-0.031 0.31609-0.0734l-0.04233-0.26811c-0.0508 0.0226-0.08749 0.0339-0.14958 0.0339-0.10442 0-0.11007-0.096-0.11007-0.22295v-0.61525h0.27376v-0.29916h-0.27376v-0.36971l-0.33584 0.10442v0.26529h-0.15522v0.29916h0.15522v0.73942c0 0.26247 0.07902 0.40641 0.32173 0.40641z"/>
  </g>
  <g id="g983" transform="translate(-12.096 38.417)" stroke-width=".26458" aria-label="Gate">
   <path id="path975" d="m15.725 220.11c-0.11853 0-0.21449-0.0564-0.28787-0.16933-0.07338-0.11289-0.10724-0.28787-0.10724-0.52776 0-0.36124 0.0762-0.70273 0.42898-0.70273 0.12982 0 0.22578 0.0226 0.31327 0.0593l0.07338-0.30763c-0.11007-0.0452-0.26811-0.079-0.4318-0.079-0.23989 0-0.41205 0.0931-0.53058 0.23425-0.1524 0.18062-0.22578 0.44591-0.22578 0.79304 0 0.18062 0.01693 0.33585 0.0508 0.46567 0.08749 0.32738 0.2794 0.56162 0.68016 0.56162 0.21449 0 0.40076-0.0705 0.52211-0.18626v-0.87489h-0.6096v0.21448l0.32456 0.0452v0.40358c-0.04798 0.0452-0.11571 0.0705-0.20038 0.0705z"/>
   <path id="path977" d="m16.837 219.25c0.17216 0 0.18627 0.12136 0.17216 0.31045-0.381-0.0198-0.66887 0.0931-0.66887 0.45155 0 0.23707 0.127 0.40923 0.35842 0.40923 0.16651 0 0.27093-0.079 0.33302-0.18909h0.01129l0.05362 0.17215h0.27376c-0.08467-0.27093-0.0254-0.64064-0.0254-0.9652 0-0.31044-0.11571-0.47695-0.42898-0.47695-0.2032 0-0.381 0.0423-0.49954 0.11288l0.08467 0.25118c0.08185-0.0423 0.21167-0.0762 0.33584-0.0762zm-0.14958 0.70556c0-0.16087 0.16087-0.19756 0.32738-0.1778v0.23424c-0.03387 0.0649-0.09878 0.12136-0.19473 0.12136-0.09596 0-0.13264-0.0734-0.13264-0.1778z"/>
   <path id="path979" d="m17.946 220.43c0.11853 0 0.23424-0.0311 0.31609-0.0734l-0.04233-0.26811c-0.0508 0.0226-0.08749 0.0339-0.14958 0.0339-0.10442 0-0.11007-0.096-0.11007-0.22296v-0.61525h0.27376v-0.29915h-0.27376v-0.36971l-0.33584 0.10442v0.26529h-0.15522v0.29915h0.15522v0.73943c0 0.26247 0.07902 0.4064 0.32173 0.4064z"/>
   <path id="path981" d="m18.971 220.15c-0.21449 0-0.28504-0.14393-0.29069-0.36124h0.6858c0.01411-0.0931 0.02822-0.18345 0.02822-0.28505 0-0.33584-0.14958-0.55315-0.47413-0.55315-0.18062 0-0.31891 0.0621-0.42051 0.18344-0.1016 0.12136-0.14958 0.30762-0.14958 0.56162 0 0.42616 0.13547 0.74225 0.5588 0.74225 0.17216 0 0.35278-0.0593 0.44591-0.14111l-0.10442-0.23425c-0.05927 0.048-0.17216 0.0875-0.2794 0.0875zm0.11007-0.5842h-0.38947c0.0085-0.17215 0.05645-0.32738 0.22296-0.32738 0.14393 0 0.17498 0.15805 0.16651 0.32738z"/>
  </g>
  <g id="g995" transform="translate(-14.011 56.317)" stroke-width=".26458" aria-label="Chans">
   <path id="path985" d="m16.971 223.61c-0.0762 0-0.14111-0.0169-0.19473-0.0508-0.17498-0.11007-0.23142-0.35843-0.23142-0.64912 0-0.23989 0.03387-0.41769 0.10442-0.53058 0.06773-0.11289 0.16933-0.16933 0.29916-0.16933 0.12136 0 0.21731 0.0198 0.29633 0.0593l0.07055-0.31327c-0.10442-0.0452-0.24836-0.0734-0.40922-0.0734-0.22296 0-0.38947 0.0819-0.50518 0.21449-0.15804 0.1778-0.2286 0.45156-0.2286 0.80998 0 0.19191 0.01693 0.3556 0.05645 0.48542 0.09031 0.31892 0.2794 0.54469 0.66887 0.54469 0.16651 0 0.34714-0.0395 0.44027-0.11853l-0.07056-0.29916c-0.07902 0.0508-0.16651 0.0903-0.29634 0.0903z"/>
   <path id="path987" d="m18.184 222.45c-0.16651 0-0.26811 0.0706-0.33867 0.16369h-0.0085v-0.69145h-0.33585v1.9756h0.33585v-0.97084c0.02258-0.0847 0.09878-0.16934 0.20038-0.16934 0.14393 0 0.16369 0.12136 0.16369 0.28787v0.85231h0.33585v-0.92569c0-0.30198-0.05927-0.52211-0.35278-0.52211z"/>
   <path id="path989" d="m19.192 222.75c0.17216 0 0.18627 0.12136 0.17216 0.31045-0.381-0.0198-0.66887 0.0931-0.66887 0.45156 0 0.23706 0.127 0.40922 0.35842 0.40922 0.16651 0 0.27093-0.079 0.33302-0.18909h0.01129l0.05362 0.17216h0.27376c-0.08467-0.27094-0.0254-0.64065-0.0254-0.96521 0-0.31044-0.11571-0.47695-0.42898-0.47695-0.2032 0-0.381 0.0423-0.49954 0.11289l0.08467 0.25117c0.08184-0.0423 0.21167-0.0762 0.33584-0.0762zm-0.14958 0.70556c0-0.16087 0.16087-0.19755 0.32738-0.1778v0.23425c-0.03387 0.0649-0.09878 0.12135-0.19473 0.12135-0.09596 0-0.13264-0.0734-0.13264-0.1778z"/>
   <path id="path991" d="m20.617 222.45c-0.18627 0-0.29916 0.0875-0.36689 0.19756h-0.0085l-0.03951-0.16369h-0.26808v1.4111h0.33584v-0.97931c0.0254-0.079 0.09596-0.15805 0.2032-0.15805 0.14111 0 0.16087 0.11289 0.16087 0.27941v0.85795h0.33584v-0.9398c0-0.29351-0.06773-0.50518-0.35278-0.50518z"/>
   <path id="path993" d="m21.526 223.65c-0.11853 0-0.22578-0.0395-0.29916-0.0847l-0.09313 0.27093c0.08749 0.0621 0.254 0.1016 0.4064 0.1016 0.29069 0 0.47131-0.1524 0.47131-0.4318 0-0.29351-0.2032-0.38382-0.38664-0.49107-0.06209-0.0339-0.13547-0.0734-0.13547-0.15804 0-0.0762 0.04516-0.11571 0.13829-0.11571 0.09596 0 0.20884 0.0367 0.2794 0.0649l0.07902-0.25965c-0.09313-0.0536-0.25682-0.0931-0.40922-0.0931-0.27376 0-0.42334 0.14393-0.42334 0.41205 0 0.29351 0.20602 0.37817 0.38665 0.48542 0.06209 0.0367 0.13547 0.0847 0.13547 0.17498 0 0.0875-0.06491 0.12418-0.14958 0.12418z"/>
  </g>
  <rect id="rect997" x=".58" y="268.1" width="9" height="9.4" fill="#555d50"/>
  <rect id="rect999" x=".58" y="246.7" width="9" height="9.4" fill="#555d50"/>
  <g id="text911" transform="translate(-13.78 .20237)" stroke-width=".26458" aria-label="Tails">
   <path id="path917" d="m17.194 174.42v-0.57292h-2.262v0.57292h0.81986v2.8843h0.6223v-2.8843z"/>
   <path id="path921" d="m17.762 175.29c0.30127 0 0.32597 0.21238 0.30127 0.54328-0.66675-0.0346-1.1705 0.16299-1.1705 0.79023 0 0.41486 0.22225 0.71614 0.62724 0.71614 0.2914 0 0.47413-0.13829 0.58279-0.33091h0.01976l0.09384 0.30127h0.47907c-0.14817-0.47413-0.04445-1.1211-0.04445-1.6891 0-0.54328-0.2025-0.83467-0.75071-0.83467-0.3556 0-0.66675 0.0741-0.87418 0.19755l0.14817 0.43956c0.14323-0.0741 0.37042-0.13335 0.58773-0.13335zm-0.26176 1.2347c0-0.28152 0.28152-0.34572 0.57291-0.31115v0.40993c-0.05927 0.11359-0.17286 0.21237-0.34078 0.21237-0.16792 0-0.23213-0.12841-0.23213-0.31115z"/>
   <path id="path923" d="m19.11 174.83v2.4694h0.58773v-2.4694zm0.2914-0.36547c0.21731 0 0.3803-0.1136 0.3803-0.33091 0-0.21237-0.16298-0.34078-0.3803-0.34078-0.21731 0-0.36054 0.13335-0.36054 0.34078 0 0.21237 0.14323 0.33091 0.36054 0.33091z"/>
   <path id="path925" d="m20.675 177.36c0.16298 0 0.40005-0.0444 0.49389-0.10865l-0.05433-0.47414c-0.06914 0.0296-0.12347 0.0445-0.19756 0.0445-0.13829 0-0.14817-0.14817-0.14817-0.32103v-2.6571h-0.58773v2.9732c0 0.37536 0.13829 0.54328 0.49389 0.54328z"/>
   <path id="path927" d="m21.94 176.86c-0.20743 0-0.39511-0.0691-0.52352-0.14816l-0.16298 0.47413c0.15311 0.10866 0.4445 0.1778 0.7112 0.1778 0.50871 0 0.8248-0.2667 0.8248-0.75565 0-0.51365-0.3556-0.67169-0.67663-0.85937-0.10866-0.0593-0.23707-0.12841-0.23707-0.27658 0-0.13335 0.07902-0.20249 0.24201-0.20249 0.16792 0 0.36548 0.0642 0.48895 0.11359l0.13829-0.45438c-0.16298-0.0938-0.44944-0.16298-0.71614-0.16298-0.47907 0-0.74084 0.25188-0.74084 0.72108 0 0.51364 0.36054 0.66181 0.67663 0.84949 0.10866 0.0642 0.23707 0.14817 0.23707 0.30621 0 0.15311-0.1136 0.21731-0.26176 0.21731z"/>
  </g>
  <g id="text943" transform="translate(-14.473 6.932)" fill="#fffff0" stroke-width=".265" aria-label="Out">
   <path id="path945" d="m19.179 189.5c0-0.55033-0.15522-1.0273-0.69991-1.0273-0.5334 0-0.69709 0.44873-0.69709 1.0273 0 0.55598 0.14676 1.0273 0.69709 1.0273 0.52776 0 0.69991-0.44873 0.69991-1.0273zm-1.0245 0c0-0.46567 0.10724-0.69991 0.32456-0.69991 0.06209 0 0.11289 0.0197 0.15522 0.0564 0.13547 0.12136 0.17216 0.381 0.17216 0.64347 0 0.24554-0.02822 0.42334-0.08185 0.5334-0.05644 0.11289-0.13829 0.16651-0.24553 0.16651-0.06209 0-0.11289-0.0169-0.1524-0.0536-0.14111-0.12135-0.17216-0.37535-0.17216-0.64629z"/>
   <path id="path947" d="m19.741 190.52c0.18627 0 0.3048-0.1016 0.37253-0.2286h0.0085l0.05927 0.19191h0.254c-0.03104-0.11853-0.03951-0.27658-0.03951-0.42898v-0.98213h-0.33584v0.94262c-0.02822 0.096-0.09596 0.19756-0.20884 0.19756-0.13829 0-0.14393-0.127-0.14393-0.29634v-0.84384h-0.33584v0.91722c0 0.31327 0.06491 0.53058 0.36971 0.53058z"/>
   <path id="path949" d="m21.008 190.52c0.11853 0 0.23424-0.031 0.31609-0.0734l-0.04233-0.26811c-0.0508 0.0226-0.08749 0.0339-0.14958 0.0339-0.10442 0-0.11007-0.096-0.11007-0.22296v-0.61525h0.27376v-0.29915h-0.27376v-0.36971l-0.33584 0.10442v0.26529h-0.15522v0.29915h0.15522v0.73943c0 0.26247 0.07902 0.4064 0.32173 0.4064z"/>
  </g>
  <g id="text929" transform="translate(-13.543 2.3424)" stroke-width=".26458" aria-label="In">
   <path id="path936" d="m17.787 181.26v1.9756h0.3556v-1.9756z"/>
   <path id="path938" d="m19.105 181.79c-0.18627 0-0.29916 0.0875-0.36689 0.19756h-0.0085l-0.03951-0.16369h-0.26811v1.4111h0.33584v-0.97932c0.0254-0.079 0.09596-0.15804 0.2032-0.15804 0.14111 0 0.16087 0.11289 0.16087 0.2794v0.85796h0.33584v-0.93981c0-0.29351-0.06773-0.50518-0.35278-0.50518z"/>
  </g>
  <g id="text954" transform="translate(-11.751 -1.2721)" stroke-width=".26458" aria-label="Gain">
   <path id="path956" d="m15.453 222.1c-0.11853 0-0.21449-0.0565-0.28787-0.16934-0.07338-0.11289-0.10724-0.28786-0.10724-0.52775 0-0.36125 0.0762-0.70274 0.42898-0.70274 0.12982 0 0.22578 0.0226 0.31327 0.0593l0.07338-0.30762c-0.11007-0.0452-0.26811-0.079-0.4318-0.079-0.23989 0-0.41204 0.0931-0.53058 0.23425-0.1524 0.18062-0.22578 0.44591-0.22578 0.79304 0 0.18063 0.01693 0.33585 0.0508 0.46567 0.08749 0.32738 0.2794 0.56163 0.68016 0.56163 0.21449 0 0.40076-0.0706 0.52211-0.18627v-0.87489h-0.6096v0.21449l0.32456 0.0452v0.40358c-0.04798 0.0452-0.11571 0.0706-0.20038 0.0706z"/>
   <path id="path958" d="m16.565 221.24c0.17216 0 0.18627 0.12135 0.17216 0.31044-0.381-0.0197-0.66887 0.0931-0.66887 0.45156 0 0.23707 0.127 0.40922 0.35842 0.40922 0.16651 0 0.27093-0.079 0.33302-0.18909h0.01129l0.05362 0.17216h0.27376c-0.08467-0.27094-0.0254-0.64065-0.0254-0.9652 0-0.31045-0.11571-0.47696-0.42898-0.47696-0.2032 0-0.381 0.0423-0.49953 0.11289l0.08467 0.25118c0.08184-0.0423 0.21167-0.0762 0.33584-0.0762zm-0.14958 0.70555c0-0.16086 0.16087-0.19755 0.32738-0.1778v0.23425c-0.03387 0.0649-0.09878 0.12135-0.19473 0.12135-0.09596 0-0.13264-0.0734-0.13264-0.1778z"/>
   <path id="path960" d="m17.335 220.98v1.4111h0.33584v-1.4111zm0.16651-0.20884c0.12418 0 0.21731-0.0649 0.21731-0.18909 0-0.12136-0.09313-0.19474-0.21731-0.19474-0.12418 0-0.20602 0.0762-0.20602 0.19474 0 0.12135 0.08185 0.18909 0.20602 0.18909z"/>
   <path id="path962" d="m18.625 220.94c-0.18627 0-0.29916 0.0875-0.36689 0.19756h-0.0085l-0.03951-0.16369h-0.26811v1.4111h0.33584v-0.97932c0.0254-0.079 0.09596-0.15804 0.2032-0.15804 0.14111 0 0.16087 0.11289 0.16087 0.2794v0.85796h0.33584v-0.93981c0-0.29351-0.06773-0.50518-0.35278-0.50518z"/>
  </g>
  <g id="text914" transform="translate(-11.239 167.03)" stroke-width=".26458" aria-label="CV">
   <path id="path922" d="m15.874 41.899c-0.0762 0-0.14111-0.01693-0.19473-0.0508-0.17498-0.11007-0.23142-0.35842-0.23142-0.64911 0-0.23989 0.03387-0.41769 0.10442-0.53058 0.06773-0.11289 0.16933-0.16933 0.29916-0.16933 0.12136 0 0.21731 0.01976 0.29633 0.05927l0.07056-0.31327c-0.10442-0.04516-0.24836-0.07338-0.40922-0.07338-0.22296 0-0.38947 0.08184-0.50518 0.21449-0.15804 0.1778-0.2286 0.45156-0.2286 0.80998 0 0.19191 0.01693 0.3556 0.05645 0.48542 0.09031 0.31891 0.2794 0.54469 0.66887 0.54469 0.16651 0 0.34713-0.03951 0.44027-0.11853l-0.070564-0.29916c-0.07902 0.0508-0.16651 0.09031-0.29633 0.09031z"/>
   <path id="path924" d="m16.803 41.372-0.29351-1.1599h-0.42051l0.60396 1.9897h0.27093l0.59831-1.9897h-0.37536l-0.28787 1.1571-0.04516 0.34149h-0.01129z"/>
  </g>
  <rect id="rect912" x=".68" y="179.6" width="8.8" height="3.265" rx="1" ry="1" fill="#555d50" opacity=".997"/>
  <rect id="rect928" x=".68" y="231.6" width="8.8" height="3.265" rx="1" ry="1" fill="#555d50" opacity=".997"/>
  <rect id="rect17238" x=".68" y="233.87" width="8.8" height="1" rx="1.3878e-16" ry="1.3878e-16" fill="#555d50" stroke-opacity=".64706" stroke-width=".25"/>
  <g id="g931" transform="translate(-1.6689e-8 -.93071)" fill="#fffff0" stroke-width=".26458">
   <path id="path942" d="m2.7079 234.12 0.56162 0.98496h0.27376v-1.9897h-0.33584v0.98496l0.04516 0.33584h-0.01693l-0.12136-0.34149-0.56727-0.99342h-0.27376v1.9897h0.33584v-0.97649l-0.04515-0.34149h0.01411z"/>
   <path id="path944" d="m4.8556 234.38c0-0.44026-0.14393-0.74224-0.5588-0.74224-0.40076 0-0.55598 0.30762-0.55598 0.74224 0 0.49672 0.18344 0.74225 0.55598 0.74225 0.40358 0 0.5588-0.30198 0.5588-0.74225zm-0.76765 0c0-0.16086 0.01693-0.27375 0.05362-0.34149 0.03669-0.0677 0.08749-0.1016 0.15522-0.1016 0.0762 0 0.12982 0.0395 0.16369 0.11289 0.03105 0.0762 0.04798 0.18627 0.04798 0.3302 0 0.16369-0.01975 0.27658-0.05362 0.34432-0.03387 0.0677-0.08749 0.0988-0.15804 0.0988-0.18344 0-0.20884-0.22577-0.20884-0.44309z"/>
   <path id="path946" d="m5.4144 235.12c0.11853 0 0.23424-0.031 0.31609-0.0734l-0.04233-0.26811c-0.0508 0.0226-0.08749 0.0339-0.14958 0.0339-0.10442 0-0.11007-0.0959-0.11007-0.22295v-0.61525h0.27376v-0.29915h-0.27376v-0.36972l-0.33584 0.10443v0.26529h-0.15522v0.29915h0.15522v0.73943c0 0.26246 0.07902 0.4064 0.32173 0.4064z"/>
   <path id="path948" d="m6.4389 234.84c-0.21449 0-0.28505-0.14393-0.29069-0.36124h0.6858c0.01411-0.0931 0.02822-0.18345 0.02822-0.28505 0-0.33584-0.14958-0.55316-0.47414-0.55316-0.18062 0-0.31891 0.0621-0.42051 0.18345-0.1016 0.12136-0.14958 0.30762-0.14958 0.56162 0 0.42616 0.13547 0.74225 0.5588 0.74225 0.17216 0 0.35278-0.0593 0.44591-0.14111l-0.10442-0.23425c-0.05927 0.048-0.17216 0.0875-0.2794 0.0875zm0.11007-0.5842h-0.38947c0.0085-0.17216 0.05644-0.32738 0.22296-0.32738 0.14393 0 0.17498 0.15805 0.16651 0.32738z"/>
   <path id="path950" d="m7.4013 234.84c-0.11853 0-0.22578-0.0395-0.29916-0.0847l-0.09313 0.27093c0.08749 0.0621 0.254 0.1016 0.4064 0.1016 0.29069 0 0.47131-0.1524 0.47131-0.4318 0-0.29351-0.2032-0.38382-0.38665-0.49107-0.06209-0.0339-0.13547-0.0734-0.13547-0.15804 0-0.0762 0.04516-0.11572 0.13829-0.11572 0.09596 0 0.20884 0.0367 0.2794 0.0649l0.07902-0.25965c-0.09313-0.0536-0.25682-0.0931-0.40922-0.0931-0.27376 0-0.42334 0.14393-0.42334 0.41204 0 0.29351 0.20602 0.37818 0.38665 0.48543 0.06209 0.0367 0.13547 0.0847 0.13547 0.17497 0 0.0875-0.06491 0.12418-0.14958 0.12418z"/>
  </g>
  <rect id="rect17240" x=".68" y="181.87" width="8.8" height="1" rx="1.3878e-16" ry="1.3878e-16" fill="#555d50" stroke-opacity=".64706" stroke-width=".25"/>
  <g id="text909" transform="translate(-15.904 -.42759)" fill="#fffff0" stroke-width=".26458" aria-label="VCA">
   <path id="path912" d="m19.706 181.78-0.29351-1.1599h-0.42051l0.60396 1.9897h0.27093l0.59831-1.9897h-0.37536l-0.28787 1.1571-0.04516 0.34149h-0.01129z"/>
   <path id="path914" d="m21.253 182.31c-0.0762 0-0.14111-0.0169-0.19473-0.0508-0.17498-0.11007-0.23142-0.35843-0.23142-0.64912 0-0.23989 0.03387-0.41769 0.10442-0.53058 0.06773-0.11288 0.16933-0.16933 0.29916-0.16933 0.12136 0 0.21731 0.0198 0.29633 0.0593l0.07056-0.31327c-0.10442-0.0452-0.24836-0.0734-0.40922-0.0734-0.22296 0-0.38947 0.0818-0.50518 0.21449-0.15804 0.1778-0.2286 0.45156-0.2286 0.80998 0 0.19191 0.01693 0.3556 0.05644 0.48543 0.09031 0.31891 0.2794 0.54469 0.66887 0.54469 0.16651 0 0.34713-0.0395 0.44027-0.11854l-0.07056-0.29915c-0.07902 0.0508-0.16651 0.0903-0.29633 0.0903z"/>
   <path id="path916" d="m22.481 182.15 0.12136 0.44591h0.37254l-0.57574-1.9897h-0.2794l-0.57291 1.9897h0.35278l0.11571-0.44591zm-0.38947-0.29351 0.11007-0.4572 0.04798-0.31327h0.01129l0.04516 0.31045 0.11289 0.46002z"/>
  </g>
 </g>
 <g id="layer2" display="none" fill-rule="evenodd" stroke-width=".26458">
  <circle id="path11" cx="5.08" cy="45.2" r="4" fill="#0f0"/>
  <circle id="circle860" cx="5.08" cy="21.6" r="4" fill="#0f0"/>
  <circle id="circle862" cx="5.08" cy="33.4" r="4" fill="#00f"/>
  <circle id="circle864" cx="5.08" cy="56.2" r="3.5"/>
  <circle id="circle951" cx="5.08" cy="73.5" r="4" fill="#0f0"/>
  <circle id="circle953" cx="5.08" cy="82.9" r="4" fill="#00f"/>
  <circle id="circle955" cx="5.08" cy="94.8" r="4" fill="#0f0"/>
  <circle id="circle959" cx="5.08" cy="104.3" r="4" fill="#00f"/>
  <circle id="circle961" cx="5.08" cy="115.3" r="3.5"/>
 </g>
</svg>
