<?xml version="1.0" encoding="UTF-8"?>
<svg id="svg8" width="20.32mm" height="128.5mm" version="1.1" viewBox="0 0 20.32 128.5" xmlns="http://www.w3.org/2000/svg" xmlns:cc="http://creativecommons.org/ns#" xmlns:dc="http://purl.org/dc/elements/1.1/" xmlns:rdf="http://www.w3.org/1999/02/22-rdf-syntax-ns#">
 <metadata id="metadata5">
  <rdf:RDF>
   <cc:Work rdf:about="">
    <dc:format>image/svg+xml</dc:format>
    <dc:type rdf:resource="http://purl.org/dc/dcmitype/StillImage"/>
   </cc:Work>
  </rdf:RDF>
 </metadata>
 <g id="layer1" transform="translate(0,-168.5)">
  <rect id="rect838" x="-5.5511e-17" y="168.5" width="20.32" height="128.5" fill="#bbbbb0"/>
  <text id="text64" x="2.0529213" y="233.73691" font-family="'PT Sans Narrow'" font-size="2.8222px" font-stretch="condensed" font-weight="bold" stroke-width=".26458" style="line-height:1.25" xml:space="preserve"><tspan id="tspan62" x="2.0529213" y="233.73691" stroke-width=".26458"/></text>
  <text id="text925" x="7.705914" y="247.28606" font-family="'PT Sans Narrow'" font-size="2.8222px" font-stretch="condensed" font-weight="bold" stroke-width=".26458" text-align="center" text-anchor="middle" style="line-height:1.25" xml:space="preserve"><tspan id="tspan923" x="7.705914" y="247.28606" stroke-width=".26458"/></text>
  <rect id="rect902" x=".72658" y="179.65" width="18.867" height="53.207" rx=".99678" ry="1.2277" fill="none" stroke="#555d50" stroke-width=".293"/>
  <rect id="rect913" x="10.84" y="247.5" width="8.8" height="40.9" rx="1" ry="1" fill="#555d50" stroke-width=".26458"/>
  <rect id="rect1023" x="10.74" y="247.5" width="9" height="2" fill="#555d50"/>
  <rect id="rect1021" x="10.872" y="235.13" width="8.7354" height="53.235" rx="1" ry="1" fill="none" stroke="#555d50" stroke-width=".26458"/>
  <g id="text915" transform="translate(-2.3531 -.28416)" stroke-width=".26458" aria-label="Resplit">
   <path id="path917" d="m15.33 237.08c0-0.39512-0.25118-0.5588-0.64065-0.5588-0.14958 0-0.34996 0.0198-0.47696 0.048v1.9558h0.3556v-0.81563l0.1524 0.0367 0.34431 0.77894h0.40922l-0.36407-0.75636-0.11289-0.0903c0.21449-0.0762 0.33302-0.29351 0.33302-0.59831zm-0.60678-0.23143c0.16369 0 0.23424 0.12418 0.23424 0.28787 0 0.20602-0.0762 0.3302-0.26811 0.3302h-0.12136v-0.60395c0.03669-0.0113 0.1016-0.0141 0.15522-0.0141z"/>
   <path id="path926" d="m16.083 238.28c-0.21449 0-0.28505-0.14393-0.29069-0.36125h0.6858c0.01411-0.0931 0.02822-0.18344 0.02822-0.28504 0-0.33585-0.14958-0.55316-0.47413-0.55316-0.18062 0-0.31891 0.0621-0.42051 0.18345-0.1016 0.12135-0.14958 0.30762-0.14958 0.56162 0 0.42616 0.13547 0.74225 0.5588 0.74225 0.17216 0 0.35278-0.0593 0.44591-0.14111l-0.10442-0.23425c-0.05927 0.048-0.17216 0.0875-0.2794 0.0875zm0.11007-0.5842h-0.38947c0.0085-0.17216 0.05645-0.32738 0.22296-0.32738 0.14393 0 0.17498 0.15804 0.16651 0.32738z"/>
   <path id="path928" d="m17.046 238.28c-0.11853 0-0.22578-0.0395-0.29916-0.0847l-0.09313 0.27094c0.08749 0.0621 0.254 0.1016 0.4064 0.1016 0.29069 0 0.47131-0.1524 0.47131-0.4318 0-0.29352-0.2032-0.38383-0.38664-0.49107-0.06209-0.0339-0.13547-0.0734-0.13547-0.15805 0-0.0762 0.04516-0.11571 0.13829-0.11571 0.09596 0 0.20884 0.0367 0.2794 0.0649l0.07902-0.25964c-0.09313-0.0536-0.25682-0.0931-0.40922-0.0931-0.27376 0-0.42334 0.14394-0.42334 0.41205 0 0.29351 0.20602 0.37818 0.38665 0.48542 0.06209 0.0367 0.13547 0.0847 0.13547 0.17498 0 0.0875-0.06491 0.12418-0.14958 0.12418z"/>
   <path id="path930" d="m18.251 238.57c0.39229 0 0.52776-0.34996 0.52776-0.78176 0-0.25118-0.03669-0.4318-0.11007-0.53904-0.07338-0.10725-0.18062-0.16369-0.32173-0.16369-0.18062 0-0.26811 0.0762-0.34431 0.19473h-0.0085l-0.03387-0.16087h-0.25118v1.9756h0.33584v-0.57291c0.05645 0.0367 0.11289 0.048 0.20602 0.048zm0.18062-0.79022c0 0.18062-0.01975 0.30762-0.05927 0.381-0.03951 0.0734-0.09878 0.11006-0.17216 0.11006-0.0762 0-0.11853-0.0169-0.15522-0.0564v-0.66323c0.03387-0.11006 0.09596-0.16651 0.19191-0.16651 0.16933 0 0.19473 0.19192 0.19473 0.39512z"/>
   <path id="path932" d="m19.258 238.56c0.09313 0 0.2286-0.0254 0.28222-0.0621l-0.03105-0.27094c-0.03951 0.0169-0.07055 0.0254-0.11289 0.0254-0.07902 0-0.08467-0.0847-0.08467-0.18344v-1.5184h-0.33584v1.699c0 0.21449 0.07902 0.31045 0.28222 0.31045z"/>
   <path id="path935" d="m19.684 237.12v1.4111h0.33585v-1.4111zm0.16651-0.20884c0.12418 0 0.21731-0.0649 0.21731-0.18909 0-0.12136-0.09313-0.19473-0.21731-0.19473-0.12418 0-0.20602 0.0762-0.20602 0.19473 0 0.12136 0.08185 0.18909 0.20602 0.18909z"/>
   <path id="path937" d="m20.658 238.56c0.11853 0 0.23424-0.0311 0.31609-0.0734l-0.04233-0.26811c-0.0508 0.0226-0.08749 0.0339-0.14958 0.0339-0.10442 0-0.11007-0.0959-0.11007-0.22295v-0.61525h0.27376v-0.29916h-0.27376v-0.36971l-0.33584 0.10442v0.26529h-0.15522v0.29916h0.15522v0.73942c0 0.26247 0.07902 0.40641 0.32173 0.40641z"/>
  </g>
  <g id="text977" transform="translate(3.4583 .30886)" fill="#fffff0" stroke-width=".26458" aria-label="1">
   <path id="path991" d="m7.9035 249.9v0.29915h0.95956v-0.29915h-0.31609v-1.7103h-0.19756l-0.54469 0.53058 0.15522 0.18909 0.18627-0.14394 0.11571-0.16651-0.036689 0.19191v1.1091z" fill="#fffff0" stroke-width=".26458"/>
  </g>
  <g id="text981" transform="translate(3.2118 .33146)" fill="#fffff0" stroke-width=".26458" aria-label="2">
   <path id="path994" d="m8.0808 258.33 0.12982 0.24553c0.056445-0.0508 0.16369-0.11006 0.26811-0.11006 0.15804 0 0.23425 0.10724 0.2286 0.26528 0.00282 0.0649-0.00564 0.13265-0.0254 0.20603-0.045156 0.16369-0.11571 0.31609-0.19191 0.45438-0.11853 0.20602-0.25965 0.41204-0.40076 0.58702v0.19473h0.9906v-0.29915h-0.43745l-0.16933 0.0423v-0.0141l0.12418-0.11571c0.10724-0.14393 0.21731-0.3302 0.29916-0.51365 0.0762-0.16651 0.1524-0.37535 0.1524-0.60113 0-0.0847-0.014111-0.15805-0.036689-0.22296-0.067734-0.17215-0.20884-0.29069-0.44027-0.29069-0.22296 0-0.37253 0.0706-0.49107 0.17216z" fill="#fffff0" stroke-width=".26458"/>
  </g>
  <g id="text985" transform="translate(2.8792 .37749)" fill="#fffff0" stroke-width=".26458" aria-label="3">
   <path id="path997" d="m8.5037 269.76-0.090311 0.28223c0.084667 0.0536 0.26247 0.0875 0.40358 0.0875 0.081845 0 0.15804-0.0113 0.23142-0.0395 0.2286-0.0818 0.36407-0.29633 0.36407-0.61242 0-0.0903-0.011289-0.17216-0.033867-0.23989-0.053622-0.16651-0.16933-0.29916-0.36689-0.31609l-0.10442 0.0169v-0.0141l0.10442-0.0762 0.32738-0.5334v-0.20038h-0.90311v0.29916h0.38665l0.18627-0.0254-0.13547 0.127-0.2794 0.47413v0.19191h0.16651c0.20884 0 0.31609 0.10725 0.31609 0.31892 0 0.18909-0.095956 0.3302-0.28222 0.3302-0.12136 0-0.21167-0.0282-0.29069-0.0706z" fill="#fffff0" stroke-width=".26458"/>
  </g>
  <g id="text989" transform="translate(3.1602 .48823)" fill="#fffff0" stroke-width=".26458" aria-label="4">
   <path id="path1000" d="m9.2642 279.46v-0.28786h-0.24836v-1.1515h-0.29351l-0.72249 1.2305v0.20884h0.69709v0.55034h0.31891v-0.55034zm-0.56727-0.72531v0.43745h-0.25682l-0.14393 0.0226 0.11289-0.10725 0.22296-0.37818 0.084667-0.2286h0.011289z" fill="#fffff0" stroke-width=".26458"/>
  </g>
  <g id="text2550" transform="matrix(1.5 0 0 1.5 -3.975 -146.22)" stroke-width=".17639" aria-label="GRANDE">
   <path id="path2552" d="m6.0076 292.15c0.15522 0 0.28222-0.0564 0.35807-0.13405v-0.48684h-0.381v0.12171h0.24518v0.30162c-0.045861 0.0423-0.12524 0.067-0.20814 0.067-0.24694 0-0.38276-0.18168-0.38276-0.47272 0-0.28751 0.14817-0.46567 0.381-0.46567 0.11642 0 0.1905 0.0441 0.24871 0.10407l0.081139-0.0917c-0.067028-0.0723-0.17286-0.14287-0.33338-0.14287-0.30692 0-0.53093 0.22754-0.53093 0.59972 0 0.37747 0.21696 0.59972 0.52211 0.59972z"/>
   <path id="path2554" d="m7.0112 292.13h0.14817v-0.48859h0.20814l0.27869 0.48859h0.16757l-0.29457-0.50447c0.15699-0.0406 0.25929-0.1464 0.25929-0.32632 0-0.24165-0.16933-0.32632-0.40569-0.32632h-0.3616zm0.14817-0.60854v-0.42862h0.19226c0.17992 0 0.27869 0.0547 0.27869 0.20637 0 0.14817-0.098778 0.22225-0.27869 0.22225z"/>
   <path id="path2556" d="m8.5811 291.48c0.040569-0.12876 0.077611-0.25576 0.11289-0.38982h0.00706c0.037042 0.13406 0.074083 0.26106 0.11642 0.38982l0.054681 0.17463h-0.34573zm-0.35454 0.64558h0.14993l0.11113-0.35101h0.42157l0.10936 0.35101h0.15699l-0.38982-1.1571h-0.16933z"/>
   <path id="path2558" d="m9.7099 292.13h0.13935v-0.60854c0-0.11994-0.010583-0.24518-0.019403-0.3616h0.00706c0.038806 0.0847 0.081139 0.1711 0.12524 0.24871l0.41275 0.72143h0.15875v-1.1571h-0.13935v0.60325c0 0.11995 0.01058 0.24695 0.0194 0.36689h-0.0071c-0.04057-0.0847-0.08114-0.1711-0.12524-0.24871l-0.41271-0.72143h-0.15875z"/>
   <path id="path2560" d="m11.22 292.13h0.29633c0.34925 0 0.53975-0.21519 0.53975-0.58384 0-0.36689-0.1905-0.57327-0.5468-0.57327h-0.28928zm0.14817-0.1217v-0.9137h0.13053c0.26988 0 0.40393 0.16051 0.40393 0.45156 0 0.2928-0.13406 0.46214-0.40393 0.46214z"/>
   <path id="path2562" d="m12.677 292.13h0.68439v-0.12523h-0.53622v-0.41981h0.43744v-0.12523h-0.43744v-0.3616h0.51858v-0.12524h-0.66675z"/>
  </g>
  <g id="g995" transform="translate(-14.011 12.597)" stroke-width=".26458" aria-label="Chans">
   <path id="path985" d="m16.971 223.61c-0.0762 0-0.14111-0.0169-0.19473-0.0508-0.17498-0.11007-0.23142-0.35843-0.23142-0.64912 0-0.23989 0.03387-0.41769 0.10442-0.53058 0.06773-0.11289 0.16933-0.16933 0.29916-0.16933 0.12136 0 0.21731 0.0198 0.29633 0.0593l0.07055-0.31327c-0.10442-0.0452-0.24836-0.0734-0.40922-0.0734-0.22296 0-0.38947 0.0819-0.50518 0.21449-0.15804 0.1778-0.2286 0.45156-0.2286 0.80998 0 0.19191 0.01693 0.3556 0.05645 0.48542 0.09031 0.31892 0.2794 0.54469 0.66887 0.54469 0.16651 0 0.34714-0.0395 0.44027-0.11853l-0.07056-0.29916c-0.07902 0.0508-0.16651 0.0903-0.29634 0.0903z"/>
   <path id="path987" d="m18.184 222.45c-0.16651 0-0.26811 0.0706-0.33867 0.16369h-0.0085v-0.69145h-0.33585v1.9756h0.33585v-0.97084c0.02258-0.0847 0.09878-0.16934 0.20038-0.16934 0.14393 0 0.16369 0.12136 0.16369 0.28787v0.85231h0.33585v-0.92569c0-0.30198-0.05927-0.52211-0.35278-0.52211z"/>
   <path id="path989" d="m19.192 222.75c0.17216 0 0.18627 0.12136 0.17216 0.31045-0.381-0.0198-0.66887 0.0931-0.66887 0.45156 0 0.23706 0.127 0.40922 0.35842 0.40922 0.16651 0 0.27093-0.079 0.33302-0.18909h0.01129l0.05362 0.17216h0.27376c-0.08467-0.27094-0.0254-0.64065-0.0254-0.96521 0-0.31044-0.11571-0.47695-0.42898-0.47695-0.2032 0-0.381 0.0423-0.49954 0.11289l0.08467 0.25117c0.08184-0.0423 0.21167-0.0762 0.33584-0.0762zm-0.14958 0.70556c0-0.16087 0.16087-0.19755 0.32738-0.1778v0.23425c-0.03387 0.0649-0.09878 0.12135-0.19473 0.12135-0.09596 0-0.13264-0.0734-0.13264-0.1778z"/>
   <path id="path991-5" d="m20.617 222.45c-0.18627 0-0.29916 0.0875-0.36689 0.19756h-0.0085l-0.03951-0.16369h-0.26808v1.4111h0.33584v-0.97931c0.0254-0.079 0.09596-0.15805 0.2032-0.15805 0.14111 0 0.16087 0.11289 0.16087 0.27941v0.85795h0.33584v-0.9398c0-0.29351-0.06773-0.50518-0.35278-0.50518z"/>
   <path id="path993" d="m21.526 223.65c-0.11853 0-0.22578-0.0395-0.29916-0.0847l-0.09313 0.27093c0.08749 0.0621 0.254 0.1016 0.4064 0.1016 0.29069 0 0.47131-0.1524 0.47131-0.4318 0-0.29351-0.2032-0.38382-0.38664-0.49107-0.06209-0.0339-0.13547-0.0734-0.13547-0.15804 0-0.0762 0.04516-0.11571 0.13829-0.11571 0.09596 0 0.20884 0.0367 0.2794 0.0649l0.07902-0.25965c-0.09313-0.0536-0.25682-0.0931-0.40922-0.0931-0.27376 0-0.42334 0.14393-0.42334 0.41205 0 0.29351 0.20602 0.37817 0.38665 0.48542 0.06209 0.0367 0.13547 0.0847 0.13547 0.17498 0 0.0875-0.06491 0.12418-0.14958 0.12418z"/>
  </g>
  <rect id="rect45" x=".68" y="259.02" width="8.8" height="11" fill="#555d50"/>
  <g id="text914" transform="translate(-11.239 230.7)" stroke-width=".26458" aria-label="CV">
   <path id="path922" d="m15.874 41.899c-0.0762 0-0.14111-0.01693-0.19473-0.0508-0.17498-0.11007-0.23142-0.35842-0.23142-0.64911 0-0.23989 0.03387-0.41769 0.10442-0.53058 0.06773-0.11289 0.16933-0.16933 0.29916-0.16933 0.12136 0 0.21731 0.01976 0.29633 0.05927l0.07056-0.31327c-0.10442-0.04516-0.24836-0.07338-0.40922-0.07338-0.22296 0-0.38947 0.08184-0.50518 0.21449-0.15804 0.1778-0.2286 0.45156-0.2286 0.80998 0 0.19191 0.01693 0.3556 0.05645 0.48542 0.09031 0.31891 0.2794 0.54469 0.66887 0.54469 0.16651 0 0.34713-0.03951 0.44027-0.11853l-0.070564-0.29916c-0.07902 0.0508-0.16651 0.09031-0.29633 0.09031z"/>
   <path id="path924" d="m16.803 41.372-0.29351-1.1599h-0.42051l0.60396 1.9897h0.27093l0.59831-1.9897h-0.37536l-0.28787 1.1571-0.04516 0.34149h-0.01129z"/>
  </g>
  <g id="text943" transform="translate(-14.473 70.746)" fill="#fffff0" stroke-width=".265" aria-label="Out">
   <path id="path945" d="m19.179 189.5c0-0.55033-0.15522-1.0273-0.69991-1.0273-0.5334 0-0.69709 0.44873-0.69709 1.0273 0 0.55598 0.14676 1.0273 0.69709 1.0273 0.52776 0 0.69991-0.44873 0.69991-1.0273zm-1.0245 0c0-0.46567 0.10724-0.69991 0.32456-0.69991 0.06209 0 0.11289 0.0197 0.15522 0.0564 0.13547 0.12136 0.17216 0.381 0.17216 0.64347 0 0.24554-0.02822 0.42334-0.08185 0.5334-0.05644 0.11289-0.13829 0.16651-0.24553 0.16651-0.06209 0-0.11289-0.0169-0.1524-0.0536-0.14111-0.12135-0.17216-0.37535-0.17216-0.64629z"/>
   <path id="path947" d="m19.741 190.52c0.18627 0 0.3048-0.1016 0.37253-0.2286h0.0085l0.05927 0.19191h0.254c-0.03104-0.11853-0.03951-0.27658-0.03951-0.42898v-0.98213h-0.33584v0.94262c-0.02822 0.096-0.09596 0.19756-0.20884 0.19756-0.13829 0-0.14393-0.127-0.14393-0.29634v-0.84384h-0.33584v0.91722c0 0.31327 0.06491 0.53058 0.36971 0.53058z"/>
   <path id="path949" d="m21.008 190.52c0.11853 0 0.23424-0.031 0.31609-0.0734l-0.04233-0.26811c-0.0508 0.0226-0.08749 0.0339-0.14958 0.0339-0.10442 0-0.11007-0.096-0.11007-0.22296v-0.61525h0.27376v-0.29915h-0.27376v-0.36971l-0.33584 0.10442v0.26529h-0.15522v0.29915h0.15522v0.73943c0 0.26247 0.07902 0.4064 0.32173 0.4064z"/>
  </g>
  <rect id="rect902-9" x=".7125" y="244.63" width="8.735" height="43.735" rx="1" ry="1" fill="none" stroke="#555d50" stroke-width=".265"/>
  <rect id="rect912" x=".68" y="244.6" width="8.8" height="3.265" rx="1" ry="1" fill="#555d50" opacity=".997"/>
  <rect id="rect17240" x=".68" y="246.87" width="8.8" height="1" rx="1.3878e-16" ry="1.3878e-16" fill="#555d50" stroke-opacity=".64706" stroke-width=".25"/>
  <g id="text909" transform="translate(-15.904 64.572)" fill="#fffff0" stroke-width=".26458" aria-label="VCA">
   <path id="path912" d="m19.706 181.78-0.29351-1.1599h-0.42051l0.60396 1.9897h0.27093l0.59831-1.9897h-0.37536l-0.28787 1.1571-0.04516 0.34149h-0.01129z"/>
   <path id="path914" d="m21.253 182.31c-0.0762 0-0.14111-0.0169-0.19473-0.0508-0.17498-0.11007-0.23142-0.35843-0.23142-0.64912 0-0.23989 0.03387-0.41769 0.10442-0.53058 0.06773-0.11288 0.16933-0.16933 0.29916-0.16933 0.12136 0 0.21731 0.0198 0.29633 0.0593l0.07056-0.31327c-0.10442-0.0452-0.24836-0.0734-0.40922-0.0734-0.22296 0-0.38947 0.0818-0.50518 0.21449-0.15804 0.1778-0.2286 0.45156-0.2286 0.80998 0 0.19191 0.01693 0.3556 0.05644 0.48543 0.09031 0.31891 0.2794 0.54469 0.66887 0.54469 0.16651 0 0.34713-0.0395 0.44027-0.11854l-0.07056-0.29915c-0.07902 0.0508-0.16651 0.0903-0.29633 0.0903z"/>
   <path id="path916" d="m22.481 182.15 0.12136 0.44591h0.37254l-0.57574-1.9897h-0.2794l-0.57291 1.9897h0.35278l0.11571-0.44591zm-0.38947-0.29351 0.11007-0.4572 0.04798-0.31327h0.01129l0.04516 0.31045 0.11289 0.46002z"/>
  </g>
  <rect id="rect7867" x=".68" y="221" width="18.96" height="2" fill="#555d50"/>
  <rect id="rect442" x=".68" y="221" width="18.96" height="11.9" rx="1" ry="1" fill="#555d50" stroke-width=".26458"/>
  <g id="text929" transform="translate(-13.543 67.092)" stroke-width=".26458" aria-label="In">
   <path id="path936" d="m17.787 181.26v1.9756h0.3556v-1.9756z"/>
   <path id="path938" d="m19.105 181.79c-0.18627 0-0.29916 0.0875-0.36689 0.19756h-0.0085l-0.03951-0.16369h-0.26811v1.4111h0.33584v-0.97932c0.0254-0.079 0.09596-0.15804 0.2032-0.15804 0.14111 0 0.16087 0.11289 0.16087 0.2794v0.85796h0.33584v-0.93981c0-0.29351-0.06773-0.50518-0.35278-0.50518z"/>
  </g>
  <g id="text1554" transform="translate(-.89308 -25.935)" stroke-width=".26458" aria-label="Gate">
   <path id="path1556" d="m14.32 208.39c-0.11853 0-0.21449-0.0565-0.28787-0.16933-0.07338-0.11289-0.10724-0.28787-0.10724-0.52776 0-0.36125 0.0762-0.70274 0.42898-0.70274 0.12982 0 0.22578 0.0226 0.31327 0.0593l0.07338-0.30762c-0.11007-0.0452-0.26811-0.079-0.4318-0.079-0.23989 0-0.41204 0.0931-0.53058 0.23425-0.1524 0.18062-0.22578 0.44591-0.22578 0.79305 0 0.18062 0.01693 0.33584 0.0508 0.46566 0.08749 0.32738 0.2794 0.56163 0.68016 0.56163 0.21449 0 0.40076-0.0706 0.52211-0.18627v-0.87489h-0.6096v0.21449l0.32456 0.0452v0.40358c-0.04798 0.0452-0.11571 0.0706-0.20038 0.0706z"/>
   <path id="path1558" d="m15.432 207.53c0.17216 0 0.18627 0.12135 0.17216 0.31044-0.381-0.0198-0.66887 0.0931-0.66887 0.45156 0 0.23707 0.127 0.40922 0.35842 0.40922 0.16651 0 0.27093-0.079 0.33302-0.18909h0.01129l0.05362 0.17216h0.27376c-0.08467-0.27094-0.0254-0.64065-0.0254-0.9652 0-0.31045-0.11571-0.47696-0.42898-0.47696-0.2032 0-0.381 0.0423-0.49953 0.11289l0.08467 0.25118c0.08184-0.0423 0.21167-0.0762 0.33584-0.0762zm-0.14958 0.70555c0-0.16086 0.16087-0.19755 0.32738-0.1778v0.23425c-0.03387 0.0649-0.09878 0.12135-0.19473 0.12135-0.09596 0-0.13264-0.0734-0.13264-0.1778z"/>
   <path id="path1560" d="m16.541 208.71c0.11853 0 0.23424-0.031 0.31609-0.0734l-0.04233-0.26812c-0.0508 0.0226-0.08749 0.0339-0.14958 0.0339-0.10442 0-0.11007-0.096-0.11007-0.22296v-0.61524h0.27376v-0.29916h-0.27376v-0.36971l-0.33585 0.10442v0.26529h-0.15522v0.29916h0.15522v0.73942c0 0.26247 0.07902 0.4064 0.32174 0.4064z"/>
   <path id="path1562" d="m17.565 208.43c-0.21449 0-0.28504-0.14394-0.29069-0.36125h0.6858c0.01411-0.0931 0.02822-0.18344 0.02822-0.28504 0-0.33585-0.14958-0.55316-0.47414-0.55316-0.18062 0-0.31891 0.0621-0.42051 0.18345s-0.14958 0.30762-0.14958 0.56162c0 0.42616 0.13547 0.74225 0.5588 0.74225 0.17216 0 0.35278-0.0593 0.44591-0.14112l-0.10442-0.23424c-0.05927 0.048-0.17216 0.0875-0.2794 0.0875zm0.11007-0.5842h-0.38947c0.0085-0.17216 0.05645-0.32738 0.22296-0.32738 0.14393 0 0.17498 0.15804 0.16651 0.32738z"/>
  </g>
  <g id="text1550" transform="translate(-10.369 -12.706)" stroke-width=".26458" aria-label="V/Oct">
   <path id="path1565" d="m13.234 194.63-0.29351-1.1599h-0.42051l0.60396 1.9897h0.27093l0.59831-1.9897h-0.37536l-0.28787 1.1571-0.04516 0.34149h-0.01129z"/>
   <path id="path1567" d="m14.747 193.43-0.82974 2.3058 0.25964 0.0988 0.82691-2.3058z"/>
   <path id="path1569" d="m16.432 194.45c0-0.55033-0.15522-1.0273-0.69991-1.0273-0.5334 0-0.69709 0.44874-0.69709 1.0273 0 0.55598 0.14676 1.0273 0.69709 1.0273 0.52776 0 0.69991-0.44874 0.69991-1.0273zm-1.0245 0c0-0.46566 0.10724-0.69991 0.32456-0.69991 0.06209 0 0.11289 0.0198 0.15522 0.0565 0.13547 0.12135 0.17216 0.381 0.17216 0.64346 0 0.24554-0.02822 0.42334-0.08185 0.53341-0.05644 0.11288-0.13829 0.16651-0.24553 0.16651-0.06209 0-0.11289-0.0169-0.1524-0.0536-0.14111-0.12135-0.17216-0.37535-0.17216-0.64629z"/>
   <path id="path1571" d="m17.185 195.17c-0.20038 0-0.254-0.21731-0.254-0.43462 0-0.1524 0.01975-0.26247 0.05927-0.3302 0.03951-0.0677 0.09878-0.10443 0.1778-0.10443 0.09313 0 0.14111 0.0198 0.20884 0.0508l0.07902-0.2794c-0.09596-0.0508-0.19473-0.079-0.34996-0.079-0.39229 0-0.52211 0.31609-0.52211 0.74225 0 0.41486 0.10724 0.74224 0.51647 0.74224 0.14393 0 0.28222-0.0451 0.36689-0.11289l-0.07055-0.25964c-0.05927 0.0395-0.11853 0.0649-0.21167 0.0649z"/>
   <path id="path1573" d="m17.99 195.47c0.11853 0 0.23424-0.031 0.31609-0.0734l-0.04233-0.26811c-0.0508 0.0226-0.08749 0.0339-0.14958 0.0339-0.10442 0-0.11007-0.096-0.11007-0.22296v-0.61524h0.27376v-0.29916h-0.27376v-0.36971l-0.33584 0.10442v0.26529h-0.15522v0.29916h0.15522v0.73942c0 0.26247 0.07902 0.4064 0.32173 0.4064z"/>
  </g>
  <g id="text2306" transform="translate(-.23872 180.12)" fill="#fffff0" stroke-width=".26458" aria-label="V/Oct">
   <path id="path2321" d="m3.1037 42.804-0.29351-1.1599h-0.42051l0.60396 1.9897h0.27093l0.59831-1.9897h-0.37536l-0.28787 1.1571-0.045156 0.34149h-0.011289z"/>
   <path id="path2323" d="m4.6165 41.61-0.82974 2.3058 0.25965 0.09878 0.82691-2.3058z"/>
   <path id="path2325" d="m6.3013 42.632c0-0.55034-0.15522-1.0273-0.69991-1.0273-0.5334 0-0.69709 0.44873-0.69709 1.0273 0 0.55598 0.14676 1.0273 0.69709 1.0273 0.52776 0 0.69991-0.44874 0.69991-1.0273zm-1.0245 0c0-0.46567 0.10724-0.69991 0.32456-0.69991 0.062089 0 0.11289 0.01976 0.15522 0.05645 0.13547 0.12136 0.17216 0.381 0.17216 0.64347 0 0.24553-0.028222 0.42334-0.081845 0.5334-0.056445 0.11289-0.13829 0.16651-0.24553 0.16651-0.062089 0-0.11289-0.01693-0.1524-0.05362-0.14111-0.12136-0.17216-0.37536-0.17216-0.64629z"/>
   <path id="path2327" d="m7.0549 43.348c-0.20038 0-0.254-0.21731-0.254-0.43462 0-0.1524 0.019756-0.26247 0.059267-0.3302 0.039511-0.06773 0.098778-0.10442 0.1778-0.10442 0.093133 0 0.14111 0.01975 0.20884 0.0508l0.079022-0.2794c-0.095956-0.0508-0.19473-0.07902-0.34996-0.07902-0.39229 0-0.52211 0.31609-0.52211 0.74225 0 0.41487 0.10724 0.74225 0.51647 0.74225 0.14393 0 0.28222-0.04516 0.36689-0.11289l-0.070556-0.25965c-0.059267 0.03951-0.11853 0.06491-0.21167 0.06491z"/>
   <path id="path2329" d="m7.8592 43.653c0.11853 0 0.23425-0.03104 0.31609-0.07338l-0.042333-0.26811c-0.0508 0.02258-0.087489 0.03387-0.14958 0.03387-0.10442 0-0.11007-0.09596-0.11007-0.22296v-0.61525h0.27376v-0.29916h-0.27376v-0.36971l-0.33585 0.10442v0.26529h-0.15522v0.29916h0.15522v0.73942c0 0.26247 0.079022 0.4064 0.32173 0.4064z"/>
  </g>
  <g id="text2310" transform="translate(10.108 168.84)" fill="#fffff0" stroke-width=".26458" aria-label="Gate">
   <path id="path2312" d="m3.3191 54.613c-0.11853 0-0.21449-0.05644-0.28787-0.16933-0.073378-0.11289-0.10724-0.28787-0.10724-0.52776 0-0.36125 0.0762-0.70274 0.42898-0.70274 0.12982 0 0.22578 0.02258 0.31327 0.05927l0.073378-0.30762c-0.11007-0.04516-0.26811-0.07902-0.4318-0.07902-0.23989 0-0.41205 0.09313-0.53058 0.23424-0.1524 0.18062-0.22578 0.44591-0.22578 0.79305 0 0.18062 0.016933 0.33584 0.0508 0.46567 0.087489 0.32738 0.2794 0.56162 0.68016 0.56162 0.21449 0 0.40076-0.07055 0.52211-0.18627v-0.8749h-0.6096v0.21449l0.32456 0.04516v0.40358c-0.047978 0.04516-0.11571 0.07056-0.20038 0.07056z"/>
   <path id="path2314" d="m4.4311 53.749c0.17216 0 0.18627 0.12136 0.17216 0.31045-0.381-0.01976-0.66887 0.09313-0.66887 0.45156 0 0.23707 0.127 0.40922 0.35842 0.40922 0.16651 0 0.27093-0.07902 0.33302-0.18909h0.011289l0.053622 0.17216h0.27376c-0.084667-0.27093-0.0254-0.64065-0.0254-0.9652 0-0.31045-0.11571-0.47696-0.42898-0.47696-0.2032 0-0.381 0.04233-0.49953 0.11289l0.084667 0.25118c0.081845-0.04233 0.21167-0.0762 0.33585-0.0762zm-0.14958 0.70556c0-0.16087 0.16087-0.19756 0.32738-0.1778v0.23424c-0.033867 0.06491-0.098778 0.12136-0.19473 0.12136-0.095956 0-0.13264-0.07338-0.13264-0.1778z"/>
   <path id="path2316" d="m5.5402 54.934c0.11853 0 0.23425-0.03104 0.31609-0.07338l-0.042333-0.26811c-0.0508 0.02258-0.087489 0.03387-0.14958 0.03387-0.10442 0-0.11007-0.09596-0.11007-0.22296v-0.61525h0.27376v-0.29916h-0.27376v-0.36971l-0.33585 0.10442v0.26529h-0.15522v0.29916h0.15522v0.73942c0 0.26247 0.079022 0.4064 0.32173 0.4064z"/>
   <path id="path2318" d="m6.5647 54.649c-0.21449 0-0.28505-0.14393-0.29069-0.36125h0.6858c0.014111-0.09313 0.028222-0.18344 0.028222-0.28504 0-0.33584-0.14958-0.55316-0.47413-0.55316-0.18062 0-0.31891 0.06209-0.42051 0.18344-0.1016 0.12136-0.14958 0.30762-0.14958 0.56162 0 0.42616 0.13547 0.74225 0.5588 0.74225 0.17216 0 0.35278-0.05927 0.44591-0.14111l-0.10442-0.23424c-0.059267 0.04798-0.17216 0.08749-0.2794 0.08749zm0.11007-0.5842h-0.38947c0.00847-0.17216 0.056445-0.32738 0.22296-0.32738 0.14393 0 0.17498 0.15804 0.16651 0.32738z"/>
  </g>
  <g id="g605" transform="translate(-18.278 .31211)" stroke-width=".26458">
   <path id="path526" d="m25.223 174.31v-0.57291h-2.262v0.57291h0.81986v2.8843h0.6223v-2.8843z" style="font-variant-ligatures:none"/>
   <path id="path528" d="m25.891 175.18c0.30127 0 0.32597 0.21238 0.30127 0.54328-0.66675-0.0346-1.1705 0.16299-1.1705 0.79023 0 0.41486 0.22225 0.71614 0.62724 0.71614 0.2914 0 0.47414-0.13829 0.58279-0.33091h0.01975l0.09384 0.30127h0.47907c-0.14817-0.47413-0.04445-1.1211-0.04445-1.6891 0-0.54328-0.2025-0.83467-0.75071-0.83467-0.3556 0-0.66675 0.0741-0.87419 0.19755l0.14817 0.43956c0.14323-0.0741 0.37042-0.13335 0.58773-0.13335zm-0.26176 1.2347c0-0.28152 0.28152-0.34572 0.57291-0.31115v0.40993c-0.05927 0.11359-0.17286 0.21237-0.34078 0.21237-0.16792 0-0.23213-0.12841-0.23213-0.31115z" style="font-variant-ligatures:none"/>
   <path id="path530" d="m27.339 174.73v2.4694h0.58773v-2.4694zm0.2914-0.36548c0.21731 0 0.3803-0.1136 0.3803-0.33091 0-0.21237-0.16298-0.34078-0.3803-0.34078-0.21731 0-0.36054 0.13335-0.36054 0.34078 0 0.21237 0.14323 0.33091 0.36054 0.33091z" style="font-variant-ligatures:none"/>
   <path id="path532" d="m29.005 177.25c0.16298 0 0.40005-0.0444 0.49389-0.10865l-0.05433-0.47414c-0.06914 0.0296-0.12347 0.0444-0.19756 0.0444-0.13829 0-0.14817-0.14817-0.14817-0.32103v-2.6571h-0.58773v2.9732c0 0.37536 0.13829 0.54328 0.49389 0.54328z" style="font-variant-ligatures:none"/>
   <path id="path534" d="m30.47 176.75c-0.20743 0-0.39511-0.0691-0.52352-0.14816l-0.16298 0.47413c0.15311 0.10866 0.4445 0.1778 0.7112 0.1778 0.50871 0 0.8248-0.2667 0.8248-0.75565 0-0.51365-0.3556-0.67169-0.67663-0.85937-0.10866-0.0593-0.23707-0.12841-0.23707-0.27658 0-0.13335 0.07902-0.20249 0.24201-0.20249 0.16792 0 0.36548 0.0642 0.48895 0.11359l0.13829-0.45438c-0.16298-0.0938-0.44944-0.16298-0.71614-0.16298-0.47907 0-0.74084 0.25188-0.74084 0.72108 0 0.51364 0.36054 0.66181 0.67663 0.84949 0.10866 0.0642 0.23707 0.14817 0.23707 0.30621 0 0.15311-0.1136 0.21731-0.26176 0.21731z" style="font-variant-ligatures:none"/>
   <path id="path536" d="m33.914 176.23v-0.50377h-0.43462v-2.0151h-0.51365l-1.2644 2.1534v0.36548h1.2199v0.96309h0.5581v-0.96309zm-0.99272-1.2693v0.76553h-0.44944l-0.25188 0.0395 0.19756-0.18768 0.39017-0.66181 0.14817-0.40005h0.01976z" style="font-variant-ligatures:none"/>
  </g>
  <g id="g529" transform="translate(3.6 -.099997)" fill="#555d50" stroke-width=".293">
   <rect id="rect461" x="-3" y="218.5" width="1.4" height="2.8"/>
   <circle id="path1332" cx="-1.6" cy="219.9" r="1.4"/>
   <rect id="rect1334" x="-3" y="220" width="2.8" height="1.3"/>
  </g>
  <g id="g477" transform="translate(13.033 -.099997)" fill="#555d50" stroke-width=".293">
   <rect id="rect471" x="-3" y="218.5" width="1.4" height="2.8"/>
   <circle id="circle473" cx="-1.6" cy="219.9" r="1.4"/>
   <rect id="rect475" x="-3" y="220" width="2.8" height="1.3"/>
  </g>
  <path id="path533" d="m10.16 221.23v-41.629" fill="none" stroke="#555d50" stroke-width=".293"/>
 </g>
 <g id="layer2" display="none">
  <circle id="circle918" cx="14.84" cy="59.75" r="4" fill="#00f" fill-rule="evenodd" stroke-width=".26458"/>
  <circle id="circle922" cx="5.444" cy="37.25" r="4" fill="#0f0" fill-rule="evenodd" stroke-width=".26458"/>
  <circle id="circle1002" cx="5.48" cy="59.75" r="4" fill="#00f" fill-rule="evenodd" stroke-width=".26458"/>
  <circle id="circle1048" cx="5.08" cy="71.5" r="3" fill-rule="evenodd" stroke-width=".26458"/>
  <circle id="circle5176" cx="5.444" cy="18.75" r="4" fill="#0f0" fill-rule="evenodd" stroke-width=".26458"/>
  <circle id="circle2332" cx="5.444" cy="46.5" r="4" fill="#0f0" fill-rule="evenodd" stroke-width=".26458"/>
  <circle id="circle2334" cx="14.877" cy="46.5" r="4" fill="#0f0" fill-rule="evenodd" stroke-width=".26458"/>
  <circle id="circle2338" cx="5.444" cy="28" r="4" fill="#0f0" fill-rule="evenodd" stroke-width=".26458"/>
  <circle id="circle4263" cx="14.877" cy="18.75" r="4" fill="#0f0" fill-rule="evenodd" stroke-width=".26458"/>
  <circle id="circle4265" cx="14.877" cy="28" r="4" fill="#0f0" fill-rule="evenodd" stroke-width=".26458"/>
  <circle id="circle4267" cx="14.877" cy="37.25" r="4" fill="#0f0" fill-rule="evenodd" stroke-width=".26458"/>
  <text id="text7875" x="26.873898" y="9.8641768" fill="#fffff0" font-family="'PTQ Sans Narrow'" font-size="2.8222px" font-stretch="condensed" font-weight="bold" stroke-width=".26458" style="font-variant-caps:normal;font-variant-east-asian:normal;font-variant-ligatures:normal;font-variant-numeric:normal" xml:space="preserve"><tspan id="tspan7873" x="26.873898" y="9.8641768" stroke-width=".26458"/></text>
  <text id="text7879" x="30.445026" y="9.9664907" fill="#fffff0" font-family="'PTQ Sans Narrow'" font-size="2.8222px" font-stretch="condensed" font-weight="bold" stroke-width=".26458" style="font-variant-caps:normal;font-variant-east-asian:normal;font-variant-ligatures:normal;font-variant-numeric:normal" xml:space="preserve"><tspan id="tspan7877" x="30.445026" y="9.9664907" stroke-width=".26458"/></text>
  <text id="text460" transform="scale(.26458)" display="inline" fill="#fffff0" font-family="'PTQ Sans Narrow'" font-size="10.667px" font-stretch="condensed" font-weight="bold" style="shape-inside:url(#rect462);white-space:pre" xml:space="preserve"/>
  <circle id="circle910" cx="15.24" cy="74.25" r="4" display="inline" fill="#0f0" fill-rule="evenodd" stroke-width=".26458"/>
  <circle id="circle918-3" cx="15.24" cy="85" r="4" display="inline" fill="#00f" fill-rule="evenodd" stroke-width=".26458"/>
  <circle id="circle884" cx="15.24" cy="95" r="4" display="inline" fill="#00f" fill-rule="evenodd" stroke-width=".26458"/>
  <circle id="circle886" cx="15.24" cy="105" r="4" display="inline" fill="#00f" fill-rule="evenodd" stroke-width=".26458"/>
  <circle id="circle888" cx="15.24" cy="115" r="4" display="inline" fill="#00f" fill-rule="evenodd" stroke-width=".26458"/>
  <circle id="circle953" cx="18.56" cy="81" r=".816" display="inline" fill="#f00" stroke-width=".265"/>
  <circle id="circle71" cx="18.56" cy="91" r=".816" display="inline" fill="#f00" stroke-width=".265"/>
  <circle id="circle73" cx="18.56" cy="101" r=".816" display="inline" fill="#f00" stroke-width=".265"/>
  <circle id="circle75" cx="18.56" cy="111" r=".816" display="inline" fill="#f00" stroke-width=".265"/>
  <circle id="circle918-2" cx="5.08" cy="97" r="4" display="inline" fill="#00f" fill-rule="evenodd" stroke-width=".26458"/>
  <circle id="circle922-2" cx="5.08" cy="108.6" r="4" display="inline" fill="#0f0" fill-rule="evenodd" stroke-width=".26458"/>
  <circle id="circle9581" cx="5.08" cy="116.25" r="3" display="inline" fill-rule="evenodd" stroke-width=".26458"/>
  <circle id="circle8901" cx="5.08" cy="86" r="4" display="inline" fill="#0f0" fill-rule="evenodd" stroke-width=".26458"/>
  <circle id="circle2167" cx="8.4" cy="68.798" r=".816" display="inline" fill="#f00" stroke-width=".265"/>
  <circle id="circle484" cx="8.726" cy="14.75" r=".816" display="inline" fill="#00b8ff" stroke-width=".265"/>
  <circle id="circle1228" cx="18.16" cy="55.75" r=".816" display="inline" fill="#f00" stroke-width=".265"/>
  <circle id="circle1230" cx="8.8" cy="55.75" r=".816" display="inline" fill="#f00" stroke-width=".265"/>
  <circle id="path840" cx="2" cy="51.3" r=".975" display="inline" fill="#00b8ff" opacity=".994" stop-color="#000000" stroke="#454545" stroke-dashoffset="9.4488" stroke-width=".15"/>
  <circle id="circle1459" cx="11.433" cy="51.3" r=".975" display="inline" fill="#00b8ff" opacity=".994" stop-color="#000000" stroke="#454545" stroke-dashoffset="9.4488" stroke-width=".15"/>
  <circle id="circle1461" cx="18.16" cy="14.75" r=".816" display="inline" fill="#00b8ff" stroke-width=".265"/>
  <circle id="circle1463" cx="18.16" cy="24" r=".816" display="inline" fill="#00b8ff" stroke-width=".265"/>
  <circle id="circle1465" cx="8.726" cy="24" r=".816" display="inline" fill="#00b8ff" stroke-width=".265"/>
  <circle id="circle1467" cx="8.726" cy="33.25" r=".816" display="inline" fill="#00b8ff" stroke-width=".265"/>
  <circle id="circle1469" cx="18.16" cy="33.25" r=".816" display="inline" fill="#00b8ff" stroke-width=".265"/>
  <circle id="circle1471" cx="18.16" cy="42.5" r=".816" display="inline" fill="#00b8ff" stroke-width=".265"/>
  <circle id="circle1473" cx="8.726" cy="42.5" r=".816" display="inline" fill="#00b8ff" stroke-width=".265"/>
 </g>
</svg>
