<?xml version="1.0" encoding="UTF-8"?>
<svg id="svg8" width="10.16mm" height="128.5mm" version="1.1" viewBox="0 0 10.16 128.5" xmlns="http://www.w3.org/2000/svg" xmlns:cc="http://creativecommons.org/ns#" xmlns:dc="http://purl.org/dc/elements/1.1/" xmlns:rdf="http://www.w3.org/1999/02/22-rdf-syntax-ns#">
 <metadata id="metadata5">
  <rdf:RDF>
   <cc:Work rdf:about="">
    <dc:format>image/svg+xml</dc:format>
    <dc:type rdf:resource="http://purl.org/dc/dcmitype/StillImage"/>
    <dc:title/>
   </cc:Work>
  </rdf:RDF>
 </metadata>
 <g id="layer1" transform="translate(0,-168.5)">
  <rect id="rect838" x="-5.5511e-17" y="168.5" width="10.16" height="128.5" fill="#bbbbb0"/>
  <rect id="rect45" x=".68" y="190.38" width="8.8" height="8.75" fill="#555d50"/>
  <text id="text64" x="2.0529213" y="233.73691" font-family="'PT Sans Narrow'" font-size="2.8222px" font-stretch="condensed" font-weight="bold" stroke-width=".26458" style="line-height:1.25" xml:space="preserve"><tspan id="tspan62" x="2.0529213" y="233.73691" stroke-width=".26458"/></text>
  <g id="text2569" transform="translate(0 -.83024)" stroke-width=".26458" aria-label="GRANDE">
   <path id="path2571" d="m1.6964 292.53c0.15522 0 0.28222-0.0564 0.35807-0.13405v-0.48684h-0.381v0.12171h0.24518v0.30163c-0.045861 0.0423-0.12524 0.067-0.20814 0.067-0.24694 0-0.38276-0.18168-0.38276-0.47272 0-0.28751 0.14817-0.46567 0.381-0.46567 0.11642 0 0.1905 0.0441 0.24871 0.10407l0.081139-0.0917c-0.067028-0.0723-0.17286-0.14287-0.33338-0.14287-0.30692 0-0.53093 0.22754-0.53093 0.59972 0 0.37747 0.21696 0.59972 0.52211 0.59972z"/>
   <path id="path2573" d="m2.7 292.51h0.14817v-0.48859h0.20814l0.27869 0.48859h0.16757l-0.29457-0.50447c0.15699-0.0406 0.25929-0.1464 0.25929-0.32632 0-0.24165-0.16933-0.32632-0.40569-0.32632h-0.3616zm0.14817-0.60854v-0.42862h0.19226c0.17992 0 0.27869 0.0547 0.27869 0.20637 0 0.14817-0.098778 0.22225-0.27869 0.22225z"/>
   <path id="path2575" d="m4.2699 291.86c0.04057-0.12876 0.077611-0.25576 0.11289-0.38982h0.00706c0.037042 0.13406 0.074083 0.26106 0.11642 0.38982l0.054681 0.17463h-0.34573zm-0.35454 0.64558h0.14993l0.11112-0.35101h0.42157l0.10936 0.35101h0.15699l-0.38982-1.1571h-0.16933z"/>
   <path id="path2577" d="m5.3988 292.51h0.13935v-0.60854c0-0.11994-0.010583-0.24518-0.019403-0.3616h0.00706c0.038806 0.0847 0.081139 0.1711 0.12524 0.24871l0.41275 0.72143h0.15875v-1.1571h-0.13935v0.60325c0 0.11995 0.010583 0.24695 0.019403 0.36689h-0.00706c-0.040569-0.0847-0.081139-0.1711-0.12524-0.24871l-0.41275-0.72143h-0.15875z"/>
   <path id="path2579" d="m6.9087 292.51h0.29633c0.34925 0 0.53975-0.21519 0.53975-0.58384 0-0.36689-0.1905-0.57327-0.54681-0.57327h-0.28928zm0.14817-0.1217v-0.9137h0.13053c0.26988 0 0.40393 0.16051 0.40393 0.45156 0 0.2928-0.13406 0.46214-0.40393 0.46214z"/>
   <path id="path2581" d="m8.3657 292.51h0.68439v-0.12523h-0.53622v-0.41981h0.43744v-0.12523h-0.43744v-0.3616h0.51858v-0.12524h-0.66675z"/>
  </g>
  <text id="text925" x="7.705914" y="247.28606" font-family="'PT Sans Narrow'" font-size="2.8222px" font-stretch="condensed" font-weight="bold" stroke-width=".26458" text-align="center" text-anchor="middle" style="line-height:1.25" xml:space="preserve"><tspan id="tspan923" x="7.705914" y="247.28606" stroke-width=".26458"/></text>
  <rect id="rect902" x=".7125" y="179.63" width="8.735" height="34.735" rx="1" ry="1" fill="none" stroke="#555d50" stroke-width=".265"/>
  <g id="g891" transform="translate(-13.291 .39085)" stroke-width=".26458">
   <path id="path8470" d="m15.207 175.71-0.51365-2.0299h-0.7359l1.0569 3.4819h0.47413l1.047-3.4819h-0.65687l-0.50377 2.025-0.07902 0.59761h-0.01976z" style="font-variant-ligatures:none"/>
   <path id="path8472" d="m17.813 176.63c-0.13335 0-0.24694-0.0296-0.34078-0.0889-0.30621-0.19261-0.40499-0.62724-0.40499-1.1359 0-0.41981 0.05927-0.73096 0.18274-0.92852 0.11853-0.19755 0.29633-0.29633 0.52352-0.29633 0.21237 0 0.3803 0.0346 0.51858 0.10372l0.12347-0.54822c-0.18274-0.079-0.43462-0.12841-0.71614-0.12841-0.39017 0-0.68157 0.14322-0.88406 0.37535-0.27658 0.31115-0.40005 0.79023-0.40005 1.4175 0 0.33584 0.02963 0.6223 0.09878 0.84949 0.15804 0.55809 0.48895 0.95321 1.1705 0.95321 0.2914 0 0.60748-0.0691 0.77047-0.20744l-0.12347-0.52352c-0.13829 0.0889-0.2914 0.15804-0.51858 0.15804z" style="font-variant-ligatures:none"/>
   <path id="path8474" d="m20.162 176.36 0.21237 0.78035h0.65194l-1.0075-3.4819h-0.48895l-1.0026 3.4819h0.61736l0.2025-0.78035zm-0.68157-0.51364 0.19262-0.8001 0.08396-0.54822h0.01976l0.07902 0.54328 0.19756 0.80504z" style="font-variant-ligatures:none"/>
   <path id="path8476" d="m21.195 176.56-0.15804 0.49389c0.14817 0.0938 0.45932 0.15311 0.70626 0.15311 0.14323 0 0.27658-0.0198 0.40499-0.0691 0.40005-0.14323 0.63712-0.51858 0.63712-1.0717 0-0.15805-0.01975-0.30127-0.05927-0.41981-0.09384-0.29139-0.29633-0.52352-0.64206-0.55315l-0.18274 0.0296v-0.0247l0.18274-0.13335 0.57291-0.93345v-0.35066h-1.5804v0.52352h0.67663l0.32597-0.0444-0.23707 0.22225-0.48895 0.82974v0.33584h0.2914c0.36548 0 0.55316 0.18768 0.55316 0.5581 0 0.33091-0.16792 0.57785-0.49389 0.57785-0.21237 0-0.37042-0.0494-0.50871-0.12347z" style="font-variant-ligatures:none"/>
  </g>
  <g id="text9091" transform="translate(-9.8349 .2909)" stroke-width=".26458" style="font-variant-ligatures:none" aria-label="In A">
   <path id="path13735" d="m13.073 179.72v1.9756h0.3556v-1.9756z"/>
   <path id="path13737" d="m14.391 180.25c-0.18627 0-0.29916 0.0875-0.36689 0.19756h-0.0085l-0.03951-0.16369h-0.26811v1.4111h0.33585v-0.97932c0.0254-0.079 0.09596-0.15804 0.2032-0.15804 0.14111 0 0.16087 0.11289 0.16087 0.2794v0.85796h0.33585v-0.93981c0-0.29351-0.06773-0.50518-0.35278-0.50518z"/>
   <path id="path13739" d="m16.262 181.25 0.12136 0.44592h0.37254l-0.57574-1.9897h-0.2794l-0.57291 1.9897h0.35278l0.11571-0.44592zm-0.38947-0.29351 0.11007-0.4572 0.04798-0.31327h0.01129l0.04516 0.31045 0.11289 0.46002z"/>
  </g>
  <g id="text19373" transform="translate(-10.761 .37355)" stroke-width=".26458" style="font-variant-ligatures:none" aria-label="In B">
   <path id="path28827" d="m14.009 216.65v1.9756h0.3556v-1.9756z"/>
   <path id="path28829" d="m15.327 217.19c-0.18627 0-0.29916 0.0875-0.36689 0.19756h-0.0085l-0.03951-0.16369h-0.26811v1.4111h0.33584v-0.97931c0.0254-0.079 0.09596-0.15804 0.2032-0.15804 0.14111 0 0.16087 0.11288 0.16087 0.2794v0.85795h0.33584v-0.9398c0-0.29351-0.06773-0.50518-0.35278-0.50518z"/>
   <path id="path28831" d="m16.998 216.63c-0.16369 0-0.37254 0.0198-0.50236 0.0423v1.9473c0.11853 0.0339 0.27658 0.0423 0.42333 0.0423h0.1016c0.38665 0 0.65194-0.19192 0.65194-0.58421 0-0.26811-0.12136-0.42615-0.33302-0.47977v-0.0169c0.18062-0.0593 0.28505-0.22578 0.28505-0.46567 0-0.37253-0.25682-0.48542-0.62654-0.48542zm-0.14676 1.7074v-0.56162h0.14393c0.2032 0 0.3048 0.0734 0.3048 0.2794 0 0.18062-0.1016 0.29915-0.27093 0.29915-0.0508 0-0.14676-3e-3 -0.1778-0.0169zm0.41769-1.1402c0 0.1524-0.09031 0.24553-0.19756 0.28504-0.03387 8e-3 -0.1016 0.0141-0.13829 0.0141h-0.08184v-0.54752c0.03104-6e-3 0.08467-0.0113 0.16369-0.0113 0.16933 0 0.254 0.0875 0.254 0.25965z"/>
  </g>
  <g id="text23015" transform="translate(-10.368 .21915)" stroke-width=".26458" style="font-variant-ligatures:none" aria-label="In C">
   <path id="path28834" d="m13.661 253.82v1.9756h0.3556v-1.9756z"/>
   <path id="path28836" d="m14.979 254.35c-0.18627 0-0.29916 0.0875-0.36689 0.19756h-0.0085l-0.03951-0.16369h-0.26811v1.4111h0.33584v-0.97931c0.0254-0.079 0.09596-0.15805 0.2032-0.15805 0.14111 0 0.16087 0.11289 0.16087 0.27941v0.85795h0.33584v-0.9398c0-0.29351-0.06773-0.50518-0.35278-0.50518z"/>
   <path id="path28838" d="m16.867 255.51c-0.0762 0-0.14111-0.0169-0.19473-0.0508-0.17498-0.11007-0.23142-0.35843-0.23142-0.64912 0-0.23989 0.03387-0.41769 0.10442-0.53058 0.06773-0.11289 0.16933-0.16933 0.29916-0.16933 0.12136 0 0.21731 0.0198 0.29633 0.0593l0.07056-0.31327c-0.10442-0.0452-0.24836-0.0734-0.40922-0.0734-0.22296 0-0.38947 0.0818-0.50518 0.21449-0.15804 0.1778-0.2286 0.45156-0.2286 0.80998 0 0.19191 0.01693 0.3556 0.05644 0.48542 0.09031 0.31892 0.2794 0.54469 0.66887 0.54469 0.16651 0 0.34713-0.0395 0.44027-0.11853l-0.07056-0.29916c-0.07902 0.0508-0.16651 0.0903-0.29633 0.0903z"/>
  </g>
  <rect id="rect1196" x=".68" y="227.38" width="8.8" height="8.75" fill="#555d50"/>
  <rect id="rect1198" x=".7125" y="216.63" width="8.735" height="34.735" rx="1" ry="1" fill="none" stroke="#555d50" stroke-width=".265"/>
  <rect id="rect1216" x=".68" y="264.38" width="8.8" height="8.75" fill="#555d50"/>
  <rect id="rect1218" x=".7125" y="253.63" width="8.735" height="34.735" rx="1" ry="1" fill="none" stroke="#555d50" stroke-width=".265"/>
 </g>
 <g id="layer2" display="none" fill-rule="evenodd" stroke-width=".26458">
  <circle id="circle918" cx="5.08" cy="26.25" r="4" fill="#00f"/>
  <circle id="circle922" cx="5.08" cy="35" r="4" fill="#0f0"/>
  <circle id="circle9581" cx="5.08" cy="42.5" r="3"/>
  <circle id="circle8901" cx="5.08" cy="17.5" r="4" fill="#0f0"/>
  <circle id="circle1208" cx="5.08" cy="63.25" r="4" fill="#00f"/>
  <circle id="circle1210" cx="5.08" cy="72" r="4" fill="#0f0"/>
  <circle id="circle1212" cx="5.08" cy="79.5" r="3"/>
  <circle id="circle1214" cx="5.08" cy="54.5" r="4" fill="#0f0"/>
  <circle id="circle1228" cx="5.08" cy="100.25" r="4" fill="#00f"/>
  <circle id="circle1230" cx="5.08" cy="109" r="4" fill="#0f0"/>
  <circle id="circle1232" cx="5.08" cy="116.5" r="3"/>
  <circle id="circle1234" cx="5.08" cy="91.5" r="4" fill="#0f0"/>
 </g>
</svg>
