<?xml version="1.0" encoding="UTF-8" standalone="no"?>
<svg
   sodipodi:docname="Compare3-dark.svg"
   inkscape:version="1.3 (0e150ed6c4, 2023-07-21)"
   id="svg8"
   version="1.1"
   viewBox="0 0 10.16 128.5"
   height="128.5mm"
   width="10.16mm"
   xmlns:inkscape="http://www.inkscape.org/namespaces/inkscape"
   xmlns:sodipodi="http://sodipodi.sourceforge.net/DTD/sodipodi-0.dtd"
   xmlns="http://www.w3.org/2000/svg"
   xmlns:svg="http://www.w3.org/2000/svg"
   xmlns:rdf="http://www.w3.org/1999/02/22-rdf-syntax-ns#"
   xmlns:cc="http://creativecommons.org/ns#"
   xmlns:dc="http://purl.org/dc/elements/1.1/">
  <defs
     id="defs2" />
  <sodipodi:namedview
     inkscape:snap-global="true"
     inkscape:snap-bbox-midpoints="true"
     inkscape:snap-bbox="true"
     inkscape:document-rotation="0"
     inkscape:window-maximized="0"
     inkscape:window-y="23"
     inkscape:window-x="26"
     inkscape:window-height="1216"
     inkscape:window-width="1499"
     inkscape:lockguides="false"
     inkscape:guide-bbox="true"
     showguides="true"
     units="mm"
     showgrid="false"
     inkscape:current-layer="layer1"
     inkscape:document-units="mm"
     inkscape:cy="159.9829"
     inkscape:cx="11.402096"
     inkscape:zoom="11.313709"
     inkscape:pageshadow="2"
     inkscape:pageopacity="0.0"
     borderopacity="1.0"
     bordercolor="#666666"
     pagecolor="#ffffff"
     id="base"
     inkscape:bbox-nodes="false"
     inkscape:bbox-paths="false"
     inkscape:snap-grids="false"
     inkscape:snap-others="false"
     inkscape:object-nodes="false"
     inkscape:snap-nodes="false"
     inkscape:snap-bbox-edge-midpoints="false"
     inkscape:pagecheckerboard="0"
     inkscape:showpageshadow="2"
     inkscape:deskcolor="#d1d1d1">
    <sodipodi:guide
       position="5.0800001,110.25"
       orientation="0,1"
       id="guide837"
       inkscape:label=""
       inkscape:locked="false"
       inkscape:color="rgb(0,0,255)" />
    <sodipodi:guide
       inkscape:color="rgb(0,0,255)"
       inkscape:locked="false"
       inkscape:label=""
       id="guide875"
       orientation="0,1"
       position="8.58,37.5" />
    <sodipodi:guide
       position="6.5378441,77.250003"
       orientation="0,1"
       id="guide891"
       inkscape:label=""
       inkscape:locked="false"
       inkscape:color="rgb(0,0,255)" />
    <sodipodi:guide
       position="5.0800001,45.250002"
       orientation="0,1"
       id="guide893"
       inkscape:label=""
       inkscape:locked="false"
       inkscape:color="rgb(0,0,255)" />
    <sodipodi:guide
       position="5.0800001,87.700008"
       orientation="0,1"
       id="guide947"
       inkscape:label=""
       inkscape:locked="false"
       inkscape:color="rgb(0,0,255)" />
    <sodipodi:guide
       inkscape:color="rgb(0,0,255)"
       inkscape:locked="false"
       inkscape:label=""
       id="guide907"
       orientation="0,1"
       position="8.58,17.500001" />
    <sodipodi:guide
       position="4.3000004,64.500003"
       orientation="0,1"
       id="guide908"
       inkscape:label=""
       inkscape:locked="false"
       inkscape:color="rgb(0,0,255)" />
    <sodipodi:guide
       inkscape:color="rgb(0,0,255)"
       inkscape:locked="false"
       inkscape:label=""
       id="guide944"
       orientation="-1,0"
       position="5.0800002,74.250002" />
    <sodipodi:guide
       position="8.5000003,101.5"
       orientation="0,1"
       id="guide18956"
       inkscape:label=""
       inkscape:locked="false"
       inkscape:color="rgb(0,0,255)" />
    <sodipodi:guide
       position="4.2,55.700007"
       orientation="0,-1"
       id="guide1014"
       inkscape:locked="false" />
    <sodipodi:guide
       position="4.2,23.699998"
       orientation="0,-1"
       id="guide1016"
       inkscape:locked="false" />
    <sodipodi:guide
       position="8.3800005,73.700004"
       orientation="-1,0"
       id="guide1286"
       inkscape:label=""
       inkscape:locked="false"
       inkscape:color="rgb(0,0,255)" />
    <sodipodi:guide
       position="4.3000004,96.500004"
       orientation="0,1"
       id="guide1587"
       inkscape:label=""
       inkscape:locked="false"
       inkscape:color="rgb(0,0,255)" />
    <sodipodi:guide
       position="8.58,69.500001"
       orientation="0,1"
       id="guide1844"
       inkscape:label=""
       inkscape:locked="false"
       inkscape:color="rgb(0,0,255)" />
    <sodipodi:guide
       position="8.58,49.500002"
       orientation="0,1"
       id="guide1850"
       inkscape:label=""
       inkscape:locked="false"
       inkscape:color="rgb(0,0,255)" />
    <sodipodi:guide
       position="4.3000004,32.500001"
       orientation="0,1"
       id="guide1854"
       inkscape:label=""
       inkscape:locked="false"
       inkscape:color="rgb(0,0,255)" />
    <sodipodi:guide
       position="5.9600003,96.500004"
       orientation="-1,0"
       id="guide1369"
       inkscape:label=""
       inkscape:locked="false"
       inkscape:color="rgb(0,0,255)" />
    <sodipodi:guide
       position="8.5000005,105.5"
       orientation="0,1"
       id="guide1413"
       inkscape:label=""
       inkscape:locked="false"
       inkscape:color="rgb(0,0,255)" />
    <sodipodi:guide
       position="8.5000005,81.500002"
       orientation="0,-1"
       id="guide2461"
       inkscape:locked="false" />
    <sodipodi:guide
       position="12.043773,101.5"
       orientation="1,0"
       id="guide1035"
       inkscape:locked="false" />
    <sodipodi:guide
       position="7.2098963,91.500004"
       orientation="0,1"
       id="guide1126"
       inkscape:label=""
       inkscape:locked="false"
       inkscape:color="rgb(0,0,255)" />
    <sodipodi:guide
       position="5.0800002,13.25"
       orientation="0,-1"
       id="guide596"
       inkscape:locked="false" />
    <sodipodi:guide
       position="1.5800008,100.5"
       orientation="-1,0"
       id="guide747"
       inkscape:locked="false"
       inkscape:label=""
       inkscape:color="rgb(0,134,229)" />
    <sodipodi:guide
       position="-2.7132361,73.700003"
       orientation="0,1"
       id="guide749"
       inkscape:locked="false"
       inkscape:label=""
       inkscape:color="rgb(0,134,229)" />
    <sodipodi:guide
       position="-2.9564504,41.700002"
       orientation="0,1"
       id="guide751"
       inkscape:locked="false"
       inkscape:label=""
       inkscape:color="rgb(0,134,229)" />
    <sodipodi:guide
       position="1.7800001,9.7000004"
       orientation="0,1"
       id="guide755"
       inkscape:locked="false"
       inkscape:label=""
       inkscape:color="rgb(0,134,229)" />
    <sodipodi:guide
       position="1.7800001,72.408335"
       orientation="-1,0"
       id="guide1217"
       inkscape:locked="false"
       inkscape:label=""
       inkscape:color="rgb(0,134,229)" />
  </sodipodi:namedview>
  <metadata
     id="metadata5">
    <rdf:RDF>
      <cc:Work
         rdf:about="">
        <dc:format>image/svg+xml</dc:format>
        <dc:type
           rdf:resource="http://purl.org/dc/dcmitype/StillImage" />
      </cc:Work>
    </rdf:RDF>
  </metadata>
  <g
     transform="translate(0,-168.5)"
     id="layer1"
     inkscape:groupmode="layer"
     inkscape:label="Layer 1"
     style="display:inline">
    <rect
       style="display:inline;opacity:1;fill:#242422;fill-opacity:1;stroke:none;stroke-width:1.131;stroke-miterlimit:4;stroke-dasharray:none"
       id="rect838"
       width="10.16"
       height="128.5"
       x="-5.5511151e-17"
       y="168.5" />
    <text
       xml:space="preserve"
       style="font-weight:bold;font-stretch:condensed;font-size:2.82223px;line-height:1.25;font-family:'PT Sans Narrow';-inkscape-font-specification:'PT Sans Narrow, Bold Condensed';opacity:1;stroke-width:0.264583"
       x="2.0529213"
       y="233.73691"
       id="text64"><tspan
         sodipodi:role="line"
         id="tspan62"
         x="2.0529213"
         y="233.73691"
         style="stroke-width:0.264583" /></text>
    <g
       aria-label="GRANDE"
       id="text2569"
       style="font-size:1.76389px;line-height:1.25;font-family:'Source Sans Pro';-inkscape-font-specification:'Source Sans Pro, Normal';text-align:center;letter-spacing:0.370417px;text-anchor:middle;opacity:1;stroke-width:0.264583;fill:#fffff0;fill-opacity:1"
       transform="translate(0,-0.83024)">
      <path
         d="m 1.6963961,292.52968 c 0.1552223,0 0.2822224,-0.0564 0.3580696,-0.13405 v -0.48684 H 1.6734655 v 0.12171 h 0.2451807 v 0.30163 c -0.045861,0.0423 -0.1252362,0.067 -0.208139,0.067 -0.2469446,0 -0.3827641,-0.18168 -0.3827641,-0.47272 0,-0.28751 0.1481667,-0.46567 0.3810002,-0.46567 0.1164167,0 0.1905001,0.0441 0.2487085,0.10407 l 0.081139,-0.0917 c -0.067028,-0.0723 -0.1728612,-0.14287 -0.3333752,-0.14287 -0.3069168,0 -0.5309309,0.22754 -0.5309309,0.59972 0,0.37747 0.2169585,0.59972 0.5221114,0.59972 z"
         style="stroke-width:0.264583;fill:#fffff0;fill-opacity:1"
         id="path2571" />
      <path
         d="m 2.7000468,292.50851 h 0.1481668 v -0.48859 h 0.208139 l 0.2786946,0.48859 h 0.1675696 l -0.2945696,-0.50447 c 0.1569862,-0.0406 0.2592918,-0.1464 0.2592918,-0.32632 0,-0.24165 -0.1693334,-0.32632 -0.4056947,-0.32632 H 2.7000468 Z m 0.1481668,-0.60854 v -0.42862 h 0.192264 c 0.1799168,0 0.2786946,0.0547 0.2786946,0.20637 0,0.14817 -0.098778,0.22225 -0.2786946,0.22225 z"
         style="stroke-width:0.264583;fill:#fffff0;fill-opacity:1"
         id="path2573" />
      <path
         d="m 4.2699053,291.86293 c 0.04057,-0.12876 0.077611,-0.25576 0.112889,-0.38982 h 0.00706 c 0.037042,0.13406 0.074083,0.26106 0.1164168,0.38982 l 0.054681,0.17463 H 4.2152247 Z m -0.3545419,0.64558 h 0.1499307 l 0.111125,-0.35101 H 4.5979889 L 4.70735,292.50851 H 4.8643363 L 4.4745166,291.3514 H 4.3051831 Z"
         style="stroke-width:0.264583;fill:#fffff0;fill-opacity:1"
         id="path2575" />
      <path
         d="M 5.3987927,292.50851 H 5.53814 v -0.60854 c 0,-0.11994 -0.010583,-0.24518 -0.019403,-0.3616 h 0.00706 c 0.038806,0.0847 0.081139,0.1711 0.1252362,0.24871 l 0.4127502,0.72143 H 6.2225293 V 291.3514 H 6.083182 v 0.60325 c 0,0.11995 0.010583,0.24695 0.019403,0.36689 h -0.00706 c -0.040569,-0.0847 -0.081139,-0.1711 -0.1252361,-0.24871 L 5.5575428,291.3514 H 5.3987927 Z"
         style="stroke-width:0.264583;fill:#fffff0;fill-opacity:1"
         id="path2577" />
      <path
         d="m 6.9086818,292.50851 h 0.2963335 c 0.3492503,0 0.5397504,-0.21519 0.5397504,-0.58384 0,-0.36689 -0.1905001,-0.57327 -0.5468059,-0.57327 h -0.289278 z m 0.1481668,-0.1217 v -0.9137 h 0.1305278 c 0.2698752,0 0.4039309,0.16051 0.4039309,0.45156 0,0.2928 -0.1340557,0.46214 -0.4039309,0.46214 z"
         style="stroke-width:0.264583;fill:#fffff0;fill-opacity:1"
         id="path2579" />
      <path
         d="m 8.3656535,292.50851 h 0.6843893 v -0.12523 H 8.5138202 v -0.41981 h 0.4374447 v -0.12523 H 8.5138202 v -0.3616 H 9.0324039 V 291.3514 H 8.3656535 Z"
         style="stroke-width:0.264583;fill:#fffff0;fill-opacity:1"
         id="path2581" />
    </g>
    <text
       xml:space="preserve"
       style="font-weight:bold;font-stretch:condensed;font-size:2.82223px;line-height:1.25;font-family:'PT Sans Narrow';-inkscape-font-specification:'PT Sans Narrow, Bold Condensed';text-align:center;text-anchor:middle;opacity:1;stroke-width:0.264583"
       x="7.705914"
       y="247.28606"
       id="text925"><tspan
         sodipodi:role="line"
         id="tspan923"
         x="7.705914"
         y="247.28606"
         style="stroke-width:0.264583" /></text>
    <rect
       style="fill:#555d50;fill-opacity:1;stroke:none;stroke-width:0.264996"
       id="rect908"
       width="9"
       height="11.5"
       x="-9.5799999"
       y="213.00002"
       rx="0.99999994"
       ry="0.99999994"
       transform="scale(-1,1)" />
    <rect
       style="fill:#555d50;fill-opacity:1;stroke:none;stroke-width:0.251398"
       id="rect978"
       height="22"
       x="-2.5799999"
       y="194.60001"
       ry="0.5"
       rx="0.5"
       width="2"
       transform="scale(-1,1)" />
    <path
       style="fill:#fffff0;fill-opacity:1;stroke:#fffff0;stroke-width:0.265;stroke-linecap:butt;stroke-linejoin:miter;stroke-miterlimit:4;stroke-dasharray:none;stroke-opacity:1"
       d="M 2.455,205.5 H 0.70499997"
       id="path1044" />
    <path
       style="fill:#fffff0;fill-opacity:1;stroke:#bbbbb0;stroke-width:0.265;stroke-linecap:butt;stroke-linejoin:miter;stroke-miterlimit:4;stroke-dasharray:none;stroke-opacity:1"
       d="M 2.455,200.5 H 0.70499997"
       id="path1197" />
    <path
       style="fill:#fffff0;fill-opacity:1;stroke:#bbbbb0;stroke-width:0.265;stroke-linecap:butt;stroke-linejoin:miter;stroke-miterlimit:4;stroke-dasharray:none;stroke-opacity:1"
       d="M 2.4550004,210.50001 H 0.70500037"
       id="path1199" />
    <g
       id="g6903"
       transform="translate(-12.879595,1.44169)"
       style="fill:#fffff0;fill-opacity:1">
      <path
         d="m 14.694527,175.58091 c -0.13335,0 -0.246945,-0.0296 -0.340784,-0.0889 -0.306211,-0.19261 -0.404989,-0.62724 -0.404989,-1.13594 0,-0.41981 0.05927,-0.73096 0.182739,-0.92852 0.118533,-0.19755 0.296334,-0.29633 0.523523,-0.29633 0.212373,0 0.380296,0.0346 0.518585,0.10372 l 0.123472,-0.54822 c -0.182739,-0.079 -0.434623,-0.12841 -0.71614,-0.12841 -0.390173,0 -0.681568,0.14323 -0.884063,0.37535 -0.276579,0.31115 -0.400051,0.79023 -0.400051,1.41747 0,0.33584 0.02963,0.6223 0.09878,0.84949 0.158045,0.55809 0.488951,0.95321 1.170519,0.95321 0.291395,0 0.607485,-0.0691 0.770468,-0.20744 l -0.123472,-0.52352 c -0.138289,0.0889 -0.291395,0.15804 -0.518585,0.15804 z"
         id="path6868"
         style="font-size:4.9389px;line-height:1.25;font-family:'PTQ Sans Narrow';-inkscape-font-specification:'PTQ Sans Narrow, Normal';font-variant-ligatures:none;letter-spacing:0px;word-spacing:0px;stroke-width:0.264583;fill:#fffff0;fill-opacity:1" />
      <path
         d="m 17.623302,174.0943 c 0.09878,0 0.167922,0.0395 0.197556,0.11854 0.02963,0.079 0.04445,0.20249 0.04445,0.37042 v 1.50142 h 0.587729 v -1.6002 c 0,-0.18274 -0.01482,-0.33585 -0.03457,-0.45438 -0.06421,-0.31609 -0.207434,-0.47414 -0.572913,-0.47414 -0.306212,0 -0.498829,0.17287 -0.607485,0.3803 -0.08396,-0.24694 -0.207433,-0.3803 -0.503767,-0.3803 -0.321029,0 -0.488951,0.15805 -0.607485,0.35561 h -0.01482 l -0.07408,-0.29634 h -0.454379 v 2.46945 h 0.587729 v -1.72861 c 0.04445,-0.12841 0.138289,-0.26177 0.311151,-0.26177 0.09384,0 0.158045,0.0445 0.192617,0.12348 0.02963,0.079 0.04939,0.22225 0.04939,0.42968 v 1.43722 h 0.587729 v -1.72367 c 0.03951,-0.14323 0.128411,-0.26671 0.311151,-0.26671 z"
         id="path6870"
         style="font-size:4.9389px;line-height:1.25;font-family:'PTQ Sans Narrow';-inkscape-font-specification:'PTQ Sans Narrow, Normal';font-variant-ligatures:none;letter-spacing:0px;word-spacing:0px;stroke-width:0.264583;fill:#fffff0;fill-opacity:1" />
      <path
         d="m 19.806296,176.15383 c 0.686507,0 0.923574,-0.61243 0.923574,-1.36808 0,-0.43956 -0.0642,-0.75565 -0.192617,-0.94333 -0.128411,-0.18768 -0.316089,-0.28646 -0.563034,-0.28646 -0.31609,0 -0.469196,0.13336 -0.602546,0.34079 h -0.01482 l -0.05927,-0.28152 h -0.439562 v 3.45723 h 0.587729 v -1.0026 c 0.09878,0.0642 0.197556,0.084 0.36054,0.084 z m 0.31609,-1.3829 c 0,0.31609 -0.03457,0.53834 -0.103717,0.66676 -0.06914,0.12841 -0.172862,0.19261 -0.301273,0.19261 -0.13335,0 -0.207434,-0.0296 -0.27164,-0.0988 v -1.16064 c 0.05927,-0.19261 0.167923,-0.29139 0.335846,-0.29139 0.296334,0 0.340784,0.33584 0.340784,0.69144 z"
         id="path6872"
         style="font-size:4.9389px;line-height:1.25;font-family:'PTQ Sans Narrow';-inkscape-font-specification:'PTQ Sans Narrow, Normal';font-variant-ligatures:none;letter-spacing:0px;word-spacing:0px;stroke-width:0.264583;fill:#fffff0;fill-opacity:1" />
      <path
         d="M 21.032045,175.50683 20.874,176.00072 c 0.148167,0.0938 0.459318,0.15311 0.706263,0.15311 0.143228,0 0.276578,-0.0198 0.404989,-0.0691 0.400051,-0.14323 0.637118,-0.51858 0.637118,-1.07174 0,-0.15804 -0.01975,-0.30127 -0.05927,-0.41981 -0.09384,-0.29139 -0.296334,-0.52352 -0.642057,-0.55315 l -0.18274,0.0296 v -0.0247 l 0.18274,-0.13335 0.572912,-0.93346 v -0.35066 h -1.580448 v 0.52352 h 0.676629 l 0.325968,-0.0444 -0.237067,0.22226 -0.488952,0.82973 v 0.33585 h 0.291396 c 0.365478,0 0.553156,0.18767 0.553156,0.55809 0,0.33091 -0.167922,0.57785 -0.49389,0.57785 -0.212372,0 -0.370417,-0.0494 -0.508706,-0.12347 z"
         id="path6874"
         style="font-size:4.9389px;line-height:1.25;font-family:'PTQ Sans Narrow';-inkscape-font-specification:'PTQ Sans Narrow, Normal';font-variant-ligatures:none;letter-spacing:0px;word-spacing:0px;stroke-width:0.264583;fill:#fffff0;fill-opacity:1" />
    </g>
    <g
       aria-label="Input"
       id="text9055"
       style="font-size:2.82223px;line-height:1.25;font-family:'PTQ Sans Narrow';-inkscape-font-specification:'PTQ Sans Narrow, Normal';font-variant-ligatures:none;letter-spacing:0px;word-spacing:0px;stroke-width:0.264583;fill:#fffff0;fill-opacity:1"
       transform="translate(-10.641254,0.49205)">
      <path
         d="m 13.168547,179.80795 v 1.97556 h 0.355601 v -1.97556 z"
         id="path9353"
         style="fill:#fffff0;fill-opacity:1" />
      <path
         d="m 14.486531,180.33853 c -0.186268,0 -0.299157,0.0875 -0.36689,0.19755 h -0.0085 l -0.03951,-0.16369 h -0.268112 v 1.41112 h 0.335845 v -0.97932 c 0.0254,-0.079 0.09596,-0.15804 0.203201,-0.15804 0.141111,0 0.160867,0.11289 0.160867,0.2794 v 0.85796 h 0.335845 v -0.9398 c 0,-0.29352 -0.06773,-0.50518 -0.352778,-0.50518 z"
         id="path9355"
         style="fill:#fffff0;fill-opacity:1" />
      <path
         d="m 15.612599,181.82302 c 0.39229,0 0.527757,-0.34996 0.527757,-0.78176 0,-0.25118 -0.03669,-0.4318 -0.110067,-0.53904 -0.07338,-0.10725 -0.180623,-0.16369 -0.321734,-0.16369 -0.180623,0 -0.268112,0.0762 -0.344312,0.19473 h -0.0085 l -0.03387,-0.16087 h -0.251178 v 1.97556 h 0.335845 v -0.57291 c 0.05645,0.0367 0.112889,0.048 0.206023,0.048 z m 0.180622,-0.79022 c 0,0.18062 -0.01975,0.30762 -0.05927,0.381 -0.03951,0.0734 -0.09878,0.11006 -0.172156,0.11006 -0.0762,0 -0.118534,-0.0169 -0.155223,-0.0564 v -0.66323 c 0.03387,-0.11006 0.09596,-0.16651 0.191912,-0.16651 0.169333,0 0.194733,0.19191 0.194733,0.39512 z"
         id="path9357"
         style="fill:#fffff0;fill-opacity:1" />
      <path
         d="m 16.690692,181.8202 c 0.186267,0 0.304801,-0.1016 0.372534,-0.2286 h 0.0085 l 0.05927,0.19191 h 0.254001 c -0.03104,-0.11854 -0.03951,-0.27658 -0.03951,-0.42898 v -0.98214 h -0.335845 v 0.94263 c -0.02822,0.0959 -0.09596,0.19755 -0.208845,0.19755 -0.138289,0 -0.143934,-0.127 -0.143934,-0.29633 v -0.84385 H 16.32098 v 0.91723 c 0,0.31327 0.06491,0.53058 0.369712,0.53058 z"
         id="path9359"
         style="fill:#fffff0;fill-opacity:1" />
      <path
         d="m 17.957871,181.81738 c 0.118533,0 0.234245,-0.0311 0.31609,-0.0734 l -0.04233,-0.26811 c -0.0508,0.0226 -0.08749,0.0339 -0.149578,0.0339 -0.104423,0 -0.110067,-0.0959 -0.110067,-0.22295 v -0.61525 h 0.273756 v -0.29916 h -0.273756 v -0.36971 l -0.335845,0.10442 v 0.26529 h -0.155223 v 0.29916 h 0.155223 v 0.73942 c 0,0.26247 0.07902,0.40641 0.321734,0.40641 z"
         id="path9361"
         style="fill:#fffff0;fill-opacity:1" />
    </g>
    <g
       aria-label="Upper"
       id="text13742"
       style="font-size:2.82223px;line-height:1.25;font-family:'PTQ Sans Narrow';-inkscape-font-specification:'PTQ Sans Narrow, Normal';font-variant-ligatures:none;letter-spacing:0px;word-spacing:0px;stroke-width:0.264583;fill:#fffff0;fill-opacity:1"
       transform="translate(-10.690377,-0.02194)">
      <path
         d="m 14.327682,196.80399 c -0.2286,0 -0.268111,-0.15522 -0.268111,-0.41487 v -1.26718 H 13.70397 v 1.32927 c 0,0.45156 0.183444,0.68016 0.626535,0.68016 0.183445,0 0.327378,-0.0564 0.431801,-0.17216 0.104422,-0.11288 0.158045,-0.29915 0.158045,-0.55597 v -1.2813 h -0.335846 v 1.26718 c 0,0.24554 -0.04233,0.41487 -0.256823,0.41487 z"
         id="path17736"
         style="fill:#fffff0;fill-opacity:1" />
      <path
         d="m 15.702107,197.13701 c 0.39229,0 0.527757,-0.34995 0.527757,-0.78175 0,-0.25118 -0.03669,-0.4318 -0.110067,-0.53905 -0.07338,-0.10724 -0.180623,-0.16369 -0.321734,-0.16369 -0.180623,0 -0.268112,0.0762 -0.344313,0.19474 h -0.0085 l -0.03387,-0.16087 h -0.251178 v 1.97556 h 0.335845 v -0.57291 c 0.05644,0.0367 0.112889,0.048 0.206023,0.048 z m 0.180622,-0.79022 c 0,0.18062 -0.01975,0.30762 -0.05927,0.381 -0.03951,0.0734 -0.09878,0.11007 -0.172156,0.11007 -0.0762,0 -0.118534,-0.0169 -0.155223,-0.0565 v -0.66322 c 0.03387,-0.11007 0.09596,-0.16651 0.191912,-0.16651 0.169333,0 0.194733,0.19191 0.194733,0.39511 z"
         id="path17738"
         style="fill:#fffff0;fill-opacity:1" />
      <path
         d="m 16.963645,197.13701 c 0.39229,0 0.527757,-0.34995 0.527757,-0.78175 0,-0.25118 -0.03669,-0.4318 -0.110067,-0.53905 -0.07338,-0.10724 -0.180623,-0.16369 -0.321734,-0.16369 -0.180623,0 -0.268112,0.0762 -0.344312,0.19474 h -0.0085 l -0.03387,-0.16087 h -0.251178 v 1.97556 h 0.335845 v -0.57291 c 0.05645,0.0367 0.112889,0.048 0.206023,0.048 z m 0.180623,-0.79022 c 0,0.18062 -0.01976,0.30762 -0.05927,0.381 -0.03951,0.0734 -0.09878,0.11007 -0.172156,0.11007 -0.0762,0 -0.118534,-0.0169 -0.155223,-0.0565 v -0.66322 c 0.03387,-0.11007 0.09596,-0.16651 0.191912,-0.16651 0.169333,0 0.194734,0.19191 0.194734,0.39511 z"
         id="path17740"
         style="fill:#fffff0;fill-opacity:1" />
      <path
         d="m 18.253406,196.84633 c -0.21449,0 -0.285046,-0.14394 -0.29069,-0.36125 h 0.685802 c 0.01411,-0.0931 0.02822,-0.18345 0.02822,-0.28505 0,-0.33584 -0.149578,-0.55315 -0.474135,-0.55315 -0.180622,0 -0.318912,0.0621 -0.420512,0.18344 -0.1016,0.12136 -0.149578,0.30763 -0.149578,0.56163 0,0.42615 0.135467,0.74224 0.558802,0.74224 0.172156,0 0.352778,-0.0593 0.445912,-0.14111 l -0.104423,-0.23424 c -0.05927,0.048 -0.172156,0.0875 -0.2794,0.0875 z m 0.110067,-0.58421 h -0.389468 c 0.0085,-0.17215 0.05644,-0.32738 0.222956,-0.32738 0.143934,0 0.174978,0.15805 0.166512,0.32738 z"
         id="path17742"
         style="fill:#fffff0;fill-opacity:1" />
      <path
         d="m 19.198851,195.85572 h -0.01129 l -0.03951,-0.16933 h -0.256823 v 1.41111 h 0.335845 v -0.94262 c 0.02258,-0.0903 0.09313,-0.16087 0.206023,-0.16087 0.03669,0 0.07902,0.008 0.124178,0.0254 l 0.03951,-0.33302 c -0.04516,-0.0169 -0.08749,-0.0282 -0.132645,-0.0282 -0.138289,0 -0.225779,0.0931 -0.26529,0.19755 z"
         id="path17744"
         style="fill:#fffff0;fill-opacity:1" />
    </g>
    <g
       aria-label="Lower"
       id="text14978"
       style="font-size:2.82223px;line-height:1.25;font-family:'PTQ Sans Narrow';-inkscape-font-specification:'PTQ Sans Narrow, Normal';font-variant-ligatures:none;letter-spacing:0px;word-spacing:0px;stroke-width:0.264583;fill:#fffff0;fill-opacity:1"
       transform="translate(-10.640337,3.93661)">
      <path
         d="m 14.685454,202.03896 v -0.32738 h -0.694269 v -1.64819 h -0.355601 v 1.97557 z"
         id="path17747"
         style="fill:#fffff0;fill-opacity:1" />
      <path
         d="m 15.81717,201.3334 c 0,-0.44027 -0.143933,-0.74225 -0.558801,-0.74225 -0.400757,0 -0.55598,0.30762 -0.55598,0.74225 0,0.49671 0.183445,0.74224 0.55598,0.74224 0.403579,0 0.558801,-0.30197 0.558801,-0.74224 z m -0.767646,0 c 0,-0.16087 0.01693,-0.27376 0.05362,-0.34149 0.03669,-0.0677 0.08749,-0.1016 0.155223,-0.1016 0.0762,0 0.129822,0.0395 0.163689,0.11289 0.03105,0.0762 0.04798,0.18626 0.04798,0.3302 0,0.16369 -0.01976,0.27658 -0.05362,0.34431 -0.03387,0.0677 -0.08749,0.0988 -0.158045,0.0988 -0.183445,0 -0.208845,-0.22578 -0.208845,-0.44309 z"
         id="path17749"
         style="fill:#fffff0;fill-opacity:1" />
      <path
         d="m 16.861395,200.62784 h -0.251179 l -0.172156,0.70556 -0.03669,0.254 h -0.01129 l -0.0254,-0.25118 -0.1524,-0.70838 h -0.364068 l 0.361245,1.42523 h 0.273757 l 0.2032,-0.78176 0.01976,-0.18627 h 0.01693 l 0.02258,0.18062 0.211667,0.78741 h 0.26529 l 0.347134,-1.42523 h -0.304801 l -0.132644,0.71967 -0.02822,0.23707 h -0.01129 l -0.03387,-0.23425 z"
         id="path17751"
         style="fill:#fffff0;fill-opacity:1" />
      <path
         d="m 18.221711,201.78778 c -0.214489,0 -0.285045,-0.14394 -0.290689,-0.36125 h 0.685801 c 0.01411,-0.0931 0.02822,-0.18344 0.02822,-0.28504 0,-0.33585 -0.149578,-0.55316 -0.474135,-0.55316 -0.180623,0 -0.318912,0.0621 -0.420512,0.18344 -0.1016,0.12136 -0.149578,0.30763 -0.149578,0.56163 0,0.42615 0.135467,0.74224 0.558801,0.74224 0.172156,0 0.352779,-0.0593 0.445913,-0.14111 l -0.104423,-0.23424 c -0.05927,0.048 -0.172156,0.0875 -0.279401,0.0875 z m 0.110067,-0.5842 H 17.94231 c 0.0085,-0.17216 0.05645,-0.32738 0.222957,-0.32738 0.143933,0 0.174978,0.15804 0.166511,0.32738 z"
         id="path17753"
         style="fill:#fffff0;fill-opacity:1" />
      <path
         d="m 19.167157,200.79717 h -0.01129 l -0.03951,-0.16933 h -0.256823 v 1.41112 h 0.335846 v -0.94263 c 0.02258,-0.0903 0.09313,-0.16087 0.206022,-0.16087 0.03669,0 0.07902,0.008 0.124178,0.0254 l 0.03951,-0.33302 c -0.04516,-0.0169 -0.08749,-0.0282 -0.132645,-0.0282 -0.138289,0 -0.225779,0.0931 -0.26529,0.19755 z"
         id="path17755"
         style="fill:#fffff0;fill-opacity:1" />
    </g>
    <g
       aria-label="A Out"
       id="text17292"
       style="font-size:2.82223px;line-height:1.25;font-family:'PTQ Sans Narrow';-inkscape-font-specification:'PTQ Sans Narrow, Normal';font-variant-ligatures:none;letter-spacing:0px;word-spacing:0px;fill:#fffff0;fill-opacity:1;stroke-width:0.264583"
       transform="translate(-10.607616,8.19336)">
      <path
         d="m 14.75857,206.8758 0.121355,0.44592 h 0.372535 l -0.575735,-1.98968 h -0.279401 l -0.572913,1.98968 h 0.352779 l 0.115712,-0.44592 z m -0.389468,-0.29351 0.110067,-0.4572 0.04798,-0.31327 h 0.01129 l 0.04515,0.31045 0.11289,0.46002 z"
         id="path17758"
         style="fill:#fffff0;fill-opacity:1" />
      <path
         d="m 17.165931,206.33394 c 0,-0.55034 -0.155223,-1.0273 -0.699913,-1.0273 -0.533402,0 -0.697091,0.44874 -0.697091,1.0273 0,0.55598 0.146756,1.02729 0.697091,1.02729 0.527757,0 0.699913,-0.44874 0.699913,-1.02729 z m -1.02447,0 c 0,-0.46567 0.107245,-0.69992 0.324557,-0.69992 0.06209,0 0.112889,0.0198 0.155222,0.0565 0.135467,0.12135 0.172156,0.381 0.172156,0.64347 0,0.24553 -0.02822,0.42333 -0.08184,0.5334 -0.05645,0.11289 -0.13829,0.16651 -0.245534,0.16651 -0.06209,0 -0.11289,-0.0169 -0.152401,-0.0536 -0.141111,-0.12136 -0.172156,-0.37536 -0.172156,-0.64629 z"
         id="path17760"
         style="fill:#fffff0;fill-opacity:1" />
      <path
         d="m 17.727553,207.35841 c 0.186267,0 0.304801,-0.1016 0.372535,-0.22861 h 0.0085 l 0.05927,0.19192 h 0.254001 c -0.03104,-0.11854 -0.03951,-0.27658 -0.03951,-0.42898 v -0.98214 h -0.335846 v 0.94263 c -0.02822,0.096 -0.09596,0.19755 -0.208845,0.19755 -0.138289,0 -0.143934,-0.127 -0.143934,-0.29633 v -0.84385 h -0.335845 v 0.91723 c 0,0.31326 0.06491,0.53058 0.369712,0.53058 z"
         id="path17762"
         style="fill:#fffff0;fill-opacity:1" />
      <path
         d="m 18.994732,207.35558 c 0.118533,0 0.234245,-0.031 0.31609,-0.0734 l -0.04233,-0.26812 c -0.0508,0.0226 -0.08749,0.0339 -0.149578,0.0339 -0.104423,0 -0.110067,-0.096 -0.110067,-0.22296 v -0.61524 h 0.273756 v -0.29916 h -0.273756 v -0.36971 l -0.335845,0.10442 v 0.26529 h -0.155223 v 0.29916 h 0.155223 v 0.73942 c 0,0.26247 0.07902,0.4064 0.321734,0.4064 z"
         id="path17764"
         style="fill:#fffff0;fill-opacity:1" />
    </g>
    <path
       style="fill:#fffff0;fill-opacity:1;stroke:#bbbbb0;stroke-width:0.265;stroke-linecap:butt;stroke-linejoin:miter;stroke-miterlimit:4;stroke-dasharray:none;stroke-opacity:1"
       d="M 2.455,195.5 H 0.70499997"
       id="path979" />
    <path
       style="fill:#fffff0;fill-opacity:1;stroke:#bbbbb0;stroke-width:0.265;stroke-linecap:butt;stroke-linejoin:miter;stroke-miterlimit:4;stroke-dasharray:none;stroke-opacity:1"
       d="M 2.455,215.5 H 0.70499997"
       id="path981" />
    <rect
       style="fill:#555d50;fill-opacity:1;stroke:none;stroke-width:0.264996"
       id="rect563"
       width="9"
       height="11.5"
       x="-9.5799999"
       y="245.00002"
       rx="0.99999994"
       ry="0.99999994"
       transform="scale(-1,1)" />
    <rect
       style="fill:#555d50;fill-opacity:1;stroke:none;stroke-width:0.251398"
       id="rect569"
       height="22"
       x="-2.5799999"
       y="226.60001"
       ry="0.5"
       rx="0.5"
       width="2"
       transform="scale(-1,1)" />
    <path
       style="fill:#fffff0;fill-opacity:1;stroke:#fffff0;stroke-width:0.265;stroke-linecap:butt;stroke-linejoin:miter;stroke-miterlimit:4;stroke-dasharray:none;stroke-opacity:1"
       d="M 2.455,237.5 H 0.70499997"
       id="path573" />
    <path
       style="fill:#fffff0;fill-opacity:1;stroke:#bbbbb0;stroke-width:0.265;stroke-linecap:butt;stroke-linejoin:miter;stroke-miterlimit:4;stroke-dasharray:none;stroke-opacity:1"
       d="M 2.455,232.5 H 0.70499997"
       id="path575" />
    <path
       style="fill:#fffff0;fill-opacity:1;stroke:#bbbbb0;stroke-width:0.265;stroke-linecap:butt;stroke-linejoin:miter;stroke-miterlimit:4;stroke-dasharray:none;stroke-opacity:1"
       d="M 2.4550004,242.50001 H 0.70500037"
       id="path577" />
    <g
       aria-label="Upper"
       id="g589"
       style="font-size:2.82223px;line-height:1.25;font-family:'PTQ Sans Narrow';-inkscape-font-specification:'PTQ Sans Narrow, Normal';font-variant-ligatures:none;letter-spacing:0px;word-spacing:0px;stroke-width:0.264583;fill:#fffff0;fill-opacity:1"
       transform="translate(-10.690377,31.97806)">
      <path
         d="m 14.327682,196.80399 c -0.2286,0 -0.268111,-0.15522 -0.268111,-0.41487 v -1.26718 H 13.70397 v 1.32927 c 0,0.45156 0.183444,0.68016 0.626535,0.68016 0.183445,0 0.327378,-0.0564 0.431801,-0.17216 0.104422,-0.11288 0.158045,-0.29915 0.158045,-0.55597 v -1.2813 h -0.335846 v 1.26718 c 0,0.24554 -0.04233,0.41487 -0.256823,0.41487 z"
         id="path579"
         style="fill:#fffff0;fill-opacity:1" />
      <path
         d="m 15.702107,197.13701 c 0.39229,0 0.527757,-0.34995 0.527757,-0.78175 0,-0.25118 -0.03669,-0.4318 -0.110067,-0.53905 -0.07338,-0.10724 -0.180623,-0.16369 -0.321734,-0.16369 -0.180623,0 -0.268112,0.0762 -0.344313,0.19474 h -0.0085 l -0.03387,-0.16087 h -0.251178 v 1.97556 h 0.335845 v -0.57291 c 0.05644,0.0367 0.112889,0.048 0.206023,0.048 z m 0.180622,-0.79022 c 0,0.18062 -0.01975,0.30762 -0.05927,0.381 -0.03951,0.0734 -0.09878,0.11007 -0.172156,0.11007 -0.0762,0 -0.118534,-0.0169 -0.155223,-0.0565 v -0.66322 c 0.03387,-0.11007 0.09596,-0.16651 0.191912,-0.16651 0.169333,0 0.194733,0.19191 0.194733,0.39511 z"
         id="path581"
         style="fill:#fffff0;fill-opacity:1" />
      <path
         d="m 16.963645,197.13701 c 0.39229,0 0.527757,-0.34995 0.527757,-0.78175 0,-0.25118 -0.03669,-0.4318 -0.110067,-0.53905 -0.07338,-0.10724 -0.180623,-0.16369 -0.321734,-0.16369 -0.180623,0 -0.268112,0.0762 -0.344312,0.19474 h -0.0085 l -0.03387,-0.16087 h -0.251178 v 1.97556 h 0.335845 v -0.57291 c 0.05645,0.0367 0.112889,0.048 0.206023,0.048 z m 0.180623,-0.79022 c 0,0.18062 -0.01976,0.30762 -0.05927,0.381 -0.03951,0.0734 -0.09878,0.11007 -0.172156,0.11007 -0.0762,0 -0.118534,-0.0169 -0.155223,-0.0565 v -0.66322 c 0.03387,-0.11007 0.09596,-0.16651 0.191912,-0.16651 0.169333,0 0.194734,0.19191 0.194734,0.39511 z"
         id="path583"
         style="fill:#fffff0;fill-opacity:1" />
      <path
         d="m 18.253406,196.84633 c -0.21449,0 -0.285046,-0.14394 -0.29069,-0.36125 h 0.685802 c 0.01411,-0.0931 0.02822,-0.18345 0.02822,-0.28505 0,-0.33584 -0.149578,-0.55315 -0.474135,-0.55315 -0.180622,0 -0.318912,0.0621 -0.420512,0.18344 -0.1016,0.12136 -0.149578,0.30763 -0.149578,0.56163 0,0.42615 0.135467,0.74224 0.558802,0.74224 0.172156,0 0.352778,-0.0593 0.445912,-0.14111 l -0.104423,-0.23424 c -0.05927,0.048 -0.172156,0.0875 -0.2794,0.0875 z m 0.110067,-0.58421 h -0.389468 c 0.0085,-0.17215 0.05644,-0.32738 0.222956,-0.32738 0.143934,0 0.174978,0.15805 0.166512,0.32738 z"
         id="path585"
         style="fill:#fffff0;fill-opacity:1" />
      <path
         d="m 19.198851,195.85572 h -0.01129 l -0.03951,-0.16933 h -0.256823 v 1.41111 h 0.335845 v -0.94262 c 0.02258,-0.0903 0.09313,-0.16087 0.206023,-0.16087 0.03669,0 0.07902,0.008 0.124178,0.0254 l 0.03951,-0.33302 c -0.04516,-0.0169 -0.08749,-0.0282 -0.132645,-0.0282 -0.138289,0 -0.225779,0.0931 -0.26529,0.19755 z"
         id="path587"
         style="fill:#fffff0;fill-opacity:1" />
    </g>
    <g
       aria-label="Lower"
       id="g601"
       style="font-size:2.82223px;line-height:1.25;font-family:'PTQ Sans Narrow';-inkscape-font-specification:'PTQ Sans Narrow, Normal';font-variant-ligatures:none;letter-spacing:0px;word-spacing:0px;stroke-width:0.264583;fill:#fffff0;fill-opacity:1"
       transform="translate(-10.640337,35.93661)">
      <path
         d="m 14.685454,202.03896 v -0.32738 h -0.694269 v -1.64819 h -0.355601 v 1.97557 z"
         id="path591"
         style="fill:#fffff0;fill-opacity:1" />
      <path
         d="m 15.81717,201.3334 c 0,-0.44027 -0.143933,-0.74225 -0.558801,-0.74225 -0.400757,0 -0.55598,0.30762 -0.55598,0.74225 0,0.49671 0.183445,0.74224 0.55598,0.74224 0.403579,0 0.558801,-0.30197 0.558801,-0.74224 z m -0.767646,0 c 0,-0.16087 0.01693,-0.27376 0.05362,-0.34149 0.03669,-0.0677 0.08749,-0.1016 0.155223,-0.1016 0.0762,0 0.129822,0.0395 0.163689,0.11289 0.03105,0.0762 0.04798,0.18626 0.04798,0.3302 0,0.16369 -0.01976,0.27658 -0.05362,0.34431 -0.03387,0.0677 -0.08749,0.0988 -0.158045,0.0988 -0.183445,0 -0.208845,-0.22578 -0.208845,-0.44309 z"
         id="path593"
         style="fill:#fffff0;fill-opacity:1" />
      <path
         d="m 16.861395,200.62784 h -0.251179 l -0.172156,0.70556 -0.03669,0.254 h -0.01129 l -0.0254,-0.25118 -0.1524,-0.70838 h -0.364068 l 0.361245,1.42523 h 0.273757 l 0.2032,-0.78176 0.01976,-0.18627 h 0.01693 l 0.02258,0.18062 0.211667,0.78741 h 0.26529 l 0.347134,-1.42523 h -0.304801 l -0.132644,0.71967 -0.02822,0.23707 h -0.01129 l -0.03387,-0.23425 z"
         id="path595"
         style="fill:#fffff0;fill-opacity:1" />
      <path
         d="m 18.221711,201.78778 c -0.214489,0 -0.285045,-0.14394 -0.290689,-0.36125 h 0.685801 c 0.01411,-0.0931 0.02822,-0.18344 0.02822,-0.28504 0,-0.33585 -0.149578,-0.55316 -0.474135,-0.55316 -0.180623,0 -0.318912,0.0621 -0.420512,0.18344 -0.1016,0.12136 -0.149578,0.30763 -0.149578,0.56163 0,0.42615 0.135467,0.74224 0.558801,0.74224 0.172156,0 0.352779,-0.0593 0.445913,-0.14111 l -0.104423,-0.23424 c -0.05927,0.048 -0.172156,0.0875 -0.279401,0.0875 z m 0.110067,-0.5842 H 17.94231 c 0.0085,-0.17216 0.05645,-0.32738 0.222957,-0.32738 0.143933,0 0.174978,0.15804 0.166511,0.32738 z"
         id="path597"
         style="fill:#fffff0;fill-opacity:1" />
      <path
         d="m 19.167157,200.79717 h -0.01129 l -0.03951,-0.16933 h -0.256823 v 1.41112 h 0.335846 v -0.94263 c 0.02258,-0.0903 0.09313,-0.16087 0.206022,-0.16087 0.03669,0 0.07902,0.008 0.124178,0.0254 l 0.03951,-0.33302 c -0.04516,-0.0169 -0.08749,-0.0282 -0.132645,-0.0282 -0.138289,0 -0.225779,0.0931 -0.26529,0.19755 z"
         id="path599"
         style="fill:#fffff0;fill-opacity:1" />
    </g>
    <path
       style="fill:#fffff0;fill-opacity:1;stroke:#bbbbb0;stroke-width:0.265;stroke-linecap:butt;stroke-linejoin:miter;stroke-miterlimit:4;stroke-dasharray:none;stroke-opacity:1"
       d="M 2.455,227.5 H 0.70499997"
       id="path613" />
    <path
       style="fill:#fffff0;fill-opacity:1;stroke:#bbbbb0;stroke-width:0.265;stroke-linecap:butt;stroke-linejoin:miter;stroke-miterlimit:4;stroke-dasharray:none;stroke-opacity:1"
       d="M 2.455,247.5 H 0.70499997"
       id="path615" />
    <rect
       style="fill:#555d50;fill-opacity:1;stroke:none;stroke-width:0.264996"
       id="rect671"
       width="9"
       height="11.5"
       x="-9.5799999"
       y="277"
       rx="0.99999994"
       ry="0.99999994"
       transform="scale(-1,1)" />
    <rect
       style="fill:#555d50;fill-opacity:1;stroke:none;stroke-width:0.251398"
       id="rect677"
       height="22"
       x="-2.5799999"
       y="258.60001"
       ry="0.5"
       rx="0.5"
       width="2"
       transform="scale(-1,1)" />
    <path
       style="fill:#fffff0;fill-opacity:1;stroke:#fffff0;stroke-width:0.265;stroke-linecap:butt;stroke-linejoin:miter;stroke-miterlimit:4;stroke-dasharray:none;stroke-opacity:1"
       d="M 2.455,269.5 H 0.70499997"
       id="path681" />
    <path
       style="fill:#fffff0;fill-opacity:1;stroke:#bbbbb0;stroke-width:0.265;stroke-linecap:butt;stroke-linejoin:miter;stroke-miterlimit:4;stroke-dasharray:none;stroke-opacity:1"
       d="M 2.455,264.5 H 0.70499997"
       id="path683" />
    <path
       style="fill:#fffff0;fill-opacity:1;stroke:#bbbbb0;stroke-width:0.265;stroke-linecap:butt;stroke-linejoin:miter;stroke-miterlimit:4;stroke-dasharray:none;stroke-opacity:1"
       d="M 2.4550004,274.50001 H 0.70500037"
       id="path685" />
    <g
       aria-label="Upper"
       id="g697"
       style="font-size:2.82223px;line-height:1.25;font-family:'PTQ Sans Narrow';-inkscape-font-specification:'PTQ Sans Narrow, Normal';font-variant-ligatures:none;letter-spacing:0px;word-spacing:0px;stroke-width:0.264583;fill:#fffff0;fill-opacity:1"
       transform="translate(-10.690377,63.97806)">
      <path
         d="m 14.327682,196.80399 c -0.2286,0 -0.268111,-0.15522 -0.268111,-0.41487 v -1.26718 H 13.70397 v 1.32927 c 0,0.45156 0.183444,0.68016 0.626535,0.68016 0.183445,0 0.327378,-0.0564 0.431801,-0.17216 0.104422,-0.11288 0.158045,-0.29915 0.158045,-0.55597 v -1.2813 h -0.335846 v 1.26718 c 0,0.24554 -0.04233,0.41487 -0.256823,0.41487 z"
         id="path687"
         style="fill:#fffff0;fill-opacity:1" />
      <path
         d="m 15.702107,197.13701 c 0.39229,0 0.527757,-0.34995 0.527757,-0.78175 0,-0.25118 -0.03669,-0.4318 -0.110067,-0.53905 -0.07338,-0.10724 -0.180623,-0.16369 -0.321734,-0.16369 -0.180623,0 -0.268112,0.0762 -0.344313,0.19474 h -0.0085 l -0.03387,-0.16087 h -0.251178 v 1.97556 h 0.335845 v -0.57291 c 0.05644,0.0367 0.112889,0.048 0.206023,0.048 z m 0.180622,-0.79022 c 0,0.18062 -0.01975,0.30762 -0.05927,0.381 -0.03951,0.0734 -0.09878,0.11007 -0.172156,0.11007 -0.0762,0 -0.118534,-0.0169 -0.155223,-0.0565 v -0.66322 c 0.03387,-0.11007 0.09596,-0.16651 0.191912,-0.16651 0.169333,0 0.194733,0.19191 0.194733,0.39511 z"
         id="path689"
         style="fill:#fffff0;fill-opacity:1" />
      <path
         d="m 16.963645,197.13701 c 0.39229,0 0.527757,-0.34995 0.527757,-0.78175 0,-0.25118 -0.03669,-0.4318 -0.110067,-0.53905 -0.07338,-0.10724 -0.180623,-0.16369 -0.321734,-0.16369 -0.180623,0 -0.268112,0.0762 -0.344312,0.19474 h -0.0085 l -0.03387,-0.16087 h -0.251178 v 1.97556 h 0.335845 v -0.57291 c 0.05645,0.0367 0.112889,0.048 0.206023,0.048 z m 0.180623,-0.79022 c 0,0.18062 -0.01976,0.30762 -0.05927,0.381 -0.03951,0.0734 -0.09878,0.11007 -0.172156,0.11007 -0.0762,0 -0.118534,-0.0169 -0.155223,-0.0565 v -0.66322 c 0.03387,-0.11007 0.09596,-0.16651 0.191912,-0.16651 0.169333,0 0.194734,0.19191 0.194734,0.39511 z"
         id="path691"
         style="fill:#fffff0;fill-opacity:1" />
      <path
         d="m 18.253406,196.84633 c -0.21449,0 -0.285046,-0.14394 -0.29069,-0.36125 h 0.685802 c 0.01411,-0.0931 0.02822,-0.18345 0.02822,-0.28505 0,-0.33584 -0.149578,-0.55315 -0.474135,-0.55315 -0.180622,0 -0.318912,0.0621 -0.420512,0.18344 -0.1016,0.12136 -0.149578,0.30763 -0.149578,0.56163 0,0.42615 0.135467,0.74224 0.558802,0.74224 0.172156,0 0.352778,-0.0593 0.445912,-0.14111 l -0.104423,-0.23424 c -0.05927,0.048 -0.172156,0.0875 -0.2794,0.0875 z m 0.110067,-0.58421 h -0.389468 c 0.0085,-0.17215 0.05644,-0.32738 0.222956,-0.32738 0.143934,0 0.174978,0.15805 0.166512,0.32738 z"
         id="path693"
         style="fill:#fffff0;fill-opacity:1" />
      <path
         d="m 19.198851,195.85572 h -0.01129 l -0.03951,-0.16933 h -0.256823 v 1.41111 h 0.335845 v -0.94262 c 0.02258,-0.0903 0.09313,-0.16087 0.206023,-0.16087 0.03669,0 0.07902,0.008 0.124178,0.0254 l 0.03951,-0.33302 c -0.04516,-0.0169 -0.08749,-0.0282 -0.132645,-0.0282 -0.138289,0 -0.225779,0.0931 -0.26529,0.19755 z"
         id="path695"
         style="fill:#fffff0;fill-opacity:1" />
    </g>
    <g
       aria-label="Lower"
       id="g709"
       style="font-size:2.82223px;line-height:1.25;font-family:'PTQ Sans Narrow';-inkscape-font-specification:'PTQ Sans Narrow, Normal';font-variant-ligatures:none;letter-spacing:0px;word-spacing:0px;stroke-width:0.264583;fill:#fffff0;fill-opacity:1"
       transform="translate(-10.640337,67.93661)">
      <path
         d="m 14.685454,202.03896 v -0.32738 h -0.694269 v -1.64819 h -0.355601 v 1.97557 z"
         id="path699"
         style="fill:#fffff0;fill-opacity:1" />
      <path
         d="m 15.81717,201.3334 c 0,-0.44027 -0.143933,-0.74225 -0.558801,-0.74225 -0.400757,0 -0.55598,0.30762 -0.55598,0.74225 0,0.49671 0.183445,0.74224 0.55598,0.74224 0.403579,0 0.558801,-0.30197 0.558801,-0.74224 z m -0.767646,0 c 0,-0.16087 0.01693,-0.27376 0.05362,-0.34149 0.03669,-0.0677 0.08749,-0.1016 0.155223,-0.1016 0.0762,0 0.129822,0.0395 0.163689,0.11289 0.03105,0.0762 0.04798,0.18626 0.04798,0.3302 0,0.16369 -0.01976,0.27658 -0.05362,0.34431 -0.03387,0.0677 -0.08749,0.0988 -0.158045,0.0988 -0.183445,0 -0.208845,-0.22578 -0.208845,-0.44309 z"
         id="path701"
         style="fill:#fffff0;fill-opacity:1" />
      <path
         d="m 16.861395,200.62784 h -0.251179 l -0.172156,0.70556 -0.03669,0.254 h -0.01129 l -0.0254,-0.25118 -0.1524,-0.70838 h -0.364068 l 0.361245,1.42523 h 0.273757 l 0.2032,-0.78176 0.01976,-0.18627 h 0.01693 l 0.02258,0.18062 0.211667,0.78741 h 0.26529 l 0.347134,-1.42523 h -0.304801 l -0.132644,0.71967 -0.02822,0.23707 h -0.01129 l -0.03387,-0.23425 z"
         id="path703"
         style="fill:#fffff0;fill-opacity:1" />
      <path
         d="m 18.221711,201.78778 c -0.214489,0 -0.285045,-0.14394 -0.290689,-0.36125 h 0.685801 c 0.01411,-0.0931 0.02822,-0.18344 0.02822,-0.28504 0,-0.33585 -0.149578,-0.55316 -0.474135,-0.55316 -0.180623,0 -0.318912,0.0621 -0.420512,0.18344 -0.1016,0.12136 -0.149578,0.30763 -0.149578,0.56163 0,0.42615 0.135467,0.74224 0.558801,0.74224 0.172156,0 0.352779,-0.0593 0.445913,-0.14111 l -0.104423,-0.23424 c -0.05927,0.048 -0.172156,0.0875 -0.279401,0.0875 z m 0.110067,-0.5842 H 17.94231 c 0.0085,-0.17216 0.05645,-0.32738 0.222957,-0.32738 0.143933,0 0.174978,0.15804 0.166511,0.32738 z"
         id="path705"
         style="fill:#fffff0;fill-opacity:1" />
      <path
         d="m 19.167157,200.79717 h -0.01129 l -0.03951,-0.16933 h -0.256823 v 1.41112 h 0.335846 v -0.94263 c 0.02258,-0.0903 0.09313,-0.16087 0.206022,-0.16087 0.03669,0 0.07902,0.008 0.124178,0.0254 l 0.03951,-0.33302 c -0.04516,-0.0169 -0.08749,-0.0282 -0.132645,-0.0282 -0.138289,0 -0.225779,0.0931 -0.26529,0.19755 z"
         id="path707"
         style="fill:#fffff0;fill-opacity:1" />
    </g>
    <path
       style="fill:#fffff0;fill-opacity:1;stroke:#bbbbb0;stroke-width:0.265;stroke-linecap:butt;stroke-linejoin:miter;stroke-miterlimit:4;stroke-dasharray:none;stroke-opacity:1"
       d="M 2.455,259.5 H 0.70499997"
       id="path721" />
    <path
       style="fill:#fffff0;fill-opacity:1;stroke:#bbbbb0;stroke-width:0.265;stroke-linecap:butt;stroke-linejoin:miter;stroke-miterlimit:4;stroke-dasharray:none;stroke-opacity:1"
       d="M 2.455,279.5 H 0.70499997"
       id="path723" />
    <g
       aria-label="B Out"
       id="text479"
       style="font-size:2.82223px;line-height:1.25;font-family:'PTQ Sans Narrow';-inkscape-font-specification:'PTQ Sans Narrow, Normal';font-variant-ligatures:none;fill:#fffff0;fill-opacity:1;stroke-width:0.264583"
       transform="translate(-11.946169,0.49699)">
      <path
         d="m 15.696364,245.0143 c -0.163689,0 -0.372534,0.0198 -0.502357,0.0423 v 1.94734 c 0.118534,0.0339 0.276579,0.0423 0.423335,0.0423 h 0.1016 c 0.386646,0 0.651935,-0.19191 0.651935,-0.5842 0,-0.26811 -0.121356,-0.42615 -0.333023,-0.47978 v -0.0169 c 0.180623,-0.0593 0.285045,-0.22578 0.285045,-0.46567 0,-0.37253 -0.256822,-0.48542 -0.626535,-0.48542 z m -0.146756,1.70745 v -0.56163 h 0.143934 c 0.203201,0 0.304801,0.0734 0.304801,0.2794 0,0.18063 -0.1016,0.29916 -0.270934,0.29916 -0.0508,0 -0.146756,-0.003 -0.177801,-0.0169 z m 0.41769,-1.14018 c 0,0.1524 -0.09031,0.24553 -0.197556,0.28504 -0.03387,0.008 -0.1016,0.0141 -0.138289,0.0141 h -0.08185 v -0.54751 c 0.03105,-0.006 0.08467,-0.0113 0.16369,-0.0113 0.169334,0 0.254,0.0875 0.254,0.25965 z"
         id="path537"
         style="fill:#fffff0;fill-opacity:1" />
      <path
         d="m 18.47344,246.0303 c 0,-0.55033 -0.155222,-1.02729 -0.699913,-1.02729 -0.533401,0 -0.69709,0.44873 -0.69709,1.02729 0,0.55598 0.146755,1.02729 0.69709,1.02729 0.527757,0 0.699913,-0.44873 0.699913,-1.02729 z m -1.024469,0 c 0,-0.46567 0.107245,-0.69991 0.324556,-0.69991 0.06209,0 0.11289,0.0198 0.155223,0.0564 0.135467,0.12136 0.172156,0.381 0.172156,0.64347 0,0.24554 -0.02822,0.42334 -0.08184,0.5334 -0.05644,0.11289 -0.138289,0.16651 -0.245534,0.16651 -0.06209,0 -0.112889,-0.0169 -0.1524,-0.0536 -0.141112,-0.12135 -0.172156,-0.37535 -0.172156,-0.64629 z"
         id="path539"
         style="fill:#fffff0;fill-opacity:1" />
      <path
         d="m 19.035063,247.05477 c 0.186267,0 0.304801,-0.1016 0.372534,-0.2286 h 0.0085 l 0.05927,0.19191 h 0.254 c -0.03104,-0.11853 -0.03951,-0.27658 -0.03951,-0.42898 v -0.98213 h -0.335845 v 0.94262 c -0.02822,0.096 -0.09596,0.19756 -0.208845,0.19756 -0.13829,0 -0.143934,-0.127 -0.143934,-0.29634 v -0.84384 h -0.335845 v 0.91722 c 0,0.31327 0.06491,0.53058 0.369712,0.53058 z"
         id="path541"
         style="fill:#fffff0;fill-opacity:1" />
      <path
         d="m 20.302242,247.05195 c 0.118533,0 0.234245,-0.031 0.316089,-0.0734 l -0.04233,-0.26811 c -0.0508,0.0226 -0.08749,0.0339 -0.149578,0.0339 -0.104423,0 -0.110067,-0.096 -0.110067,-0.22296 v -0.61525 h 0.273756 v -0.29915 h -0.273756 v -0.36972 l -0.335846,0.10443 v 0.26529 h -0.155222 v 0.29915 h 0.155222 v 0.73943 c 0,0.26246 0.07902,0.4064 0.321735,0.4064 z"
         id="path543"
         style="fill:#fffff0;fill-opacity:1" />
    </g>
    <g
       aria-label="C Out "
       id="text483"
       style="font-size:2.82223px;line-height:1.25;font-family:'PTQ Sans Narrow';-inkscape-font-specification:'PTQ Sans Narrow, Normal';font-variant-ligatures:none;fill:#fffff0;fill-opacity:1;stroke-width:0.264583"
       transform="translate(-11.392617,0.45419)">
      <path
         d="m 15.5097,278.77302 c -0.0762,0 -0.141111,-0.0169 -0.194733,-0.0508 -0.174979,-0.11006 -0.231423,-0.35842 -0.231423,-0.64911 0,-0.23989 0.03387,-0.41769 0.104422,-0.53058 0.06773,-0.11289 0.169334,-0.16933 0.299157,-0.16933 0.121356,0 0.217311,0.0197 0.296334,0.0593 l 0.07056,-0.31327 c -0.104423,-0.0452 -0.248357,-0.0734 -0.409224,-0.0734 -0.222956,0 -0.389468,0.0818 -0.505179,0.21449 -0.158045,0.1778 -0.228601,0.45156 -0.228601,0.80998 0,0.19191 0.01693,0.3556 0.05645,0.48542 0.09031,0.31892 0.279401,0.54469 0.668869,0.54469 0.166511,0 0.347134,-0.0395 0.440267,-0.11853 l -0.07056,-0.29916 c -0.07902,0.0508 -0.166512,0.0903 -0.296335,0.0903 z"
         id="path546"
         style="fill:#fffff0;fill-opacity:1" />
      <path
         d="m 17.849331,278.0731 c 0,-0.55033 -0.155223,-1.02729 -0.699913,-1.02729 -0.533402,0 -0.697091,0.44873 -0.697091,1.02729 0,0.55598 0.146756,1.02729 0.697091,1.02729 0.527757,0 0.699913,-0.44873 0.699913,-1.02729 z m -1.02447,0 c 0,-0.46567 0.107245,-0.69991 0.324557,-0.69991 0.06209,0 0.112889,0.0197 0.155222,0.0564 0.135468,0.12136 0.172157,0.381 0.172157,0.64347 0,0.24554 -0.02822,0.42334 -0.08185,0.5334 -0.05645,0.11289 -0.138289,0.16652 -0.245534,0.16652 -0.06209,0 -0.112889,-0.0169 -0.152401,-0.0536 -0.141111,-0.12135 -0.172156,-0.37535 -0.172156,-0.64629 z"
         id="path548"
         style="fill:#fffff0;fill-opacity:1" />
      <path
         d="m 18.410953,279.09757 c 0.186268,0 0.304801,-0.1016 0.372535,-0.2286 h 0.0085 l 0.05927,0.19191 h 0.254001 c -0.03105,-0.11853 -0.03951,-0.27658 -0.03951,-0.42898 v -0.98213 h -0.335846 v 0.94262 c -0.02822,0.096 -0.09596,0.19756 -0.208845,0.19756 -0.138289,0 -0.143933,-0.127 -0.143933,-0.29634 v -0.84384 h -0.335846 v 0.91722 c 0,0.31327 0.06491,0.53058 0.369712,0.53058 z"
         id="path550"
         style="fill:#fffff0;fill-opacity:1" />
      <path
         d="m 19.678132,279.09475 c 0.118534,0 0.234245,-0.031 0.31609,-0.0734 l -0.04233,-0.26811 c -0.0508,0.0226 -0.08749,0.0339 -0.149578,0.0339 -0.104422,0 -0.110067,-0.096 -0.110067,-0.22296 v -0.61525 h 0.273756 v -0.29915 h -0.273756 v -0.36971 l -0.335845,0.10442 v 0.26529 h -0.155223 v 0.29915 h 0.155223 v 0.73943 c 0,0.26247 0.07902,0.4064 0.321734,0.4064 z"
         id="path552"
         style="fill:#fffff0;fill-opacity:1" />
    </g>
  </g>
  <g
     style="display:none"
     inkscape:label="components"
     id="layer2"
     inkscape:groupmode="layer">
    <circle
       r="4"
       style="fill:#00ff00;fill-rule:evenodd;stroke-width:0.264582"
       id="circle922"
       cx="5.0799999"
       cy="18.250004"
       inkscape:label="CV_Out" />
    <circle
       style="fill:#000000;fill-opacity:1;fill-rule:evenodd;stroke-width:0.264582"
       id="circle9581"
       cx="-5.96"
       cy="32"
       inkscape:label="CV_Out"
       r="3"
       transform="scale(-1,1)" />
    <circle
       inkscape:label="CV_Out"
       cy="51.25"
       cx="-5.0799999"
       id="circle1002"
       style="fill:#0000ff;fill-rule:evenodd;stroke-width:0.264582"
       r="4"
       transform="scale(-1,1)" />
    <circle
       style="fill:#000000;fill-opacity:1;fill-rule:evenodd;stroke-width:0.264582"
       id="circle1371"
       cx="-5.96"
       cy="40.799995"
       inkscape:label="CV_Out"
       r="3"
       transform="scale(-1,1)" />
    <g
       id="g1727"
       transform="matrix(-1,0,0,1,13.623773,0)">
      <rect
         style="fill:#ff0000;stroke:#000000;stroke-width:0.05;stroke-miterlimit:4;stroke-dasharray:none;stroke-opacity:1"
         id="rect1193"
         width="0.94999999"
         height="0.94999999"
         x="11.568772"
         y="26.525003" />
      <rect
         style="fill:#ff0000;stroke:#000000;stroke-width:0.05;stroke-miterlimit:4;stroke-dasharray:none;stroke-opacity:1"
         id="rect1497"
         width="0.94999999"
         height="0.94999999"
         x="11.568772"
         y="46.525002" />
      <rect
         style="fill:#ff0000;stroke:#000000;stroke-width:0.05;stroke-miterlimit:4;stroke-dasharray:none;stroke-opacity:1"
         id="rect1499"
         width="0.94999999"
         height="0.94999999"
         x="11.568772"
         y="27.525002" />
      <rect
         style="fill:#ff0000;stroke:#000000;stroke-width:0.05;stroke-miterlimit:4;stroke-dasharray:none;stroke-opacity:1"
         id="rect1501"
         width="0.94999999"
         height="0.94999999"
         x="11.568772"
         y="28.525002" />
      <rect
         style="fill:#ff0000;stroke:#000000;stroke-width:0.05;stroke-miterlimit:4;stroke-dasharray:none;stroke-opacity:1"
         id="rect1503"
         width="0.94999999"
         height="0.94999999"
         x="11.568772"
         y="29.525002" />
      <rect
         style="fill:#ff0000;stroke:#000000;stroke-width:0.05;stroke-miterlimit:4;stroke-dasharray:none;stroke-opacity:1"
         id="rect1505"
         width="0.94999999"
         height="0.94999999"
         x="11.568772"
         y="30.525003" />
      <rect
         style="fill:#ff0000;stroke:#000000;stroke-width:0.05;stroke-miterlimit:4;stroke-dasharray:none;stroke-opacity:1"
         id="rect1507"
         width="0.94999999"
         height="0.94999999"
         x="11.568772"
         y="31.525002" />
      <rect
         style="fill:#ff0000;stroke:#000000;stroke-width:0.05;stroke-miterlimit:4;stroke-dasharray:none;stroke-opacity:1"
         id="rect1509"
         width="0.94999999"
         height="0.94999999"
         x="11.568772"
         y="32.525002" />
      <rect
         style="fill:#ff0000;stroke:#000000;stroke-width:0.05;stroke-miterlimit:4;stroke-dasharray:none;stroke-opacity:1"
         id="rect1511"
         width="0.94999999"
         height="0.94999999"
         x="11.568772"
         y="33.525002" />
      <rect
         style="fill:#ff0000;stroke:#000000;stroke-width:0.05;stroke-miterlimit:4;stroke-dasharray:none;stroke-opacity:1"
         id="rect1513"
         width="0.94999999"
         height="0.94999999"
         x="11.568772"
         y="34.525002" />
      <rect
         style="fill:#ff0000;stroke:#000000;stroke-width:0.05;stroke-miterlimit:4;stroke-dasharray:none;stroke-opacity:1"
         id="rect1515"
         width="0.94999999"
         height="0.94999999"
         x="11.568772"
         y="35.525002" />
      <rect
         style="fill:#ff0000;stroke:#000000;stroke-width:0.05;stroke-miterlimit:4;stroke-dasharray:none;stroke-opacity:1"
         id="rect1517"
         width="0.94999999"
         height="0.94999999"
         x="11.568772"
         y="36.525002" />
      <rect
         style="fill:#ff0000;stroke:#000000;stroke-width:0.05;stroke-miterlimit:4;stroke-dasharray:none;stroke-opacity:1"
         id="rect1519"
         width="0.94999999"
         height="0.94999999"
         x="11.568772"
         y="37.525002" />
      <rect
         style="fill:#ff0000;stroke:#000000;stroke-width:0.05;stroke-miterlimit:4;stroke-dasharray:none;stroke-opacity:1"
         id="rect1521"
         width="0.94999999"
         height="0.94999999"
         x="11.568772"
         y="38.525002" />
      <rect
         style="fill:#ff0000;stroke:#000000;stroke-width:0.05;stroke-miterlimit:4;stroke-dasharray:none;stroke-opacity:1"
         id="rect1523"
         width="0.94999999"
         height="0.94999999"
         x="11.568772"
         y="39.525002" />
      <rect
         style="fill:#ff0000;stroke:#000000;stroke-width:0.05;stroke-miterlimit:4;stroke-dasharray:none;stroke-opacity:1"
         id="rect1525"
         width="0.94999999"
         height="0.94999999"
         x="11.568772"
         y="40.525002" />
      <rect
         style="fill:#ff0000;stroke:#000000;stroke-width:0.05;stroke-miterlimit:4;stroke-dasharray:none;stroke-opacity:1"
         id="rect1527"
         width="0.94999999"
         height="0.94999999"
         x="11.568772"
         y="41.525005" />
      <rect
         style="fill:#ff0000;stroke:#000000;stroke-width:0.05;stroke-miterlimit:4;stroke-dasharray:none;stroke-opacity:1"
         id="rect1529"
         width="0.94999999"
         height="0.94999999"
         x="11.568772"
         y="42.524998" />
      <rect
         style="fill:#ff0000;stroke:#000000;stroke-width:0.05;stroke-miterlimit:4;stroke-dasharray:none;stroke-opacity:1"
         id="rect1531"
         width="0.94999999"
         height="0.94999999"
         x="11.568772"
         y="43.525002" />
      <rect
         style="fill:#ff0000;stroke:#000000;stroke-width:0.05;stroke-miterlimit:4;stroke-dasharray:none;stroke-opacity:1"
         id="rect1533"
         width="0.94999999"
         height="0.94999999"
         x="11.568772"
         y="44.524998" />
      <rect
         style="fill:#ff0000;stroke:#000000;stroke-width:0.05;stroke-miterlimit:4;stroke-dasharray:none;stroke-opacity:1"
         id="rect1535"
         width="0.94999999"
         height="0.94999999"
         x="11.568772"
         y="45.525002" />
      <rect
         style="fill:none;stroke:#000000;stroke-width:0.1;stroke-miterlimit:4;stroke-dasharray:none;stroke-opacity:1"
         id="rect1559"
         width="1"
         height="21"
         x="11.543773"
         y="26.500002" />
    </g>
    <circle
       style="display:inline;opacity:0.994;fill:#00b8ff;fill-opacity:1;stroke:#454545;stroke-width:0.15;stroke-miterlimit:4;stroke-dasharray:none;stroke-dashoffset:9.44882;stroke-opacity:1;stop-color:#000000"
       id="path840"
       cx="-1.78"
       cy="54.799999"
       r="0.97500002"
       transform="scale(-1,1)" />
    <circle
       style="fill:#000000;fill-opacity:1;fill-rule:evenodd;stroke-width:0.264582"
       id="circle617"
       cx="-5.96"
       cy="64"
       inkscape:label="CV_Out"
       r="3"
       transform="scale(-1,1)" />
    <circle
       inkscape:label="CV_Out"
       cy="83.25"
       cx="-5.0799999"
       id="circle619"
       style="fill:#0000ff;fill-rule:evenodd;stroke-width:0.264582"
       r="4"
       transform="scale(-1,1)" />
    <circle
       style="fill:#000000;fill-opacity:1;fill-rule:evenodd;stroke-width:0.264582"
       id="circle621"
       cx="-5.96"
       cy="72.799995"
       inkscape:label="CV_Out"
       r="3"
       transform="scale(-1,1)" />
    <g
       id="g667"
       transform="matrix(-1,0,0,1,13.623773,32)">
      <rect
         style="fill:#ff0000;stroke:#000000;stroke-width:0.05;stroke-miterlimit:4;stroke-dasharray:none;stroke-opacity:1"
         id="rect623"
         width="0.94999999"
         height="0.94999999"
         x="11.568772"
         y="26.525003" />
      <rect
         style="fill:#ff0000;stroke:#000000;stroke-width:0.05;stroke-miterlimit:4;stroke-dasharray:none;stroke-opacity:1"
         id="rect625"
         width="0.94999999"
         height="0.94999999"
         x="11.568772"
         y="46.525002" />
      <rect
         style="fill:#ff0000;stroke:#000000;stroke-width:0.05;stroke-miterlimit:4;stroke-dasharray:none;stroke-opacity:1"
         id="rect627"
         width="0.94999999"
         height="0.94999999"
         x="11.568772"
         y="27.525002" />
      <rect
         style="fill:#ff0000;stroke:#000000;stroke-width:0.05;stroke-miterlimit:4;stroke-dasharray:none;stroke-opacity:1"
         id="rect629"
         width="0.94999999"
         height="0.94999999"
         x="11.568772"
         y="28.525002" />
      <rect
         style="fill:#ff0000;stroke:#000000;stroke-width:0.05;stroke-miterlimit:4;stroke-dasharray:none;stroke-opacity:1"
         id="rect631"
         width="0.94999999"
         height="0.94999999"
         x="11.568772"
         y="29.525002" />
      <rect
         style="fill:#ff0000;stroke:#000000;stroke-width:0.05;stroke-miterlimit:4;stroke-dasharray:none;stroke-opacity:1"
         id="rect633"
         width="0.94999999"
         height="0.94999999"
         x="11.568772"
         y="30.525003" />
      <rect
         style="fill:#ff0000;stroke:#000000;stroke-width:0.05;stroke-miterlimit:4;stroke-dasharray:none;stroke-opacity:1"
         id="rect635"
         width="0.94999999"
         height="0.94999999"
         x="11.568772"
         y="31.525002" />
      <rect
         style="fill:#ff0000;stroke:#000000;stroke-width:0.05;stroke-miterlimit:4;stroke-dasharray:none;stroke-opacity:1"
         id="rect637"
         width="0.94999999"
         height="0.94999999"
         x="11.568772"
         y="32.525002" />
      <rect
         style="fill:#ff0000;stroke:#000000;stroke-width:0.05;stroke-miterlimit:4;stroke-dasharray:none;stroke-opacity:1"
         id="rect639"
         width="0.94999999"
         height="0.94999999"
         x="11.568772"
         y="33.525002" />
      <rect
         style="fill:#ff0000;stroke:#000000;stroke-width:0.05;stroke-miterlimit:4;stroke-dasharray:none;stroke-opacity:1"
         id="rect641"
         width="0.94999999"
         height="0.94999999"
         x="11.568772"
         y="34.525002" />
      <rect
         style="fill:#ff0000;stroke:#000000;stroke-width:0.05;stroke-miterlimit:4;stroke-dasharray:none;stroke-opacity:1"
         id="rect643"
         width="0.94999999"
         height="0.94999999"
         x="11.568772"
         y="35.525002" />
      <rect
         style="fill:#ff0000;stroke:#000000;stroke-width:0.05;stroke-miterlimit:4;stroke-dasharray:none;stroke-opacity:1"
         id="rect645"
         width="0.94999999"
         height="0.94999999"
         x="11.568772"
         y="36.525002" />
      <rect
         style="fill:#ff0000;stroke:#000000;stroke-width:0.05;stroke-miterlimit:4;stroke-dasharray:none;stroke-opacity:1"
         id="rect647"
         width="0.94999999"
         height="0.94999999"
         x="11.568772"
         y="37.525002" />
      <rect
         style="fill:#ff0000;stroke:#000000;stroke-width:0.05;stroke-miterlimit:4;stroke-dasharray:none;stroke-opacity:1"
         id="rect649"
         width="0.94999999"
         height="0.94999999"
         x="11.568772"
         y="38.525002" />
      <rect
         style="fill:#ff0000;stroke:#000000;stroke-width:0.05;stroke-miterlimit:4;stroke-dasharray:none;stroke-opacity:1"
         id="rect651"
         width="0.94999999"
         height="0.94999999"
         x="11.568772"
         y="39.525002" />
      <rect
         style="fill:#ff0000;stroke:#000000;stroke-width:0.05;stroke-miterlimit:4;stroke-dasharray:none;stroke-opacity:1"
         id="rect653"
         width="0.94999999"
         height="0.94999999"
         x="11.568772"
         y="40.525002" />
      <rect
         style="fill:#ff0000;stroke:#000000;stroke-width:0.05;stroke-miterlimit:4;stroke-dasharray:none;stroke-opacity:1"
         id="rect655"
         width="0.94999999"
         height="0.94999999"
         x="11.568772"
         y="41.525005" />
      <rect
         style="fill:#ff0000;stroke:#000000;stroke-width:0.05;stroke-miterlimit:4;stroke-dasharray:none;stroke-opacity:1"
         id="rect657"
         width="0.94999999"
         height="0.94999999"
         x="11.568772"
         y="42.524998" />
      <rect
         style="fill:#ff0000;stroke:#000000;stroke-width:0.05;stroke-miterlimit:4;stroke-dasharray:none;stroke-opacity:1"
         id="rect659"
         width="0.94999999"
         height="0.94999999"
         x="11.568772"
         y="43.525002" />
      <rect
         style="fill:#ff0000;stroke:#000000;stroke-width:0.05;stroke-miterlimit:4;stroke-dasharray:none;stroke-opacity:1"
         id="rect661"
         width="0.94999999"
         height="0.94999999"
         x="11.568772"
         y="44.524998" />
      <rect
         style="fill:#ff0000;stroke:#000000;stroke-width:0.05;stroke-miterlimit:4;stroke-dasharray:none;stroke-opacity:1"
         id="rect663"
         width="0.94999999"
         height="0.94999999"
         x="11.568772"
         y="45.525002" />
      <rect
         style="fill:none;stroke:#000000;stroke-width:0.1;stroke-miterlimit:4;stroke-dasharray:none;stroke-opacity:1"
         id="rect665"
         width="1"
         height="21"
         x="11.543773"
         y="26.500002" />
    </g>
    <circle
       style="display:inline;opacity:0.994;fill:#00b8ff;fill-opacity:1;stroke:#454545;stroke-width:0.15;stroke-miterlimit:4;stroke-dasharray:none;stroke-dashoffset:9.44882;stroke-opacity:1;stop-color:#000000"
       id="circle669"
       cx="-1.78"
       cy="86.800003"
       r="0.97500002"
       transform="scale(-1,1)" />
    <circle
       style="fill:#000000;fill-opacity:1;fill-rule:evenodd;stroke-width:0.264582"
       id="circle725"
       cx="-5.96"
       cy="96"
       inkscape:label="CV_Out"
       r="3"
       transform="scale(-1,1)" />
    <circle
       inkscape:label="CV_Out"
       cy="115.25"
       cx="-5.0799999"
       id="circle727"
       style="fill:#0000ff;fill-rule:evenodd;stroke-width:0.264582"
       r="4"
       transform="scale(-1,1)" />
    <circle
       style="fill:#000000;fill-opacity:1;fill-rule:evenodd;stroke-width:0.264582"
       id="circle729"
       cx="-5.96"
       cy="104.8"
       inkscape:label="CV_Out"
       r="3"
       transform="scale(-1,1)" />
    <g
       id="g775"
       transform="matrix(-1,0,0,1,13.623773,64)">
      <rect
         style="fill:#ff0000;stroke:#000000;stroke-width:0.05;stroke-miterlimit:4;stroke-dasharray:none;stroke-opacity:1"
         id="rect731"
         width="0.94999999"
         height="0.94999999"
         x="11.568772"
         y="26.525003" />
      <rect
         style="fill:#ff0000;stroke:#000000;stroke-width:0.05;stroke-miterlimit:4;stroke-dasharray:none;stroke-opacity:1"
         id="rect733"
         width="0.94999999"
         height="0.94999999"
         x="11.568772"
         y="46.525002" />
      <rect
         style="fill:#ff0000;stroke:#000000;stroke-width:0.05;stroke-miterlimit:4;stroke-dasharray:none;stroke-opacity:1"
         id="rect735"
         width="0.94999999"
         height="0.94999999"
         x="11.568772"
         y="27.525002" />
      <rect
         style="fill:#ff0000;stroke:#000000;stroke-width:0.05;stroke-miterlimit:4;stroke-dasharray:none;stroke-opacity:1"
         id="rect737"
         width="0.94999999"
         height="0.94999999"
         x="11.568772"
         y="28.525002" />
      <rect
         style="fill:#ff0000;stroke:#000000;stroke-width:0.05;stroke-miterlimit:4;stroke-dasharray:none;stroke-opacity:1"
         id="rect739"
         width="0.94999999"
         height="0.94999999"
         x="11.568772"
         y="29.525002" />
      <rect
         style="fill:#ff0000;stroke:#000000;stroke-width:0.05;stroke-miterlimit:4;stroke-dasharray:none;stroke-opacity:1"
         id="rect741"
         width="0.94999999"
         height="0.94999999"
         x="11.568772"
         y="30.525003" />
      <rect
         style="fill:#ff0000;stroke:#000000;stroke-width:0.05;stroke-miterlimit:4;stroke-dasharray:none;stroke-opacity:1"
         id="rect743"
         width="0.94999999"
         height="0.94999999"
         x="11.568772"
         y="31.525002" />
      <rect
         style="fill:#ff0000;stroke:#000000;stroke-width:0.05;stroke-miterlimit:4;stroke-dasharray:none;stroke-opacity:1"
         id="rect745"
         width="0.94999999"
         height="0.94999999"
         x="11.568772"
         y="32.525002" />
      <rect
         style="fill:#ff0000;stroke:#000000;stroke-width:0.05;stroke-miterlimit:4;stroke-dasharray:none;stroke-opacity:1"
         id="rect747"
         width="0.94999999"
         height="0.94999999"
         x="11.568772"
         y="33.525002" />
      <rect
         style="fill:#ff0000;stroke:#000000;stroke-width:0.05;stroke-miterlimit:4;stroke-dasharray:none;stroke-opacity:1"
         id="rect749"
         width="0.94999999"
         height="0.94999999"
         x="11.568772"
         y="34.525002" />
      <rect
         style="fill:#ff0000;stroke:#000000;stroke-width:0.05;stroke-miterlimit:4;stroke-dasharray:none;stroke-opacity:1"
         id="rect751"
         width="0.94999999"
         height="0.94999999"
         x="11.568772"
         y="35.525002" />
      <rect
         style="fill:#ff0000;stroke:#000000;stroke-width:0.05;stroke-miterlimit:4;stroke-dasharray:none;stroke-opacity:1"
         id="rect753"
         width="0.94999999"
         height="0.94999999"
         x="11.568772"
         y="36.525002" />
      <rect
         style="fill:#ff0000;stroke:#000000;stroke-width:0.05;stroke-miterlimit:4;stroke-dasharray:none;stroke-opacity:1"
         id="rect755"
         width="0.94999999"
         height="0.94999999"
         x="11.568772"
         y="37.525002" />
      <rect
         style="fill:#ff0000;stroke:#000000;stroke-width:0.05;stroke-miterlimit:4;stroke-dasharray:none;stroke-opacity:1"
         id="rect757"
         width="0.94999999"
         height="0.94999999"
         x="11.568772"
         y="38.525002" />
      <rect
         style="fill:#ff0000;stroke:#000000;stroke-width:0.05;stroke-miterlimit:4;stroke-dasharray:none;stroke-opacity:1"
         id="rect759"
         width="0.94999999"
         height="0.94999999"
         x="11.568772"
         y="39.525002" />
      <rect
         style="fill:#ff0000;stroke:#000000;stroke-width:0.05;stroke-miterlimit:4;stroke-dasharray:none;stroke-opacity:1"
         id="rect761"
         width="0.94999999"
         height="0.94999999"
         x="11.568772"
         y="40.525002" />
      <rect
         style="fill:#ff0000;stroke:#000000;stroke-width:0.05;stroke-miterlimit:4;stroke-dasharray:none;stroke-opacity:1"
         id="rect763"
         width="0.94999999"
         height="0.94999999"
         x="11.568772"
         y="41.525005" />
      <rect
         style="fill:#ff0000;stroke:#000000;stroke-width:0.05;stroke-miterlimit:4;stroke-dasharray:none;stroke-opacity:1"
         id="rect765"
         width="0.94999999"
         height="0.94999999"
         x="11.568772"
         y="42.524998" />
      <rect
         style="fill:#ff0000;stroke:#000000;stroke-width:0.05;stroke-miterlimit:4;stroke-dasharray:none;stroke-opacity:1"
         id="rect767"
         width="0.94999999"
         height="0.94999999"
         x="11.568772"
         y="43.525002" />
      <rect
         style="fill:#ff0000;stroke:#000000;stroke-width:0.05;stroke-miterlimit:4;stroke-dasharray:none;stroke-opacity:1"
         id="rect769"
         width="0.94999999"
         height="0.94999999"
         x="11.568772"
         y="44.524998" />
      <rect
         style="fill:#ff0000;stroke:#000000;stroke-width:0.05;stroke-miterlimit:4;stroke-dasharray:none;stroke-opacity:1"
         id="rect771"
         width="0.94999999"
         height="0.94999999"
         x="11.568772"
         y="45.525002" />
      <rect
         style="fill:none;stroke:#000000;stroke-width:0.1;stroke-miterlimit:4;stroke-dasharray:none;stroke-opacity:1"
         id="rect773"
         width="1"
         height="21"
         x="11.543773"
         y="26.500002" />
    </g>
    <circle
       style="display:inline;opacity:0.994;fill:#00b8ff;fill-opacity:1;stroke:#454545;stroke-width:0.15;stroke-miterlimit:4;stroke-dasharray:none;stroke-dashoffset:9.44882;stroke-opacity:1;stop-color:#000000"
       id="circle777"
       cx="-1.78"
       cy="118.8"
       r="0.97500002"
       transform="scale(-1,1)" />
  </g>
</svg>
