<?xml version="1.0" encoding="UTF-8" standalone="no"?>
<svg
   sodipodi:docname="LFO3-dark.svg"
   inkscape:version="1.3 (0e150ed6c4, 2023-07-21)"
   id="svg8"
   version="1.1"
   viewBox="0 0 10.16 128.5"
   height="128.5mm"
   width="10.16mm"
   xmlns:inkscape="http://www.inkscape.org/namespaces/inkscape"
   xmlns:sodipodi="http://sodipodi.sourceforge.net/DTD/sodipodi-0.dtd"
   xmlns="http://www.w3.org/2000/svg"
   xmlns:svg="http://www.w3.org/2000/svg"
   xmlns:rdf="http://www.w3.org/1999/02/22-rdf-syntax-ns#"
   xmlns:cc="http://creativecommons.org/ns#"
   xmlns:dc="http://purl.org/dc/elements/1.1/">
  <defs
     id="defs2" />
  <sodipodi:namedview
     inkscape:snap-global="true"
     inkscape:snap-bbox-midpoints="true"
     inkscape:snap-bbox="true"
     inkscape:document-rotation="0"
     inkscape:window-maximized="0"
     inkscape:window-y="23"
     inkscape:window-x="26"
     inkscape:window-height="1216"
     inkscape:window-width="1499"
     inkscape:lockguides="false"
     inkscape:guide-bbox="true"
     showguides="true"
     units="mm"
     showgrid="false"
     inkscape:current-layer="layer2"
     inkscape:document-units="mm"
     inkscape:cy="321.61136"
     inkscape:cx="-20.477128"
     inkscape:zoom="4.1509728"
     inkscape:pageshadow="2"
     inkscape:pageopacity="0.0"
     borderopacity="1.0"
     bordercolor="#666666"
     pagecolor="#ffffff"
     id="base"
     inkscape:bbox-nodes="false"
     inkscape:bbox-paths="false"
     inkscape:snap-grids="false"
     inkscape:snap-others="false"
     inkscape:object-nodes="false"
     inkscape:snap-nodes="false"
     inkscape:snap-bbox-edge-midpoints="false"
     inkscape:pagecheckerboard="0"
     inkscape:showpageshadow="2"
     inkscape:deskcolor="#d1d1d1">
    <sodipodi:guide
       position="5.0800001,110.5"
       orientation="0,1"
       id="guide837"
       inkscape:label=""
       inkscape:locked="false"
       inkscape:color="rgb(0,0,255)" />
    <sodipodi:guide
       inkscape:color="rgb(0,0,255)"
       inkscape:locked="false"
       inkscape:label=""
       id="guide875"
       orientation="0,1"
       position="5.0800001,36.499994" />
    <sodipodi:guide
       position="5.0800001,86.000003"
       orientation="0,1"
       id="guide891"
       inkscape:label=""
       inkscape:locked="false"
       inkscape:color="rgb(0,0,255)" />
    <sodipodi:guide
       position="5.0800001,48.999994"
       orientation="0,1"
       id="guide893"
       inkscape:label=""
       inkscape:locked="false"
       inkscape:color="rgb(0,0,255)" />
    <sodipodi:guide
       position="5.0800001,73.499992"
       orientation="0,1"
       id="guide901"
       inkscape:label=""
       inkscape:locked="false"
       inkscape:color="rgb(0,0,255)" />
    <sodipodi:guide
       position="5.0800001,93.500004"
       orientation="0,1"
       id="guide947"
       inkscape:label=""
       inkscape:locked="false"
       inkscape:color="rgb(0,0,255)" />
    <sodipodi:guide
       position="5.0800001,28.249994"
       orientation="0,1"
       id="guide3392"
       inkscape:label=""
       inkscape:locked="false"
       inkscape:color="rgb(0,0,255)" />
    <sodipodi:guide
       inkscape:color="rgb(0,0,255)"
       inkscape:locked="false"
       inkscape:label=""
       id="guide907"
       orientation="0,1"
       position="5.0800001,12" />
    <sodipodi:guide
       position="5.0800003,65.249987"
       orientation="0,1"
       id="guide908"
       inkscape:label=""
       inkscape:locked="false"
       inkscape:color="rgb(0,0,255)" />
    <sodipodi:guide
       inkscape:color="rgb(0,0,255)"
       inkscape:locked="false"
       inkscape:label=""
       id="guide944"
       orientation="-1,0"
       position="5.0800002,74.250002" />
    <sodipodi:guide
       position="5.0800002,102.25"
       orientation="0,1"
       id="guide18956"
       inkscape:label=""
       inkscape:locked="false"
       inkscape:color="rgb(0,0,255)" />
    <sodipodi:guide
       position="5.0800001,56.499995"
       orientation="0,-1"
       id="guide1014"
       inkscape:locked="false" />
    <sodipodi:guide
       position="5.0800001,19.500001"
       orientation="0,-1"
       id="guide1016"
       inkscape:locked="false" />
  </sodipodi:namedview>
  <metadata
     id="metadata5">
    <rdf:RDF>
      <cc:Work
         rdf:about="">
        <dc:format>image/svg+xml</dc:format>
        <dc:type
           rdf:resource="http://purl.org/dc/dcmitype/StillImage" />
        <dc:title />
      </cc:Work>
    </rdf:RDF>
  </metadata>
  <g
     transform="translate(0,-168.5)"
     id="layer1"
     inkscape:groupmode="layer"
     inkscape:label="Layer 1"
     style="display:inline">
    <rect
       style="display:inline;opacity:1;fill:#242422;fill-opacity:1;stroke:none;stroke-width:1.131;stroke-miterlimit:4;stroke-dasharray:none"
       id="rect838"
       width="10.16"
       height="128.5"
       x="-5.5511151e-17"
       y="168.5" />
    <text
       xml:space="preserve"
       style="font-weight:bold;font-stretch:condensed;font-size:2.82223px;line-height:1.25;font-family:'PT Sans Narrow';-inkscape-font-specification:'PT Sans Narrow, Bold Condensed';opacity:1;stroke-width:0.264583"
       x="2.0529213"
       y="233.73691"
       id="text64"><tspan
         sodipodi:role="line"
         id="tspan62"
         x="2.0529213"
         y="233.73691"
         style="stroke-width:0.264583" /></text>
    <g
       aria-label="GRANDE"
       id="text2569"
       style="font-size:1.76389px;line-height:1.25;font-family:'Source Sans Pro';-inkscape-font-specification:'Source Sans Pro, Normal';text-align:center;letter-spacing:0.370417px;text-anchor:middle;opacity:1;stroke-width:0.264583;fill:#fffff0;fill-opacity:1"
       transform="translate(0,-0.83024)">
      <path
         d="m 1.6963961,292.52968 c 0.1552223,0 0.2822224,-0.0564 0.3580696,-0.13405 v -0.48684 H 1.6734655 v 0.12171 h 0.2451807 v 0.30163 c -0.045861,0.0423 -0.1252362,0.067 -0.208139,0.067 -0.2469446,0 -0.3827641,-0.18168 -0.3827641,-0.47272 0,-0.28751 0.1481667,-0.46567 0.3810002,-0.46567 0.1164167,0 0.1905001,0.0441 0.2487085,0.10407 l 0.081139,-0.0917 c -0.067028,-0.0723 -0.1728612,-0.14287 -0.3333752,-0.14287 -0.3069168,0 -0.5309309,0.22754 -0.5309309,0.59972 0,0.37747 0.2169585,0.59972 0.5221114,0.59972 z"
         style="stroke-width:0.264583;fill:#fffff0;fill-opacity:1"
         id="path2571" />
      <path
         d="m 2.7000468,292.50851 h 0.1481668 v -0.48859 h 0.208139 l 0.2786946,0.48859 h 0.1675696 l -0.2945696,-0.50447 c 0.1569862,-0.0406 0.2592918,-0.1464 0.2592918,-0.32632 0,-0.24165 -0.1693334,-0.32632 -0.4056947,-0.32632 H 2.7000468 Z m 0.1481668,-0.60854 v -0.42862 h 0.192264 c 0.1799168,0 0.2786946,0.0547 0.2786946,0.20637 0,0.14817 -0.098778,0.22225 -0.2786946,0.22225 z"
         style="stroke-width:0.264583;fill:#fffff0;fill-opacity:1"
         id="path2573" />
      <path
         d="m 4.2699053,291.86293 c 0.04057,-0.12876 0.077611,-0.25576 0.112889,-0.38982 h 0.00706 c 0.037042,0.13406 0.074083,0.26106 0.1164168,0.38982 l 0.054681,0.17463 H 4.2152247 Z m -0.3545419,0.64558 h 0.1499307 l 0.111125,-0.35101 H 4.5979889 L 4.70735,292.50851 H 4.8643363 L 4.4745166,291.3514 H 4.3051831 Z"
         style="stroke-width:0.264583;fill:#fffff0;fill-opacity:1"
         id="path2575" />
      <path
         d="M 5.3987927,292.50851 H 5.53814 v -0.60854 c 0,-0.11994 -0.010583,-0.24518 -0.019403,-0.3616 h 0.00706 c 0.038806,0.0847 0.081139,0.1711 0.1252362,0.24871 l 0.4127502,0.72143 H 6.2225293 V 291.3514 H 6.083182 v 0.60325 c 0,0.11995 0.010583,0.24695 0.019403,0.36689 h -0.00706 c -0.040569,-0.0847 -0.081139,-0.1711 -0.1252361,-0.24871 L 5.5575428,291.3514 H 5.3987927 Z"
         style="stroke-width:0.264583;fill:#fffff0;fill-opacity:1"
         id="path2577" />
      <path
         d="m 6.9086818,292.50851 h 0.2963335 c 0.3492503,0 0.5397504,-0.21519 0.5397504,-0.58384 0,-0.36689 -0.1905001,-0.57327 -0.5468059,-0.57327 h -0.289278 z m 0.1481668,-0.1217 v -0.9137 h 0.1305278 c 0.2698752,0 0.4039309,0.16051 0.4039309,0.45156 0,0.2928 -0.1340557,0.46214 -0.4039309,0.46214 z"
         style="stroke-width:0.264583;fill:#fffff0;fill-opacity:1"
         id="path2579" />
      <path
         d="m 8.3656535,292.50851 h 0.6843893 v -0.12523 H 8.5138202 v -0.41981 h 0.4374447 v -0.12523 H 8.5138202 v -0.3616 H 9.0324039 V 291.3514 H 8.3656535 Z"
         style="stroke-width:0.264583;fill:#fffff0;fill-opacity:1"
         id="path2581" />
    </g>
    <text
       xml:space="preserve"
       style="font-weight:bold;font-stretch:condensed;font-size:2.82223px;line-height:1.25;font-family:'PT Sans Narrow';-inkscape-font-specification:'PT Sans Narrow, Bold Condensed';text-align:center;text-anchor:middle;opacity:1;stroke-width:0.264583"
       x="7.705914"
       y="247.28606"
       id="text925"><tspan
         sodipodi:role="line"
         id="tspan923"
         x="7.705914"
         y="247.28606"
         style="stroke-width:0.264583" /></text>
    <rect
       style="fill:#555d50;fill-opacity:1;stroke:none;stroke-width:0.264997"
       id="rect908"
       width="9"
       height="8.75"
       x="0.57999998"
       y="190.375"
       rx="0.99999994"
       ry="1" />
    <g
       id="g897"
       transform="translate(-13.262519)"
       style="fill:#fffff0;fill-opacity:1">
      <path
         d="m 16.008936,177.52638 v -0.57291 h -1.214969 v -2.88432 h -0.622301 v 3.45723 z"
         id="path6243"
         style="font-weight:bold;font-stretch:condensed;font-size:4.9389px;line-height:1.25;font-family:'PTQ Sans Narrow';-inkscape-font-specification:'PTQ Sans Narrow, Bold Condensed';font-variant-ligatures:none;stroke-width:0.264583;fill:#fffff0;fill-opacity:1" />
      <path
         d="m 16.265758,174.06915 v 3.45723 h 0.622302 v -1.41253 h 1.017413 v -0.57291 H 16.88806 v -0.89888 h 1.106313 v -0.57291 z"
         id="path6245"
         style="font-weight:bold;font-stretch:condensed;font-size:4.9389px;line-height:1.25;font-family:'PTQ Sans Narrow';-inkscape-font-specification:'PTQ Sans Narrow, Bold Condensed';font-variant-ligatures:none;stroke-width:0.264583;fill:#fffff0;fill-opacity:1" />
      <path
         d="m 20.700884,175.79776 c 0,-0.96308 -0.271639,-1.79776 -1.224847,-1.79776 -0.933452,0 -1.219908,0.78529 -1.219908,1.79776 0,0.97297 0.256823,1.79776 1.219908,1.79776 0.923574,0 1.224847,-0.78528 1.224847,-1.79776 z m -1.79282,0 c 0,-0.81492 0.187678,-1.22484 0.567973,-1.22484 0.108656,0 0.197556,0.0346 0.27164,0.0988 0.237067,0.21238 0.301272,0.66676 0.301272,1.12607 0,0.42969 -0.04939,0.74084 -0.143228,0.93346 -0.09878,0.19755 -0.242006,0.29139 -0.429684,0.29139 -0.108656,0 -0.197556,-0.0296 -0.266701,-0.0938 -0.246945,-0.21237 -0.301272,-0.65687 -0.301272,-1.13101 z"
         id="path6247"
         style="font-weight:bold;font-stretch:condensed;font-size:4.9389px;line-height:1.25;font-family:'PTQ Sans Narrow';-inkscape-font-specification:'PTQ Sans Narrow, Bold Condensed';font-variant-ligatures:none;stroke-width:0.264583;fill:#fffff0;fill-opacity:1" />
      <path
         d="M 20.923045,176.94853 20.765,177.44242 c 0.148167,0.0938 0.459318,0.1531 0.706263,0.1531 0.143228,0 0.276578,-0.0197 0.404989,-0.0691 0.400051,-0.14323 0.637119,-0.51859 0.637119,-1.07174 0,-0.15805 -0.01976,-0.30128 -0.05927,-0.41981 -0.09384,-0.29139 -0.296334,-0.52352 -0.642057,-0.55316 l -0.18274,0.0296 v -0.0247 l 0.18274,-0.13335 0.572912,-0.93345 v -0.35066 h -1.580448 v 0.52352 h 0.676629 l 0.325968,-0.0445 -0.237067,0.22225 -0.488951,0.82974 v 0.33584 h 0.291395 c 0.365478,0 0.553156,0.18768 0.553156,0.5581 0,0.3309 -0.167922,0.57785 -0.49389,0.57785 -0.212372,0 -0.370417,-0.0494 -0.508706,-0.12347 z"
         id="path6249"
         style="font-weight:bold;font-stretch:condensed;font-size:4.9389px;line-height:1.25;font-family:'PTQ Sans Narrow';-inkscape-font-specification:'PTQ Sans Narrow, Bold Condensed';font-variant-ligatures:none;stroke-width:0.264583;fill:#fffff0;fill-opacity:1" />
    </g>
    <g
       aria-label="Freq A"
       id="text2632"
       style="font-size:2.82223px;line-height:1.25;font-family:'PTQ Sans Narrow';-inkscape-font-specification:'PTQ Sans Narrow, Normal';font-variant-ligatures:none;stroke-width:0.264583;fill:#fffff0;fill-opacity:1"
       transform="translate(10.360081,0.05585)">
      <path
         d="m -8.4014621,180.70826 v 1.97556 h 0.355601 v -0.80716 h 0.5813794 v -0.32737 h -0.5813794 v -0.51365 h 0.6321796 v -0.32738 z"
         id="path2930"
         style="fill:#fffff0;fill-opacity:1" />
      <path
         d="m -6.9169726,181.44204 h -0.011289 l -0.039511,-0.16933 h -0.256823 v 1.41111 h 0.3358454 v -0.94262 c 0.022578,-0.0903 0.093134,-0.16087 0.2060228,-0.16087 0.036689,0 0.079023,0.008 0.1241781,0.0254 l 0.039511,-0.33302 c -0.045156,-0.0169 -0.087489,-0.0282 -0.1326449,-0.0282 -0.1382892,0 -0.2257784,0.0931 -0.2652896,0.19755 z"
         id="path2932"
         style="fill:#fffff0;fill-opacity:1" />
      <path
         d="m -5.8275937,182.43264 c -0.2144895,0 -0.2850453,-0.14393 -0.2906897,-0.36124 h 0.6858019 c 0.014111,-0.0931 0.028222,-0.18345 0.028222,-0.28505 0,-0.33584 -0.1495782,-0.55315 -0.4741347,-0.55315 -0.1806227,0 -0.318912,0.0621 -0.4205123,0.18344 -0.1016002,0.12136 -0.1495782,0.30762 -0.1495782,0.56163 0,0.42615 0.1354671,0.74224 0.5588016,0.74224 0.172156,0 0.3527788,-0.0593 0.4459124,-0.14111 l -0.1044226,-0.23424 c -0.059267,0.048 -0.172156,0.0875 -0.2794007,0.0875 z m 0.1100669,-0.5842 h -0.3894677 c 0.00847,-0.17215 0.056445,-0.32738 0.2229562,-0.32738 0.1439337,0 0.1749782,0.15805 0.1665115,0.32738 z"
         id="path2934"
         style="fill:#fffff0;fill-opacity:1" />
      <path
         d="m -4.622503,181.24166 c -0.4346235,0 -0.6180684,0.30763 -0.6180684,0.76483 0,0.24271 0.036689,0.42051 0.1157114,0.53904 0.0762,0.11854 0.183445,0.1778 0.3245565,0.1778 0.1382892,0 0.2173117,-0.0508 0.2737563,-0.13829 h 0.011289 v 0.66323 h 0.3358454 v -1.92476 c -0.1016003,-0.0423 -0.2935119,-0.0819 -0.4430901,-0.0819 z m -0.079022,1.18252 c -0.1298226,0 -0.1919116,-0.14394 -0.1919116,-0.4318 0,-0.15805 0.016933,-0.27376 0.053622,-0.34432 0.036689,-0.0705 0.093134,-0.10724 0.1665116,-0.10724 0.064911,0 0.1185337,0.0113 0.1580449,0.0339 v 0.70273 c -0.028222,0.0875 -0.079022,0.14676 -0.1862672,0.14676 z"
         id="path2936"
         style="fill:#fffff0;fill-opacity:1" />
      <path
         d="m -2.6525909,182.23791 0.1213559,0.44591 h 0.3725344 l -0.575735,-1.98967 h -0.2794007 l -0.5729127,1.98967 h 0.3527787 l 0.1157115,-0.44591 z m -0.3894677,-0.29351 0.1100669,-0.4572 0.047978,-0.31327 h 0.011289 l 0.045156,0.31044 0.1128892,0.46003 z"
         id="path2938"
         style="fill:#fffff0;fill-opacity:1" />
    </g>
    <rect
       style="fill:#555d50;fill-opacity:1;stroke:none;stroke-width:0.264997"
       id="rect1174"
       width="9"
       height="8.75"
       x="0.57999998"
       y="227.37502"
       rx="0.99999994"
       ry="1" />
    <rect
       style="fill:#555d50;fill-opacity:1;stroke:none;stroke-width:0.264997"
       id="rect1238"
       width="9"
       height="8.75"
       x="0.57999998"
       y="264.375"
       rx="0.99999994"
       ry="1" />
  </g>
  <g
     style="display:none"
     inkscape:label="components"
     id="layer2"
     inkscape:groupmode="layer">
    <circle
       inkscape:label="CV_Out"
       cy="26.250004"
       cx="5.0799999"
       id="circle918"
       style="fill:#0000ff;fill-rule:evenodd;stroke-width:0.264582"
       r="4" />
    <circle
       r="4"
       style="fill:#00ff00;fill-rule:evenodd;stroke-width:0.264582"
       id="circle922"
       cx="5.0799999"
       cy="35"
       inkscape:label="CV_Out" />
    <circle
       style="fill:#000000;fill-opacity:1;fill-rule:evenodd;stroke-width:0.264582"
       id="circle9581"
       cx="5.0799999"
       cy="42.5"
       inkscape:label="CV_Out"
       r="3" />
    <circle
       style="fill:#000000;fill-opacity:1;fill-rule:evenodd;stroke-width:0.264582"
       id="circle18954"
       cx="5.0799999"
       cy="18.000004"
       inkscape:label="CV_Out"
       r="3" />
    <circle
       inkscape:label="CV_Out"
       cy="63.250011"
       cx="5.0799999"
       id="circle1188"
       style="fill:#0000ff;fill-rule:evenodd;stroke-width:0.264582"
       r="4" />
    <circle
       r="4"
       style="fill:#00ff00;fill-rule:evenodd;stroke-width:0.264582"
       id="circle1190"
       cx="5.0799999"
       cy="72.000008"
       inkscape:label="CV_Out" />
    <circle
       style="fill:#000000;fill-opacity:1;fill-rule:evenodd;stroke-width:0.264582"
       id="circle1192"
       cx="5.0799999"
       cy="79.500008"
       inkscape:label="CV_Out"
       r="3" />
    <circle
       style="fill:#000000;fill-opacity:1;fill-rule:evenodd;stroke-width:0.264582"
       id="circle1194"
       cx="5.0799999"
       cy="55.000011"
       inkscape:label="CV_Out"
       r="3" />
    <circle
       inkscape:label="CV_Out"
       cy="100.25001"
       cx="5.0799999"
       id="circle1252"
       style="fill:#0000ff;fill-rule:evenodd;stroke-width:0.264582"
       r="4" />
    <circle
       r="4"
       style="fill:#00ff00;fill-rule:evenodd;stroke-width:0.264582"
       id="circle1254"
       cx="5.0799999"
       cy="109"
       inkscape:label="CV_Out" />
    <circle
       style="fill:#000000;fill-opacity:1;fill-rule:evenodd;stroke-width:0.264582"
       id="circle1256"
       cx="5.0799999"
       cy="116.5"
       inkscape:label="CV_Out"
       r="3" />
    <circle
       style="fill:#000000;fill-opacity:1;fill-rule:evenodd;stroke-width:0.264582"
       id="circle1258"
       cx="5.0799999"
       cy="92.000008"
       inkscape:label="CV_Out"
       r="3" />
  </g>
  <g
     aria-label="Freq B"
     id="text9845"
     style="font-size:2.82223px;line-height:1.25;font-family:'PTQ Sans Narrow';-inkscape-font-specification:'PTQ Sans Narrow, Normal';font-variant-ligatures:none;stroke-width:0.264583;fill:#fffff0;fill-opacity:1"
     transform="translate(-10.138527,0.171713)">
    <path
       d="m 12.107023,49.106512 v 1.975561 h 0.355601 v -0.807158 h 0.581379 v -0.327378 h -0.581379 v -0.513646 h 0.632179 v -0.327379 z"
       id="path10963"
       style="fill:#fffff0;fill-opacity:1" />
    <path
       d="m 13.591512,49.840292 h -0.01129 l -0.03951,-0.169334 h -0.256823 v 1.411115 h 0.335846 v -0.942625 c 0.02258,-0.09031 0.09313,-0.160867 0.206022,-0.160867 0.03669,0 0.07902,0.0085 0.124178,0.0254 l 0.03951,-0.333023 c -0.04516,-0.01693 -0.08749,-0.02822 -0.132645,-0.02822 -0.138289,0 -0.225779,0.09313 -0.26529,0.197556 z"
       id="path10965"
       style="fill:#fffff0;fill-opacity:1" />
    <path
       d="m 14.680891,50.830895 c -0.214489,0 -0.285045,-0.143934 -0.29069,-0.361246 h 0.685802 c 0.01411,-0.09313 0.02822,-0.183445 0.02822,-0.285045 0,-0.335845 -0.149579,-0.553157 -0.474135,-0.553157 -0.180623,0 -0.318912,0.06209 -0.420512,0.183445 C 14.107978,49.936248 14.06,50.122515 14.06,50.376516 c 0,0.426156 0.135468,0.742246 0.558802,0.742246 0.172156,0 0.352779,-0.05927 0.445912,-0.141111 l -0.104422,-0.234245 c -0.05927,0.04798 -0.172156,0.08749 -0.279401,0.08749 z m 0.110067,-0.584202 H 14.40149 c 0.0085,-0.172156 0.05645,-0.327379 0.222957,-0.327379 0.143933,0 0.174978,0.158045 0.166511,0.327379 z"
       id="path10967"
       style="fill:#fffff0;fill-opacity:1" />
    <path
       d="m 15.885982,49.639914 c -0.434624,0 -0.618069,0.307623 -0.618069,0.764824 0,0.242712 0.03669,0.420512 0.115712,0.539046 0.0762,0.118534 0.183445,0.1778 0.324556,0.1778 0.13829,0 0.217312,-0.0508 0.273757,-0.138289 h 0.01129 v 0.663224 h 0.335845 v -1.924761 c -0.1016,-0.04233 -0.293512,-0.08184 -0.44309,-0.08184 z m -0.07902,1.182514 c -0.129822,0 -0.191911,-0.143934 -0.191911,-0.431801 0,-0.158045 0.01693,-0.273756 0.05362,-0.344312 0.03669,-0.07056 0.09313,-0.107245 0.166512,-0.107245 0.06491,0 0.118533,0.01129 0.158045,0.03387 v 0.702735 c -0.02822,0.08749 -0.07902,0.146756 -0.186268,0.146756 z"
       id="path10969"
       style="fill:#fffff0;fill-opacity:1" />
    <path
       d="m 17.655517,49.07829 c -0.16369,0 -0.372535,0.01975 -0.502357,0.04233 v 1.947339 c 0.118533,0.03387 0.276578,0.04233 0.423334,0.04233 h 0.1016 c 0.386646,0 0.651936,-0.191912 0.651936,-0.584202 0,-0.268112 -0.121356,-0.426157 -0.333024,-0.479779 v -0.01693 c 0.180623,-0.05927 0.285046,-0.225778 0.285046,-0.465668 0,-0.372534 -0.256823,-0.485423 -0.626535,-0.485423 z m -0.146756,1.707449 v -0.561624 h 0.143933 c 0.203201,0 0.304801,0.07338 0.304801,0.279401 0,0.180623 -0.1016,0.299156 -0.270934,0.299156 -0.0508,0 -0.146756,-0.0028 -0.1778,-0.01693 z m 0.41769,-1.140181 c 0,0.152401 -0.09031,0.245534 -0.197556,0.285045 -0.03387,0.0085 -0.101601,0.01411 -0.13829,0.01411 h -0.08184 v -0.547512 c 0.03104,-0.0056 0.08467,-0.01129 0.163689,-0.01129 0.169334,0 0.254001,0.08749 0.254001,0.259645 z"
       id="path10971"
       style="fill:#fffff0;fill-opacity:1" />
  </g>
  <g
     aria-label="Freq C"
     id="text16196"
     style="font-size:2.82223px;line-height:1.25;font-family:'PTQ Sans Narrow';-inkscape-font-specification:'PTQ Sans Narrow, Normal';font-variant-ligatures:none;display:inline;fill:#fffff0;fill-opacity:1;stroke-width:0.264583"
     transform="translate(-11.407012,0.237041)">
    <path
       d="m 13.420665,86.052469 v 1.975561 h 0.355601 v -0.807157 h 0.58138 v -0.327379 h -0.58138 v -0.513646 h 0.63218 v -0.327379 z"
       id="path16636"
       style="fill:#fffff0;fill-opacity:1" />
    <path
       d="m 14.905155,86.786249 h -0.01129 l -0.03951,-0.169334 h -0.256823 v 1.411115 h 0.335845 v -0.942624 c 0.02258,-0.09031 0.09313,-0.160868 0.206023,-0.160868 0.03669,0 0.07902,0.0085 0.124178,0.0254 l 0.03951,-0.333023 c -0.04515,-0.01693 -0.08749,-0.02822 -0.132645,-0.02822 -0.138289,0 -0.225778,0.09313 -0.265289,0.197556 z"
       id="path16638"
       style="fill:#fffff0;fill-opacity:1" />
    <path
       d="m 15.994534,87.776852 c -0.21449,0 -0.285046,-0.143934 -0.29069,-0.361246 h 0.685802 c 0.01411,-0.09313 0.02822,-0.183444 0.02822,-0.285045 0,-0.335845 -0.149578,-0.553157 -0.474135,-0.553157 -0.180622,0 -0.318912,0.06209 -0.420512,0.183445 -0.1016,0.121356 -0.149578,0.307623 -0.149578,0.561624 0,0.426157 0.135467,0.742246 0.558802,0.742246 0.172156,0 0.352778,-0.05927 0.445912,-0.141111 l -0.104423,-0.234245 c -0.05927,0.04798 -0.172156,0.08749 -0.2794,0.08749 z m 0.110067,-0.584202 h -0.389468 c 0.0085,-0.172156 0.05644,-0.327378 0.222956,-0.327378 0.143934,0 0.174978,0.158044 0.166512,0.327378 z"
       id="path16640"
       style="fill:#fffff0;fill-opacity:1" />
    <path
       d="m 17.199624,86.585871 c -0.434623,0 -0.618068,0.307623 -0.618068,0.764824 0,0.242712 0.03669,0.420512 0.115711,0.539046 0.0762,0.118534 0.183445,0.177801 0.324557,0.177801 0.138289,0 0.217312,-0.0508 0.273756,-0.13829 h 0.01129 v 0.663224 h 0.335845 v -1.924761 c -0.1016,-0.04233 -0.293512,-0.08184 -0.44309,-0.08184 z m -0.07902,1.182514 c -0.129823,0 -0.191912,-0.143934 -0.191912,-0.431801 0,-0.158045 0.01693,-0.273756 0.05362,-0.344312 0.03669,-0.07056 0.09313,-0.107245 0.166511,-0.107245 0.06491,0 0.118534,0.01129 0.158045,0.03387 v 0.702735 c -0.02822,0.08749 -0.07902,0.146756 -0.186267,0.146756 z"
       id="path16642"
       style="fill:#fffff0;fill-opacity:1" />
    <path
       d="m 19.186468,87.740163 c -0.0762,0 -0.141112,-0.01693 -0.194734,-0.0508 -0.174978,-0.110067 -0.231423,-0.358423 -0.231423,-0.649113 0,-0.23989 0.03387,-0.41769 0.104423,-0.530579 0.06773,-0.11289 0.169333,-0.169334 0.299156,-0.169334 0.121356,0 0.217312,0.01975 0.296334,0.05927 l 0.07056,-0.313268 c -0.104423,-0.04516 -0.248356,-0.07338 -0.409223,-0.07338 -0.222957,0 -0.389468,0.08185 -0.50518,0.21449 -0.158045,0.1778 -0.2286,0.451556 -0.2286,0.80998 0,0.191911 0.01693,0.355601 0.05644,0.485423 0.09031,0.318912 0.279401,0.544691 0.668869,0.544691 0.166511,0 0.347134,-0.03951 0.440268,-0.118534 l -0.07056,-0.299156 c -0.07902,0.0508 -0.166512,0.09031 -0.296334,0.09031 z"
       id="path16644"
       style="fill:#fffff0;fill-opacity:1" />
  </g>
</svg>
