<?xml version="1.0" encoding="UTF-8" standalone="no"?>
<svg
   sodipodi:docname="LFO4-dark.svg"
   inkscape:version="1.3 (0e150ed6c4, 2023-07-21)"
   id="svg8"
   version="1.1"
   viewBox="0 0 10.16 128.5"
   height="128.5mm"
   width="10.16mm"
   xmlns:inkscape="http://www.inkscape.org/namespaces/inkscape"
   xmlns:sodipodi="http://sodipodi.sourceforge.net/DTD/sodipodi-0.dtd"
   xmlns="http://www.w3.org/2000/svg"
   xmlns:svg="http://www.w3.org/2000/svg"
   xmlns:rdf="http://www.w3.org/1999/02/22-rdf-syntax-ns#"
   xmlns:cc="http://creativecommons.org/ns#"
   xmlns:dc="http://purl.org/dc/elements/1.1/">
  <defs
     id="defs2" />
  <sodipodi:namedview
     inkscape:snap-global="true"
     inkscape:snap-bbox-midpoints="true"
     inkscape:snap-bbox="true"
     inkscape:document-rotation="0"
     inkscape:window-maximized="0"
     inkscape:window-y="23"
     inkscape:window-x="26"
     inkscape:window-height="1216"
     inkscape:window-width="1499"
     inkscape:lockguides="false"
     inkscape:guide-bbox="true"
     showguides="true"
     units="mm"
     showgrid="false"
     inkscape:current-layer="layer1"
     inkscape:document-units="mm"
     inkscape:cy="453.78578"
     inkscape:cx="29.168155"
     inkscape:zoom="5.6568542"
     inkscape:pageshadow="2"
     inkscape:pageopacity="0.0"
     borderopacity="1.0"
     bordercolor="#666666"
     pagecolor="#ffffff"
     id="base"
     inkscape:bbox-nodes="false"
     inkscape:bbox-paths="false"
     inkscape:snap-grids="false"
     inkscape:snap-others="false"
     inkscape:object-nodes="false"
     inkscape:snap-nodes="false"
     inkscape:snap-bbox-edge-midpoints="false"
     inkscape:pagecheckerboard="0"
     inkscape:showpageshadow="2"
     inkscape:deskcolor="#d1d1d1">
    <sodipodi:guide
       position="5.0800001,110.25"
       orientation="0,1"
       id="guide837"
       inkscape:label=""
       inkscape:locked="false"
       inkscape:color="rgb(0,0,255)" />
    <sodipodi:guide
       inkscape:color="rgb(0,0,255)"
       inkscape:locked="false"
       inkscape:label=""
       id="guide875"
       orientation="0,1"
       position="5.0800001,35.200021" />
    <sodipodi:guide
       position="5.0800001,79.200008"
       orientation="0,1"
       id="guide891"
       inkscape:label=""
       inkscape:locked="false"
       inkscape:color="rgb(0,0,255)" />
    <sodipodi:guide
       position="5.0800001,43.700022"
       orientation="0,1"
       id="guide893"
       inkscape:label=""
       inkscape:locked="false"
       inkscape:color="rgb(0,0,255)" />
    <sodipodi:guide
       position="5.0800001,87.700008"
       orientation="0,1"
       id="guide947"
       inkscape:label=""
       inkscape:locked="false"
       inkscape:color="rgb(0,0,255)" />
    <sodipodi:guide
       inkscape:color="rgb(0,0,255)"
       inkscape:locked="false"
       inkscape:label=""
       id="guide907"
       orientation="0,1"
       position="5.0800001,13.200028" />
    <sodipodi:guide
       position="5.0800001,65.700015"
       orientation="0,1"
       id="guide908"
       inkscape:label=""
       inkscape:locked="false"
       inkscape:color="rgb(0,0,255)" />
    <sodipodi:guide
       inkscape:color="rgb(0,0,255)"
       inkscape:locked="false"
       inkscape:label=""
       id="guide944"
       orientation="-1,0"
       position="5.0800002,74.250002" />
    <sodipodi:guide
       position="5.0800001,101.5"
       orientation="0,1"
       id="guide18956"
       inkscape:label=""
       inkscape:locked="false"
       inkscape:color="rgb(0,0,255)" />
    <sodipodi:guide
       position="5.0800001,57.200015"
       orientation="0,-1"
       id="guide1014"
       inkscape:locked="false" />
    <sodipodi:guide
       position="5.0800001,21.700028"
       orientation="0,-1"
       id="guide1016"
       inkscape:locked="false" />
    <sodipodi:guide
       position="8.2000003,90.284004"
       orientation="-1,0"
       id="guide1286"
       inkscape:label=""
       inkscape:locked="false"
       inkscape:color="rgb(0,0,255)" />
    <sodipodi:guide
       position="8.4,90.500004"
       orientation="0,1"
       id="guide1587"
       inkscape:label=""
       inkscape:locked="false"
       inkscape:color="rgb(0,0,255)" />
    <sodipodi:guide
       position="10.302214,68.500003"
       orientation="0,1"
       id="guide1844"
       inkscape:label=""
       inkscape:locked="false"
       inkscape:color="rgb(0,0,255)" />
    <sodipodi:guide
       position="10.897527,46.500002"
       orientation="0,1"
       id="guide1850"
       inkscape:label=""
       inkscape:locked="false"
       inkscape:color="rgb(0,0,255)" />
    <sodipodi:guide
       position="10.798308,24.500001"
       orientation="0,1"
       id="guide1854"
       inkscape:label=""
       inkscape:locked="false"
       inkscape:color="rgb(0,0,255)" />
  </sodipodi:namedview>
  <metadata
     id="metadata5">
    <rdf:RDF>
      <cc:Work
         rdf:about="">
        <dc:format>image/svg+xml</dc:format>
        <dc:type
           rdf:resource="http://purl.org/dc/dcmitype/StillImage" />
      </cc:Work>
    </rdf:RDF>
  </metadata>
  <g
     transform="translate(0,-168.5)"
     id="layer1"
     inkscape:groupmode="layer"
     inkscape:label="Layer 1"
     style="display:inline">
    <rect
       style="display:inline;opacity:1;fill:#242422;fill-opacity:1;stroke:none;stroke-width:1.131;stroke-miterlimit:4;stroke-dasharray:none"
       id="rect838"
       width="10.16"
       height="128.5"
       x="-5.5511151e-17"
       y="168.5" />
    <text
       xml:space="preserve"
       style="font-weight:bold;font-stretch:condensed;font-size:2.82223px;line-height:1.25;font-family:'PT Sans Narrow';-inkscape-font-specification:'PT Sans Narrow, Bold Condensed';opacity:1;stroke-width:0.264583"
       x="2.0529213"
       y="233.73691"
       id="text64"><tspan
         sodipodi:role="line"
         id="tspan62"
         x="2.0529213"
         y="233.73691"
         style="stroke-width:0.264583" /></text>
    <g
       aria-label="GRANDE"
       id="text2569"
       style="font-size:1.76389px;line-height:1.25;font-family:'Source Sans Pro';-inkscape-font-specification:'Source Sans Pro, Normal';text-align:center;letter-spacing:0.370417px;text-anchor:middle;opacity:1;stroke-width:0.264583;fill:#fffff0;fill-opacity:1"
       transform="translate(0,-0.83024)">
      <path
         d="m 1.6963961,292.52968 c 0.1552223,0 0.2822224,-0.0564 0.3580696,-0.13405 v -0.48684 H 1.6734655 v 0.12171 h 0.2451807 v 0.30163 c -0.045861,0.0423 -0.1252362,0.067 -0.208139,0.067 -0.2469446,0 -0.3827641,-0.18168 -0.3827641,-0.47272 0,-0.28751 0.1481667,-0.46567 0.3810002,-0.46567 0.1164167,0 0.1905001,0.0441 0.2487085,0.10407 l 0.081139,-0.0917 c -0.067028,-0.0723 -0.1728612,-0.14287 -0.3333752,-0.14287 -0.3069168,0 -0.5309309,0.22754 -0.5309309,0.59972 0,0.37747 0.2169585,0.59972 0.5221114,0.59972 z"
         style="stroke-width:0.264583;fill:#fffff0;fill-opacity:1"
         id="path2571" />
      <path
         d="m 2.7000468,292.50851 h 0.1481668 v -0.48859 h 0.208139 l 0.2786946,0.48859 h 0.1675696 l -0.2945696,-0.50447 c 0.1569862,-0.0406 0.2592918,-0.1464 0.2592918,-0.32632 0,-0.24165 -0.1693334,-0.32632 -0.4056947,-0.32632 H 2.7000468 Z m 0.1481668,-0.60854 v -0.42862 h 0.192264 c 0.1799168,0 0.2786946,0.0547 0.2786946,0.20637 0,0.14817 -0.098778,0.22225 -0.2786946,0.22225 z"
         style="stroke-width:0.264583;fill:#fffff0;fill-opacity:1"
         id="path2573" />
      <path
         d="m 4.2699053,291.86293 c 0.04057,-0.12876 0.077611,-0.25576 0.112889,-0.38982 h 0.00706 c 0.037042,0.13406 0.074083,0.26106 0.1164168,0.38982 l 0.054681,0.17463 H 4.2152247 Z m -0.3545419,0.64558 h 0.1499307 l 0.111125,-0.35101 H 4.5979889 L 4.70735,292.50851 H 4.8643363 L 4.4745166,291.3514 H 4.3051831 Z"
         style="stroke-width:0.264583;fill:#fffff0;fill-opacity:1"
         id="path2575" />
      <path
         d="M 5.3987927,292.50851 H 5.53814 v -0.60854 c 0,-0.11994 -0.010583,-0.24518 -0.019403,-0.3616 h 0.00706 c 0.038806,0.0847 0.081139,0.1711 0.1252362,0.24871 l 0.4127502,0.72143 H 6.2225293 V 291.3514 H 6.083182 v 0.60325 c 0,0.11995 0.010583,0.24695 0.019403,0.36689 h -0.00706 c -0.040569,-0.0847 -0.081139,-0.1711 -0.1252361,-0.24871 L 5.5575428,291.3514 H 5.3987927 Z"
         style="stroke-width:0.264583;fill:#fffff0;fill-opacity:1"
         id="path2577" />
      <path
         d="m 6.9086818,292.50851 h 0.2963335 c 0.3492503,0 0.5397504,-0.21519 0.5397504,-0.58384 0,-0.36689 -0.1905001,-0.57327 -0.5468059,-0.57327 h -0.289278 z m 0.1481668,-0.1217 v -0.9137 h 0.1305278 c 0.2698752,0 0.4039309,0.16051 0.4039309,0.45156 0,0.2928 -0.1340557,0.46214 -0.4039309,0.46214 z"
         style="stroke-width:0.264583;fill:#fffff0;fill-opacity:1"
         id="path2579" />
      <path
         d="m 8.3656535,292.50851 h 0.6843893 v -0.12523 H 8.5138202 v -0.41981 h 0.4374447 v -0.12523 H 8.5138202 v -0.3616 H 9.0324039 V 291.3514 H 8.3656535 Z"
         style="stroke-width:0.264583;fill:#fffff0;fill-opacity:1"
         id="path2581" />
    </g>
    <text
       xml:space="preserve"
       style="font-weight:bold;font-stretch:condensed;font-size:2.82223px;line-height:1.25;font-family:'PT Sans Narrow';-inkscape-font-specification:'PT Sans Narrow, Bold Condensed';text-align:center;text-anchor:middle;opacity:1;stroke-width:0.264583"
       x="7.705914"
       y="247.28606"
       id="text925"><tspan
         sodipodi:role="line"
         id="tspan923"
         x="7.705914"
         y="247.28606"
         style="stroke-width:0.264583" /></text>
    <rect
       style="fill:#555d50;fill-opacity:1;stroke:none;stroke-width:0.264997"
       id="rect908"
       width="9"
       height="9.5"
       x="0.57999998"
       y="212.99998"
       rx="0.99999994"
       ry="0.99999988" />
    <rect
       style="fill:#555d50;fill-opacity:1;stroke:none;stroke-width:0.264997"
       id="rect984"
       width="9"
       height="9.5"
       x="0.57999998"
       y="234.99998"
       rx="0.99999994"
       ry="0.99999988" />
    <rect
       style="fill:#555d50;fill-opacity:1;stroke:none;stroke-width:0.264997"
       id="rect1006"
       width="9"
       height="9.5"
       x="0.57999998"
       y="257"
       rx="0.99999994"
       ry="0.99999988" />
    <rect
       style="fill:#555d50;fill-opacity:1;stroke:none;stroke-width:0.264997"
       id="rect1028"
       width="9"
       height="9.5"
       x="0.57999998"
       y="279"
       rx="0.99999994"
       ry="0.99999988" />
    <g
       aria-label="LFO4"
       id="text25462"
       style="font-size:4.9389px;line-height:1.25;font-family:'PTQ Sans Narrow';-inkscape-font-specification:'PTQ Sans Narrow, Normal';font-variant-ligatures:none;display:inline;stroke-width:0.264583;fill:#fffff0;fill-opacity:1"
       transform="translate(-15.126257,168.44492)">
      <path
         d="M 17.559011,9.0814505 V 8.5085381 H 16.344042 V 5.6242205 H 15.72174 v 3.45723 z"
         id="path26828"
         style="fill:#fffff0;fill-opacity:1" />
      <path
         d="m 17.815833,5.6242205 v 3.45723 h 0.622301 V 7.6689251 h 1.017414 V 7.0960127 H 18.438134 V 6.1971329 h 1.106314 V 5.6242205 Z"
         id="path26830"
         style="fill:#fffff0;fill-opacity:1" />
      <path
         d="m 22.250959,7.3528355 c 0,-0.9630855 -0.27164,-1.7977596 -1.224847,-1.7977596 -0.933452,0 -1.219909,0.7852851 -1.219909,1.7977596 0,0.9729633 0.256823,1.7977596 1.219909,1.7977596 0.923574,0 1.224847,-0.7852851 1.224847,-1.7977596 z m -1.792821,0 c 0,-0.8149185 0.187678,-1.2248472 0.567974,-1.2248472 0.108656,0 0.197556,0.034572 0.271639,0.098778 0.237067,0.2123727 0.301273,0.6667515 0.301273,1.1260692 0,0.4296843 -0.04939,0.740835 -0.143228,0.9334521 -0.09878,0.197556 -0.242006,0.2913951 -0.429684,0.2913951 -0.108656,0 -0.197556,-0.029633 -0.266701,-0.093839 C 20.512466,8.2714709 20.458138,7.8269699 20.458138,7.3528355 Z"
         id="path26832"
         style="fill:#fffff0;fill-opacity:1" />
      <path
         d="M 24.690773,8.118365 V 7.6145972 H 24.256149 V 5.599526 H 23.742504 L 22.478145,7.7528864 V 8.118365 h 1.219909 v 0.9630855 h 0.558095 V 8.118365 Z M 23.698054,6.8490677 v 0.7655295 h -0.44944 L 22.99673,7.6541082 23.194286,7.46643 23.584459,6.8046174 23.732626,6.4045665 h 0.01976 z"
         id="path26834"
         style="fill:#fffff0;fill-opacity:1" />
    </g>
    <g
       aria-label="Freq"
       id="text904"
       style="font-size:2.82223px;line-height:1.25;font-family:'PTQ Sans Narrow';-inkscape-font-specification:'PTQ Sans Narrow, Normal';font-variant-ligatures:none;stroke-width:0.264583;fill:#fffff0;fill-opacity:1"
       transform="translate(-14.697288,-0.28419)">
      <path
         d="m 17.666263,180.58419 v 1.97556 h 0.355601 v -0.80715 h 0.58138 v -0.32738 h -0.58138 v -0.51365 h 0.63218 v -0.32738 z"
         id="path19866"
         style="fill:#fffff0;fill-opacity:1" />
      <path
         d="m 19.150753,181.31797 h -0.01129 l -0.03951,-0.16933 H 18.84313 v 1.41111 h 0.335845 v -0.94262 c 0.02258,-0.0903 0.09313,-0.16087 0.206023,-0.16087 0.03669,0 0.07902,0.008 0.124178,0.0254 l 0.03951,-0.33302 c -0.04516,-0.0169 -0.08749,-0.0282 -0.132645,-0.0282 -0.138289,0 -0.225778,0.0931 -0.265289,0.19755 z"
         id="path19868"
         style="fill:#fffff0;fill-opacity:1" />
      <path
         d="m 20.240131,182.30857 c -0.214489,0 -0.285045,-0.14393 -0.290689,-0.36124 h 0.685802 c 0.01411,-0.0931 0.02822,-0.18345 0.02822,-0.28505 0,-0.33584 -0.149578,-0.55315 -0.474135,-0.55315 -0.180622,0 -0.318912,0.0621 -0.420512,0.18344 -0.1016,0.12136 -0.149578,0.30763 -0.149578,0.56163 0,0.42615 0.135467,0.74224 0.558801,0.74224 0.172156,0 0.352779,-0.0593 0.445913,-0.14111 l -0.104423,-0.23424 c -0.05927,0.048 -0.172156,0.0875 -0.279401,0.0875 z m 0.110067,-0.5842 h -0.389467 c 0.0085,-0.17215 0.05644,-0.32738 0.222956,-0.32738 0.143934,0 0.174978,0.15805 0.166511,0.32738 z"
         id="path19870"
         style="fill:#fffff0;fill-opacity:1" />
      <path
         d="m 21.445222,181.11759 c -0.434623,0 -0.618068,0.30763 -0.618068,0.76483 0,0.24271 0.03669,0.42051 0.115711,0.53904 0.0762,0.11854 0.183445,0.1778 0.324557,0.1778 0.138289,0 0.217311,-0.0508 0.273756,-0.13828 h 0.01129 v 0.66322 h 0.335845 v -1.92476 c -0.1016,-0.0423 -0.293512,-0.0819 -0.44309,-0.0819 z m -0.07902,1.18252 c -0.129823,0 -0.191912,-0.14394 -0.191912,-0.4318 0,-0.15805 0.01693,-0.27376 0.05362,-0.34432 0.03669,-0.0705 0.09313,-0.10724 0.166512,-0.10724 0.06491,0 0.118534,0.0113 0.158045,0.0339 v 0.70273 c -0.02822,0.0875 -0.07902,0.14676 -0.186267,0.14676 z"
         id="path19872"
         style="fill:#fffff0;fill-opacity:1" />
    </g>
    <g
       aria-label="A ratio"
       id="text8250"
       style="font-size:2.82223px;line-height:1.25;font-family:'PTQ Sans Narrow';-inkscape-font-specification:'PTQ Sans Narrow, Normal';font-variant-ligatures:none;stroke-width:0.264583;fill:#fffff0;fill-opacity:1"
       transform="translate(-15.915982,16.80802)">
      <path
         d="m 18.664829,188.14985 0.121356,0.44591 h 0.372534 l -0.575735,-1.98967 h -0.2794 l -0.572913,1.98967 h 0.352779 l 0.115711,-0.44591 z m -0.389468,-0.29351 0.110067,-0.4572 0.04798,-0.31327 h 0.01129 l 0.04516,0.31045 0.112889,0.46002 z"
         id="path19875"
         style="fill:#fffff0;fill-opacity:1" />
      <path
         d="m 20.056185,187.35398 h -0.01129 l -0.03951,-0.16933 h -0.256823 v 1.41111 h 0.335845 v -0.94262 c 0.02258,-0.0903 0.09313,-0.16087 0.206023,-0.16087 0.03669,0 0.07902,0.008 0.124178,0.0254 l 0.03951,-0.33302 c -0.04516,-0.0169 -0.08749,-0.0282 -0.132645,-0.0282 -0.13829,0 -0.225779,0.0931 -0.26529,0.19755 z"
         id="path19877"
         style="fill:#fffff0;fill-opacity:1" />
      <path
         d="m 20.998808,187.44429 c 0.172156,0 0.186267,0.12136 0.172156,0.31045 -0.381001,-0.0198 -0.668869,0.0931 -0.668869,0.45156 0,0.23706 0.127001,0.40922 0.358423,0.40922 0.166512,0 0.270935,-0.079 0.333024,-0.18909 h 0.01129 l 0.05362,0.17216 h 0.273756 c -0.08467,-0.27094 -0.0254,-0.64065 -0.0254,-0.96521 0,-0.31044 -0.115711,-0.47695 -0.428979,-0.47695 -0.2032,0 -0.381001,0.0423 -0.499535,0.11289 l 0.08467,0.25117 c 0.08185,-0.0423 0.211668,-0.0762 0.335846,-0.0762 z m -0.149578,0.70556 c 0,-0.16087 0.160867,-0.19755 0.327378,-0.1778 v 0.23425 c -0.03387,0.0649 -0.09878,0.12135 -0.194734,0.12135 -0.09596,0 -0.132644,-0.0734 -0.132644,-0.1778 z"
         id="path19879"
         style="fill:#fffff0;fill-opacity:1" />
      <path
         d="m 22.107939,188.62963 c 0.118534,0 0.234245,-0.031 0.31609,-0.0734 l -0.04233,-0.26811 c -0.0508,0.0226 -0.08749,0.0339 -0.149578,0.0339 -0.104422,0 -0.110067,-0.096 -0.110067,-0.22296 v -0.61524 h 0.273757 v -0.29916 H 22.12205 v -0.36971 l -0.335845,0.10442 v 0.26529 h -0.155223 v 0.29916 h 0.155223 v 0.73942 c 0,0.26247 0.07902,0.4064 0.321734,0.4064 z"
         id="path19881"
         style="fill:#fffff0;fill-opacity:1" />
      <path
         d="m 22.590536,187.18465 v 1.41111 h 0.335846 v -1.41111 z m 0.166512,-0.20885 c 0.124178,0 0.217312,-0.0649 0.217312,-0.18909 0,-0.12135 -0.09313,-0.19473 -0.217312,-0.19473 -0.124178,0 -0.206023,0.0762 -0.206023,0.19473 0,0.12136 0.08185,0.18909 0.206023,0.18909 z"
         id="path19883"
         style="fill:#fffff0;fill-opacity:1" />
      <path
         d="m 24.261292,187.89021 c 0,-0.44027 -0.143934,-0.74225 -0.558802,-0.74225 -0.400756,0 -0.555979,0.30762 -0.555979,0.74225 0,0.49671 0.183445,0.74224 0.555979,0.74224 0.403579,0 0.558802,-0.30198 0.558802,-0.74224 z m -0.767647,0 c 0,-0.16087 0.01693,-0.27376 0.05362,-0.34149 0.03669,-0.0677 0.08749,-0.1016 0.155222,-0.1016 0.0762,0 0.129823,0.0395 0.16369,0.11289 0.03104,0.0762 0.04798,0.18626 0.04798,0.3302 0,0.16369 -0.01976,0.27658 -0.05362,0.34431 -0.03387,0.0677 -0.08749,0.0988 -0.158045,0.0988 -0.183444,0 -0.208845,-0.22578 -0.208845,-0.44309 z"
         id="path19885"
         style="fill:#fffff0;fill-opacity:1" />
    </g>
    <g
       aria-label="B ratio"
       id="text10630"
       style="font-size:2.82223px;line-height:1.25;font-family:'PTQ Sans Narrow';-inkscape-font-specification:'PTQ Sans Narrow, Normal';font-variant-ligatures:none;stroke-width:0.264583;fill:#fffff0;fill-opacity:1"
       transform="translate(-15.946687,33.24793)">
      <path
         d="m 18.294776,192.1521 c -0.163689,0 -0.372534,0.0198 -0.502357,0.0423 v 1.94734 c 0.118534,0.0339 0.276579,0.0423 0.423334,0.0423 h 0.101601 c 0.386645,0 0.651935,-0.19192 0.651935,-0.58421 0,-0.26811 -0.121356,-0.42615 -0.333023,-0.47977 v -0.0169 c 0.180623,-0.0593 0.285045,-0.22578 0.285045,-0.46567 0,-0.37253 -0.256823,-0.48542 -0.626535,-0.48542 z m -0.146756,1.70745 v -0.56162 h 0.143934 c 0.2032,0 0.304801,0.0734 0.304801,0.2794 0,0.18062 -0.101601,0.29915 -0.270935,0.29915 -0.0508,0 -0.146755,-0.003 -0.1778,-0.0169 z m 0.41769,-1.14018 c 0,0.1524 -0.09031,0.24553 -0.197556,0.28504 -0.03387,0.008 -0.1016,0.0141 -0.138289,0.0141 h -0.08185 v -0.54752 c 0.03105,-0.006 0.08467,-0.0113 0.163689,-0.0113 0.169334,0 0.254001,0.0875 0.254001,0.25965 z"
         id="path19888"
         style="fill:#fffff0;fill-opacity:1" />
      <path
         d="m 20.055847,192.9141 h -0.01129 l -0.03951,-0.16933 h -0.256823 v 1.41111 h 0.335845 v -0.94262 c 0.02258,-0.0903 0.09313,-0.16087 0.206023,-0.16087 0.03669,0 0.07902,0.008 0.124178,0.0254 l 0.03951,-0.33302 c -0.04515,-0.0169 -0.08749,-0.0282 -0.132645,-0.0282 -0.138289,0 -0.225778,0.0931 -0.265289,0.19755 z"
         id="path19890"
         style="fill:#fffff0;fill-opacity:1" />
      <path
         d="m 20.998469,193.00441 c 0.172156,0 0.186268,0.12136 0.172156,0.31045 -0.381001,-0.0198 -0.668868,0.0931 -0.668868,0.45156 0,0.23706 0.127,0.40922 0.358423,0.40922 0.166512,0 0.270934,-0.079 0.333023,-0.18909 h 0.01129 l 0.05362,0.17216 h 0.273756 c -0.08467,-0.27094 -0.0254,-0.64065 -0.0254,-0.96521 0,-0.31044 -0.115712,-0.47695 -0.428979,-0.47695 -0.203201,0 -0.381001,0.0423 -0.499535,0.11289 l 0.08467,0.25117 c 0.08184,-0.0423 0.211667,-0.0762 0.335844,-0.0762 z m -0.149578,0.70556 c 0,-0.16087 0.160867,-0.19755 0.327379,-0.1778 v 0.23425 c -0.03387,0.0649 -0.09878,0.12135 -0.194734,0.12135 -0.09596,0 -0.132645,-0.0734 -0.132645,-0.1778 z"
         id="path19892"
         style="fill:#fffff0;fill-opacity:1" />
      <path
         d="m 22.107601,194.18975 c 0.118533,0 0.234245,-0.031 0.31609,-0.0734 l -0.04233,-0.26811 c -0.0508,0.0226 -0.08749,0.0339 -0.149578,0.0339 -0.104423,0 -0.110067,-0.096 -0.110067,-0.22296 v -0.61524 h 0.273756 v -0.29916 h -0.273756 v -0.36971 l -0.335845,0.10442 v 0.26529 h -0.155223 v 0.29916 h 0.155223 v 0.73942 c 0,0.26247 0.07902,0.4064 0.321734,0.4064 z"
         id="path19894"
         style="fill:#fffff0;fill-opacity:1" />
      <path
         d="m 22.590198,192.74477 v 1.41111 h 0.335845 v -1.41111 z m 0.166511,-0.20885 c 0.124178,0 0.217312,-0.0649 0.217312,-0.18909 0,-0.12135 -0.09313,-0.19473 -0.217312,-0.19473 -0.124178,0 -0.206023,0.0762 -0.206023,0.19473 0,0.12136 0.08185,0.18909 0.206023,0.18909 z"
         id="path19896"
         style="fill:#fffff0;fill-opacity:1" />
      <path
         d="m 24.260954,193.45033 c 0,-0.44027 -0.143934,-0.74225 -0.558802,-0.74225 -0.400756,0 -0.555979,0.30762 -0.555979,0.74225 0,0.49671 0.183445,0.74224 0.555979,0.74224 0.403579,0 0.558802,-0.30198 0.558802,-0.74224 z m -0.767647,0 c 0,-0.16087 0.01693,-0.27376 0.05362,-0.34149 0.03669,-0.0677 0.08749,-0.1016 0.155222,-0.1016 0.0762,0 0.129823,0.0395 0.16369,0.11289 0.03104,0.0762 0.04798,0.18626 0.04798,0.3302 0,0.16369 -0.01976,0.27657 -0.05362,0.34431 -0.03387,0.0677 -0.08749,0.0988 -0.158045,0.0988 -0.183445,0 -0.208845,-0.22578 -0.208845,-0.44309 z"
         id="path19898"
         style="fill:#fffff0;fill-opacity:1" />
    </g>
    <g
       aria-label="C ratio"
       id="text13604"
       style="font-size:2.82223px;line-height:1.25;font-family:'PTQ Sans Narrow';-inkscape-font-specification:'PTQ Sans Narrow, Normal';font-variant-ligatures:none;stroke-width:0.264583;fill:#fffff0;fill-opacity:1"
       transform="translate(-15.431959,50.39256)">
      <path
         d="m 18.146939,198.73462 c -0.0762,0 -0.141112,-0.0169 -0.194734,-0.0508 -0.174978,-0.11006 -0.231423,-0.35842 -0.231423,-0.64911 0,-0.23989 0.03387,-0.41769 0.104423,-0.53058 0.06773,-0.11289 0.169334,-0.16933 0.299156,-0.16933 0.121356,0 0.217312,0.0197 0.296334,0.0593 l 0.07056,-0.31326 c -0.104422,-0.0452 -0.248356,-0.0734 -0.409223,-0.0734 -0.222956,0 -0.389468,0.0818 -0.505179,0.21449 -0.158045,0.1778 -0.228601,0.45156 -0.228601,0.80998 0,0.19191 0.01693,0.3556 0.05644,0.48542 0.09031,0.31891 0.279401,0.54469 0.668869,0.54469 0.166512,0 0.347134,-0.0395 0.440268,-0.11853 l -0.07056,-0.29916 c -0.07902,0.0508 -0.166511,0.0903 -0.296334,0.0903 z"
         id="path19901"
         style="fill:#fffff0;fill-opacity:1" />
      <path
         d="m 19.470559,197.78071 h -0.01129 l -0.03951,-0.16933 h -0.256823 v 1.41111 h 0.335845 v -0.94262 c 0.02258,-0.0903 0.09313,-0.16087 0.206023,-0.16087 0.03669,0 0.07902,0.008 0.124178,0.0254 l 0.03951,-0.33302 c -0.04516,-0.0169 -0.08749,-0.0282 -0.132645,-0.0282 -0.138289,0 -0.225778,0.0931 -0.265289,0.19756 z"
         id="path19903"
         style="fill:#fffff0;fill-opacity:1" />
      <path
         d="m 20.413182,197.87102 c 0.172156,0 0.186267,0.12136 0.172156,0.31045 -0.381001,-0.0198 -0.668869,0.0931 -0.668869,0.45155 0,0.23707 0.127,0.40923 0.358423,0.40923 0.166512,0 0.270934,-0.079 0.333023,-0.18909 h 0.01129 l 0.05362,0.17215 h 0.273756 c -0.08467,-0.27093 -0.0254,-0.64064 -0.0254,-0.9652 0,-0.31044 -0.115711,-0.47696 -0.428979,-0.47696 -0.203201,0 -0.381001,0.0423 -0.499535,0.11289 l 0.08467,0.25118 c 0.08185,-0.0423 0.211667,-0.0762 0.335845,-0.0762 z m -0.149579,0.70556 c 0,-0.16087 0.160868,-0.19756 0.327379,-0.1778 v 0.23424 c -0.03387,0.0649 -0.09878,0.12136 -0.194734,0.12136 -0.09596,0 -0.132645,-0.0734 -0.132645,-0.1778 z"
         id="path19905"
         style="fill:#fffff0;fill-opacity:1" />
      <path
         d="m 21.522313,199.05636 c 0.118534,0 0.234245,-0.0311 0.31609,-0.0734 l -0.04233,-0.26811 c -0.0508,0.0226 -0.08749,0.0339 -0.149578,0.0339 -0.104422,0 -0.110067,-0.096 -0.110067,-0.22296 v -0.61525 h 0.273756 v -0.29915 h -0.273756 v -0.36972 l -0.335845,0.10443 v 0.26529 H 21.04536 v 0.29915 h 0.155223 v 0.73943 c 0,0.26246 0.07902,0.4064 0.321734,0.4064 z"
         id="path19907"
         style="fill:#fffff0;fill-opacity:1" />
      <path
         d="m 22.00491,197.61138 v 1.41111 h 0.335845 v -1.41111 z m 0.166512,-0.20885 c 0.124178,0 0.217311,-0.0649 0.217311,-0.18909 0,-0.12135 -0.09313,-0.19473 -0.217311,-0.19473 -0.124178,0 -0.206023,0.0762 -0.206023,0.19473 0,0.12136 0.08184,0.18909 0.206023,0.18909 z"
         id="path19909"
         style="fill:#fffff0;fill-opacity:1" />
      <path
         d="m 23.675666,198.31693 c 0,-0.44026 -0.143934,-0.74224 -0.558802,-0.74224 -0.400756,0 -0.555979,0.30762 -0.555979,0.74224 0,0.49672 0.183445,0.74225 0.555979,0.74225 0.403579,0 0.558802,-0.30198 0.558802,-0.74225 z m -0.767647,0 c 0,-0.16086 0.01693,-0.27375 0.05362,-0.34149 0.03669,-0.0677 0.08749,-0.1016 0.155222,-0.1016 0.0762,0 0.129823,0.0395 0.16369,0.11289 0.03104,0.0762 0.04798,0.18627 0.04798,0.3302 0,0.16369 -0.01976,0.27658 -0.05362,0.34432 -0.03387,0.0677 -0.08749,0.0988 -0.158045,0.0988 -0.183445,0 -0.208845,-0.22577 -0.208845,-0.44309 z"
         id="path19911"
         style="fill:#fffff0;fill-opacity:1" />
    </g>
    <g
       aria-label="D ratio"
       id="text15870"
       style="font-size:2.82223px;line-height:1.25;font-family:'PTQ Sans Narrow';-inkscape-font-specification:'PTQ Sans Narrow, Normal';font-variant-ligatures:none;stroke-width:0.264583;fill:#fffff0;fill-opacity:1"
       transform="translate(-15.735197,67.80189)">
      <path
         d="m 18.83259,202.59718 c 0,-0.6096 -0.2032,-0.99907 -0.815624,-0.99907 -0.16369,0 -0.34149,0.006 -0.482602,0.0282 v 1.97838 c 0.02258,0.006 0.05362,0.008 0.09596,0.0113 0.107245,0.008 0.245534,0.0169 0.358423,0.0169 0.620891,0 0.843847,-0.41769 0.843847,-1.03576 z m -0.372534,-0.006 c 0,0.35842 -0.06773,0.71402 -0.420513,0.71402 -0.04515,0 -0.115711,0.003 -0.149578,-0.0113 v -1.36032 c 0.03669,-0.008 0.112889,-0.008 0.16369,-0.008 0.344312,0 0.406401,0.31892 0.406401,0.66605 z"
         id="path19914"
         style="fill:#fffff0;fill-opacity:1" />
      <path
         d="m 19.890923,202.36012 h -0.01129 l -0.03951,-0.16934 H 19.5833 v 1.41112 h 0.335845 v -0.94263 c 0.02258,-0.0903 0.09313,-0.16086 0.206023,-0.16086 0.03669,0 0.07902,0.008 0.124178,0.0254 l 0.03951,-0.33303 c -0.04516,-0.0169 -0.08749,-0.0282 -0.132645,-0.0282 -0.138289,0 -0.225778,0.0931 -0.265289,0.19756 z"
         id="path19916"
         style="fill:#fffff0;fill-opacity:1" />
      <path
         d="m 20.833545,202.45043 c 0.172157,0 0.186268,0.12135 0.172157,0.31044 -0.381002,-0.0198 -0.668869,0.0931 -0.668869,0.45156 0,0.23707 0.127,0.40922 0.358423,0.40922 0.166512,0 0.270934,-0.079 0.333023,-0.18909 h 0.01129 l 0.05362,0.17216 h 0.273756 c -0.08467,-0.27093 -0.0254,-0.64065 -0.0254,-0.9652 0,-0.31045 -0.115712,-0.47696 -0.428979,-0.47696 -0.203201,0 -0.381001,0.0423 -0.499535,0.11289 l 0.08467,0.25118 c 0.08185,-0.0423 0.211667,-0.0762 0.335844,-0.0762 z m -0.149578,0.70556 c 0,-0.16087 0.160867,-0.19756 0.327379,-0.1778 v 0.23424 c -0.03387,0.0649 -0.09878,0.12136 -0.194734,0.12136 -0.09596,0 -0.132645,-0.0734 -0.132645,-0.1778 z"
         id="path19918"
         style="fill:#fffff0;fill-opacity:1" />
      <path
         d="m 21.942677,203.63576 c 0.118534,0 0.234245,-0.031 0.31609,-0.0734 l -0.04233,-0.26811 c -0.0508,0.0226 -0.08749,0.0339 -0.149578,0.0339 -0.104423,0 -0.110067,-0.0959 -0.110067,-0.22295 v -0.61525 h 0.273756 v -0.29916 h -0.273756 v -0.36971 l -0.335845,0.10442 v 0.26529 H 21.46572 v 0.29916 h 0.155223 v 0.73942 c 0,0.26247 0.07902,0.4064 0.321734,0.4064 z"
         id="path19920"
         style="fill:#fffff0;fill-opacity:1" />
      <path
         d="m 22.425274,202.19078 v 1.41112 h 0.335845 v -1.41112 z m 0.166512,-0.20884 c 0.124178,0 0.217311,-0.0649 0.217311,-0.18909 0,-0.12136 -0.09313,-0.19474 -0.217311,-0.19474 -0.124179,0 -0.206023,0.0762 -0.206023,0.19474 0,0.12135 0.08184,0.18909 0.206023,0.18909 z"
         id="path19922"
         style="fill:#fffff0;fill-opacity:1" />
      <path
         d="m 24.09603,202.89634 c 0,-0.44027 -0.143934,-0.74225 -0.558802,-0.74225 -0.400756,0 -0.555979,0.30763 -0.555979,0.74225 0,0.49671 0.183445,0.74225 0.555979,0.74225 0.403579,0 0.558802,-0.30198 0.558802,-0.74225 z m -0.767647,0 c 0,-0.16087 0.01693,-0.27376 0.05362,-0.34149 0.03669,-0.0677 0.08749,-0.1016 0.155222,-0.1016 0.0762,0 0.129823,0.0395 0.16369,0.11289 0.03104,0.0762 0.04798,0.18627 0.04798,0.3302 0,0.16369 -0.01976,0.27658 -0.05362,0.34431 -0.03387,0.0677 -0.08749,0.0988 -0.158045,0.0988 -0.183445,0 -0.208845,-0.22578 -0.208845,-0.44309 z"
         id="path19924"
         style="fill:#fffff0;fill-opacity:1" />
    </g>
  </g>
  <g
     style="display:none"
     inkscape:label="components"
     id="layer2"
     inkscape:groupmode="layer">
    <circle
       inkscape:label="CV_Out"
       cy="49.299995"
       cx="5.0799999"
       id="circle918"
       style="fill:#0000ff;fill-rule:evenodd;stroke-width:0.264582"
       r="4" />
    <circle
       r="4"
       style="fill:#00ff00;fill-rule:evenodd;stroke-width:0.264582"
       id="circle922"
       cx="5.0799999"
       cy="27"
       inkscape:label="CV_Out" />
    <circle
       style="fill:#000000;fill-opacity:1;fill-rule:evenodd;stroke-width:0.264582"
       id="circle9581"
       cx="5.0799999"
       cy="40.799995"
       inkscape:label="CV_Out"
       r="3" />
    <circle
       style="fill:#000000;fill-opacity:1;fill-rule:evenodd;stroke-width:0.264582"
       id="circle18954"
       cx="5.0799999"
       cy="18.25"
       inkscape:label="CV_Out"
       r="4" />
    <circle
       inkscape:label="CV_Out"
       cy="71.299988"
       cx="5.0799999"
       id="circle1002"
       style="fill:#0000ff;fill-rule:evenodd;stroke-width:0.264582"
       r="4" />
    <circle
       style="fill:#000000;fill-opacity:1;fill-rule:evenodd;stroke-width:0.264582"
       id="circle1004"
       cx="5.0799999"
       cy="62.799988"
       inkscape:label="CV_Out"
       r="3" />
    <circle
       inkscape:label="CV_Out"
       cy="93.29998"
       cx="5.0799999"
       id="circle1024"
       style="fill:#0000ff;fill-rule:evenodd;stroke-width:0.264582"
       r="4" />
    <circle
       style="fill:#000000;fill-opacity:1;fill-rule:evenodd;stroke-width:0.264582"
       id="circle1026"
       cx="5.0799999"
       cy="84.79998"
       inkscape:label="CV_Out"
       r="3" />
    <circle
       inkscape:label="CV_Out"
       cy="115.29997"
       cx="5.0799999"
       id="circle1046"
       style="fill:#0000ff;fill-rule:evenodd;stroke-width:0.264582"
       r="4" />
    <circle
       style="fill:#000000;fill-opacity:1;fill-rule:evenodd;stroke-width:0.264582"
       id="circle1048"
       cx="5.0799999"
       cy="106.79997"
       inkscape:label="CV_Out"
       r="3" />
    <circle
       style="display:inline;fill:#ff0000;fill-opacity:1;stroke-width:0.264999"
       id="path58"
       cx="8.1999998"
       cy="38"
       r="0.81599998" />
    <circle
       style="display:inline;fill:#ff0000;fill-opacity:1;stroke-width:0.264999"
       id="circle1846"
       cx="8.1999998"
       cy="60"
       r="0.81599998" />
    <circle
       style="display:inline;fill:#ff0000;fill-opacity:1;stroke-width:0.264999"
       id="circle1848"
       cx="8.1999998"
       cy="82"
       r="0.81599998" />
    <circle
       style="display:inline;fill:#ff0000;fill-opacity:1;stroke-width:0.264999"
       id="circle1852"
       cx="8.1999998"
       cy="104"
       r="0.81599998" />
  </g>
</svg>
