<?xml version="1.0" encoding="UTF-8" standalone="no"?>
<svg
   sodipodi:docname="Merge8-dark.svg"
   inkscape:version="1.3 (0e150ed6c4, 2023-07-21)"
   id="svg8"
   version="1.1"
   viewBox="0 0 10.16 128.5"
   height="128.5mm"
   width="10.16mm"
   xmlns:inkscape="http://www.inkscape.org/namespaces/inkscape"
   xmlns:sodipodi="http://sodipodi.sourceforge.net/DTD/sodipodi-0.dtd"
   xmlns="http://www.w3.org/2000/svg"
   xmlns:svg="http://www.w3.org/2000/svg"
   xmlns:rdf="http://www.w3.org/1999/02/22-rdf-syntax-ns#"
   xmlns:cc="http://creativecommons.org/ns#"
   xmlns:dc="http://purl.org/dc/elements/1.1/">
  <defs
     id="defs2" />
  <sodipodi:namedview
     inkscape:snap-global="true"
     inkscape:snap-bbox-midpoints="true"
     inkscape:snap-bbox="true"
     inkscape:document-rotation="0"
     inkscape:window-maximized="0"
     inkscape:window-y="23"
     inkscape:window-x="26"
     inkscape:window-height="1216"
     inkscape:window-width="1499"
     inkscape:lockguides="false"
     inkscape:guide-bbox="true"
     showguides="true"
     units="mm"
     showgrid="false"
     inkscape:current-layer="layer1"
     inkscape:document-units="mm"
     inkscape:cy="411.22679"
     inkscape:cx="4.7508737"
     inkscape:zoom="9.0509668"
     inkscape:pageshadow="2"
     inkscape:pageopacity="0.0"
     borderopacity="1.0"
     bordercolor="#666666"
     pagecolor="#ffffff"
     id="base"
     inkscape:bbox-nodes="false"
     inkscape:bbox-paths="false"
     inkscape:snap-grids="false"
     inkscape:snap-others="false"
     inkscape:object-nodes="false"
     inkscape:snap-nodes="false"
     inkscape:snap-bbox-edge-midpoints="false"
     inkscape:pagecheckerboard="0"
     inkscape:showpageshadow="2"
     inkscape:deskcolor="#d1d1d1">
    <sodipodi:guide
       position="5.0800001,109"
       orientation="0,1"
       id="guide837"
       inkscape:label=""
       inkscape:locked="false"
       inkscape:color="rgb(0,0,255)" />
    <sodipodi:guide
       inkscape:color="rgb(0,0,255)"
       inkscape:locked="false"
       inkscape:label=""
       id="guide875"
       orientation="0,1"
       position="5.0800001,45.500002" />
    <sodipodi:guide
       position="5.0800001,90.500004"
       orientation="0,1"
       id="guide891"
       inkscape:label=""
       inkscape:locked="false"
       inkscape:color="rgb(0,0,255)" />
    <sodipodi:guide
       position="5.0800001,56.750002"
       orientation="0,1"
       id="guide893"
       inkscape:label=""
       inkscape:locked="false"
       inkscape:color="rgb(0,0,255)" />
    <sodipodi:guide
       position="5.0800001,79.250003"
       orientation="0,1"
       id="guide901"
       inkscape:label=""
       inkscape:locked="false"
       inkscape:color="rgb(0,0,255)" />
    <sodipodi:guide
       position="5.0800001,97.750004"
       orientation="0,1"
       id="guide947"
       inkscape:label=""
       inkscape:locked="false"
       inkscape:color="rgb(0,0,255)" />
    <sodipodi:guide
       position="5.0800001,34.250001"
       orientation="0,1"
       id="guide3392"
       inkscape:label=""
       inkscape:locked="false"
       inkscape:color="rgb(0,0,255)" />
    <sodipodi:guide
       inkscape:color="rgb(0,0,255)"
       inkscape:locked="false"
       inkscape:label=""
       id="guide907"
       orientation="0,1"
       position="5.0800001,14.000252" />
    <sodipodi:guide
       inkscape:color="rgb(0,0,255)"
       inkscape:locked="false"
       inkscape:label=""
       id="guide944"
       orientation="-1,0"
       position="5.0800002,74.250002" />
    <sodipodi:guide
       position="5.0800001,68.000003"
       orientation="0,1"
       id="guide882"
       inkscape:label=""
       inkscape:locked="false"
       inkscape:color="rgb(0,0,255)" />
    <sodipodi:guide
       position="8.4000003,111"
       orientation="-1,0"
       id="guide961"
       inkscape:label=""
       inkscape:locked="false"
       inkscape:color="rgb(0,0,255)" />
    <sodipodi:guide
       position="16.598116,113"
       orientation="0,1"
       id="guide911"
       inkscape:label=""
       inkscape:locked="false"
       inkscape:color="rgb(0,0,255)" />
    <sodipodi:guide
       position="1.7600001,48.283112"
       orientation="-1,0"
       id="guide904"
       inkscape:label=""
       inkscape:locked="false"
       inkscape:color="rgb(0,0,255)" />
    <sodipodi:guide
       position="15.131899,101.75"
       orientation="0,1"
       id="guide2336"
       inkscape:label=""
       inkscape:locked="false"
       inkscape:color="rgb(0,0,255)" />
    <sodipodi:guide
       position="-12.620537,86.500003"
       orientation="0,1"
       id="guide2338"
       inkscape:label=""
       inkscape:locked="false"
       inkscape:color="rgb(0,0,255)" />
    <sodipodi:guide
       position="-12.620537,75.250003"
       orientation="0,1"
       id="guide2340"
       inkscape:label=""
       inkscape:locked="false"
       inkscape:color="rgb(0,0,255)" />
    <sodipodi:guide
       position="-12.620537,64.000003"
       orientation="0,1"
       id="guide2342"
       inkscape:label=""
       inkscape:locked="false"
       inkscape:color="rgb(0,0,255)" />
    <sodipodi:guide
       position="-12.620537,52.750002"
       orientation="0,1"
       id="guide2344"
       inkscape:label=""
       inkscape:locked="false"
       inkscape:color="rgb(0,0,255)" />
    <sodipodi:guide
       position="-12.620537,41.500002"
       orientation="0,1"
       id="guide2346"
       inkscape:label=""
       inkscape:locked="false"
       inkscape:color="rgb(0,0,255)" />
    <sodipodi:guide
       position="-12.620537,30.250001"
       orientation="0,1"
       id="guide2348"
       inkscape:label=""
       inkscape:locked="false"
       inkscape:color="rgb(0,0,255)" />
    <sodipodi:guide
       position="25.080001,82.500017"
       orientation="1,0"
       id="guide13299"
       inkscape:locked="false" />
  </sodipodi:namedview>
  <metadata
     id="metadata5">
    <rdf:RDF>
      <cc:Work
         rdf:about="">
        <dc:format>image/svg+xml</dc:format>
        <dc:type
           rdf:resource="http://purl.org/dc/dcmitype/StillImage" />
        <dc:title />
      </cc:Work>
    </rdf:RDF>
  </metadata>
  <g
     transform="translate(0,-168.5)"
     id="layer1"
     inkscape:groupmode="layer"
     inkscape:label="Layer 1"
     style="display:inline">
    <rect
       style="display:inline;opacity:1;fill:#242422;fill-opacity:1;stroke:none;stroke-width:1.131;stroke-miterlimit:4;stroke-dasharray:none"
       id="rect838"
       width="10.16"
       height="128.5"
       x="-5.5511151e-17"
       y="168.5" />
    <text
       xml:space="preserve"
       style="font-weight:bold;font-stretch:condensed;font-size:2.82223px;line-height:1.25;font-family:'PT Sans Narrow';-inkscape-font-specification:'PT Sans Narrow, Bold Condensed';stroke-width:0.264583"
       x="2.0529213"
       y="233.73691"
       id="text64"><tspan
         sodipodi:role="line"
         id="tspan62"
         x="2.0529213"
         y="233.73691"
         style="stroke-width:0.264583" /></text>
    <g
       aria-label="GRANDE"
       id="text2569"
       style="font-size:1.76389px;line-height:1.25;font-family:'Source Sans Pro';-inkscape-font-specification:'Source Sans Pro, Normal';text-align:center;letter-spacing:0.370417px;text-anchor:middle;fill:#fffff0;fill-opacity:1;stroke-width:0.264583"
       transform="translate(0,-0.83024)">
      <path
         d="m 1.6963961,292.52968 c 0.1552223,0 0.2822224,-0.0564 0.3580696,-0.13405 v -0.48684 H 1.6734655 v 0.12171 h 0.2451807 v 0.30163 c -0.045861,0.0423 -0.1252362,0.067 -0.208139,0.067 -0.2469446,0 -0.3827641,-0.18168 -0.3827641,-0.47272 0,-0.28751 0.1481667,-0.46567 0.3810002,-0.46567 0.1164167,0 0.1905001,0.0441 0.2487085,0.10407 l 0.081139,-0.0917 c -0.067028,-0.0723 -0.1728612,-0.14287 -0.3333752,-0.14287 -0.3069168,0 -0.5309309,0.22754 -0.5309309,0.59972 0,0.37747 0.2169585,0.59972 0.5221114,0.59972 z"
         style="fill:#fffff0;fill-opacity:1;stroke-width:0.264583"
         id="path2571" />
      <path
         d="m 2.7000468,292.50851 h 0.1481668 v -0.48859 h 0.208139 l 0.2786946,0.48859 h 0.1675696 l -0.2945696,-0.50447 c 0.1569862,-0.0406 0.2592918,-0.1464 0.2592918,-0.32632 0,-0.24165 -0.1693334,-0.32632 -0.4056947,-0.32632 H 2.7000468 Z m 0.1481668,-0.60854 v -0.42862 h 0.192264 c 0.1799168,0 0.2786946,0.0547 0.2786946,0.20637 0,0.14817 -0.098778,0.22225 -0.2786946,0.22225 z"
         style="fill:#fffff0;fill-opacity:1;stroke-width:0.264583"
         id="path2573" />
      <path
         d="m 4.2699053,291.86293 c 0.04057,-0.12876 0.077611,-0.25576 0.112889,-0.38982 h 0.00706 c 0.037042,0.13406 0.074083,0.26106 0.1164168,0.38982 l 0.054681,0.17463 H 4.2152247 Z m -0.3545419,0.64558 h 0.1499307 l 0.111125,-0.35101 H 4.5979889 L 4.70735,292.50851 H 4.8643363 L 4.4745166,291.3514 H 4.3051831 Z"
         style="fill:#fffff0;fill-opacity:1;stroke-width:0.264583"
         id="path2575" />
      <path
         d="M 5.3987927,292.50851 H 5.53814 v -0.60854 c 0,-0.11994 -0.010583,-0.24518 -0.019403,-0.3616 h 0.00706 c 0.038806,0.0847 0.081139,0.1711 0.1252362,0.24871 l 0.4127502,0.72143 H 6.2225293 V 291.3514 H 6.083182 v 0.60325 c 0,0.11995 0.010583,0.24695 0.019403,0.36689 h -0.00706 c -0.040569,-0.0847 -0.081139,-0.1711 -0.1252361,-0.24871 L 5.5575428,291.3514 H 5.3987927 Z"
         style="fill:#fffff0;fill-opacity:1;stroke-width:0.264583"
         id="path2577" />
      <path
         d="m 6.9086818,292.50851 h 0.2963335 c 0.3492503,0 0.5397504,-0.21519 0.5397504,-0.58384 0,-0.36689 -0.1905001,-0.57327 -0.5468059,-0.57327 h -0.289278 z m 0.1481668,-0.1217 v -0.9137 h 0.1305278 c 0.2698752,0 0.4039309,0.16051 0.4039309,0.45156 0,0.2928 -0.1340557,0.46214 -0.4039309,0.46214 z"
         style="fill:#fffff0;fill-opacity:1;stroke-width:0.264583"
         id="path2579" />
      <path
         d="m 8.3656535,292.50851 h 0.6843893 v -0.12523 H 8.5138202 v -0.41981 h 0.4374447 v -0.12523 H 8.5138202 v -0.3616 H 9.0324039 V 291.3514 H 8.3656535 Z"
         style="fill:#fffff0;fill-opacity:1;stroke-width:0.264583"
         id="path2581" />
    </g>
    <text
       xml:space="preserve"
       style="font-weight:bold;font-stretch:condensed;font-size:2.82223px;line-height:1.25;font-family:'PT Sans Narrow';-inkscape-font-specification:'PT Sans Narrow, Bold Condensed';text-align:center;text-anchor:middle;stroke-width:0.264583"
       x="7.705914"
       y="247.28606"
       id="text925"><tspan
         sodipodi:role="line"
         id="tspan923"
         x="7.705914"
         y="247.28606"
         style="stroke-width:0.264583" /></text>
    <rect
       style="display:inline;fill:#555d50;fill-opacity:1;stroke-width:0.264584"
       id="rect1277"
       width="9"
       height="14"
       x="0.57999998"
       y="274.5"
       rx="0.99999994"
       ry="1" />
    <path
       d="m 7.9696095,184.70556 v 0.29915 h 0.959559 v -0.29915 h -0.31609 v -1.71027 h -0.197556 l -0.544691,0.53057 0.155223,0.18909 0.186267,-0.14393 0.115712,-0.16651 -0.03669,0.19191 v 1.10914 z"
       id="path73074"
       style="font-size:2.82223px;line-height:1.25;font-family:'PTQ Sans Narrow';-inkscape-font-specification:'PTQ Sans Narrow, Normal';font-variant-ligatures:none;fill:#fffff0;fill-opacity:1;stroke-width:0.264583" />
    <path
       d="m 7.9004655,194.41464 0.129823,0.24553 c 0.05644,-0.0508 0.163689,-0.11007 0.268112,-0.11007 0.158045,0 0.234245,0.10725 0.2286,0.26529 0.0028,0.0649 -0.0056,0.13265 -0.0254,0.20603 -0.04516,0.16369 -0.115711,0.31609 -0.191911,0.45438 -0.118534,0.20602 -0.259646,0.41204 -0.400757,0.58702 v 0.19473 h 0.990603 v -0.29915 h -0.437446 l -0.169334,0.0423 v -0.0141 l 0.124178,-0.11571 c 0.107245,-0.14394 0.217312,-0.3302 0.299157,-0.51365 0.0762,-0.16651 0.1524,-0.37535 0.1524,-0.60113 0,-0.0847 -0.01411,-0.15805 -0.03669,-0.22296 -0.06773,-0.17216 -0.208845,-0.29069 -0.440268,-0.29069 -0.222956,0 -0.372534,0.0706 -0.491068,0.17216 z"
       id="path73076"
       style="font-size:2.82223px;line-height:1.25;font-family:'PTQ Sans Narrow';-inkscape-font-specification:'PTQ Sans Narrow, Normal';font-variant-ligatures:none;fill:#fffff0;fill-opacity:1;stroke-width:0.264583" />
    <path
       d="m 7.9907755,207.13781 -0.09031,0.28223 c 0.08467,0.0536 0.262467,0.0875 0.403579,0.0875 0.08184,0 0.158045,-0.0113 0.231423,-0.0395 0.2286,-0.0818 0.364067,-0.29633 0.364067,-0.61242 0,-0.0903 -0.01129,-0.17216 -0.03387,-0.23989 -0.05362,-0.16651 -0.169334,-0.29916 -0.36689,-0.31609 l -0.104423,0.0169 v -0.0141 l 0.104423,-0.0762 0.327379,-0.5334 v -0.20038 h -0.903114 v 0.29916 h 0.386645 l 0.186268,-0.0254 -0.135467,0.127 -0.279401,0.47413 v 0.19192 h 0.166511 c 0.208845,0 0.31609,0.10724 0.31609,0.31891 0,0.18909 -0.09596,0.3302 -0.282223,0.3302 -0.121356,0 -0.211667,-0.0282 -0.29069,-0.0706 z"
       id="path73078"
       style="font-size:2.82223px;line-height:1.25;font-family:'PTQ Sans Narrow';-inkscape-font-specification:'PTQ Sans Narrow, Normal';font-variant-ligatures:none;fill:#fffff0;fill-opacity:1;stroke-width:0.264583" />
    <path
       d="m 9.0321795,218.19451 v -0.28787 h -0.248356 v -1.15147 h -0.293512 l -0.722491,1.23049 v 0.20885 h 0.697091 v 0.55033 h 0.318912 v -0.55033 z m -0.567268,-0.72531 v 0.43744 h -0.256823 l -0.143933,0.0226 0.112889,-0.10725 0.222956,-0.37817 0.08467,-0.22861 h 0.01129 z"
       id="path73080"
       style="font-size:2.82223px;line-height:1.25;font-family:'PTQ Sans Narrow';-inkscape-font-specification:'PTQ Sans Narrow, Normal';font-variant-ligatures:none;fill:#fffff0;fill-opacity:1;stroke-width:0.264583" />
    <path
       d="m 8.401408,228.71212 -0.09313,0.0113 v -0.40358 H 8.84168 v -0.32738 H 8.020411 v 1.03012 l 0.183445,-0.0113 c 0.234245,0 0.361245,0.1016 0.361245,0.33584 0,0.20603 -0.107244,0.35278 -0.310445,0.35278 -0.110067,0 -0.200378,-0.0169 -0.268112,-0.0536 l -0.08749,0.28504 c 0.08467,0.0452 0.23989,0.0762 0.372534,0.0762 0.09031,0 0.172156,-0.0141 0.251179,-0.0423 0.234245,-0.0847 0.378179,-0.3048 0.378179,-0.63218 0,-0.3556 -0.172156,-0.60678 -0.499535,-0.62089 z"
       id="path73082"
       style="font-size:2.82223px;line-height:1.25;font-family:'PTQ Sans Narrow';-inkscape-font-specification:'PTQ Sans Narrow, Normal';font-variant-ligatures:none;fill:#fffff0;fill-opacity:1;stroke-width:0.264583" />
    <path
       d="m 8.1841045,240.17098 c 0.06491,-0.32738 0.268112,-0.59267 0.584202,-0.67451 l -0.08467,-0.27376 c -0.112889,0.0254 -0.217312,0.0706 -0.318912,0.13829 -0.324557,0.21731 -0.522113,0.62089 -0.522113,1.1684 0,0.12983 0.01411,0.24272 0.04233,0.33867 0.07056,0.23707 0.2286,0.40922 0.527757,0.40922 0.07902,0 0.149578,-0.0141 0.217311,-0.0452 0.203201,-0.0903 0.327379,-0.30762 0.327379,-0.60678 0,-0.1016 -0.01411,-0.18909 -0.03669,-0.26529 -0.05927,-0.19191 -0.191912,-0.34149 -0.434623,-0.34149 -0.149579,0 -0.242712,0.0677 -0.301979,0.1524 z m 0.220134,0.80716 c -0.04233,0 -0.07902,-0.008 -0.107245,-0.031 -0.08749,-0.0621 -0.129822,-0.18909 -0.129822,-0.34149 v -0.0621 c 0,-0.0226 0,-0.0423 0.0028,-0.0649 0.03104,-0.0818 0.112889,-0.16086 0.2286,-0.16086 0.180623,0 0.234246,0.12982 0.234246,0.32738 0,0.18062 -0.07056,0.33302 -0.228601,0.33302 z"
       id="path73084"
       style="font-size:2.82223px;line-height:1.25;font-family:'PTQ Sans Narrow';-inkscape-font-specification:'PTQ Sans Narrow, Normal';font-variant-ligatures:none;fill:#fffff0;fill-opacity:1;stroke-width:0.264583" />
    <path
       d="m 7.9667875,252.48778 h 0.327379 l 0.640646,-1.86831 v -0.10725 h -1.069625 v 0.32174 h 0.59549 l 0.141112,-0.0282 -0.101601,0.13829 z"
       id="path73086"
       style="font-size:2.82223px;line-height:1.25;font-family:'PTQ Sans Narrow';-inkscape-font-specification:'PTQ Sans Narrow, Normal';font-variant-ligatures:none;fill:#fffff0;fill-opacity:1;stroke-width:0.264583" />
    <path
       d="m 8.651178,262.69638 c 0.138289,-0.11853 0.23989,-0.25118 0.23989,-0.49671 0,-0.29634 -0.18909,-0.47696 -0.47978,-0.47696 -0.316089,0 -0.502357,0.20885 -0.502357,0.52211 0,0.23989 0.09878,0.37818 0.237068,0.48543 -0.155223,0.11571 -0.279401,0.26811 -0.279401,0.5334 0,0.0818 0.01129,0.15522 0.03669,0.21731 0.07056,0.18062 0.23989,0.29633 0.491068,0.29633 0.0762,0 0.146756,-0.0113 0.21449,-0.0367 0.191911,-0.0706 0.324556,-0.24272 0.324556,-0.50801 0,-0.27375 -0.110067,-0.41486 -0.282223,-0.53622 z m -0.251179,0.78176 c -0.149578,0 -0.225778,-0.127 -0.225778,-0.2794 0,-0.15805 0.06773,-0.26247 0.174978,-0.34431 0.115712,0.0903 0.259646,0.17497 0.259646,0.37817 0,0.1524 -0.06773,0.24554 -0.208846,0.24554 z m 0.0085,-1.45627 c 0.115712,0 0.177801,0.11571 0.177801,0.24271 0,0.14958 -0.05645,0.23424 -0.129823,0.32173 -0.112889,-0.0677 -0.225778,-0.1524 -0.225778,-0.33584 0,-0.11854 0.05362,-0.2286 0.1778,-0.2286 z"
       id="path73088"
       style="font-size:2.82223px;line-height:1.25;font-family:'PTQ Sans Narrow';-inkscape-font-specification:'PTQ Sans Narrow, Normal';font-variant-ligatures:none;fill:#fffff0;fill-opacity:1;stroke-width:0.264583" />
    <g
       aria-label="Poly Out"
       id="text2970"
       style="font-size:2.82223px;line-height:1.25;font-family:'PTQ Sans Narrow';-inkscape-font-specification:'PTQ Sans Narrow, Normal';font-variant-ligatures:none;fill:#fffff0;fill-opacity:1;stroke-width:0.264583"
       transform="translate(-11.139839,1.06814)">
      <path
         d="m 12.541072,274.94315 c -0.16369,0 -0.335846,0.0197 -0.465668,0.048 v 1.95581 h 0.355601 v -0.68016 c 0.03669,0.0113 0.09878,0.0113 0.146756,0.0113 h 0.03669 c 0.412045,0 0.629357,-0.25964 0.629357,-0.68298 0,-0.46002 -0.251179,-0.65193 -0.702735,-0.65193 z m 0.330201,0.64911 c 0,0.23142 -0.09031,0.36971 -0.313268,0.36971 -0.02258,0 -0.112889,-0.008 -0.127,-0.0141 v -0.67451 c 0.03669,-0.008 0.08467,-0.0141 0.143933,-0.0141 0.200379,0 0.296335,0.127 0.296335,0.33302 z"
         id="path4860"
         style="fill:#fffff0;fill-opacity:1" />
      <path
         d="m 14.395273,276.24137 c 0,-0.44027 -0.143934,-0.74224 -0.558802,-0.74224 -0.400756,0 -0.555979,0.30762 -0.555979,0.74224 0,0.49671 0.183445,0.74225 0.555979,0.74225 0.403579,0 0.558802,-0.30198 0.558802,-0.74225 z m -0.767647,0 c 0,-0.16086 0.01693,-0.27375 0.05362,-0.34149 0.03669,-0.0677 0.08749,-0.1016 0.155222,-0.1016 0.0762,0 0.129823,0.0395 0.16369,0.11289 0.03104,0.0762 0.04798,0.18627 0.04798,0.3302 0,0.16369 -0.01976,0.27658 -0.05362,0.34431 -0.03387,0.0677 -0.08749,0.0988 -0.158045,0.0988 -0.183445,0 -0.208845,-0.22578 -0.208845,-0.44309 z"
         id="path4862"
         style="fill:#fffff0;fill-opacity:1" />
      <path
         d="m 14.875051,276.9808 c 0.09313,0 0.228601,-0.0254 0.282223,-0.0621 l -0.03104,-0.27094 c -0.03951,0.0169 -0.07056,0.0254 -0.112889,0.0254 -0.07902,0 -0.08467,-0.0847 -0.08467,-0.18344 v -1.51836 h -0.335846 v 1.69898 c 0,0.21449 0.07902,0.31045 0.282223,0.31045 z"
         id="path4864"
         style="fill:#fffff0;fill-opacity:1" />
      <path
         d="m 15.724537,276.32886 -0.197556,-0.79305 h -0.403579 l 0.491068,1.41112 c -0.02822,0.14393 -0.08184,0.31327 -0.245534,0.24836 l -0.05644,0.28786 c 0.0508,0.031 0.127,0.0423 0.208845,0.0423 0.132644,0 0.200378,-0.0903 0.254,-0.19191 0.0762,-0.14958 0.124178,-0.33303 0.180623,-0.52494 l 0.352779,-1.27283 h -0.344312 l -0.16369,0.79023 -0.0254,0.22296 h -0.01411 z"
         id="path4866"
         style="fill:#fffff0;fill-opacity:1" />
      <path
         d="m 18.219382,275.95915 c 0,-0.55034 -0.155222,-1.02729 -0.699913,-1.02729 -0.533401,0 -0.69709,0.44873 -0.69709,1.02729 0,0.55598 0.146755,1.02729 0.69709,1.02729 0.527757,0 0.699913,-0.44873 0.699913,-1.02729 z m -1.024469,0 c 0,-0.46567 0.107245,-0.69991 0.324556,-0.69991 0.06209,0 0.11289,0.0198 0.155223,0.0564 0.135467,0.12136 0.172156,0.381 0.172156,0.64347 0,0.24553 -0.02822,0.42333 -0.08185,0.5334 -0.05644,0.11289 -0.138289,0.16651 -0.245534,0.16651 -0.06209,0 -0.112889,-0.0169 -0.1524,-0.0536 -0.141112,-0.12136 -0.172156,-0.37536 -0.172156,-0.64629 z"
         id="path4868"
         style="fill:#fffff0;fill-opacity:1" />
      <path
         d="m 18.781005,276.98362 c 0.186267,0 0.304801,-0.1016 0.372534,-0.2286 h 0.0085 l 0.05927,0.19191 h 0.254 c -0.03104,-0.11853 -0.03951,-0.27658 -0.03951,-0.42898 v -0.98214 h -0.335845 v 0.94263 c -0.02822,0.096 -0.09596,0.19756 -0.208845,0.19756 -0.13829,0 -0.143934,-0.127 -0.143934,-0.29634 v -0.84385 H 18.41133 v 0.91723 c 0,0.31327 0.06491,0.53058 0.369712,0.53058 z"
         id="path4870"
         style="fill:#fffff0;fill-opacity:1" />
      <path
         d="m 20.048184,276.9808 c 0.118533,0 0.234245,-0.031 0.31609,-0.0734 l -0.04233,-0.26811 c -0.0508,0.0226 -0.08749,0.0339 -0.149578,0.0339 -0.104423,0 -0.110067,-0.096 -0.110067,-0.22295 v -0.61525 h 0.273756 v -0.29916 h -0.273756 v -0.36971 l -0.335845,0.10443 v 0.26528 h -0.155223 v 0.29916 h 0.155223 v 0.73943 c 0,0.26246 0.07902,0.4064 0.321734,0.4064 z"
         id="path4872"
         style="fill:#fffff0;fill-opacity:1" />
    </g>
    <g
       aria-label="Mono"
       id="text60100"
       style="font-size:2.82223px;line-height:1.25;font-family:'PTQ Sans Narrow';-inkscape-font-specification:'PTQ Sans Narrow, Normal';font-variant-ligatures:none;fill:#fffff0;fill-opacity:1;stroke-width:0.264583"
       transform="translate(-31.937974,-8.02726)">
      <path
         d="m 35.554648,189.984 v 1.01882 h 0.355601 v -1.97556 h -0.335846 l -0.386645,0.84949 -0.06491,0.25118 h -0.01129 l -0.06773,-0.24553 -0.412046,-0.85514 h -0.34149 v 1.97556 h 0.335846 v -1.02164 l -0.05362,-0.38101 h 0.01693 l 0.104422,0.34149 0.34149,0.6971 h 0.118534 l 0.321734,-0.69427 0.104423,-0.33867 h 0.01411 z"
         id="path68629"
         style="fill:#fffff0;fill-opacity:1" />
      <path
         d="m 37.222584,190.29727 c 0,-0.44027 -0.143933,-0.74225 -0.558801,-0.74225 -0.400757,0 -0.55598,0.30762 -0.55598,0.74225 0,0.49671 0.183445,0.74224 0.55598,0.74224 0.403579,0 0.558801,-0.30198 0.558801,-0.74224 z m -0.767646,0 c 0,-0.16087 0.01693,-0.27376 0.05362,-0.34149 0.03669,-0.0677 0.08749,-0.1016 0.155223,-0.1016 0.0762,0 0.129822,0.0395 0.163689,0.11288 0.03104,0.0762 0.04798,0.18627 0.04798,0.33021 0,0.16368 -0.01976,0.27657 -0.05362,0.34431 -0.03387,0.0677 -0.08749,0.0988 -0.158045,0.0988 -0.183445,0 -0.208845,-0.22578 -0.208845,-0.44309 z"
         id="path68631"
         style="fill:#fffff0;fill-opacity:1" />
      <path
         d="m 38.097475,189.55784 c -0.186267,0 -0.299157,0.0875 -0.36689,0.19756 h -0.0085 l -0.03951,-0.16369 h -0.268112 v 1.41111 h 0.335845 v -0.97931 c 0.0254,-0.079 0.09596,-0.15805 0.203201,-0.15805 0.141112,0 0.160867,0.11289 0.160867,0.2794 v 0.85796 h 0.335846 v -0.9398 c 0,-0.29351 -0.06773,-0.50518 -0.352779,-0.50518 z"
         id="path68633"
         style="fill:#fffff0;fill-opacity:1" />
      <path
         d="m 39.745656,190.29727 c 0,-0.44027 -0.143934,-0.74225 -0.558802,-0.74225 -0.400757,0 -0.555979,0.30762 -0.555979,0.74225 0,0.49671 0.183445,0.74224 0.555979,0.74224 0.403579,0 0.558802,-0.30198 0.558802,-0.74224 z m -0.767647,0 c 0,-0.16087 0.01693,-0.27376 0.05362,-0.34149 0.03669,-0.0677 0.08749,-0.1016 0.155223,-0.1016 0.0762,0 0.129823,0.0395 0.163689,0.11288 0.03104,0.0762 0.04798,0.18627 0.04798,0.33021 0,0.16368 -0.01976,0.27657 -0.05362,0.34431 -0.03387,0.0677 -0.08749,0.0988 -0.158045,0.0988 -0.183445,0 -0.208845,-0.22578 -0.208845,-0.44309 z"
         id="path68635"
         style="fill:#fffff0;fill-opacity:1" />
    </g>
    <g
       aria-label="Mrg8"
       id="text9271"
       style="font-size:4.9389px;line-height:1.25;font-family:'PTQ Sans Narrow';-inkscape-font-specification:'PTQ Sans Narrow, Normal';font-variant-ligatures:none;fill:#fffff0;fill-opacity:1;stroke-width:0.264583"
       transform="translate(-12.341391,-0.1264)">
      <path
         d="m 15.230994,175.86983 v 1.78294 h 0.622301 v -3.45723 h -0.587729 l -0.676629,1.48661 -0.113595,0.43956 h -0.01976 l -0.118533,-0.42968 -0.72108,-1.49649 h -0.597607 v 3.45723 h 0.587729 v -1.78788 l -0.09384,-0.66675 h 0.02963 l 0.182739,0.5976 0.597607,1.21991 h 0.207434 l 0.563034,-1.21497 0.18274,-0.59266 h 0.02469 z"
         id="path11499"
         style="fill:#fffff0;fill-opacity:1" />
      <path
         d="m 16.826256,175.47965 h -0.01975 l -0.06915,-0.29633 h -0.44944 v 2.46945 h 0.587729 v -1.64959 c 0.03951,-0.15805 0.162984,-0.28152 0.36054,-0.28152 0.06421,0 0.138289,0.0148 0.217312,0.0444 l 0.06914,-0.58279 c -0.07902,-0.0296 -0.153106,-0.0494 -0.232128,-0.0494 -0.242006,0 -0.395112,0.16299 -0.464257,0.34572 z"
         id="path11501"
         style="fill:#fffff0;fill-opacity:1" />
      <path
         d="m 18.683279,175.12899 c -0.750713,0 -1.037169,0.52847 -1.037169,1.33844 0,0.42475 0.06421,0.7359 0.192617,0.93346 0.128411,0.19755 0.325967,0.29139 0.587729,0.29139 0.232128,0 0.385234,-0.0593 0.484012,-0.19755 h 0.01482 v 0.13335 c 0,0.3556 -0.09878,0.54821 -0.444501,0.54821 -0.227189,0 -0.380295,-0.0593 -0.533401,-0.12347 l -0.123473,0.49883 c 0.18274,0.10866 0.409929,0.14817 0.745774,0.14817 0.632179,0 0.933452,-0.3803 0.933452,-1.04705 v -2.38055 c -0.202495,-0.0889 -0.508706,-0.14323 -0.819857,-0.14323 z m 0.232128,0.57785 v 1.23473 c -0.04939,0.14817 -0.138289,0.24694 -0.325967,0.24694 -0.22719,0 -0.335845,-0.24694 -0.335845,-0.74577 0,-0.28646 0.02963,-0.49389 0.09878,-0.61242 0.06914,-0.11854 0.162983,-0.1778 0.286456,-0.1778 0.113594,0 0.197556,0.0197 0.276578,0.0543 z"
         id="path11503"
         style="fill:#fffff0;fill-opacity:1" />
      <path
         d="m 21.330524,175.83032 c 0.242006,-0.20744 0.419806,-0.43957 0.419806,-0.86925 0,-0.51858 -0.330906,-0.83467 -0.839613,-0.83467 -0.553156,0 -0.879124,0.36547 -0.879124,0.91369 0,0.41981 0.172862,0.66182 0.414868,0.84949 -0.27164,0.2025 -0.488951,0.4692 -0.488951,0.93346 0,0.14322 0.01975,0.27164 0.06421,0.38029 0.123473,0.31609 0.419807,0.51859 0.859369,0.51859 0.13335,0 0.256823,-0.0198 0.375356,-0.0642 0.335846,-0.12347 0.567974,-0.42475 0.567974,-0.889 0,-0.47908 -0.192617,-0.72602 -0.49389,-0.93839 z m -0.439562,1.36807 c -0.261762,0 -0.395112,-0.22225 -0.395112,-0.48895 0,-0.27658 0.118533,-0.45932 0.306212,-0.60254 0.202494,0.15804 0.454378,0.30621 0.454378,0.66181 0,0.2667 -0.118533,0.42968 -0.365478,0.42968 z m 0.01482,-2.54847 c 0.202495,0 0.311151,0.20249 0.311151,0.42475 0,0.26176 -0.09878,0.40992 -0.227189,0.56303 -0.197556,-0.11853 -0.395112,-0.2667 -0.395112,-0.58773 0,-0.20743 0.09384,-0.40005 0.31115,-0.40005 z"
         id="path11505"
         style="fill:#fffff0;fill-opacity:1" />
    </g>
  </g>
  <g
     style="display:none"
     inkscape:label="components"
     id="layer2"
     inkscape:groupmode="layer">
    <circle
       inkscape:label="CV_Out"
       cy="19.5"
       cx="5.0799999"
       id="circle1247"
       style="display:inline;fill:#0000ff;fill-rule:evenodd;stroke-width:0.264582"
       r="4" />
    <circle
       inkscape:label="CV_Out"
       cy="30.75"
       cx="5.0799999"
       id="circle1249"
       style="display:inline;fill:#0000ff;fill-rule:evenodd;stroke-width:0.264582"
       r="4" />
    <circle
       inkscape:label="CV_Out"
       cy="42"
       cx="5.0799999"
       id="circle1251"
       style="display:inline;fill:#0000ff;fill-rule:evenodd;stroke-width:0.264582"
       r="4" />
    <circle
       inkscape:label="CV_Out"
       cy="53.25"
       cx="5.0799999"
       id="circle1253"
       style="display:inline;fill:#0000ff;fill-rule:evenodd;stroke-width:0.264582"
       r="4" />
    <circle
       inkscape:label="CV_Out"
       cy="64.5"
       cx="5.0799999"
       id="circle1255"
       style="display:inline;fill:#0000ff;fill-rule:evenodd;stroke-width:0.264582"
       r="4" />
    <circle
       inkscape:label="CV_Out"
       cy="75.75"
       cx="5.0799999"
       id="circle1257"
       style="display:inline;fill:#0000ff;fill-rule:evenodd;stroke-width:0.264582"
       r="4" />
    <circle
       inkscape:label="CV_Out"
       cy="87"
       cx="5.0799999"
       id="circle1259"
       style="display:inline;fill:#0000ff;fill-rule:evenodd;stroke-width:0.264582"
       r="4" />
    <circle
       inkscape:label="CV_Out"
       cy="98.25"
       cx="5.0799999"
       id="circle1261"
       style="display:inline;fill:#0000ff;fill-rule:evenodd;stroke-width:0.264582"
       r="4" />
    <circle
       inkscape:label="CV_Out"
       cy="114.49975"
       cx="5.0799999"
       id="circle1263"
       style="display:inline;fill:#00ff00;fill-rule:evenodd;stroke-width:0.264582"
       r="4" />
  </g>
</svg>
