<?xml version="1.0" encoding="UTF-8" standalone="no"?>
<svg
   sodipodi:docname="Peak-dark.svg"
   inkscape:version="1.3 (0e150ed6c4, 2023-07-21)"
   id="svg8"
   version="1.1"
   viewBox="0 0 10.16 128.5"
   height="128.5mm"
   width="10.16mm"
   xmlns:inkscape="http://www.inkscape.org/namespaces/inkscape"
   xmlns:sodipodi="http://sodipodi.sourceforge.net/DTD/sodipodi-0.dtd"
   xmlns="http://www.w3.org/2000/svg"
   xmlns:svg="http://www.w3.org/2000/svg"
   xmlns:rdf="http://www.w3.org/1999/02/22-rdf-syntax-ns#"
   xmlns:cc="http://creativecommons.org/ns#"
   xmlns:dc="http://purl.org/dc/elements/1.1/">
  <defs
     id="defs2" />
  <sodipodi:namedview
     inkscape:snap-global="true"
     inkscape:snap-bbox-midpoints="false"
     inkscape:snap-bbox="true"
     inkscape:document-rotation="0"
     inkscape:window-maximized="0"
     inkscape:window-y="23"
     inkscape:window-x="26"
     inkscape:window-height="1216"
     inkscape:window-width="1499"
     inkscape:lockguides="false"
     inkscape:guide-bbox="true"
     showguides="true"
     units="mm"
     showgrid="false"
     inkscape:current-layer="layer1"
     inkscape:document-units="mm"
     inkscape:cy="161.5739"
     inkscape:cx="-44.194174"
     inkscape:zoom="2.8284271"
     inkscape:pageshadow="2"
     inkscape:pageopacity="0.0"
     borderopacity="1.0"
     bordercolor="#666666"
     pagecolor="#ffffff"
     id="base"
     inkscape:bbox-nodes="false"
     inkscape:bbox-paths="false"
     inkscape:snap-grids="false"
     inkscape:snap-others="true"
     inkscape:object-nodes="false"
     inkscape:snap-nodes="false"
     inkscape:snap-bbox-edge-midpoints="false"
     inkscape:pagecheckerboard="0"
     inkscape:snap-object-midpoints="true"
     inkscape:showpageshadow="2"
     inkscape:deskcolor="#d1d1d1">
    <sodipodi:guide
       position="5.0800001,110"
       orientation="0,1"
       id="guide837"
       inkscape:label=""
       inkscape:locked="false"
       inkscape:color="rgb(0,0,255)" />
    <sodipodi:guide
       inkscape:color="rgb(0,0,255)"
       inkscape:locked="false"
       inkscape:label=""
       id="guide875"
       orientation="0,1"
       position="8.0000003,43.750002" />
    <sodipodi:guide
       position="5.0800001,87.000004"
       orientation="0,1"
       id="guide891"
       inkscape:label=""
       inkscape:locked="false"
       inkscape:color="rgb(0,0,255)" />
    <sodipodi:guide
       position="5.0800001,75.47084"
       orientation="0,1"
       id="guide901"
       inkscape:label=""
       inkscape:locked="false"
       inkscape:color="rgb(0,0,255)" />
    <sodipodi:guide
       position="5.0800001,26.999948"
       orientation="0,1"
       id="guide3392"
       inkscape:label=""
       inkscape:locked="false"
       inkscape:color="rgb(0,0,255)" />
    <sodipodi:guide
       inkscape:color="rgb(0,0,255)"
       inkscape:locked="false"
       inkscape:label=""
       id="guide907"
       orientation="0,1"
       position="5.0800001,13.000001" />
    <sodipodi:guide
       position="8.0000003,54.750002"
       orientation="0,1"
       id="guide908"
       inkscape:label=""
       inkscape:locked="false"
       inkscape:color="rgb(0,0,255)" />
    <sodipodi:guide
       inkscape:color="rgb(0,0,255)"
       inkscape:locked="false"
       inkscape:label=""
       id="guide944"
       orientation="-1,0"
       position="5.0800001,95.500004" />
    <sodipodi:guide
       position="8.0000003,113.95386"
       orientation="-1,0"
       id="guide7471"
       inkscape:label=""
       inkscape:locked="false"
       inkscape:color="rgb(0,0,255)" />
    <sodipodi:guide
       position="5.0800001,38.499956"
       orientation="0,1"
       id="guide7497"
       inkscape:label=""
       inkscape:locked="false"
       inkscape:color="rgb(0,0,255)" />
    <sodipodi:guide
       position="5.0800001,49.50001"
       orientation="0,1"
       id="guide7499"
       inkscape:label=""
       inkscape:locked="false"
       inkscape:color="rgb(0,0,255)" />
    <sodipodi:guide
       position="5.0800001,98.000004"
       orientation="0,1"
       id="guide7501"
       inkscape:label=""
       inkscape:locked="false"
       inkscape:color="rgb(0,0,255)" />
    <sodipodi:guide
       position="8.0000003,92.250004"
       orientation="0,1"
       id="guide7503"
       inkscape:label=""
       inkscape:locked="false"
       inkscape:color="rgb(0,0,255)" />
    <sodipodi:guide
       position="4.42242,115.5"
       orientation="0,1"
       id="guide7505"
       inkscape:label=""
       inkscape:locked="false"
       inkscape:color="rgb(0,0,255)" />
    <sodipodi:guide
       position="4.5000002,97.069105"
       orientation="-1,0"
       id="guide7509"
       inkscape:label=""
       inkscape:locked="false"
       inkscape:color="rgb(0,0,255)" />
    <sodipodi:guide
       position="5.0800001,61.500002"
       orientation="0,1"
       id="guide7511"
       inkscape:label=""
       inkscape:locked="false"
       inkscape:color="rgb(0,0,255)" />
    <sodipodi:guide
       position="4.42242,67.00005"
       orientation="0,-1"
       id="guide10342"
       inkscape:locked="false" />
    <sodipodi:guide
       position="3.0169576,31.48917"
       orientation="0,-1"
       id="guide10344"
       inkscape:locked="false" />
    <sodipodi:guide
       position="3.0169576,79.989169"
       orientation="0,1"
       id="guide10346"
       inkscape:label=""
       inkscape:locked="false"
       inkscape:color="rgb(0,0,255)" />
    <sodipodi:guide
       position="8.0000003,103.25"
       orientation="0,1"
       id="guide10348"
       inkscape:label=""
       inkscape:locked="false"
       inkscape:color="rgb(0,0,255)" />
    <sodipodi:guide
       position="2.4235091,18.000001"
       orientation="0,1"
       id="guide10702"
       inkscape:label=""
       inkscape:locked="false"
       inkscape:color="rgb(0,0,255)" />
  </sodipodi:namedview>
  <metadata
     id="metadata5">
    <rdf:RDF>
      <cc:Work
         rdf:about="">
        <dc:format>image/svg+xml</dc:format>
        <dc:type
           rdf:resource="http://purl.org/dc/dcmitype/StillImage" />
        <dc:title />
      </cc:Work>
    </rdf:RDF>
  </metadata>
  <g
     transform="translate(0,-168.5)"
     id="layer1"
     inkscape:groupmode="layer"
     inkscape:label="Layer 1"
     style="display:inline">
    <rect
       style="display:inline;opacity:1;fill:#242422;fill-opacity:1;stroke:none;stroke-width:1.131;stroke-miterlimit:4;stroke-dasharray:none"
       id="rect838"
       width="10.16"
       height="128.5"
       x="-5.5511151e-17"
       y="168.5" />
    <text
       xml:space="preserve"
       style="font-weight:bold;font-stretch:condensed;font-size:2.82223px;line-height:1.25;font-family:'PT Sans Narrow';-inkscape-font-specification:'PT Sans Narrow, Bold Condensed';opacity:1;stroke-width:0.264583"
       x="2.0529213"
       y="233.73691"
       id="text64"><tspan
         sodipodi:role="line"
         id="tspan62"
         x="2.0529213"
         y="233.73691"
         style="stroke-width:0.264583" /></text>
    <g
       aria-label="GRANDE"
       id="text2569"
       style="font-size:1.76389px;line-height:1.25;font-family:'Source Sans Pro';-inkscape-font-specification:'Source Sans Pro, Normal';text-align:center;letter-spacing:0.370417px;text-anchor:middle;opacity:1;stroke-width:0.264583;fill:#fffff0;fill-opacity:1"
       transform="translate(0,-0.83024)">
      <path
         d="m 1.6963961,292.52968 c 0.1552223,0 0.2822224,-0.0564 0.3580696,-0.13405 v -0.48684 H 1.6734655 v 0.12171 h 0.2451807 v 0.30163 c -0.045861,0.0423 -0.1252362,0.067 -0.208139,0.067 -0.2469446,0 -0.3827641,-0.18168 -0.3827641,-0.47272 0,-0.28751 0.1481667,-0.46567 0.3810002,-0.46567 0.1164167,0 0.1905001,0.0441 0.2487085,0.10407 l 0.081139,-0.0917 c -0.067028,-0.0723 -0.1728612,-0.14287 -0.3333752,-0.14287 -0.3069168,0 -0.5309309,0.22754 -0.5309309,0.59972 0,0.37747 0.2169585,0.59972 0.5221114,0.59972 z"
         style="stroke-width:0.264583;fill:#fffff0;fill-opacity:1"
         id="path2571" />
      <path
         d="m 2.7000468,292.50851 h 0.1481668 v -0.48859 h 0.208139 l 0.2786946,0.48859 h 0.1675696 l -0.2945696,-0.50447 c 0.1569862,-0.0406 0.2592918,-0.1464 0.2592918,-0.32632 0,-0.24165 -0.1693334,-0.32632 -0.4056947,-0.32632 H 2.7000468 Z m 0.1481668,-0.60854 v -0.42862 h 0.192264 c 0.1799168,0 0.2786946,0.0547 0.2786946,0.20637 0,0.14817 -0.098778,0.22225 -0.2786946,0.22225 z"
         style="stroke-width:0.264583;fill:#fffff0;fill-opacity:1"
         id="path2573" />
      <path
         d="m 4.2699053,291.86293 c 0.04057,-0.12876 0.077611,-0.25576 0.112889,-0.38982 h 0.00706 c 0.037042,0.13406 0.074083,0.26106 0.1164168,0.38982 l 0.054681,0.17463 H 4.2152247 Z m -0.3545419,0.64558 h 0.1499307 l 0.111125,-0.35101 H 4.5979889 L 4.70735,292.50851 H 4.8643363 L 4.4745166,291.3514 H 4.3051831 Z"
         style="stroke-width:0.264583;fill:#fffff0;fill-opacity:1"
         id="path2575" />
      <path
         d="M 5.3987927,292.50851 H 5.53814 v -0.60854 c 0,-0.11994 -0.010583,-0.24518 -0.019403,-0.3616 h 0.00706 c 0.038806,0.0847 0.081139,0.1711 0.1252362,0.24871 l 0.4127502,0.72143 H 6.2225293 V 291.3514 H 6.083182 v 0.60325 c 0,0.11995 0.010583,0.24695 0.019403,0.36689 h -0.00706 c -0.040569,-0.0847 -0.081139,-0.1711 -0.1252361,-0.24871 L 5.5575428,291.3514 H 5.3987927 Z"
         style="stroke-width:0.264583;fill:#fffff0;fill-opacity:1"
         id="path2577" />
      <path
         d="m 6.9086818,292.50851 h 0.2963335 c 0.3492503,0 0.5397504,-0.21519 0.5397504,-0.58384 0,-0.36689 -0.1905001,-0.57327 -0.5468059,-0.57327 h -0.289278 z m 0.1481668,-0.1217 v -0.9137 h 0.1305278 c 0.2698752,0 0.4039309,0.16051 0.4039309,0.45156 0,0.2928 -0.1340557,0.46214 -0.4039309,0.46214 z"
         style="stroke-width:0.264583;fill:#fffff0;fill-opacity:1"
         id="path2579" />
      <path
         d="m 8.3656535,292.50851 h 0.6843893 v -0.12523 H 8.5138202 v -0.41981 h 0.4374447 v -0.12523 H 8.5138202 v -0.3616 H 9.0324039 V 291.3514 H 8.3656535 Z"
         style="stroke-width:0.264583;fill:#fffff0;fill-opacity:1"
         id="path2581" />
    </g>
    <text
       xml:space="preserve"
       style="font-weight:bold;font-stretch:condensed;font-size:2.82223px;line-height:1.25;font-family:'PT Sans Narrow';-inkscape-font-specification:'PT Sans Narrow, Bold Condensed';text-align:center;text-anchor:middle;opacity:1;stroke-width:0.264583"
       x="7.705914"
       y="247.28606"
       id="text925"><tspan
         sodipodi:role="line"
         id="tspan923"
         x="7.705914"
         y="247.28606"
         style="stroke-width:0.264583" /></text>
    <rect
       style="display:inline;fill:#555d50;fill-opacity:1;stroke:none;stroke-width:0.82019;stroke-opacity:0.25"
       id="rect45"
       width="9"
       height="23"
       x="0.57999998"
       y="191.75"
       rx="0.99999994"
       ry="1" />
    <g
       transform="translate(-0.06338061,-69.556457)"
       aria-label="CV In"
       id="text847"
       style="font-weight:bold;font-stretch:condensed;font-size:2.82223px;line-height:1.25;font-family:'PT Sans Narrow';-inkscape-font-specification:'PT Sans Narrow, Bold Condensed';display:inline;stroke-width:0.264583">
      <path
         inkscape:connector-curvature="0"
         d="m 4.308,250.03951 h 0.355601 v 1.97557 H 4.308 Z"
         style="stroke-width:0.264583"
         id="path922" />
      <path
         inkscape:connector-curvature="0"
         d="m 5.6429119,252.01508 v -0.85796 q 0,-0.15522 -0.036689,-0.21731 -0.036689,-0.0621 -0.1241781,-0.0621 -0.073378,0 -0.1270004,0.0451 -0.053622,0.0452 -0.0762,0.11289 v 0.97932 H 4.9429988 v -1.41112 h 0.2681119 l 0.039511,0.16369 h 0.00847 q 0.0508,-0.0818 0.1382893,-0.13829 0.087489,-0.0593 0.2286006,-0.0593 0.084667,0 0.1495782,0.0254 0.067733,0.0254 0.1128892,0.0847 0.045156,0.0565 0.067734,0.15522 0.022578,0.096 0.022578,0.23989 v 0.93981 z"
         style="stroke-width:0.264583"
         id="path924" />
    </g>
    <g
       aria-label="Reset"
       id="g933"
       style="font-size:2.82223px;line-height:1.25;font-family:'PTQ Sans Narrow';-inkscape-font-specification:'PTQ Sans Narrow, Normal';stroke-width:0.264583"
       transform="translate(-10.620313,-60.856119)">
      <path
         d="m 14.124105,277.39468 c 0,-0.39511 -0.251179,-0.5588 -0.640646,-0.5588 -0.149579,0 -0.349957,0.0198 -0.476957,0.048 v 1.9558 h 0.355601 v -0.81562 l 0.1524,0.0367 0.344312,0.77893 h 0.409224 l -0.364068,-0.75636 -0.112889,-0.0903 c 0.214489,-0.0762 0.333023,-0.29351 0.333023,-0.59831 z m -0.60678,-0.23142 c 0.16369,0 0.234245,0.12417 0.234245,0.28786 0,0.20603 -0.0762,0.3302 -0.268111,0.3302 h -0.121356 v -0.60395 c 0.03669,-0.0113 0.1016,-0.0141 0.155222,-0.0141 z"
         style="stroke-width:0.264583"
         id="path920" />
      <path
         d="m 14.877633,278.58848 c -0.214489,0 -0.285045,-0.14393 -0.29069,-0.36124 h 0.685802 c 0.01411,-0.0931 0.02822,-0.18345 0.02822,-0.28505 0,-0.33584 -0.149579,-0.55316 -0.474135,-0.55316 -0.180623,0 -0.318912,0.0621 -0.420512,0.18345 -0.101601,0.12136 -0.149579,0.30762 -0.149579,0.56162 0,0.42616 0.135467,0.74225 0.558802,0.74225 0.172156,0 0.352779,-0.0593 0.445912,-0.14111 l -0.104422,-0.23425 c -0.05927,0.048 -0.172156,0.0875 -0.279401,0.0875 z m 0.110067,-0.5842 h -0.389468 c 0.0085,-0.17216 0.05645,-0.32738 0.222956,-0.32738 0.143934,0 0.174979,0.15805 0.166512,0.32738 z"
         style="stroke-width:0.264583"
         id="path925" />
      <path
         d="m 15.840012,278.58848 c -0.118534,0 -0.225778,-0.0395 -0.299156,-0.0847 l -0.09313,0.27093 c 0.08749,0.0621 0.254001,0.1016 0.406401,0.1016 0.29069,0 0.471313,-0.1524 0.471313,-0.4318 0,-0.29351 -0.203201,-0.38382 -0.386646,-0.49107 -0.06209,-0.0339 -0.135467,-0.0734 -0.135467,-0.15804 0,-0.0762 0.04516,-0.11572 0.138289,-0.11572 0.09596,0 0.208845,0.0367 0.279401,0.0649 l 0.07902,-0.25965 c -0.09313,-0.0536 -0.256823,-0.0931 -0.409224,-0.0931 -0.273756,0 -0.423334,0.14393 -0.423334,0.41204 0,0.29351 0.206022,0.37818 0.386645,0.48543 0.06209,0.0367 0.135467,0.0847 0.135467,0.17497 0,0.0875 -0.06491,0.12418 -0.149578,0.12418 z"
         style="stroke-width:0.264583"
         id="path927" />
      <path
         d="m 17.073322,278.58848 c -0.214489,0 -0.285045,-0.14393 -0.290689,-0.36124 h 0.685802 c 0.01411,-0.0931 0.02822,-0.18345 0.02822,-0.28505 0,-0.33584 -0.149578,-0.55316 -0.474135,-0.55316 -0.180623,0 -0.318912,0.0621 -0.420512,0.18345 -0.1016,0.12136 -0.149578,0.30762 -0.149578,0.56162 0,0.42616 0.135467,0.74225 0.558801,0.74225 0.172156,0 0.352779,-0.0593 0.445913,-0.14111 l -0.104423,-0.23425 c -0.05927,0.048 -0.172156,0.0875 -0.279401,0.0875 z m 0.110067,-0.5842 h -0.389467 c 0.0085,-0.17216 0.05644,-0.32738 0.222956,-0.32738 0.143933,0 0.174978,0.15805 0.166511,0.32738 z"
         style="stroke-width:0.264583"
         id="path929" />
      <path
         d="m 18.078035,278.87353 c 0.118533,0 0.234245,-0.031 0.316089,-0.0734 l -0.04233,-0.26811 c -0.0508,0.0226 -0.08749,0.0339 -0.149578,0.0339 -0.104423,0 -0.110067,-0.096 -0.110067,-0.22295 v -0.61525 h 0.273756 v -0.29915 h -0.273756 v -0.36972 l -0.335846,0.10443 v 0.26529 h -0.155222 v 0.29915 H 17.7563 v 0.73943 c 0,0.26246 0.07902,0.4064 0.321735,0.4064 z"
         style="stroke-width:0.264583"
         id="path931" />
    </g>
    <g
       id="g6961"
       transform="translate(-11.400381,1.34074)"
       style="fill:#fffff0;fill-opacity:1">
      <path
         d="m 13.208369,172.65926 c -0.286456,0 -0.587729,0.0346 -0.814919,0.084 v 3.42266 h 0.622302 v -1.19028 c 0.0642,0.0198 0.172861,0.0198 0.256822,0.0198 h 0.06421 c 0.72108,0 1.101375,-0.45438 1.101375,-1.19521 0,-0.80505 -0.439562,-1.14089 -1.229786,-1.14089 z m 0.577851,1.13595 c 0,0.40499 -0.158045,0.64699 -0.548218,0.64699 -0.03951,0 -0.197556,-0.0148 -0.22225,-0.0247 v -1.1804 c 0.0642,-0.0148 0.148167,-0.0247 0.251884,-0.0247 0.350661,0 0.518584,0.22225 0.518584,0.58279 z"
         id="path6843"
         style="font-weight:bold;font-stretch:condensed;font-size:4.9389px;line-height:1.25;font-family:'PTQ Sans Narrow';-inkscape-font-specification:'PTQ Sans Narrow, Bold Condensed';font-variant-ligatures:none;stroke-width:0.264583;fill:#fffff0;fill-opacity:1" />
      <path
         d="m 15.588912,175.72632 c -0.375357,0 -0.498829,-0.25189 -0.508707,-0.63218 h 1.200153 c 0.02469,-0.16299 0.04939,-0.32103 0.04939,-0.49883 0,-0.58773 -0.261762,-0.96803 -0.829735,-0.96803 -0.31609,0 -0.558096,0.10866 -0.735897,0.32103 -0.1778,0.21237 -0.261761,0.53834 -0.261761,0.98284 0,0.74578 0.237067,1.29893 0.977902,1.29893 0.301273,0 0.617362,-0.10371 0.780346,-0.24694 l -0.182739,-0.40993 c -0.103717,0.084 -0.301273,0.15311 -0.488952,0.15311 z m 0.192617,-1.02236 h -0.681568 c 0.01482,-0.30127 0.09878,-0.57291 0.390173,-0.57291 0.251884,0 0.306212,0.27658 0.291395,0.57291 z"
         id="path6845"
         style="font-weight:bold;font-stretch:condensed;font-size:4.9389px;line-height:1.25;font-family:'PTQ Sans Narrow';-inkscape-font-specification:'PTQ Sans Narrow, Bold Condensed';font-variant-ligatures:none;stroke-width:0.264583;fill:#fffff0;fill-opacity:1" />
      <path
         d="m 17.445936,174.15081 c 0.301273,0 0.325967,0.21237 0.301273,0.54328 -0.666752,-0.0346 -1.170519,0.16298 -1.170519,0.79022 0,0.41487 0.22225,0.71614 0.62724,0.71614 0.291395,0 0.474134,-0.13829 0.58279,-0.33091 h 0.01976 l 0.09384,0.30128 h 0.479073 c -0.148167,-0.47414 -0.04445,-1.12113 -0.04445,-1.68911 0,-0.54328 -0.202495,-0.83467 -0.750713,-0.83467 -0.355601,0 -0.666751,0.0741 -0.874185,0.19756 l 0.148167,0.43956 c 0.143228,-0.0741 0.370417,-0.13335 0.587729,-0.13335 z m -0.261762,1.23472 c 0,-0.28152 0.281518,-0.34572 0.572913,-0.31115 v 0.40993 c -0.05927,0.11359 -0.172862,0.21237 -0.340784,0.21237 -0.167923,0 -0.232129,-0.12841 -0.232129,-0.31115 z"
         id="path6847"
         style="font-weight:bold;font-stretch:condensed;font-size:4.9389px;line-height:1.25;font-family:'PTQ Sans Narrow';-inkscape-font-specification:'PTQ Sans Narrow, Bold Condensed';font-variant-ligatures:none;stroke-width:0.264583;fill:#fffff0;fill-opacity:1" />
      <path
         d="m 19.470876,175.14353 0.434623,1.02235 h 0.661813 l -0.503768,-1.1557 -0.232128,-0.16793 0.212372,-0.16792 0.454379,-0.9779 h -0.637118 l -0.409929,0.98284 -0.118533,0.0691 v -2.03976 h -0.587729 v 3.45723 h 0.587729 v -1.02235 z"
         id="path6849"
         style="font-weight:bold;font-stretch:condensed;font-size:4.9389px;line-height:1.25;font-family:'PTQ Sans Narrow';-inkscape-font-specification:'PTQ Sans Narrow, Bold Condensed';font-variant-ligatures:none;stroke-width:0.264583;fill:#fffff0;fill-opacity:1" />
    </g>
    <g
       transform="translate(-0.06338064,-69.527289)"
       aria-label="CV In"
       id="g10436"
       style="font-weight:bold;font-stretch:condensed;font-size:2.82223px;line-height:1.25;font-family:'PT Sans Narrow';-inkscape-font-specification:'PT Sans Narrow, Bold Condensed';display:inline;stroke-width:0.264583;fill:#fffff0;fill-opacity:1">
      <path
         inkscape:connector-curvature="0"
         d="m 4.308,250.03951 h 0.355601 v 1.97557 H 4.308 Z"
         style="stroke-width:0.264583;fill:#fffff0;fill-opacity:1"
         id="path10432" />
      <path
         inkscape:connector-curvature="0"
         d="m 5.6429119,252.01508 v -0.85796 q 0,-0.15522 -0.036689,-0.21731 -0.036689,-0.0621 -0.1241781,-0.0621 -0.073378,0 -0.1270004,0.0451 -0.053622,0.0452 -0.0762,0.11289 v 0.97932 H 4.9429988 v -1.41112 h 0.2681119 l 0.039511,0.16369 h 0.00847 q 0.0508,-0.0818 0.1382893,-0.13829 0.087489,-0.0593 0.2286006,-0.0593 0.084667,0 0.1495782,0.0254 0.067733,0.0254 0.1128892,0.0847 0.045156,0.0565 0.067734,0.15522 0.022578,0.096 0.022578,0.23989 v 0.93981 z"
         style="stroke-width:0.264583;fill:#fffff0;fill-opacity:1"
         id="path10434" />
    </g>
    <g
       aria-label="Reset"
       id="g10456"
       style="font-size:2.82223px;line-height:1.25;font-family:'PTQ Sans Narrow';-inkscape-font-specification:'PTQ Sans Narrow, Normal';stroke-width:0.264583;fill:#fffff0;fill-opacity:1"
       transform="translate(-10.620313,-60.826951)">
      <path
         d="m 14.124105,277.39468 c 0,-0.39511 -0.251179,-0.5588 -0.640646,-0.5588 -0.149579,0 -0.349957,0.0198 -0.476957,0.048 v 1.9558 h 0.355601 v -0.81562 l 0.1524,0.0367 0.344312,0.77893 h 0.409224 l -0.364068,-0.75636 -0.112889,-0.0903 c 0.214489,-0.0762 0.333023,-0.29351 0.333023,-0.59831 z m -0.60678,-0.23142 c 0.16369,0 0.234245,0.12417 0.234245,0.28786 0,0.20603 -0.0762,0.3302 -0.268111,0.3302 h -0.121356 v -0.60395 c 0.03669,-0.0113 0.1016,-0.0141 0.155222,-0.0141 z"
         style="stroke-width:0.264583;fill:#fffff0;fill-opacity:1"
         id="path10446" />
      <path
         d="m 14.877633,278.58848 c -0.214489,0 -0.285045,-0.14393 -0.29069,-0.36124 h 0.685802 c 0.01411,-0.0931 0.02822,-0.18345 0.02822,-0.28505 0,-0.33584 -0.149579,-0.55316 -0.474135,-0.55316 -0.180623,0 -0.318912,0.0621 -0.420512,0.18345 -0.101601,0.12136 -0.149579,0.30762 -0.149579,0.56162 0,0.42616 0.135467,0.74225 0.558802,0.74225 0.172156,0 0.352779,-0.0593 0.445912,-0.14111 l -0.104422,-0.23425 c -0.05927,0.048 -0.172156,0.0875 -0.279401,0.0875 z m 0.110067,-0.5842 h -0.389468 c 0.0085,-0.17216 0.05645,-0.32738 0.222956,-0.32738 0.143934,0 0.174979,0.15805 0.166512,0.32738 z"
         style="stroke-width:0.264583;fill:#fffff0;fill-opacity:1"
         id="path10448" />
      <path
         d="m 15.840012,278.58848 c -0.118534,0 -0.225778,-0.0395 -0.299156,-0.0847 l -0.09313,0.27093 c 0.08749,0.0621 0.254001,0.1016 0.406401,0.1016 0.29069,0 0.471313,-0.1524 0.471313,-0.4318 0,-0.29351 -0.203201,-0.38382 -0.386646,-0.49107 -0.06209,-0.0339 -0.135467,-0.0734 -0.135467,-0.15804 0,-0.0762 0.04516,-0.11572 0.138289,-0.11572 0.09596,0 0.208845,0.0367 0.279401,0.0649 l 0.07902,-0.25965 c -0.09313,-0.0536 -0.256823,-0.0931 -0.409224,-0.0931 -0.273756,0 -0.423334,0.14393 -0.423334,0.41204 0,0.29351 0.206022,0.37818 0.386645,0.48543 0.06209,0.0367 0.135467,0.0847 0.135467,0.17497 0,0.0875 -0.06491,0.12418 -0.149578,0.12418 z"
         style="stroke-width:0.264583;fill:#fffff0;fill-opacity:1"
         id="path10450" />
      <path
         d="m 17.073322,278.58848 c -0.214489,0 -0.285045,-0.14393 -0.290689,-0.36124 h 0.685802 c 0.01411,-0.0931 0.02822,-0.18345 0.02822,-0.28505 0,-0.33584 -0.149578,-0.55316 -0.474135,-0.55316 -0.180623,0 -0.318912,0.0621 -0.420512,0.18345 -0.1016,0.12136 -0.149578,0.30762 -0.149578,0.56162 0,0.42616 0.135467,0.74225 0.558801,0.74225 0.172156,0 0.352779,-0.0593 0.445913,-0.14111 l -0.104423,-0.23425 c -0.05927,0.048 -0.172156,0.0875 -0.279401,0.0875 z m 0.110067,-0.5842 h -0.389467 c 0.0085,-0.17216 0.05644,-0.32738 0.222956,-0.32738 0.143933,0 0.174978,0.15805 0.166511,0.32738 z"
         style="stroke-width:0.264583;fill:#fffff0;fill-opacity:1"
         id="path10452" />
      <path
         d="m 18.078035,278.87353 c 0.118533,0 0.234245,-0.031 0.316089,-0.0734 l -0.04233,-0.26811 c -0.0508,0.0226 -0.08749,0.0339 -0.149578,0.0339 -0.104423,0 -0.110067,-0.096 -0.110067,-0.22295 v -0.61525 h 0.273756 v -0.29915 h -0.273756 v -0.36972 l -0.335846,0.10443 v 0.26529 h -0.155222 v 0.29915 H 17.7563 v 0.73943 c 0,0.26246 0.07902,0.4064 0.321735,0.4064 z"
         style="stroke-width:0.264583;fill:#fffff0;fill-opacity:1"
         id="path10454" />
    </g>
    <g
       transform="translate(-0.06338061,-21.05651)"
       aria-label="CV In"
       id="g10612"
       style="font-weight:bold;font-stretch:condensed;font-size:2.82223px;line-height:1.25;font-family:'PT Sans Narrow';-inkscape-font-specification:'PT Sans Narrow, Bold Condensed';display:inline;stroke-width:0.264583">
      <path
         inkscape:connector-curvature="0"
         d="m 4.308,250.03951 h 0.355601 v 1.97557 H 4.308 Z"
         style="stroke-width:0.264583"
         id="path10608" />
      <path
         inkscape:connector-curvature="0"
         d="m 5.6429119,252.01508 v -0.85796 q 0,-0.15522 -0.036689,-0.21731 -0.036689,-0.0621 -0.1241781,-0.0621 -0.073378,0 -0.1270004,0.0451 -0.053622,0.0452 -0.0762,0.11289 v 0.97932 H 4.9429988 v -1.41112 h 0.2681119 l 0.039511,0.16369 h 0.00847 q 0.0508,-0.0818 0.1382893,-0.13829 0.087489,-0.0593 0.2286006,-0.0593 0.084667,0 0.1495782,0.0254 0.067733,0.0254 0.1128892,0.0847 0.045156,0.0565 0.067734,0.15522 0.022578,0.096 0.022578,0.23989 v 0.93981 z"
         style="stroke-width:0.264583"
         id="path10610" />
    </g>
    <g
       aria-label="Reset"
       id="g10632"
       style="font-size:2.82223px;line-height:1.25;font-family:'PTQ Sans Narrow';-inkscape-font-specification:'PTQ Sans Narrow, Normal';stroke-width:0.264583"
       transform="translate(-10.620313,-12.356122)">
      <path
         d="m 14.124105,277.39468 c 0,-0.39511 -0.251179,-0.5588 -0.640646,-0.5588 -0.149579,0 -0.349957,0.0198 -0.476957,0.048 v 1.9558 h 0.355601 v -0.81562 l 0.1524,0.0367 0.344312,0.77893 h 0.409224 l -0.364068,-0.75636 -0.112889,-0.0903 c 0.214489,-0.0762 0.333023,-0.29351 0.333023,-0.59831 z m -0.60678,-0.23142 c 0.16369,0 0.234245,0.12417 0.234245,0.28786 0,0.20603 -0.0762,0.3302 -0.268111,0.3302 h -0.121356 v -0.60395 c 0.03669,-0.0113 0.1016,-0.0141 0.155222,-0.0141 z"
         style="stroke-width:0.264583"
         id="path10622" />
      <path
         d="m 14.877633,278.58848 c -0.214489,0 -0.285045,-0.14393 -0.29069,-0.36124 h 0.685802 c 0.01411,-0.0931 0.02822,-0.18345 0.02822,-0.28505 0,-0.33584 -0.149579,-0.55316 -0.474135,-0.55316 -0.180623,0 -0.318912,0.0621 -0.420512,0.18345 -0.101601,0.12136 -0.149579,0.30762 -0.149579,0.56162 0,0.42616 0.135467,0.74225 0.558802,0.74225 0.172156,0 0.352779,-0.0593 0.445912,-0.14111 l -0.104422,-0.23425 c -0.05927,0.048 -0.172156,0.0875 -0.279401,0.0875 z m 0.110067,-0.5842 h -0.389468 c 0.0085,-0.17216 0.05645,-0.32738 0.222956,-0.32738 0.143934,0 0.174979,0.15805 0.166512,0.32738 z"
         style="stroke-width:0.264583"
         id="path10624" />
      <path
         d="m 15.840012,278.58848 c -0.118534,0 -0.225778,-0.0395 -0.299156,-0.0847 l -0.09313,0.27093 c 0.08749,0.0621 0.254001,0.1016 0.406401,0.1016 0.29069,0 0.471313,-0.1524 0.471313,-0.4318 0,-0.29351 -0.203201,-0.38382 -0.386646,-0.49107 -0.06209,-0.0339 -0.135467,-0.0734 -0.135467,-0.15804 0,-0.0762 0.04516,-0.11572 0.138289,-0.11572 0.09596,0 0.208845,0.0367 0.279401,0.0649 l 0.07902,-0.25965 c -0.09313,-0.0536 -0.256823,-0.0931 -0.409224,-0.0931 -0.273756,0 -0.423334,0.14393 -0.423334,0.41204 0,0.29351 0.206022,0.37818 0.386645,0.48543 0.06209,0.0367 0.135467,0.0847 0.135467,0.17497 0,0.0875 -0.06491,0.12418 -0.149578,0.12418 z"
         style="stroke-width:0.264583"
         id="path10626" />
      <path
         d="m 17.073322,278.58848 c -0.214489,0 -0.285045,-0.14393 -0.290689,-0.36124 h 0.685802 c 0.01411,-0.0931 0.02822,-0.18345 0.02822,-0.28505 0,-0.33584 -0.149578,-0.55316 -0.474135,-0.55316 -0.180623,0 -0.318912,0.0621 -0.420512,0.18345 -0.1016,0.12136 -0.149578,0.30762 -0.149578,0.56162 0,0.42616 0.135467,0.74225 0.558801,0.74225 0.172156,0 0.352779,-0.0593 0.445913,-0.14111 l -0.104423,-0.23425 c -0.05927,0.048 -0.172156,0.0875 -0.279401,0.0875 z m 0.110067,-0.5842 h -0.389467 c 0.0085,-0.17216 0.05644,-0.32738 0.222956,-0.32738 0.143933,0 0.174978,0.15805 0.166511,0.32738 z"
         style="stroke-width:0.264583"
         id="path10628" />
      <path
         d="m 18.078035,278.87353 c 0.118533,0 0.234245,-0.031 0.316089,-0.0734 l -0.04233,-0.26811 c -0.0508,0.0226 -0.08749,0.0339 -0.149578,0.0339 -0.104423,0 -0.110067,-0.096 -0.110067,-0.22295 v -0.61525 h 0.273756 v -0.29915 h -0.273756 v -0.36972 l -0.335846,0.10443 v 0.26529 h -0.155222 v 0.29915 H 17.7563 v 0.73943 c 0,0.26246 0.07902,0.4064 0.321735,0.4064 z"
         style="stroke-width:0.264583"
         id="path10630" />
    </g>
    <rect
       style="display:inline;fill:#555d50;fill-opacity:1;stroke:none;stroke-width:0.829459;stroke-opacity:0.25"
       id="rect10642"
       width="9"
       height="23"
       x="0.57999998"
       y="240.25"
       rx="0.99999994"
       ry="1" />
    <g
       transform="translate(-0.06338064,-21.027342)"
       aria-label="CV In"
       id="g10648"
       style="font-weight:bold;font-stretch:condensed;font-size:2.82223px;line-height:1.25;font-family:'PT Sans Narrow';-inkscape-font-specification:'PT Sans Narrow, Bold Condensed';display:inline;stroke-width:0.264583;fill:#fffff0;fill-opacity:1">
      <path
         inkscape:connector-curvature="0"
         d="m 4.308,250.03951 h 0.355601 v 1.97557 H 4.308 Z"
         style="stroke-width:0.264583;fill:#fffff0;fill-opacity:1"
         id="path10644" />
      <path
         inkscape:connector-curvature="0"
         d="m 5.6429119,252.01508 v -0.85796 q 0,-0.15522 -0.036689,-0.21731 -0.036689,-0.0621 -0.1241781,-0.0621 -0.073378,0 -0.1270004,0.0451 -0.053622,0.0452 -0.0762,0.11289 v 0.97932 H 4.9429988 v -1.41112 h 0.2681119 l 0.039511,0.16369 h 0.00847 q 0.0508,-0.0818 0.1382893,-0.13829 0.087489,-0.0593 0.2286006,-0.0593 0.084667,0 0.1495782,0.0254 0.067733,0.0254 0.1128892,0.0847 0.045156,0.0565 0.067734,0.15522 0.022578,0.096 0.022578,0.23989 v 0.93981 z"
         style="stroke-width:0.264583;fill:#fffff0;fill-opacity:1"
         id="path10646" />
    </g>
    <g
       aria-label="Reset"
       id="g10668"
       style="font-size:2.82223px;line-height:1.25;font-family:'PTQ Sans Narrow';-inkscape-font-specification:'PTQ Sans Narrow, Normal';stroke-width:0.264583;fill:#fffff0;fill-opacity:1"
       transform="translate(-10.620313,-12.326954)">
      <path
         d="m 14.124105,277.39468 c 0,-0.39511 -0.251179,-0.5588 -0.640646,-0.5588 -0.149579,0 -0.349957,0.0198 -0.476957,0.048 v 1.9558 h 0.355601 v -0.81562 l 0.1524,0.0367 0.344312,0.77893 h 0.409224 l -0.364068,-0.75636 -0.112889,-0.0903 c 0.214489,-0.0762 0.333023,-0.29351 0.333023,-0.59831 z m -0.60678,-0.23142 c 0.16369,0 0.234245,0.12417 0.234245,0.28786 0,0.20603 -0.0762,0.3302 -0.268111,0.3302 h -0.121356 v -0.60395 c 0.03669,-0.0113 0.1016,-0.0141 0.155222,-0.0141 z"
         style="stroke-width:0.264583;fill:#fffff0;fill-opacity:1"
         id="path10658" />
      <path
         d="m 14.877633,278.58848 c -0.214489,0 -0.285045,-0.14393 -0.29069,-0.36124 h 0.685802 c 0.01411,-0.0931 0.02822,-0.18345 0.02822,-0.28505 0,-0.33584 -0.149579,-0.55316 -0.474135,-0.55316 -0.180623,0 -0.318912,0.0621 -0.420512,0.18345 -0.101601,0.12136 -0.149579,0.30762 -0.149579,0.56162 0,0.42616 0.135467,0.74225 0.558802,0.74225 0.172156,0 0.352779,-0.0593 0.445912,-0.14111 l -0.104422,-0.23425 c -0.05927,0.048 -0.172156,0.0875 -0.279401,0.0875 z m 0.110067,-0.5842 h -0.389468 c 0.0085,-0.17216 0.05645,-0.32738 0.222956,-0.32738 0.143934,0 0.174979,0.15805 0.166512,0.32738 z"
         style="stroke-width:0.264583;fill:#fffff0;fill-opacity:1"
         id="path10660" />
      <path
         d="m 15.840012,278.58848 c -0.118534,0 -0.225778,-0.0395 -0.299156,-0.0847 l -0.09313,0.27093 c 0.08749,0.0621 0.254001,0.1016 0.406401,0.1016 0.29069,0 0.471313,-0.1524 0.471313,-0.4318 0,-0.29351 -0.203201,-0.38382 -0.386646,-0.49107 -0.06209,-0.0339 -0.135467,-0.0734 -0.135467,-0.15804 0,-0.0762 0.04516,-0.11572 0.138289,-0.11572 0.09596,0 0.208845,0.0367 0.279401,0.0649 l 0.07902,-0.25965 c -0.09313,-0.0536 -0.256823,-0.0931 -0.409224,-0.0931 -0.273756,0 -0.423334,0.14393 -0.423334,0.41204 0,0.29351 0.206022,0.37818 0.386645,0.48543 0.06209,0.0367 0.135467,0.0847 0.135467,0.17497 0,0.0875 -0.06491,0.12418 -0.149578,0.12418 z"
         style="stroke-width:0.264583;fill:#fffff0;fill-opacity:1"
         id="path10662" />
      <path
         d="m 17.073322,278.58848 c -0.214489,0 -0.285045,-0.14393 -0.290689,-0.36124 h 0.685802 c 0.01411,-0.0931 0.02822,-0.18345 0.02822,-0.28505 0,-0.33584 -0.149578,-0.55316 -0.474135,-0.55316 -0.180623,0 -0.318912,0.0621 -0.420512,0.18345 -0.1016,0.12136 -0.149578,0.30762 -0.149578,0.56162 0,0.42616 0.135467,0.74225 0.558801,0.74225 0.172156,0 0.352779,-0.0593 0.445913,-0.14111 l -0.104423,-0.23425 c -0.05927,0.048 -0.172156,0.0875 -0.279401,0.0875 z m 0.110067,-0.5842 h -0.389467 c 0.0085,-0.17216 0.05644,-0.32738 0.222956,-0.32738 0.143933,0 0.174978,0.15805 0.166511,0.32738 z"
         style="stroke-width:0.264583;fill:#fffff0;fill-opacity:1"
         id="path10664" />
      <path
         d="m 18.078035,278.87353 c 0.118533,0 0.234245,-0.031 0.316089,-0.0734 l -0.04233,-0.26811 c -0.0508,0.0226 -0.08749,0.0339 -0.149578,0.0339 -0.104423,0 -0.110067,-0.096 -0.110067,-0.22295 v -0.61525 h 0.273756 v -0.29915 h -0.273756 v -0.36972 l -0.335846,0.10443 v 0.26529 h -0.155222 v 0.29915 H 17.7563 v 0.73943 c 0,0.26246 0.07902,0.4064 0.321735,0.4064 z"
         style="stroke-width:0.264583;fill:#fffff0;fill-opacity:1"
         id="path10666" />
    </g>
    <g
       aria-label="Thresh"
       id="text2343"
       style="font-weight:bold;font-stretch:condensed;font-size:2.82223px;line-height:1.25;font-family:'PTQ Sans Narrow';-inkscape-font-specification:'PTQ Sans Narrow, Bold Condensed';font-variant-ligatures:none;display:inline;stroke-width:0.264583;fill:#fffff0;fill-opacity:1"
       transform="translate(-23.166714,169.32868)">
      <path
         d="m 26.236514,109.01092 v -0.32738 h -1.292582 v 0.32738 h 0.46849 v 1.64818 h 0.355601 v -1.64818 z"
         id="path5929"
         style="fill:#fffff0;fill-opacity:1" />
      <path
         d="m 27.063424,109.2113 c -0.166511,0 -0.268112,0.0706 -0.338667,0.16369 h -0.0085 v -0.69145 h -0.335845 v 1.97556 h 0.335845 v -0.97084 c 0.02258,-0.0847 0.09878,-0.16934 0.200378,-0.16934 0.143934,0 0.16369,0.12136 0.16369,0.28787 v 0.85231 h 0.335845 v -0.92569 c 0,-0.30198 -0.05927,-0.52211 -0.352779,-0.52211 z"
         id="path5931"
         style="fill:#fffff0;fill-opacity:1" />
      <path
         d="m 27.955247,109.41732 h -0.01129 l -0.03951,-0.16933 h -0.256823 v 1.41111 h 0.335846 v -0.94262 c 0.02258,-0.0903 0.09313,-0.16087 0.206022,-0.16087 0.03669,0 0.07902,0.008 0.124178,0.0254 l 0.03951,-0.33302 c -0.04516,-0.0169 -0.08749,-0.0282 -0.132645,-0.0282 -0.138289,0 -0.225779,0.0931 -0.26529,0.19755 z"
         id="path5933"
         style="fill:#fffff0;fill-opacity:1" />
      <path
         d="m 29.044626,110.40792 c -0.21449,0 -0.285045,-0.14393 -0.29069,-0.36124 h 0.685802 c 0.01411,-0.0931 0.02822,-0.18345 0.02822,-0.28505 0,-0.33584 -0.149578,-0.55315 -0.474134,-0.55315 -0.180623,0 -0.318912,0.0621 -0.420513,0.18344 -0.1016,0.12136 -0.149578,0.30763 -0.149578,0.56163 0,0.42615 0.135467,0.74224 0.558802,0.74224 0.172156,0 0.352779,-0.0593 0.445912,-0.14111 l -0.104422,-0.23424 c -0.05927,0.048 -0.172156,0.0875 -0.279401,0.0875 z m 0.110067,-0.5842 h -0.389468 c 0.0085,-0.17215 0.05645,-0.32738 0.222956,-0.32738 0.143934,0 0.174978,0.15805 0.166512,0.32738 z"
         id="path5935"
         style="fill:#fffff0;fill-opacity:1" />
      <path
         d="m 30.007005,110.40792 c -0.118534,0 -0.225779,-0.0395 -0.299157,-0.0847 l -0.09313,0.27093 c 0.08749,0.0621 0.254,0.1016 0.406401,0.1016 0.29069,0 0.471312,-0.1524 0.471312,-0.4318 0,-0.29351 -0.2032,-0.38382 -0.386645,-0.49107 -0.06209,-0.0339 -0.135467,-0.0734 -0.135467,-0.15804 0,-0.0762 0.04516,-0.11571 0.138289,-0.11571 0.09596,0 0.208845,0.0367 0.279401,0.0649 l 0.07902,-0.25965 c -0.09313,-0.0536 -0.256823,-0.0931 -0.409223,-0.0931 -0.273756,0 -0.423335,0.14393 -0.423335,0.41204 0,0.29352 0.206023,0.37818 0.386646,0.48543 0.06209,0.0367 0.135467,0.0847 0.135467,0.17498 0,0.0875 -0.06491,0.12417 -0.149578,0.12417 z"
         id="path5937"
         style="fill:#fffff0;fill-opacity:1" />
      <path
         d="m 31.353204,109.2113 c -0.166511,0 -0.268112,0.0706 -0.338667,0.16369 h -0.0085 v -0.69145 h -0.335845 v 1.97556 h 0.335845 v -0.97084 c 0.02258,-0.0847 0.09878,-0.16934 0.200378,-0.16934 0.143934,0 0.16369,0.12136 0.16369,0.28787 v 0.85231 h 0.335845 v -0.92569 c 0,-0.30198 -0.05927,-0.52211 -0.352779,-0.52211 z"
         id="path5939"
         style="fill:#fffff0;fill-opacity:1" />
    </g>
    <g
       aria-label="Min"
       id="g10444"
       style="font-size:2.82223px;line-height:1.25;font-family:'PTQ Sans Narrow';-inkscape-font-specification:'PTQ Sans Narrow, Normal';display:inline;fill:#fffff0;fill-opacity:1;stroke-width:0.264585"
       transform="matrix(0.99998983,0,0,1,-10.150263,176.83122)">
      <path
         d="m 14.394942,27.681017 v 1.018825 h 0.355601 v -1.975561 h -0.335845 l -0.386646,0.849492 -0.06491,0.251178 h -0.01129 l -0.06773,-0.245534 -0.412046,-0.855136 h -0.34149 v 1.975561 h 0.335846 v -1.021647 l -0.05362,-0.381001 h 0.01693 l 0.104422,0.34149 0.34149,0.697091 h 0.118534 l 0.321734,-0.694269 0.104422,-0.338667 h 0.01411 z"
         style="fill:#fffff0;fill-opacity:1;stroke-width:0.264585"
         id="path10438" />
      <path
         d="m 15.027121,27.288727 v 1.411115 h 0.335845 v -1.411115 z m 0.166511,-0.208845 c 0.124178,0 0.217312,-0.06491 0.217312,-0.189089 0,-0.121356 -0.09313,-0.194734 -0.217312,-0.194734 -0.124178,0 -0.206023,0.0762 -0.206023,0.194734 0,0.121356 0.08184,0.189089 0.206023,0.189089 z"
         style="fill:#fffff0;fill-opacity:1;stroke-width:0.264585"
         id="path10440" />
      <path
         d="m 16.316875,27.254861 c -0.186267,0 -0.299156,0.08749 -0.366889,0.197556 h -0.0085 l -0.03951,-0.16369 h -0.268112 v 1.411115 h 0.335845 v -0.979313 c 0.0254,-0.07902 0.09596,-0.158045 0.203201,-0.158045 0.141111,0 0.160867,0.112889 0.160867,0.279401 v 0.857957 h 0.335845 V 27.76004 c 0,-0.293512 -0.06773,-0.505179 -0.352779,-0.505179 z"
         style="fill:#fffff0;fill-opacity:1;stroke-width:0.264585"
         id="path10442" />
    </g>
    <g
       aria-label="Max"
       id="g10464"
       style="font-size:2.82223px;line-height:1.25;font-family:'PTQ Sans Narrow';-inkscape-font-specification:'PTQ Sans Narrow, Normal';display:inline;fill:#fffff0;fill-opacity:1;stroke-width:0.264583"
       transform="translate(-9.7670271,170.14134)">
      <path
         d="m 13.712382,23.346917 v 1.018825 h 0.355601 v -1.975561 h -0.335845 l -0.386645,0.849491 -0.06491,0.251178 h -0.01129 l -0.06773,-0.245534 -0.412046,-0.855135 h -0.34149 v 1.975561 h 0.335846 v -1.021648 l -0.05362,-0.381001 h 0.01693 l 0.104422,0.34149 0.34149,0.697091 h 0.118534 l 0.321734,-0.694269 0.104422,-0.338667 h 0.01411 z"
         style="fill:#fffff0;fill-opacity:1;stroke-width:0.264583"
         id="path10458" />
      <path
         d="m 14.739673,23.214272 c 0.172156,0 0.186267,0.121356 0.172156,0.310445 -0.381001,-0.01975 -0.668869,0.09313 -0.668869,0.451557 0,0.237067 0.127001,0.409223 0.358424,0.409223 0.166511,0 0.270934,-0.07902 0.333023,-0.189089 h 0.01129 l 0.05362,0.172156 h 0.273756 c -0.08467,-0.270934 -0.0254,-0.640646 -0.0254,-0.965203 0,-0.310445 -0.115711,-0.476957 -0.428979,-0.476957 -0.2032,0 -0.381001,0.04233 -0.499534,0.11289 l 0.08467,0.251178 c 0.08184,-0.04233 0.211667,-0.0762 0.335845,-0.0762 z m -0.149578,0.705557 c 0,-0.160867 0.160867,-0.197556 0.327378,-0.1778 v 0.234245 c -0.03387,0.06491 -0.09878,0.121356 -0.194733,0.121356 -0.09596,0 -0.132645,-0.07338 -0.132645,-0.177801 z"
         style="fill:#fffff0;fill-opacity:1;stroke-width:0.264583"
         id="path10460" />
      <path
         d="m 15.735915,23.643251 -0.364068,0.722491 h 0.361246 l 0.172156,-0.36689 0.06491,-0.200379 0.06209,0.200379 0.172156,0.36689 h 0.381001 l -0.361245,-0.73378 0.338668,-0.677335 h -0.364068 l -0.146756,0.333023 -0.05927,0.180623 -0.05362,-0.180623 -0.143934,-0.333023 H 15.40007 Z"
         style="fill:#fffff0;fill-opacity:1;stroke-width:0.264583"
         id="path10462" />
    </g>
    <g
       aria-label="Min"
       id="g10656"
       style="font-size:2.82223px;line-height:1.25;font-family:'PTQ Sans Narrow';-inkscape-font-specification:'PTQ Sans Narrow, Normal';display:inline;fill:#fffff0;fill-opacity:1;stroke-width:0.264585"
       transform="matrix(0.99998983,0,0,1,-10.150263,225.30205)">
      <path
         d="m 14.394942,27.681017 v 1.018825 h 0.355601 v -1.975561 h -0.335845 l -0.386646,0.849492 -0.06491,0.251178 h -0.01129 l -0.06773,-0.245534 -0.412046,-0.855136 h -0.34149 v 1.975561 h 0.335846 v -1.021647 l -0.05362,-0.381001 h 0.01693 l 0.104422,0.34149 0.34149,0.697091 h 0.118534 l 0.321734,-0.694269 0.104422,-0.338667 h 0.01411 z"
         style="fill:#fffff0;fill-opacity:1;stroke-width:0.264585"
         id="path10650" />
      <path
         d="m 15.027121,27.288727 v 1.411115 h 0.335845 v -1.411115 z m 0.166511,-0.208845 c 0.124178,0 0.217312,-0.06491 0.217312,-0.189089 0,-0.121356 -0.09313,-0.194734 -0.217312,-0.194734 -0.124178,0 -0.206023,0.0762 -0.206023,0.194734 0,0.121356 0.08184,0.189089 0.206023,0.189089 z"
         style="fill:#fffff0;fill-opacity:1;stroke-width:0.264585"
         id="path10652" />
      <path
         d="m 16.316875,27.254861 c -0.186267,0 -0.299156,0.08749 -0.366889,0.197556 h -0.0085 l -0.03951,-0.16369 h -0.268112 v 1.411115 h 0.335845 v -0.979313 c 0.0254,-0.07902 0.09596,-0.158045 0.203201,-0.158045 0.141111,0 0.160867,0.112889 0.160867,0.279401 v 0.857957 h 0.335845 V 27.76004 c 0,-0.293512 -0.06773,-0.505179 -0.352779,-0.505179 z"
         style="fill:#fffff0;fill-opacity:1;stroke-width:0.264585"
         id="path10654" />
    </g>
    <g
       aria-label="Max"
       id="g10676"
       style="font-size:2.82223px;line-height:1.25;font-family:'PTQ Sans Narrow';-inkscape-font-specification:'PTQ Sans Narrow, Normal';display:inline;fill:#fffff0;fill-opacity:1;stroke-width:0.264583"
       transform="translate(-9.7670271,218.61217)">
      <path
         d="m 13.712382,23.346917 v 1.018825 h 0.355601 v -1.975561 h -0.335845 l -0.386645,0.849491 -0.06491,0.251178 h -0.01129 l -0.06773,-0.245534 -0.412046,-0.855135 h -0.34149 v 1.975561 h 0.335846 v -1.021648 l -0.05362,-0.381001 h 0.01693 l 0.104422,0.34149 0.34149,0.697091 h 0.118534 l 0.321734,-0.694269 0.104422,-0.338667 h 0.01411 z"
         style="fill:#fffff0;fill-opacity:1;stroke-width:0.264583"
         id="path10670" />
      <path
         d="m 14.739673,23.214272 c 0.172156,0 0.186267,0.121356 0.172156,0.310445 -0.381001,-0.01975 -0.668869,0.09313 -0.668869,0.451557 0,0.237067 0.127001,0.409223 0.358424,0.409223 0.166511,0 0.270934,-0.07902 0.333023,-0.189089 h 0.01129 l 0.05362,0.172156 h 0.273756 c -0.08467,-0.270934 -0.0254,-0.640646 -0.0254,-0.965203 0,-0.310445 -0.115711,-0.476957 -0.428979,-0.476957 -0.2032,0 -0.381001,0.04233 -0.499534,0.11289 l 0.08467,0.251178 c 0.08184,-0.04233 0.211667,-0.0762 0.335845,-0.0762 z m -0.149578,0.705557 c 0,-0.160867 0.160867,-0.197556 0.327378,-0.1778 v 0.234245 c -0.03387,0.06491 -0.09878,0.121356 -0.194733,0.121356 -0.09596,0 -0.132645,-0.07338 -0.132645,-0.177801 z"
         style="fill:#fffff0;fill-opacity:1;stroke-width:0.264583"
         id="path10672" />
      <path
         d="m 15.735915,23.643251 -0.364068,0.722491 h 0.361246 l 0.172156,-0.36689 0.06491,-0.200379 0.06209,0.200379 0.172156,0.36689 h 0.381001 l -0.361245,-0.73378 0.338668,-0.677335 h -0.364068 l -0.146756,0.333023 -0.05927,0.180623 -0.05362,-0.180623 -0.143934,-0.333023 H 15.40007 Z"
         style="fill:#fffff0;fill-opacity:1;stroke-width:0.264583"
         id="path10674" />
    </g>
  </g>
  <g
     style="display:none"
     inkscape:label="components"
     id="layer2"
     inkscape:groupmode="layer">
    <circle
       inkscape:label="CV_Out"
       cy="41.499996"
       cx="5.0799999"
       id="circle918"
       style="fill:#0000ff;fill-rule:evenodd;stroke-width:0.264582"
       r="4" />
    <circle
       style="fill:#0000ff;fill-rule:evenodd;stroke-width:0.264582"
       id="circle920"
       cx="5.0799999"
       cy="30.499996"
       inkscape:label="CV_Out"
       r="4" />
    <circle
       style="fill:#00ff00;fill-rule:evenodd;stroke-width:0.264582"
       id="circle922"
       cx="5.0799999"
       cy="18.470837"
       inkscape:label="CV_Out"
       r="4" />
    <circle
       style="fill:#555d50;stroke-width:0.264999"
       id="path885"
       cx="5.0799999"
       cy="52.999996"
       r="3" />
    <circle
       style="display:inline;fill:#ff0000;fill-opacity:1;stroke:none;stroke-width:0.1;stroke-linejoin:bevel"
       id="path7147"
       cx="8"
       cy="25.250004"
       r="1" />
    <circle
       style="display:inline;fill:#ff0000;fill-opacity:1;stroke:none;stroke-width:0.1;stroke-linejoin:bevel"
       id="circle7491"
       cx="8"
       cy="36.25"
       r="1" />
    <circle
       inkscape:label="CV_Out"
       cy="115.5"
       cx="5.0799999"
       id="circle911"
       style="fill:#000000;fill-opacity:1;fill-rule:evenodd;stroke-width:0.264582"
       r="3" />
    <circle
       inkscape:label="CV_Out"
       cy="41.529163"
       cx="5.0799999"
       id="circle10466"
       style="fill:#0000ff;fill-rule:evenodd;stroke-width:0.264582"
       r="4" />
    <circle
       style="fill:#0000ff;fill-rule:evenodd;stroke-width:0.264582"
       id="circle10468"
       cx="5.0799999"
       cy="30.529163"
       inkscape:label="CV_Out"
       r="4" />
    <circle
       style="fill:#00ff00;fill-rule:evenodd;stroke-width:0.264582"
       id="circle10470"
       cx="5.0799999"
       cy="18.500004"
       inkscape:label="CV_Out"
       r="4" />
    <circle
       style="fill:#555d50;stroke-width:0.264999"
       id="circle10472"
       cx="5.0799999"
       cy="53.029163"
       r="3" />
    <circle
       inkscape:label="CV_Out"
       cy="89.999992"
       cx="5.0799999"
       id="circle10678"
       style="fill:#0000ff;fill-rule:evenodd;stroke-width:0.264582"
       r="4" />
    <circle
       style="fill:#0000ff;fill-rule:evenodd;stroke-width:0.264582"
       id="circle10680"
       cx="5.0799999"
       cy="78.999992"
       inkscape:label="CV_Out"
       r="4" />
    <circle
       style="fill:#00ff00;fill-rule:evenodd;stroke-width:0.264582"
       id="circle10682"
       cx="5.0799999"
       cy="66.970787"
       inkscape:label="CV_Out"
       r="4" />
    <circle
       style="fill:#555d50;stroke-width:0.264999"
       id="circle10684"
       cx="5.0799999"
       cy="101.49999"
       r="3" />
    <circle
       style="display:inline;fill:#ff0000;fill-opacity:1;stroke:none;stroke-width:0.1;stroke-linejoin:bevel"
       id="circle10686"
       cx="8"
       cy="73.75"
       r="1" />
    <circle
       style="display:inline;fill:#ff0000;fill-opacity:1;stroke:none;stroke-width:0.1;stroke-linejoin:bevel"
       id="circle10688"
       cx="8"
       cy="84.75"
       r="1" />
    <circle
       inkscape:label="CV_Out"
       cy="90.000046"
       cx="5.0799999"
       id="circle10690"
       style="fill:#0000ff;fill-rule:evenodd;stroke-width:0.264582"
       r="4" />
    <circle
       style="fill:#0000ff;fill-rule:evenodd;stroke-width:0.264582"
       id="circle10692"
       cx="5.0799999"
       cy="78.999992"
       inkscape:label="CV_Out"
       r="4" />
    <circle
       style="fill:#00ff00;fill-rule:evenodd;stroke-width:0.264582"
       id="circle10694"
       cx="5.0799999"
       cy="66.970787"
       inkscape:label="CV_Out"
       r="4" />
    <circle
       style="fill:#555d50;stroke-width:0.264999"
       id="circle10696"
       cx="5.0799999"
       cy="101.50005"
       r="3" />
  </g>
</svg>
