<?xml version="1.0" encoding="UTF-8" standalone="no"?>
<svg
   sodipodi:docname="PolySplit.svg"
   inkscape:version="1.1.1 (3bf5ae0d25, 2021-09-20)"
   id="svg8"
   version="1.1"
   viewBox="0 0 10.16 128.5"
   height="128.5mm"
   width="10.16mm"
   xmlns:inkscape="http://www.inkscape.org/namespaces/inkscape"
   xmlns:sodipodi="http://sodipodi.sourceforge.net/DTD/sodipodi-0.dtd"
   xmlns="http://www.w3.org/2000/svg"
   xmlns:svg="http://www.w3.org/2000/svg"
   xmlns:rdf="http://www.w3.org/1999/02/22-rdf-syntax-ns#"
   xmlns:cc="http://creativecommons.org/ns#"
   xmlns:dc="http://purl.org/dc/elements/1.1/">
  <defs
     id="defs2" />
  <sodipodi:namedview
     inkscape:snap-global="true"
     inkscape:snap-bbox-midpoints="true"
     inkscape:snap-bbox="true"
     inkscape:document-rotation="0"
     inkscape:window-maximized="0"
     inkscape:window-y="23"
     inkscape:window-x="26"
     inkscape:window-height="1356"
     inkscape:window-width="2008"
     inkscape:lockguides="false"
     inkscape:guide-bbox="true"
     showguides="true"
     units="mm"
     showgrid="false"
     inkscape:current-layer="layer1"
     inkscape:document-units="mm"
     inkscape:cy="274.7002"
     inkscape:cx="-52.88969"
     inkscape:zoom="2.1459759"
     inkscape:pageshadow="2"
     inkscape:pageopacity="0.0"
     borderopacity="1.0"
     bordercolor="#666666"
     pagecolor="#ffffff"
     id="base"
     inkscape:bbox-nodes="false"
     inkscape:bbox-paths="false"
     inkscape:snap-grids="false"
     inkscape:snap-others="false"
     inkscape:object-nodes="false"
     inkscape:snap-nodes="false"
     inkscape:snap-bbox-edge-midpoints="false"
     inkscape:pagecheckerboard="0">
    <sodipodi:guide
       inkscape:color="rgb(0,0,255)"
       inkscape:locked="false"
       inkscape:label=""
       id="guide875"
       orientation="0,1"
       position="5.0800001,43.499987" />
    <sodipodi:guide
       inkscape:color="rgb(0,0,255)"
       inkscape:locked="false"
       inkscape:label=""
       id="guide944"
       orientation="-1,0"
       position="5.0800002,58.864039" />
    <sodipodi:guide
       position="5.0800001,33.499986"
       orientation="0,1"
       id="guide911"
       inkscape:label=""
       inkscape:locked="false"
       inkscape:color="rgb(0,0,255)" />
    <sodipodi:guide
       position="1.7600001,48.283112"
       orientation="-1,0"
       id="guide904"
       inkscape:label=""
       inkscape:locked="false"
       inkscape:color="rgb(0,0,255)" />
    <sodipodi:guide
       position="7.0949548,23.604931"
       orientation="0,1"
       id="guide8059"
       inkscape:label=""
       inkscape:locked="false"
       inkscape:color="rgb(0,0,255)" />
    <sodipodi:guide
       position="1.7600003,37.5"
       orientation="0,1"
       id="guide8061"
       inkscape:label=""
       inkscape:locked="false"
       inkscape:color="rgb(0,0,255)" />
    <sodipodi:guide
       position="5.0800001,54.250002"
       orientation="0,1"
       id="guide941"
       inkscape:label=""
       inkscape:locked="false"
       inkscape:color="rgb(0,0,255)" />
    <sodipodi:guide
       position="1.7600002,27.5"
       orientation="0,1"
       id="guide962"
       inkscape:label=""
       inkscape:locked="false"
       inkscape:color="rgb(0,0,255)" />
    <sodipodi:guide
       position="1.7600007,17.5"
       orientation="0,1"
       id="guide964"
       inkscape:label=""
       inkscape:locked="false"
       inkscape:color="rgb(0,0,255)" />
    <sodipodi:guide
       position="1.7600001,47.500001"
       orientation="0,1"
       id="guide966"
       inkscape:label=""
       inkscape:locked="false"
       inkscape:color="rgb(0,0,255)" />
    <sodipodi:guide
       position="5.0800001,13.750001"
       orientation="0,1"
       id="guide968"
       inkscape:label=""
       inkscape:locked="false"
       inkscape:color="rgb(0,0,255)" />
  </sodipodi:namedview>
  <metadata
     id="metadata5">
    <rdf:RDF>
      <cc:Work
         rdf:about="">
        <dc:format>image/svg+xml</dc:format>
        <dc:type
           rdf:resource="http://purl.org/dc/dcmitype/StillImage" />
      </cc:Work>
    </rdf:RDF>
  </metadata>
  <g
     transform="translate(0,-168.5)"
     id="layer1"
     inkscape:groupmode="layer"
     inkscape:label="Layer 1"
     style="display:inline">
    <rect
       style="display:inline;opacity:1;fill:#bbbbb0;fill-opacity:1;stroke:none;stroke-width:1.131;stroke-miterlimit:4;stroke-dasharray:none"
       id="rect838"
       width="10.16"
       height="128.5"
       x="-5.5511151e-17"
       y="168.5" />
    <text
       xml:space="preserve"
       style="font-weight:bold;font-stretch:condensed;font-size:2.82223px;line-height:1.25;font-family:'PT Sans Narrow';-inkscape-font-specification:'PT Sans Narrow, Bold Condensed';stroke-width:0.264583"
       x="2.0529213"
       y="233.73691"
       id="text64"><tspan
         sodipodi:role="line"
         id="tspan62"
         x="2.0529213"
         y="233.73691"
         style="stroke-width:0.264583" /></text>
    <g
       aria-label="GRANDE"
       id="text2569"
       style="font-size:1.76389px;line-height:1.25;font-family:'Source Sans Pro';-inkscape-font-specification:'Source Sans Pro, Normal';text-align:center;letter-spacing:0.370417px;text-anchor:middle;stroke-width:0.264583"
       transform="translate(0,-0.83024)">
      <path
         d="m 1.6963961,292.52968 c 0.1552223,0 0.2822224,-0.0564 0.3580696,-0.13405 v -0.48684 H 1.6734655 v 0.12171 h 0.2451807 v 0.30163 c -0.045861,0.0423 -0.1252362,0.067 -0.208139,0.067 -0.2469446,0 -0.3827641,-0.18168 -0.3827641,-0.47272 0,-0.28751 0.1481667,-0.46567 0.3810002,-0.46567 0.1164167,0 0.1905001,0.0441 0.2487085,0.10407 l 0.081139,-0.0917 c -0.067028,-0.0723 -0.1728612,-0.14287 -0.3333752,-0.14287 -0.3069168,0 -0.5309309,0.22754 -0.5309309,0.59972 0,0.37747 0.2169585,0.59972 0.5221114,0.59972 z"
         style="stroke-width:0.264583"
         id="path2571" />
      <path
         d="m 2.7000468,292.50851 h 0.1481668 v -0.48859 h 0.208139 l 0.2786946,0.48859 h 0.1675696 l -0.2945696,-0.50447 c 0.1569862,-0.0406 0.2592918,-0.1464 0.2592918,-0.32632 0,-0.24165 -0.1693334,-0.32632 -0.4056947,-0.32632 H 2.7000468 Z m 0.1481668,-0.60854 v -0.42862 h 0.192264 c 0.1799168,0 0.2786946,0.0547 0.2786946,0.20637 0,0.14817 -0.098778,0.22225 -0.2786946,0.22225 z"
         style="stroke-width:0.264583"
         id="path2573" />
      <path
         d="m 4.2699053,291.86293 c 0.04057,-0.12876 0.077611,-0.25576 0.112889,-0.38982 h 0.00706 c 0.037042,0.13406 0.074083,0.26106 0.1164168,0.38982 l 0.054681,0.17463 H 4.2152247 Z m -0.3545419,0.64558 h 0.1499307 l 0.111125,-0.35101 H 4.5979889 L 4.70735,292.50851 H 4.8643363 L 4.4745166,291.3514 H 4.3051831 Z"
         style="stroke-width:0.264583"
         id="path2575" />
      <path
         d="M 5.3987927,292.50851 H 5.53814 v -0.60854 c 0,-0.11994 -0.010583,-0.24518 -0.019403,-0.3616 h 0.00706 c 0.038806,0.0847 0.081139,0.1711 0.1252362,0.24871 l 0.4127502,0.72143 H 6.2225293 V 291.3514 H 6.083182 v 0.60325 c 0,0.11995 0.010583,0.24695 0.019403,0.36689 h -0.00706 c -0.040569,-0.0847 -0.081139,-0.1711 -0.1252361,-0.24871 L 5.5575428,291.3514 H 5.3987927 Z"
         style="stroke-width:0.264583"
         id="path2577" />
      <path
         d="m 6.9086818,292.50851 h 0.2963335 c 0.3492503,0 0.5397504,-0.21519 0.5397504,-0.58384 0,-0.36689 -0.1905001,-0.57327 -0.5468059,-0.57327 h -0.289278 z m 0.1481668,-0.1217 v -0.9137 h 0.1305278 c 0.2698752,0 0.4039309,0.16051 0.4039309,0.45156 0,0.2928 -0.1340557,0.46214 -0.4039309,0.46214 z"
         style="stroke-width:0.264583"
         id="path2579" />
      <path
         d="m 8.3656535,292.50851 h 0.6843893 v -0.12523 H 8.5138202 v -0.41981 h 0.4374447 v -0.12523 H 8.5138202 v -0.3616 H 9.0324039 V 291.3514 H 8.3656535 Z"
         style="stroke-width:0.264583"
         id="path2581" />
    </g>
    <text
       xml:space="preserve"
       style="font-weight:bold;font-stretch:condensed;font-size:2.82223px;line-height:1.25;font-family:'PT Sans Narrow';-inkscape-font-specification:'PT Sans Narrow, Bold Condensed';text-align:center;text-anchor:middle;stroke-width:0.264583"
       x="7.705914"
       y="247.28606"
       id="text925"><tspan
         sodipodi:role="line"
         id="tspan923"
         x="7.705914"
         y="247.28606"
         style="stroke-width:0.264583" /></text>
    <rect
       style="fill:none;fill-opacity:1;stroke:#555d50;stroke-width:0.264583;stroke-opacity:1"
       id="rect1021"
       width="8.7349997"
       height="53.235416"
       x="0.71229148"
       y="179.63229"
       rx="1"
       ry="1" />
    <g
       id="g3435"
       transform="translate(0.375,-55.500002)">
      <g
         aria-label="1"
         id="text977"
         style="font-size:2.82223px;line-height:1.25;font-family:'PTQ Sans Narrow';-inkscape-font-specification:'PTQ Sans Narrow, Normal';fill:#000000;fill-opacity:1;stroke-width:0.264583"
         transform="translate(-2.6766126,-12.39492)">
        <path
           d="m 7.9035245,249.89657 v 0.29915 h 0.9595582 v -0.29915 H 8.5469929 V 248.1863 H 8.3494368 l -0.5446904,0.53058 0.1552227,0.18909 0.1862672,-0.14394 0.1157114,-0.16651 -0.036689,0.19191 v 1.10914 z"
           style="fill:#000000;fill-opacity:1;stroke-width:0.264583"
           id="path991" />
      </g>
      <g
         aria-label="2"
         id="text981"
         style="font-size:2.82223px;line-height:1.25;font-family:'PTQ Sans Narrow';-inkscape-font-specification:'PTQ Sans Narrow, Normal';fill:#000000;fill-opacity:1;stroke-width:0.264583"
         transform="translate(-2.9230648,-19.045145)">
        <path
           d="m 8.080832,258.33305 0.1298226,0.24553 c 0.056445,-0.0508 0.1636894,-0.11006 0.2681119,-0.11006 0.1580449,0 0.2342451,0.10724 0.2286006,0.26528 0.00282,0.0649 -0.00564,0.13265 -0.0254,0.20603 -0.045156,0.16369 -0.1157115,0.31609 -0.1919117,0.45438 -0.1185337,0.20602 -0.2596452,0.41204 -0.4007567,0.58702 v 0.19473 h 0.9906028 v -0.29915 H 8.6424558 l -0.1693338,0.0423 v -0.0141 l 0.1241782,-0.11571 c 0.1072447,-0.14393 0.2173117,-0.3302 0.2991563,-0.51365 0.0762,-0.16651 0.1524005,-0.37535 0.1524005,-0.60113 0,-0.0847 -0.014111,-0.15805 -0.036689,-0.22296 -0.067734,-0.17215 -0.208845,-0.29069 -0.4402679,-0.29069 -0.2229562,0 -0.3725344,0.0706 -0.4910681,0.17216 z"
           style="fill:#000000;fill-opacity:1;stroke-width:0.264583"
           id="path994" />
      </g>
      <g
         aria-label="3"
         id="text985"
         style="font-size:2.82223px;line-height:1.25;font-family:'PTQ Sans Narrow';-inkscape-font-specification:'PTQ Sans Narrow, Normal';fill:#000000;fill-opacity:1;stroke-width:0.264583"
         transform="translate(-3.2556567,-25.67193)">
        <path
           d="m 8.5037349,269.76019 -0.090311,0.28223 c 0.084667,0.0536 0.2624674,0.0875 0.4035789,0.0875 0.081845,0 0.1580449,-0.0113 0.2314229,-0.0395 0.2286006,-0.0818 0.3640677,-0.29633 0.3640677,-0.61242 0,-0.0903 -0.011289,-0.17216 -0.033867,-0.23989 -0.053622,-0.16651 -0.1693338,-0.29916 -0.3668899,-0.31609 l -0.1044225,0.0169 v -0.0141 l 0.1044225,-0.0762 0.3273787,-0.5334 v -0.20038 H 8.4360014 v 0.29916 h 0.3866455 l 0.1862672,-0.0254 -0.1354671,0.127 -0.2794008,0.47413 v 0.19191 h 0.1665116 c 0.208845,0 0.3160898,0.10725 0.3160898,0.31892 0,0.18909 -0.095956,0.3302 -0.282223,0.3302 -0.1213559,0 -0.2116673,-0.0282 -0.2906897,-0.0706 z"
           style="fill:#000000;fill-opacity:1;stroke-width:0.264583"
           id="path997" />
      </g>
      <g
         aria-label="4"
         id="text989"
         style="font-size:2.82223px;line-height:1.25;font-family:'PTQ Sans Narrow';-inkscape-font-specification:'PTQ Sans Narrow, Normal';fill:#000000;fill-opacity:1;stroke-width:0.264583"
         transform="translate(-2.9747102,-32.234005)">
        <path
           d="m 9.2641917,279.45613 v -0.28786 H 9.0158355 v -1.15147 h -0.293512 l -0.7224909,1.23049 v 0.20884 h 0.6970909 v 0.55034 h 0.318912 v -0.55034 z m -0.5672682,-0.72531 v 0.43745 h -0.256823 l -0.1439337,0.0226 0.1128892,-0.10725 0.2229562,-0.37818 0.084667,-0.2286 h 0.011289 z"
           style="fill:#000000;fill-opacity:1;stroke-width:0.264583"
           id="path1000" />
      </g>
      <g
         aria-label="16"
         id="text3047"
         style="font-size:2.82223px;line-height:1.25;font-family:'PTQ Sans Narrow';-inkscape-font-specification:'PTQ Sans Narrow, Normal';font-variant-ligatures:none;word-spacing:0px;stroke-width:0.264583"
         transform="translate(0.57730227,4.2037804)">
        <path
           d="m 3.9595764,283.18864 v 0.29915 h 0.9595583 v -0.29915 H 4.6030449 v -1.71027 H 4.4054888 l -0.5446904,0.53057 0.1552226,0.18909 0.1862672,-0.14393 0.1157115,-0.16651 -0.036689,0.19191 v 1.10914 z"
           id="path27730" />
        <path
           d="m 5.5259106,282.42099 c 0.064911,-0.32738 0.2681118,-0.59267 0.5842016,-0.67451 l -0.084667,-0.27376 c -0.1128892,0.0254 -0.2173117,0.0706 -0.318912,0.13829 -0.3245565,0.21731 -0.5221126,0.62089 -0.5221126,1.1684 0,0.12983 0.014111,0.24272 0.042333,0.33867 0.070556,0.23707 0.2286006,0.40922 0.527757,0.40922 0.079022,0 0.1495782,-0.0141 0.2173117,-0.0452 0.2032006,-0.0903 0.3273787,-0.30762 0.3273787,-0.60678 0,-0.1016 -0.014111,-0.18909 -0.036689,-0.26529 -0.059267,-0.19191 -0.1919116,-0.34149 -0.4346234,-0.34149 -0.1495782,0 -0.2427118,0.0677 -0.3019786,0.1524 z m 0.2201339,0.80716 c -0.042333,0 -0.079022,-0.008 -0.1072447,-0.0311 -0.087489,-0.0621 -0.1298226,-0.18909 -0.1298226,-0.34149 v -0.0621 c 0,-0.0226 0,-0.0423 0.00282,-0.0649 0.031045,-0.0818 0.1128892,-0.16086 0.2286006,-0.16086 0.1806228,0 0.2342451,0.12982 0.2342451,0.32737 0,0.18063 -0.070556,0.33303 -0.2286006,0.33303 z"
           id="path27732" />
      </g>
      <g
         aria-label="5"
         id="text12891"
         style="font-size:2.82223px;line-height:1.25;font-family:'PTQ Sans Narrow';-inkscape-font-specification:'PTQ Sans Narrow, Normal';font-variant-ligatures:none;word-spacing:0px;stroke-width:0.264583"
         transform="translate(26.803895,-3.5409651)">
        <path
           d="m -21.145185,253.35789 -0.09313,0.0113 v -0.40358 h 0.533401 v -0.32738 h -0.821269 v 1.03012 l 0.183445,-0.0113 c 0.234245,0 0.361246,0.1016 0.361246,0.33584 0,0.20603 -0.107245,0.35278 -0.310446,0.35278 -0.110067,0 -0.200378,-0.0169 -0.268111,-0.0536 l -0.08749,0.28505 c 0.08467,0.0452 0.23989,0.0762 0.372535,0.0762 0.09031,0 0.172156,-0.0141 0.251178,-0.0423 0.234245,-0.0847 0.378179,-0.3048 0.378179,-0.63218 0,-0.3556 -0.172156,-0.60678 -0.499535,-0.62089 z"
           id="path27670" />
      </g>
      <g
         aria-label="7"
         id="text14457"
         style="font-size:2.82223px;line-height:1.25;font-family:'PTQ Sans Narrow';-inkscape-font-specification:'PTQ Sans Narrow, Normal';font-variant-ligatures:none;word-spacing:0px;stroke-width:0.264583"
         transform="translate(27.957287,-6.0356404)">
        <path
           d="m -22.733198,263.78259 h 0.327379 l 0.640646,-1.86831 v -0.10725 h -1.069625 v 0.32174 h 0.59549 l 0.141112,-0.0282 -0.1016,0.13829 z"
           id="path27673" />
      </g>
      <g
         aria-label="8"
         id="text15649"
         style="font-size:2.82223px;line-height:1.25;font-family:'PTQ Sans Narrow';-inkscape-font-specification:'PTQ Sans Narrow, Normal';font-variant-ligatures:none;word-spacing:0px;stroke-width:0.264583"
         transform="translate(28.019183,-6.2293345)">
        <path
           d="m -22.110703,266.26206 c 0.13829,-0.11853 0.23989,-0.25117 0.23989,-0.49671 0,-0.29633 -0.18909,-0.47696 -0.479779,-0.47696 -0.31609,0 -0.502357,0.20885 -0.502357,0.52212 0,0.23989 0.09878,0.37818 0.237067,0.48542 -0.155222,0.11571 -0.279401,0.26811 -0.279401,0.5334 0,0.0818 0.01129,0.15522 0.03669,0.21731 0.07056,0.18063 0.23989,0.29634 0.491068,0.29634 0.0762,0 0.146756,-0.0113 0.21449,-0.0367 0.191912,-0.0706 0.324556,-0.24271 0.324556,-0.508 0,-0.27376 -0.110067,-0.41487 -0.282223,-0.53623 z m -0.251178,0.78176 c -0.149578,0 -0.225779,-0.127 -0.225779,-0.2794 0,-0.15804 0.06773,-0.26247 0.174979,-0.34431 0.115711,0.0903 0.259645,0.17498 0.259645,0.37818 0,0.1524 -0.06773,0.24553 -0.208845,0.24553 z m 0.0085,-1.45627 c 0.115711,0 0.1778,0.11571 0.1778,0.24271 0,0.14958 -0.05645,0.23425 -0.129823,0.32174 -0.112889,-0.0677 -0.225778,-0.1524 -0.225778,-0.33585 0,-0.11853 0.05362,-0.2286 0.177801,-0.2286 z"
           id="path27676" />
      </g>
      <g
         aria-label="6"
         id="text11633"
         style="font-size:2.82223px;line-height:1.25;font-family:'PTQ Sans Narrow';-inkscape-font-specification:'PTQ Sans Narrow, Normal';font-variant-ligatures:none;word-spacing:0px;stroke-width:0.264583"
         transform="translate(27.321793,-5.6639702)">
        <path
           d="m -21.880387,259.01694 c 0.06491,-0.32738 0.268111,-0.59267 0.584201,-0.67452 l -0.08467,-0.27375 c -0.112889,0.0254 -0.217311,0.0706 -0.318912,0.13829 -0.324556,0.21731 -0.522112,0.62089 -0.522112,1.1684 0,0.12982 0.01411,0.24271 0.04233,0.33867 0.07056,0.23707 0.228601,0.40922 0.527757,0.40922 0.07902,0 0.149578,-0.0141 0.217312,-0.0451 0.203201,-0.0903 0.327379,-0.30763 0.327379,-0.60678 0,-0.1016 -0.01411,-0.18909 -0.03669,-0.26529 -0.05927,-0.19191 -0.191912,-0.34149 -0.434624,-0.34149 -0.149578,0 -0.242712,0.0677 -0.301978,0.1524 z m 0.220134,0.80716 c -0.04233,0 -0.07902,-0.008 -0.107245,-0.031 -0.08749,-0.0621 -0.129823,-0.18909 -0.129823,-0.34149 v -0.0621 c 0,-0.0226 0,-0.0423 0.0028,-0.0649 0.03104,-0.0818 0.11289,-0.16087 0.228601,-0.16087 0.180623,0 0.234245,0.12983 0.234245,0.32738 0,0.18062 -0.07056,0.33303 -0.2286,0.33303 z"
           id="path27667" />
      </g>
      <g
         aria-label="9"
         id="text19129"
         style="font-size:2.82223px;line-height:1.25;font-family:'PTQ Sans Narrow';-inkscape-font-specification:'PTQ Sans Narrow, Normal';font-variant-ligatures:none;word-spacing:0px;stroke-width:0.264583"
         transform="translate(21.616971,7.5821304)">
        <path
           d="m -15.753643,255.94147 c -0.05645,0.33302 -0.248356,0.57009 -0.575735,0.635 l 0.07902,0.28222 c 0.259645,-0.0282 0.457201,-0.16368 0.59549,-0.34713 0.169334,-0.22578 0.259645,-0.55033 0.259645,-0.96238 0,-0.4318 -0.1778,-0.74507 -0.575735,-0.74507 -0.372534,0 -0.553157,0.2794 -0.553157,0.65758 0,0.10725 0.01411,0.19756 0.04233,0.27376 0.07055,0.18062 0.211667,0.33302 0.451556,0.33302 0.143934,0 0.208845,-0.0367 0.276579,-0.127 z m -0.220134,-0.8382 c 0.04516,0 0.08184,0.0113 0.115712,0.0339 0.09878,0.0734 0.138289,0.21732 0.138289,0.38947 0,0.0452 -0.0028,0.0931 -0.0085,0.12982 -0.04233,0.0706 -0.115711,0.11289 -0.225778,0.11289 -0.169334,0 -0.245534,-0.14111 -0.245534,-0.32737 0,-0.17781 0.05927,-0.33867 0.225778,-0.33867 z"
           id="path27679" />
      </g>
      <g
         aria-label="10"
         id="text20013"
         style="font-size:2.82223px;line-height:1.25;font-family:'PTQ Sans Narrow';-inkscape-font-specification:'PTQ Sans Narrow, Normal';font-variant-ligatures:none;word-spacing:0px;stroke-width:0.264583"
         transform="translate(21.142336,6.9414402)">
        <path
           d="m -16.613927,260.48789 v 0.29916 h 0.959558 v -0.29916 h -0.316089 v -1.71027 h -0.197556 l -0.544691,0.53058 0.155223,0.18909 0.186267,-0.14393 0.115711,-0.16652 -0.03669,0.19192 v 1.10913 z"
           id="path27682" />
        <path
           d="m -15.41166,259.79645 c 0,0.18344 0.01129,0.33866 0.03387,0.46849 0.05645,0.31609 0.183445,0.56162 0.541869,0.56162 0.208845,0 0.338667,-0.0903 0.426156,-0.23425 0.11289,-0.19191 0.152401,-0.46566 0.152401,-0.79586 0,-0.18345 -0.01411,-0.34149 -0.03669,-0.47132 -0.05645,-0.31326 -0.18909,-0.55315 -0.541868,-0.55315 -0.211668,0 -0.34149,0.0931 -0.426157,0.23706 -0.115712,0.19192 -0.149578,0.46285 -0.149578,0.78741 z m 0.335845,0 c 0,-0.21732 0.0056,-0.40923 0.05645,-0.55881 0.02822,-0.0931 0.0762,-0.16651 0.183445,-0.16651 0.08749,0 0.149578,0.0593 0.186267,0.17498 0.03669,0.11853 0.05644,0.30198 0.05644,0.55034 0,0.22577 -0.0085,0.41486 -0.05644,0.56444 -0.03104,0.0931 -0.07902,0.16651 -0.183445,0.16651 -0.08749,0 -0.149578,-0.0564 -0.186267,-0.17498 -0.03951,-0.11853 -0.05645,-0.30197 -0.05645,-0.55597 z"
           id="path27684" />
      </g>
      <g
         aria-label="11"
         id="text20567"
         style="font-size:2.82223px;line-height:1.25;font-family:'PTQ Sans Narrow';-inkscape-font-specification:'PTQ Sans Narrow, Normal';font-variant-ligatures:none;word-spacing:0px;stroke-width:0.264583"
         transform="translate(21.481799,7.5554551)">
        <path
           d="m -16.929398,263.21799 v 0.29916 h 0.959558 v -0.29916 h -0.31609 v -1.71027 h -0.197556 l -0.544691,0.53058 0.155223,0.18909 0.186267,-0.14393 0.115712,-0.16651 -0.03669,0.19191 v 1.10913 z"
           id="path27687" />
        <path
           d="m -15.580376,263.21799 v 0.29916 h 0.959558 v -0.29916 h -0.31609 v -1.71027 h -0.197556 l -0.54469,0.53058 0.155223,0.18909 0.186267,-0.14393 0.115711,-0.16651 -0.03669,0.19191 v 1.10913 z"
           id="path27689" />
      </g>
      <g
         aria-label="12"
         id="text21539"
         style="font-size:2.82223px;line-height:1.25;font-family:'PTQ Sans Narrow';-inkscape-font-specification:'PTQ Sans Narrow, Normal';font-variant-ligatures:none;word-spacing:0px;stroke-width:0.264583"
         transform="translate(21.904053,7.84387)">
        <path
           d="m -17.331897,266.25959 v 0.29916 h 0.959559 v -0.29916 h -0.31609 v -1.71027 h -0.197556 l -0.544691,0.53058 0.155223,0.18909 0.186267,-0.14394 0.115712,-0.16651 -0.03669,0.19191 v 1.10914 z"
           id="path27692" />
        <path
           d="m -16.061897,264.71583 0.129823,0.24553 c 0.05644,-0.0508 0.163689,-0.11006 0.268112,-0.11006 0.158045,0 0.234245,0.10724 0.2286,0.26529 0.0028,0.0649 -0.0056,0.13264 -0.0254,0.20602 -0.04515,0.16369 -0.115711,0.31609 -0.191911,0.45438 -0.118534,0.20602 -0.259646,0.41204 -0.400757,0.58702 v 0.19474 h 0.990603 v -0.29916 h -0.437446 l -0.169334,0.0423 v -0.0141 l 0.124178,-0.11571 c 0.107245,-0.14393 0.217312,-0.3302 0.299157,-0.51365 0.0762,-0.16651 0.1524,-0.37535 0.1524,-0.60113 0,-0.0847 -0.01411,-0.15804 -0.03669,-0.22296 -0.06773,-0.17215 -0.208845,-0.29069 -0.440268,-0.29069 -0.222956,0 -0.372534,0.0706 -0.491068,0.17216 z"
           id="path27694" />
      </g>
      <g
         aria-label="13"
         id="text22489"
         style="font-size:2.82223px;line-height:1.25;font-family:'PTQ Sans Narrow';-inkscape-font-specification:'PTQ Sans Narrow, Normal';font-variant-ligatures:none;word-spacing:0px;stroke-width:0.264583"
         transform="translate(21.606299,9.0447848)">
        <path
           d="m -17.042611,268.36326 v 0.29915 h 0.959558 v -0.29915 h -0.31609 v -1.71027 h -0.197556 l -0.54469,0.53058 0.155223,0.18909 0.186267,-0.14394 0.115711,-0.16651 -0.03669,0.19191 v 1.10914 z"
           id="path27697" />
        <path
           d="m -15.665366,268.33221 -0.09031,0.28223 c 0.08467,0.0536 0.262468,0.0875 0.403579,0.0875 0.08185,0 0.158045,-0.0113 0.231423,-0.0395 0.228601,-0.0818 0.364068,-0.29633 0.364068,-0.61242 0,-0.0903 -0.01129,-0.17216 -0.03387,-0.23989 -0.05362,-0.16651 -0.169334,-0.29916 -0.36689,-0.31609 l -0.104422,0.0169 v -0.0141 l 0.104422,-0.0762 0.327379,-0.5334 v -0.20038 H -15.7331 v 0.29916 h 0.386646 l 0.186267,-0.0254 -0.135467,0.127 -0.279401,0.47413 v 0.19192 h 0.166512 c 0.208845,0 0.316089,0.10724 0.316089,0.31891 0,0.18909 -0.09596,0.3302 -0.282223,0.3302 -0.121356,0 -0.211667,-0.0282 -0.290689,-0.0706 z"
           id="path27699" />
      </g>
      <g
         aria-label="14"
         id="text24011"
         style="font-size:2.82223px;line-height:1.25;font-family:'PTQ Sans Narrow';-inkscape-font-specification:'PTQ Sans Narrow, Normal';font-variant-ligatures:none;word-spacing:0px;stroke-width:0.264583"
         transform="translate(21.208467,8.9770247)">
        <path
           d="m -16.709689,271.77796 v 0.29916 h 0.959558 v -0.29916 h -0.31609 v -1.71027 h -0.197556 l -0.54469,0.53058 0.155223,0.18909 0.186267,-0.14393 0.115711,-0.16652 -0.03669,0.19192 v 1.10913 z"
           id="path27702" />
        <path
           d="m -14.293864,271.52678 v -0.28786 h -0.248356 v -1.15147 h -0.293512 l -0.722491,1.23049 v 0.20884 h 0.697091 v 0.55034 h 0.318912 v -0.55034 z m -0.567268,-0.72531 v 0.43745 h -0.256823 l -0.143934,0.0226 0.11289,-0.10724 0.222956,-0.37818 0.08467,-0.2286 h 0.01129 z"
           id="path27704" />
      </g>
      <g
         aria-label="15"
         id="text25921"
         style="font-size:2.82223px;line-height:1.25;font-family:'PTQ Sans Narrow';-inkscape-font-specification:'PTQ Sans Narrow, Normal';font-variant-ligatures:none;word-spacing:0px;stroke-width:0.264583"
         transform="translate(21.627915,8.7821496)">
        <path
           d="m -17.054349,275.28025 v 0.29916 h 0.959558 v -0.29916 h -0.316089 v -1.71027 h -0.197557 l -0.54469,0.53058 0.155223,0.18909 0.186267,-0.14394 0.115711,-0.16651 -0.03669,0.19191 v 1.10914 z"
           id="path27707" />
        <path
           d="m -15.287636,274.32351 -0.09313,0.0113 v -0.40358 h 0.533401 v -0.32737 h -0.821268 v 1.03011 l 0.183444,-0.0113 c 0.234246,0 0.361246,0.1016 0.361246,0.33585 0,0.20602 -0.107245,0.35277 -0.310445,0.35277 -0.110067,0 -0.200379,-0.0169 -0.268112,-0.0536 l -0.08749,0.28505 c 0.08467,0.0452 0.239889,0.0762 0.372534,0.0762 0.09031,0 0.172156,-0.0141 0.251178,-0.0423 0.234246,-0.0847 0.378179,-0.3048 0.378179,-0.63218 0,-0.3556 -0.172156,-0.60677 -0.499534,-0.62089 z"
           id="path27709" />
      </g>
    </g>
    <rect
       style="display:inline;fill:#555d50;fill-opacity:1;stroke-width:0.264583"
       id="rect913"
       width="8.8000002"
       height="40.900002"
       x="0.67999911"
       y="247.5"
       rx="1"
       ry="1" />
    <rect
       style="display:inline;fill:#555d50;fill-opacity:1;stroke:none;stroke-width:0.264583;stroke-opacity:1"
       id="rect1023"
       width="9"
       height="2"
       x="0.58000064"
       y="247.50002" />
    <g
       aria-label="1"
       id="text977-1"
       style="font-size:2.82223px;line-height:1.25;font-family:'PTQ Sans Narrow';-inkscape-font-specification:'PTQ Sans Narrow, Normal';display:inline;fill:#fffff0;fill-opacity:1;stroke-width:0.264583"
       transform="translate(-6.5739145,0.30899114)">
      <path
         d="m 7.9035245,249.89657 v 0.29915 h 0.9595582 v -0.29915 H 8.5469929 V 248.1863 H 8.3494368 l -0.5446904,0.53058 0.1552227,0.18909 0.1862672,-0.14394 0.1157114,-0.16651 -0.036689,0.19191 v 1.10914 z"
         style="fill:#fffff0;fill-opacity:1;stroke-width:0.264583"
         id="path991-2" />
    </g>
    <g
       aria-label="2"
       id="text981-9"
       style="font-size:2.82223px;line-height:1.25;font-family:'PTQ Sans Narrow';-inkscape-font-specification:'PTQ Sans Narrow, Normal';display:inline;fill:#fffff0;fill-opacity:1;stroke-width:0.264583"
       transform="translate(-6.8203665,0.33158614)">
      <path
         d="m 8.080832,258.33305 0.1298226,0.24553 c 0.056445,-0.0508 0.1636894,-0.11006 0.2681119,-0.11006 0.1580449,0 0.2342451,0.10724 0.2286006,0.26528 0.00282,0.0649 -0.00564,0.13265 -0.0254,0.20603 -0.045156,0.16369 -0.1157115,0.31609 -0.1919117,0.45438 -0.1185337,0.20602 -0.2596452,0.41204 -0.4007567,0.58702 v 0.19473 h 0.9906028 v -0.29915 H 8.6424558 l -0.1693338,0.0423 v -0.0141 l 0.1241782,-0.11571 c 0.1072447,-0.14393 0.2173117,-0.3302 0.2991563,-0.51365 0.0762,-0.16651 0.1524005,-0.37535 0.1524005,-0.60113 0,-0.0847 -0.014111,-0.15805 -0.036689,-0.22296 -0.067734,-0.17215 -0.208845,-0.29069 -0.4402679,-0.29069 -0.2229562,0 -0.3725344,0.0706 -0.4910681,0.17216 z"
         style="fill:#fffff0;fill-opacity:1;stroke-width:0.264583"
         id="path994-3" />
    </g>
    <g
       aria-label="3"
       id="text985-9"
       style="font-size:2.82223px;line-height:1.25;font-family:'PTQ Sans Narrow';-inkscape-font-specification:'PTQ Sans Narrow, Normal';display:inline;fill:#fffff0;fill-opacity:1;stroke-width:0.264583"
       transform="translate(-7.1529585,0.37762114)">
      <path
         d="m 8.5037349,269.76019 -0.090311,0.28223 c 0.084667,0.0536 0.2624674,0.0875 0.4035789,0.0875 0.081845,0 0.1580449,-0.0113 0.2314229,-0.0395 0.2286006,-0.0818 0.3640677,-0.29633 0.3640677,-0.61242 0,-0.0903 -0.011289,-0.17216 -0.033867,-0.23989 -0.053622,-0.16651 -0.1693338,-0.29916 -0.3668899,-0.31609 l -0.1044225,0.0169 v -0.0141 l 0.1044225,-0.0762 0.3273787,-0.5334 v -0.20038 H 8.4360014 v 0.29916 h 0.3866455 l 0.1862672,-0.0254 -0.1354671,0.127 -0.2794008,0.47413 v 0.19191 h 0.1665116 c 0.208845,0 0.3160898,0.10725 0.3160898,0.31892 0,0.18909 -0.095956,0.3302 -0.282223,0.3302 -0.1213559,0 -0.2116673,-0.0282 -0.2906897,-0.0706 z"
         style="fill:#fffff0;fill-opacity:1;stroke-width:0.264583"
         id="path997-0" />
    </g>
    <g
       aria-label="4"
       id="text989-8"
       style="font-size:2.82223px;line-height:1.25;font-family:'PTQ Sans Narrow';-inkscape-font-specification:'PTQ Sans Narrow, Normal';display:inline;fill:#fffff0;fill-opacity:1;stroke-width:0.264583"
       transform="translate(-6.8720115,0.48836614)">
      <path
         d="m 9.2641917,279.45613 v -0.28786 H 9.0158355 v -1.15147 h -0.293512 l -0.7224909,1.23049 v 0.20884 h 0.6970909 v 0.55034 h 0.318912 v -0.55034 z m -0.5672682,-0.72531 v 0.43745 h -0.256823 l -0.1439337,0.0226 0.1128892,-0.10725 0.2229562,-0.37818 0.084667,-0.2286 h 0.011289 z"
         style="fill:#fffff0;fill-opacity:1;stroke-width:0.264583"
         id="path1000-8" />
    </g>
    <rect
       style="display:inline;fill:none;fill-opacity:1;stroke:#555d50;stroke-width:0.264583;stroke-opacity:1"
       id="rect1021-5"
       width="8.7354164"
       height="53.235416"
       x="0.71229148"
       y="235.13229"
       rx="1"
       ry="1" />
    <g
       aria-label="PSplt"
       id="text7079"
       style="font-size:4.9389px;line-height:1.25;font-family:'PTQ Sans Narrow';-inkscape-font-specification:'PTQ Sans Narrow, Normal';font-variant-ligatures:none;letter-spacing:0px;word-spacing:0px;stroke-width:0.264583"
       transform="translate(-0.44898852,13.56441)">
      <path
         d="m 1.7853145,160.45534 c -0.2864562,0 -0.5877291,0.0346 -0.81491848,0.084 V 163.962 H 1.5926974 v -1.19028 c 0.064206,0.0198 0.1728615,0.0198 0.2568228,0.0198 h 0.064206 c 0.7210794,0 1.1013747,-0.45438 1.1013747,-1.19521 0,-0.80504 -0.4395621,-1.14089 -1.2297861,-1.14089 z m 0.5778513,1.13595 c 0,0.40499 -0.1580448,0.64699 -0.5482179,0.64699 -0.039511,0 -0.197556,-0.0148 -0.2222505,-0.0247 v -1.1804 c 0.064206,-0.0148 0.148167,-0.0247 0.2518839,-0.0247 0.3506619,0 0.5185845,0.22225 0.5185845,0.58279 z"
         id="path8595" />
      <path
         d="m 3.4003312,163.28039 -0.2024949,0.5581 c 0.197556,0.12347 0.5383401,0.19261 0.889002,0.19261 0.6716904,0 1.0717413,-0.34572 1.0717413,-1.02729 0,-0.17286 -0.034572,-0.32103 -0.093839,-0.44944 -0.1234725,-0.24694 -0.3210285,-0.43462 -0.543279,-0.57785 -0.197556,-0.12347 -0.4000509,-0.25188 -0.5383401,-0.40993 -0.064206,-0.0691 -0.093839,-0.1531 -0.093839,-0.24694 0,-0.21731 0.1629837,-0.31115 0.4000509,-0.31115 0.2271894,0 0.4790733,0.0741 0.6074847,0.15804 l 0.1926171,-0.54822 c -0.197556,-0.11359 -0.5136456,-0.18273 -0.8297352,-0.18273 -0.6173625,0 -0.9927189,0.30621 -0.9927189,0.92851 0,0.18274 0.029633,0.33584 0.093839,0.45932 0.1185336,0.24694 0.3160896,0.42968 0.5383401,0.56797 0.197556,0.12841 0.4000509,0.25188 0.543279,0.41487 0.059267,0.0741 0.093839,0.16298 0.093839,0.2667 0,0.25682 -0.1679226,0.38523 -0.49389,0.38523 -0.2420061,0 -0.5037678,-0.0889 -0.642057,-0.1778 z"
         id="path8597" />
      <path
         d="m 6.432812,164.0311 c 0.6865071,0 0.9235743,-0.61242 0.9235743,-1.36807 0,-0.43956 -0.064206,-0.75565 -0.1926171,-0.94333 -0.1284114,-0.18768 -0.3160896,-0.28646 -0.5630346,-0.28646 -0.3160896,0 -0.4691955,0.13335 -0.6025458,0.34079 h -0.014817 l -0.059267,-0.28152 H 5.4845432 v 3.45723 h 0.5877291 v -1.0026 c 0.098778,0.0642 0.197556,0.084 0.3605397,0.084 z m 0.3160896,-1.38289 c 0,0.31609 -0.034572,0.53834 -0.1037169,0.66675 -0.069145,0.12842 -0.1728615,0.19262 -0.3012729,0.19262 -0.1333503,0 -0.2074338,-0.0296 -0.2716395,-0.0988 v -1.16064 c 0.059267,-0.19262 0.1679226,-0.29139 0.3358452,-0.29139 0.296334,0 0.3407841,0.33584 0.3407841,0.69144 z"
         id="path8599" />
      <path
         d="m 8.1959922,164.02123 c 0.1629837,0 0.4000509,-0.0445 0.49389,-0.10866 l -0.054328,-0.47413 c -0.069145,0.0296 -0.1234725,0.0444 -0.197556,0.0444 -0.1382892,0 -0.148167,-0.14817 -0.148167,-0.32103 v -2.65713 h -0.587729 v 2.97322 c 0,0.37535 0.1382892,0.54328 0.49389,0.54328 z"
         id="path8601" />
      <path
         d="m 9.5344247,164.02123 c 0.2074338,0 0.4099287,-0.0543 0.5531563,-0.12841 l -0.07408,-0.4692 c -0.0889,0.0395 -0.1531059,0.0593 -0.2617617,0.0593 -0.1827393,0 -0.1926171,-0.16793 -0.1926171,-0.39018 v -1.07668 h 0.4790728 v -0.52352 H 9.5591192 v -0.647 l -0.5877291,0.18274 v 0.46426 H 8.6997506 v 0.52352 h 0.2716395 v 1.294 c 0,0.45931 0.1382892,0.7112 0.5630346,0.7112 z"
         id="path8603" />
    </g>
    <path
       style="fill:none;fill-opacity:1;stroke:#555d50;stroke-width:0.150001;stroke-linecap:butt;stroke-linejoin:miter;stroke-miterlimit:4;stroke-dasharray:none;stroke-opacity:1"
       d="m 3.8240209,232.865 4.9519416,0.005"
       id="path1156" />
    <g
       id="g3485"
       transform="matrix(1.0348052,0,0,1,0.10816878,-55.500002)"
       style="stroke-width:0.983039">
      <path
         style="fill:none;fill-opacity:1;stroke:#555d50;stroke-width:0.147457;stroke-linecap:butt;stroke-linejoin:miter;stroke-miterlimit:4;stroke-dasharray:none;stroke-opacity:1"
         d="m 4.0750758,238.45718 4.9519416,0.005"
         id="path30748" />
      <path
         style="fill:none;fill-opacity:1;stroke:#555d50;stroke-width:0.147457;stroke-linecap:butt;stroke-linejoin:miter;stroke-miterlimit:4;stroke-dasharray:none;stroke-opacity:1"
         d="m 4.0750758,241.78437 4.9519416,0.005"
         id="path31280" />
      <path
         style="fill:none;fill-opacity:1;stroke:#555d50;stroke-width:0.147457;stroke-linecap:butt;stroke-linejoin:miter;stroke-miterlimit:4;stroke-dasharray:none;stroke-opacity:1"
         d="m 4.0750758,245.11156 4.9519416,0.005"
         id="path31282" />
      <path
         style="fill:none;fill-opacity:1;stroke:#555d50;stroke-width:0.147457;stroke-linecap:butt;stroke-linejoin:miter;stroke-miterlimit:4;stroke-dasharray:none;stroke-opacity:1"
         d="m 4.0750758,248.43874 4.9519416,0.005"
         id="path31284" />
      <path
         style="fill:none;fill-opacity:1;stroke:#555d50;stroke-width:0.147457;stroke-linecap:butt;stroke-linejoin:miter;stroke-miterlimit:4;stroke-dasharray:none;stroke-opacity:1"
         d="m 4.0750758,251.76594 4.9519416,0.005"
         id="path31286" />
      <path
         style="fill:none;fill-opacity:1;stroke:#555d50;stroke-width:0.147457;stroke-linecap:butt;stroke-linejoin:miter;stroke-miterlimit:4;stroke-dasharray:none;stroke-opacity:1"
         d="m 4.0750758,255.09312 4.9519416,0.005"
         id="path31288" />
      <path
         style="fill:none;fill-opacity:1;stroke:#555d50;stroke-width:0.147457;stroke-linecap:butt;stroke-linejoin:miter;stroke-miterlimit:4;stroke-dasharray:none;stroke-opacity:1"
         d="m 4.0750758,258.42031 4.9519416,0.005"
         id="path31290" />
      <path
         style="fill:none;fill-opacity:1;stroke:#555d50;stroke-width:0.147457;stroke-linecap:butt;stroke-linejoin:miter;stroke-miterlimit:4;stroke-dasharray:none;stroke-opacity:1"
         d="m 4.0750758,261.7475 4.9519416,0.005"
         id="path31440" />
      <path
         style="fill:none;fill-opacity:1;stroke:#555d50;stroke-width:0.147457;stroke-linecap:butt;stroke-linejoin:miter;stroke-miterlimit:4;stroke-dasharray:none;stroke-opacity:1"
         d="m 4.0750758,265.07468 4.9519416,0.005"
         id="path31442" />
      <path
         style="fill:none;fill-opacity:1;stroke:#555d50;stroke-width:0.147457;stroke-linecap:butt;stroke-linejoin:miter;stroke-miterlimit:4;stroke-dasharray:none;stroke-opacity:1"
         d="m 4.0750758,268.40187 4.9519416,0.005"
         id="path31444" />
      <path
         style="fill:none;fill-opacity:1;stroke:#555d50;stroke-width:0.147457;stroke-linecap:butt;stroke-linejoin:miter;stroke-miterlimit:4;stroke-dasharray:none;stroke-opacity:1"
         d="m 4.0750758,271.72905 4.9519416,0.005"
         id="path31446" />
      <path
         style="fill:none;fill-opacity:1;stroke:#555d50;stroke-width:0.147457;stroke-linecap:butt;stroke-linejoin:miter;stroke-miterlimit:4;stroke-dasharray:none;stroke-opacity:1"
         d="m 4.0750758,275.05625 4.9519416,0.005"
         id="path31448" />
      <path
         style="fill:none;fill-opacity:1;stroke:#555d50;stroke-width:0.147457;stroke-linecap:butt;stroke-linejoin:miter;stroke-miterlimit:4;stroke-dasharray:none;stroke-opacity:1"
         d="m 4.0750757,278.38344 4.9519416,0.005"
         id="path31450" />
      <path
         style="fill:none;fill-opacity:1;stroke:#555d50;stroke-width:0.147457;stroke-linecap:butt;stroke-linejoin:miter;stroke-miterlimit:4;stroke-dasharray:none;stroke-opacity:1"
         d="m 4.0750757,281.71062 4.9519416,0.005"
         id="path31452" />
      <path
         style="fill:none;fill-opacity:1;stroke:#555d50;stroke-width:0.147457;stroke-linecap:butt;stroke-linejoin:miter;stroke-miterlimit:4;stroke-dasharray:none;stroke-opacity:1"
         d="m 4.0750758,285.03781 4.9519416,0.005"
         id="path31454" />
      <path
         style="fill:none;fill-opacity:1;stroke:#555d50;stroke-width:0.147457;stroke-linecap:butt;stroke-linejoin:miter;stroke-miterlimit:4;stroke-dasharray:none;stroke-opacity:1"
         d="m 4.0750005,235.00014 v 53.49985"
         id="path1245"
         sodipodi:nodetypes="cc" />
    </g>
    <g
       aria-label="Split"
       id="text2189"
       style="font-size:2.82223px;line-height:1.25;font-family:'PTQ Sans Narrow';-inkscape-font-specification:'PTQ Sans Narrow, Normal';font-variant-ligatures:none;stroke-width:0.264583"
       transform="translate(-9.1643585,55.669463)">
      <path
         d="m 12.074071,181.95616 -0.115711,0.31891 c 0.112889,0.0706 0.307623,0.11007 0.508001,0.11007 0.383824,0 0.612424,-0.19756 0.612424,-0.58703 0,-0.0988 -0.01975,-0.18344 -0.05362,-0.25682 -0.07056,-0.14111 -0.183445,-0.24835 -0.310445,-0.3302 -0.11289,-0.0706 -0.228601,-0.14393 -0.307624,-0.23424 -0.03669,-0.0395 -0.05362,-0.0875 -0.05362,-0.14112 0,-0.12417 0.09313,-0.1778 0.228601,-0.1778 0.129822,0 0.273756,0.0423 0.347134,0.0903 l 0.110067,-0.31326 c -0.112889,-0.0649 -0.293512,-0.10443 -0.474135,-0.10443 -0.352778,0 -0.567268,0.17498 -0.567268,0.53058 0,0.10443 0.01693,0.19192 0.05362,0.26247 0.06773,0.14111 0.180623,0.24554 0.307624,0.32456 0.112889,0.0734 0.2286,0.14393 0.310445,0.23706 0.03387,0.0423 0.05362,0.0931 0.05362,0.15241 0,0.14675 -0.09596,0.22013 -0.282223,0.22013 -0.138289,0 -0.287867,-0.0508 -0.36689,-0.1016 z"
         id="path3789" />
      <path
         d="m 13.806918,182.38514 c 0.39229,0 0.527757,-0.34996 0.527757,-0.78176 0,-0.25118 -0.03669,-0.4318 -0.110067,-0.53905 -0.07338,-0.10724 -0.180622,-0.16368 -0.321734,-0.16368 -0.180623,0 -0.268112,0.0762 -0.344312,0.19473 h -0.0085 l -0.03387,-0.16087 H 13.26505 v 1.97556 h 0.335845 v -0.57291 c 0.05645,0.0367 0.11289,0.048 0.206023,0.048 z m 0.180623,-0.79023 c 0,0.18063 -0.01976,0.30763 -0.05927,0.381 -0.03951,0.0734 -0.09878,0.11007 -0.172156,0.11007 -0.0762,0 -0.118534,-0.0169 -0.155223,-0.0564 v -0.66323 c 0.03387,-0.11006 0.09596,-0.16651 0.191912,-0.16651 0.169334,0 0.194734,0.19191 0.194734,0.39511 z"
         id="path3791" />
      <path
         d="m 14.814451,182.37949 c 0.09313,0 0.2286,-0.0254 0.282223,-0.0621 l -0.03105,-0.27093 c -0.03951,0.0169 -0.07056,0.0254 -0.112889,0.0254 -0.07902,0 -0.08467,-0.0847 -0.08467,-0.18344 v -1.51836 H 14.53222 v 1.69898 c 0,0.21449 0.07902,0.31044 0.282223,0.31044 z"
         id="path3793" />
      <path
         d="m 15.240602,180.93451 v 1.41112 h 0.335845 v -1.41112 z m 0.166511,-0.20884 c 0.124179,0 0.217312,-0.0649 0.217312,-0.18909 0,-0.12136 -0.09313,-0.19474 -0.217312,-0.19474 -0.124178,0 -0.206022,0.0762 -0.206022,0.19474 0,0.12135 0.08184,0.18909 0.206022,0.18909 z"
         id="path3795" />
      <path
         d="m 16.214267,182.37949 c 0.118534,0 0.234245,-0.031 0.31609,-0.0734 l -0.04233,-0.26812 c -0.0508,0.0226 -0.08749,0.0339 -0.149578,0.0339 -0.104422,0 -0.110067,-0.096 -0.110067,-0.22296 v -0.61524 h 0.273757 v -0.29916 h -0.273757 v -0.36971 l -0.335845,0.10442 v 0.26529 H 15.73731 v 0.29916 h 0.155223 v 0.73942 c 0,0.26247 0.07902,0.4064 0.321734,0.4064 z"
         id="path3797" />
    </g>
  </g>
  <g
     style="display:none"
     inkscape:label="components"
     id="layer2"
     inkscape:groupmode="layer">
    <circle
       inkscape:label="CV_Out"
       cy="74.25"
       cx="5.0799999"
       id="circle910-0"
       style="display:inline;fill:#00ff00;fill-rule:evenodd;stroke-width:0.264582"
       r="4" />
    <circle
       inkscape:label="CV_Out"
       cy="114.75"
       cx="5.0799999"
       id="circle888-8"
       style="display:inline;fill:#0000ff;fill-rule:evenodd;stroke-width:0.264582"
       r="4" />
    <circle
       inkscape:label="CV_Out"
       cy="105.00002"
       cx="5.0799999"
       id="circle29246"
       style="display:inline;fill:#0000ff;fill-rule:evenodd;stroke-width:0.264582"
       r="4" />
    <circle
       inkscape:label="CV_Out"
       cy="95.000015"
       cx="5.0799999"
       id="circle29248"
       style="display:inline;fill:#0000ff;fill-rule:evenodd;stroke-width:0.264582"
       r="4" />
    <circle
       inkscape:label="CV_Out"
       cy="85.000015"
       cx="5.0799999"
       id="circle29250"
       style="display:inline;fill:#0000ff;fill-rule:evenodd;stroke-width:0.264582"
       r="4" />
  </g>
</svg>
