<?xml version="1.0" encoding="UTF-8" standalone="no"?>
<svg
   sodipodi:docname="PolyMergeResplit-dark.svg"
   inkscape:version="1.3 (0e150ed6c4, 2023-07-21)"
   id="svg8"
   version="1.1"
   viewBox="0 0 10.16 128.5"
   height="128.5mm"
   width="10.16mm"
   xmlns:inkscape="http://www.inkscape.org/namespaces/inkscape"
   xmlns:sodipodi="http://sodipodi.sourceforge.net/DTD/sodipodi-0.dtd"
   xmlns="http://www.w3.org/2000/svg"
   xmlns:svg="http://www.w3.org/2000/svg"
   xmlns:rdf="http://www.w3.org/1999/02/22-rdf-syntax-ns#"
   xmlns:cc="http://creativecommons.org/ns#"
   xmlns:dc="http://purl.org/dc/elements/1.1/">
  <defs
     id="defs2" />
  <sodipodi:namedview
     inkscape:snap-global="true"
     inkscape:snap-bbox-midpoints="true"
     inkscape:snap-bbox="true"
     inkscape:document-rotation="0"
     inkscape:window-maximized="0"
     inkscape:window-y="23"
     inkscape:window-x="26"
     inkscape:window-height="1216"
     inkscape:window-width="1499"
     inkscape:lockguides="false"
     inkscape:guide-bbox="true"
     showguides="true"
     units="mm"
     showgrid="false"
     inkscape:current-layer="layer1"
     inkscape:document-units="mm"
     inkscape:cy="356.24999"
     inkscape:cx="-46.999999"
     inkscape:zoom="4.0000001"
     inkscape:pageshadow="2"
     inkscape:pageopacity="0.0"
     borderopacity="1.0"
     bordercolor="#666666"
     pagecolor="#ffffff"
     id="base"
     inkscape:bbox-nodes="false"
     inkscape:bbox-paths="false"
     inkscape:snap-grids="false"
     inkscape:snap-others="false"
     inkscape:object-nodes="false"
     inkscape:snap-nodes="false"
     inkscape:snap-bbox-edge-midpoints="false"
     inkscape:pagecheckerboard="0"
     inkscape:showpageshadow="2"
     inkscape:deskcolor="#d1d1d1">
    <sodipodi:guide
       position="19.366522,111.5"
       orientation="0,1"
       id="guide837"
       inkscape:label=""
       inkscape:locked="false"
       inkscape:color="rgb(0,0,255)" />
    <sodipodi:guide
       inkscape:color="rgb(0,0,255)"
       inkscape:locked="false"
       inkscape:label=""
       id="guide875"
       orientation="0,1"
       position="-9.0869999,33.500001" />
    <sodipodi:guide
       position="20,91.500004"
       orientation="0,1"
       id="guide891"
       inkscape:label=""
       inkscape:locked="false"
       inkscape:color="rgb(0,0,255)" />
    <sodipodi:guide
       position="-0.45667893,43.500002"
       orientation="0,1"
       id="guide893"
       inkscape:label=""
       inkscape:locked="false"
       inkscape:color="rgb(0,0,255)" />
    <sodipodi:guide
       position="-21.247928,81.500003"
       orientation="0,1"
       id="guide901"
       inkscape:label=""
       inkscape:locked="false"
       inkscape:color="rgb(0,0,255)" />
    <sodipodi:guide
       position="-2.5513393,101.5"
       orientation="0,1"
       id="guide947"
       inkscape:label=""
       inkscape:locked="false"
       inkscape:color="rgb(0,0,255)" />
    <sodipodi:guide
       position="-4.8854,23.500001"
       orientation="0,1"
       id="guide3392"
       inkscape:label=""
       inkscape:locked="false"
       inkscape:color="rgb(0,0,255)" />
    <sodipodi:guide
       inkscape:color="rgb(0,0,255)"
       inkscape:locked="false"
       inkscape:label=""
       id="guide907"
       orientation="0,1"
       position="-14.335827,13.500001" />
    <sodipodi:guide
       position="-6.4238207,54.250002"
       orientation="0,1"
       id="guide908"
       inkscape:label=""
       inkscape:locked="false"
       inkscape:color="rgb(0,0,255)" />
    <sodipodi:guide
       inkscape:color="rgb(0,0,255)"
       inkscape:locked="false"
       inkscape:label=""
       id="guide944"
       orientation="-1,0"
       position="5.0800002,74.250002" />
    <sodipodi:guide
       position="-37.318825,69.250003"
       orientation="0,1"
       id="guide882"
       inkscape:label=""
       inkscape:locked="false"
       inkscape:color="rgb(0,0,255)" />
    <sodipodi:guide
       position="8.4000003,74.730138"
       orientation="-1,0"
       id="guide949"
       inkscape:label=""
       inkscape:locked="false"
       inkscape:color="rgb(0,0,255)" />
    <sodipodi:guide
       position="8.4,73.500003"
       orientation="0,1"
       id="guide951"
       inkscape:label=""
       inkscape:locked="false"
       inkscape:color="rgb(0,0,255)" />
    <sodipodi:guide
       position="8.1906009,47.500002"
       orientation="0,1"
       id="guide973"
       inkscape:label=""
       inkscape:locked="false"
       inkscape:color="rgb(0,0,255)" />
    <sodipodi:guide
       position="14.948959,17.500001"
       orientation="0,1"
       id="guide1010"
       inkscape:label=""
       inkscape:locked="false"
       inkscape:color="rgb(0,0,255)" />
    <sodipodi:guide
       position="13.626042,27.500001"
       orientation="0,1"
       id="guide1012"
       inkscape:label=""
       inkscape:locked="false"
       inkscape:color="rgb(0,0,255)" />
    <sodipodi:guide
       position="13.791407,37.500002"
       orientation="0,1"
       id="guide1014"
       inkscape:label=""
       inkscape:locked="false"
       inkscape:color="rgb(0,0,255)" />
    <sodipodi:guide
       position="13.427605,85.500003"
       orientation="0,1"
       id="guide1016"
       inkscape:label=""
       inkscape:locked="false"
       inkscape:color="rgb(0,0,255)" />
    <sodipodi:guide
       position="13.890626,95.500004"
       orientation="0,1"
       id="guide1018"
       inkscape:label=""
       inkscape:locked="false"
       inkscape:color="rgb(0,0,255)" />
    <sodipodi:guide
       position="16.007293,105.5"
       orientation="0,1"
       id="guide1020"
       inkscape:label=""
       inkscape:locked="false"
       inkscape:color="rgb(0,0,255)" />
    <sodipodi:guide
       position="13.559897,115.5"
       orientation="0,1"
       id="guide1022"
       inkscape:label=""
       inkscape:locked="false"
       inkscape:color="rgb(0,0,255)" />
    <sodipodi:guide
       position="1.7600001,107.03568"
       orientation="-1,0"
       id="guide1339"
       inkscape:label=""
       inkscape:locked="false"
       inkscape:color="rgb(0,0,255)" />
    <inkscape:grid
       type="xygrid"
       id="grid1447"
       originx="0"
       originy="0"
       spacingy="1"
       spacingx="1"
       units="mm"
       visible="false" />
  </sodipodi:namedview>
  <metadata
     id="metadata5">
    <rdf:RDF>
      <cc:Work
         rdf:about="">
        <dc:format>image/svg+xml</dc:format>
        <dc:type
           rdf:resource="http://purl.org/dc/dcmitype/StillImage" />
        <dc:title />
      </cc:Work>
    </rdf:RDF>
  </metadata>
  <g
     transform="translate(0,-168.5)"
     id="layer1"
     inkscape:groupmode="layer"
     inkscape:label="Layer 1"
     style="display:inline">
    <rect
       style="display:inline;opacity:1;fill:#242422;fill-opacity:1;stroke:none;stroke-width:1.131;stroke-miterlimit:4;stroke-dasharray:none"
       id="rect838"
       width="10.16"
       height="128.5"
       x="-5.5511151e-17"
       y="168.5" />
    <text
       xml:space="preserve"
       style="font-weight:bold;font-stretch:condensed;font-size:2.82223px;line-height:1.25;font-family:'PT Sans Narrow';-inkscape-font-specification:'PT Sans Narrow, Bold Condensed';stroke-width:0.264583"
       x="2.0529213"
       y="233.73691"
       id="text64"><tspan
         sodipodi:role="line"
         id="tspan62"
         x="2.0529213"
         y="233.73691"
         style="stroke-width:0.264583" /></text>
    <g
       aria-label="GRANDE"
       id="text2569"
       style="font-size:1.76389px;line-height:1.25;font-family:'Source Sans Pro';-inkscape-font-specification:'Source Sans Pro, Normal';text-align:center;letter-spacing:0.370417px;text-anchor:middle;stroke-width:0.264583;fill:#fffff0;fill-opacity:1"
       transform="translate(0,-0.83024)">
      <path
         d="m 1.6963961,292.52968 c 0.1552223,0 0.2822224,-0.0564 0.3580696,-0.13405 v -0.48684 H 1.6734655 v 0.12171 h 0.2451807 v 0.30163 c -0.045861,0.0423 -0.1252362,0.067 -0.208139,0.067 -0.2469446,0 -0.3827641,-0.18168 -0.3827641,-0.47272 0,-0.28751 0.1481667,-0.46567 0.3810002,-0.46567 0.1164167,0 0.1905001,0.0441 0.2487085,0.10407 l 0.081139,-0.0917 c -0.067028,-0.0723 -0.1728612,-0.14287 -0.3333752,-0.14287 -0.3069168,0 -0.5309309,0.22754 -0.5309309,0.59972 0,0.37747 0.2169585,0.59972 0.5221114,0.59972 z"
         style="stroke-width:0.264583;fill:#fffff0;fill-opacity:1"
         id="path2571" />
      <path
         d="m 2.7000468,292.50851 h 0.1481668 v -0.48859 h 0.208139 l 0.2786946,0.48859 h 0.1675696 l -0.2945696,-0.50447 c 0.1569862,-0.0406 0.2592918,-0.1464 0.2592918,-0.32632 0,-0.24165 -0.1693334,-0.32632 -0.4056947,-0.32632 H 2.7000468 Z m 0.1481668,-0.60854 v -0.42862 h 0.192264 c 0.1799168,0 0.2786946,0.0547 0.2786946,0.20637 0,0.14817 -0.098778,0.22225 -0.2786946,0.22225 z"
         style="stroke-width:0.264583;fill:#fffff0;fill-opacity:1"
         id="path2573" />
      <path
         d="m 4.2699053,291.86293 c 0.04057,-0.12876 0.077611,-0.25576 0.112889,-0.38982 h 0.00706 c 0.037042,0.13406 0.074083,0.26106 0.1164168,0.38982 l 0.054681,0.17463 H 4.2152247 Z m -0.3545419,0.64558 h 0.1499307 l 0.111125,-0.35101 H 4.5979889 L 4.70735,292.50851 H 4.8643363 L 4.4745166,291.3514 H 4.3051831 Z"
         style="stroke-width:0.264583;fill:#fffff0;fill-opacity:1"
         id="path2575" />
      <path
         d="M 5.3987927,292.50851 H 5.53814 v -0.60854 c 0,-0.11994 -0.010583,-0.24518 -0.019403,-0.3616 h 0.00706 c 0.038806,0.0847 0.081139,0.1711 0.1252362,0.24871 l 0.4127502,0.72143 H 6.2225293 V 291.3514 H 6.083182 v 0.60325 c 0,0.11995 0.010583,0.24695 0.019403,0.36689 h -0.00706 c -0.040569,-0.0847 -0.081139,-0.1711 -0.1252361,-0.24871 L 5.5575428,291.3514 H 5.3987927 Z"
         style="stroke-width:0.264583;fill:#fffff0;fill-opacity:1"
         id="path2577" />
      <path
         d="m 6.9086818,292.50851 h 0.2963335 c 0.3492503,0 0.5397504,-0.21519 0.5397504,-0.58384 0,-0.36689 -0.1905001,-0.57327 -0.5468059,-0.57327 h -0.289278 z m 0.1481668,-0.1217 v -0.9137 h 0.1305278 c 0.2698752,0 0.4039309,0.16051 0.4039309,0.45156 0,0.2928 -0.1340557,0.46214 -0.4039309,0.46214 z"
         style="stroke-width:0.264583;fill:#fffff0;fill-opacity:1"
         id="path2579" />
      <path
         d="m 8.3656535,292.50851 h 0.6843893 v -0.12523 H 8.5138202 v -0.41981 h 0.4374447 v -0.12523 H 8.5138202 v -0.3616 H 9.0324039 V 291.3514 H 8.3656535 Z"
         style="stroke-width:0.264583;fill:#fffff0;fill-opacity:1"
         id="path2581" />
    </g>
    <text
       xml:space="preserve"
       style="font-weight:bold;font-stretch:condensed;font-size:2.82223px;line-height:1.25;font-family:'PT Sans Narrow';-inkscape-font-specification:'PT Sans Narrow, Bold Condensed';text-align:center;text-anchor:middle;stroke-width:0.264583"
       x="7.705914"
       y="247.28606"
       id="text925"><tspan
         sodipodi:role="line"
         id="tspan923"
         x="7.705914"
         y="247.28606"
         style="stroke-width:0.264583" /></text>
    <rect
       style="display:inline;fill:#555d50;fill-opacity:1;stroke-width:0.264583"
       id="rect896"
       width="9"
       height="12.75"
       x="0.57999998"
       y="220.25"
       rx="0.99999994"
       ry="1" />
    <rect
       style="display:inline;fill:#555d50;fill-opacity:1;stroke-width:0.264583"
       id="rect913"
       width="9"
       height="41.000004"
       x="0.57999998"
       y="247.50002"
       rx="0.99999994"
       ry="1.0000001" />
    <g
       aria-label="Merge"
       id="text917"
       style="font-size:2.82223px;line-height:1.25;font-family:'PTQ Sans Narrow';-inkscape-font-specification:'PTQ Sans Narrow, Normal';fill:#fffff0;fill-opacity:1;stroke-width:0.264583"
       transform="translate(-1.3453588,0.3929)">
      <path
         d="m 3.9167179,221.56383 v 1.01883 h 0.355601 V 220.6071 H 3.9364735 l -0.3866455,0.84949 -0.064911,0.25118 H 3.4736278 L 3.4058942,221.46223 2.9938486,220.6071 H 2.6523588 v 1.97556 h 0.3358454 v -1.02165 l -0.053622,-0.381 h 0.016933 l 0.1044225,0.34149 0.3414898,0.69709 h 0.1185337 l 0.3217342,-0.69427 0.1044225,-0.33867 h 0.014111 z"
         style="fill:#fffff0;fill-opacity:1;stroke-width:0.264583"
         id="path919" />
      <path
         d="m 5.0907644,222.33148 c -0.2144895,0 -0.2850453,-0.14394 -0.2906897,-0.36125 h 0.6858019 c 0.014111,-0.0931 0.028222,-0.18344 0.028222,-0.28504 0,-0.33585 -0.1495782,-0.55316 -0.4741347,-0.55316 -0.1806227,0 -0.318912,0.0621 -0.4205123,0.18345 -0.1016003,0.12135 -0.1495782,0.30762 -0.1495782,0.56162 0,0.42616 0.1354671,0.74225 0.5588016,0.74225 0.172156,0 0.3527788,-0.0593 0.4459123,-0.14112 l -0.1044225,-0.23424 c -0.059267,0.048 -0.172156,0.0875 -0.2794007,0.0875 z m 0.1100669,-0.5842 H 4.8113636 c 0.00847,-0.17216 0.056445,-0.32738 0.2229562,-0.32738 0.1439337,0 0.1749782,0.15804 0.1665115,0.32738 z"
         style="fill:#fffff0;fill-opacity:1;stroke-width:0.264583"
         id="path921" />
      <path
         d="M 6.0362099,221.34088 H 6.024921 L 5.98541,221.17154 H 5.7285868 v 1.41112 h 0.3358454 v -0.94263 c 0.022578,-0.0903 0.093134,-0.16087 0.2060228,-0.16087 0.036689,0 0.079022,0.008 0.1241781,0.0254 l 0.039511,-0.33302 c -0.045156,-0.0169 -0.087489,-0.0282 -0.1326448,-0.0282 -0.1382893,0 -0.2257784,0.0931 -0.2652896,0.19756 z"
         style="fill:#fffff0;fill-opacity:1;stroke-width:0.264583"
         id="path923" />
      <path
         d="m 7.0973664,221.1405 c -0.428979,0 -0.5926683,0.30198 -0.5926683,0.76482 0,0.24271 0.036689,0.42051 0.110067,0.5334 0.073378,0.11289 0.1862672,0.16651 0.3358454,0.16651 0.1326448,0 0.2201339,-0.0339 0.2765785,-0.11288 h 0.00847 v 0.0762 c 0,0.2032 -0.056445,0.31326 -0.2540007,0.31326 -0.1298226,0 -0.2173117,-0.0339 -0.3048009,-0.0705 l -0.070556,0.28504 c 0.1044225,0.0621 0.2342451,0.0847 0.4261567,0.0847 0.3612455,0 0.5334015,-0.21731 0.5334015,-0.59831 v -1.36032 c -0.1157114,-0.0508 -0.2906897,-0.0818 -0.4684902,-0.0818 z m 0.1326448,0.3302 v 0.70556 c -0.028222,0.0847 -0.079022,0.14111 -0.1862671,0.14111 -0.1298226,0 -0.1919117,-0.14111 -0.1919117,-0.42616 0,-0.16369 0.016933,-0.28222 0.056445,-0.34996 0.039511,-0.0677 0.093134,-0.1016 0.1636894,-0.1016 0.064911,0 0.1128892,0.0113 0.1580448,0.031 z"
         style="fill:#fffff0;fill-opacity:1;stroke-width:0.264583"
         id="path925" />
      <path
         d="m 8.3758333,222.33148 c -0.2144894,0 -0.2850452,-0.14394 -0.2906897,-0.36125 h 0.685802 c 0.014111,-0.0931 0.028222,-0.18344 0.028222,-0.28504 0,-0.33585 -0.1495782,-0.55316 -0.4741347,-0.55316 -0.1806227,0 -0.318912,0.0621 -0.4205123,0.18345 -0.1016003,0.12135 -0.1495782,0.30762 -0.1495782,0.56162 0,0.42616 0.1354671,0.74225 0.5588016,0.74225 0.172156,0 0.3527787,-0.0593 0.4459123,-0.14112 l -0.1044225,-0.23424 c -0.059267,0.048 -0.172156,0.0875 -0.2794008,0.0875 z m 0.110067,-0.5842 H 8.0964326 c 0.00847,-0.17216 0.056445,-0.32738 0.2229561,-0.32738 0.1439338,0 0.1749783,0.15804 0.1665116,0.32738 z"
         style="fill:#fffff0;fill-opacity:1;stroke-width:0.264583"
         id="path927" />
    </g>
    <g
       aria-label="Resplit"
       id="text915"
       style="font-size:2.82223px;line-height:1.25;font-family:'PTQ Sans Narrow';-inkscape-font-specification:'PTQ Sans Narrow, Normal';word-spacing:0px;stroke-width:0.264583;fill:#fffff0;fill-opacity:1"
       transform="translate(-12.513082,-0.52416)">
      <path
         d="m 15.329666,237.08296 c 0,-0.39512 -0.251178,-0.5588 -0.640646,-0.5588 -0.149578,0 -0.349956,0.0198 -0.476957,0.048 v 1.95581 h 0.355601 v -0.81563 l 0.152401,0.0367 0.344312,0.77894 H 15.4736 l -0.364067,-0.75636 -0.11289,-0.0903 c 0.21449,-0.0762 0.333023,-0.29351 0.333023,-0.59831 z m -0.606779,-0.23143 c 0.163689,0 0.234245,0.12418 0.234245,0.28787 0,0.20602 -0.0762,0.3302 -0.268112,0.3302 h -0.121356 v -0.60395 c 0.03669,-0.0113 0.101601,-0.0141 0.155223,-0.0141 z"
         style="stroke-width:0.264583;fill:#fffff0;fill-opacity:1"
         id="path917" />
      <path
         d="m 16.083195,238.27676 c -0.21449,0 -0.285046,-0.14393 -0.29069,-0.36125 h 0.685802 c 0.01411,-0.0931 0.02822,-0.18344 0.02822,-0.28504 0,-0.33585 -0.149578,-0.55316 -0.474134,-0.55316 -0.180623,0 -0.318912,0.0621 -0.420513,0.18345 -0.1016,0.12135 -0.149578,0.30762 -0.149578,0.56162 0,0.42616 0.135467,0.74225 0.558802,0.74225 0.172156,0 0.352778,-0.0593 0.445912,-0.14111 l -0.104423,-0.23425 c -0.05927,0.048 -0.172156,0.0875 -0.2794,0.0875 z m 0.110067,-0.5842 h -0.389468 c 0.0085,-0.17216 0.05645,-0.32738 0.222956,-0.32738 0.143934,0 0.174978,0.15804 0.166512,0.32738 z"
         style="stroke-width:0.264583;fill:#fffff0;fill-opacity:1"
         id="path926" />
      <path
         d="m 17.045574,238.27676 c -0.118534,0 -0.225779,-0.0395 -0.299157,-0.0847 l -0.09313,0.27094 c 0.08749,0.0621 0.254,0.1016 0.406401,0.1016 0.29069,0 0.471312,-0.1524 0.471312,-0.4318 0,-0.29352 -0.2032,-0.38383 -0.386645,-0.49107 -0.06209,-0.0339 -0.135467,-0.0734 -0.135467,-0.15805 0,-0.0762 0.04516,-0.11571 0.138289,-0.11571 0.09596,0 0.208845,0.0367 0.279401,0.0649 l 0.07902,-0.25964 c -0.09313,-0.0536 -0.256823,-0.0931 -0.409223,-0.0931 -0.273756,0 -0.423335,0.14394 -0.423335,0.41205 0,0.29351 0.206023,0.37818 0.386646,0.48542 0.06209,0.0367 0.135467,0.0847 0.135467,0.17498 0,0.0875 -0.06491,0.12418 -0.149579,0.12418 z"
         style="stroke-width:0.264583;fill:#fffff0;fill-opacity:1"
         id="path928" />
      <path
         d="m 18.250662,238.56745 c 0.39229,0 0.527757,-0.34996 0.527757,-0.78176 0,-0.25118 -0.03669,-0.4318 -0.110067,-0.53904 -0.07338,-0.10725 -0.180623,-0.16369 -0.321734,-0.16369 -0.180623,0 -0.268112,0.0762 -0.344313,0.19473 h -0.0085 l -0.03387,-0.16087 h -0.251178 v 1.97556 h 0.335845 v -0.57291 c 0.05645,0.0367 0.112889,0.048 0.206023,0.048 z m 0.180622,-0.79022 c 0,0.18062 -0.01975,0.30762 -0.05927,0.381 -0.03951,0.0734 -0.09878,0.11006 -0.172156,0.11006 -0.0762,0 -0.118534,-0.0169 -0.155223,-0.0564 v -0.66323 c 0.03387,-0.11006 0.09596,-0.16651 0.191912,-0.16651 0.169333,0 0.194733,0.19192 0.194733,0.39512 z"
         style="stroke-width:0.264583;fill:#fffff0;fill-opacity:1"
         id="path930" />
      <path
         d="m 19.258194,238.56181 c 0.09313,0 0.2286,-0.0254 0.282223,-0.0621 l -0.03105,-0.27094 c -0.03951,0.0169 -0.07055,0.0254 -0.112889,0.0254 -0.07902,0 -0.08467,-0.0847 -0.08467,-0.18344 v -1.51836 h -0.335845 v 1.69898 c 0,0.21449 0.07902,0.31045 0.282223,0.31045 z"
         style="stroke-width:0.264583;fill:#fffff0;fill-opacity:1"
         id="path932" />
      <path
         d="m 19.684345,237.11682 v 1.41112 h 0.335846 v -1.41112 z m 0.166512,-0.20884 c 0.124178,0 0.217312,-0.0649 0.217312,-0.18909 0,-0.12136 -0.09313,-0.19473 -0.217312,-0.19473 -0.124178,0 -0.206023,0.0762 -0.206023,0.19473 0,0.12136 0.08185,0.18909 0.206023,0.18909 z"
         style="stroke-width:0.264583;fill:#fffff0;fill-opacity:1"
         id="path935" />
      <path
         d="m 20.65801,238.56181 c 0.118534,0 0.234245,-0.0311 0.31609,-0.0734 l -0.04233,-0.26811 c -0.0508,0.0226 -0.08749,0.0339 -0.149579,0.0339 -0.104422,0 -0.110067,-0.0959 -0.110067,-0.22295 V 237.416 h 0.273757 v -0.29916 h -0.273757 v -0.36971 l -0.335845,0.10442 v 0.26529 h -0.155223 v 0.29916 h 0.155223 v 0.73942 c 0,0.26247 0.07902,0.40641 0.321734,0.40641 z"
         style="stroke-width:0.264583;fill:#fffff0;fill-opacity:1"
         id="path937" />
    </g>
    <g
       aria-label="PMR"
       id="text28566"
       style="font-size:4.9389px;line-height:1.25;font-family:'PTQ Sans Narrow';-inkscape-font-specification:'PTQ Sans Narrow, Normal';font-variant-ligatures:none;stroke-width:0.264583;fill:#fffff0;fill-opacity:1"
       transform="translate(-11.837835,0.516)">
      <path
         d="m 13.811269,173.484 c -0.286456,0 -0.587729,0.0346 -0.814918,0.084 v 3.42266 h 0.622301 v -1.19028 c 0.06421,0.0198 0.172862,0.0198 0.256823,0.0198 h 0.06421 c 0.721079,0 1.101374,-0.45438 1.101374,-1.19522 0,-0.80504 -0.439562,-1.14088 -1.229786,-1.14088 z m 0.577852,1.13594 c 0,0.40499 -0.158045,0.647 -0.548218,0.647 -0.03951,0 -0.197556,-0.0148 -0.222251,-0.0247 v -1.1804 c 0.06421,-0.0148 0.148167,-0.0247 0.251884,-0.0247 0.350662,0 0.518585,0.22225 0.518585,0.58279 z"
         id="path30152"
         style="fill:#fffff0;fill-opacity:1" />
      <path
         d="m 17.56483,175.20767 v 1.78295 h 0.622301 v -3.45723 h -0.587729 l -0.676629,1.4866 -0.113595,0.43957 h -0.01976 l -0.118533,-0.42969 -0.72108,-1.49648 h -0.597607 v 3.45723 h 0.58773 v -1.78789 l -0.09384,-0.66675 h 0.02963 l 0.182739,0.59761 0.597607,1.21991 h 0.207434 l 0.563034,-1.21497 0.18274,-0.59267 h 0.02469 z"
         id="path30154"
         style="fill:#fffff0;fill-opacity:1" />
      <path
         d="m 20.587434,174.4619 c 0,-0.69145 -0.439562,-0.9779 -1.12113,-0.9779 -0.261762,0 -0.612424,0.0346 -0.834674,0.084 v 3.42266 h 0.622301 v -1.42735 l 0.266701,0.0642 0.602546,1.36314 h 0.71614 l -0.637118,-1.32363 -0.197556,-0.15804 c 0.375357,-0.13335 0.58279,-0.51365 0.58279,-1.04705 z m -1.061863,-0.40499 c 0.286456,0 0.409929,0.21731 0.409929,0.50377 0,0.36054 -0.133351,0.57785 -0.469196,0.57785 h -0.212373 v -1.05693 c 0.06421,-0.0198 0.177801,-0.0247 0.27164,-0.0247 z"
         id="path30156"
         style="fill:#fffff0;fill-opacity:1" />
    </g>
  </g>
  <g
     style="display:none"
     inkscape:label="components"
     id="layer2"
     inkscape:groupmode="layer">
    <circle
       inkscape:label="CV_Out"
       cy="74.25"
       cx="5.0799999"
       id="circle910"
       style="fill:#00ff00;fill-rule:evenodd;stroke-width:0.264582"
       r="4" />
    <circle
       inkscape:label="CV_Out"
       cy="59.25"
       cx="5.0799999"
       id="circle914"
       style="fill:#0000ff;fill-rule:evenodd;stroke-width:0.264582"
       r="4" />
    <circle
       inkscape:label="CV_Out"
       cy="84.99971"
       cx="5.0799999"
       id="circle918"
       style="fill:#0000ff;fill-rule:evenodd;stroke-width:0.264582"
       r="4" />
    <circle
       style="fill:#00ff00;fill-rule:evenodd;stroke-width:0.264582"
       id="circle922"
       cx="5.0799999"
       cy="17.000004"
       inkscape:label="CV_Out"
       r="4" />
    <circle
       inkscape:label="CV_Out"
       cy="94.99971"
       cx="5.0799999"
       id="circle884"
       style="fill:#0000ff;fill-rule:evenodd;stroke-width:0.264582"
       r="4" />
    <circle
       inkscape:label="CV_Out"
       cy="104.99971"
       cx="5.0799999"
       id="circle886"
       style="fill:#0000ff;fill-rule:evenodd;stroke-width:0.264582"
       r="4" />
    <circle
       inkscape:label="CV_Out"
       cy="114.99971"
       cx="5.0799999"
       id="circle888"
       style="fill:#0000ff;fill-rule:evenodd;stroke-width:0.264582"
       r="4" />
    <circle
       style="fill:#00ff00;fill-rule:evenodd;stroke-width:0.264582"
       id="circle890"
       cx="5.0799999"
       cy="27.000004"
       inkscape:label="CV_Out"
       r="4" />
    <circle
       style="fill:#00ff00;fill-rule:evenodd;stroke-width:0.264582"
       id="circle892"
       cx="5.0799999"
       cy="37"
       inkscape:label="CV_Out"
       r="4" />
    <circle
       style="fill:#00ff00;fill-rule:evenodd;stroke-width:0.264582"
       id="circle894"
       cx="5.0799999"
       cy="47"
       inkscape:label="CV_Out"
       r="4" />
    <circle
       style="display:inline;fill:#ff0000;fill-opacity:1;stroke-width:0.264999"
       id="path58"
       cx="8.3999996"
       cy="55"
       r="0.81599998" />
    <circle
       style="display:inline;fill:#ff0000;fill-opacity:1;stroke-width:0.264999"
       id="circle953"
       cx="8.3999996"
       cy="80.99971"
       r="0.81599998" />
    <circle
       style="display:inline;fill:#ff0000;fill-opacity:1;stroke-width:0.264999"
       id="circle71"
       cx="8.3999996"
       cy="90.99971"
       r="0.81599998" />
    <circle
       style="display:inline;fill:#ff0000;fill-opacity:1;stroke-width:0.264999"
       id="circle73"
       cx="8.3999996"
       cy="100.99971"
       r="0.81599998" />
    <circle
       style="display:inline;fill:#ff0000;fill-opacity:1;stroke-width:0.264999"
       id="circle75"
       cx="8.3999996"
       cy="110.99971"
       r="0.81599998" />
  </g>
  <g
     aria-label="1"
     id="text947"
     style="font-size:2.82223px;line-height:1.25;font-family:'PTQ Sans Narrow';-inkscape-font-specification:'PTQ Sans Narrow, Normal';display:inline;stroke-width:0.264583;fill:#fffff0;fill-opacity:1"
     transform="translate(-0.4543993,-169.2502)">
    <path
       d="m 8.4361888,182.95547 v 0.29915 H 9.395747 v -0.29915 H 9.0796572 V 181.2452 H 8.8821011 l -0.5446904,0.53057 0.1552227,0.18909 0.1862672,-0.14393 0.1157114,-0.16651 -0.036689,0.19191 v 1.10914 z"
       style="stroke-width:0.264583;fill:#fffff0;fill-opacity:1"
       id="path963" />
  </g>
  <g
     aria-label="2"
     id="text951"
     style="font-size:2.82223px;line-height:1.25;font-family:'PTQ Sans Narrow';-inkscape-font-specification:'PTQ Sans Narrow, Normal';display:inline;stroke-width:0.264583;fill:#fffff0;fill-opacity:1"
     transform="translate(-0.1762639,-168.80577)">
    <path
       d="m 8.0889087,190.9701 0.1298226,0.24554 c 0.056445,-0.0508 0.1636893,-0.11007 0.2681119,-0.11007 0.1580448,0 0.2342451,0.10724 0.2286006,0.26529 0.00282,0.0649 -0.00564,0.13264 -0.0254,0.20602 -0.045156,0.16369 -0.1157114,0.31609 -0.1919116,0.45438 -0.1185337,0.20602 -0.2596452,0.41205 -0.4007567,0.58702 v 0.19474 h 0.9906028 v -0.29916 H 8.6505325 l -0.1693338,0.0423 v -0.0141 l 0.1241781,-0.11571 c 0.1072448,-0.14393 0.2173117,-0.3302 0.2991564,-0.51364 0.0762,-0.16651 0.1524004,-0.37536 0.1524004,-0.60114 0,-0.0847 -0.014111,-0.15804 -0.036689,-0.22295 -0.067733,-0.17216 -0.208845,-0.29069 -0.4402678,-0.29069 -0.2229562,0 -0.3725344,0.0706 -0.4910681,0.17215 z"
       style="stroke-width:0.264583;fill:#fffff0;fill-opacity:1"
       id="path966" />
  </g>
  <g
     aria-label="3"
     id="text955"
     style="font-size:2.82223px;line-height:1.25;font-family:'PTQ Sans Narrow';-inkscape-font-specification:'PTQ Sans Narrow, Normal';display:inline;stroke-width:0.264583;fill:#fffff0;fill-opacity:1"
     transform="translate(0.0288193,-168.58733)">
    <path
       d="m 7.9741366,202.22485 -0.090311,0.28223 c 0.084667,0.0536 0.2624674,0.0875 0.4035789,0.0875 0.081845,0 0.1580449,-0.0113 0.2314229,-0.0395 0.2286006,-0.0818 0.3640676,-0.29633 0.3640676,-0.61242 0,-0.0903 -0.011289,-0.17216 -0.033867,-0.23989 -0.053622,-0.16651 -0.1693338,-0.29916 -0.3668899,-0.31609 l -0.1044226,0.0169 v -0.0141 l 0.1044226,-0.0762 0.3273787,-0.5334 V 200.5795 H 7.9064031 v 0.29916 h 0.3866455 l 0.1862672,-0.0254 -0.135467,0.127 -0.2794008,0.47413 v 0.19192 h 0.1665116 c 0.208845,0 0.3160898,0.10724 0.3160898,0.31891 0,0.18909 -0.095956,0.3302 -0.2822231,0.3302 -0.1213558,0 -0.2116672,-0.0282 -0.2906897,-0.0706 z"
       style="stroke-width:0.264583;fill:#fffff0;fill-opacity:1"
       id="path969" />
  </g>
  <g
     aria-label="4"
     id="text959"
     style="font-size:2.82223px;line-height:1.25;font-family:'PTQ Sans Narrow';-inkscape-font-specification:'PTQ Sans Narrow, Normal';display:inline;stroke-width:0.264583;fill:#fffff0;fill-opacity:1"
     transform="translate(0.0647643,-168.68325)">
    <path
       d="m 8.9795948,212.12746 v -0.28787 H 8.7312385 v -1.15147 H 8.4377266 l -0.7224909,1.2305 v 0.20884 h 0.6970908 v 0.55034 h 0.318912 v -0.55034 z m -0.5672683,-0.72531 v 0.43744 H 8.1555036 l -0.1439337,0.0226 0.1128892,-0.10724 0.2229561,-0.37818 0.084667,-0.2286 h 0.011289 z"
       style="stroke-width:0.264583;fill:#fffff0;fill-opacity:1"
       id="path972" />
  </g>
  <g
     aria-label="1"
     id="text977"
     style="font-size:2.82223px;line-height:1.25;font-family:'PTQ Sans Narrow';-inkscape-font-specification:'PTQ Sans Narrow, Normal';display:inline;fill:#fffff0;fill-opacity:1;stroke-width:0.264583"
     transform="translate(-6.701735,-168.1913)">
    <path
       d="m 7.9035245,249.89657 v 0.29915 h 0.9595582 v -0.29915 H 8.5469929 V 248.1863 H 8.3494368 l -0.5446904,0.53058 0.1552227,0.18909 0.1862672,-0.14394 0.1157114,-0.16651 -0.036689,0.19191 v 1.10914 z"
       style="fill:#fffff0;fill-opacity:1;stroke-width:0.264583"
       id="path991" />
  </g>
  <g
     aria-label="2"
     id="text981"
     style="font-size:2.82223px;line-height:1.25;font-family:'PTQ Sans Narrow';-inkscape-font-specification:'PTQ Sans Narrow, Normal';display:inline;fill:#fffff0;fill-opacity:1;stroke-width:0.264583"
     transform="translate(-6.9481872,-168.1687)">
    <path
       d="m 8.080832,258.33305 0.1298226,0.24553 c 0.056445,-0.0508 0.1636894,-0.11006 0.2681119,-0.11006 0.1580449,0 0.2342451,0.10724 0.2286006,0.26528 0.00282,0.0649 -0.00564,0.13265 -0.0254,0.20603 -0.045156,0.16369 -0.1157115,0.31609 -0.1919117,0.45438 -0.1185337,0.20602 -0.2596452,0.41204 -0.4007567,0.58702 v 0.19473 h 0.9906028 v -0.29915 H 8.6424558 l -0.1693338,0.0423 v -0.0141 l 0.1241782,-0.11571 c 0.1072447,-0.14393 0.2173117,-0.3302 0.2991563,-0.51365 0.0762,-0.16651 0.1524005,-0.37535 0.1524005,-0.60113 0,-0.0847 -0.014111,-0.15805 -0.036689,-0.22296 -0.067734,-0.17215 -0.208845,-0.29069 -0.4402679,-0.29069 -0.2229562,0 -0.3725344,0.0706 -0.4910681,0.17216 z"
       style="fill:#fffff0;fill-opacity:1;stroke-width:0.264583"
       id="path994" />
  </g>
  <g
     aria-label="3"
     id="text985"
     style="font-size:2.82223px;line-height:1.25;font-family:'PTQ Sans Narrow';-inkscape-font-specification:'PTQ Sans Narrow, Normal';display:inline;fill:#fffff0;fill-opacity:1;stroke-width:0.264583"
     transform="translate(-7.2807791,-168.12267)">
    <path
       d="m 8.5037349,269.76019 -0.090311,0.28223 c 0.084667,0.0536 0.2624674,0.0875 0.4035789,0.0875 0.081845,0 0.1580449,-0.0113 0.2314229,-0.0395 0.2286006,-0.0818 0.3640677,-0.29633 0.3640677,-0.61242 0,-0.0903 -0.011289,-0.17216 -0.033867,-0.23989 -0.053622,-0.16651 -0.1693338,-0.29916 -0.3668899,-0.31609 l -0.1044225,0.0169 v -0.0141 l 0.1044225,-0.0762 0.3273787,-0.5334 v -0.20038 H 8.4360014 v 0.29916 h 0.3866455 l 0.1862672,-0.0254 -0.1354671,0.127 -0.2794008,0.47413 v 0.19191 h 0.1665116 c 0.208845,0 0.3160898,0.10725 0.3160898,0.31892 0,0.18909 -0.095956,0.3302 -0.282223,0.3302 -0.1213559,0 -0.2116673,-0.0282 -0.2906897,-0.0706 z"
       style="fill:#fffff0;fill-opacity:1;stroke-width:0.264583"
       id="path997" />
  </g>
  <g
     aria-label="4"
     id="text989"
     style="font-size:2.82223px;line-height:1.25;font-family:'PTQ Sans Narrow';-inkscape-font-specification:'PTQ Sans Narrow, Normal';display:inline;fill:#fffff0;fill-opacity:1;stroke-width:0.264583"
     transform="translate(-6.9998326,-168.01193)">
    <path
       d="m 9.2641917,279.45613 v -0.28786 H 9.0158355 v -1.15147 h -0.293512 l -0.7224909,1.23049 v 0.20884 h 0.6970909 v 0.55034 h 0.318912 v -0.55034 z m -0.5672682,-0.72531 v 0.43745 h -0.256823 l -0.1439337,0.0226 0.1128892,-0.10725 0.2229562,-0.37818 0.084667,-0.2286 h 0.011289 z"
       style="fill:#fffff0;fill-opacity:1;stroke-width:0.264583"
       id="path1000" />
  </g>
</svg>
