<?xml version="1.0" encoding="UTF-8" standalone="no"?>
<svg
   xmlns:dc="http://purl.org/dc/elements/1.1/"
   xmlns:cc="http://creativecommons.org/ns#"
   xmlns:rdf="http://www.w3.org/1999/02/22-rdf-syntax-ns#"
   xmlns:svg="http://www.w3.org/2000/svg"
   xmlns="http://www.w3.org/2000/svg"
   xmlns:sodipodi="http://sodipodi.sourceforge.net/DTD/sodipodi-0.dtd"
   xmlns:inkscape="http://www.inkscape.org/namespaces/inkscape"
   sodipodi:docname="SampleDelays.svg"
   inkscape:version="1.0.2 (e86c870879, 2021-01-15)"
   id="svg8"
   version="1.1"
   viewBox="0 0 10.16 128.5"
   height="128.5mm"
   width="10.16mm">
  <defs
     id="defs2" />
  <sodipodi:namedview
     inkscape:snap-global="true"
     inkscape:snap-bbox-midpoints="true"
     inkscape:snap-bbox="true"
     inkscape:document-rotation="0"
     inkscape:window-maximized="0"
     inkscape:window-y="23"
     inkscape:window-x="26"
     inkscape:window-height="1196"
     inkscape:window-width="1704"
     inkscape:lockguides="false"
     inkscape:guide-bbox="true"
     showguides="true"
     units="mm"
     showgrid="false"
     inkscape:current-layer="layer1"
     inkscape:document-units="mm"
     inkscape:cy="411.85006"
     inkscape:cx="-34.228674"
     inkscape:zoom="5.870362"
     inkscape:pageshadow="2"
     inkscape:pageopacity="0.0"
     borderopacity="1.0"
     bordercolor="#666666"
     pagecolor="#ffffff"
     id="base"
     inkscape:bbox-nodes="false"
     inkscape:bbox-paths="false"
     inkscape:snap-grids="false"
     inkscape:snap-others="false"
     inkscape:object-nodes="false"
     inkscape:snap-nodes="false"
     inkscape:snap-bbox-edge-midpoints="false">
    <sodipodi:guide
       position="5.0800001,111.25"
       orientation="0,1"
       id="guide837"
       inkscape:label=""
       inkscape:locked="false"
       inkscape:color="rgb(0,0,255)" />
    <sodipodi:guide
       inkscape:color="rgb(0,0,255)"
       inkscape:locked="false"
       inkscape:label=""
       id="guide875"
       orientation="0,1"
       position="5.0800001,37.250002" />
    <sodipodi:guide
       position="5.0800001,88.250007"
       orientation="0,1"
       id="guide891"
       inkscape:label=""
       inkscape:locked="false"
       inkscape:color="rgb(0,0,255)" />
    <sodipodi:guide
       position="5.0800001,51.249994"
       orientation="0,1"
       id="guide893"
       inkscape:label=""
       inkscape:locked="false"
       inkscape:color="rgb(0,0,255)" />
    <sodipodi:guide
       position="5.0800002,74.250002"
       orientation="0,1"
       id="guide901"
       inkscape:label=""
       inkscape:locked="false"
       inkscape:color="rgb(0,0,255)" />
    <sodipodi:guide
       position="5.0800001,98.75001"
       orientation="0,1"
       id="guide947"
       inkscape:label=""
       inkscape:locked="false"
       inkscape:color="rgb(0,0,255)" />
    <sodipodi:guide
       position="5.0800001,24.750001"
       orientation="0,1"
       id="guide3392"
       inkscape:label=""
       inkscape:locked="false"
       inkscape:color="rgb(0,0,255)" />
    <sodipodi:guide
       inkscape:color="rgb(0,0,255)"
       inkscape:locked="false"
       inkscape:label=""
       id="guide907"
       orientation="0,1"
       position="5.0800001,14.250001" />
    <sodipodi:guide
       position="5.0800001,61.750002"
       orientation="0,1"
       id="guide908"
       inkscape:label=""
       inkscape:locked="false"
       inkscape:color="rgb(0,0,255)" />
    <sodipodi:guide
       inkscape:color="rgb(0,0,255)"
       inkscape:locked="false"
       inkscape:label=""
       id="guide944"
       orientation="-1,0"
       position="5.0800002,74.250002" />
  </sodipodi:namedview>
  <metadata
     id="metadata5">
    <rdf:RDF>
      <cc:Work
         rdf:about="">
        <dc:format>image/svg+xml</dc:format>
        <dc:type
           rdf:resource="http://purl.org/dc/dcmitype/StillImage" />
        <dc:title />
      </cc:Work>
    </rdf:RDF>
  </metadata>
  <g
     transform="translate(0,-168.5)"
     id="layer1"
     inkscape:groupmode="layer"
     inkscape:label="Layer 1"
     style="display:inline">
    <rect
       style="display:inline;opacity:1;fill:#bbbbb0;fill-opacity:1;stroke:none;stroke-width:1.131;stroke-miterlimit:4;stroke-dasharray:none"
       id="rect838"
       width="10.16"
       height="128.5"
       x="-5.5511151e-17"
       y="168.5" />
    <rect
       style="opacity:1;fill:#555d50;fill-opacity:1;stroke:none;stroke-width:0.829453;stroke-opacity:0.25"
       id="rect45"
       width="9"
       height="23"
       x="0.58000004"
       y="191.5"
       ry="1"
       rx="1" />
    <text
       xml:space="preserve"
       style="font-weight:bold;font-stretch:condensed;font-size:2.82223px;line-height:1.25;font-family:'PT Sans Narrow';-inkscape-font-specification:'PT Sans Narrow, Bold Condensed';opacity:1;stroke-width:0.264583"
       x="2.0529213"
       y="233.73691"
       id="text64"><tspan
         sodipodi:role="line"
         id="tspan62"
         x="2.0529213"
         y="233.73691"
         style="stroke-width:0.264583" /></text>
    <g
       aria-label="GRANDE"
       id="text2569"
       style="font-size:1.76389px;line-height:1.25;font-family:'Source Sans Pro';-inkscape-font-specification:'Source Sans Pro, Normal';text-align:center;letter-spacing:0.370417px;text-anchor:middle;opacity:1;stroke-width:0.264583"
       transform="translate(0,-0.83024)">
      <path
         d="m 1.6963961,292.52968 c 0.1552223,0 0.2822224,-0.0564 0.3580696,-0.13405 v -0.48684 H 1.6734655 v 0.12171 h 0.2451807 v 0.30163 c -0.045861,0.0423 -0.1252362,0.067 -0.208139,0.067 -0.2469446,0 -0.3827641,-0.18168 -0.3827641,-0.47272 0,-0.28751 0.1481667,-0.46567 0.3810002,-0.46567 0.1164167,0 0.1905001,0.0441 0.2487085,0.10407 l 0.081139,-0.0917 c -0.067028,-0.0723 -0.1728612,-0.14287 -0.3333752,-0.14287 -0.3069168,0 -0.5309309,0.22754 -0.5309309,0.59972 0,0.37747 0.2169585,0.59972 0.5221114,0.59972 z"
         style="stroke-width:0.264583"
         id="path2571" />
      <path
         d="m 2.7000468,292.50851 h 0.1481668 v -0.48859 h 0.208139 l 0.2786946,0.48859 h 0.1675696 l -0.2945696,-0.50447 c 0.1569862,-0.0406 0.2592918,-0.1464 0.2592918,-0.32632 0,-0.24165 -0.1693334,-0.32632 -0.4056947,-0.32632 H 2.7000468 Z m 0.1481668,-0.60854 v -0.42862 h 0.192264 c 0.1799168,0 0.2786946,0.0547 0.2786946,0.20637 0,0.14817 -0.098778,0.22225 -0.2786946,0.22225 z"
         style="stroke-width:0.264583"
         id="path2573" />
      <path
         d="m 4.2699053,291.86293 c 0.04057,-0.12876 0.077611,-0.25576 0.112889,-0.38982 h 0.00706 c 0.037042,0.13406 0.074083,0.26106 0.1164168,0.38982 l 0.054681,0.17463 H 4.2152247 Z m -0.3545419,0.64558 h 0.1499307 l 0.111125,-0.35101 H 4.5979889 L 4.70735,292.50851 H 4.8643363 L 4.4745166,291.3514 H 4.3051831 Z"
         style="stroke-width:0.264583"
         id="path2575" />
      <path
         d="M 5.3987927,292.50851 H 5.53814 v -0.60854 c 0,-0.11994 -0.010583,-0.24518 -0.019403,-0.3616 h 0.00706 c 0.038806,0.0847 0.081139,0.1711 0.1252362,0.24871 l 0.4127502,0.72143 H 6.2225293 V 291.3514 H 6.083182 v 0.60325 c 0,0.11995 0.010583,0.24695 0.019403,0.36689 h -0.00706 c -0.040569,-0.0847 -0.081139,-0.1711 -0.1252361,-0.24871 L 5.5575428,291.3514 H 5.3987927 Z"
         style="stroke-width:0.264583"
         id="path2577" />
      <path
         d="m 6.9086818,292.50851 h 0.2963335 c 0.3492503,0 0.5397504,-0.21519 0.5397504,-0.58384 0,-0.36689 -0.1905001,-0.57327 -0.5468059,-0.57327 h -0.289278 z m 0.1481668,-0.1217 v -0.9137 h 0.1305278 c 0.2698752,0 0.4039309,0.16051 0.4039309,0.45156 0,0.2928 -0.1340557,0.46214 -0.4039309,0.46214 z"
         style="stroke-width:0.264583"
         id="path2579" />
      <path
         d="m 8.3656535,292.50851 h 0.6843893 v -0.12523 H 8.5138202 v -0.41981 h 0.4374447 v -0.12523 H 8.5138202 v -0.3616 H 9.0324039 V 291.3514 H 8.3656535 Z"
         style="stroke-width:0.264583"
         id="path2581" />
    </g>
    <g
       transform="translate(-3.6006133e-7,1.4999808)"
       aria-label="+2"
       id="text913"
       style="font-weight:bold;font-stretch:condensed;font-size:2.82223px;line-height:1.25;font-family:'PT Sans Narrow';-inkscape-font-specification:'PT Sans Narrow, Bold Condensed';text-align:center;text-anchor:middle;opacity:1;fill:#fffff0;fill-opacity:1;stroke-width:0.264583">
      <path
         d="m 6.511504,202.15594 h 0.3640677 v -0.41205 H 7.186017 v 0.41205 h 0.3640677 v 0.29916 H 7.186017 v 0.41486 H 6.8755717 V 202.4551 H 6.511504 Z"
         style="fill:#fffff0;fill-opacity:1;stroke-width:0.264583"
         id="path936" />
      <path
         d="m 8.7918612,201.76365 q 0,0.14676 -0.042333,0.30198 -0.042333,0.1524 -0.110067,0.29915 -0.064911,0.14676 -0.1439337,0.27941 -0.079023,0.13264 -0.1552227,0.23424 l -0.1241781,0.11571 v 0.0141 l 0.1693338,-0.0423 h 0.4374456 v 0.29916 H 7.832303 v -0.19474 q 0.059267,-0.0734 0.1270003,-0.16651 0.070556,-0.096 0.1382893,-0.20038 0.070556,-0.10724 0.1354671,-0.22013 0.064911,-0.11571 0.1128892,-0.2286 0.0508,-0.11571 0.079022,-0.22578 0.031045,-0.11007 0.0254,-0.20602 0.00564,-0.11854 -0.0508,-0.19192 -0.056445,-0.0734 -0.1778005,-0.0734 -0.070556,0 -0.1439337,0.0339 -0.073378,0.031 -0.1241781,0.0762 L 7.823836,201.42219 q 0.093134,-0.079 0.2116673,-0.12418 0.1185336,-0.048 0.2794007,-0.048 0.1016003,0 0.1890894,0.0339 0.087489,0.031 0.1495782,0.096 0.064911,0.0649 0.1016003,0.16086 0.036689,0.096 0.036689,0.22296 z"
         style="fill:#fffff0;fill-opacity:1;stroke-width:0.264583"
         id="path938" />
    </g>
    <text
       xml:space="preserve"
       style="font-weight:bold;font-stretch:condensed;font-size:2.82223px;line-height:1.25;font-family:'PT Sans Narrow';-inkscape-font-specification:'PT Sans Narrow, Bold Condensed';text-align:center;text-anchor:middle;opacity:1;stroke-width:0.264583"
       x="7.705914"
       y="247.28606"
       id="text925"><tspan
         sodipodi:role="line"
         id="tspan923"
         x="7.705914"
         y="247.28606"
         style="stroke-width:0.264583" /></text>
    <rect
       style="opacity:1;fill:#555d50;fill-opacity:1;stroke:none;stroke-width:0.829454;stroke-opacity:0.25"
       id="rect912"
       width="8.8000002"
       height="22.9"
       x="0.68000001"
       y="265.5"
       ry="0.99999994"
       rx="1" />
    <rect
       style="fill:#555d50;fill-opacity:1;stroke:none;stroke-width:0.264997"
       id="rect916"
       width="9"
       height="1"
       x="0.58000004"
       y="265.5" />
    <g
       transform="translate(3.9938794e-8,75.75)"
       aria-label="+1"
       id="g924"
       style="font-weight:bold;font-stretch:condensed;font-size:2.82223px;line-height:1.25;font-family:'PT Sans Narrow';-inkscape-font-specification:'PT Sans Narrow, Bold Condensed';text-align:center;text-anchor:middle;display:inline;opacity:1;fill:#fffff0;fill-opacity:1;stroke-width:0.264583">
      <path
         d="m 6.4917482,191.40029 h 0.3640676 v -0.41204 h 0.3104453 v 0.41204 h 0.3640677 v 0.29916 H 7.1662611 v 0.41487 H 6.8558158 v -0.41487 H 6.4917482 Z"
         style="fill:#fffff0;fill-opacity:1;stroke-width:0.264583"
         id="path920" />
      <path
         d="m 7.8831029,192.21027 h 0.3217342 v -1.10913 l 0.036689,-0.19191 -0.1157114,0.16651 -0.1862672,0.14393 L 7.7843248,191.03058 8.3290153,190.5 h 0.1975561 v 1.71027 h 0.3160897 v 0.29916 H 7.8831029 Z"
         style="fill:#fffff0;fill-opacity:1;stroke-width:0.264583"
         id="path922" />
    </g>
    <g
       transform="translate(-3.6006121e-7,75.49999)"
       aria-label="+2"
       id="g930"
       style="font-weight:bold;font-stretch:condensed;font-size:2.82223px;line-height:1.25;font-family:'PT Sans Narrow';-inkscape-font-specification:'PT Sans Narrow, Bold Condensed';text-align:center;text-anchor:middle;display:inline;opacity:1;fill:#fffff0;fill-opacity:1;stroke-width:0.264583">
      <path
         d="m 6.511504,202.15594 h 0.3640677 v -0.41205 H 7.186017 v 0.41205 h 0.3640677 v 0.29916 H 7.186017 v 0.41486 H 6.8755717 V 202.4551 H 6.511504 Z"
         style="fill:#fffff0;fill-opacity:1;stroke-width:0.264583"
         id="path926" />
      <path
         d="m 8.7918612,201.76365 q 0,0.14676 -0.042333,0.30198 -0.042333,0.1524 -0.110067,0.29915 -0.064911,0.14676 -0.1439337,0.27941 -0.079023,0.13264 -0.1552227,0.23424 l -0.1241781,0.11571 v 0.0141 l 0.1693338,-0.0423 h 0.4374456 v 0.29916 H 7.832303 v -0.19474 q 0.059267,-0.0734 0.1270003,-0.16651 0.070556,-0.096 0.1382893,-0.20038 0.070556,-0.10724 0.1354671,-0.22013 0.064911,-0.11571 0.1128892,-0.2286 0.0508,-0.11571 0.079022,-0.22578 0.031045,-0.11007 0.0254,-0.20602 0.00564,-0.11854 -0.0508,-0.19192 -0.056445,-0.0734 -0.1778005,-0.0734 -0.070556,0 -0.1439337,0.0339 -0.073378,0.031 -0.1241781,0.0762 L 7.823836,201.42219 q 0.093134,-0.079 0.2116673,-0.12418 0.1185336,-0.048 0.2794007,-0.048 0.1016003,0 0.1890894,0.0339 0.087489,0.031 0.1495782,0.096 0.064911,0.0649 0.1016003,0.16086 0.036689,0.096 0.036689,0.22296 z"
         style="fill:#fffff0;fill-opacity:1;stroke-width:0.264583"
         id="path928" />
    </g>
    <rect
       style="opacity:1;fill:#555d50;fill-opacity:1;stroke:none;stroke-width:0.829454;stroke-opacity:0.25"
       id="rect910"
       width="8.8000002"
       height="22.9"
       x="0.68000001"
       y="228.5"
       ry="0.99999994"
       rx="1" />
    <rect
       style="fill:#555d50;fill-opacity:1;stroke:none;stroke-width:0.264997"
       id="rect914"
       width="9"
       height="1"
       x="0.58000004"
       y="228.5" />
    <g
       style="font-weight:bold;font-stretch:condensed;font-size:2.82223px;line-height:1.25;font-family:'PT Sans Narrow';-inkscape-font-specification:'PT Sans Narrow, Bold Condensed';text-align:center;text-anchor:middle;display:inline;opacity:1;fill:#fffff0;fill-opacity:1;stroke-width:0.264583"
       id="text907-4"
       aria-label="+1"
       transform="translate(3.9938795e-8,38.75)">
      <path
         id="path927-1"
         style="fill:#fffff0;fill-opacity:1;stroke-width:0.264583"
         d="m 6.4917482,191.40029 h 0.3640676 v -0.41204 h 0.3104453 v 0.41204 h 0.3640677 v 0.29916 H 7.1662611 v 0.41487 H 6.8558158 v -0.41487 H 6.4917482 Z" />
      <path
         id="path930-8"
         style="fill:#fffff0;fill-opacity:1;stroke-width:0.264583"
         d="m 7.8831029,192.21027 h 0.3217342 v -1.10913 l 0.036689,-0.19191 -0.1157114,0.16651 -0.1862672,0.14393 L 7.7843248,191.03058 8.3290153,190.5 h 0.1975561 v 1.71027 h 0.3160897 v 0.29916 H 7.8831029 Z" />
    </g>
    <g
       style="font-weight:bold;font-stretch:condensed;font-size:2.82223px;line-height:1.25;font-family:'PT Sans Narrow';-inkscape-font-specification:'PT Sans Narrow, Bold Condensed';text-align:center;text-anchor:middle;display:inline;opacity:1;fill:#fffff0;fill-opacity:1;stroke-width:0.264583"
       id="text913-5"
       aria-label="+2"
       transform="translate(-3.6006121e-7,38.49999)">
      <path
         id="path936-9"
         style="fill:#fffff0;fill-opacity:1;stroke-width:0.264583"
         d="m 6.511504,202.15594 h 0.3640677 v -0.41205 H 7.186017 v 0.41205 h 0.3640677 v 0.29916 H 7.186017 v 0.41486 H 6.8755717 V 202.4551 H 6.511504 Z" />
      <path
         id="path938-7"
         style="fill:#fffff0;fill-opacity:1;stroke-width:0.264583"
         d="m 8.7918612,201.76365 q 0,0.14676 -0.042333,0.30198 -0.042333,0.1524 -0.110067,0.29915 -0.064911,0.14676 -0.1439337,0.27941 -0.079023,0.13264 -0.1552227,0.23424 l -0.1241781,0.11571 v 0.0141 l 0.1693338,-0.0423 h 0.4374456 v 0.29916 H 7.832303 v -0.19474 q 0.059267,-0.0734 0.1270003,-0.16651 0.070556,-0.096 0.1382893,-0.20038 0.070556,-0.10724 0.1354671,-0.22013 0.064911,-0.11571 0.1128892,-0.2286 0.0508,-0.11571 0.079022,-0.22578 0.031045,-0.11007 0.0254,-0.20602 0.00564,-0.11854 -0.0508,-0.19192 -0.056445,-0.0734 -0.1778005,-0.0734 -0.070556,0 -0.1439337,0.0339 -0.073378,0.031 -0.1241781,0.0762 L 7.823836,201.42219 q 0.093134,-0.079 0.2116673,-0.12418 0.1185336,-0.048 0.2794007,-0.048 0.1016003,0 0.1890894,0.0339 0.087489,0.031 0.1495782,0.096 0.064911,0.0649 0.1016003,0.16086 0.036689,0.096 0.036689,0.22296 z" />
    </g>
    <g
       aria-label="SD"
       id="text915"
       style="font-weight:bold;font-stretch:condensed;font-size:4.9389px;line-height:1.25;font-family:'PT Sans Narrow';-inkscape-font-specification:'PT Sans Narrow, Bold Condensed';text-align:center;text-anchor:middle;opacity:1;stroke-width:0.264583">
      <path
         d="m 4.1342025,176.63737 q 0,-0.15805 -0.093839,-0.26671 -0.093839,-0.11359 -0.2370672,-0.21237 -0.1382892,-0.0988 -0.3062118,-0.20249 -0.1629837,-0.10372 -0.3062118,-0.24201 -0.1382892,-0.13829 -0.2321283,-0.32597 -0.093839,-0.18767 -0.093839,-0.45931 0,-0.25189 0.074083,-0.42475 0.079022,-0.1778 0.2123727,-0.28646 0.1333503,-0.11359 0.3160896,-0.16298 0.1827393,-0.0543 0.3901731,-0.0543 0.2518839,0 0.4691955,0.0494 0.2173116,0.0494 0.3605397,0.13335 l -0.1926171,0.54822 q -0.083961,-0.0593 -0.2518839,-0.10866 -0.1629837,-0.0494 -0.3556008,-0.0494 -0.1926171,0 -0.296334,0.079 -0.1037169,0.079 -0.1037169,0.23213 0,0.13828 0.093839,0.24694 0.093839,0.10372 0.2321283,0.2025 0.1432281,0.0988 0.3062118,0.20743 0.1679226,0.10372 0.3062118,0.24694 0.1432281,0.13829 0.2370672,0.33091 0.093839,0.18768 0.093839,0.44944 0,0.26176 -0.079022,0.45438 -0.074083,0.19262 -0.2173116,0.32103 -0.1382892,0.12347 -0.3358452,0.18768 -0.197556,0.0642 -0.4395621,0.0642 -0.3062118,0 -0.5383401,-0.0593 -0.2271894,-0.0593 -0.3506619,-0.13335 l 0.2024949,-0.55809 q 0.098778,0.0593 0.2716395,0.11853 0.1728615,0.0593 0.3704175,0.0593 0.49389,0 0.4938901,-0.38523 z"
         style="stroke-width:0.264583"
         id="path917" />
      <path
         d="m 5.0923451,174.06914 q 0.0889,-0.0148 0.197556,-0.0198 0.1135947,-0.01 0.2271894,-0.0148 0.1185336,-0.01 0.2271894,-0.01 0.1086558,-0.005 0.1926171,-0.005 0.4099287,0 0.6815682,0.12841 0.2765784,0.12347 0.4395621,0.3556 0.1679226,0.22719 0.2370672,0.54822 0.069145,0.32103 0.069145,0.71614 0,0.36054 -0.069145,0.69144 -0.064206,0.32597 -0.2321283,0.57786 -0.1679226,0.24694 -0.4543788,0.39511 -0.2864562,0.14817 -0.7210794,0.14817 -0.064206,0 -0.1728615,-0.005 -0.1086558,-0.005 -0.2271894,-0.0148 -0.1185336,-0.005 -0.2271894,-0.0148 -0.1086558,-0.005 -0.1679226,-0.0148 z m 0.9087576,0.52352 q -0.079022,0 -0.1629837,0.005 -0.079022,0 -0.1234725,0.01 v 2.38055 q 0.014817,0.005 0.049389,0.01 0.039511,0 0.079022,0.005 0.04445,0 0.079022,0.005 0.039511,0 0.054328,0 0.2222505,0 0.3654786,-0.10371 0.1432281,-0.10372 0.2222505,-0.27658 0.083961,-0.17286 0.1135947,-0.39511 0.034572,-0.22719 0.034572,-0.47414 0,-0.22719 -0.029633,-0.43956 -0.024694,-0.21237 -0.1037169,-0.37042 -0.074084,-0.16298 -0.2173116,-0.25682 -0.1382892,-0.0988 -0.3605397,-0.0988 z"
         style="stroke-width:0.264583"
         id="path919" />
    </g>
    <rect
       style="fill:none;stroke:#555d50;stroke-width:0.265"
       id="rect902"
       width="8.7350006"
       height="34.735001"
       x="0.71249956"
       y="179.63249"
       rx="1"
       ry="1" />
    <rect
       style="fill:none;stroke:#555d50;stroke-width:0.265"
       id="rect904"
       width="8.7350006"
       height="34.735001"
       x="0.71249956"
       y="216.63249"
       rx="1"
       ry="1" />
    <rect
       style="fill:none;stroke:#555d50;stroke-width:0.265"
       id="rect906"
       width="8.7350006"
       height="34.735001"
       x="0.71249956"
       y="253.63249"
       rx="1"
       ry="1" />
    <rect
       style="fill:#555d50;fill-opacity:1;stroke:none;stroke-width:0.264997"
       id="rect908"
       width="9"
       height="1"
       x="0.57999998"
       y="191.5" />
    <g
       transform="translate(3.9938734e-8,1.7499969)"
       aria-label="+1"
       id="text907"
       style="font-weight:bold;font-stretch:condensed;font-size:2.82223px;line-height:1.25;font-family:'PT Sans Narrow';-inkscape-font-specification:'PT Sans Narrow, Bold Condensed';text-align:center;text-anchor:middle;opacity:1;fill:#fffff0;fill-opacity:1;stroke-width:0.264583">
      <path
         d="m 6.4917482,191.40029 h 0.3640676 v -0.41204 h 0.3104453 v 0.41204 h 0.3640677 v 0.29916 H 7.1662611 v 0.41487 H 6.8558158 v -0.41487 H 6.4917482 Z"
         style="fill:#fffff0;fill-opacity:1;stroke-width:0.264583"
         id="path927" />
      <path
         d="m 7.8831029,192.21027 h 0.3217342 v -1.10913 l 0.036689,-0.19191 -0.1157114,0.16651 -0.1862672,0.14393 L 7.7843248,191.03058 8.3290153,190.5 h 0.1975561 v 1.71027 h 0.3160897 v 0.29916 H 7.8831029 Z"
         style="fill:#fffff0;fill-opacity:1;stroke-width:0.264583"
         id="path930" />
    </g>
  </g>
  <g
     style="display:none"
     inkscape:label="components"
     id="layer2"
     inkscape:groupmode="layer">
    <circle
       inkscape:label="CV_Out"
       cy="114.25"
       cx="5.0799999"
       id="circle921"
       style="fill:#0000ff;fill-rule:evenodd;stroke-width:0.264582"
       r="4" />
    <circle
       inkscape:label="CV_Out"
       cy="54.25"
       cx="5.0799999"
       id="circle910"
       style="fill:#00ff00;fill-rule:evenodd;stroke-width:0.264582"
       r="4" />
    <circle
       r="4"
       style="fill:#0000ff;fill-rule:evenodd;stroke-width:0.264582"
       id="circle906"
       cx="5.0799999"
       cy="103.75"
       inkscape:label="CV_Out" />
    <circle
       r="4"
       style="fill:#0000ff;fill-rule:evenodd;stroke-width:0.264582"
       id="circle912"
       cx="5.0799999"
       cy="77.250008"
       inkscape:label="CV_Out" />
    <circle
       inkscape:label="CV_Out"
       cy="66.75"
       cx="5.0799999"
       id="circle914"
       style="fill:#0000ff;fill-rule:evenodd;stroke-width:0.264582"
       r="4" />
    <circle
       inkscape:label="CV_Out"
       cy="40.249996"
       cx="5.0799999"
       id="circle918"
       style="fill:#0000ff;fill-rule:evenodd;stroke-width:0.264582"
       r="4" />
    <circle
       r="4"
       style="fill:#0000ff;fill-rule:evenodd;stroke-width:0.264582"
       id="circle920"
       cx="5.0799999"
       cy="29.749994"
       inkscape:label="CV_Out" />
    <circle
       r="4"
       style="fill:#00ff00;fill-rule:evenodd;stroke-width:0.264582"
       id="circle922"
       cx="5.0799999"
       cy="17.25"
       inkscape:label="CV_Out" />
    <circle
       r="4"
       style="fill:#00ff00;fill-rule:evenodd;stroke-width:0.264582"
       id="circle916"
       cx="5.0799999"
       cy="91.25"
       inkscape:label="CV_Out" />
  </g>
</svg>
