<?xml version="1.0" encoding="UTF-8" standalone="no"?>
<svg
   sodipodi:docname="Split8.svg"
   inkscape:version="1.1.1 (3bf5ae0d25, 2021-09-20)"
   id="svg8"
   version="1.1"
   viewBox="0 0 10.16 128.5"
   height="128.5mm"
   width="10.16mm"
   xmlns:inkscape="http://www.inkscape.org/namespaces/inkscape"
   xmlns:sodipodi="http://sodipodi.sourceforge.net/DTD/sodipodi-0.dtd"
   xmlns="http://www.w3.org/2000/svg"
   xmlns:svg="http://www.w3.org/2000/svg"
   xmlns:rdf="http://www.w3.org/1999/02/22-rdf-syntax-ns#"
   xmlns:cc="http://creativecommons.org/ns#"
   xmlns:dc="http://purl.org/dc/elements/1.1/">
  <defs
     id="defs2" />
  <sodipodi:namedview
     inkscape:snap-global="true"
     inkscape:snap-bbox-midpoints="true"
     inkscape:snap-bbox="true"
     inkscape:document-rotation="0"
     inkscape:window-maximized="0"
     inkscape:window-y="23"
     inkscape:window-x="26"
     inkscape:window-height="1088"
     inkscape:window-width="1502"
     inkscape:lockguides="false"
     inkscape:guide-bbox="true"
     showguides="true"
     units="mm"
     showgrid="false"
     inkscape:current-layer="layer1"
     inkscape:document-units="mm"
     inkscape:cy="86.5625"
     inkscape:cx="-106.875"
     inkscape:zoom="1.6"
     inkscape:pageshadow="2"
     inkscape:pageopacity="0.0"
     borderopacity="1.0"
     bordercolor="#666666"
     pagecolor="#ffffff"
     id="base"
     inkscape:bbox-nodes="false"
     inkscape:bbox-paths="false"
     inkscape:snap-grids="false"
     inkscape:snap-others="false"
     inkscape:object-nodes="false"
     inkscape:snap-nodes="false"
     inkscape:snap-bbox-edge-midpoints="false"
     inkscape:pagecheckerboard="0">
    <sodipodi:guide
       position="5.0800001,109"
       orientation="0,1"
       id="guide837"
       inkscape:label=""
       inkscape:locked="false"
       inkscape:color="rgb(0,0,255)" />
    <sodipodi:guide
       inkscape:color="rgb(0,0,255)"
       inkscape:locked="false"
       inkscape:label=""
       id="guide875"
       orientation="0,1"
       position="5.0800001,36.500291" />
    <sodipodi:guide
       position="5.0800001,81.500293"
       orientation="0,1"
       id="guide891"
       inkscape:label=""
       inkscape:locked="false"
       inkscape:color="rgb(0,0,255)" />
    <sodipodi:guide
       position="5.0800001,47.750292"
       orientation="0,1"
       id="guide893"
       inkscape:label=""
       inkscape:locked="false"
       inkscape:color="rgb(0,0,255)" />
    <sodipodi:guide
       position="5.0800001,70.250293"
       orientation="0,1"
       id="guide901"
       inkscape:label=""
       inkscape:locked="false"
       inkscape:color="rgb(0,0,255)" />
    <sodipodi:guide
       position="5.0800001,92.750294"
       orientation="0,1"
       id="guide947"
       inkscape:label=""
       inkscape:locked="false"
       inkscape:color="rgb(0,0,255)" />
    <sodipodi:guide
       position="5.0800001,25.250291"
       orientation="0,1"
       id="guide3392"
       inkscape:label=""
       inkscape:locked="false"
       inkscape:color="rgb(0,0,255)" />
    <sodipodi:guide
       inkscape:color="rgb(0,0,255)"
       inkscape:locked="false"
       inkscape:label=""
       id="guide907"
       orientation="0,1"
       position="5.0800001,14.00029" />
    <sodipodi:guide
       inkscape:color="rgb(0,0,255)"
       inkscape:locked="false"
       inkscape:label=""
       id="guide944"
       orientation="-1,0"
       position="5.0800002,74.250002" />
    <sodipodi:guide
       position="5.0800001,59.000292"
       orientation="0,1"
       id="guide882"
       inkscape:label=""
       inkscape:locked="false"
       inkscape:color="rgb(0,0,255)" />
    <sodipodi:guide
       position="8.4000003,111"
       orientation="-1,0"
       id="guide961"
       inkscape:label=""
       inkscape:locked="false"
       inkscape:color="rgb(0,0,255)" />
    <sodipodi:guide
       position="1.7600001,18.000291"
       orientation="0,1"
       id="guide911"
       inkscape:label=""
       inkscape:locked="false"
       inkscape:color="rgb(0,0,255)" />
    <sodipodi:guide
       position="1.7600001,48.283112"
       orientation="-1,0"
       id="guide904"
       inkscape:label=""
       inkscape:locked="false"
       inkscape:color="rgb(0,0,255)" />
    <sodipodi:guide
       position="1.7600001,96.750294"
       orientation="0,1"
       id="guide2336"
       inkscape:label=""
       inkscape:locked="false"
       inkscape:color="rgb(0,0,255)" />
    <sodipodi:guide
       position="1.7600001,85.500293"
       orientation="0,1"
       id="guide2338"
       inkscape:label=""
       inkscape:locked="false"
       inkscape:color="rgb(0,0,255)" />
    <sodipodi:guide
       position="1.7600001,74.250293"
       orientation="0,1"
       id="guide2340"
       inkscape:label=""
       inkscape:locked="false"
       inkscape:color="rgb(0,0,255)" />
    <sodipodi:guide
       position="1.7600001,63.000293"
       orientation="0,1"
       id="guide2342"
       inkscape:label=""
       inkscape:locked="false"
       inkscape:color="rgb(0,0,255)" />
    <sodipodi:guide
       position="1.7600001,51.750292"
       orientation="0,1"
       id="guide2344"
       inkscape:label=""
       inkscape:locked="false"
       inkscape:color="rgb(0,0,255)" />
    <sodipodi:guide
       position="1.7600001,40.500292"
       orientation="0,1"
       id="guide2346"
       inkscape:label=""
       inkscape:locked="false"
       inkscape:color="rgb(0,0,255)" />
    <sodipodi:guide
       position="1.7600006,29.250291"
       orientation="0,1"
       id="guide2348"
       inkscape:label=""
       inkscape:locked="false"
       inkscape:color="rgb(0,0,255)" />
  </sodipodi:namedview>
  <metadata
     id="metadata5">
    <rdf:RDF>
      <cc:Work
         rdf:about="">
        <dc:format>image/svg+xml</dc:format>
        <dc:type
           rdf:resource="http://purl.org/dc/dcmitype/StillImage" />
        <dc:title />
      </cc:Work>
    </rdf:RDF>
  </metadata>
  <g
     transform="translate(0,-168.5)"
     id="layer1"
     inkscape:groupmode="layer"
     inkscape:label="Layer 1"
     style="display:inline">
    <rect
       style="display:inline;opacity:1;fill:#bbbbb0;fill-opacity:1;stroke:none;stroke-width:1.131;stroke-miterlimit:4;stroke-dasharray:none"
       id="rect838"
       width="10.16"
       height="128.5"
       x="-5.5511151e-17"
       y="168.5" />
    <text
       xml:space="preserve"
       style="font-weight:bold;font-stretch:condensed;font-size:2.82223px;line-height:1.25;font-family:'PT Sans Narrow';-inkscape-font-specification:'PT Sans Narrow, Bold Condensed';stroke-width:0.264583"
       x="2.0529213"
       y="233.73691"
       id="text64"><tspan
         sodipodi:role="line"
         id="tspan62"
         x="2.0529213"
         y="233.73691"
         style="stroke-width:0.264583" /></text>
    <g
       aria-label="GRANDE"
       id="text2569"
       style="font-size:1.76389px;line-height:1.25;font-family:'Source Sans Pro';-inkscape-font-specification:'Source Sans Pro, Normal';text-align:center;letter-spacing:0.370417px;text-anchor:middle;stroke-width:0.264583"
       transform="translate(0,-0.83024)">
      <path
         d="m 1.6963961,292.52968 c 0.1552223,0 0.2822224,-0.0564 0.3580696,-0.13405 v -0.48684 H 1.6734655 v 0.12171 h 0.2451807 v 0.30163 c -0.045861,0.0423 -0.1252362,0.067 -0.208139,0.067 -0.2469446,0 -0.3827641,-0.18168 -0.3827641,-0.47272 0,-0.28751 0.1481667,-0.46567 0.3810002,-0.46567 0.1164167,0 0.1905001,0.0441 0.2487085,0.10407 l 0.081139,-0.0917 c -0.067028,-0.0723 -0.1728612,-0.14287 -0.3333752,-0.14287 -0.3069168,0 -0.5309309,0.22754 -0.5309309,0.59972 0,0.37747 0.2169585,0.59972 0.5221114,0.59972 z"
         style="stroke-width:0.264583"
         id="path2571" />
      <path
         d="m 2.7000468,292.50851 h 0.1481668 v -0.48859 h 0.208139 l 0.2786946,0.48859 h 0.1675696 l -0.2945696,-0.50447 c 0.1569862,-0.0406 0.2592918,-0.1464 0.2592918,-0.32632 0,-0.24165 -0.1693334,-0.32632 -0.4056947,-0.32632 H 2.7000468 Z m 0.1481668,-0.60854 v -0.42862 h 0.192264 c 0.1799168,0 0.2786946,0.0547 0.2786946,0.20637 0,0.14817 -0.098778,0.22225 -0.2786946,0.22225 z"
         style="stroke-width:0.264583"
         id="path2573" />
      <path
         d="m 4.2699053,291.86293 c 0.04057,-0.12876 0.077611,-0.25576 0.112889,-0.38982 h 0.00706 c 0.037042,0.13406 0.074083,0.26106 0.1164168,0.38982 l 0.054681,0.17463 H 4.2152247 Z m -0.3545419,0.64558 h 0.1499307 l 0.111125,-0.35101 H 4.5979889 L 4.70735,292.50851 H 4.8643363 L 4.4745166,291.3514 H 4.3051831 Z"
         style="stroke-width:0.264583"
         id="path2575" />
      <path
         d="M 5.3987927,292.50851 H 5.53814 v -0.60854 c 0,-0.11994 -0.010583,-0.24518 -0.019403,-0.3616 h 0.00706 c 0.038806,0.0847 0.081139,0.1711 0.1252362,0.24871 l 0.4127502,0.72143 H 6.2225293 V 291.3514 H 6.083182 v 0.60325 c 0,0.11995 0.010583,0.24695 0.019403,0.36689 h -0.00706 c -0.040569,-0.0847 -0.081139,-0.1711 -0.1252361,-0.24871 L 5.5575428,291.3514 H 5.3987927 Z"
         style="stroke-width:0.264583"
         id="path2577" />
      <path
         d="m 6.9086818,292.50851 h 0.2963335 c 0.3492503,0 0.5397504,-0.21519 0.5397504,-0.58384 0,-0.36689 -0.1905001,-0.57327 -0.5468059,-0.57327 h -0.289278 z m 0.1481668,-0.1217 v -0.9137 h 0.1305278 c 0.2698752,0 0.4039309,0.16051 0.4039309,0.45156 0,0.2928 -0.1340557,0.46214 -0.4039309,0.46214 z"
         style="stroke-width:0.264583"
         id="path2579" />
      <path
         d="m 8.3656535,292.50851 h 0.6843893 v -0.12523 H 8.5138202 v -0.41981 h 0.4374447 v -0.12523 H 8.5138202 v -0.3616 H 9.0324039 V 291.3514 H 8.3656535 Z"
         style="stroke-width:0.264583"
         id="path2581" />
    </g>
    <text
       xml:space="preserve"
       style="font-weight:bold;font-stretch:condensed;font-size:2.82223px;line-height:1.25;font-family:'PT Sans Narrow';-inkscape-font-specification:'PT Sans Narrow, Bold Condensed';text-align:center;text-anchor:middle;stroke-width:0.264583"
       x="7.705914"
       y="247.28606"
       id="text925"><tspan
         sodipodi:role="line"
         id="tspan923"
         x="7.705914"
         y="247.28606"
         style="stroke-width:0.264583" /></text>
    <g
       aria-label="1"
       id="text977"
       style="font-size:2.82223px;line-height:1.25;font-family:'PTQ Sans Narrow';-inkscape-font-specification:'PTQ Sans Narrow, Normal';fill:#fffff0;fill-opacity:1;stroke-width:0.264583"
       transform="translate(-6.5739145,0.30870002)">
      <path
         d="m 7.9035245,249.89657 v 0.29915 h 0.9595582 v -0.29915 H 8.5469929 V 248.1863 H 8.3494368 l -0.5446904,0.53058 0.1552227,0.18909 0.1862672,-0.14394 0.1157114,-0.16651 -0.036689,0.19191 v 1.10914 z"
         style="fill:#fffff0;fill-opacity:1;stroke-width:0.264583"
         id="path991" />
    </g>
    <g
       aria-label="2"
       id="text981"
       style="font-size:2.82223px;line-height:1.25;font-family:'PTQ Sans Narrow';-inkscape-font-specification:'PTQ Sans Narrow, Normal';fill:#fffff0;fill-opacity:1;stroke-width:0.264583"
       transform="translate(-6.8203667,0.33129462)">
      <path
         d="m 8.080832,258.33305 0.1298226,0.24553 c 0.056445,-0.0508 0.1636894,-0.11006 0.2681119,-0.11006 0.1580449,0 0.2342451,0.10724 0.2286006,0.26528 0.00282,0.0649 -0.00564,0.13265 -0.0254,0.20603 -0.045156,0.16369 -0.1157115,0.31609 -0.1919117,0.45438 -0.1185337,0.20602 -0.2596452,0.41204 -0.4007567,0.58702 v 0.19473 h 0.9906028 v -0.29915 H 8.6424558 l -0.1693338,0.0423 v -0.0141 l 0.1241782,-0.11571 c 0.1072447,-0.14393 0.2173117,-0.3302 0.2991563,-0.51365 0.0762,-0.16651 0.1524005,-0.37535 0.1524005,-0.60113 0,-0.0847 -0.014111,-0.15805 -0.036689,-0.22296 -0.067734,-0.17215 -0.208845,-0.29069 -0.4402679,-0.29069 -0.2229562,0 -0.3725344,0.0706 -0.4910681,0.17216 z"
         style="fill:#fffff0;fill-opacity:1;stroke-width:0.264583"
         id="path994" />
    </g>
    <g
       aria-label="3"
       id="text985"
       style="font-size:2.82223px;line-height:1.25;font-family:'PTQ Sans Narrow';-inkscape-font-specification:'PTQ Sans Narrow, Normal';fill:#fffff0;fill-opacity:1;stroke-width:0.264583"
       transform="translate(-7.1529586,0.37733021)">
      <path
         d="m 8.5037349,269.76019 -0.090311,0.28223 c 0.084667,0.0536 0.2624674,0.0875 0.4035789,0.0875 0.081845,0 0.1580449,-0.0113 0.2314229,-0.0395 0.2286006,-0.0818 0.3640677,-0.29633 0.3640677,-0.61242 0,-0.0903 -0.011289,-0.17216 -0.033867,-0.23989 -0.053622,-0.16651 -0.1693338,-0.29916 -0.3668899,-0.31609 l -0.1044225,0.0169 v -0.0141 l 0.1044225,-0.0762 0.3273787,-0.5334 v -0.20038 H 8.4360014 v 0.29916 h 0.3866455 l 0.1862672,-0.0254 -0.1354671,0.127 -0.2794008,0.47413 v 0.19191 h 0.1665116 c 0.208845,0 0.3160898,0.10725 0.3160898,0.31892 0,0.18909 -0.095956,0.3302 -0.282223,0.3302 -0.1213559,0 -0.2116673,-0.0282 -0.2906897,-0.0706 z"
         style="fill:#fffff0;fill-opacity:1;stroke-width:0.264583"
         id="path997" />
    </g>
    <g
       aria-label="4"
       id="text989"
       style="font-size:2.82223px;line-height:1.25;font-family:'PTQ Sans Narrow';-inkscape-font-specification:'PTQ Sans Narrow, Normal';fill:#fffff0;fill-opacity:1;stroke-width:0.264583"
       transform="translate(-6.8720121,0.48807481)">
      <path
         d="m 9.2641917,279.45613 v -0.28786 H 9.0158355 v -1.15147 h -0.293512 l -0.7224909,1.23049 v 0.20884 h 0.6970909 v 0.55034 h 0.318912 v -0.55034 z m -0.5672682,-0.72531 v 0.43745 h -0.256823 l -0.1439337,0.0226 0.1128892,-0.10725 0.2229562,-0.37818 0.084667,-0.2286 h 0.011289 z"
         style="fill:#fffff0;fill-opacity:1;stroke-width:0.264583"
         id="path1000" />
    </g>
    <rect
       style="display:inline;fill:#555d50;fill-opacity:1;stroke-width:0.264584"
       id="rect170"
       width="8.8000002"
       height="92.800003"
       x="0.68000001"
       y="195.60001"
       rx="1"
       ry="1" />
    <g
       aria-label="1"
       id="g188"
       style="font-size:2.82223px;line-height:1.25;font-family:'PTQ Sans Narrow';-inkscape-font-specification:'PTQ Sans Narrow, Normal';fill:#fffff0;fill-opacity:1;stroke-width:0.264583"
       transform="translate(-6.5739145,-48.9413)">
      <path
         d="m 7.9035245,249.89657 v 0.29915 h 0.9595582 v -0.29915 H 8.5469929 V 248.1863 H 8.3494368 l -0.5446904,0.53058 0.1552227,0.18909 0.1862672,-0.14394 0.1157114,-0.16651 -0.036689,0.19191 v 1.10914 z"
         style="fill:#fffff0;fill-opacity:1;stroke-width:0.264583"
         id="path186" />
    </g>
    <g
       aria-label="2"
       id="g192"
       style="font-size:2.82223px;line-height:1.25;font-family:'PTQ Sans Narrow';-inkscape-font-specification:'PTQ Sans Narrow, Normal';fill:#fffff0;fill-opacity:1;stroke-width:0.264583"
       transform="translate(-6.8203667,-47.668705)">
      <path
         d="m 8.080832,258.33305 0.1298226,0.24553 c 0.056445,-0.0508 0.1636894,-0.11006 0.2681119,-0.11006 0.1580449,0 0.2342451,0.10724 0.2286006,0.26528 0.00282,0.0649 -0.00564,0.13265 -0.0254,0.20603 -0.045156,0.16369 -0.1157115,0.31609 -0.1919117,0.45438 -0.1185337,0.20602 -0.2596452,0.41204 -0.4007567,0.58702 v 0.19473 h 0.9906028 v -0.29915 H 8.6424558 l -0.1693338,0.0423 v -0.0141 l 0.1241782,-0.11571 c 0.1072447,-0.14393 0.2173117,-0.3302 0.2991563,-0.51365 0.0762,-0.16651 0.1524005,-0.37535 0.1524005,-0.60113 0,-0.0847 -0.014111,-0.15805 -0.036689,-0.22296 -0.067734,-0.17215 -0.208845,-0.29069 -0.4402679,-0.29069 -0.2229562,0 -0.3725344,0.0706 -0.4910681,0.17216 z"
         style="fill:#fffff0;fill-opacity:1;stroke-width:0.264583"
         id="path190" />
    </g>
    <g
       aria-label="3"
       id="g196"
       style="font-size:2.82223px;line-height:1.25;font-family:'PTQ Sans Narrow';-inkscape-font-specification:'PTQ Sans Narrow, Normal';fill:#fffff0;fill-opacity:1;stroke-width:0.264583"
       transform="translate(-7.1529586,-46.37267)">
      <path
         d="m 8.5037349,269.76019 -0.090311,0.28223 c 0.084667,0.0536 0.2624674,0.0875 0.4035789,0.0875 0.081845,0 0.1580449,-0.0113 0.2314229,-0.0395 0.2286006,-0.0818 0.3640677,-0.29633 0.3640677,-0.61242 0,-0.0903 -0.011289,-0.17216 -0.033867,-0.23989 -0.053622,-0.16651 -0.1693338,-0.29916 -0.3668899,-0.31609 l -0.1044225,0.0169 v -0.0141 l 0.1044225,-0.0762 0.3273787,-0.5334 v -0.20038 H 8.4360014 v 0.29916 h 0.3866455 l 0.1862672,-0.0254 -0.1354671,0.127 -0.2794008,0.47413 v 0.19191 h 0.1665116 c 0.208845,0 0.3160898,0.10725 0.3160898,0.31892 0,0.18909 -0.095956,0.3302 -0.282223,0.3302 -0.1213559,0 -0.2116673,-0.0282 -0.2906897,-0.0706 z"
         style="fill:#fffff0;fill-opacity:1;stroke-width:0.264583"
         id="path194" />
    </g>
    <g
       aria-label="4"
       id="g200"
       style="font-size:2.82223px;line-height:1.25;font-family:'PTQ Sans Narrow';-inkscape-font-specification:'PTQ Sans Narrow, Normal';fill:#fffff0;fill-opacity:1;stroke-width:0.264583"
       transform="translate(-6.8720121,-45.011925)">
      <path
         d="m 9.2641917,279.45613 v -0.28786 H 9.0158355 v -1.15147 h -0.293512 l -0.7224909,1.23049 v 0.20884 h 0.6970909 v 0.55034 h 0.318912 v -0.55034 z m -0.5672682,-0.72531 v 0.43745 h -0.256823 l -0.1439337,0.0226 0.1128892,-0.10725 0.2229562,-0.37818 0.084667,-0.2286 h 0.011289 z"
         style="fill:#fffff0;fill-opacity:1;stroke-width:0.264583"
         id="path198" />
    </g>
    <rect
       style="fill:none;fill-opacity:1;stroke:#555d50;stroke-width:0.264583;stroke-opacity:1"
       id="rect202"
       width="8.7354164"
       height="92.73542"
       x="0.71229148"
       y="195.63229"
       rx="1"
       ry="1" />
    <g
       aria-label="5"
       id="text40764"
       style="font-size:2.82223px;line-height:1.25;font-family:'PTQ Sans Narrow';-inkscape-font-specification:'PTQ Sans Narrow, Normal';font-variant-ligatures:none;fill:#fffff0;fill-opacity:1;stroke-width:0.264583"
       transform="translate(-13.114046,-1.3143249)">
      <path
         d="m 14.875454,246.27614 -0.09313,0.0113 v -0.40357 h 0.533402 v -0.32738 h -0.821269 v 1.03011 l 0.183445,-0.0113 c 0.234245,0 0.361245,0.1016 0.361245,0.33585 0,0.20602 -0.107245,0.35278 -0.310445,0.35278 -0.110067,0 -0.200379,-0.0169 -0.268112,-0.0536 l -0.08749,0.28505 c 0.08467,0.0452 0.239889,0.0762 0.372534,0.0762 0.09031,0 0.172156,-0.0141 0.251179,-0.0423 0.234245,-0.0847 0.378179,-0.3048 0.378179,-0.63218 0,-0.3556 -0.172157,-0.60678 -0.499535,-0.62089 z"
         id="path58626"
         style="fill:#fffff0;fill-opacity:1" />
    </g>
    <g
       aria-label="6"
       id="text42550"
       style="font-size:2.82223px;line-height:1.25;font-family:'PTQ Sans Narrow';-inkscape-font-specification:'PTQ Sans Narrow, Normal';font-variant-ligatures:none;fill:#fffff0;fill-opacity:1;stroke-width:0.264583"
       transform="translate(-12.748613,6.0513797)">
      <path
         d="m 14.292718,250.36931 c 0.06491,-0.32738 0.268112,-0.59267 0.584201,-0.67451 l -0.08467,-0.27376 c -0.11289,0.0254 -0.217312,0.0705 -0.318912,0.13829 -0.324557,0.21731 -0.522113,0.62089 -0.522113,1.1684 0,0.12982 0.01411,0.24271 0.04233,0.33867 0.07056,0.23707 0.228601,0.40922 0.527758,0.40922 0.07902,0 0.149578,-0.0141 0.217311,-0.0451 0.203201,-0.0903 0.327379,-0.30763 0.327379,-0.60678 0,-0.1016 -0.01411,-0.18909 -0.03669,-0.26529 -0.05927,-0.19191 -0.191912,-0.34149 -0.434624,-0.34149 -0.149578,0 -0.242711,0.0677 -0.301978,0.1524 z m 0.220134,0.80716 c -0.04233,0 -0.07902,-0.008 -0.107245,-0.031 -0.08749,-0.0621 -0.129823,-0.18909 -0.129823,-0.34149 v -0.0621 c 0,-0.0226 0,-0.0423 0.0028,-0.0649 0.03104,-0.0818 0.112889,-0.16087 0.2286,-0.16087 0.180623,0 0.234245,0.12983 0.234245,0.32738 0,0.18063 -0.07056,0.33303 -0.2286,0.33303 z"
         id="path58629"
         style="fill:#fffff0;fill-opacity:1" />
    </g>
    <g
       aria-label="7"
       id="text44504"
       style="font-size:2.82223px;line-height:1.25;font-family:'PTQ Sans Narrow';-inkscape-font-specification:'PTQ Sans Narrow, Normal';font-variant-ligatures:none;fill:#fffff0;fill-opacity:1;stroke-width:0.264583"
       transform="translate(-12.738792,10.88523)">
      <path
         d="m 14.06558,257.85226 h 0.327378 l 0.640647,-1.86831 V 255.8767 H 13.96398 v 0.32174 h 0.59549 l 0.141112,-0.0282 -0.101601,0.13828 z"
         id="path58632"
         style="fill:#fffff0;fill-opacity:1" />
    </g>
    <g
       aria-label="8"
       id="text49432"
       style="font-size:2.82223px;line-height:1.25;font-family:'PTQ Sans Narrow';-inkscape-font-specification:'PTQ Sans Narrow, Normal';font-variant-ligatures:none;fill:#fffff0;fill-opacity:1;stroke-width:0.264583"
       transform="translate(-17.300486,17.163425)">
      <path
         d="m 19.311664,261.78266 c 0.13829,-0.11853 0.23989,-0.25118 0.23989,-0.49671 0,-0.29633 -0.189089,-0.47696 -0.479779,-0.47696 -0.31609,0 -0.502357,0.20885 -0.502357,0.52212 0,0.23989 0.09878,0.37818 0.237067,0.48542 -0.155222,0.11571 -0.279401,0.26811 -0.279401,0.5334 0,0.0819 0.01129,0.15522 0.03669,0.21731 0.07056,0.18063 0.23989,0.29634 0.491069,0.29634 0.0762,0 0.146755,-0.0113 0.214489,-0.0367 0.191912,-0.0706 0.324556,-0.24271 0.324556,-0.508 0,-0.27376 -0.110067,-0.41487 -0.282223,-0.53623 z m -0.251178,0.78176 c -0.149578,0 -0.225778,-0.127 -0.225778,-0.2794 0,-0.15804 0.06773,-0.26247 0.174978,-0.34431 0.115711,0.0903 0.259645,0.17498 0.259645,0.37818 0,0.1524 -0.06773,0.24553 -0.208845,0.24553 z m 0.0085,-1.45627 c 0.115711,0 0.1778,0.11571 0.1778,0.24271 0,0.14958 -0.05644,0.23425 -0.129822,0.32174 -0.11289,-0.0677 -0.225779,-0.1524 -0.225779,-0.33585 0,-0.11853 0.05362,-0.2286 0.177801,-0.2286 z"
         id="path58635"
         style="fill:#fffff0;fill-opacity:1" />
    </g>
    <rect
       style="fill:none;fill-opacity:1;stroke:#555d50;stroke-width:0.264583;stroke-opacity:1"
       id="rect929"
       width="8.7354164"
       height="13.735417"
       x="0.71229148"
       y="179.63231"
       rx="1"
       ry="1" />
    <g
       aria-label="Poly In"
       id="text41104"
       style="font-size:2.82223px;line-height:1.25;font-family:'PTQ Sans Narrow';-inkscape-font-specification:'PTQ Sans Narrow, Normal';font-variant-ligatures:none;stroke-width:0.264583"
       transform="translate(-14.339175,2.01044)">
      <path
         d="m 16.620958,178.98956 c -0.163689,0 -0.335845,0.0198 -0.465668,0.048 v 1.95581 h 0.355601 v -0.68016 c 0.03669,0.0113 0.09878,0.0113 0.146756,0.0113 h 0.03669 c 0.412046,0 0.629357,-0.25965 0.629357,-0.68298 0,-0.46002 -0.251178,-0.65194 -0.702735,-0.65194 z m 0.330201,0.64912 c 0,0.23142 -0.09031,0.36971 -0.313268,0.36971 -0.02258,0 -0.112889,-0.008 -0.127,-0.0141 v -0.67452 c 0.03669,-0.008 0.08467,-0.0141 0.143934,-0.0141 0.200378,0 0.296334,0.127 0.296334,0.33303 z"
         id="path42546" />
      <path
         d="m 18.475159,180.28779 c 0,-0.44027 -0.143933,-0.74225 -0.558801,-0.74225 -0.400757,0 -0.55598,0.30763 -0.55598,0.74225 0,0.49671 0.183445,0.74225 0.55598,0.74225 0.403579,0 0.558801,-0.30198 0.558801,-0.74225 z m -0.767646,0 c 0,-0.16087 0.01693,-0.27376 0.05362,-0.34149 0.03669,-0.0677 0.08749,-0.1016 0.155223,-0.1016 0.0762,0 0.129822,0.0395 0.163689,0.11289 0.03104,0.0762 0.04798,0.18627 0.04798,0.3302 0,0.16369 -0.01976,0.27658 -0.05362,0.34431 -0.03387,0.0677 -0.08749,0.0988 -0.158045,0.0988 -0.183445,0 -0.208845,-0.22578 -0.208845,-0.44309 z"
         id="path42548" />
      <path
         d="m 18.954938,181.02721 c 0.09313,0 0.2286,-0.0254 0.282223,-0.0621 l -0.03104,-0.27093 c -0.03951,0.0169 -0.07056,0.0254 -0.112889,0.0254 -0.07902,0 -0.08467,-0.0847 -0.08467,-0.18344 v -1.51836 h -0.335845 v 1.69898 c 0,0.21449 0.07902,0.31044 0.282223,0.31044 z"
         id="path42550" />
      <path
         d="m 19.804424,180.37528 -0.197557,-0.79305 h -0.403578 l 0.491068,1.41112 c -0.02822,0.14393 -0.08185,0.31326 -0.245534,0.24835 l -0.05645,0.28787 c 0.0508,0.031 0.127,0.0423 0.208845,0.0423 0.132645,0 0.200378,-0.0903 0.254001,-0.19191 0.0762,-0.14958 0.124178,-0.33302 0.180622,-0.52493 l 0.352779,-1.27283 h -0.344312 l -0.163689,0.79023 -0.0254,0.22295 h -0.01411 z"
         id="path42552" />
      <path
         d="m 21.012335,179.01779 v 1.97556 h 0.355601 v -1.97556 z"
         id="path42554" />
      <path
         d="m 22.330313,179.54837 c -0.186267,0 -0.299156,0.0875 -0.36689,0.19755 h -0.0085 l -0.03951,-0.16369 h -0.268111 v 1.41112 h 0.335845 v -0.97932 c 0.0254,-0.079 0.09596,-0.15804 0.2032,-0.15804 0.141112,0 0.160868,0.11289 0.160868,0.2794 v 0.85796 h 0.335845 v -0.93981 c 0,-0.29351 -0.06773,-0.50517 -0.352779,-0.50517 z"
         id="path42556" />
    </g>
    <g
       aria-label="Mono"
       id="text67336"
       style="font-size:2.82223px;line-height:1.25;font-family:'PTQ Sans Narrow';-inkscape-font-specification:'PTQ Sans Narrow, Normal';font-variant-ligatures:none;display:inline;fill:#fffff0;fill-opacity:1;stroke-width:0.264583"
       transform="translate(-15.695184,0.75925)">
      <path
         d="m 19.311859,197.19748 v 1.01883 h 0.355601 v -1.97556 h -0.335845 l -0.386646,0.84949 -0.06491,0.25118 h -0.01129 l -0.06773,-0.24554 -0.412046,-0.85513 H 18.0475 v 1.97556 h 0.335846 v -1.02165 l -0.05362,-0.381 h 0.01693 l 0.104422,0.34149 0.34149,0.69709 h 0.118534 l 0.321734,-0.69427 0.104422,-0.33867 h 0.01411 z"
         id="path68700"
         style="fill:#fffff0;fill-opacity:1" />
      <path
         d="m 20.979796,197.51075 c 0,-0.44027 -0.143934,-0.74225 -0.558802,-0.74225 -0.400756,0 -0.555979,0.30763 -0.555979,0.74225 0,0.49671 0.183445,0.74225 0.555979,0.74225 0.403579,0 0.558802,-0.30198 0.558802,-0.74225 z m -0.767647,0 c 0,-0.16087 0.01693,-0.27376 0.05362,-0.34149 0.03669,-0.0677 0.08749,-0.1016 0.155222,-0.1016 0.0762,0 0.129823,0.0395 0.16369,0.11289 0.03104,0.0762 0.04798,0.18627 0.04798,0.3302 0,0.16369 -0.01976,0.27658 -0.05362,0.34431 -0.03387,0.0677 -0.08749,0.0988 -0.158045,0.0988 -0.183445,0 -0.208845,-0.22578 -0.208845,-0.44309 z"
         id="path68702"
         style="fill:#fffff0;fill-opacity:1" />
      <path
         d="m 21.854686,196.77133 c -0.186267,0 -0.299156,0.0875 -0.366889,0.19755 h -0.0085 l -0.03951,-0.16369 h -0.268112 v 1.41112 h 0.335845 v -0.97932 c 0.0254,-0.079 0.09596,-0.15804 0.203201,-0.15804 0.141111,0 0.160867,0.11289 0.160867,0.2794 v 0.85796 h 0.335845 v -0.9398 c 0,-0.29352 -0.06773,-0.50518 -0.352779,-0.50518 z"
         id="path68704"
         style="fill:#fffff0;fill-opacity:1" />
      <path
         d="m 23.502867,197.51075 c 0,-0.44027 -0.143933,-0.74225 -0.558801,-0.74225 -0.400757,0 -0.55598,0.30763 -0.55598,0.74225 0,0.49671 0.183445,0.74225 0.55598,0.74225 0.403579,0 0.558801,-0.30198 0.558801,-0.74225 z m -0.767646,0 c 0,-0.16087 0.01693,-0.27376 0.05362,-0.34149 0.03669,-0.0677 0.08749,-0.1016 0.155223,-0.1016 0.0762,0 0.129822,0.0395 0.163689,0.11289 0.03104,0.0762 0.04798,0.18627 0.04798,0.3302 0,0.16369 -0.01976,0.27658 -0.05362,0.34431 -0.03387,0.0677 -0.08749,0.0988 -0.158045,0.0988 -0.183445,0 -0.208845,-0.22578 -0.208845,-0.44309 z"
         id="path68706"
         style="fill:#fffff0;fill-opacity:1" />
    </g>
    <g
       aria-label="Splt8"
       id="text1922"
       style="font-size:4.9389px;line-height:1.25;font-family:'PTQ Sans Narrow';-inkscape-font-specification:'PTQ Sans Narrow, Normal';font-variant-ligatures:none;stroke-width:0.264583"
       transform="translate(14.131911,0.24152)">
      <path
         d="m -13.366026,176.60328 -0.202495,0.5581 c 0.197556,0.12347 0.53834,0.19262 0.889002,0.19262 0.67169,0 1.071741,-0.34573 1.071741,-1.0273 0,-0.17286 -0.03457,-0.32102 -0.09384,-0.44944 -0.123472,-0.24694 -0.321028,-0.43462 -0.543279,-0.57785 -0.197556,-0.12347 -0.400051,-0.25188 -0.53834,-0.40993 -0.06421,-0.0691 -0.09384,-0.1531 -0.09384,-0.24694 0,-0.21731 0.162984,-0.31115 0.400051,-0.31115 0.227189,0 0.479073,0.0741 0.607485,0.15804 l 0.192617,-0.54821 c -0.197556,-0.1136 -0.513646,-0.18274 -0.829736,-0.18274 -0.617362,0 -0.992718,0.30621 -0.992718,0.92851 0,0.18274 0.02963,0.33584 0.09384,0.45932 0.118533,0.24694 0.316089,0.42968 0.53834,0.56797 0.197556,0.12841 0.400051,0.25188 0.543279,0.41487 0.05927,0.0741 0.09384,0.16298 0.09384,0.2667 0,0.25682 -0.167923,0.38523 -0.49389,0.38523 -0.242006,0 -0.503768,-0.0889 -0.642057,-0.1778 z"
         id="path4750" />
      <path
         d="m -10.333546,177.354 c 0.6865075,0 0.9235747,-0.61243 0.9235747,-1.36808 0,-0.43956 -0.064206,-0.75565 -0.1926171,-0.94333 -0.1284114,-0.18768 -0.3160896,-0.28646 -0.5630346,-0.28646 -0.31609,0 -0.469196,0.13335 -0.602546,0.34079 h -0.01482 l -0.05927,-0.28152 h -0.439562 v 3.45723 h 0.587729 v -1.0026 c 0.09878,0.0642 0.197556,0.084 0.360539,0.084 z m 0.31609,-1.3829 c 0,0.31609 -0.03457,0.53834 -0.103717,0.66676 -0.06914,0.12841 -0.172861,0.19261 -0.301273,0.19261 -0.13335,0 -0.207434,-0.0296 -0.271639,-0.0988 v -1.16064 c 0.05927,-0.19261 0.167922,-0.29139 0.335845,-0.29139 0.296334,0 0.340784,0.33584 0.340784,0.69144 z"
         id="path4752" />
      <path
         d="m -8.5703652,177.34412 c 0.1629837,0 0.4000509,-0.0445 0.49389,-0.10866 l -0.054328,-0.47413 c -0.069145,0.0296 -0.1234725,0.0445 -0.197556,0.0445 -0.1382892,0 -0.148167,-0.14817 -0.148167,-0.32103 v -2.65713 h -0.5877291 v 2.97322 c 0,0.37536 0.1382892,0.54328 0.49389,0.54328 z"
         id="path4754" />
      <path
         d="m -7.2319327,177.34412 c 0.2074338,0 0.4099287,-0.0543 0.5531568,-0.12841 l -0.074084,-0.4692 c -0.0889,0.0395 -0.1531059,0.0593 -0.2617617,0.0593 -0.1827393,0 -0.1926171,-0.16792 -0.1926171,-0.39018 v -1.07668 h 0.4790733 v -0.52352 h -0.4790733 v -0.64699 l -0.5877291,0.18273 v 0.46426 h -0.2716395 v 0.52352 h 0.2716395 v 1.294 c 0,0.45931 0.1382892,0.7112 0.5630346,0.7112 z"
         id="path4756" />
      <path
         d="m -5.0291907,175.4624 c 0.2420061,-0.20744 0.4198065,-0.43957 0.4198065,-0.86925 0,-0.51858 -0.3309063,-0.83467 -0.839613,-0.83467 -0.5531568,0 -0.8791242,0.36548 -0.8791242,0.91369 0,0.41981 0.1728615,0.66182 0.4148676,0.84949 -0.2716395,0.2025 -0.4889511,0.4692 -0.4889511,0.93346 0,0.14322 0.019756,0.27164 0.064206,0.38029 0.1234725,0.31609 0.4198065,0.51859 0.8593686,0.51859 0.1333503,0 0.2568228,-0.0198 0.3753564,-0.0642 0.3358452,-0.12347 0.5679735,-0.42475 0.5679735,-0.889 0,-0.47908 -0.1926171,-0.72602 -0.49389,-0.93839 z m -0.4395621,1.36807 c -0.2617617,0 -0.395112,-0.22225 -0.395112,-0.48895 0,-0.27658 0.1185336,-0.45932 0.3062118,-0.60254 0.2024949,0.15804 0.4543788,0.30621 0.4543788,0.66181 0,0.2667 -0.1185336,0.42968 -0.3654786,0.42968 z m 0.014817,-2.54847 c 0.2024949,0 0.3111507,0.20249 0.3111507,0.42475 0,0.26176 -0.098778,0.40992 -0.2271894,0.56303 -0.197556,-0.11853 -0.395112,-0.2667 -0.395112,-0.58773 0,-0.20743 0.093839,-0.40005 0.3111507,-0.40005 z"
         id="path4758" />
    </g>
  </g>
  <g
     style="display:none"
     inkscape:label="components"
     id="layer2"
     inkscape:groupmode="layer">
    <circle
       inkscape:label="CV_Out"
       cy="19.500002"
       cx="5.0799999"
       id="circle204"
       style="fill:#00ff00;fill-rule:evenodd;stroke-width:0.264582"
       r="4" />
    <circle
       inkscape:label="CV_Out"
       cy="35.74971"
       cx="5.0799999"
       id="circle206"
       style="fill:#0000ff;fill-rule:evenodd;stroke-width:0.264582"
       r="4" />
    <circle
       inkscape:label="CV_Out"
       cy="46.99971"
       cx="5.0799999"
       id="circle1231"
       style="fill:#0000ff;fill-rule:evenodd;stroke-width:0.264582"
       r="4" />
    <circle
       inkscape:label="CV_Out"
       cy="58.24971"
       cx="5.0799999"
       id="circle1233"
       style="fill:#0000ff;fill-rule:evenodd;stroke-width:0.264582"
       r="4" />
    <circle
       inkscape:label="CV_Out"
       cy="69.49971"
       cx="5.0799999"
       id="circle1235"
       style="fill:#0000ff;fill-rule:evenodd;stroke-width:0.264582"
       r="4" />
    <circle
       inkscape:label="CV_Out"
       cy="80.74971"
       cx="5.0799999"
       id="circle1237"
       style="fill:#0000ff;fill-rule:evenodd;stroke-width:0.264582"
       r="4" />
    <circle
       inkscape:label="CV_Out"
       cy="91.99971"
       cx="5.0799999"
       id="circle1239"
       style="fill:#0000ff;fill-rule:evenodd;stroke-width:0.264582"
       r="4" />
    <circle
       inkscape:label="CV_Out"
       cy="103.24971"
       cx="5.0799999"
       id="circle1241"
       style="fill:#0000ff;fill-rule:evenodd;stroke-width:0.264582"
       r="4" />
    <circle
       inkscape:label="CV_Out"
       cy="114.49971"
       cx="5.0799999"
       id="circle1243"
       style="fill:#0000ff;fill-rule:evenodd;stroke-width:0.264582"
       r="4" />
  </g>
</svg>
