<?xml version="1.0" encoding="UTF-8" standalone="no"?>
<svg
   sodipodi:docname="Tails4-dark.svg"
   inkscape:version="1.3 (0e150ed6c4, 2023-07-21)"
   id="svg8"
   version="1.1"
   viewBox="0 0 20.32 128.5"
   height="128.5mm"
   width="20.32mm"
   xmlns:inkscape="http://www.inkscape.org/namespaces/inkscape"
   xmlns:sodipodi="http://sodipodi.sourceforge.net/DTD/sodipodi-0.dtd"
   xmlns="http://www.w3.org/2000/svg"
   xmlns:svg="http://www.w3.org/2000/svg"
   xmlns:rdf="http://www.w3.org/1999/02/22-rdf-syntax-ns#"
   xmlns:cc="http://creativecommons.org/ns#"
   xmlns:dc="http://purl.org/dc/elements/1.1/">
  <defs
     id="defs2">
    <rect
       x="108.97316"
       y="162.64837"
       width="25.342596"
       height="24.337178"
       id="rect462" />
  </defs>
  <sodipodi:namedview
     inkscape:snap-global="true"
     inkscape:snap-bbox-midpoints="true"
     inkscape:snap-bbox="true"
     inkscape:document-rotation="0"
     inkscape:window-maximized="0"
     inkscape:window-y="23"
     inkscape:window-x="26"
     inkscape:window-height="1216"
     inkscape:window-width="1499"
     inkscape:lockguides="false"
     inkscape:guide-bbox="true"
     showguides="true"
     units="mm"
     showgrid="false"
     inkscape:current-layer="layer1"
     inkscape:document-units="mm"
     inkscape:cy="233.52202"
     inkscape:cx="27.930718"
     inkscape:zoom="5.6568542"
     inkscape:pageshadow="2"
     inkscape:pageopacity="0.0"
     borderopacity="1.0"
     bordercolor="#666666"
     pagecolor="#ffffff"
     id="base"
     inkscape:bbox-nodes="false"
     inkscape:bbox-paths="false"
     inkscape:snap-grids="false"
     inkscape:snap-others="false"
     inkscape:object-nodes="false"
     inkscape:snap-nodes="false"
     inkscape:snap-bbox-edge-midpoints="false"
     inkscape:pagecheckerboard="0"
     inkscape:showpageshadow="2"
     inkscape:deskcolor="#d1d1d1">
    <sodipodi:guide
       position="15.24,109.75"
       orientation="0,1"
       id="guide837"
       inkscape:label=""
       inkscape:locked="false"
       inkscape:color="rgb(0,0,255)" />
    <sodipodi:guide
       inkscape:color="rgb(0,0,255)"
       inkscape:locked="false"
       inkscape:label=""
       id="guide875"
       orientation="0,1"
       position="15.24,33.500093" />
    <sodipodi:guide
       position="5.0800001,82.000003"
       orientation="0,1"
       id="guide891"
       inkscape:label=""
       inkscape:locked="false"
       inkscape:color="rgb(0,0,255)" />
    <sodipodi:guide
       position="15.240001,43.500291"
       orientation="0,1"
       id="guide893"
       inkscape:label=""
       inkscape:locked="false"
       inkscape:color="rgb(0,0,255)" />
    <sodipodi:guide
       inkscape:color="rgb(0,0,255)"
       inkscape:locked="false"
       inkscape:label=""
       id="guide907"
       orientation="0,1"
       position="15.24,13.49997" />
    <sodipodi:guide
       position="14.840001,68.750003"
       orientation="0,1"
       id="guide908"
       inkscape:label=""
       inkscape:locked="false"
       inkscape:color="rgb(0,0,255)" />
    <sodipodi:guide
       position="15.24,100.5"
       orientation="0,1"
       id="guide18956"
       inkscape:label=""
       inkscape:locked="false"
       inkscape:color="rgb(0,0,255)" />
    <sodipodi:guide
       position="5.0800001,57.000002"
       orientation="0,1"
       id="guide1014"
       inkscape:locked="false"
       inkscape:label=""
       inkscape:color="rgb(0,134,229)" />
    <sodipodi:guide
       position="15.24,23.49997"
       orientation="0,-1"
       id="guide1016"
       inkscape:locked="false" />
    <sodipodi:guide
       position="10.16,126.06749"
       orientation="-1,0"
       id="guide1286"
       inkscape:label=""
       inkscape:locked="false"
       inkscape:color="rgb(0,0,255)" />
    <sodipodi:guide
       position="5.0800001,91.250004"
       orientation="0,1"
       id="guide1587"
       inkscape:label=""
       inkscape:locked="false"
       inkscape:color="rgb(0,0,255)" />
    <sodipodi:guide
       position="10.897527,46.500002"
       orientation="0,1"
       id="guide1850"
       inkscape:label=""
       inkscape:locked="false"
       inkscape:color="rgb(0,0,255)" />
    <sodipodi:guide
       position="5.2305762,24.900001"
       orientation="0,1"
       id="guide1854"
       inkscape:label=""
       inkscape:locked="false"
       inkscape:color="rgb(0,0,255)" />
    <sodipodi:guide
       position="14.919677,114.25"
       orientation="0,1"
       id="guide1156"
       inkscape:locked="false"
       inkscape:label=""
       inkscape:color="rgb(0,134,229)" />
    <sodipodi:guide
       position="15.240001,54.250001"
       orientation="0,-1"
       id="guide1112"
       inkscape:locked="false" />
    <sodipodi:guide
       position="14.739063,59.701635"
       orientation="0,-1"
       id="guide1114"
       inkscape:locked="false" />
    <sodipodi:guide
       position="-0.68669214,60.500002"
       orientation="-0.0021367538,0.99999772"
       id="guide1116"
       inkscape:locked="false"
       inkscape:label=""
       inkscape:color="rgb(0,134,229)" />
    <sodipodi:guide
       position="5.0800002,42.500001"
       orientation="0,1"
       id="guide1264"
       inkscape:locked="false"
       inkscape:label=""
       inkscape:color="rgb(0,134,229)" />
    <sodipodi:guide
       position="5.0800002,31.500001"
       orientation="0,-1"
       id="guide1266"
       inkscape:locked="false" />
    <sodipodi:guide
       position="5.0800002,19.899506"
       orientation="0,-1"
       id="guide1268"
       inkscape:locked="false" />
    <sodipodi:guide
       position="5.0800002,12.25"
       orientation="0,1"
       id="guide1270"
       inkscape:locked="false"
       inkscape:label=""
       inkscape:color="rgb(0,134,229)" />
    <sodipodi:guide
       position="9.6030006,111"
       orientation="1,0"
       id="guide3116"
       inkscape:locked="false" />
    <sodipodi:guide
       position="5.0800002,42.500001"
       orientation="1,0"
       id="guide492"
       inkscape:locked="false" />
    <sodipodi:guide
       position="15.240001,43.500291"
       orientation="1,0"
       id="guide494"
       inkscape:locked="false" />
    <sodipodi:guide
       position="2.0000001,114.25"
       orientation="-1,0"
       id="guide498"
       inkscape:locked="false"
       inkscape:label=""
       inkscape:color="rgb(0,134,229)" />
    <sodipodi:guide
       position="18.560001,47.500291"
       orientation="1,0"
       id="guide501"
       inkscape:locked="false" />
    <sodipodi:guide
       position="8.4000003,55.006772"
       orientation="-1,0"
       id="guide714"
       inkscape:locked="false"
       inkscape:label=""
       inkscape:color="rgb(0,134,229)" />
    <sodipodi:guide
       position="9.6030006,113.75"
       orientation="0,1"
       id="guide1406"
       inkscape:locked="false"
       inkscape:label=""
       inkscape:color="rgb(0,134,229)" />
    <sodipodi:guide
       position="9.6030006,104.5"
       orientation="0,1"
       id="guide1408"
       inkscape:locked="false"
       inkscape:label=""
       inkscape:color="rgb(0,134,229)" />
    <sodipodi:guide
       position="9.6030008,95.250004"
       orientation="0,1"
       id="guide1410"
       inkscape:locked="false"
       inkscape:label=""
       inkscape:color="rgb(0,134,229)" />
    <sodipodi:guide
       position="9.6030008,86.000003"
       orientation="0,1"
       id="guide1412"
       inkscape:locked="false"
       inkscape:label=""
       inkscape:color="rgb(0,134,229)" />
    <sodipodi:guide
       position="18.560001,47.50029"
       orientation="0,-1"
       id="guide1475"
       inkscape:locked="false" />
    <sodipodi:guide
       position="18.560001,37.500214"
       orientation="0,-1"
       id="guide1477"
       inkscape:locked="false" />
    <sodipodi:guide
       position="18.560001,27.49997"
       orientation="0,-1"
       id="guide1479"
       inkscape:locked="false" />
    <sodipodi:guide
       position="18.560001,17.49997"
       orientation="0,-1"
       id="guide1481"
       inkscape:locked="false" />
    <sodipodi:guide
       position="18.160001,72.750003"
       orientation="0,1"
       id="guide1483"
       inkscape:locked="false"
       inkscape:label=""
       inkscape:color="rgb(0,134,229)" />
    <sodipodi:guide
       position="10.16,77.200003"
       orientation="0,1"
       id="guide1485"
       inkscape:locked="false"
       inkscape:label=""
       inkscape:color="rgb(0,134,229)" />
    <sodipodi:guide
       position="5.4440002,106.51708"
       orientation="-1,0"
       id="guide633"
       inkscape:locked="false"
       inkscape:label=""
       inkscape:color="rgb(0,134,229)" />
    <sodipodi:guide
       position="14.877001,85.250001"
       orientation="-1,0"
       id="guide635"
       inkscape:locked="false"
       inkscape:label=""
       inkscape:color="rgb(0,134,229)" />
    <sodipodi:guide
       position="8.7260004,97.022335"
       orientation="-1,0"
       id="guide637"
       inkscape:locked="false"
       inkscape:label=""
       inkscape:color="rgb(0,134,229)" />
    <sodipodi:guide
       position="18.160001,94.335681"
       orientation="-1,0"
       id="guide639"
       inkscape:locked="false"
       inkscape:label=""
       inkscape:color="rgb(0,134,229)" />
    <sodipodi:guide
       position="2.5724692,73.250003"
       orientation="0,1"
       id="guide1597"
       inkscape:locked="false"
       inkscape:label=""
       inkscape:color="rgb(0,134,229)" />
    <sodipodi:guide
       position="23.94735,58.750002"
       orientation="0,1"
       id="guide1599"
       inkscape:locked="false"
       inkscape:label=""
       inkscape:color="rgb(0,134,229)" />
    <sodipodi:guide
       position="11.433,79.272298"
       orientation="-1,0"
       id="guide479"
       inkscape:locked="false"
       inkscape:label=""
       inkscape:color="rgb(0,134,229)" />
    <sodipodi:guide
       position="0.72700003,86.59662"
       orientation="-1,0"
       id="guide473"
       inkscape:locked="false"
       inkscape:label=""
       inkscape:color="rgb(0,134,229)" />
    <sodipodi:guide
       position="19.594001,85.489436"
       orientation="-1,0"
       id="guide536"
       inkscape:locked="false"
       inkscape:label=""
       inkscape:color="rgb(0,134,229)" />
  </sodipodi:namedview>
  <metadata
     id="metadata5">
    <rdf:RDF>
      <cc:Work
         rdf:about="">
        <dc:format>image/svg+xml</dc:format>
        <dc:type
           rdf:resource="http://purl.org/dc/dcmitype/StillImage" />
      </cc:Work>
    </rdf:RDF>
  </metadata>
  <g
     transform="translate(0,-168.5)"
     id="layer1"
     inkscape:groupmode="layer"
     inkscape:label="Layer 1"
     style="display:inline">
    <rect
       style="display:inline;opacity:1;fill:#242422;fill-opacity:1;stroke:none;stroke-width:1.59948;stroke-miterlimit:4;stroke-dasharray:none"
       id="rect838"
       width="20.32"
       height="128.5"
       x="-5.5511151e-17"
       y="168.5" />
    <text
       xml:space="preserve"
       style="font-weight:bold;font-stretch:condensed;font-size:2.82223px;line-height:1.25;font-family:'PT Sans Narrow';-inkscape-font-specification:'PT Sans Narrow, Bold Condensed';opacity:1;stroke-width:0.264583"
       x="2.0529213"
       y="233.73691"
       id="text64"><tspan
         sodipodi:role="line"
         id="tspan62"
         x="2.0529213"
         y="233.73691"
         style="stroke-width:0.264583" /></text>
    <text
       xml:space="preserve"
       style="font-weight:bold;font-stretch:condensed;font-size:2.82223px;line-height:1.25;font-family:'PT Sans Narrow';-inkscape-font-specification:'PT Sans Narrow, Bold Condensed';text-align:center;text-anchor:middle;opacity:1;stroke-width:0.264583"
       x="7.705914"
       y="247.28606"
       id="text925"><tspan
         sodipodi:role="line"
         id="tspan923"
         x="7.705914"
         y="247.28606"
         style="stroke-width:0.264583" /></text>
    <rect
       style="display:inline;fill:#555d50;fill-opacity:1;stroke-width:0.264583"
       id="rect913"
       width="9"
       height="41.000004"
       x="10.74"
       y="247.50002"
       rx="0.99999994"
       ry="1.0000001" />
    <g
       aria-label="Resplit"
       id="text915"
       style="font-size:2.82223px;line-height:1.25;font-family:'PTQ Sans Narrow';-inkscape-font-specification:'PTQ Sans Narrow, Normal';word-spacing:0px;display:inline;stroke-width:0.264583;fill:#fffff0;fill-opacity:1"
       transform="translate(-2.353063,-0.28416)">
      <path
         d="m 15.329666,237.08296 c 0,-0.39512 -0.251178,-0.5588 -0.640646,-0.5588 -0.149578,0 -0.349956,0.0198 -0.476957,0.048 v 1.95581 h 0.355601 v -0.81563 l 0.152401,0.0367 0.344312,0.77894 H 15.4736 l -0.364067,-0.75636 -0.11289,-0.0903 c 0.21449,-0.0762 0.333023,-0.29351 0.333023,-0.59831 z m -0.606779,-0.23143 c 0.163689,0 0.234245,0.12418 0.234245,0.28787 0,0.20602 -0.0762,0.3302 -0.268112,0.3302 h -0.121356 v -0.60395 c 0.03669,-0.0113 0.101601,-0.0141 0.155223,-0.0141 z"
         style="stroke-width:0.264583;fill:#fffff0;fill-opacity:1"
         id="path917" />
      <path
         d="m 16.083195,238.27676 c -0.21449,0 -0.285046,-0.14393 -0.29069,-0.36125 h 0.685802 c 0.01411,-0.0931 0.02822,-0.18344 0.02822,-0.28504 0,-0.33585 -0.149578,-0.55316 -0.474134,-0.55316 -0.180623,0 -0.318912,0.0621 -0.420513,0.18345 -0.1016,0.12135 -0.149578,0.30762 -0.149578,0.56162 0,0.42616 0.135467,0.74225 0.558802,0.74225 0.172156,0 0.352778,-0.0593 0.445912,-0.14111 l -0.104423,-0.23425 c -0.05927,0.048 -0.172156,0.0875 -0.2794,0.0875 z m 0.110067,-0.5842 h -0.389468 c 0.0085,-0.17216 0.05645,-0.32738 0.222956,-0.32738 0.143934,0 0.174978,0.15804 0.166512,0.32738 z"
         style="stroke-width:0.264583;fill:#fffff0;fill-opacity:1"
         id="path926" />
      <path
         d="m 17.045574,238.27676 c -0.118534,0 -0.225779,-0.0395 -0.299157,-0.0847 l -0.09313,0.27094 c 0.08749,0.0621 0.254,0.1016 0.406401,0.1016 0.29069,0 0.471312,-0.1524 0.471312,-0.4318 0,-0.29352 -0.2032,-0.38383 -0.386645,-0.49107 -0.06209,-0.0339 -0.135467,-0.0734 -0.135467,-0.15805 0,-0.0762 0.04516,-0.11571 0.138289,-0.11571 0.09596,0 0.208845,0.0367 0.279401,0.0649 l 0.07902,-0.25964 c -0.09313,-0.0536 -0.256823,-0.0931 -0.409223,-0.0931 -0.273756,0 -0.423335,0.14394 -0.423335,0.41205 0,0.29351 0.206023,0.37818 0.386646,0.48542 0.06209,0.0367 0.135467,0.0847 0.135467,0.17498 0,0.0875 -0.06491,0.12418 -0.149579,0.12418 z"
         style="stroke-width:0.264583;fill:#fffff0;fill-opacity:1"
         id="path928" />
      <path
         d="m 18.250662,238.56745 c 0.39229,0 0.527757,-0.34996 0.527757,-0.78176 0,-0.25118 -0.03669,-0.4318 -0.110067,-0.53904 -0.07338,-0.10725 -0.180623,-0.16369 -0.321734,-0.16369 -0.180623,0 -0.268112,0.0762 -0.344313,0.19473 h -0.0085 l -0.03387,-0.16087 h -0.251178 v 1.97556 h 0.335845 v -0.57291 c 0.05645,0.0367 0.112889,0.048 0.206023,0.048 z m 0.180622,-0.79022 c 0,0.18062 -0.01975,0.30762 -0.05927,0.381 -0.03951,0.0734 -0.09878,0.11006 -0.172156,0.11006 -0.0762,0 -0.118534,-0.0169 -0.155223,-0.0564 v -0.66323 c 0.03387,-0.11006 0.09596,-0.16651 0.191912,-0.16651 0.169333,0 0.194733,0.19192 0.194733,0.39512 z"
         style="stroke-width:0.264583;fill:#fffff0;fill-opacity:1"
         id="path930" />
      <path
         d="m 19.258194,238.56181 c 0.09313,0 0.2286,-0.0254 0.282223,-0.0621 l -0.03105,-0.27094 c -0.03951,0.0169 -0.07055,0.0254 -0.112889,0.0254 -0.07902,0 -0.08467,-0.0847 -0.08467,-0.18344 v -1.51836 h -0.335845 v 1.69898 c 0,0.21449 0.07902,0.31045 0.282223,0.31045 z"
         style="stroke-width:0.264583;fill:#fffff0;fill-opacity:1"
         id="path932" />
      <path
         d="m 19.684345,237.11682 v 1.41112 h 0.335846 v -1.41112 z m 0.166512,-0.20884 c 0.124178,0 0.217312,-0.0649 0.217312,-0.18909 0,-0.12136 -0.09313,-0.19473 -0.217312,-0.19473 -0.124178,0 -0.206023,0.0762 -0.206023,0.19473 0,0.12136 0.08185,0.18909 0.206023,0.18909 z"
         style="stroke-width:0.264583;fill:#fffff0;fill-opacity:1"
         id="path935" />
      <path
         d="m 20.65801,238.56181 c 0.118534,0 0.234245,-0.0311 0.31609,-0.0734 l -0.04233,-0.26811 c -0.0508,0.0226 -0.08749,0.0339 -0.149579,0.0339 -0.104422,0 -0.110067,-0.0959 -0.110067,-0.22295 V 237.416 h 0.273757 v -0.29916 h -0.273757 v -0.36971 l -0.335845,0.10442 v 0.26529 h -0.155223 v 0.29916 h 0.155223 v 0.73942 c 0,0.26247 0.07902,0.40641 0.321734,0.40641 z"
         style="stroke-width:0.264583;fill:#fffff0;fill-opacity:1"
         id="path937" />
    </g>
    <g
       aria-label="1"
       id="text977"
       style="font-size:2.82223px;line-height:1.25;font-family:'PTQ Sans Narrow';-inkscape-font-specification:'PTQ Sans Narrow, Normal';display:inline;fill:#fffff0;fill-opacity:1;stroke-width:0.264583"
       transform="translate(3.4582652,0.30886115)">
      <path
         d="m 7.9035245,249.89657 v 0.29915 h 0.9595582 v -0.29915 H 8.5469929 V 248.1863 H 8.3494368 l -0.5446904,0.53058 0.1552227,0.18909 0.1862672,-0.14394 0.1157114,-0.16651 -0.036689,0.19191 v 1.10914 z"
         style="fill:#fffff0;fill-opacity:1;stroke-width:0.264583"
         id="path991" />
    </g>
    <g
       aria-label="2"
       id="text981"
       style="font-size:2.82223px;line-height:1.25;font-family:'PTQ Sans Narrow';-inkscape-font-specification:'PTQ Sans Narrow, Normal';display:inline;fill:#fffff0;fill-opacity:1;stroke-width:0.264583"
       transform="translate(3.211813,0.33146115)">
      <path
         d="m 8.080832,258.33305 0.1298226,0.24553 c 0.056445,-0.0508 0.1636894,-0.11006 0.2681119,-0.11006 0.1580449,0 0.2342451,0.10724 0.2286006,0.26528 0.00282,0.0649 -0.00564,0.13265 -0.0254,0.20603 -0.045156,0.16369 -0.1157115,0.31609 -0.1919117,0.45438 -0.1185337,0.20602 -0.2596452,0.41204 -0.4007567,0.58702 v 0.19473 h 0.9906028 v -0.29915 H 8.6424558 l -0.1693338,0.0423 v -0.0141 l 0.1241782,-0.11571 c 0.1072447,-0.14393 0.2173117,-0.3302 0.2991563,-0.51365 0.0762,-0.16651 0.1524005,-0.37535 0.1524005,-0.60113 0,-0.0847 -0.014111,-0.15805 -0.036689,-0.22296 -0.067734,-0.17215 -0.208845,-0.29069 -0.4402679,-0.29069 -0.2229562,0 -0.3725344,0.0706 -0.4910681,0.17216 z"
         style="fill:#fffff0;fill-opacity:1;stroke-width:0.264583"
         id="path994" />
    </g>
    <g
       aria-label="3"
       id="text985"
       style="font-size:2.82223px;line-height:1.25;font-family:'PTQ Sans Narrow';-inkscape-font-specification:'PTQ Sans Narrow, Normal';display:inline;fill:#fffff0;fill-opacity:1;stroke-width:0.264583"
       transform="translate(2.8792211,0.37749115)">
      <path
         d="m 8.5037349,269.76019 -0.090311,0.28223 c 0.084667,0.0536 0.2624674,0.0875 0.4035789,0.0875 0.081845,0 0.1580449,-0.0113 0.2314229,-0.0395 0.2286006,-0.0818 0.3640677,-0.29633 0.3640677,-0.61242 0,-0.0903 -0.011289,-0.17216 -0.033867,-0.23989 -0.053622,-0.16651 -0.1693338,-0.29916 -0.3668899,-0.31609 l -0.1044225,0.0169 v -0.0141 l 0.1044225,-0.0762 0.3273787,-0.5334 v -0.20038 H 8.4360014 v 0.29916 h 0.3866455 l 0.1862672,-0.0254 -0.1354671,0.127 -0.2794008,0.47413 v 0.19191 h 0.1665116 c 0.208845,0 0.3160898,0.10725 0.3160898,0.31892 0,0.18909 -0.095956,0.3302 -0.282223,0.3302 -0.1213559,0 -0.2116673,-0.0282 -0.2906897,-0.0706 z"
         style="fill:#fffff0;fill-opacity:1;stroke-width:0.264583"
         id="path997" />
    </g>
    <g
       aria-label="4"
       id="text989"
       style="font-size:2.82223px;line-height:1.25;font-family:'PTQ Sans Narrow';-inkscape-font-specification:'PTQ Sans Narrow, Normal';display:inline;fill:#fffff0;fill-opacity:1;stroke-width:0.264583"
       transform="translate(3.1601676,0.48823082)">
      <path
         d="m 9.2641917,279.45613 v -0.28786 H 9.0158355 v -1.15147 h -0.293512 l -0.7224909,1.23049 v 0.20884 h 0.6970909 v 0.55034 h 0.318912 v -0.55034 z m -0.5672682,-0.72531 v 0.43745 h -0.256823 l -0.1439337,0.0226 0.1128892,-0.10725 0.2229562,-0.37818 0.084667,-0.2286 h 0.011289 z"
         style="fill:#fffff0;fill-opacity:1;stroke-width:0.264583"
         id="path1000" />
    </g>
    <g
       transform="matrix(1.5,0,0,1.5,-3.9749815,-146.22397)"
       style="font-size:1.76389px;line-height:1.25;font-family:'Source Sans Pro';-inkscape-font-specification:'Source Sans Pro, Normal';text-align:center;letter-spacing:0.370417px;text-anchor:middle;display:inline;stroke-width:0.176389;fill:#fffff0;fill-opacity:1"
       id="text2550"
       aria-label="GRANDE">
      <path
         id="path2552"
         style="stroke-width:0.176389;fill:#fffff0;fill-opacity:1"
         d="m 6.0075528,292.14876 c 0.1552223,0 0.2822224,-0.0564 0.3580697,-0.13405 v -0.48684 H 5.9846223 v 0.12171 H 6.229803 v 0.30162 c -0.045861,0.0423 -0.1252362,0.067 -0.2081391,0.067 -0.2469446,0 -0.3827641,-0.18168 -0.3827641,-0.47272 0,-0.28751 0.1481668,-0.46567 0.3810003,-0.46567 0.1164167,0 0.1905001,0.0441 0.2487084,0.10407 l 0.081139,-0.0917 c -0.067028,-0.0723 -0.1728612,-0.14287 -0.3333752,-0.14287 -0.3069169,0 -0.5309309,0.22754 -0.5309309,0.59972 0,0.37747 0.2169584,0.59972 0.5221114,0.59972 z" />
      <path
         id="path2554"
         style="stroke-width:0.176389;fill:#fffff0;fill-opacity:1"
         d="M 7.0112036,292.12759 H 7.1593704 V 291.639 h 0.208139 l 0.2786946,0.48859 h 0.1675696 l -0.2945697,-0.50447 c 0.1569862,-0.0406 0.2592919,-0.1464 0.2592919,-0.32632 0,-0.24165 -0.1693335,-0.32632 -0.4056948,-0.32632 H 7.0112036 Z m 0.1481668,-0.60854 v -0.42862 h 0.192264 c 0.1799167,0 0.2786946,0.0547 0.2786946,0.20637 0,0.14817 -0.098778,0.22225 -0.2786946,0.22225 z" />
      <path
         id="path2556"
         style="stroke-width:0.176389;fill:#fffff0;fill-opacity:1"
         d="m 8.5810621,291.48201 c 0.040569,-0.12876 0.077611,-0.25576 0.1128889,-0.38982 h 0.00706 c 0.037042,0.13406 0.074083,0.26106 0.1164167,0.38982 l 0.054681,0.17463 H 8.5263815 Z m -0.3545419,0.64558 h 0.1499306 l 0.1111251,-0.35101 h 0.4215697 l 0.1093612,0.35101 H 9.175493 L 8.7856733,290.97048 H 8.6163399 Z" />
      <path
         id="path2558"
         style="stroke-width:0.176389;fill:#fffff0;fill-opacity:1"
         d="m 9.7099494,292.12759 h 0.1393473 v -0.60854 c 0,-0.11994 -0.010583,-0.24518 -0.019403,-0.3616 h 0.00706 c 0.038806,0.0847 0.081139,0.1711 0.1252362,0.24871 l 0.4127501,0.72143 h 0.15875 v -1.15711 h -0.139347 v 0.60325 c 0,0.11995 0.01058,0.24695 0.0194,0.36689 h -0.0071 c -0.04057,-0.0847 -0.08114,-0.1711 -0.125236,-0.24871 L 9.8686995,290.97048 H 9.7099494 Z" />
      <path
         id="path2560"
         style="stroke-width:0.176389;fill:#fffff0;fill-opacity:1"
         d="m 11.219839,292.12759 h 0.296333 c 0.34925,0 0.53975,-0.21519 0.53975,-0.58384 0,-0.36689 -0.1905,-0.57327 -0.546805,-0.57327 h -0.289278 z m 0.148166,-0.1217 v -0.9137 h 0.130528 c 0.269875,0 0.403931,0.16051 0.403931,0.45156 0,0.2928 -0.134056,0.46214 -0.403931,0.46214 z" />
      <path
         id="path2562"
         style="stroke-width:0.176389;fill:#fffff0;fill-opacity:1"
         d="m 12.67681,292.12759 h 0.68439 v -0.12523 h -0.536223 v -0.41981 h 0.437445 v -0.12523 h -0.437445 v -0.3616 h 0.518584 v -0.12524 H 12.67681 Z" />
    </g>
    <g
       aria-label="Chans"
       id="g995"
       style="font-size:2.82223px;line-height:1.25;font-family:'PTQ Sans Narrow';-inkscape-font-specification:'PTQ Sans Narrow, Normal';display:inline;stroke-width:0.264583;fill:#fffff0;fill-opacity:1"
       transform="translate(-14.011467,12.59745)">
      <path
         d="m 16.970568,223.60975 c -0.0762,0 -0.141111,-0.0169 -0.194734,-0.0508 -0.174978,-0.11007 -0.231422,-0.35843 -0.231422,-0.64912 0,-0.23989 0.03387,-0.41769 0.104422,-0.53058 0.06773,-0.11289 0.169334,-0.16933 0.299157,-0.16933 0.121355,0 0.217311,0.0198 0.296334,0.0593 l 0.07055,-0.31327 c -0.104422,-0.0452 -0.248356,-0.0734 -0.409223,-0.0734 -0.222956,0 -0.389468,0.0819 -0.505179,0.21449 -0.158045,0.1778 -0.228601,0.45156 -0.228601,0.80998 0,0.19191 0.01693,0.3556 0.05645,0.48542 0.09031,0.31892 0.279401,0.54469 0.668868,0.54469 0.166512,0 0.347135,-0.0395 0.440268,-0.11853 l -0.07056,-0.29916 c -0.07902,0.0508 -0.166512,0.0903 -0.296335,0.0903 z"
         style="stroke-width:0.264583;fill:#fffff0;fill-opacity:1"
         id="path985" />
      <path
         d="m 18.184124,222.44981 c -0.166512,0 -0.268112,0.0706 -0.338668,0.16369 h -0.0085 v -0.69145 H 17.50111 v 1.97556 h 0.335846 v -0.97084 c 0.02258,-0.0847 0.09878,-0.16934 0.200378,-0.16934 0.143934,0 0.163689,0.12136 0.163689,0.28787 v 0.85231 h 0.335846 v -0.92569 c 0,-0.30198 -0.05927,-0.52211 -0.352779,-0.52211 z"
         style="stroke-width:0.264583;fill:#fffff0;fill-opacity:1"
         id="path987" />
      <path
         d="m 19.191658,222.74614 c 0.172156,0 0.186267,0.12136 0.172156,0.31045 -0.381001,-0.0198 -0.668868,0.0931 -0.668868,0.45156 0,0.23706 0.127,0.40922 0.358423,0.40922 0.166512,0 0.270934,-0.079 0.333023,-0.18909 h 0.01129 l 0.05362,0.17216 h 0.273757 c -0.08467,-0.27094 -0.0254,-0.64065 -0.0254,-0.96521 0,-0.31044 -0.115712,-0.47695 -0.428979,-0.47695 -0.203201,0 -0.381001,0.0423 -0.499535,0.11289 l 0.08467,0.25117 c 0.08184,-0.0423 0.211667,-0.0762 0.335845,-0.0762 z m -0.149578,0.70556 c 0,-0.16087 0.160867,-0.19755 0.327379,-0.1778 v 0.23425 c -0.03387,0.0649 -0.09878,0.12135 -0.194734,0.12135 -0.09596,0 -0.132645,-0.0734 -0.132645,-0.1778 z"
         style="stroke-width:0.264583;fill:#fffff0;fill-opacity:1"
         id="path989" />
      <path
         d="m 20.616879,222.45263 c -0.186267,0 -0.299156,0.0875 -0.366889,0.19756 h -0.0085 L 20.20198,222.4865 H 19.9339 v 1.41111 h 0.335845 v -0.97931 c 0.0254,-0.079 0.09596,-0.15805 0.203201,-0.15805 0.141111,0 0.160867,0.11289 0.160867,0.27941 v 0.85795 h 0.335845 v -0.9398 c 0,-0.29351 -0.06773,-0.50518 -0.352779,-0.50518 z"
         style="stroke-width:0.264583;fill:#fffff0;fill-opacity:1"
         id="path991-5" />
      <path
         d="m 21.525636,223.64644 c -0.118534,0 -0.225779,-0.0395 -0.299157,-0.0847 l -0.09313,0.27093 c 0.08749,0.0621 0.254,0.1016 0.406401,0.1016 0.29069,0 0.471312,-0.1524 0.471312,-0.4318 0,-0.29351 -0.2032,-0.38382 -0.386645,-0.49107 -0.06209,-0.0339 -0.135467,-0.0734 -0.135467,-0.15804 0,-0.0762 0.04516,-0.11571 0.138289,-0.11571 0.09596,0 0.208845,0.0367 0.279401,0.0649 l 0.07902,-0.25965 c -0.09313,-0.0536 -0.256823,-0.0931 -0.409223,-0.0931 -0.273756,0 -0.423335,0.14393 -0.423335,0.41205 0,0.29351 0.206023,0.37817 0.386646,0.48542 0.06209,0.0367 0.135467,0.0847 0.135467,0.17498 0,0.0875 -0.06491,0.12418 -0.149578,0.12418 z"
         style="stroke-width:0.264583;fill:#fffff0;fill-opacity:1"
         id="path993" />
    </g>
    <rect
       style="display:inline;fill:#555d50;fill-opacity:1;stroke:none;stroke-width:0.829454;stroke-opacity:0.25"
       id="rect45"
       width="9"
       height="11"
       x="0.57999998"
       y="259.02066"
       rx="0.99999994"
       ry="1" />
    <g
       aria-label="CV"
       id="text914"
       style="font-size:2.82223px;line-height:1.25;font-family:'PTQ Sans Narrow';-inkscape-font-specification:'PTQ Sans Narrow, Normal';display:inline;stroke-width:0.264583;fill:#fffff0;fill-opacity:1"
       transform="translate(-11.238557,230.70079)">
      <path
         d="m 15.874056,41.899411 c -0.0762,0 -0.141112,-0.01693 -0.194734,-0.0508 -0.174979,-0.110067 -0.231423,-0.358423 -0.231423,-0.649113 0,-0.239889 0.03387,-0.41769 0.104422,-0.530579 0.06773,-0.112889 0.169334,-0.169334 0.299157,-0.169334 0.121356,0 0.217311,0.01976 0.296334,0.05927 l 0.07056,-0.313268 c -0.104423,-0.04516 -0.248357,-0.07338 -0.409224,-0.07338 -0.222956,0 -0.389467,0.08184 -0.505179,0.21449 -0.158045,0.1778 -0.228601,0.451557 -0.228601,0.80998 0,0.191912 0.01693,0.355601 0.05645,0.485424 0.09031,0.318912 0.279401,0.54469 0.668869,0.54469 0.166511,0 0.347134,-0.03951 0.440267,-0.118534 L 16.17039,41.8091 c -0.07902,0.0508 -0.166512,0.09031 -0.296334,0.09031 z"
         style="stroke-width:0.264583;fill:#fffff0;fill-opacity:1"
         id="path922" />
      <path
         d="m 16.802566,41.371654 -0.293512,-1.159936 h -0.420512 l 0.603957,1.989672 h 0.270934 l 0.598313,-1.989672 h -0.375357 l -0.287867,1.157114 -0.04516,0.34149 h -0.01129 z"
         style="stroke-width:0.264583;fill:#fffff0;fill-opacity:1"
         id="path924" />
    </g>
    <g
       aria-label="Out"
       id="text943"
       style="font-size:2.82223px;line-height:1.25;font-family:'PTQ Sans Narrow';-inkscape-font-specification:'PTQ Sans Narrow, Normal';display:inline;fill:#fffff0;fill-opacity:1;stroke-width:0.265;stroke-miterlimit:4;stroke-dasharray:none"
       transform="translate(-14.472935,70.74604)">
      <path
         d="m 19.17899,189.49525 c 0,-0.55033 -0.155222,-1.02729 -0.699913,-1.02729 -0.533401,0 -0.69709,0.44873 -0.69709,1.02729 0,0.55598 0.146756,1.02729 0.69709,1.02729 0.527757,0 0.699913,-0.44873 0.699913,-1.02729 z m -1.024469,0 c 0,-0.46567 0.107245,-0.69991 0.324556,-0.69991 0.06209,0 0.11289,0.0197 0.155223,0.0564 0.135467,0.12136 0.172156,0.381 0.172156,0.64347 0,0.24554 -0.02822,0.42334 -0.08185,0.5334 -0.05644,0.11289 -0.138289,0.16651 -0.245534,0.16651 -0.06209,0 -0.112889,-0.0169 -0.1524,-0.0536 -0.141112,-0.12135 -0.172156,-0.37535 -0.172156,-0.64629 z"
         style="fill:#fffff0;fill-opacity:1;stroke-width:0.265;stroke-miterlimit:4;stroke-dasharray:none"
         id="path945" />
      <path
         d="m 19.740613,190.51972 c 0.186267,0 0.304801,-0.1016 0.372534,-0.2286 h 0.0085 l 0.05927,0.19191 h 0.254 c -0.03104,-0.11853 -0.03951,-0.27658 -0.03951,-0.42898 v -0.98213 h -0.335845 v 0.94262 c -0.02822,0.096 -0.09596,0.19756 -0.208845,0.19756 -0.138289,0 -0.143934,-0.127 -0.143934,-0.29634 v -0.84384 h -0.335845 v 0.91722 c 0,0.31327 0.06491,0.53058 0.369712,0.53058 z"
         style="fill:#fffff0;fill-opacity:1;stroke-width:0.265;stroke-miterlimit:4;stroke-dasharray:none"
         id="path947" />
      <path
         d="m 21.007792,190.5169 c 0.118534,0 0.234245,-0.031 0.31609,-0.0734 l -0.04233,-0.26811 c -0.0508,0.0226 -0.08749,0.0339 -0.149578,0.0339 -0.104423,0 -0.110067,-0.096 -0.110067,-0.22296 v -0.61525 h 0.273756 v -0.29915 h -0.273756 v -0.36971 l -0.335845,0.10442 v 0.26529 h -0.155223 v 0.29915 h 0.155223 v 0.73943 c 0,0.26247 0.07902,0.4064 0.321734,0.4064 z"
         style="fill:#fffff0;fill-opacity:1;stroke-width:0.265;stroke-miterlimit:4;stroke-dasharray:none"
         id="path949" />
    </g>
    <rect
       style="display:inline;opacity:0.997;fill:#3c4239;fill-opacity:1;stroke:none;stroke-width:0.499999"
       id="rect912"
       width="9"
       height="3.3649998"
       x="0.57999998"
       y="244.49998"
       rx="0.99999994"
       ry="1" />
    <g
       aria-label="VCA"
       id="text909"
       style="font-size:2.82223px;line-height:1.25;font-family:'PTQ Sans Narrow';-inkscape-font-specification:'PTQ Sans Narrow, Normal';display:inline;fill:#fffff0;fill-opacity:1;stroke-width:0.264583"
       transform="translate(-15.903506,64.572404)">
      <path
         d="m 19.706453,181.78223 -0.293512,-1.15994 h -0.420512 l 0.603957,1.98968 h 0.270934 l 0.598313,-1.98968 h -0.375357 l -0.287867,1.15712 -0.04516,0.34149 h -0.01129 z"
         style="fill:#fffff0;fill-opacity:1;stroke-width:0.264583"
         id="path912" />
      <path
         d="m 21.25303,182.30999 c -0.0762,0 -0.141112,-0.0169 -0.194734,-0.0508 -0.174978,-0.11007 -0.231423,-0.35843 -0.231423,-0.64912 0,-0.23989 0.03387,-0.41769 0.104423,-0.53058 0.06773,-0.11288 0.169333,-0.16933 0.299156,-0.16933 0.121356,0 0.217312,0.0198 0.296334,0.0593 l 0.07056,-0.31327 c -0.104423,-0.0452 -0.248356,-0.0734 -0.409224,-0.0734 -0.222956,0 -0.389467,0.0818 -0.505179,0.21449 -0.158045,0.1778 -0.2286,0.45156 -0.2286,0.80998 0,0.19191 0.01693,0.3556 0.05644,0.48543 0.09031,0.31891 0.279401,0.54469 0.668869,0.54469 0.166511,0 0.347134,-0.0395 0.440268,-0.11854 l -0.07056,-0.29915 c -0.07902,0.0508 -0.166512,0.0903 -0.296334,0.0903 z"
         style="fill:#fffff0;fill-opacity:1;stroke-width:0.264583"
         id="path914" />
      <path
         d="m 22.480696,182.15194 0.121356,0.44591 h 0.372535 l -0.575735,-1.98967 h -0.279401 l -0.572913,1.98967 h 0.352779 l 0.115711,-0.44591 z m -0.389467,-0.29351 0.110067,-0.4572 0.04798,-0.31327 h 0.01129 l 0.04516,0.31045 0.112889,0.46002 z"
         style="fill:#fffff0;fill-opacity:1;stroke-width:0.264583"
         id="path916" />
    </g>
    <rect
       style="display:inline;fill:#555d50;fill-opacity:1;stroke:none;stroke-width:0.135872;stroke-opacity:1"
       id="rect7867"
       width="5"
       height="2"
       x="0.57999998"
       y="221" />
    <rect
       style="display:inline;fill:#555d50;fill-opacity:1;stroke-width:0.264583"
       id="rect442"
       width="19.16"
       height="11.9"
       x="0.57999998"
       y="220.99997"
       rx="1"
       ry="1.0000002" />
    <g
       aria-label="In"
       id="text929"
       style="font-size:2.82223px;line-height:1.25;font-family:'PTQ Sans Narrow';-inkscape-font-specification:'PTQ Sans Narrow, Normal';display:inline;stroke-width:0.264583;fill:#fffff0;fill-opacity:1"
       transform="translate(-13.542541,67.092353)">
      <path
         d="m 17.787178,181.25765 v 1.97557 h 0.355601 v -1.97557 z"
         style="stroke-width:0.264583;fill:#fffff0;fill-opacity:1"
         id="path936" />
      <path
         d="m 19.105157,181.78823 c -0.186268,0 -0.299157,0.0875 -0.36689,0.19756 h -0.0085 l -0.03951,-0.16369 h -0.268112 v 1.41112 h 0.335845 v -0.97932 c 0.0254,-0.079 0.09596,-0.15804 0.203201,-0.15804 0.141111,0 0.160867,0.11289 0.160867,0.2794 v 0.85796 h 0.335845 v -0.93981 c 0,-0.29351 -0.06773,-0.50518 -0.352778,-0.50518 z"
         style="stroke-width:0.264583;fill:#fffff0;fill-opacity:1"
         id="path938" />
    </g>
    <g
       aria-label="Gate"
       id="text1554"
       style="font-weight:bold;font-stretch:condensed;font-size:2.82223px;font-family:'PTQ Sans Narrow';-inkscape-font-specification:'PTQ Sans Narrow, Bold Condensed';display:inline;fill:#fffff0;fill-opacity:1;stroke-width:0.264583"
       transform="translate(-0.893083,-25.93522)">
      <path
         d="m 14.319728,208.39237 c -0.118534,0 -0.214489,-0.0565 -0.287867,-0.16933 -0.07338,-0.11289 -0.107245,-0.28787 -0.107245,-0.52776 0,-0.36125 0.0762,-0.70274 0.428979,-0.70274 0.129822,0 0.225778,0.0226 0.313267,0.0593 l 0.07338,-0.30762 c -0.110067,-0.0452 -0.268112,-0.079 -0.431801,-0.079 -0.239889,0 -0.412045,0.0931 -0.530579,0.23425 -0.152401,0.18062 -0.225779,0.44591 -0.225779,0.79305 0,0.18062 0.01693,0.33584 0.0508,0.46566 0.08749,0.32738 0.2794,0.56163 0.680157,0.56163 0.21449,0 0.400757,-0.0706 0.522113,-0.18627 v -0.87489 H 14.19555 v 0.21449 l 0.324556,0.0452 v 0.40358 c -0.04798,0.0452 -0.115711,0.0706 -0.200378,0.0706 z"
         id="path1556"
         style="fill:#fffff0;fill-opacity:1" />
      <path
         d="m 15.431689,207.52877 c 0.172156,0 0.186267,0.12135 0.172156,0.31044 -0.381001,-0.0198 -0.668869,0.0931 -0.668869,0.45156 0,0.23707 0.127001,0.40922 0.358424,0.40922 0.166511,0 0.270934,-0.079 0.333023,-0.18909 h 0.01129 l 0.05362,0.17216 h 0.273756 c -0.08467,-0.27094 -0.0254,-0.64065 -0.0254,-0.9652 0,-0.31045 -0.115711,-0.47696 -0.428979,-0.47696 -0.2032,0 -0.381001,0.0423 -0.499534,0.11289 l 0.08467,0.25118 c 0.08184,-0.0423 0.211667,-0.0762 0.335845,-0.0762 z m -0.149578,0.70555 c 0,-0.16086 0.160867,-0.19755 0.327378,-0.1778 v 0.23425 c -0.03387,0.0649 -0.09878,0.12135 -0.194733,0.12135 -0.09596,0 -0.132645,-0.0734 -0.132645,-0.1778 z"
         id="path1558"
         style="fill:#fffff0;fill-opacity:1" />
      <path
         d="m 16.540826,208.7141 c 0.118533,0 0.234245,-0.031 0.316089,-0.0734 l -0.04233,-0.26812 c -0.0508,0.0226 -0.08749,0.0339 -0.149578,0.0339 -0.104423,0 -0.110067,-0.096 -0.110067,-0.22296 v -0.61524 h 0.273756 v -0.29916 H 16.55494 v -0.36971 l -0.335846,0.10442 v 0.26529 h -0.155222 v 0.29916 h 0.155222 v 0.73942 c 0,0.26247 0.07902,0.4064 0.321735,0.4064 z"
         id="path1560"
         style="fill:#fffff0;fill-opacity:1" />
      <path
         d="m 17.565296,208.42906 c -0.214489,0 -0.285045,-0.14394 -0.290689,-0.36125 h 0.685801 c 0.01411,-0.0931 0.02822,-0.18344 0.02822,-0.28504 0,-0.33585 -0.149578,-0.55316 -0.474135,-0.55316 -0.180623,0 -0.318912,0.0621 -0.420512,0.18345 -0.1016,0.12135 -0.149578,0.30762 -0.149578,0.56162 0,0.42616 0.135467,0.74225 0.558801,0.74225 0.172156,0 0.352779,-0.0593 0.445913,-0.14112 l -0.104423,-0.23424 c -0.05927,0.048 -0.172156,0.0875 -0.279401,0.0875 z m 0.110067,-0.5842 h -0.389468 c 0.0085,-0.17216 0.05645,-0.32738 0.222957,-0.32738 0.143933,0 0.174978,0.15804 0.166511,0.32738 z"
         id="path1562"
         style="fill:#fffff0;fill-opacity:1" />
    </g>
    <g
       aria-label="V/Oct"
       id="text1550"
       style="font-weight:bold;font-stretch:condensed;font-size:2.82223px;font-family:'PTQ Sans Narrow';-inkscape-font-specification:'PTQ Sans Narrow, Bold Condensed';display:inline;fill:#fffff0;fill-opacity:1;stroke-width:0.264583"
       transform="translate(-10.369107,-12.70592)">
      <path
         d="m 13.234131,194.62537 -0.293512,-1.15994 h -0.420512 l 0.603957,1.98968 h 0.270934 l 0.598313,-1.98968 h -0.375356 l -0.287868,1.15712 -0.04516,0.34149 h -0.01129 z"
         id="path1565"
         style="fill:#fffff0;fill-opacity:1" />
      <path
         d="m 14.746847,193.43157 -0.829735,2.30576 0.259645,0.0988 0.826913,-2.30577 z"
         id="path1567"
         style="fill:#fffff0;fill-opacity:1" />
      <path
         d="m 16.431721,194.45321 c 0,-0.55033 -0.155222,-1.02729 -0.699913,-1.02729 -0.533401,0 -0.697091,0.44874 -0.697091,1.02729 0,0.55598 0.146756,1.0273 0.697091,1.0273 0.527757,0 0.699913,-0.44874 0.699913,-1.0273 z m -1.024469,0 c 0,-0.46566 0.107245,-0.69991 0.324556,-0.69991 0.06209,0 0.112889,0.0198 0.155223,0.0565 0.135467,0.12135 0.172156,0.381 0.172156,0.64346 0,0.24554 -0.02822,0.42334 -0.08185,0.53341 -0.05644,0.11288 -0.138289,0.16651 -0.245534,0.16651 -0.06209,0 -0.112889,-0.0169 -0.1524,-0.0536 -0.141112,-0.12135 -0.172156,-0.37535 -0.172156,-0.64629 z"
         id="path1569"
         style="fill:#fffff0;fill-opacity:1" />
      <path
         d="m 17.185255,195.17006 c -0.200378,0 -0.254,-0.21731 -0.254,-0.43462 0,-0.1524 0.01975,-0.26247 0.05927,-0.3302 0.03951,-0.0677 0.09878,-0.10443 0.177801,-0.10443 0.09313,0 0.141111,0.0198 0.208845,0.0508 l 0.07902,-0.2794 c -0.09596,-0.0508 -0.194733,-0.079 -0.349956,-0.079 -0.39229,0 -0.522113,0.31609 -0.522113,0.74225 0,0.41486 0.107245,0.74224 0.516468,0.74224 0.143934,0 0.282223,-0.0451 0.36689,-0.11289 l -0.07055,-0.25964 c -0.05927,0.0395 -0.118534,0.0649 -0.211668,0.0649 z"
         id="path1571"
         style="fill:#fffff0;fill-opacity:1" />
      <path
         d="m 17.989592,195.47486 c 0.118534,0 0.234245,-0.031 0.31609,-0.0734 l -0.04233,-0.26811 c -0.0508,0.0226 -0.08749,0.0339 -0.149578,0.0339 -0.104422,0 -0.110067,-0.096 -0.110067,-0.22296 v -0.61524 h 0.273756 v -0.29916 h -0.273756 v -0.36971 l -0.335845,0.10442 v 0.26529 h -0.155223 v 0.29916 h 0.155223 v 0.73942 c 0,0.26247 0.07902,0.4064 0.321734,0.4064 z"
         id="path1573"
         style="fill:#fffff0;fill-opacity:1" />
    </g>
    <g
       aria-label="V/Oct"
       id="text2306"
       style="font-weight:bold;font-stretch:condensed;font-size:2.82223px;font-family:'PTQ Sans Narrow';-inkscape-font-specification:'PTQ Sans Narrow, Bold Condensed';display:inline;fill:#fffff0;fill-opacity:1;stroke-width:0.264583"
       transform="translate(-0.2387178,180.11577)">
      <path
         d="M 3.1037421,42.803676 2.8102301,41.64374 H 2.3897178 l 0.6039573,1.989672 H 3.2646092 L 3.862922,41.64374 H 3.4875653 l -0.2878674,1.157114 -0.045156,0.34149 h -0.011289 z"
         id="path2321"
         style="fill:#fffff0;fill-opacity:1" />
      <path
         d="m 4.6164581,41.609873 -0.8297356,2.305762 0.2596452,0.09878 0.8269134,-2.305762 z"
         id="path2323"
         style="fill:#fffff0;fill-opacity:1" />
      <path
         d="m 6.3013321,42.63152 c 0,-0.550335 -0.1552226,-1.027291 -0.6999131,-1.027291 -0.5334014,0 -0.6970908,0.448734 -0.6970908,1.027291 0,0.55598 0.146756,1.027292 0.6970908,1.027292 0.5277571,0 0.6999131,-0.448735 0.6999131,-1.027292 z m -1.0244695,0 c 0,-0.465668 0.1072447,-0.699913 0.3245564,-0.699913 0.062089,0 0.1128893,0.01976 0.1552227,0.05645 0.135467,0.121356 0.172156,0.381001 0.172156,0.643468 0,0.245534 -0.028222,0.423335 -0.081845,0.533402 -0.056445,0.112889 -0.1382893,0.166511 -0.2455341,0.166511 -0.062089,0 -0.1128892,-0.01693 -0.1524004,-0.05362 -0.1411115,-0.121356 -0.172156,-0.375357 -0.172156,-0.646291 z"
         id="path2325"
         style="fill:#fffff0;fill-opacity:1" />
      <path
         d="m 7.0548661,43.348367 c -0.2003783,0 -0.2540007,-0.217312 -0.2540007,-0.434624 0,-0.1524 0.019756,-0.262467 0.059267,-0.330201 0.039511,-0.06773 0.098778,-0.104422 0.1778005,-0.104422 0.093133,0 0.1411115,0.01975 0.208845,0.0508 l 0.079022,-0.279401 c -0.095956,-0.0508 -0.1947339,-0.07902 -0.3499565,-0.07902 -0.39229,0 -0.5221126,0.31609 -0.5221126,0.742246 0,0.414868 0.1072448,0.742247 0.5164681,0.742247 0.1439338,0 0.282223,-0.04516 0.3668899,-0.112889 l -0.070556,-0.259646 c -0.059267,0.03951 -0.1185337,0.06491 -0.2116667,0.06491 z"
         id="path2327"
         style="fill:#fffff0;fill-opacity:1" />
      <path
         d="m 7.8592027,43.653168 c 0.1185337,0 0.2342451,-0.03104 0.3160898,-0.07338 l -0.042333,-0.26811 c -0.0508,0.02258 -0.087489,0.03387 -0.1495782,0.03387 -0.1044225,0 -0.1100669,-0.09596 -0.1100669,-0.222957 V 42.507342 H 8.1470702 V 42.208186 H 7.8733139 v -0.369712 l -0.3358454,0.104422 v 0.26529 H 7.3822458 v 0.299156 h 0.1552227 v 0.739424 c 0,0.262468 0.079022,0.406402 0.3217342,0.406402 z"
         id="path2329"
         style="fill:#fffff0;fill-opacity:1" />
    </g>
    <g
       aria-label="Gate"
       id="text2310"
       style="font-weight:bold;font-stretch:condensed;font-size:2.82223px;font-family:'PTQ Sans Narrow';-inkscape-font-specification:'PTQ Sans Narrow, Bold Condensed';display:inline;fill:#fffff0;fill-opacity:1;stroke-width:0.264583"
       transform="translate(10.107539,168.84454)">
      <path
         d="m 3.3191079,54.612657 c -0.1185337,0 -0.2144895,-0.05644 -0.2878675,-0.169334 -0.073378,-0.112889 -0.1072447,-0.287868 -0.1072447,-0.527757 0,-0.361246 0.0762,-0.702735 0.428979,-0.702735 0.1298226,0 0.2257784,0.02258 0.3132675,0.05927 l 0.073378,-0.307623 c -0.110067,-0.04516 -0.2681119,-0.07902 -0.4318012,-0.07902 -0.2398896,0 -0.4120456,0.09313 -0.5305793,0.234245 -0.1524004,0.180623 -0.2257784,0.445912 -0.2257784,0.793047 0,0.180622 0.016933,0.335845 0.0508,0.465668 0.087489,0.327378 0.2794007,0.561623 0.6801574,0.561623 0.2144895,0 0.4007567,-0.07055 0.5221126,-0.186267 V 53.878877 H 3.1949298 v 0.214489 l 0.3245564,0.04516 v 0.403579 c -0.047978,0.04516 -0.1157114,0.07056 -0.2003783,0.07056 z"
         id="path2312"
         style="fill:#fffff0;fill-opacity:1" />
      <path
         d="m 4.4310688,53.749054 c 0.1721561,0 0.1862672,0.121356 0.1721561,0.310446 -0.3810011,-0.01976 -0.6688686,0.09313 -0.6688686,0.451556 0,0.237068 0.1270004,0.409224 0.3584232,0.409224 0.1665116,0 0.2709341,-0.07902 0.3330232,-0.18909 h 0.011289 l 0.053622,0.172156 H 4.96447 C 4.879803,54.632412 4.93907,54.2627 4.93907,53.938144 c 0,-0.310446 -0.1157114,-0.476957 -0.4289789,-0.476957 -0.2032006,0 -0.3810011,0.04233 -0.4995348,0.112889 l 0.084667,0.251178 c 0.081845,-0.04233 0.2116673,-0.0762 0.3358455,-0.0762 z m -0.1495782,0.705558 c 0,-0.160867 0.1608671,-0.197556 0.3273787,-0.177801 v 0.234245 c -0.033867,0.06491 -0.098778,0.121356 -0.1947339,0.121356 -0.095956,0 -0.1326448,-0.07338 -0.1326448,-0.1778 z"
         id="path2314"
         style="fill:#fffff0;fill-opacity:1" />
      <path
         d="m 5.5402056,54.934391 c 0.1185336,0 0.2342451,-0.03104 0.3160897,-0.07338 l -0.042333,-0.268112 c -0.0508,0.02258 -0.087489,0.03387 -0.1495782,0.03387 -0.1044225,0 -0.110067,-0.09596 -0.110067,-0.222956 V 53.788565 H 5.828073 V 53.489409 H 5.5543167 v -0.369712 l -0.3358454,0.104422 v 0.26529 H 5.0632487 v 0.299156 h 0.1552226 v 0.739425 c 0,0.262467 0.079022,0.406401 0.3217343,0.406401 z"
         id="path2316"
         style="fill:#fffff0;fill-opacity:1" />
      <path
         d="m 6.5646761,54.649346 c -0.2144895,0 -0.2850452,-0.143934 -0.2906897,-0.361246 h 0.6858019 c 0.014111,-0.09313 0.028222,-0.183445 0.028222,-0.285045 0,-0.335845 -0.1495782,-0.553157 -0.4741346,-0.553157 -0.1806228,0 -0.318912,0.06209 -0.4205123,0.183445 -0.1016003,0.121356 -0.1495782,0.307623 -0.1495782,0.561624 0,0.426156 0.135467,0.742246 0.5588016,0.742246 0.172156,0 0.3527787,-0.05927 0.4459123,-0.141111 L 6.8440769,54.561857 c -0.059267,0.04798 -0.172156,0.08749 -0.2794008,0.08749 z m 0.110067,-0.584202 H 6.2852753 c 0.00847,-0.172156 0.056445,-0.327379 0.2229562,-0.327379 0.1439337,0 0.1749783,0.158045 0.1665116,0.327379 z"
         id="path2318"
         style="fill:#fffff0;fill-opacity:1" />
    </g>
    <g
       id="g605"
       transform="translate(-18.27764,0.31211)"
       style="display:inline;fill:#fffff0;fill-opacity:1">
      <path
         d="m 25.222812,174.31019 v -0.57291 h -2.262017 v 0.57291 h 0.819858 v 2.88432 h 0.622301 v -2.88432 z"
         id="path526"
         style="font-weight:bold;font-stretch:condensed;font-size:4.9389px;line-height:1.25;font-family:'PTQ Sans Narrow';-inkscape-font-specification:'PTQ Sans Narrow, Bold Condensed';font-variant-ligatures:none;letter-spacing:0px;word-spacing:0px;stroke-width:0.264583;fill:#fffff0;fill-opacity:1" />
      <path
         d="m 25.891247,175.17943 c 0.301272,0 0.325967,0.21238 0.301272,0.54328 -0.666751,-0.0346 -1.170519,0.16299 -1.170519,0.79023 0,0.41486 0.222251,0.71614 0.62724,0.71614 0.291396,0 0.474135,-0.13829 0.582791,-0.33091 h 0.01975 l 0.09384,0.30127 h 0.479074 c -0.148167,-0.47413 -0.04445,-1.12113 -0.04445,-1.6891 0,-0.54328 -0.202495,-0.83467 -0.750713,-0.83467 -0.355601,0 -0.666752,0.0741 -0.874186,0.19755 l 0.148167,0.43956 c 0.143229,-0.0741 0.370418,-0.13335 0.58773,-0.13335 z m -0.261762,1.23473 c 0,-0.28152 0.281517,-0.34572 0.572912,-0.31115 v 0.40993 c -0.05927,0.11359 -0.172861,0.21237 -0.340784,0.21237 -0.167922,0 -0.232128,-0.12841 -0.232128,-0.31115 z"
         id="path528"
         style="font-weight:bold;font-stretch:condensed;font-size:4.9389px;line-height:1.25;font-family:'PTQ Sans Narrow';-inkscape-font-specification:'PTQ Sans Narrow, Bold Condensed';font-variant-ligatures:none;letter-spacing:0px;word-spacing:0px;stroke-width:0.264583;fill:#fffff0;fill-opacity:1" />
      <path
         d="m 27.339145,174.72506 v 2.46945 h 0.587729 v -2.46945 z m 0.291395,-0.36548 c 0.217311,0 0.380295,-0.1136 0.380295,-0.33091 0,-0.21237 -0.162984,-0.34078 -0.380295,-0.34078 -0.217312,0 -0.36054,0.13335 -0.36054,0.34078 0,0.21237 0.143228,0.33091 0.36054,0.33091 z"
         id="path530"
         style="font-weight:bold;font-stretch:condensed;font-size:4.9389px;line-height:1.25;font-family:'PTQ Sans Narrow';-inkscape-font-specification:'PTQ Sans Narrow, Bold Condensed';font-variant-ligatures:none;letter-spacing:0px;word-spacing:0px;stroke-width:0.264583;fill:#fffff0;fill-opacity:1" />
      <path
         d="m 29.004892,177.25377 c 0.162983,0 0.400051,-0.0444 0.49389,-0.10865 l -0.05433,-0.47414 c -0.06914,0.0296 -0.123473,0.0444 -0.197556,0.0444 -0.138289,0 -0.148167,-0.14817 -0.148167,-0.32103 v -2.65712 H 28.511 v 2.97321 c 0,0.37536 0.138289,0.54328 0.49389,0.54328 z"
         id="path532"
         style="font-weight:bold;font-stretch:condensed;font-size:4.9389px;line-height:1.25;font-family:'PTQ Sans Narrow';-inkscape-font-specification:'PTQ Sans Narrow, Bold Condensed';font-variant-ligatures:none;letter-spacing:0px;word-spacing:0px;stroke-width:0.264583;fill:#fffff0;fill-opacity:1" />
      <path
         d="m 30.470011,176.75494 c -0.207434,0 -0.395112,-0.0691 -0.523524,-0.14816 l -0.162983,0.47413 c 0.153106,0.10866 0.444501,0.1778 0.711201,0.1778 0.508707,0 0.824797,-0.2667 0.824797,-0.75565 0,-0.51365 -0.355601,-0.67169 -0.67663,-0.85937 -0.108655,-0.0593 -0.237067,-0.12841 -0.237067,-0.27658 0,-0.13335 0.07902,-0.20249 0.242006,-0.20249 0.167923,0 0.365479,0.0642 0.488951,0.11359 l 0.13829,-0.45438 c -0.162984,-0.0938 -0.44944,-0.16298 -0.716141,-0.16298 -0.479073,0 -0.740835,0.25188 -0.740835,0.72108 0,0.51364 0.36054,0.66181 0.676629,0.84949 0.108656,0.0642 0.237068,0.14817 0.237068,0.30621 0,0.15311 -0.113595,0.21731 -0.261762,0.21731 z"
         id="path534"
         style="font-weight:bold;font-stretch:condensed;font-size:4.9389px;line-height:1.25;font-family:'PTQ Sans Narrow';-inkscape-font-specification:'PTQ Sans Narrow, Bold Condensed';font-variant-ligatures:none;letter-spacing:0px;word-spacing:0px;stroke-width:0.264583;fill:#fffff0;fill-opacity:1" />
      <path
         d="m 33.914484,176.23142 v -0.50377 h -0.434623 v -2.01507 h -0.513646 l -1.264358,2.15336 v 0.36548 h 1.219908 v 0.96309 h 0.558096 v -0.96309 z m -0.992719,-1.2693 v 0.76553 h -0.44944 l -0.251884,0.0395 0.197556,-0.18768 0.390173,-0.66181 0.148167,-0.40005 h 0.01976 z"
         id="path536"
         style="font-weight:bold;font-stretch:condensed;font-size:4.9389px;line-height:1.25;font-family:'PTQ Sans Narrow';-inkscape-font-specification:'PTQ Sans Narrow, Bold Condensed';font-variant-ligatures:none;letter-spacing:0px;word-spacing:0px;stroke-width:0.264583;fill:#fffff0;fill-opacity:1" />
    </g>
    <g
       id="g529"
       transform="translate(3.5800001,-0.09999681)"
       style="stroke-width:0.981981">
      <rect
         style="fill:#555d50;fill-opacity:1;stroke-width:0.28772"
         id="rect461"
         width="1.4"
         height="2.8"
         x="-3"
         y="218.5" />
      <circle
         style="fill:#555d50;fill-opacity:1;stroke-width:0.28772"
         id="path1332"
         cx="-1.6"
         cy="219.89999"
         r="1.4" />
      <rect
         style="fill:#555d50;fill-opacity:1;stroke-width:0.28772"
         id="rect1334"
         width="2.8"
         height="1.3"
         x="-3"
         y="220" />
    </g>
    <g
       id="g477"
       transform="translate(13.013,-0.09999681)"
       style="stroke-width:0.981981">
      <rect
         style="fill:#555d50;fill-opacity:1;stroke-width:0.28772"
         id="rect471"
         width="1.4"
         height="2.8"
         x="-3"
         y="218.5" />
      <circle
         style="fill:#555d50;fill-opacity:1;stroke-width:0.28772"
         id="circle473"
         cx="-1.6"
         cy="219.89999"
         r="1.4" />
      <rect
         style="fill:#555d50;fill-opacity:1;stroke-width:0.28772"
         id="rect475"
         width="2.8"
         height="1.3"
         x="-3"
         y="220" />
    </g>
  </g>
  <g
     style="display:none"
     inkscape:label="components"
     id="layer2"
     inkscape:groupmode="layer">
    <circle
       inkscape:label="CV_Out"
       cy="59.75"
       cx="14.84"
       id="circle918"
       style="fill:#0000ff;fill-rule:evenodd;stroke-width:0.264582"
       r="4" />
    <circle
       r="4"
       style="fill:#00ff00;fill-rule:evenodd;stroke-width:0.264582"
       id="circle922"
       cx="5.4439998"
       cy="37.25"
       inkscape:label="CV_Out" />
    <circle
       inkscape:label="CV_Out"
       cy="59.75"
       cx="5.48"
       id="circle1002"
       style="fill:#0000ff;fill-rule:evenodd;stroke-width:0.264582"
       r="4" />
    <circle
       style="fill:#000000;fill-opacity:1;fill-rule:evenodd;stroke-width:0.264582"
       id="circle1048"
       cx="5.0799999"
       cy="71.5"
       inkscape:label="CV_Out"
       r="3" />
    <circle
       r="4"
       style="fill:#00ff00;fill-rule:evenodd;stroke-width:0.264582"
       id="circle5176"
       cx="5.4439998"
       cy="18.750004"
       inkscape:label="CV_Out" />
    <circle
       r="4"
       style="fill:#00ff00;fill-rule:evenodd;stroke-width:0.264582"
       id="circle2332"
       cx="5.4439998"
       cy="46.5"
       inkscape:label="CV_Out" />
    <circle
       r="4"
       style="fill:#00ff00;fill-rule:evenodd;stroke-width:0.264582"
       id="circle2334"
       cx="14.877001"
       cy="46.5"
       inkscape:label="CV_Out" />
    <circle
       r="4"
       style="fill:#00ff00;fill-rule:evenodd;stroke-width:0.264582"
       id="circle2338"
       cx="5.4439998"
       cy="28.000004"
       inkscape:label="CV_Out" />
    <circle
       r="4"
       style="fill:#00ff00;fill-rule:evenodd;stroke-width:0.264582"
       id="circle4263"
       cx="14.877001"
       cy="18.750004"
       inkscape:label="CV_Out" />
    <circle
       r="4"
       style="fill:#00ff00;fill-rule:evenodd;stroke-width:0.264582"
       id="circle4265"
       cx="14.877001"
       cy="28.000004"
       inkscape:label="CV_Out" />
    <circle
       r="4"
       style="fill:#00ff00;fill-rule:evenodd;stroke-width:0.264582"
       id="circle4267"
       cx="14.877001"
       cy="37.25"
       inkscape:label="CV_Out" />
    <text
       xml:space="preserve"
       style="font-style:normal;font-variant:normal;font-weight:bold;font-stretch:condensed;font-size:2.82223px;font-family:'PTQ Sans Narrow';-inkscape-font-specification:'PTQ Sans Narrow, Bold Condensed';font-variant-ligatures:normal;font-variant-caps:normal;font-variant-numeric:normal;font-variant-east-asian:normal;fill:#fffff0;fill-opacity:1;stroke-width:0.264583"
       x="26.873898"
       y="9.8641768"
       id="text7875"><tspan
         sodipodi:role="line"
         id="tspan7873"
         style="stroke-width:0.264583"
         x="26.873898"
         y="9.8641768" /></text>
    <text
       xml:space="preserve"
       style="font-style:normal;font-variant:normal;font-weight:bold;font-stretch:condensed;font-size:2.82223px;font-family:'PTQ Sans Narrow';-inkscape-font-specification:'PTQ Sans Narrow, Bold Condensed';font-variant-ligatures:normal;font-variant-caps:normal;font-variant-numeric:normal;font-variant-east-asian:normal;fill:#fffff0;fill-opacity:1;stroke-width:0.264583"
       x="30.445026"
       y="9.9664907"
       id="text7879"><tspan
         sodipodi:role="line"
         id="tspan7877"
         style="stroke-width:0.264583"
         x="30.445026"
         y="9.9664907" /></text>
    <text
       xml:space="preserve"
       transform="scale(0.26458333)"
       id="text460"
       style="font-weight:bold;font-stretch:condensed;font-size:10.6667px;font-family:'PTQ Sans Narrow';-inkscape-font-specification:'PTQ Sans Narrow, Bold Condensed';white-space:pre;shape-inside:url(#rect462);display:inline;fill:#fffff0" />
    <circle
       inkscape:label="CV_Out"
       cy="74.25"
       cx="15.24"
       id="circle910"
       style="display:inline;fill:#00ff00;fill-rule:evenodd;stroke-width:0.264582"
       r="4" />
    <circle
       inkscape:label="CV_Out"
       cy="84.99971"
       cx="15.24"
       id="circle918-3"
       style="display:inline;fill:#0000ff;fill-rule:evenodd;stroke-width:0.264582"
       r="4" />
    <circle
       inkscape:label="CV_Out"
       cy="94.999908"
       cx="15.24"
       id="circle884"
       style="display:inline;fill:#0000ff;fill-rule:evenodd;stroke-width:0.264582"
       r="4" />
    <circle
       inkscape:label="CV_Out"
       cy="105.00003"
       cx="15.24"
       id="circle886"
       style="display:inline;fill:#0000ff;fill-rule:evenodd;stroke-width:0.264582"
       r="4" />
    <circle
       inkscape:label="CV_Out"
       cy="115.00003"
       cx="15.24"
       id="circle888"
       style="display:inline;fill:#0000ff;fill-rule:evenodd;stroke-width:0.264582"
       r="4" />
    <circle
       style="display:inline;fill:#ff0000;fill-opacity:1;stroke-width:0.264999"
       id="circle953"
       cx="18.559999"
       cy="80.99971"
       r="0.81599998" />
    <circle
       style="display:inline;fill:#ff0000;fill-opacity:1;stroke-width:0.264999"
       id="circle71"
       cx="18.559999"
       cy="90.999786"
       r="0.81599998" />
    <circle
       style="display:inline;fill:#ff0000;fill-opacity:1;stroke-width:0.264999"
       id="circle73"
       cx="18.559999"
       cy="101.00003"
       r="0.81599998" />
    <circle
       style="display:inline;fill:#ff0000;fill-opacity:1;stroke-width:0.264999"
       id="circle75"
       cx="18.559999"
       cy="111.00003"
       r="0.81599998" />
    <circle
       inkscape:label="CV_Out"
       cy="97"
       cx="5.0799999"
       id="circle918-2"
       style="display:inline;fill:#0000ff;fill-rule:evenodd;stroke-width:0.264582"
       r="4" />
    <circle
       style="display:inline;fill:#00ff00;fill-rule:evenodd;stroke-width:0.264582"
       id="circle922-2"
       cx="5.0799999"
       cy="108.60049"
       inkscape:label="CV_Out"
       r="4" />
    <circle
       style="display:inline;fill:#000000;fill-opacity:1;fill-rule:evenodd;stroke-width:0.264582"
       id="circle9581"
       cx="5.0799999"
       cy="116.25"
       inkscape:label="CV_Out"
       r="3" />
    <circle
       style="display:inline;fill:#00ff00;fill-rule:evenodd;stroke-width:0.264582"
       id="circle8901"
       cx="5.0799999"
       cy="86"
       inkscape:label="CV_Out"
       r="4" />
    <circle
       style="display:inline;fill:#ff0000;fill-opacity:1;stroke-width:0.264999"
       id="circle2167"
       cx="8.3999996"
       cy="68.79837"
       r="0.81599998" />
    <circle
       style="display:inline;fill:#00b8ff;fill-opacity:1;stroke-width:0.264999"
       id="circle484"
       cx="8.7259998"
       cy="14.750005"
       r="0.81599998" />
    <circle
       style="display:inline;fill:#ff0000;fill-opacity:1;stroke-width:0.264999"
       id="circle1228"
       cx="18.16"
       cy="55.75"
       r="0.81599998" />
    <circle
       style="display:inline;fill:#ff0000;fill-opacity:1;stroke-width:0.264999"
       id="circle1230"
       cx="8.8000002"
       cy="55.75"
       r="0.81599998" />
    <circle
       style="display:inline;opacity:0.994;fill:#00b8ff;fill-opacity:1;stroke:#454545;stroke-width:0.15;stroke-miterlimit:4;stroke-dasharray:none;stroke-dashoffset:9.44882;stroke-opacity:1;stop-color:#000000"
       id="path840"
       cx="2"
       cy="51.299999"
       r="0.97500002" />
    <circle
       style="display:inline;opacity:0.994;fill:#00b8ff;fill-opacity:1;stroke:#454545;stroke-width:0.15;stroke-miterlimit:4;stroke-dasharray:none;stroke-dashoffset:9.44882;stroke-opacity:1;stop-color:#000000"
       id="circle1459"
       cx="11.433"
       cy="51.299999"
       r="0.97500002" />
    <circle
       style="display:inline;fill:#00b8ff;fill-opacity:1;stroke-width:0.264999"
       id="circle1461"
       cx="18.16"
       cy="14.750005"
       r="0.81599998" />
    <circle
       style="display:inline;fill:#00b8ff;fill-opacity:1;stroke-width:0.264999"
       id="circle1463"
       cx="18.16"
       cy="24.000004"
       r="0.81599998" />
    <circle
       style="display:inline;fill:#00b8ff;fill-opacity:1;stroke-width:0.264999"
       id="circle1465"
       cx="8.7259998"
       cy="24.000004"
       r="0.81599998" />
    <circle
       style="display:inline;fill:#00b8ff;fill-opacity:1;stroke-width:0.264999"
       id="circle1467"
       cx="8.7259998"
       cy="33.25"
       r="0.81599998" />
    <circle
       style="display:inline;fill:#00b8ff;fill-opacity:1;stroke-width:0.264999"
       id="circle1469"
       cx="18.16"
       cy="33.25"
       r="0.81599998" />
    <circle
       style="display:inline;fill:#00b8ff;fill-opacity:1;stroke-width:0.264999"
       id="circle1471"
       cx="18.16"
       cy="42.5"
       r="0.81599998" />
    <circle
       style="display:inline;fill:#00b8ff;fill-opacity:1;stroke-width:0.264999"
       id="circle1473"
       cx="8.7259998"
       cy="42.5"
       r="0.81599998" />
  </g>
</svg>
