<?xml version="1.0" encoding="UTF-8" standalone="no"?>
<svg
   sodipodi:docname="VCA3.svg"
   inkscape:version="1.1.1 (3bf5ae0d25, 2021-09-20)"
   id="svg8"
   version="1.1"
   viewBox="0 0 10.16 128.5"
   height="128.5mm"
   width="10.16mm"
   xmlns:inkscape="http://www.inkscape.org/namespaces/inkscape"
   xmlns:sodipodi="http://sodipodi.sourceforge.net/DTD/sodipodi-0.dtd"
   xmlns="http://www.w3.org/2000/svg"
   xmlns:svg="http://www.w3.org/2000/svg"
   xmlns:rdf="http://www.w3.org/1999/02/22-rdf-syntax-ns#"
   xmlns:cc="http://creativecommons.org/ns#"
   xmlns:dc="http://purl.org/dc/elements/1.1/">
  <defs
     id="defs2" />
  <sodipodi:namedview
     inkscape:snap-global="true"
     inkscape:snap-bbox-midpoints="true"
     inkscape:snap-bbox="true"
     inkscape:document-rotation="0"
     inkscape:window-maximized="0"
     inkscape:window-y="23"
     inkscape:window-x="26"
     inkscape:window-height="1315"
     inkscape:window-width="1502"
     inkscape:lockguides="false"
     inkscape:guide-bbox="true"
     showguides="true"
     units="mm"
     showgrid="false"
     inkscape:current-layer="layer1"
     inkscape:document-units="mm"
     inkscape:cy="90.965429"
     inkscape:cx="7.4952788"
     inkscape:zoom="2.935181"
     inkscape:pageshadow="2"
     inkscape:pageopacity="0.0"
     borderopacity="1.0"
     bordercolor="#666666"
     pagecolor="#ffffff"
     id="base"
     inkscape:bbox-nodes="false"
     inkscape:bbox-paths="false"
     inkscape:snap-grids="false"
     inkscape:snap-others="false"
     inkscape:object-nodes="false"
     inkscape:snap-nodes="false"
     inkscape:snap-bbox-edge-midpoints="false"
     inkscape:pagecheckerboard="0">
    <sodipodi:guide
       position="5.0800001,111"
       orientation="0,1"
       id="guide837"
       inkscape:label=""
       inkscape:locked="false"
       inkscape:color="rgb(0,0,255)" />
    <sodipodi:guide
       inkscape:color="rgb(0,0,255)"
       inkscape:locked="false"
       inkscape:label=""
       id="guide875"
       orientation="0,1"
       position="5.0800001,36.999994" />
    <sodipodi:guide
       position="5.0800001,86.000003"
       orientation="0,1"
       id="guide891"
       inkscape:label=""
       inkscape:locked="false"
       inkscape:color="rgb(0,0,255)" />
    <sodipodi:guide
       position="5.0800001,48.999994"
       orientation="0,1"
       id="guide893"
       inkscape:label=""
       inkscape:locked="false"
       inkscape:color="rgb(0,0,255)" />
    <sodipodi:guide
       position="5.0800001,73.999992"
       orientation="0,1"
       id="guide901"
       inkscape:label=""
       inkscape:locked="false"
       inkscape:color="rgb(0,0,255)" />
    <sodipodi:guide
       position="5.0800001,93.500004"
       orientation="0,1"
       id="guide947"
       inkscape:label=""
       inkscape:locked="false"
       inkscape:color="rgb(0,0,255)" />
    <sodipodi:guide
       position="5.0800002,28.250001"
       orientation="0,1"
       id="guide3392"
       inkscape:label=""
       inkscape:locked="false"
       inkscape:color="rgb(0,0,255)" />
    <sodipodi:guide
       inkscape:color="rgb(0,0,255)"
       inkscape:locked="false"
       inkscape:label=""
       id="guide907"
       orientation="0,1"
       position="5.0800001,12" />
    <sodipodi:guide
       position="5.0800002,65.249987"
       orientation="0,1"
       id="guide908"
       inkscape:label=""
       inkscape:locked="false"
       inkscape:color="rgb(0,0,255)" />
    <sodipodi:guide
       inkscape:color="rgb(0,0,255)"
       inkscape:locked="false"
       inkscape:label=""
       id="guide944"
       orientation="-1,0"
       position="5.0800002,74.250002" />
    <sodipodi:guide
       position="5.0800002,102.25"
       orientation="0,1"
       id="guide18956"
       inkscape:label=""
       inkscape:locked="false"
       inkscape:color="rgb(0,0,255)" />
    <sodipodi:guide
       position="5.0800001,56.499995"
       orientation="0,-1"
       id="guide1014" />
    <sodipodi:guide
       position="5.0800001,19.500001"
       orientation="0,-1"
       id="guide1016" />
  </sodipodi:namedview>
  <metadata
     id="metadata5">
    <rdf:RDF>
      <cc:Work
         rdf:about="">
        <dc:format>image/svg+xml</dc:format>
        <dc:type
           rdf:resource="http://purl.org/dc/dcmitype/StillImage" />
        <dc:title />
      </cc:Work>
    </rdf:RDF>
  </metadata>
  <g
     transform="translate(0,-168.5)"
     id="layer1"
     inkscape:groupmode="layer"
     inkscape:label="Layer 1"
     style="display:inline">
    <rect
       style="display:inline;opacity:1;fill:#bbbbb0;fill-opacity:1;stroke:none;stroke-width:1.131;stroke-miterlimit:4;stroke-dasharray:none"
       id="rect838"
       width="10.16"
       height="128.5"
       x="-5.5511151e-17"
       y="168.5" />
    <rect
       style="opacity:1;fill:#555d50;fill-opacity:1;stroke:none;stroke-width:0.829453;stroke-opacity:0.25"
       id="rect45"
       width="8.8000002"
       height="8.75"
       x="0.67999989"
       y="190.375" />
    <text
       xml:space="preserve"
       style="font-weight:bold;font-stretch:condensed;font-size:2.82223px;line-height:1.25;font-family:'PT Sans Narrow';-inkscape-font-specification:'PT Sans Narrow, Bold Condensed';opacity:1;stroke-width:0.264583"
       x="2.0529213"
       y="233.73691"
       id="text64"><tspan
         sodipodi:role="line"
         id="tspan62"
         x="2.0529213"
         y="233.73691"
         style="stroke-width:0.264583" /></text>
    <g
       aria-label="GRANDE"
       id="text2569"
       style="font-size:1.76389px;line-height:1.25;font-family:'Source Sans Pro';-inkscape-font-specification:'Source Sans Pro, Normal';text-align:center;letter-spacing:0.370417px;text-anchor:middle;opacity:1;stroke-width:0.264583"
       transform="translate(0,-0.83024)">
      <path
         d="m 1.6963961,292.52968 c 0.1552223,0 0.2822224,-0.0564 0.3580696,-0.13405 v -0.48684 H 1.6734655 v 0.12171 h 0.2451807 v 0.30163 c -0.045861,0.0423 -0.1252362,0.067 -0.208139,0.067 -0.2469446,0 -0.3827641,-0.18168 -0.3827641,-0.47272 0,-0.28751 0.1481667,-0.46567 0.3810002,-0.46567 0.1164167,0 0.1905001,0.0441 0.2487085,0.10407 l 0.081139,-0.0917 c -0.067028,-0.0723 -0.1728612,-0.14287 -0.3333752,-0.14287 -0.3069168,0 -0.5309309,0.22754 -0.5309309,0.59972 0,0.37747 0.2169585,0.59972 0.5221114,0.59972 z"
         style="stroke-width:0.264583"
         id="path2571" />
      <path
         d="m 2.7000468,292.50851 h 0.1481668 v -0.48859 h 0.208139 l 0.2786946,0.48859 h 0.1675696 l -0.2945696,-0.50447 c 0.1569862,-0.0406 0.2592918,-0.1464 0.2592918,-0.32632 0,-0.24165 -0.1693334,-0.32632 -0.4056947,-0.32632 H 2.7000468 Z m 0.1481668,-0.60854 v -0.42862 h 0.192264 c 0.1799168,0 0.2786946,0.0547 0.2786946,0.20637 0,0.14817 -0.098778,0.22225 -0.2786946,0.22225 z"
         style="stroke-width:0.264583"
         id="path2573" />
      <path
         d="m 4.2699053,291.86293 c 0.04057,-0.12876 0.077611,-0.25576 0.112889,-0.38982 h 0.00706 c 0.037042,0.13406 0.074083,0.26106 0.1164168,0.38982 l 0.054681,0.17463 H 4.2152247 Z m -0.3545419,0.64558 h 0.1499307 l 0.111125,-0.35101 H 4.5979889 L 4.70735,292.50851 H 4.8643363 L 4.4745166,291.3514 H 4.3051831 Z"
         style="stroke-width:0.264583"
         id="path2575" />
      <path
         d="M 5.3987927,292.50851 H 5.53814 v -0.60854 c 0,-0.11994 -0.010583,-0.24518 -0.019403,-0.3616 h 0.00706 c 0.038806,0.0847 0.081139,0.1711 0.1252362,0.24871 l 0.4127502,0.72143 H 6.2225293 V 291.3514 H 6.083182 v 0.60325 c 0,0.11995 0.010583,0.24695 0.019403,0.36689 h -0.00706 c -0.040569,-0.0847 -0.081139,-0.1711 -0.1252361,-0.24871 L 5.5575428,291.3514 H 5.3987927 Z"
         style="stroke-width:0.264583"
         id="path2577" />
      <path
         d="m 6.9086818,292.50851 h 0.2963335 c 0.3492503,0 0.5397504,-0.21519 0.5397504,-0.58384 0,-0.36689 -0.1905001,-0.57327 -0.5468059,-0.57327 h -0.289278 z m 0.1481668,-0.1217 v -0.9137 h 0.1305278 c 0.2698752,0 0.4039309,0.16051 0.4039309,0.45156 0,0.2928 -0.1340557,0.46214 -0.4039309,0.46214 z"
         style="stroke-width:0.264583"
         id="path2579" />
      <path
         d="m 8.3656535,292.50851 h 0.6843893 v -0.12523 H 8.5138202 v -0.41981 h 0.4374447 v -0.12523 H 8.5138202 v -0.3616 H 9.0324039 V 291.3514 H 8.3656535 Z"
         style="stroke-width:0.264583"
         id="path2581" />
    </g>
    <text
       xml:space="preserve"
       style="font-weight:bold;font-stretch:condensed;font-size:2.82223px;line-height:1.25;font-family:'PT Sans Narrow';-inkscape-font-specification:'PT Sans Narrow, Bold Condensed';text-align:center;text-anchor:middle;opacity:1;stroke-width:0.264583"
       x="7.705914"
       y="247.28606"
       id="text925"><tspan
         sodipodi:role="line"
         id="tspan923"
         x="7.705914"
         y="247.28606"
         style="stroke-width:0.264583" /></text>
    <rect
       style="fill:none;stroke:#555d50;stroke-width:0.265"
       id="rect902"
       width="8.7350006"
       height="34.735001"
       x="0.71249956"
       y="179.63249"
       rx="1"
       ry="1" />
    <g
       id="g891"
       transform="translate(-13.29138,0.39085)">
      <path
         d="m 15.206619,175.70818 -0.513646,-2.02989 h -0.735896 l 1.056925,3.48192 h 0.474134 l 1.047047,-3.48192 h -0.656874 l -0.503768,2.02495 -0.07902,0.59761 h -0.01976 z"
         id="path8470"
         style="font-size:4.9389px;line-height:1.25;font-family:'PTQ Sans Narrow';-inkscape-font-specification:'PTQ Sans Narrow, Normal';font-variant-ligatures:none;stroke-width:0.264583" />
      <path
         d="m 17.812709,176.63175 c -0.13335,0 -0.246945,-0.0296 -0.340784,-0.0889 -0.306212,-0.19261 -0.40499,-0.62724 -0.40499,-1.13594 0,-0.41981 0.05927,-0.73096 0.182739,-0.92852 0.118534,-0.19755 0.296334,-0.29633 0.523524,-0.29633 0.212373,0 0.380295,0.0346 0.518584,0.10372 l 0.123473,-0.54822 c -0.182739,-0.079 -0.434623,-0.12841 -0.716141,-0.12841 -0.390173,0 -0.681568,0.14322 -0.884063,0.37535 -0.276578,0.31115 -0.400051,0.79023 -0.400051,1.41747 0,0.33584 0.02963,0.6223 0.09878,0.84949 0.158045,0.55809 0.488951,0.95321 1.17052,0.95321 0.291395,0 0.607484,-0.0691 0.770468,-0.20744 l -0.123474,-0.52352 c -0.13829,0.0889 -0.291396,0.15804 -0.518585,0.15804 z"
         id="path8472"
         style="font-size:4.9389px;line-height:1.25;font-family:'PTQ Sans Narrow';-inkscape-font-specification:'PTQ Sans Narrow, Normal';font-variant-ligatures:none;stroke-width:0.264583" />
      <path
         d="m 20.161776,176.35517 0.212373,0.78035 h 0.651935 L 20.018548,173.6536 H 19.529597 L 18.527,177.13552 h 0.617363 l 0.202495,-0.78035 z m -0.681568,-0.51364 0.192617,-0.8001 0.08396,-0.54822 h 0.01976 l 0.07902,0.54328 0.197556,0.80504 z"
         id="path8474"
         style="font-size:4.9389px;line-height:1.25;font-family:'PTQ Sans Narrow';-inkscape-font-specification:'PTQ Sans Narrow, Normal';font-variant-ligatures:none;stroke-width:0.264583" />
      <path
         d="m 21.195356,176.55767 -0.158044,0.49389 c 0.148167,0.0938 0.459317,0.15311 0.706262,0.15311 0.143228,0 0.276579,-0.0198 0.40499,-0.0691 0.400051,-0.14323 0.637118,-0.51858 0.637118,-1.07174 0,-0.15805 -0.01975,-0.30127 -0.05927,-0.41981 -0.09384,-0.29139 -0.296334,-0.52352 -0.642057,-0.55315 l -0.182739,0.0296 v -0.0247 l 0.182739,-0.13335 0.572913,-0.93345 v -0.35066 H 21.07682 v 0.52352 h 0.676629 l 0.325968,-0.0444 -0.237068,0.22225 -0.488951,0.82974 v 0.33584 h 0.291395 c 0.365479,0 0.553157,0.18768 0.553157,0.5581 0,0.33091 -0.167922,0.57785 -0.49389,0.57785 -0.212373,0 -0.370417,-0.0494 -0.508707,-0.12347 z"
         id="path8476"
         style="font-size:4.9389px;line-height:1.25;font-family:'PTQ Sans Narrow';-inkscape-font-specification:'PTQ Sans Narrow, Normal';font-variant-ligatures:none;stroke-width:0.264583" />
    </g>
    <g
       aria-label="In A"
       id="text9091"
       style="font-size:2.82223px;line-height:1.25;font-family:'PTQ Sans Narrow';-inkscape-font-specification:'PTQ Sans Narrow, Normal';font-variant-ligatures:none;stroke-width:0.264583"
       transform="translate(-9.8348645,0.2909)">
      <path
         d="m 13.073362,179.72322 v 1.97556 h 0.355601 v -1.97556 z"
         id="path13735" />
      <path
         d="m 14.391341,180.25379 c -0.186267,0 -0.299156,0.0875 -0.36689,0.19756 h -0.0085 l -0.03951,-0.16369 h -0.268112 v 1.41112 h 0.335846 v -0.97932 c 0.0254,-0.079 0.09596,-0.15804 0.2032,-0.15804 0.141112,0 0.160867,0.11289 0.160867,0.2794 v 0.85796 h 0.335846 v -0.93981 c 0,-0.29351 -0.06773,-0.50518 -0.352779,-0.50518 z"
         id="path13737" />
      <path
         d="m 16.262477,181.25286 0.121355,0.44592 h 0.372535 l -0.575735,-1.98968 h -0.279401 l -0.572913,1.98968 h 0.352779 l 0.115712,-0.44592 z m -0.389468,-0.29351 0.110067,-0.4572 0.04798,-0.31327 h 0.01129 l 0.04516,0.31045 0.112889,0.46002 z"
         id="path13739" />
    </g>
    <g
       aria-label="In B"
       id="text19373"
       style="font-size:2.82223px;line-height:1.25;font-family:'PTQ Sans Narrow';-inkscape-font-specification:'PTQ Sans Narrow, Normal';font-variant-ligatures:none;stroke-width:0.264583"
       transform="translate(-10.760565,0.37355)">
      <path
         d="m 14.00894,216.6547 v 1.97556 h 0.355601 v -1.97556 z"
         id="path28827" />
      <path
         d="m 15.326918,217.18528 c -0.186267,0 -0.299156,0.0875 -0.36689,0.19756 h -0.0085 l -0.03951,-0.16369 h -0.268112 v 1.41111 h 0.335845 v -0.97931 c 0.0254,-0.079 0.09596,-0.15804 0.203201,-0.15804 0.141111,0 0.160867,0.11288 0.160867,0.2794 v 0.85795 h 0.335845 v -0.9398 c 0,-0.29351 -0.06773,-0.50518 -0.352779,-0.50518 z"
         id="path28829" />
      <path
         d="m 16.997677,216.62648 c -0.16369,0 -0.372535,0.0198 -0.502357,0.0423 v 1.94734 c 0.118533,0.0339 0.276578,0.0423 0.423334,0.0423 h 0.1016 c 0.386646,0 0.651936,-0.19192 0.651936,-0.58421 0,-0.26811 -0.121356,-0.42615 -0.333024,-0.47977 v -0.0169 c 0.180623,-0.0593 0.285046,-0.22578 0.285046,-0.46567 0,-0.37253 -0.256823,-0.48542 -0.626535,-0.48542 z m -0.146756,1.70745 v -0.56162 h 0.143933 c 0.203201,0 0.304801,0.0734 0.304801,0.2794 0,0.18062 -0.1016,0.29915 -0.270934,0.29915 -0.0508,0 -0.146756,-0.003 -0.1778,-0.0169 z m 0.41769,-1.14018 c 0,0.1524 -0.09031,0.24553 -0.197556,0.28504 -0.03387,0.008 -0.101601,0.0141 -0.13829,0.0141 h -0.08184 v -0.54752 c 0.03104,-0.006 0.08467,-0.0113 0.163689,-0.0113 0.169334,0 0.254001,0.0875 0.254001,0.25965 z"
         id="path28831" />
    </g>
    <g
       aria-label="In C"
       id="text23015"
       style="font-size:2.82223px;line-height:1.25;font-family:'PTQ Sans Narrow';-inkscape-font-specification:'PTQ Sans Narrow, Normal';font-variant-ligatures:none;stroke-width:0.264583"
       transform="translate(-10.367867,0.21915)">
      <path
         d="m 13.661399,253.82035 v 1.97556 H 14.017 v -1.97556 z"
         id="path28834" />
      <path
         d="m 14.979377,254.35093 c -0.186267,0 -0.299156,0.0875 -0.366889,0.19756 h -0.0085 l -0.03951,-0.16369 h -0.268112 v 1.41111 h 0.335845 v -0.97931 c 0.0254,-0.079 0.09596,-0.15805 0.203201,-0.15805 0.141111,0 0.160867,0.11289 0.160867,0.27941 v 0.85795 h 0.335845 v -0.9398 c 0,-0.29351 -0.06773,-0.50518 -0.352779,-0.50518 z"
         id="path28836" />
      <path
         d="m 16.867445,255.50805 c -0.0762,0 -0.141112,-0.0169 -0.194734,-0.0508 -0.174978,-0.11007 -0.231423,-0.35843 -0.231423,-0.64912 0,-0.23989 0.03387,-0.41769 0.104422,-0.53058 0.06773,-0.11289 0.169334,-0.16933 0.299157,-0.16933 0.121356,0 0.217312,0.0198 0.296334,0.0593 l 0.07056,-0.31327 c -0.104423,-0.0452 -0.248356,-0.0734 -0.409224,-0.0734 -0.222956,0 -0.389467,0.0818 -0.505179,0.21449 -0.158045,0.1778 -0.2286,0.45156 -0.2286,0.80998 0,0.19191 0.01693,0.3556 0.05644,0.48542 0.09031,0.31892 0.279401,0.54469 0.668869,0.54469 0.166511,0 0.347134,-0.0395 0.440268,-0.11853 l -0.07056,-0.29916 c -0.07902,0.0508 -0.166512,0.0903 -0.296334,0.0903 z"
         id="path28838" />
    </g>
    <rect
       style="opacity:1;fill:#555d50;fill-opacity:1;stroke:none;stroke-width:0.829453;stroke-opacity:0.25"
       id="rect1196"
       width="8.8000002"
       height="8.75"
       x="0.67999989"
       y="227.37502" />
    <rect
       style="fill:none;stroke:#555d50;stroke-width:0.265"
       id="rect1198"
       width="8.7350006"
       height="34.735001"
       x="0.71249956"
       y="216.63251"
       rx="1"
       ry="1" />
    <rect
       style="opacity:1;fill:#555d50;fill-opacity:1;stroke:none;stroke-width:0.829453;stroke-opacity:0.25"
       id="rect1216"
       width="8.8000002"
       height="8.75"
       x="0.67999989"
       y="264.375" />
    <rect
       style="fill:none;stroke:#555d50;stroke-width:0.265"
       id="rect1218"
       width="8.7350006"
       height="34.735001"
       x="0.71249956"
       y="253.63251"
       rx="1"
       ry="1" />
  </g>
  <g
     style="display:none"
     inkscape:label="components"
     id="layer2"
     inkscape:groupmode="layer">
    <circle
       inkscape:label="CV_Out"
       cy="26.250004"
       cx="5.0799999"
       id="circle918"
       style="fill:#0000ff;fill-rule:evenodd;stroke-width:0.264582"
       r="4" />
    <circle
       r="4"
       style="fill:#00ff00;fill-rule:evenodd;stroke-width:0.264582"
       id="circle922"
       cx="5.0799999"
       cy="35"
       inkscape:label="CV_Out" />
    <circle
       style="fill:#000000;fill-opacity:1;fill-rule:evenodd;stroke-width:0.264582"
       id="circle9581"
       cx="5.0799999"
       cy="42.5"
       inkscape:label="CV_Out"
       r="3" />
    <circle
       r="4"
       style="fill:#00ff00;fill-rule:evenodd;stroke-width:0.264582"
       id="circle8901"
       cx="5.0799999"
       cy="17.500004"
       inkscape:label="CV_Out" />
    <circle
       inkscape:label="CV_Out"
       cy="63.250011"
       cx="5.0799999"
       id="circle1208"
       style="fill:#0000ff;fill-rule:evenodd;stroke-width:0.264582"
       r="4" />
    <circle
       r="4"
       style="fill:#00ff00;fill-rule:evenodd;stroke-width:0.264582"
       id="circle1210"
       cx="5.0799999"
       cy="72.000008"
       inkscape:label="CV_Out" />
    <circle
       style="fill:#000000;fill-opacity:1;fill-rule:evenodd;stroke-width:0.264582"
       id="circle1212"
       cx="5.0799999"
       cy="79.500008"
       inkscape:label="CV_Out"
       r="3" />
    <circle
       r="4"
       style="fill:#00ff00;fill-rule:evenodd;stroke-width:0.264582"
       id="circle1214"
       cx="5.0799999"
       cy="54.500011"
       inkscape:label="CV_Out" />
    <circle
       inkscape:label="CV_Out"
       cy="100.25001"
       cx="5.0799999"
       id="circle1228"
       style="fill:#0000ff;fill-rule:evenodd;stroke-width:0.264582"
       r="4" />
    <circle
       r="4"
       style="fill:#00ff00;fill-rule:evenodd;stroke-width:0.264582"
       id="circle1230"
       cx="5.0799999"
       cy="109"
       inkscape:label="CV_Out" />
    <circle
       style="fill:#000000;fill-opacity:1;fill-rule:evenodd;stroke-width:0.264582"
       id="circle1232"
       cx="5.0799999"
       cy="116.5"
       inkscape:label="CV_Out"
       r="3" />
    <circle
       r="4"
       style="fill:#00ff00;fill-rule:evenodd;stroke-width:0.264582"
       id="circle1234"
       cx="5.0799999"
       cy="91.500008"
       inkscape:label="CV_Out" />
  </g>
</svg>
